<?xml version="1.0" encoding="utf-8" standalone="no"?>
<!DOCTYPE svg PUBLIC "-//W3C//DTD SVG 1.1//EN"
  "http://www.w3.org/Graphics/SVG/1.1/DTD/svg11.dtd">
<!-- Created with matplotlib (http://matplotlib.org/) -->
<svg height="396pt" version="1.1" viewBox="0 0 576 396" width="576pt" xmlns="http://www.w3.org/2000/svg" xmlns:xlink="http://www.w3.org/1999/xlink">
 <defs>
  <style type="text/css">
*{stroke-linecap:butt;stroke-linejoin:round;stroke-miterlimit:100000;}
  </style>
 </defs>
 <g id="figure_1">
  <g id="patch_1">
   <path d="M 0 396 
L 576 396 
L 576 0 
L 0 0 
z
" style="fill:#ffffff;"/>
  </g>
  <g id="axes_1">
   <g id="patch_2">
    <path d="M 72 356.4 
L 518.4 356.4 
L 518.4 39.6 
L 72 39.6 
z
" style="fill:#ffffff;"/>
   </g>
   <g id="matplotlib.axis_1">
    <g id="xtick_1">
     <g id="line2d_1">
      <defs>
       <path d="M 0 0 
L 0 0 
" id="m060f11338c" style="stroke:#262626;"/>
      </defs>
      <g>
       <use style="fill:#262626;stroke:#262626;" x="72.0" xlink:href="#m060f11338c" y="356.4"/>
      </g>
     </g>
     <g id="text_1">
      <!-- 0.0 -->
      <defs>
       <path d="M 9.078125 0 
L 9.078125 10.015625 
L 19.09375 10.015625 
L 19.09375 0 
z
" id="ArialMT-2e"/>
       <path d="M 4.15625 35.296875 
Q 4.15625 48 6.765625 55.734375 
Q 9.375 63.484375 14.515625 67.671875 
Q 19.671875 71.875 27.484375 71.875 
Q 33.25 71.875 37.59375 69.546875 
Q 41.9375 67.234375 44.765625 62.859375 
Q 47.609375 58.5 49.21875 52.21875 
Q 50.828125 45.953125 50.828125 35.296875 
Q 50.828125 22.703125 48.234375 14.96875 
Q 45.65625 7.234375 40.5 3 
Q 35.359375 -1.21875 27.484375 -1.21875 
Q 17.140625 -1.21875 11.234375 6.203125 
Q 4.15625 15.140625 4.15625 35.296875 
M 13.1875 35.296875 
Q 13.1875 17.671875 17.3125 11.828125 
Q 21.4375 6 27.484375 6 
Q 33.546875 6 37.671875 11.859375 
Q 41.796875 17.71875 41.796875 35.296875 
Q 41.796875 52.984375 37.671875 58.78125 
Q 33.546875 64.59375 27.390625 64.59375 
Q 21.34375 64.59375 17.71875 59.46875 
Q 13.1875 52.9375 13.1875 35.296875 
" id="ArialMT-30"/>
      </defs>
      <g style="fill:#262626;" transform="translate(65.05 370.5578125)scale(0.1 -0.1)">
       <use xlink:href="#ArialMT-30"/>
       <use x="55.615234375" xlink:href="#ArialMT-2e"/>
       <use x="83.3984375" xlink:href="#ArialMT-30"/>
      </g>
     </g>
    </g>
    <g id="xtick_2">
     <g id="line2d_2">
      <g>
       <use style="fill:#262626;stroke:#262626;" x="183.6" xlink:href="#m060f11338c" y="356.4"/>
      </g>
     </g>
     <g id="text_2">
      <!-- 0.5 -->
      <defs>
       <path d="M 4.15625 18.75 
L 13.375 19.53125 
Q 14.40625 12.796875 18.140625 9.390625 
Q 21.875 6 27.15625 6 
Q 33.5 6 37.890625 10.78125 
Q 42.28125 15.578125 42.28125 23.484375 
Q 42.28125 31 38.0625 35.34375 
Q 33.84375 39.703125 27 39.703125 
Q 22.75 39.703125 19.328125 37.765625 
Q 15.921875 35.84375 13.96875 32.765625 
L 5.71875 33.84375 
L 12.640625 70.609375 
L 48.25 70.609375 
L 48.25 62.203125 
L 19.671875 62.203125 
L 15.828125 42.96875 
Q 22.265625 47.46875 29.34375 47.46875 
Q 38.71875 47.46875 45.15625 40.96875 
Q 51.609375 34.46875 51.609375 24.265625 
Q 51.609375 14.546875 45.953125 7.46875 
Q 39.0625 -1.21875 27.15625 -1.21875 
Q 17.390625 -1.21875 11.203125 4.25 
Q 5.03125 9.71875 4.15625 18.75 
" id="ArialMT-35"/>
      </defs>
      <g style="fill:#262626;" transform="translate(176.65 370.5578125)scale(0.1 -0.1)">
       <use xlink:href="#ArialMT-30"/>
       <use x="55.615234375" xlink:href="#ArialMT-2e"/>
       <use x="83.3984375" xlink:href="#ArialMT-35"/>
      </g>
     </g>
    </g>
    <g id="xtick_3">
     <g id="line2d_3">
      <g>
       <use style="fill:#262626;stroke:#262626;" x="295.2" xlink:href="#m060f11338c" y="356.4"/>
      </g>
     </g>
     <g id="text_3">
      <!-- 1.0 -->
      <defs>
       <path d="M 37.25 0 
L 28.46875 0 
L 28.46875 56 
Q 25.296875 52.984375 20.140625 49.953125 
Q 14.984375 46.921875 10.890625 45.40625 
L 10.890625 53.90625 
Q 18.265625 57.375 23.78125 62.296875 
Q 29.296875 67.234375 31.59375 71.875 
L 37.25 71.875 
z
" id="ArialMT-31"/>
      </defs>
      <g style="fill:#262626;" transform="translate(288.25 370.5578125)scale(0.1 -0.1)">
       <use xlink:href="#ArialMT-31"/>
       <use x="55.615234375" xlink:href="#ArialMT-2e"/>
       <use x="83.3984375" xlink:href="#ArialMT-30"/>
      </g>
     </g>
    </g>
    <g id="xtick_4">
     <g id="line2d_4">
      <g>
       <use style="fill:#262626;stroke:#262626;" x="406.8" xlink:href="#m060f11338c" y="356.4"/>
      </g>
     </g>
     <g id="text_4">
      <!-- 1.5 -->
      <g style="fill:#262626;" transform="translate(399.85 370.5578125)scale(0.1 -0.1)">
       <use xlink:href="#ArialMT-31"/>
       <use x="55.615234375" xlink:href="#ArialMT-2e"/>
       <use x="83.3984375" xlink:href="#ArialMT-35"/>
      </g>
     </g>
    </g>
    <g id="xtick_5">
     <g id="line2d_5">
      <g>
       <use style="fill:#262626;stroke:#262626;" x="518.4" xlink:href="#m060f11338c" y="356.4"/>
      </g>
     </g>
     <g id="text_5">
      <!-- 2.0 -->
      <defs>
       <path d="M 50.34375 8.453125 
L 50.34375 0 
L 3.03125 0 
Q 2.9375 3.171875 4.046875 6.109375 
Q 5.859375 10.9375 9.828125 15.625 
Q 13.8125 20.3125 21.34375 26.46875 
Q 33.015625 36.03125 37.109375 41.625 
Q 41.21875 47.21875 41.21875 52.203125 
Q 41.21875 57.421875 37.46875 61 
Q 33.734375 64.59375 27.734375 64.59375 
Q 21.390625 64.59375 17.578125 60.78125 
Q 13.765625 56.984375 13.71875 50.25 
L 4.6875 51.171875 
Q 5.609375 61.28125 11.65625 66.578125 
Q 17.71875 71.875 27.9375 71.875 
Q 38.234375 71.875 44.234375 66.15625 
Q 50.25 60.453125 50.25 52 
Q 50.25 47.703125 48.484375 43.546875 
Q 46.734375 39.40625 42.65625 34.8125 
Q 38.578125 30.21875 29.109375 22.21875 
Q 21.1875 15.578125 18.9375 13.203125 
Q 16.703125 10.84375 15.234375 8.453125 
z
" id="ArialMT-32"/>
      </defs>
      <g style="fill:#262626;" transform="translate(511.45 370.5578125)scale(0.1 -0.1)">
       <use xlink:href="#ArialMT-32"/>
       <use x="55.615234375" xlink:href="#ArialMT-2e"/>
       <use x="83.3984375" xlink:href="#ArialMT-30"/>
      </g>
     </g>
    </g>
    <g id="text_6">
     <!-- capital -->
     <defs>
      <path d="M 25.78125 7.859375 
L 27.046875 0.09375 
Q 23.34375 -0.6875 20.40625 -0.6875 
Q 15.625 -0.6875 12.984375 0.828125 
Q 10.359375 2.34375 9.28125 4.8125 
Q 8.203125 7.28125 8.203125 15.1875 
L 8.203125 45.015625 
L 1.765625 45.015625 
L 1.765625 51.859375 
L 8.203125 51.859375 
L 8.203125 64.703125 
L 16.9375 69.96875 
L 16.9375 51.859375 
L 25.78125 51.859375 
L 25.78125 45.015625 
L 16.9375 45.015625 
L 16.9375 14.703125 
Q 16.9375 10.9375 17.40625 9.859375 
Q 17.875 8.796875 18.921875 8.15625 
Q 19.96875 7.515625 21.921875 7.515625 
Q 23.390625 7.515625 25.78125 7.859375 
" id="ArialMT-74"/>
      <path d="M 6.390625 0 
L 6.390625 71.578125 
L 15.1875 71.578125 
L 15.1875 0 
z
" id="ArialMT-6c"/>
      <path d="M 40.4375 6.390625 
Q 35.546875 2.25 31.03125 0.53125 
Q 26.515625 -1.171875 21.34375 -1.171875 
Q 12.796875 -1.171875 8.203125 3 
Q 3.609375 7.171875 3.609375 13.671875 
Q 3.609375 17.484375 5.34375 20.625 
Q 7.078125 23.78125 9.890625 25.6875 
Q 12.703125 27.59375 16.21875 28.5625 
Q 18.796875 29.25 24.03125 29.890625 
Q 34.671875 31.15625 39.703125 32.90625 
Q 39.75 34.71875 39.75 35.203125 
Q 39.75 40.578125 37.25 42.78125 
Q 33.890625 45.75 27.25 45.75 
Q 21.046875 45.75 18.09375 43.578125 
Q 15.140625 41.40625 13.71875 35.890625 
L 5.125 37.0625 
Q 6.296875 42.578125 8.984375 45.96875 
Q 11.671875 49.359375 16.75 51.1875 
Q 21.828125 53.03125 28.515625 53.03125 
Q 35.15625 53.03125 39.296875 51.46875 
Q 43.453125 49.90625 45.40625 47.53125 
Q 47.359375 45.171875 48.140625 41.546875 
Q 48.578125 39.3125 48.578125 33.453125 
L 48.578125 21.734375 
Q 48.578125 9.46875 49.140625 6.21875 
Q 49.703125 2.984375 51.375 0 
L 42.1875 0 
Q 40.828125 2.734375 40.4375 6.390625 
M 39.703125 26.03125 
Q 34.90625 24.078125 25.34375 22.703125 
Q 19.921875 21.921875 17.671875 20.9375 
Q 15.4375 19.96875 14.203125 18.09375 
Q 12.984375 16.21875 12.984375 13.921875 
Q 12.984375 10.40625 15.640625 8.0625 
Q 18.3125 5.71875 23.4375 5.71875 
Q 28.515625 5.71875 32.46875 7.9375 
Q 36.421875 10.15625 38.28125 14.015625 
Q 39.703125 17 39.703125 22.796875 
z
" id="ArialMT-61"/>
      <path d="M 40.4375 19 
L 49.078125 17.875 
Q 47.65625 8.9375 41.8125 3.875 
Q 35.984375 -1.171875 27.484375 -1.171875 
Q 16.84375 -1.171875 10.375 5.78125 
Q 3.90625 12.75 3.90625 25.734375 
Q 3.90625 34.125 6.6875 40.421875 
Q 9.46875 46.734375 15.15625 49.875 
Q 20.84375 53.03125 27.546875 53.03125 
Q 35.984375 53.03125 41.359375 48.75 
Q 46.734375 44.484375 48.25 36.625 
L 39.703125 35.296875 
Q 38.484375 40.53125 35.375 43.15625 
Q 32.28125 45.796875 27.875 45.796875 
Q 21.234375 45.796875 17.078125 41.03125 
Q 12.9375 36.28125 12.9375 25.984375 
Q 12.9375 15.53125 16.9375 10.796875 
Q 20.953125 6.0625 27.390625 6.0625 
Q 32.5625 6.0625 36.03125 9.234375 
Q 39.5 12.40625 40.4375 19 
" id="ArialMT-63"/>
      <path d="M 6.59375 -19.875 
L 6.59375 51.859375 
L 14.59375 51.859375 
L 14.59375 45.125 
Q 17.4375 49.078125 21 51.046875 
Q 24.5625 53.03125 29.640625 53.03125 
Q 36.28125 53.03125 41.359375 49.609375 
Q 46.4375 46.1875 49.015625 39.953125 
Q 51.609375 33.734375 51.609375 26.3125 
Q 51.609375 18.359375 48.75 11.984375 
Q 45.90625 5.609375 40.453125 2.21875 
Q 35.015625 -1.171875 29 -1.171875 
Q 24.609375 -1.171875 21.109375 0.6875 
Q 17.625 2.546875 15.375 5.375 
L 15.375 -19.875 
z
M 14.546875 25.640625 
Q 14.546875 15.625 18.59375 10.84375 
Q 22.65625 6.0625 28.421875 6.0625 
Q 34.28125 6.0625 38.453125 11.015625 
Q 42.625 15.96875 42.625 26.375 
Q 42.625 36.28125 38.546875 41.203125 
Q 34.46875 46.140625 28.8125 46.140625 
Q 23.1875 46.140625 18.859375 40.890625 
Q 14.546875 35.640625 14.546875 25.640625 
" id="ArialMT-70"/>
      <path d="M 6.640625 61.46875 
L 6.640625 71.578125 
L 15.4375 71.578125 
L 15.4375 61.46875 
z
M 6.640625 0 
L 6.640625 51.859375 
L 15.4375 51.859375 
L 15.4375 0 
z
" id="ArialMT-69"/>
     </defs>
     <g style="fill:#262626;" transform="translate(279.302421875 385.41890625)scale(0.11 -0.11)">
      <use xlink:href="#ArialMT-63"/>
      <use x="50.0" xlink:href="#ArialMT-61"/>
      <use x="105.615234375" xlink:href="#ArialMT-70"/>
      <use x="161.23046875" xlink:href="#ArialMT-69"/>
      <use x="183.447265625" xlink:href="#ArialMT-74"/>
      <use x="211.23046875" xlink:href="#ArialMT-61"/>
      <use x="266.845703125" xlink:href="#ArialMT-6c"/>
     </g>
    </g>
   </g>
   <g id="matplotlib.axis_2">
    <g id="ytick_1">
     <g id="line2d_6">
      <g>
       <use style="fill:#262626;stroke:#262626;" x="72.0" xlink:href="#m060f11338c" y="356.4"/>
      </g>
     </g>
     <g id="text_7">
      <!-- −40 -->
      <defs>
       <path d="M 52.828125 31.203125 
L 5.5625 31.203125 
L 5.5625 39.40625 
L 52.828125 39.40625 
z
" id="ArialMT-2212"/>
       <path d="M 32.328125 0 
L 32.328125 17.140625 
L 1.265625 17.140625 
L 1.265625 25.203125 
L 33.9375 71.578125 
L 41.109375 71.578125 
L 41.109375 25.203125 
L 50.78125 25.203125 
L 50.78125 17.140625 
L 41.109375 17.140625 
L 41.109375 0 
z
M 32.328125 25.203125 
L 32.328125 57.46875 
L 9.90625 25.203125 
z
" id="ArialMT-34"/>
      </defs>
      <g style="fill:#262626;" transform="translate(48.0375 358.98515625)scale(0.1 -0.1)">
       <use xlink:href="#ArialMT-2212"/>
       <use x="58.3984375" xlink:href="#ArialMT-34"/>
       <use x="114.013671875" xlink:href="#ArialMT-30"/>
      </g>
     </g>
    </g>
    <g id="ytick_2">
     <g id="line2d_7">
      <g>
       <use style="fill:#262626;stroke:#262626;" x="72.0" xlink:href="#m060f11338c" y="277.2"/>
      </g>
     </g>
     <g id="text_8">
      <!-- −35 -->
      <defs>
       <path d="M 4.203125 18.890625 
L 12.984375 20.0625 
Q 14.5 12.59375 18.140625 9.296875 
Q 21.78125 6 27 6 
Q 33.203125 6 37.46875 10.296875 
Q 41.75 14.59375 41.75 20.953125 
Q 41.75 27 37.796875 30.921875 
Q 33.84375 34.859375 27.734375 34.859375 
Q 25.25 34.859375 21.53125 33.890625 
L 22.515625 41.609375 
Q 23.390625 41.5 23.921875 41.5 
Q 29.546875 41.5 34.03125 44.421875 
Q 38.53125 47.359375 38.53125 53.46875 
Q 38.53125 58.296875 35.25 61.46875 
Q 31.984375 64.65625 26.8125 64.65625 
Q 21.6875 64.65625 18.265625 61.421875 
Q 14.84375 58.203125 13.875 51.765625 
L 5.078125 53.328125 
Q 6.6875 62.15625 12.390625 67.015625 
Q 18.109375 71.875 26.609375 71.875 
Q 32.46875 71.875 37.390625 69.359375 
Q 42.328125 66.84375 44.9375 62.5 
Q 47.5625 58.15625 47.5625 53.265625 
Q 47.5625 48.640625 45.0625 44.828125 
Q 42.578125 41.015625 37.703125 38.765625 
Q 44.046875 37.3125 47.5625 32.6875 
Q 51.078125 28.078125 51.078125 21.140625 
Q 51.078125 11.765625 44.234375 5.25 
Q 37.40625 -1.265625 26.953125 -1.265625 
Q 17.53125 -1.265625 11.296875 4.34375 
Q 5.078125 9.96875 4.203125 18.890625 
" id="ArialMT-33"/>
      </defs>
      <g style="fill:#262626;" transform="translate(48.0375 279.78515625)scale(0.1 -0.1)">
       <use xlink:href="#ArialMT-2212"/>
       <use x="58.3984375" xlink:href="#ArialMT-33"/>
       <use x="114.013671875" xlink:href="#ArialMT-35"/>
      </g>
     </g>
    </g>
    <g id="ytick_3">
     <g id="line2d_8">
      <g>
       <use style="fill:#262626;stroke:#262626;" x="72.0" xlink:href="#m060f11338c" y="198.0"/>
      </g>
     </g>
     <g id="text_9">
      <!-- −30 -->
      <g style="fill:#262626;" transform="translate(48.0375 200.58515625)scale(0.1 -0.1)">
       <use xlink:href="#ArialMT-2212"/>
       <use x="58.3984375" xlink:href="#ArialMT-33"/>
       <use x="114.013671875" xlink:href="#ArialMT-30"/>
      </g>
     </g>
    </g>
    <g id="ytick_4">
     <g id="line2d_9">
      <g>
       <use style="fill:#262626;stroke:#262626;" x="72.0" xlink:href="#m060f11338c" y="118.8"/>
      </g>
     </g>
     <g id="text_10">
      <!-- −25 -->
      <g style="fill:#262626;" transform="translate(48.0375 121.38515625)scale(0.1 -0.1)">
       <use xlink:href="#ArialMT-2212"/>
       <use x="58.3984375" xlink:href="#ArialMT-32"/>
       <use x="114.013671875" xlink:href="#ArialMT-35"/>
      </g>
     </g>
    </g>
    <g id="ytick_5">
     <g id="line2d_10">
      <g>
       <use style="fill:#262626;stroke:#262626;" x="72.0" xlink:href="#m060f11338c" y="39.6"/>
      </g>
     </g>
     <g id="text_11">
      <!-- −20 -->
      <g style="fill:#262626;" transform="translate(48.0375 42.18515625)scale(0.1 -0.1)">
       <use xlink:href="#ArialMT-2212"/>
       <use x="58.3984375" xlink:href="#ArialMT-32"/>
       <use x="114.013671875" xlink:href="#ArialMT-30"/>
      </g>
     </g>
    </g>
    <g id="text_12">
     <!-- $-$value -->
     <defs>
      <path d="M 21 0 
L 1.265625 51.859375 
L 10.546875 51.859375 
L 21.6875 20.796875 
Q 23.484375 15.765625 25 10.359375 
Q 26.171875 14.453125 28.265625 20.21875 
L 39.796875 51.859375 
L 48.828125 51.859375 
L 29.203125 0 
z
" id="ArialMT-76"/>
      <path d="M 10.203125 23 
Q 9.375 23 8.828125 23.625 
Q 8.296875 24.265625 8.296875 25 
Q 8.296875 25.734375 8.828125 26.359375 
Q 9.375 27 10.203125 27 
L 67.578125 27 
Q 68.359375 27 68.875 26.359375 
Q 69.390625 25.734375 69.390625 25 
Q 69.390625 24.265625 68.875 23.625 
Q 68.359375 23 67.578125 23 
z
" id="Cmsy10-a1"/>
      <path d="M 40.578125 0 
L 40.578125 7.625 
Q 34.515625 -1.171875 24.125 -1.171875 
Q 19.53125 -1.171875 15.546875 0.578125 
Q 11.578125 2.34375 9.640625 5 
Q 7.71875 7.671875 6.9375 11.53125 
Q 6.390625 14.109375 6.390625 19.734375 
L 6.390625 51.859375 
L 15.1875 51.859375 
L 15.1875 23.09375 
Q 15.1875 16.21875 15.71875 13.8125 
Q 16.546875 10.359375 19.234375 8.375 
Q 21.921875 6.390625 25.875 6.390625 
Q 29.828125 6.390625 33.296875 8.421875 
Q 36.765625 10.453125 38.203125 13.9375 
Q 39.65625 17.4375 39.65625 24.078125 
L 39.65625 51.859375 
L 48.4375 51.859375 
L 48.4375 0 
z
" id="ArialMT-75"/>
      <path d="M 42.09375 16.703125 
L 51.171875 15.578125 
Q 49.03125 7.625 43.21875 3.21875 
Q 37.40625 -1.171875 28.375 -1.171875 
Q 17 -1.171875 10.328125 5.828125 
Q 3.65625 12.84375 3.65625 25.484375 
Q 3.65625 38.578125 10.390625 45.796875 
Q 17.140625 53.03125 27.875 53.03125 
Q 38.28125 53.03125 44.875 45.953125 
Q 51.46875 38.875 51.46875 26.03125 
Q 51.46875 25.25 51.421875 23.6875 
L 12.75 23.6875 
Q 13.234375 15.140625 17.578125 10.59375 
Q 21.921875 6.0625 28.421875 6.0625 
Q 33.25 6.0625 36.671875 8.59375 
Q 40.09375 11.140625 42.09375 16.703125 
M 13.234375 30.90625 
L 42.1875 30.90625 
Q 41.609375 37.453125 38.875 40.71875 
Q 34.671875 45.796875 27.984375 45.796875 
Q 21.921875 45.796875 17.796875 41.75 
Q 13.671875 37.703125 13.234375 30.90625 
" id="ArialMT-65"/>
     </defs>
     <g style="fill:#262626;" transform="translate(40.85125 215.435)rotate(-90.0)scale(0.11 -0.11)">
      <use transform="translate(0.0 0.421875)" xlink:href="#Cmsy10-a1"/>
      <use transform="translate(77.685546875 0.421875)" xlink:href="#ArialMT-76"/>
      <use transform="translate(127.685546875 0.421875)" xlink:href="#ArialMT-61"/>
      <use transform="translate(183.30078125 0.421875)" xlink:href="#ArialMT-6c"/>
      <use transform="translate(205.517578125 0.421875)" xlink:href="#ArialMT-75"/>
      <use transform="translate(261.1328125 0.421875)" xlink:href="#ArialMT-65"/>
     </g>
    </g>
   </g>
   <g id="line2d_11">
    <path clip-path="url(#p8c1b857f5f)" d="M 74.995593 397 
L 74.996195 396.822467 
L 77.992167 355.360194 
L 80.988138 331.400888 
L 83.98411 314.277316 
L 86.980081 301.084857 
L 89.976053 290.215234 
L 92.972025 281.122031 
L 95.967996 273.22652 
L 98.963968 266.247529 
L 101.95994 260.000872 
L 104.955911 254.350884 
L 107.951883 249.195125 
L 110.947855 244.454602 
L 113.943826 240.067288 
L 116.939798 235.983705 
L 119.93577 232.163829 
L 122.931741 228.574884 
L 125.927713 225.189725 
L 131.919656 218.9435 
L 137.9116 213.2991 
L 143.903543 208.153732 
L 149.895486 203.404766 
L 155.88743 199.025574 
L 161.879373 194.933433 
L 167.871316 191.119066 
L 173.86326 187.5228 
L 182.851174 182.516943 
L 191.839089 177.901925 
L 200.827004 173.619977 
L 209.814919 169.626982 
L 218.802834 165.888078 
L 227.790749 162.371739 
L 236.778664 159.051736 
L 245.766579 155.906624 
L 257.750466 151.958548 
L 269.734353 148.255119 
L 281.718239 144.771416 
L 296.698097 140.687602 
L 311.677956 136.867729 
L 326.657814 133.276513 
L 344.633644 129.238685 
L 362.609474 125.458344 
L 380.585304 121.905054 
L 401.557105 118.013557 
L 422.528907 114.361398 
L 443.500709 110.92096 
L 467.468482 107.219455 
L 491.436255 103.735928 
L 518.4 100.047606 
L 518.4 100.047606 
" style="fill:none;stroke:#440154;stroke-linecap:round;stroke-width:1.75;"/>
   </g>
   <g id="line2d_12">
    <path clip-path="url(#p8c1b857f5f)" d="M 74.885995 397 
L 74.996195 360.767152 
L 77.992167 327.886857 
L 80.988138 308.731804 
L 83.98411 295.263586 
L 86.980081 284.722227 
L 89.976053 276.213097 
L 92.972025 268.988112 
L 95.967996 262.720835 
L 98.963968 257.193303 
L 101.95994 252.251576 
L 104.955911 247.783562 
L 107.951883 243.705523 
L 110.947855 239.953513 
L 113.943826 236.477755 
L 116.939798 233.239569 
L 119.93577 230.211888 
L 122.931741 227.370342 
L 128.923685 222.155996 
L 134.915628 217.469208 
L 140.907571 213.198238 
L 146.899515 209.301633 
L 152.891458 205.681395 
L 158.883401 202.344531 
L 164.875345 199.213856 
L 170.867288 196.282926 
L 179.855203 192.209198 
L 188.843118 188.457358 
L 197.831033 184.979781 
L 206.818948 181.751952 
L 215.806863 178.728326 
L 227.790749 174.972242 
L 239.774636 171.504817 
L 251.758523 168.272634 
L 263.742409 165.248893 
L 278.722267 161.723854 
L 293.702126 158.44462 
L 308.681984 155.381778 
L 323.661842 152.504984 
L 341.637672 149.272448 
L 359.613502 146.249145 
L 380.585304 142.951153 
L 401.557105 139.869629 
L 425.524879 136.58125 
L 449.492652 133.507686 
L 476.456397 130.274825 
L 506.416113 126.926757 
L 518.4 125.650698 
L 518.4 125.650698 
" style="fill:none;stroke:#460b5e;stroke-linecap:round;stroke-width:1.75;"/>
   </g>
   <g id="line2d_13">
    <path clip-path="url(#p8c1b857f5f)" d="M 74.838076 397 
L 74.996195 340.711007 
L 77.992167 313.161373 
L 80.988138 297.221814 
L 83.98411 285.909366 
L 86.980081 277.163983 
L 89.976053 269.986235 
L 92.972025 263.916443 
L 95.967996 258.664388 
L 98.963968 254.037345 
L 101.95994 249.899529 
L 104.955911 246.160715 
L 107.951883 242.750871 
L 110.947855 239.611526 
L 113.943826 236.704524 
L 116.939798 233.997311 
L 119.93577 231.462082 
L 122.931741 229.074802 
L 128.923685 224.71487 
L 134.915628 220.785341 
L 140.907571 217.224052 
L 146.899515 213.933712 
L 152.891458 210.929237 
L 158.883401 208.12417 
L 164.875345 205.500797 
L 173.86326 201.875121 
L 182.851174 198.565011 
L 191.839089 195.501595 
L 200.827004 192.668477 
L 209.814919 190.021247 
L 221.798806 186.747315 
L 233.782693 183.731343 
L 245.766579 180.923451 
L 257.750466 178.310907 
L 272.730324 175.266475 
L 287.710182 172.443918 
L 305.686012 169.302492 
L 323.661842 166.396359 
L 344.633644 163.255938 
L 365.605446 160.347654 
L 386.577247 157.642532 
L 410.54502 154.759947 
L 437.508765 151.753044 
L 464.47251 148.961889 
L 491.436255 146.356172 
L 518.4 143.911118 
L 518.4 143.911118 
" style="fill:none;stroke:#481769;stroke-linecap:round;stroke-width:1.75;"/>
   </g>
   <g id="line2d_14">
    <path clip-path="url(#p8c1b857f5f)" d="M 74.819753 397 
L 74.996195 330.129269 
L 77.992167 306.01709 
L 80.988138 292.095672 
L 83.98411 282.065777 
L 86.980081 274.321979 
L 89.976053 268.039568 
L 92.972025 262.724618 
L 95.967996 258.11634 
L 98.963968 254.046297 
L 101.95994 250.402647 
L 104.955911 247.104735 
L 107.951883 244.09669 
L 110.947855 241.332679 
L 113.943826 238.780325 
L 116.939798 236.39988 
L 122.931741 232.066872 
L 128.923685 228.236575 
L 134.915628 224.777063 
L 140.907571 221.633576 
L 146.899515 218.752705 
L 152.891458 216.097046 
L 161.879373 212.458467 
L 170.867288 209.164169 
L 179.855203 206.166556 
L 188.843118 203.397184 
L 197.831033 200.839502 
L 209.814919 197.703685 
L 221.798806 194.819911 
L 233.782693 192.165854 
L 248.762551 189.108148 
L 263.742409 186.300916 
L 278.722267 183.699517 
L 296.698097 180.824567 
L 314.673927 178.165165 
L 335.645729 175.30191 
L 356.617531 172.663053 
L 380.585304 169.871833 
L 404.553077 167.284786 
L 431.516822 164.598016 
L 461.476539 161.833952 
L 494.432227 159.027129 
L 518.4 157.125081 
L 518.4 157.125081 
" style="fill:none;stroke:#482071;stroke-linecap:round;stroke-width:1.75;"/>
   </g>
   <g id="line2d_15">
    <path clip-path="url(#p8c1b857f5f)" d="M 74.816465 397 
L 74.996195 325.2675 
L 77.992167 303.311197 
L 80.988138 290.461833 
L 83.98411 281.389665 
L 86.980081 274.305349 
L 89.976053 268.515015 
L 92.972025 263.626184 
L 95.967996 259.400279 
L 98.963968 255.678294 
L 101.95994 252.353087 
L 104.955911 249.341561 
L 107.951883 246.585265 
L 110.947855 244.04171 
L 113.943826 241.687762 
L 119.93577 237.484173 
L 125.927713 233.749698 
L 131.919656 230.42523 
L 137.9116 227.406593 
L 143.903543 224.635546 
L 149.895486 222.123537 
L 155.88743 219.781986 
L 161.879373 217.599083 
L 170.867288 214.585564 
L 179.855203 211.836583 
L 188.843118 209.295084 
L 200.827004 206.211069 
L 212.810891 203.400602 
L 224.794778 200.816399 
L 239.774636 197.860413 
L 254.754494 195.157499 
L 272.730324 192.190124 
L 290.706154 189.478189 
L 308.681984 186.980604 
L 329.653786 184.298156 
L 353.621559 181.486837 
L 377.589332 178.904837 
L 404.553077 176.229694 
L 434.512794 173.500464 
L 467.468482 170.753031 
L 503.420142 168.001827 
L 518.4 166.923139 
L 518.4 166.923139 
" style="fill:none;stroke:#472a7a;stroke-linecap:round;stroke-width:1.75;"/>
   </g>
   <g id="line2d_16">
    <path clip-path="url(#p8c1b857f5f)" d="M 74.820551 397 
L 74.996195 323.71533 
L 77.992167 303.197804 
L 80.988138 290.920916 
L 83.98411 282.375259 
L 86.980081 275.719424 
L 89.976053 270.277479 
L 92.972025 265.677064 
L 95.967996 261.687904 
L 98.963968 258.162267 
L 101.95994 255.001114 
L 104.955911 252.139468 
L 107.951883 249.558076 
L 110.947855 247.185391 
L 113.943826 244.976853 
L 119.93577 240.973065 
L 125.927713 237.475522 
L 131.919656 234.325837 
L 137.9116 231.478482 
L 143.903543 228.879597 
L 149.895486 226.491281 
L 155.88743 224.287386 
L 164.875345 221.25515 
L 173.86326 218.497367 
L 182.851174 215.976864 
L 194.835061 212.913398 
L 206.818948 210.139394 
L 218.802834 207.595816 
L 233.782693 204.697216 
L 248.762551 202.057096 
L 263.742409 199.634102 
L 281.718239 196.958753 
L 299.694069 194.504743 
L 320.665871 191.87894 
L 341.637672 189.465943 
L 365.605446 186.927724 
L 392.56919 184.30824 
L 422.528907 181.643673 
L 455.484595 178.961212 
L 488.440283 176.50185 
L 518.4 174.428308 
L 518.4 174.428308 
" style="fill:none;stroke:#46337f;stroke-linecap:round;stroke-width:1.75;"/>
   </g>
   <g id="line2d_17">
    <path clip-path="url(#p8c1b857f5f)" d="M 74.828257 397 
L 74.996195 324.151499 
L 77.992167 304.405564 
L 80.988138 292.595273 
L 83.98411 284.340847 
L 86.980081 277.942654 
L 89.976053 272.691377 
L 92.972025 268.240733 
L 95.967996 264.382317 
L 98.963968 261.002919 
L 101.95994 257.989582 
L 104.955911 255.263538 
L 107.951883 252.765941 
L 110.947855 250.458154 
L 113.943826 248.311691 
L 119.93577 244.500304 
L 125.927713 241.100644 
L 131.919656 238.083325 
L 137.9116 235.343475 
L 143.903543 232.838311 
L 152.891458 229.442416 
L 158.883401 227.398838 
L 167.871316 224.581007 
L 176.859231 222.008754 
L 185.847146 219.647491 
L 197.831033 216.770422 
L 209.814919 214.158165 
L 224.794778 211.199447 
L 239.774636 208.512239 
L 254.754494 206.054658 
L 272.730324 203.364458 
L 290.706154 200.901167 
L 311.677956 198.269599 
L 335.645729 195.526313 
L 362.609474 192.733721 
L 386.577247 190.461065 
L 413.540992 188.100825 
L 446.49668 185.456829 
L 479.452368 183.032921 
L 515.404028 180.602272 
L 518.4 180.408124 
L 518.4 180.408124 
" style="fill:none;stroke:#433d84;stroke-linecap:round;stroke-width:1.75;"/>
   </g>
   <g id="line2d_18">
    <path clip-path="url(#p8c1b857f5f)" d="M 74.837532 397 
L 74.996195 325.742143 
L 77.992167 306.404979 
L 80.988138 294.888459 
L 83.98411 286.776331 
L 86.980081 280.509256 
L 89.976053 275.402811 
L 92.972025 271.088025 
L 95.967996 267.350202 
L 98.963968 264.050383 
L 101.95994 261.098572 
L 104.955911 258.421519 
L 107.951883 255.978406 
L 110.947855 253.732759 
L 113.943826 251.662569 
L 119.93577 247.920378 
L 122.931741 246.202926 
L 128.923685 243.101517 
L 134.915628 240.290006 
L 140.907571 237.735572 
L 146.899515 235.396877 
L 152.891458 233.241014 
L 161.879373 230.278225 
L 170.867288 227.600069 
L 179.855203 225.171934 
L 188.843118 222.926059 
L 200.827004 220.193488 
L 212.810891 217.70352 
L 224.794778 215.411841 
L 239.774636 212.795375 
L 254.754494 210.396999 
L 269.734353 208.187916 
L 287.710182 205.746491 
L 308.681984 203.150937 
L 329.653786 200.770783 
L 353.621559 198.272626 
L 380.585304 195.713595 
L 407.549049 193.364657 
L 437.508765 190.968615 
L 473.460425 188.341602 
L 512.408057 185.745609 
L 518.4 185.366352 
L 518.4 185.366352 
" style="fill:none;stroke:#404588;stroke-linecap:round;stroke-width:1.75;"/>
   </g>
   <g id="line2d_19">
    <path clip-path="url(#p8c1b857f5f)" d="M 74.847145 397 
L 74.996195 327.92062 
L 77.992167 308.776183 
L 80.988138 297.463573 
L 83.98411 289.481268 
L 86.980081 283.328766 
L 89.976053 278.297913 
L 92.972025 274.041571 
L 95.967996 270.350283 
L 98.963968 267.102222 
L 101.95994 264.201862 
L 104.955911 261.574195 
L 107.951883 259.168493 
L 110.947855 256.954964 
L 116.939798 253.001851 
L 119.93577 251.204129 
L 125.927713 247.972286 
L 131.919656 245.049417 
L 137.9116 242.420286 
L 143.903543 240.02119 
L 149.895486 237.811114 
L 158.883401 234.790759 
L 167.871316 232.071122 
L 176.859231 229.599215 
L 185.847146 227.319136 
L 197.831033 224.550098 
L 209.814919 222.040237 
L 224.794778 219.202725 
L 239.774636 216.616837 
L 254.754494 214.260937 
L 272.730324 211.673469 
L 290.706154 209.308088 
L 311.677956 206.772767 
L 335.645729 204.145713 
L 362.609474 201.462371 
L 389.573219 199.010641 
L 419.532935 196.519505 
L 452.488624 194.0202 
L 485.444312 191.728126 
L 518.4 189.611128 
L 518.4 189.611128 
" style="fill:none;stroke:#3d4e8a;stroke-linecap:round;stroke-width:1.75;"/>
   </g>
   <g id="line2d_20">
    <path clip-path="url(#p8c1b857f5f)" d="M 74.856483 397 
L 74.996195 330.367039 
L 77.992167 311.390444 
L 80.988138 300.209921 
L 83.98411 292.287151 
L 86.980081 286.178828 
L 89.976053 281.197149 
L 92.972025 276.989697 
L 95.967996 273.345331 
L 98.963968 270.131939 
L 101.95994 267.254323 
L 104.955911 264.644889 
L 107.951883 262.255586 
L 110.947855 260.057794 
L 113.943826 258.029316 
L 119.93577 254.374906 
L 125.927713 251.170184 
L 131.919656 248.273465 
L 137.9116 245.669187 
L 143.903543 243.288872 
L 149.895486 241.104526 
L 158.883401 238.106533 
L 167.871316 235.420292 
L 176.859231 232.969794 
L 185.847146 230.713333 
L 197.831033 227.97841 
L 209.814919 225.488858 
L 224.794778 222.669833 
L 239.774636 220.106643 
L 254.754494 217.76349 
L 272.730324 215.197948 
L 290.706154 212.852194 
L 311.677956 210.356011 
L 335.645729 207.751282 
L 359.613502 205.374084 
L 386.577247 202.923664 
L 416.536964 200.438861 
L 449.492652 197.93893 
L 482.44834 195.654381 
L 518.4 193.35914 
L 518.4 193.35914 
" style="fill:none;stroke:#39558c;stroke-linecap:round;stroke-width:1.75;"/>
   </g>
   <g id="line2d_21">
    <path clip-path="url(#p8c1b857f5f)" d="M 74.865435 397 
L 74.996195 332.976002 
L 77.992167 314.071763 
L 80.988138 302.95968 
L 83.98411 295.087861 
L 86.980081 289.024121 
L 89.976053 284.075386 
L 92.972025 279.889534 
L 95.967996 276.262485 
L 98.963968 273.063183 
L 101.95994 270.19657 
L 104.955911 267.59684 
L 107.951883 265.217631 
L 110.947855 263.041879 
L 116.939798 259.158875 
L 122.931741 255.766807 
L 128.923685 252.726754 
L 134.915628 250.00832 
L 140.907571 247.538161 
L 146.899515 245.269742 
L 155.88743 242.18808 
L 164.875345 239.421664 
L 173.86326 236.905867 
L 182.851174 234.604585 
L 194.835061 231.819921 
L 206.818948 229.286832 
L 218.802834 226.970531 
L 230.786721 224.834785 
L 245.766579 222.385547 
L 260.746438 220.136588 
L 275.726296 218.06183 
L 293.702126 215.756893 
L 317.669899 212.971836 
L 338.641701 210.739869 
L 365.605446 208.118129 
L 395.565162 205.473348 
L 425.524879 203.066477 
L 458.480567 200.642471 
L 497.428198 198.034689 
L 518.4 196.726005 
L 518.4 196.726005 
" style="fill:none;stroke:#355e8d;stroke-linecap:round;stroke-width:1.75;"/>
   </g>
   <g id="line2d_22">
    <path clip-path="url(#p8c1b857f5f)" d="M 74.873777 397 
L 74.996195 335.588316 
L 77.992167 316.747472 
L 80.988138 305.690119 
L 83.98411 297.842705 
L 86.980081 291.79543 
L 89.976053 286.860062 
L 92.972025 282.684663 
L 95.967996 279.066838 
L 98.963968 275.875837 
L 101.95994 273.022461 
L 104.955911 270.436346 
L 107.951883 268.073389 
L 110.947855 265.90697 
L 116.939798 262.038147 
L 122.931741 258.655172 
L 128.923685 255.620073 
L 134.915628 252.917236 
L 140.907571 250.453669 
L 146.899515 248.196091 
L 155.88743 245.124668 
L 164.875345 242.366683 
L 173.86326 239.864571 
L 182.851174 237.571308 
L 194.835061 234.794955 
L 206.818948 232.270266 
L 218.802834 229.961365 
L 230.786721 227.833444 
L 245.766579 225.399201 
L 263.742409 222.727621 
L 281.718239 220.303334 
L 302.690041 217.718742 
L 326.657814 215.041092 
L 350.625587 212.60499 
L 374.59336 210.368952 
L 404.553077 207.812923 
L 437.508765 205.251926 
L 470.464453 202.918002 
L 509.412085 200.39105 
L 518.4 199.838233 
L 518.4 199.838233 
" style="fill:none;stroke:#32658e;stroke-linecap:round;stroke-width:1.75;"/>
   </g>
   <g id="line2d_23">
    <path clip-path="url(#p8c1b857f5f)" d="M 74.881549 397 
L 74.996195 338.182202 
L 77.992167 319.36991 
L 80.988138 308.333784 
L 83.98411 300.498068 
L 86.980081 294.459543 
L 89.976053 289.532081 
L 92.972025 285.369263 
L 95.967996 281.764368 
L 98.963968 278.58613 
L 101.95994 275.740003 
L 104.955911 273.159513 
L 107.951883 270.803651 
L 110.947855 268.642276 
L 116.939798 264.779182 
L 122.931741 261.400889 
L 128.923685 258.368729 
L 134.915628 255.677501 
L 140.907571 253.21849 
L 146.899515 250.964905 
L 155.88743 247.89938 
L 164.875345 245.149351 
L 173.86326 242.653313 
L 182.851174 240.366501 
L 194.835061 237.593531 
L 206.818948 235.072813 
L 221.798806 232.228456 
L 233.782693 230.150037 
L 248.762551 227.759365 
L 263.742409 225.557506 
L 281.718239 223.135864 
L 302.690041 220.558702 
L 326.657814 217.883854 
L 350.625587 215.454499 
L 377.589332 212.965024 
L 407.549049 210.435248 
L 440.504737 207.901194 
L 476.456397 205.389099 
L 515.404028 202.903383 
L 518.4 202.721293 
L 518.4 202.721293 
" style="fill:none;stroke:#2e6d8e;stroke-linecap:round;stroke-width:1.75;"/>
   </g>
   <g id="line2d_24">
    <path clip-path="url(#p8c1b857f5f)" d="M 74.888707 397 
L 74.996195 340.693675 
L 77.992167 321.895293 
L 80.988138 310.871097 
L 83.98411 303.048437 
L 86.980081 297.022212 
L 89.976053 292.106869 
L 92.972025 287.95093 
L 95.967996 284.351377 
L 98.963968 281.178476 
L 101.95994 278.3361 
L 104.955911 275.758471 
L 107.951883 273.405338 
L 110.947855 271.246259 
L 116.939798 267.386065 
L 122.931741 264.01031 
L 128.923685 260.979951 
L 134.915628 258.296057 
L 140.907571 255.84227 
L 146.899515 253.59113 
L 152.891458 251.503924 
L 161.879373 248.67122 
L 170.867288 246.087482 
L 179.855203 243.74739 
L 188.843118 241.590941 
L 200.827004 238.950152 
L 212.810891 236.551326 
L 227.790749 233.823482 
L 242.770608 231.349456 
L 257.750466 229.076346 
L 275.726296 226.582035 
L 293.702126 224.301355 
L 314.673927 221.863438 
L 335.645729 219.622469 
L 362.609474 216.999977 
L 389.573219 214.607069 
L 419.532935 212.174016 
L 449.492652 209.939171 
L 485.444312 207.483854 
L 518.4 205.415074 
L 518.4 205.415074 
" style="fill:none;stroke:#2c738e;stroke-linecap:round;stroke-width:1.75;"/>
   </g>
   <g id="line2d_25">
    <path clip-path="url(#p8c1b857f5f)" d="M 74.895282 397 
L 74.996195 343.104134 
L 77.992167 324.322007 
L 80.988138 313.315372 
L 83.98411 305.501026 
L 86.980081 299.479889 
L 89.976053 294.569606 
L 92.972025 290.417215 
L 95.967996 286.820387 
L 98.963968 283.649501 
L 101.95994 280.808743 
L 104.955911 278.232444 
L 107.951883 275.880675 
L 110.947855 273.722798 
L 116.939798 269.864142 
L 122.931741 266.48984 
L 128.923685 263.460614 
L 134.915628 260.780698 
L 140.907571 258.331532 
L 146.899515 256.083294 
L 152.891458 253.997955 
L 161.879373 251.166425 
L 170.867288 248.583809 
L 179.855203 246.245908 
L 188.843118 244.090657 
L 200.827004 241.451939 
L 212.810891 239.054863 
L 227.790749 236.332187 
L 242.770608 233.85993 
L 257.750466 231.588077 
L 275.726296 229.095928 
L 293.702126 226.816998 
L 314.673927 224.381875 
L 335.645729 222.145034 
L 362.609474 219.523449 
L 389.573219 217.131371 
L 419.532935 214.699526 
L 449.492652 212.467298 
L 485.444312 210.012676 
L 518.4 207.94439 
L 518.4 207.94439 
" style="fill:none;stroke:#297b8e;stroke-linecap:round;stroke-width:1.75;"/>
   </g>
   <g id="line2d_26">
    <path clip-path="url(#p8c1b857f5f)" d="M 74.901357 397 
L 74.996195 345.426182 
L 77.992167 326.653545 
L 80.988138 315.654203 
L 83.98411 307.844007 
L 86.980081 301.825417 
L 89.976053 296.917066 
L 92.972025 292.766233 
L 95.967996 289.170659 
L 98.963968 286.000774 
L 101.95994 283.160851 
L 104.955911 280.58525 
L 107.951883 278.234186 
L 110.947855 276.07697 
L 116.939798 272.219182 
L 122.931741 268.845747 
L 128.923685 265.817243 
L 134.915628 263.139281 
L 140.907571 260.693163 
L 146.899515 258.447608 
L 152.891458 256.364536 
L 161.879373 253.53432 
L 170.867288 250.953137 
L 179.855203 248.615944 
L 188.843118 246.461146 
L 200.827004 243.8233 
L 212.810891 241.426739 
L 227.790749 238.705917 
L 242.770608 236.23461 
L 257.750466 233.963454 
L 275.726296 231.472748 
L 293.702126 229.194634 
L 314.673927 226.761039 
L 335.645729 224.528103 
L 362.609474 221.907641 
L 389.573219 219.516436 
L 419.532935 217.085562 
L 449.492652 214.85519 
L 485.444312 212.401042 
L 518.4 210.332768 
L 518.4 210.332768 
" style="fill:none;stroke:#26828e;stroke-linecap:round;stroke-width:1.75;"/>
   </g>
   <g id="line2d_27">
    <path clip-path="url(#p8c1b857f5f)" d="M 74.906957 397 
L 74.996195 347.64808 
L 77.992167 328.880162 
L 80.988138 317.883992 
L 83.98411 310.07558 
L 86.980081 304.058177 
L 89.976053 299.150778 
L 92.972025 295.000728 
L 95.967996 291.405823 
L 98.963968 288.236454 
L 101.95994 285.39698 
L 104.955911 282.821765 
L 107.951883 280.471098 
L 110.947855 278.314258 
L 116.939798 274.45698 
L 122.931741 271.08408 
L 128.923685 268.056042 
L 134.915628 265.378993 
L 140.907571 262.934518 
L 146.899515 260.690774 
L 152.891458 258.609623 
L 161.879373 255.78079 
L 170.867288 253.201388 
L 179.855203 250.864963 
L 188.843118 248.710698 
L 200.827004 246.073953 
L 212.810891 243.677708 
L 227.790749 240.957504 
L 242.770608 238.486555 
L 257.750466 236.215667 
L 275.726296 233.7256 
L 293.702126 231.447722 
L 314.673927 229.014483 
L 335.645729 226.783019 
L 362.609474 224.163157 
L 389.573219 221.772441 
L 419.532935 219.342119 
L 449.492652 217.112878 
L 485.444312 214.659162 
L 518.4 212.590903 
L 518.4 212.590903 
" style="fill:none;stroke:#23898e;stroke-linecap:round;stroke-width:1.75;"/>
   </g>
   <g id="line2d_28">
    <path clip-path="url(#p8c1b857f5f)" d="M 74.912119 397 
L 74.996195 349.766372 
L 77.992167 331.000523 
L 80.988138 320.005871 
L 83.98411 312.198349 
L 86.980081 306.181593 
L 89.976053 301.274673 
L 92.972025 297.125047 
L 95.967996 293.53051 
L 98.963968 290.361432 
L 101.95994 287.522213 
L 104.955911 284.947219 
L 107.951883 282.596783 
L 110.947855 280.440166 
L 116.939798 276.583196 
L 122.931741 273.210637 
L 128.923685 270.182897 
L 134.915628 267.506269 
L 140.907571 265.062594 
L 146.899515 262.819835 
L 152.891458 260.739888 
L 161.879373 257.91208 
L 170.867288 255.334221 
L 179.855203 252.998576 
L 188.843118 250.844902 
L 200.827004 248.2095 
L 212.810891 245.813657 
L 227.790749 243.094136 
L 242.770608 240.623606 
L 257.750466 238.353033 
L 275.726296 235.8638 
L 293.702126 233.586084 
L 314.673927 231.152953 
L 335.645729 228.921977 
L 362.609474 226.302338 
L 389.573219 223.911809 
L 419.532935 221.481704 
L 449.492652 219.25294 
L 485.444312 216.799443 
L 518.4 214.731191 
L 518.4 214.731191 
" style="fill:none;stroke:#21918c;stroke-linecap:round;stroke-width:1.75;"/>
   </g>
   <g id="line2d_29">
    <path clip-path="url(#p8c1b857f5f)" d="M 74.91688 397 
L 74.996195 351.782154 
L 77.992167 333.017352 
L 80.988138 322.023496 
L 83.98411 314.216441 
L 86.980081 308.200055 
L 89.976053 303.293409 
L 92.972025 299.144025 
L 95.967996 295.549689 
L 98.963968 292.380781 
L 101.95994 289.541712 
L 104.955911 286.966849 
L 107.951883 284.616553 
L 110.947855 282.460071 
L 116.939798 278.603299 
L 122.931741 275.230956 
L 128.923685 272.203413 
L 134.915628 269.526975 
L 140.907571 267.08367 
L 146.899515 264.841392 
L 152.891458 262.762081 
L 161.879373 259.93485 
L 170.867288 257.357974 
L 179.855203 255.022893 
L 188.843118 252.869671 
L 200.827004 250.235406 
L 212.810891 247.839952 
L 227.790749 245.121139 
L 242.770608 242.651073 
L 257.750466 240.380849 
L 275.726296 237.892679 
L 293.702126 235.615176 
L 314.673927 233.182154 
L 335.645729 230.951719 
L 362.609474 228.33234 
L 389.573219 225.942031 
L 419.532935 223.512183 
L 449.492652 221.284023 
L 485.444312 218.830833 
L 518.4 216.762593 
L 518.4 216.762593 
" style="fill:none;stroke:#1f978b;stroke-linecap:round;stroke-width:1.75;"/>
   </g>
   <g id="line2d_30">
    <path clip-path="url(#p8c1b857f5f)" d="M 74.921279 397 
L 74.996195 353.698901 
L 77.992167 334.934653 
L 80.988138 323.941253 
L 83.98411 316.134457 
L 86.980081 310.118268 
L 89.976053 305.211791 
L 92.972025 301.062543 
L 95.967996 297.468337 
L 98.963968 294.299532 
L 101.95994 291.460553 
L 104.955911 288.88577 
L 107.951883 286.535565 
L 110.947855 284.37917 
L 116.939798 280.522522 
L 122.931741 277.150316 
L 128.923685 274.122898 
L 134.915628 271.446549 
L 140.907571 269.003415 
L 146.899515 266.76136 
L 152.891458 264.682352 
L 161.879373 261.855409 
L 170.867288 259.279057 
L 179.855203 256.944286 
L 188.843118 254.791327 
L 200.827004 252.157774 
L 212.810891 249.762588 
L 227.790749 247.044296 
L 242.770608 244.574582 
L 257.750466 242.304619 
L 275.726296 239.817393 
L 293.702126 237.540099 
L 314.673927 235.107184 
L 335.645729 232.877306 
L 362.609474 230.258212 
L 389.573219 227.868151 
L 419.532935 225.438589 
L 449.492652 223.211169 
L 485.444312 220.758409 
L 518.4 218.690188 
L 518.4 218.690188 
" style="fill:none;stroke:#1f9f88;stroke-linecap:round;stroke-width:1.75;"/>
   </g>
   <g id="line2d_31">
    <path clip-path="url(#p8c1b857f5f)" d="M 74.925349 397 
L 74.996195 355.520772 
L 77.992167 336.756829 
L 80.988138 325.763689 
L 83.98411 317.95707 
L 86.980081 311.940979 
L 89.976053 307.0346 
L 92.972025 302.885449 
L 95.967996 299.291312 
L 98.963968 296.122573 
L 101.95994 293.283653 
L 104.955911 290.708921 
L 107.951883 288.358773 
L 110.947855 286.202431 
L 116.939798 282.345864 
L 122.931741 278.973747 
L 128.923685 275.94641 
L 134.915628 273.270103 
L 140.907571 270.827045 
L 146.899515 268.585092 
L 152.891458 266.506226 
L 161.879373 263.679416 
L 170.867288 261.103314 
L 179.855203 258.768699 
L 188.843118 256.61587 
L 200.827004 253.982692 
L 212.810891 251.587654 
L 227.790749 248.869651 
L 242.770608 246.400142 
L 257.750466 244.130327 
L 275.726296 241.643711 
L 293.702126 239.366564 
L 314.673927 236.93372 
L 335.645729 234.704252 
L 362.609474 232.085376 
L 389.573219 229.695504 
L 419.532935 227.266161 
L 449.492652 225.039369 
L 485.444312 222.587025 
L 518.4 220.518824 
L 518.4 220.518824 
" style="fill:none;stroke:#21a585;stroke-linecap:round;stroke-width:1.75;"/>
   </g>
   <g id="line2d_32">
    <path clip-path="url(#p8c1b857f5f)" d="M 74.929121 397 
L 74.996195 357.252088 
L 77.992167 338.488341 
L 80.988138 327.495342 
L 83.98411 319.688826 
L 86.980081 313.672802 
L 89.976053 308.766487 
L 92.972025 304.617396 
L 95.967996 301.023305 
L 98.963968 297.854608 
L 101.95994 295.015724 
L 104.955911 292.441023 
L 107.951883 290.090913 
L 110.947855 287.934606 
L 116.939798 284.07809 
L 122.931741 280.70603 
L 128.923685 277.678749 
L 134.915628 275.002457 
L 140.907571 272.559436 
L 146.899515 270.317529 
L 152.891458 268.238728 
L 161.879373 265.411979 
L 170.867288 262.835995 
L 179.855203 260.50145 
L 188.843118 258.348683 
L 200.827004 255.715682 
L 212.810891 253.320716 
L 227.790749 250.60286 
L 242.770608 248.133452 
L 257.750466 245.863708 
L 275.726296 243.377421 
L 293.702126 241.100356 
L 314.673927 238.66755 
L 335.645729 236.43831 
L 362.609474 233.819559 
L 389.573219 231.429799 
L 419.532935 229.00058 
L 449.492652 226.774181 
L 485.444312 224.322124 
L 518.4 222.25394 
L 518.4 222.25394 
" style="fill:none;stroke:#26ad81;stroke-linecap:round;stroke-width:1.75;"/>
   </g>
   <g id="line2d_33">
    <path clip-path="url(#p8c1b857f5f)" d="M 74.932622 397 
L 74.996195 358.897159 
L 77.992167 340.13353 
L 80.988138 329.140625 
L 83.98411 321.33416 
L 86.980081 315.318194 
L 89.976053 310.411918 
L 92.972025 306.262854 
L 95.967996 302.668802 
L 98.963968 299.500132 
L 101.95994 296.661272 
L 104.955911 294.086592 
L 107.951883 291.736506 
L 110.947855 289.580221 
L 116.939798 285.723738 
L 122.931741 282.351715 
L 128.923685 279.324471 
L 134.915628 276.648185 
L 140.907571 274.20518 
L 146.899515 271.963296 
L 152.891458 269.884524 
L 161.879373 267.057802 
L 170.867288 264.481872 
L 179.855203 262.14736 
L 188.843118 259.99462 
L 200.827004 257.361703 
L 212.810891 254.966771 
L 227.790749 252.248981 
L 242.770608 249.779621 
L 257.750466 247.509912 
L 275.726296 245.02378 
L 293.702126 242.746755 
L 314.673927 240.31397 
L 335.645729 238.084843 
L 362.609474 235.466154 
L 389.573219 233.076449 
L 419.532935 230.647292 
L 449.492652 228.421099 
L 485.444312 225.969203 
L 518.4 223.901029 
L 518.4 223.901029 
" style="fill:none;stroke:#2eb37c;stroke-linecap:round;stroke-width:1.75;"/>
   </g>
   <g id="line2d_34">
    <path clip-path="url(#p8c1b857f5f)" d="M 74.935876 397 
L 74.996195 360.460177 
L 77.992167 341.696615 
L 80.988138 330.703778 
L 83.98411 322.897372 
L 86.980081 316.881415 
L 89.976053 311.975165 
L 92.972025 307.826134 
L 95.967996 304.232092 
L 98.963968 301.06344 
L 101.95994 298.224595 
L 104.955911 295.649928 
L 107.951883 293.299857 
L 110.947855 291.143587 
L 116.939798 287.287125 
L 122.931741 283.915126 
L 128.923685 280.887907 
L 134.915628 278.211624 
L 140.907571 275.768625 
L 146.899515 273.52675 
L 152.891458 271.447992 
L 161.879373 268.621284 
L 170.867288 266.045377 
L 179.855203 263.710879 
L 188.843118 261.558153 
L 200.827004 258.925274 
L 212.810891 256.530358 
L 227.790749 253.812599 
L 242.770608 251.34326 
L 257.750466 249.073565 
L 275.726296 246.587509 
L 293.702126 244.310504 
L 314.673927 241.877725 
L 335.645729 239.648651 
L 362.609474 237.029992 
L 389.573219 234.640312 
L 419.532935 232.211185 
L 449.492652 229.985089 
L 485.444312 227.533271 
L 518.4 225.465101 
L 518.4 225.465101 
" style="fill:none;stroke:#3aba76;stroke-linecap:round;stroke-width:1.75;"/>
   </g>
   <g id="line2d_35">
    <path clip-path="url(#p8c1b857f5f)" d="M 74.938904 397 
L 74.996195 361.945169 
L 77.992167 343.181669 
L 80.988138 332.188859 
L 83.98411 324.382487 
L 86.980081 318.36654 
L 89.976053 313.460307 
L 92.972025 309.311287 
L 95.967996 305.717262 
L 98.963968 302.54862 
L 101.95994 299.709785 
L 104.955911 297.135127 
L 107.951883 294.785065 
L 110.947855 292.628804 
L 116.939798 288.772356 
L 122.931741 285.400374 
L 128.923685 282.373172 
L 134.915628 279.696889 
L 140.907571 277.253893 
L 146.899515 275.012022 
L 152.891458 272.933269 
L 161.879373 270.106567 
L 170.867288 267.530671 
L 179.855203 265.196182 
L 188.843118 263.043461 
L 200.827004 260.4106 
L 212.810891 258.01569 
L 227.790749 255.297944 
L 242.770608 252.828616 
L 257.750466 250.558929 
L 275.726296 248.072905 
L 293.702126 245.795909 
L 314.673927 243.363134 
L 335.645729 241.134084 
L 362.609474 238.515439 
L 389.573219 236.125771 
L 419.532935 233.696655 
L 449.492652 231.470606 
L 485.444312 229.018827 
L 518.4 226.950659 
L 518.4 226.950659 
" style="fill:none;stroke:#46c06f;stroke-linecap:round;stroke-width:1.75;"/>
   </g>
   <g id="line2d_36">
    <path clip-path="url(#p8c1b857f5f)" d="M 74.941725 397 
L 74.996195 363.355993 
L 77.992167 344.592532 
L 80.988138 333.599741 
L 83.98411 325.793355 
L 86.980081 319.77745 
L 89.976053 314.871228 
L 92.972025 310.722215 
L 95.967996 307.1282 
L 98.963968 303.959566 
L 101.95994 301.120737 
L 104.955911 298.546085 
L 107.951883 296.196029 
L 110.947855 294.039774 
L 116.939798 290.183335 
L 122.931741 286.811364 
L 128.923685 283.784174 
L 134.915628 281.107891 
L 140.907571 278.664895 
L 146.899515 276.423026 
L 152.891458 274.344276 
L 161.879373 271.517576 
L 170.867288 268.941685 
L 179.855203 266.607199 
L 188.843118 264.454481 
L 200.827004 261.821627 
L 212.810891 259.426721 
L 227.790749 256.708982 
L 242.770608 254.239658 
L 257.750466 251.969974 
L 275.726296 249.483966 
L 293.702126 247.206973 
L 314.673927 244.774202 
L 335.645729 242.545161 
L 362.609474 239.926521 
L 389.573219 237.536859 
L 419.532935 235.107751 
L 449.492652 232.881722 
L 485.444312 230.429959 
L 518.4 228.361793 
L 518.4 228.361793 
" style="fill:none;stroke:#56c667;stroke-linecap:round;stroke-width:1.75;"/>
   </g>
   <g id="line2d_37">
    <path clip-path="url(#p8c1b857f5f)" d="M 74.944357 397 
L 74.996195 364.696331 
L 77.992167 345.932869 
L 80.988138 334.940115 
L 83.98411 327.133764 
L 86.980081 321.117842 
L 89.976053 316.211626 
L 92.972025 312.062623 
L 95.967996 308.46861 
L 98.963968 305.29998 
L 101.95994 302.461155 
L 104.955911 299.886506 
L 107.951883 297.536455 
L 110.947855 295.380204 
L 116.939798 291.523769 
L 122.931741 288.151808 
L 128.923685 285.124626 
L 134.915628 282.448342 
L 140.907571 280.005347 
L 146.899515 277.763478 
L 152.891458 275.684729 
L 161.879373 272.85803 
L 170.867288 270.282141 
L 179.855203 267.947656 
L 188.843118 265.794939 
L 200.827004 263.162089 
L 212.810891 260.767185 
L 227.790749 258.049448 
L 242.770608 255.580127 
L 257.750466 253.310444 
L 275.726296 250.824442 
L 293.702126 248.547452 
L 314.673927 246.114682 
L 335.645729 243.885646 
L 362.609474 241.267009 
L 389.573219 238.87735 
L 419.532935 236.448243 
L 449.492652 234.222225 
L 485.444312 231.770469 
L 518.4 229.702304 
L 518.4 229.702304 
" style="fill:none;stroke:#65cb5e;stroke-linecap:round;stroke-width:1.75;"/>
   </g>
   <g id="line2d_38">
    <path clip-path="url(#p8c1b857f5f)" d="M 74.946814 397 
L 74.996195 365.969685 
L 77.992167 347.206252 
L 80.988138 336.213492 
L 83.98411 328.407124 
L 86.980081 322.391231 
L 89.976053 317.485019 
L 92.972025 313.33602 
L 95.967996 309.742011 
L 98.963968 306.573384 
L 101.95994 303.734562 
L 104.955911 301.159915 
L 107.951883 298.809865 
L 110.947855 296.653615 
L 116.939798 292.797188 
L 122.931741 289.425232 
L 128.923685 286.398055 
L 134.915628 283.721771 
L 140.907571 281.278776 
L 146.899515 279.036907 
L 152.891458 276.958158 
L 161.879373 274.13146 
L 170.867288 271.555571 
L 179.855203 269.221087 
L 188.843118 267.068371 
L 200.827004 264.435521 
L 212.810891 262.040618 
L 227.790749 259.322883 
L 242.770608 256.853562 
L 257.750466 254.58388 
L 275.726296 252.097882 
L 293.702126 249.820892 
L 314.673927 247.388122 
L 335.645729 245.159089 
L 362.609474 242.540453 
L 389.573219 240.150795 
L 419.532935 237.72169 
L 449.492652 235.495675 
L 485.444312 233.043923 
L 518.4 230.975757 
L 518.4 230.975757 
" style="fill:none;stroke:#77d153;stroke-linecap:round;stroke-width:1.75;"/>
   </g>
   <g id="line2d_39">
    <path clip-path="url(#p8c1b857f5f)" d="M 74.94911 397 
L 74.996195 367.179393 
L 77.992167 348.415953 
L 80.988138 337.423215 
L 83.98411 329.616851 
L 86.980081 323.600961 
L 89.976053 318.694752 
L 92.972025 314.545754 
L 95.967996 310.951749 
L 98.963968 307.783123 
L 101.95994 304.944302 
L 104.955911 302.369656 
L 107.951883 300.01961 
L 110.947855 297.863363 
L 116.939798 294.006938 
L 122.931741 290.634987 
L 128.923685 287.607813 
L 134.915628 284.931529 
L 140.907571 282.488533 
L 146.899515 280.246665 
L 152.891458 278.167915 
L 161.879373 275.341217 
L 170.867288 272.765329 
L 179.855203 270.430845 
L 188.843118 268.278129 
L 200.827004 265.64528 
L 212.810891 263.250377 
L 227.790749 260.532642 
L 242.770608 258.063322 
L 257.750466 255.79364 
L 275.726296 253.307643 
L 293.702126 251.030653 
L 314.673927 248.597884 
L 335.645729 246.368852 
L 362.609474 243.750217 
L 389.573219 241.360559 
L 419.532935 238.931454 
L 449.492652 236.705441 
L 485.444312 234.25369 
L 518.4 232.185525 
L 518.4 232.185525 
" style="fill:none;stroke:#89d548;stroke-linecap:round;stroke-width:1.75;"/>
   </g>
   <g id="line2d_40">
    <path clip-path="url(#p8c1b857f5f)" d="M 74.951259 397 
L 74.996195 368.32863 
L 77.992167 349.565195 
L 80.988138 338.572461 
L 83.98411 330.766097 
L 86.980081 324.750212 
L 89.976053 319.844005 
L 92.972025 315.695007 
L 95.967996 312.101003 
L 98.963968 308.93238 
L 101.95994 306.093561 
L 104.955911 303.518917 
L 107.951883 301.168872 
L 110.947855 299.012626 
L 116.939798 295.156204 
L 122.931741 291.784254 
L 128.923685 288.757083 
L 134.915628 286.080799 
L 140.907571 283.637803 
L 146.899515 281.395934 
L 152.891458 279.317185 
L 161.879373 276.490487 
L 170.867288 273.914599 
L 179.855203 271.580114 
L 188.843118 269.427399 
L 200.827004 266.79455 
L 212.810891 264.399647 
L 227.790749 261.681912 
L 242.770608 259.212592 
L 257.750466 256.94291 
L 275.726296 254.456914 
L 293.702126 252.179924 
L 314.673927 249.747155 
L 335.645729 247.518123 
L 362.609474 244.899488 
L 389.573219 242.509831 
L 419.532935 240.080726 
L 449.492652 237.854714 
L 485.444312 235.402964 
L 518.4 233.334799 
L 518.4 233.334799 
" style="fill:none;stroke:#9dd93b;stroke-linecap:round;stroke-width:1.75;"/>
   </g>
   <g id="line2d_41">
    <path clip-path="url(#p8c1b857f5f)" d="M 74.953271 397 
L 74.996195 369.420414 
L 77.992167 350.65698 
L 80.988138 339.66425 
L 83.98411 331.857888 
L 86.980081 325.842004 
L 89.976053 320.935799 
L 92.972025 316.786806 
L 95.967996 313.1928 
L 98.963968 310.024178 
L 101.95994 307.18536 
L 104.955911 304.610717 
L 107.951883 302.260673 
L 110.947855 300.104428 
L 116.939798 296.248007 
L 122.931741 292.876059 
L 128.923685 289.848889 
L 134.915628 287.172605 
L 140.907571 284.729609 
L 146.899515 282.48774 
L 152.891458 280.408991 
L 161.879373 277.582293 
L 170.867288 275.006405 
L 179.855203 272.671921 
L 188.843118 270.519205 
L 200.827004 267.886356 
L 212.810891 265.491453 
L 227.790749 262.773719 
L 242.770608 260.304399 
L 257.750466 258.034717 
L 275.726296 255.54872 
L 293.702126 253.271731 
L 314.673927 250.838961 
L 335.645729 248.60993 
L 362.609474 245.991295 
L 389.573219 243.601637 
L 419.532935 241.172533 
L 449.492652 238.946521 
L 485.444312 236.494771 
L 518.4 234.426606 
L 518.4 234.426606 
" style="fill:none;stroke:#b0dd2f;stroke-linecap:round;stroke-width:1.75;"/>
   </g>
   <g id="line2d_42">
    <path clip-path="url(#p8c1b857f5f)" d="M 74.955156 397 
L 74.996195 370.457614 
L 77.992167 351.694182 
L 80.988138 340.701454 
L 83.98411 332.895125 
L 86.980081 326.879211 
L 89.976053 321.973007 
L 92.972025 317.824015 
L 95.967996 314.230011 
L 98.963968 311.061389 
L 101.95994 308.222572 
L 104.955911 305.647929 
L 107.951883 303.297886 
L 110.947855 301.141641 
L 116.939798 297.285221 
L 122.931741 293.913274 
L 128.923685 290.886106 
L 134.915628 288.209821 
L 140.907571 285.766825 
L 146.899515 283.524957 
L 152.891458 281.446207 
L 161.879373 278.619509 
L 170.867288 276.043621 
L 179.855203 273.709136 
L 188.843118 271.556421 
L 200.827004 268.923572 
L 212.810891 266.528669 
L 227.790749 263.810934 
L 242.770608 261.341614 
L 257.750466 259.071932 
L 275.726296 256.585936 
L 293.702126 254.308947 
L 314.673927 251.876177 
L 335.645729 249.647146 
L 362.609474 247.028511 
L 389.573219 244.638853 
L 419.532935 242.209749 
L 449.492652 239.983737 
L 485.444312 237.531987 
L 518.4 235.463822 
L 518.4 235.463822 
" style="fill:none;stroke:#c5e021;stroke-linecap:round;stroke-width:1.75;"/>
   </g>
   <g id="line2d_43">
    <path clip-path="url(#p8c1b857f5f)" d="M 74.956924 397 
L 74.996195 371.442958 
L 77.992167 352.679548 
L 80.988138 341.686802 
L 83.98411 333.880446 
L 86.980081 327.864561 
L 89.976053 322.958358 
L 92.972025 318.809363 
L 95.967996 315.215362 
L 98.963968 312.046741 
L 101.95994 309.207924 
L 104.955911 306.633282 
L 107.951883 304.283239 
L 110.947855 302.126995 
L 116.939798 298.270575 
L 122.931741 294.898629 
L 128.923685 291.871461 
L 134.915628 289.195177 
L 140.907571 286.752181 
L 146.899515 284.510312 
L 152.891458 282.431562 
L 161.879373 279.604864 
L 170.867288 277.028976 
L 179.855203 274.694492 
L 188.843118 272.541776 
L 200.827004 269.908927 
L 212.810891 267.514024 
L 227.790749 264.796289 
L 242.770608 262.326969 
L 257.750466 260.057287 
L 275.726296 257.571291 
L 293.702126 255.294302 
L 314.673927 252.861532 
L 335.645729 250.632501 
L 362.609474 248.013866 
L 389.573219 245.624208 
L 419.532935 243.195104 
L 449.492652 240.969092 
L 485.444312 238.517342 
L 518.4 236.449177 
L 518.4 236.449177 
" style="fill:none;stroke:#d8e219;stroke-linecap:round;stroke-width:1.75;"/>
   </g>
   <g id="line2d_44">
    <path clip-path="url(#p8c1b857f5f)" d="M 74.958584 397 
L 74.996195 372.379038 
L 77.992167 353.615611 
L 80.988138 342.622885 
L 83.98411 334.816527 
L 86.980081 328.800645 
L 89.976053 323.894442 
L 92.972025 319.745448 
L 95.967996 316.151447 
L 98.963968 312.982826 
L 101.95994 310.144009 
L 104.955911 307.569367 
L 107.951883 305.219325 
L 110.947855 303.063081 
L 116.939798 299.206662 
L 122.931741 295.834716 
L 128.923685 292.807549 
L 134.915628 290.131264 
L 140.907571 287.688268 
L 146.899515 285.446399 
L 152.891458 283.36765 
L 161.879373 280.540952 
L 170.867288 277.965064 
L 179.855203 275.630579 
L 188.843118 273.477863 
L 200.827004 270.845014 
L 212.810891 268.450111 
L 227.790749 265.732377 
L 242.770608 263.263057 
L 257.750466 260.993375 
L 275.726296 258.507378 
L 293.702126 256.230389 
L 314.673927 253.79762 
L 335.645729 251.568588 
L 362.609474 248.949953 
L 389.573219 246.560296 
L 419.532935 244.131191 
L 449.492652 241.90518 
L 485.444312 239.45343 
L 518.4 237.385264 
L 518.4 237.385264 
" style="fill:none;stroke:#ece51b;stroke-linecap:round;stroke-width:1.75;"/>
   </g>
   <g id="line2d_45">
    <path clip-path="url(#p8c1b857f5f)" d="M 74.960142 397 
L 74.996195 373.268317 
L 77.992167 354.504889 
L 80.988138 343.512165 
L 83.98411 335.705807 
L 86.980081 329.689926 
L 89.976053 324.783723 
L 92.972025 320.634732 
L 95.967996 317.040728 
L 98.963968 313.872108 
L 101.95994 311.033291 
L 104.955911 308.458649 
L 107.951883 306.108607 
L 110.947855 303.952364 
L 116.939798 300.095945 
L 122.931741 296.723999 
L 128.923685 293.696832 
L 134.915628 291.020548 
L 140.907571 288.577552 
L 146.899515 286.335683 
L 152.891458 284.256933 
L 161.879373 281.430235 
L 170.867288 278.854347 
L 179.855203 276.519862 
L 188.843118 274.367146 
L 200.827004 271.734298 
L 212.810891 269.339394 
L 227.790749 266.62166 
L 242.770608 264.15234 
L 257.750466 261.882658 
L 275.726296 259.396661 
L 293.702126 257.119672 
L 314.673927 254.686903 
L 335.645729 252.457871 
L 362.609474 249.839236 
L 389.573219 247.449579 
L 419.532935 245.020474 
L 449.492652 242.794463 
L 485.444312 240.342713 
L 518.4 238.274547 
L 518.4 238.274547 
" style="fill:none;stroke:#fde725;stroke-linecap:round;stroke-width:1.75;"/>
   </g>
   <g id="line2d_46">
    <path clip-path="url(#p8c1b857f5f)" d="M 74.960142 397 
L 74.996195 373.268317 
L 77.992167 354.504889 
L 80.988138 343.512165 
L 83.98411 335.705807 
L 86.980081 329.689926 
L 89.976053 324.783723 
L 92.972025 320.634732 
L 95.967996 317.040728 
L 98.963968 313.872108 
L 101.95994 311.033291 
L 104.955911 308.458649 
L 107.951883 306.108607 
L 110.947855 303.952364 
L 116.939798 300.095945 
L 122.931741 296.723999 
L 128.923685 293.696832 
L 134.915628 291.020548 
L 140.907571 288.577552 
L 146.899515 286.335683 
L 152.891458 284.256933 
L 161.879373 281.430235 
L 170.867288 278.854347 
L 179.855203 276.519862 
L 188.843118 274.367146 
L 200.827004 271.734298 
L 212.810891 269.339394 
L 227.790749 266.62166 
L 242.770608 264.15234 
L 257.750466 261.882658 
L 275.726296 259.396661 
L 293.702126 257.119672 
L 314.673927 254.686903 
L 335.645729 252.457871 
L 362.609474 249.839236 
L 389.573219 247.449579 
L 419.532935 245.020474 
L 449.492652 242.794463 
L 485.444312 240.342713 
L 518.4 238.274547 
L 518.4 238.274547 
" style="fill:none;stroke:#440154;stroke-linecap:round;stroke-width:1.75;"/>
   </g>
   <g id="line2d_47">
    <path clip-path="url(#p8c1b857f5f)" d="M 74.960142 397 
L 74.996195 373.268317 
L 77.992167 354.504889 
L 80.988138 343.512165 
L 83.98411 335.705807 
L 86.980081 329.689926 
L 89.976053 324.783723 
L 92.972025 320.634732 
L 95.967996 317.040728 
L 98.963968 313.872108 
L 101.95994 311.033291 
L 104.955911 308.458649 
L 107.951883 306.108607 
L 110.947855 303.952364 
L 116.939798 300.095945 
L 122.931741 296.723999 
L 128.923685 293.696832 
L 134.915628 291.020548 
L 140.907571 288.577552 
L 146.899515 286.335683 
L 152.891458 284.256933 
L 161.879373 281.430235 
L 170.867288 278.854347 
L 179.855203 276.519862 
L 188.843118 274.367146 
L 200.827004 271.734298 
L 212.810891 269.339394 
L 227.790749 266.62166 
L 242.770608 264.15234 
L 257.750466 261.882658 
L 275.726296 259.396661 
L 293.702126 257.119672 
L 314.673927 254.686903 
L 335.645729 252.457871 
L 362.609474 249.839236 
L 389.573219 247.449579 
L 419.532935 245.020474 
L 449.492652 242.794463 
L 485.444312 240.342713 
L 518.4 238.274547 
L 518.4 238.274547 
" style="fill:none;stroke:#fde725;stroke-linecap:round;stroke-width:1.75;"/>
   </g>
   <g id="patch_3">
    <path d="M 72 356.4 
L 72 39.6 
" style="fill:none;stroke:#262626;stroke-linecap:square;stroke-linejoin:miter;stroke-width:1.25;"/>
   </g>
   <g id="patch_4">
    <path d="M 72 356.4 
L 518.4 356.4 
" style="fill:none;stroke:#262626;stroke-linecap:square;stroke-linejoin:miter;stroke-width:1.25;"/>
   </g>
   <g id="text_13">
    <!-- Value Function Iteration -->
    <defs>
     <path d="M 6.59375 0 
L 6.59375 51.859375 
L 14.5 51.859375 
L 14.5 44.484375 
Q 20.21875 53.03125 31 53.03125 
Q 35.6875 53.03125 39.625 51.34375 
Q 43.5625 49.65625 45.515625 46.921875 
Q 47.46875 44.1875 48.25 40.4375 
Q 48.734375 37.984375 48.734375 31.890625 
L 48.734375 0 
L 39.9375 0 
L 39.9375 31.546875 
Q 39.9375 36.921875 38.90625 39.578125 
Q 37.890625 42.234375 35.28125 43.8125 
Q 32.671875 45.40625 29.15625 45.40625 
Q 23.53125 45.40625 19.453125 41.84375 
Q 15.375 38.28125 15.375 28.328125 
L 15.375 0 
z
" id="ArialMT-6e"/>
     <path d="M 6.5 0 
L 6.5 51.859375 
L 14.40625 51.859375 
L 14.40625 44 
Q 17.4375 49.515625 20 51.265625 
Q 22.5625 53.03125 25.640625 53.03125 
Q 30.078125 53.03125 34.671875 50.203125 
L 31.640625 42.046875 
Q 28.421875 43.953125 25.203125 43.953125 
Q 22.3125 43.953125 20.015625 42.21875 
Q 17.71875 40.484375 16.75 37.40625 
Q 15.28125 32.71875 15.28125 27.15625 
L 15.28125 0 
z
" id="ArialMT-72"/>
     <path id="ArialMT-20"/>
     <path d="M 9.328125 0 
L 9.328125 71.578125 
L 18.796875 71.578125 
L 18.796875 0 
z
" id="ArialMT-49"/>
     <path d="M 3.328125 25.921875 
Q 3.328125 40.328125 11.328125 47.265625 
Q 18.015625 53.03125 27.640625 53.03125 
Q 38.328125 53.03125 45.109375 46.015625 
Q 51.90625 39.015625 51.90625 26.65625 
Q 51.90625 16.65625 48.90625 10.90625 
Q 45.90625 5.171875 40.15625 2 
Q 34.421875 -1.171875 27.640625 -1.171875 
Q 16.75 -1.171875 10.03125 5.8125 
Q 3.328125 12.796875 3.328125 25.921875 
M 12.359375 25.921875 
Q 12.359375 15.96875 16.703125 11.015625 
Q 21.046875 6.0625 27.640625 6.0625 
Q 34.1875 6.0625 38.53125 11.03125 
Q 42.875 16.015625 42.875 26.21875 
Q 42.875 35.84375 38.5 40.796875 
Q 34.125 45.75 27.640625 45.75 
Q 21.046875 45.75 16.703125 40.8125 
Q 12.359375 35.890625 12.359375 25.921875 
" id="ArialMT-6f"/>
     <path d="M 28.171875 0 
L 0.4375 71.578125 
L 10.6875 71.578125 
L 29.296875 19.578125 
Q 31.546875 13.328125 33.0625 7.859375 
Q 34.71875 13.71875 36.921875 19.578125 
L 56.25 71.578125 
L 65.921875 71.578125 
L 37.890625 0 
z
" id="ArialMT-56"/>
     <path d="M 8.203125 0 
L 8.203125 71.578125 
L 56.5 71.578125 
L 56.5 63.140625 
L 17.671875 63.140625 
L 17.671875 40.96875 
L 51.265625 40.96875 
L 51.265625 32.515625 
L 17.671875 32.515625 
L 17.671875 0 
z
" id="ArialMT-46"/>
    </defs>
    <g style="fill:#262626;" transform="translate(231.8390625 34.6)scale(0.12 -0.12)">
     <use xlink:href="#ArialMT-56"/>
     <use x="66.58984375" xlink:href="#ArialMT-61"/>
     <use x="122.205078125" xlink:href="#ArialMT-6c"/>
     <use x="144.421875" xlink:href="#ArialMT-75"/>
     <use x="200.037109375" xlink:href="#ArialMT-65"/>
     <use x="255.65234375" xlink:href="#ArialMT-20"/>
     <use x="283.435546875" xlink:href="#ArialMT-46"/>
     <use x="344.51953125" xlink:href="#ArialMT-75"/>
     <use x="400.134765625" xlink:href="#ArialMT-6e"/>
     <use x="455.75" xlink:href="#ArialMT-63"/>
     <use x="505.75" xlink:href="#ArialMT-74"/>
     <use x="533.533203125" xlink:href="#ArialMT-69"/>
     <use x="555.75" xlink:href="#ArialMT-6f"/>
     <use x="611.365234375" xlink:href="#ArialMT-6e"/>
     <use x="666.98046875" xlink:href="#ArialMT-20"/>
     <use x="694.763671875" xlink:href="#ArialMT-49"/>
     <use x="722.546875" xlink:href="#ArialMT-74"/>
     <use x="750.330078125" xlink:href="#ArialMT-65"/>
     <use x="805.9453125" xlink:href="#ArialMT-72"/>
     <use x="839.24609375" xlink:href="#ArialMT-61"/>
     <use x="894.861328125" xlink:href="#ArialMT-74"/>
     <use x="922.64453125" xlink:href="#ArialMT-69"/>
     <use x="944.861328125" xlink:href="#ArialMT-6f"/>
     <use x="1000.4765625" xlink:href="#ArialMT-6e"/>
    </g>
   </g>
   <g id="legend_1">
    <g id="line2d_48">
     <path d="M 426.378125 52.257812 
L 446.378125 52.257812 
" style="fill:none;stroke:#440154;stroke-linecap:round;stroke-width:1.75;"/>
    </g>
    <g id="line2d_49"/>
    <g id="text_14">
     <!-- Initial Guess -->
     <defs>
      <path d="M 3.078125 15.484375 
L 11.765625 16.84375 
Q 12.5 11.625 15.84375 8.84375 
Q 19.1875 6.0625 25.203125 6.0625 
Q 31.25 6.0625 34.171875 8.515625 
Q 37.109375 10.984375 37.109375 14.3125 
Q 37.109375 17.28125 34.515625 19 
Q 32.71875 20.171875 25.53125 21.96875 
Q 15.875 24.421875 12.140625 26.203125 
Q 8.40625 27.984375 6.46875 31.125 
Q 4.546875 34.28125 4.546875 38.09375 
Q 4.546875 41.546875 6.125 44.5 
Q 7.71875 47.46875 10.453125 49.421875 
Q 12.5 50.921875 16.03125 51.96875 
Q 19.578125 53.03125 23.640625 53.03125 
Q 29.734375 53.03125 34.34375 51.265625 
Q 38.96875 49.515625 41.15625 46.5 
Q 43.359375 43.5 44.1875 38.484375 
L 35.59375 37.3125 
Q 35.015625 41.3125 32.203125 43.546875 
Q 29.390625 45.796875 24.265625 45.796875 
Q 18.21875 45.796875 15.625 43.796875 
Q 13.03125 41.796875 13.03125 39.109375 
Q 13.03125 37.40625 14.109375 36.03125 
Q 15.1875 34.625 17.484375 33.6875 
Q 18.796875 33.203125 25.25 31.453125 
Q 34.578125 28.953125 38.25 27.359375 
Q 41.9375 25.78125 44.03125 22.75 
Q 46.140625 19.734375 46.140625 15.234375 
Q 46.140625 10.84375 43.578125 6.953125 
Q 41.015625 3.078125 36.171875 0.953125 
Q 31.34375 -1.171875 25.25 -1.171875 
Q 15.140625 -1.171875 9.84375 3.03125 
Q 4.546875 7.234375 3.078125 15.484375 
" id="ArialMT-73"/>
      <path d="M 41.21875 28.078125 
L 41.21875 36.46875 
L 71.53125 36.53125 
L 71.53125 9.96875 
Q 64.546875 4.390625 57.125 1.578125 
Q 49.703125 -1.21875 41.890625 -1.21875 
Q 31.34375 -1.21875 22.71875 3.296875 
Q 14.109375 7.8125 9.71875 16.359375 
Q 5.328125 24.90625 5.328125 35.453125 
Q 5.328125 45.90625 9.6875 54.953125 
Q 14.0625 64.015625 22.265625 68.40625 
Q 30.46875 72.796875 41.15625 72.796875 
Q 48.921875 72.796875 55.1875 70.28125 
Q 61.46875 67.78125 65.03125 63.28125 
Q 68.609375 58.796875 70.453125 51.5625 
L 61.921875 49.21875 
Q 60.296875 54.6875 57.90625 57.8125 
Q 55.515625 60.9375 51.0625 62.8125 
Q 46.625 64.703125 41.21875 64.703125 
Q 34.71875 64.703125 29.984375 62.71875 
Q 25.25 60.75 22.34375 57.515625 
Q 19.4375 54.296875 17.828125 50.4375 
Q 15.09375 43.796875 15.09375 36.03125 
Q 15.09375 26.46875 18.390625 20.015625 
Q 21.6875 13.578125 27.984375 10.453125 
Q 34.28125 7.328125 41.359375 7.328125 
Q 47.515625 7.328125 53.375 9.6875 
Q 59.234375 12.0625 62.25 14.75 
L 62.25 28.078125 
z
" id="ArialMT-47"/>
     </defs>
     <g style="fill:#262626;" transform="translate(454.378125 55.7578125)scale(0.1 -0.1)">
      <use xlink:href="#ArialMT-49"/>
      <use x="27.783203125" xlink:href="#ArialMT-6e"/>
      <use x="83.3984375" xlink:href="#ArialMT-69"/>
      <use x="105.615234375" xlink:href="#ArialMT-74"/>
      <use x="133.3984375" xlink:href="#ArialMT-69"/>
      <use x="155.615234375" xlink:href="#ArialMT-61"/>
      <use x="211.23046875" xlink:href="#ArialMT-6c"/>
      <use x="233.447265625" xlink:href="#ArialMT-20"/>
      <use x="261.23046875" xlink:href="#ArialMT-47"/>
      <use x="339.013671875" xlink:href="#ArialMT-75"/>
      <use x="394.62890625" xlink:href="#ArialMT-65"/>
      <use x="450.244140625" xlink:href="#ArialMT-73"/>
      <use x="500.244140625" xlink:href="#ArialMT-73"/>
     </g>
    </g>
    <g id="line2d_50">
     <path d="M 426.378125 66.53125 
L 446.378125 66.53125 
" style="fill:none;stroke:#fde725;stroke-linecap:round;stroke-width:1.75;"/>
    </g>
    <g id="line2d_51"/>
    <g id="text_15">
     <!-- Optimal -->
     <defs>
      <path d="M 4.828125 34.859375 
Q 4.828125 52.6875 14.390625 62.765625 
Q 23.96875 72.859375 39.109375 72.859375 
Q 49.03125 72.859375 56.984375 68.109375 
Q 64.9375 63.375 69.109375 54.90625 
Q 73.296875 46.4375 73.296875 35.6875 
Q 73.296875 24.8125 68.890625 16.21875 
Q 64.5 7.625 56.4375 3.203125 
Q 48.390625 -1.21875 39.0625 -1.21875 
Q 28.953125 -1.21875 20.984375 3.65625 
Q 13.03125 8.546875 8.921875 16.984375 
Q 4.828125 25.4375 4.828125 34.859375 
M 14.59375 34.71875 
Q 14.59375 21.78125 21.546875 14.328125 
Q 28.515625 6.890625 39.015625 6.890625 
Q 49.703125 6.890625 56.609375 14.40625 
Q 63.53125 21.921875 63.53125 35.75 
Q 63.53125 44.484375 60.578125 51 
Q 57.625 57.515625 51.921875 61.109375 
Q 46.234375 64.703125 39.15625 64.703125 
Q 29.109375 64.703125 21.84375 57.78125 
Q 14.59375 50.875 14.59375 34.71875 
" id="ArialMT-4f"/>
      <path d="M 6.59375 0 
L 6.59375 51.859375 
L 14.453125 51.859375 
L 14.453125 44.578125 
Q 16.890625 48.390625 20.9375 50.703125 
Q 25 53.03125 30.171875 53.03125 
Q 35.9375 53.03125 39.625 50.640625 
Q 43.3125 48.25 44.828125 43.953125 
Q 50.984375 53.03125 60.84375 53.03125 
Q 68.5625 53.03125 72.703125 48.75 
Q 76.859375 44.484375 76.859375 35.59375 
L 76.859375 0 
L 68.109375 0 
L 68.109375 32.671875 
Q 68.109375 37.9375 67.25 40.25 
Q 66.40625 42.578125 64.15625 43.984375 
Q 61.921875 45.40625 58.890625 45.40625 
Q 53.421875 45.40625 49.796875 41.765625 
Q 46.1875 38.140625 46.1875 30.125 
L 46.1875 0 
L 37.40625 0 
L 37.40625 33.6875 
Q 37.40625 39.546875 35.25 42.46875 
Q 33.109375 45.40625 28.21875 45.40625 
Q 24.515625 45.40625 21.359375 43.453125 
Q 18.21875 41.5 16.796875 37.734375 
Q 15.375 33.984375 15.375 26.90625 
L 15.375 0 
z
" id="ArialMT-6d"/>
     </defs>
     <g style="fill:#262626;" transform="translate(454.378125 70.03125)scale(0.1 -0.1)">
      <use xlink:href="#ArialMT-4f"/>
      <use x="77.783203125" xlink:href="#ArialMT-70"/>
      <use x="133.3984375" xlink:href="#ArialMT-74"/>
      <use x="161.181640625" xlink:href="#ArialMT-69"/>
      <use x="183.3984375" xlink:href="#ArialMT-6d"/>
      <use x="266.69921875" xlink:href="#ArialMT-61"/>
      <use x="322.314453125" xlink:href="#ArialMT-6c"/>
     </g>
    </g>
   </g>
  </g>
 </g>
 <defs>
  <clipPath id="p8c1b857f5f">
   <rect height="316.8" width="446.4" x="72.0" y="39.6"/>
  </clipPath>
 </defs>
</svg>
