<?xml version="1.0" encoding="UTF-8" standalone="no"?>
<!DOCTYPE svg PUBLIC "-//W3C//DTD SVG 1.1//EN"
 "http://www.w3.org/Graphics/SVG/1.1/DTD/svg11.dtd">
<!-- Generated by graphviz version 2.40.1 (20161225.0304)
 -->
<!-- Title: %3 Pages: 1 -->
<svg width="413pt" height="1255pt"
 viewBox="0.00 0.00 413.06 1255.30" xmlns="http://www.w3.org/2000/svg" xmlns:xlink="http://www.w3.org/1999/xlink">
<g id="graph0" class="graph" transform="scale(1 1) rotate(0) translate(4 1251.2981)">
<title>%3</title>
<polygon fill="#ffffff" stroke="transparent" points="-4,4 -4,-1251.2981 409.0608,-1251.2981 409.0608,4 -4,4"/>
<!-- &#45;569989758728637702 -->
<g id="node1" class="node">
<title>&#45;569989758728637702</title>
<polygon fill="none" stroke="#000000" points="404.9424,-135.6491 271.4166,-135.6491 271.4166,-99.6491 404.9424,-99.6491 404.9424,-135.6491"/>
<text text-anchor="middle" x="338.1795" y="-113.4491" font-family="Times,serif" font-size="14.00" fill="#000000">(&#39;read&#45;parquet&#45;#0&#39;, 0)</text>
</g>
<!-- &#45;5676020788401131674 -->
<g id="node2" class="node">
<title>&#45;5676020788401131674</title>
<ellipse fill="none" stroke="#000000" cx="117.6491" cy="-117.6491" rx="117.7983" ry="117.7983"/>
<text text-anchor="middle" x="117.6491" y="-113.4491" font-family="Times,serif" font-size="14.00" fill="#000000">_read_pyarrow_parquet_piece</text>
</g>
<!-- &#45;5676020788401131674&#45;&gt;&#45;569989758728637702 -->
<g id="edge1" class="edge">
<title>&#45;5676020788401131674&#45;&gt;&#45;569989758728637702</title>
<path fill="none" stroke="#000000" d="M235.3393,-117.6491C244.0954,-117.6491 252.7888,-117.6491 261.1973,-117.6491"/>
<polygon fill="#000000" stroke="#000000" points="261.2976,-121.1492 271.2976,-117.6491 261.2975,-114.1492 261.2976,-121.1492"/>
</g>
<!-- &#45;569989758729720227 -->
<g id="node3" class="node">
<title>&#45;569989758729720227</title>
<polygon fill="none" stroke="#000000" points="404.9424,-388.6491 271.4166,-388.6491 271.4166,-352.6491 404.9424,-352.6491 404.9424,-388.6491"/>
<text text-anchor="middle" x="338.1795" y="-366.4491" font-family="Times,serif" font-size="14.00" fill="#000000">(&#39;read&#45;parquet&#45;#0&#39;, 1)</text>
</g>
<!-- &#45;6617261767945465199 -->
<g id="node4" class="node">
<title>&#45;6617261767945465199</title>
<ellipse fill="none" stroke="#000000" cx="117.6491" cy="-370.6491" rx="117.7983" ry="117.7983"/>
<text text-anchor="middle" x="117.6491" y="-366.4491" font-family="Times,serif" font-size="14.00" fill="#000000">_read_pyarrow_parquet_piece</text>
</g>
<!-- &#45;6617261767945465199&#45;&gt;&#45;569989758729720227 -->
<g id="edge2" class="edge">
<title>&#45;6617261767945465199&#45;&gt;&#45;569989758729720227</title>
<path fill="none" stroke="#000000" d="M235.3393,-370.6491C244.0954,-370.6491 252.7888,-370.6491 261.1973,-370.6491"/>
<polygon fill="#000000" stroke="#000000" points="261.2976,-374.1492 271.2976,-370.6491 261.2975,-367.1492 261.2976,-374.1492"/>
</g>
<!-- &#45;569989758730802752 -->
<g id="node5" class="node">
<title>&#45;569989758730802752</title>
<polygon fill="none" stroke="#000000" points="404.9424,-641.6491 271.4166,-641.6491 271.4166,-605.6491 404.9424,-605.6491 404.9424,-641.6491"/>
<text text-anchor="middle" x="338.1795" y="-619.4491" font-family="Times,serif" font-size="14.00" fill="#000000">(&#39;read&#45;parquet&#45;#0&#39;, 2)</text>
</g>
<!-- 1137912555595749376 -->
<g id="node6" class="node">
<title>1137912555595749376</title>
<ellipse fill="none" stroke="#000000" cx="117.6491" cy="-623.6491" rx="117.7983" ry="117.7983"/>
<text text-anchor="middle" x="117.6491" y="-619.4491" font-family="Times,serif" font-size="14.00" fill="#000000">_read_pyarrow_parquet_piece</text>
</g>
<!-- 1137912555595749376&#45;&gt;&#45;569989758730802752 -->
<g id="edge3" class="edge">
<title>1137912555595749376&#45;&gt;&#45;569989758730802752</title>
<path fill="none" stroke="#000000" d="M235.3393,-623.6491C244.0954,-623.6491 252.7888,-623.6491 261.1973,-623.6491"/>
<polygon fill="#000000" stroke="#000000" points="261.2976,-627.1492 271.2976,-623.6491 261.2975,-620.1492 261.2976,-627.1492"/>
</g>
<!-- &#45;569989758731885277 -->
<g id="node7" class="node">
<title>&#45;569989758731885277</title>
<polygon fill="none" stroke="#000000" points="404.9424,-894.6491 271.4166,-894.6491 271.4166,-858.6491 404.9424,-858.6491 404.9424,-894.6491"/>
<text text-anchor="middle" x="338.1795" y="-872.4491" font-family="Times,serif" font-size="14.00" fill="#000000">(&#39;read&#45;parquet&#45;#0&#39;, 3)</text>
</g>
<!-- 187805809368987051 -->
<g id="node8" class="node">
<title>187805809368987051</title>
<ellipse fill="none" stroke="#000000" cx="117.6491" cy="-876.6491" rx="117.7983" ry="117.7983"/>
<text text-anchor="middle" x="117.6491" y="-872.4491" font-family="Times,serif" font-size="14.00" fill="#000000">_read_pyarrow_parquet_piece</text>
</g>
<!-- 187805809368987051&#45;&gt;&#45;569989758731885277 -->
<g id="edge4" class="edge">
<title>187805809368987051&#45;&gt;&#45;569989758731885277</title>
<path fill="none" stroke="#000000" d="M235.3393,-876.6491C244.0954,-876.6491 252.7888,-876.6491 261.1973,-876.6491"/>
<polygon fill="#000000" stroke="#000000" points="261.2976,-880.1492 271.2976,-876.6491 261.2975,-873.1492 261.2976,-880.1492"/>
</g>
<!-- &#45;569989758724307602 -->
<g id="node9" class="node">
<title>&#45;569989758724307602</title>
<polygon fill="none" stroke="#000000" points="404.9424,-1147.6491 271.4166,-1147.6491 271.4166,-1111.6491 404.9424,-1111.6491 404.9424,-1147.6491"/>
<text text-anchor="middle" x="338.1795" y="-1125.4491" font-family="Times,serif" font-size="14.00" fill="#000000">(&#39;read&#45;parquet&#45;#0&#39;, 4)</text>
</g>
<!-- &#45;7408954787156087374 -->
<g id="node10" class="node">
<title>&#45;7408954787156087374</title>
<ellipse fill="none" stroke="#000000" cx="117.6491" cy="-1129.6491" rx="117.7983" ry="117.7983"/>
<text text-anchor="middle" x="117.6491" y="-1125.4491" font-family="Times,serif" font-size="14.00" fill="#000000">_read_pyarrow_parquet_piece</text>
</g>
<!-- &#45;7408954787156087374&#45;&gt;&#45;569989758724307602 -->
<g id="edge5" class="edge">
<title>&#45;7408954787156087374&#45;&gt;&#45;569989758724307602</title>
<path fill="none" stroke="#000000" d="M235.3393,-1129.6491C244.0954,-1129.6491 252.7888,-1129.6491 261.1973,-1129.6491"/>
<polygon fill="#000000" stroke="#000000" points="261.2976,-1133.1492 271.2976,-1129.6491 261.2975,-1126.1492 261.2976,-1133.1492"/>
</g>
</g>
</svg>
