<?xml version="1.0" encoding="utf-8" standalone="no"?>
<!DOCTYPE svg PUBLIC "-//W3C//DTD SVG 1.1//EN"
  "http://www.w3.org/Graphics/SVG/1.1/DTD/svg11.dtd">
<!-- Created with matplotlib (http://matplotlib.org/) -->
<svg height="360pt" version="1.1" viewBox="0 0 576 360" width="576pt" xmlns="http://www.w3.org/2000/svg" xmlns:xlink="http://www.w3.org/1999/xlink">
 <defs>
  <style type="text/css">
*{stroke-linecap:butt;stroke-linejoin:round;stroke-miterlimit:100000;}
  </style>
 </defs>
 <g id="figure_1">
  <g id="patch_1">
   <path d="M 0 360 
L 576 360 
L 576 0 
L 0 0 
L 0 360 
z
" style="fill:none;"/>
  </g>
  <g id="axes_1">
   <g id="patch_2">
    <path d="M 77.7 303 
L 556.03125 303 
L 556.03125 17.1 
L 77.7 17.1 
L 77.7 303 
z
" style="fill:none;"/>
   </g>
   <g id="matplotlib.axis_1">
    <g id="xtick_1">
     <g id="line2d_1">
      <defs>
       <path d="M 0 0 
L 0 6 
" id="m3efb810a77" style="stroke:#262626;stroke-width:1.3;"/>
      </defs>
      <g>
       <use style="fill:#262626;stroke:#262626;stroke-width:1.3;" x="77.7" xlink:href="#m3efb810a77" y="303.0"/>
      </g>
     </g>
     <g id="text_1">
      <!-- 0.0 -->
      <defs>
       <path d="M 9.078125 0 
L 9.078125 10.015625 
L 19.09375 10.015625 
L 19.09375 0 
z
" id="ArialMT-2e"/>
       <path d="M 4.15625 35.296875 
Q 4.15625 48 6.765625 55.734375 
Q 9.375 63.484375 14.515625 67.671875 
Q 19.671875 71.875 27.484375 71.875 
Q 33.25 71.875 37.59375 69.546875 
Q 41.9375 67.234375 44.765625 62.859375 
Q 47.609375 58.5 49.21875 52.21875 
Q 50.828125 45.953125 50.828125 35.296875 
Q 50.828125 22.703125 48.234375 14.96875 
Q 45.65625 7.234375 40.5 3 
Q 35.359375 -1.21875 27.484375 -1.21875 
Q 17.140625 -1.21875 11.234375 6.203125 
Q 4.15625 15.140625 4.15625 35.296875 
M 13.1875 35.296875 
Q 13.1875 17.671875 17.3125 11.828125 
Q 21.4375 6 27.484375 6 
Q 33.546875 6 37.671875 11.859375 
Q 41.796875 17.71875 41.796875 35.296875 
Q 41.796875 52.984375 37.671875 58.78125 
Q 33.546875 64.59375 27.390625 64.59375 
Q 21.34375 64.59375 17.71875 59.46875 
Q 13.1875 52.9375 13.1875 35.296875 
" id="ArialMT-30"/>
      </defs>
      <g style="fill:#262626;" transform="translate(68.665 327.40515625)scale(0.13 -0.13)">
       <use xlink:href="#ArialMT-30"/>
       <use x="55.615234375" xlink:href="#ArialMT-2e"/>
       <use x="83.3984375" xlink:href="#ArialMT-30"/>
      </g>
     </g>
    </g>
    <g id="xtick_2">
     <g id="line2d_2">
      <g>
       <use style="fill:#262626;stroke:#262626;stroke-width:1.3;" x="173.36625" xlink:href="#m3efb810a77" y="303.0"/>
      </g>
     </g>
     <g id="text_2">
      <!-- 0.2 -->
      <defs>
       <path d="M 50.34375 8.453125 
L 50.34375 0 
L 3.03125 0 
Q 2.9375 3.171875 4.046875 6.109375 
Q 5.859375 10.9375 9.828125 15.625 
Q 13.8125 20.3125 21.34375 26.46875 
Q 33.015625 36.03125 37.109375 41.625 
Q 41.21875 47.21875 41.21875 52.203125 
Q 41.21875 57.421875 37.46875 61 
Q 33.734375 64.59375 27.734375 64.59375 
Q 21.390625 64.59375 17.578125 60.78125 
Q 13.765625 56.984375 13.71875 50.25 
L 4.6875 51.171875 
Q 5.609375 61.28125 11.65625 66.578125 
Q 17.71875 71.875 27.9375 71.875 
Q 38.234375 71.875 44.234375 66.15625 
Q 50.25 60.453125 50.25 52 
Q 50.25 47.703125 48.484375 43.546875 
Q 46.734375 39.40625 42.65625 34.8125 
Q 38.578125 30.21875 29.109375 22.21875 
Q 21.1875 15.578125 18.9375 13.203125 
Q 16.703125 10.84375 15.234375 8.453125 
z
" id="ArialMT-32"/>
      </defs>
      <g style="fill:#262626;" transform="translate(164.33125 327.40515625)scale(0.13 -0.13)">
       <use xlink:href="#ArialMT-30"/>
       <use x="55.615234375" xlink:href="#ArialMT-2e"/>
       <use x="83.3984375" xlink:href="#ArialMT-32"/>
      </g>
     </g>
    </g>
    <g id="xtick_3">
     <g id="line2d_3">
      <g>
       <use style="fill:#262626;stroke:#262626;stroke-width:1.3;" x="269.0325" xlink:href="#m3efb810a77" y="303.0"/>
      </g>
     </g>
     <g id="text_3">
      <!-- 0.4 -->
      <defs>
       <path d="M 32.328125 0 
L 32.328125 17.140625 
L 1.265625 17.140625 
L 1.265625 25.203125 
L 33.9375 71.578125 
L 41.109375 71.578125 
L 41.109375 25.203125 
L 50.78125 25.203125 
L 50.78125 17.140625 
L 41.109375 17.140625 
L 41.109375 0 
z
M 32.328125 25.203125 
L 32.328125 57.46875 
L 9.90625 25.203125 
z
" id="ArialMT-34"/>
      </defs>
      <g style="fill:#262626;" transform="translate(259.9975 327.40515625)scale(0.13 -0.13)">
       <use xlink:href="#ArialMT-30"/>
       <use x="55.615234375" xlink:href="#ArialMT-2e"/>
       <use x="83.3984375" xlink:href="#ArialMT-34"/>
      </g>
     </g>
    </g>
    <g id="xtick_4">
     <g id="line2d_4">
      <g>
       <use style="fill:#262626;stroke:#262626;stroke-width:1.3;" x="364.69875" xlink:href="#m3efb810a77" y="303.0"/>
      </g>
     </g>
     <g id="text_4">
      <!-- 0.6 -->
      <defs>
       <path d="M 49.75 54.046875 
L 41.015625 53.375 
Q 39.84375 58.546875 37.703125 60.890625 
Q 34.125 64.65625 28.90625 64.65625 
Q 24.703125 64.65625 21.53125 62.3125 
Q 17.390625 59.28125 14.984375 53.46875 
Q 12.59375 47.65625 12.5 36.921875 
Q 15.671875 41.75 20.265625 44.09375 
Q 24.859375 46.4375 29.890625 46.4375 
Q 38.671875 46.4375 44.84375 39.96875 
Q 51.03125 33.5 51.03125 23.25 
Q 51.03125 16.5 48.125 10.71875 
Q 45.21875 4.9375 40.140625 1.859375 
Q 35.0625 -1.21875 28.609375 -1.21875 
Q 17.625 -1.21875 10.6875 6.859375 
Q 3.765625 14.9375 3.765625 33.5 
Q 3.765625 54.25 11.421875 63.671875 
Q 18.109375 71.875 29.4375 71.875 
Q 37.890625 71.875 43.28125 67.140625 
Q 48.6875 62.40625 49.75 54.046875 
M 13.875 23.1875 
Q 13.875 18.65625 15.796875 14.5 
Q 17.71875 10.359375 21.1875 8.171875 
Q 24.65625 6 28.46875 6 
Q 34.03125 6 38.03125 10.484375 
Q 42.046875 14.984375 42.046875 22.703125 
Q 42.046875 30.125 38.078125 34.390625 
Q 34.125 38.671875 28.125 38.671875 
Q 22.171875 38.671875 18.015625 34.390625 
Q 13.875 30.125 13.875 23.1875 
" id="ArialMT-36"/>
      </defs>
      <g style="fill:#262626;" transform="translate(355.66375 327.40515625)scale(0.13 -0.13)">
       <use xlink:href="#ArialMT-30"/>
       <use x="55.615234375" xlink:href="#ArialMT-2e"/>
       <use x="83.3984375" xlink:href="#ArialMT-36"/>
      </g>
     </g>
    </g>
    <g id="xtick_5">
     <g id="line2d_5">
      <g>
       <use style="fill:#262626;stroke:#262626;stroke-width:1.3;" x="460.365" xlink:href="#m3efb810a77" y="303.0"/>
      </g>
     </g>
     <g id="text_5">
      <!-- 0.8 -->
      <defs>
       <path d="M 17.671875 38.8125 
Q 12.203125 40.828125 9.5625 44.53125 
Q 6.9375 48.25 6.9375 53.421875 
Q 6.9375 61.234375 12.546875 66.546875 
Q 18.171875 71.875 27.484375 71.875 
Q 36.859375 71.875 42.578125 66.421875 
Q 48.296875 60.984375 48.296875 53.171875 
Q 48.296875 48.1875 45.671875 44.5 
Q 43.0625 40.828125 37.75 38.8125 
Q 44.34375 36.671875 47.78125 31.875 
Q 51.21875 27.09375 51.21875 20.453125 
Q 51.21875 11.28125 44.71875 5.03125 
Q 38.234375 -1.21875 27.640625 -1.21875 
Q 17.046875 -1.21875 10.546875 5.046875 
Q 4.046875 11.328125 4.046875 20.703125 
Q 4.046875 27.6875 7.59375 32.390625 
Q 11.140625 37.109375 17.671875 38.8125 
M 15.921875 53.71875 
Q 15.921875 48.640625 19.1875 45.40625 
Q 22.46875 42.1875 27.6875 42.1875 
Q 32.765625 42.1875 36.015625 45.375 
Q 39.265625 48.578125 39.265625 53.21875 
Q 39.265625 58.0625 35.90625 61.359375 
Q 32.5625 64.65625 27.59375 64.65625 
Q 22.5625 64.65625 19.234375 61.421875 
Q 15.921875 58.203125 15.921875 53.71875 
M 13.09375 20.65625 
Q 13.09375 16.890625 14.875 13.375 
Q 16.65625 9.859375 20.171875 7.921875 
Q 23.6875 6 27.734375 6 
Q 34.03125 6 38.125 10.046875 
Q 42.234375 14.109375 42.234375 20.359375 
Q 42.234375 26.703125 38.015625 30.859375 
Q 33.796875 35.015625 27.4375 35.015625 
Q 21.234375 35.015625 17.15625 30.90625 
Q 13.09375 26.8125 13.09375 20.65625 
" id="ArialMT-38"/>
      </defs>
      <g style="fill:#262626;" transform="translate(451.33 327.40515625)scale(0.13 -0.13)">
       <use xlink:href="#ArialMT-30"/>
       <use x="55.615234375" xlink:href="#ArialMT-2e"/>
       <use x="83.3984375" xlink:href="#ArialMT-38"/>
      </g>
     </g>
    </g>
    <g id="xtick_6">
     <g id="line2d_6">
      <g>
       <use style="fill:#262626;stroke:#262626;stroke-width:1.3;" x="556.03125" xlink:href="#m3efb810a77" y="303.0"/>
      </g>
     </g>
     <g id="text_6">
      <!-- 1.0 -->
      <defs>
       <path d="M 37.25 0 
L 28.46875 0 
L 28.46875 56 
Q 25.296875 52.984375 20.140625 49.953125 
Q 14.984375 46.921875 10.890625 45.40625 
L 10.890625 53.90625 
Q 18.265625 57.375 23.78125 62.296875 
Q 29.296875 67.234375 31.59375 71.875 
L 37.25 71.875 
z
" id="ArialMT-31"/>
      </defs>
      <g style="fill:#262626;" transform="translate(546.99625 327.40515625)scale(0.13 -0.13)">
       <use xlink:href="#ArialMT-31"/>
       <use x="55.615234375" xlink:href="#ArialMT-2e"/>
       <use x="83.3984375" xlink:href="#ArialMT-30"/>
      </g>
     </g>
    </g>
    <g id="text_7">
     <!-- Overall % -->
     <defs>
      <path d="M 6.5 0 
L 6.5 51.859375 
L 14.40625 51.859375 
L 14.40625 44 
Q 17.4375 49.515625 20 51.265625 
Q 22.5625 53.03125 25.640625 53.03125 
Q 30.078125 53.03125 34.671875 50.203125 
L 31.640625 42.046875 
Q 28.421875 43.953125 25.203125 43.953125 
Q 22.3125 43.953125 20.015625 42.21875 
Q 17.71875 40.484375 16.75 37.40625 
Q 15.28125 32.71875 15.28125 27.15625 
L 15.28125 0 
z
" id="ArialMT-72"/>
      <path d="M 42.09375 16.703125 
L 51.171875 15.578125 
Q 49.03125 7.625 43.21875 3.21875 
Q 37.40625 -1.171875 28.375 -1.171875 
Q 17 -1.171875 10.328125 5.828125 
Q 3.65625 12.84375 3.65625 25.484375 
Q 3.65625 38.578125 10.390625 45.796875 
Q 17.140625 53.03125 27.875 53.03125 
Q 38.28125 53.03125 44.875 45.953125 
Q 51.46875 38.875 51.46875 26.03125 
Q 51.46875 25.25 51.421875 23.6875 
L 12.75 23.6875 
Q 13.234375 15.140625 17.578125 10.59375 
Q 21.921875 6.0625 28.421875 6.0625 
Q 33.25 6.0625 36.671875 8.59375 
Q 40.09375 11.140625 42.09375 16.703125 
M 13.234375 30.90625 
L 42.1875 30.90625 
Q 41.609375 37.453125 38.875 40.71875 
Q 34.671875 45.796875 27.984375 45.796875 
Q 21.921875 45.796875 17.796875 41.75 
Q 13.671875 37.703125 13.234375 30.90625 
" id="ArialMT-65"/>
      <path d="M 40.4375 6.390625 
Q 35.546875 2.25 31.03125 0.53125 
Q 26.515625 -1.171875 21.34375 -1.171875 
Q 12.796875 -1.171875 8.203125 3 
Q 3.609375 7.171875 3.609375 13.671875 
Q 3.609375 17.484375 5.34375 20.625 
Q 7.078125 23.78125 9.890625 25.6875 
Q 12.703125 27.59375 16.21875 28.5625 
Q 18.796875 29.25 24.03125 29.890625 
Q 34.671875 31.15625 39.703125 32.90625 
Q 39.75 34.71875 39.75 35.203125 
Q 39.75 40.578125 37.25 42.78125 
Q 33.890625 45.75 27.25 45.75 
Q 21.046875 45.75 18.09375 43.578125 
Q 15.140625 41.40625 13.71875 35.890625 
L 5.125 37.0625 
Q 6.296875 42.578125 8.984375 45.96875 
Q 11.671875 49.359375 16.75 51.1875 
Q 21.828125 53.03125 28.515625 53.03125 
Q 35.15625 53.03125 39.296875 51.46875 
Q 43.453125 49.90625 45.40625 47.53125 
Q 47.359375 45.171875 48.140625 41.546875 
Q 48.578125 39.3125 48.578125 33.453125 
L 48.578125 21.734375 
Q 48.578125 9.46875 49.140625 6.21875 
Q 49.703125 2.984375 51.375 0 
L 42.1875 0 
Q 40.828125 2.734375 40.4375 6.390625 
M 39.703125 26.03125 
Q 34.90625 24.078125 25.34375 22.703125 
Q 19.921875 21.921875 17.671875 20.9375 
Q 15.4375 19.96875 14.203125 18.09375 
Q 12.984375 16.21875 12.984375 13.921875 
Q 12.984375 10.40625 15.640625 8.0625 
Q 18.3125 5.71875 23.4375 5.71875 
Q 28.515625 5.71875 32.46875 7.9375 
Q 36.421875 10.15625 38.28125 14.015625 
Q 39.703125 17 39.703125 22.796875 
z
" id="ArialMT-61"/>
      <path id="ArialMT-20"/>
      <path d="M 21 0 
L 1.265625 51.859375 
L 10.546875 51.859375 
L 21.6875 20.796875 
Q 23.484375 15.765625 25 10.359375 
Q 26.171875 14.453125 28.265625 20.21875 
L 39.796875 51.859375 
L 48.828125 51.859375 
L 29.203125 0 
z
" id="ArialMT-76"/>
      <path d="M 4.828125 34.859375 
Q 4.828125 52.6875 14.390625 62.765625 
Q 23.96875 72.859375 39.109375 72.859375 
Q 49.03125 72.859375 56.984375 68.109375 
Q 64.9375 63.375 69.109375 54.90625 
Q 73.296875 46.4375 73.296875 35.6875 
Q 73.296875 24.8125 68.890625 16.21875 
Q 64.5 7.625 56.4375 3.203125 
Q 48.390625 -1.21875 39.0625 -1.21875 
Q 28.953125 -1.21875 20.984375 3.65625 
Q 13.03125 8.546875 8.921875 16.984375 
Q 4.828125 25.4375 4.828125 34.859375 
M 14.59375 34.71875 
Q 14.59375 21.78125 21.546875 14.328125 
Q 28.515625 6.890625 39.015625 6.890625 
Q 49.703125 6.890625 56.609375 14.40625 
Q 63.53125 21.921875 63.53125 35.75 
Q 63.53125 44.484375 60.578125 51 
Q 57.625 57.515625 51.921875 61.109375 
Q 46.234375 64.703125 39.15625 64.703125 
Q 29.109375 64.703125 21.84375 57.78125 
Q 14.59375 50.875 14.59375 34.71875 
" id="ArialMT-4f"/>
      <path d="M 5.8125 54.390625 
Q 5.8125 62.0625 9.671875 67.421875 
Q 13.53125 72.796875 20.84375 72.796875 
Q 27.59375 72.796875 32 67.984375 
Q 36.421875 63.1875 36.421875 53.859375 
Q 36.421875 44.78125 31.953125 39.875 
Q 27.484375 34.96875 20.953125 34.96875 
Q 14.453125 34.96875 10.125 39.796875 
Q 5.8125 44.625 5.8125 54.390625 
M 21.09375 66.75 
Q 17.828125 66.75 15.65625 63.90625 
Q 13.484375 61.078125 13.484375 53.515625 
Q 13.484375 46.625 15.671875 43.8125 
Q 17.875 41.015625 21.09375 41.015625 
Q 24.421875 41.015625 26.59375 43.84375 
Q 28.765625 46.6875 28.765625 54.203125 
Q 28.765625 61.140625 26.5625 63.9375 
Q 24.359375 66.75 21.09375 66.75 
M 21.140625 -2.640625 
L 60.296875 72.796875 
L 67.4375 72.796875 
L 28.421875 -2.640625 
z
M 52.09375 16.796875 
Q 52.09375 24.515625 55.953125 29.859375 
Q 59.8125 35.203125 67.1875 35.203125 
Q 73.921875 35.203125 78.34375 30.390625 
Q 82.765625 25.59375 82.765625 16.265625 
Q 82.765625 7.171875 78.296875 2.265625 
Q 73.828125 -2.640625 67.234375 -2.640625 
Q 60.75 -2.640625 56.421875 2.21875 
Q 52.09375 7.078125 52.09375 16.796875 
M 67.4375 29.15625 
Q 64.109375 29.15625 61.9375 26.3125 
Q 59.765625 23.484375 59.765625 15.921875 
Q 59.765625 9.078125 61.953125 6.25 
Q 64.15625 3.421875 67.390625 3.421875 
Q 70.75 3.421875 72.921875 6.25 
Q 75.09375 9.078125 75.09375 16.609375 
Q 75.09375 23.53125 72.890625 26.34375 
Q 70.703125 29.15625 67.4375 29.15625 
" id="ArialMT-25"/>
      <path d="M 6.390625 0 
L 6.390625 71.578125 
L 15.1875 71.578125 
L 15.1875 0 
z
" id="ArialMT-6c"/>
     </defs>
     <g style="fill:#262626;" transform="translate(285.87484375 345.224578125)scale(0.14300000000000002 -0.14300000000000002)">
      <use xlink:href="#ArialMT-4f"/>
      <use x="77.783203125" xlink:href="#ArialMT-76"/>
      <use x="127.783203125" xlink:href="#ArialMT-65"/>
      <use x="183.3984375" xlink:href="#ArialMT-72"/>
      <use x="216.69921875" xlink:href="#ArialMT-61"/>
      <use x="272.314453125" xlink:href="#ArialMT-6c"/>
      <use x="294.53125" xlink:href="#ArialMT-6c"/>
      <use x="316.748046875" xlink:href="#ArialMT-20"/>
      <use x="344.53125" xlink:href="#ArialMT-25"/>
     </g>
    </g>
   </g>
   <g id="matplotlib.axis_2">
    <g id="ytick_1">
     <g id="line2d_7">
      <defs>
       <path d="M 0 0 
L -6 0 
" id="m0c7a31d2f8" style="stroke:#262626;stroke-width:1.3;"/>
      </defs>
      <g>
       <use style="fill:#262626;stroke:#262626;stroke-width:1.3;" x="77.7" xlink:href="#m0c7a31d2f8" y="303.0"/>
      </g>
     </g>
     <g id="text_8">
      <!-- −0.05 -->
      <defs>
       <path d="M 4.15625 18.75 
L 13.375 19.53125 
Q 14.40625 12.796875 18.140625 9.390625 
Q 21.875 6 27.15625 6 
Q 33.5 6 37.890625 10.78125 
Q 42.28125 15.578125 42.28125 23.484375 
Q 42.28125 31 38.0625 35.34375 
Q 33.84375 39.703125 27 39.703125 
Q 22.75 39.703125 19.328125 37.765625 
Q 15.921875 35.84375 13.96875 32.765625 
L 5.71875 33.84375 
L 12.640625 70.609375 
L 48.25 70.609375 
L 48.25 62.203125 
L 19.671875 62.203125 
L 15.828125 42.96875 
Q 22.265625 47.46875 29.34375 47.46875 
Q 38.71875 47.46875 45.15625 40.96875 
Q 51.609375 34.46875 51.609375 24.265625 
Q 51.609375 14.546875 45.953125 7.46875 
Q 39.0625 -1.21875 27.15625 -1.21875 
Q 17.390625 -1.21875 11.203125 4.25 
Q 5.03125 9.71875 4.15625 18.75 
" id="ArialMT-35"/>
       <path d="M 52.828125 31.203125 
L 5.5625 31.203125 
L 5.5625 39.40625 
L 52.828125 39.40625 
z
" id="ArialMT-2212"/>
      </defs>
      <g style="fill:#262626;" transform="translate(29.70796875 306.360703125)scale(0.13 -0.13)">
       <use xlink:href="#ArialMT-2212"/>
       <use x="58.3984375" xlink:href="#ArialMT-30"/>
       <use x="114.013671875" xlink:href="#ArialMT-2e"/>
       <use x="141.796875" xlink:href="#ArialMT-30"/>
       <use x="197.412109375" xlink:href="#ArialMT-35"/>
      </g>
     </g>
    </g>
    <g id="ytick_2">
     <g id="line2d_8">
      <g>
       <use style="fill:#262626;stroke:#262626;stroke-width:1.3;" x="77.7" xlink:href="#m0c7a31d2f8" y="271.233333333"/>
      </g>
     </g>
     <g id="text_9">
      <!-- 0.00 -->
      <g style="fill:#262626;" transform="translate(37.30078125 274.594036458)scale(0.13 -0.13)">
       <use xlink:href="#ArialMT-30"/>
       <use x="55.615234375" xlink:href="#ArialMT-2e"/>
       <use x="83.3984375" xlink:href="#ArialMT-30"/>
       <use x="139.013671875" xlink:href="#ArialMT-30"/>
      </g>
     </g>
    </g>
    <g id="ytick_3">
     <g id="line2d_9">
      <g>
       <use style="fill:#262626;stroke:#262626;stroke-width:1.3;" x="77.7" xlink:href="#m0c7a31d2f8" y="239.466666667"/>
      </g>
     </g>
     <g id="text_10">
      <!-- 0.05 -->
      <g style="fill:#262626;" transform="translate(37.30078125 242.827369792)scale(0.13 -0.13)">
       <use xlink:href="#ArialMT-30"/>
       <use x="55.615234375" xlink:href="#ArialMT-2e"/>
       <use x="83.3984375" xlink:href="#ArialMT-30"/>
       <use x="139.013671875" xlink:href="#ArialMT-35"/>
      </g>
     </g>
    </g>
    <g id="ytick_4">
     <g id="line2d_10">
      <g>
       <use style="fill:#262626;stroke:#262626;stroke-width:1.3;" x="77.7" xlink:href="#m0c7a31d2f8" y="207.7"/>
      </g>
     </g>
     <g id="text_11">
      <!-- 0.10 -->
      <g style="fill:#262626;" transform="translate(37.30078125 211.060703125)scale(0.13 -0.13)">
       <use xlink:href="#ArialMT-30"/>
       <use x="55.615234375" xlink:href="#ArialMT-2e"/>
       <use x="83.3984375" xlink:href="#ArialMT-31"/>
       <use x="139.013671875" xlink:href="#ArialMT-30"/>
      </g>
     </g>
    </g>
    <g id="ytick_5">
     <g id="line2d_11">
      <g>
       <use style="fill:#262626;stroke:#262626;stroke-width:1.3;" x="77.7" xlink:href="#m0c7a31d2f8" y="175.933333333"/>
      </g>
     </g>
     <g id="text_12">
      <!-- 0.15 -->
      <g style="fill:#262626;" transform="translate(37.30078125 179.294036458)scale(0.13 -0.13)">
       <use xlink:href="#ArialMT-30"/>
       <use x="55.615234375" xlink:href="#ArialMT-2e"/>
       <use x="83.3984375" xlink:href="#ArialMT-31"/>
       <use x="139.013671875" xlink:href="#ArialMT-35"/>
      </g>
     </g>
    </g>
    <g id="ytick_6">
     <g id="line2d_12">
      <g>
       <use style="fill:#262626;stroke:#262626;stroke-width:1.3;" x="77.7" xlink:href="#m0c7a31d2f8" y="144.166666667"/>
      </g>
     </g>
     <g id="text_13">
      <!-- 0.20 -->
      <g style="fill:#262626;" transform="translate(37.30078125 147.527369792)scale(0.13 -0.13)">
       <use xlink:href="#ArialMT-30"/>
       <use x="55.615234375" xlink:href="#ArialMT-2e"/>
       <use x="83.3984375" xlink:href="#ArialMT-32"/>
       <use x="139.013671875" xlink:href="#ArialMT-30"/>
      </g>
     </g>
    </g>
    <g id="ytick_7">
     <g id="line2d_13">
      <g>
       <use style="fill:#262626;stroke:#262626;stroke-width:1.3;" x="77.7" xlink:href="#m0c7a31d2f8" y="112.4"/>
      </g>
     </g>
     <g id="text_14">
      <!-- 0.25 -->
      <g style="fill:#262626;" transform="translate(37.30078125 115.760703125)scale(0.13 -0.13)">
       <use xlink:href="#ArialMT-30"/>
       <use x="55.615234375" xlink:href="#ArialMT-2e"/>
       <use x="83.3984375" xlink:href="#ArialMT-32"/>
       <use x="139.013671875" xlink:href="#ArialMT-35"/>
      </g>
     </g>
    </g>
    <g id="ytick_8">
     <g id="line2d_14">
      <g>
       <use style="fill:#262626;stroke:#262626;stroke-width:1.3;" x="77.7" xlink:href="#m0c7a31d2f8" y="80.6333333333"/>
      </g>
     </g>
     <g id="text_15">
      <!-- 0.30 -->
      <defs>
       <path d="M 4.203125 18.890625 
L 12.984375 20.0625 
Q 14.5 12.59375 18.140625 9.296875 
Q 21.78125 6 27 6 
Q 33.203125 6 37.46875 10.296875 
Q 41.75 14.59375 41.75 20.953125 
Q 41.75 27 37.796875 30.921875 
Q 33.84375 34.859375 27.734375 34.859375 
Q 25.25 34.859375 21.53125 33.890625 
L 22.515625 41.609375 
Q 23.390625 41.5 23.921875 41.5 
Q 29.546875 41.5 34.03125 44.421875 
Q 38.53125 47.359375 38.53125 53.46875 
Q 38.53125 58.296875 35.25 61.46875 
Q 31.984375 64.65625 26.8125 64.65625 
Q 21.6875 64.65625 18.265625 61.421875 
Q 14.84375 58.203125 13.875 51.765625 
L 5.078125 53.328125 
Q 6.6875 62.15625 12.390625 67.015625 
Q 18.109375 71.875 26.609375 71.875 
Q 32.46875 71.875 37.390625 69.359375 
Q 42.328125 66.84375 44.9375 62.5 
Q 47.5625 58.15625 47.5625 53.265625 
Q 47.5625 48.640625 45.0625 44.828125 
Q 42.578125 41.015625 37.703125 38.765625 
Q 44.046875 37.3125 47.5625 32.6875 
Q 51.078125 28.078125 51.078125 21.140625 
Q 51.078125 11.765625 44.234375 5.25 
Q 37.40625 -1.265625 26.953125 -1.265625 
Q 17.53125 -1.265625 11.296875 4.34375 
Q 5.078125 9.96875 4.203125 18.890625 
" id="ArialMT-33"/>
      </defs>
      <g style="fill:#262626;" transform="translate(37.30078125 83.9940364583)scale(0.13 -0.13)">
       <use xlink:href="#ArialMT-30"/>
       <use x="55.615234375" xlink:href="#ArialMT-2e"/>
       <use x="83.3984375" xlink:href="#ArialMT-33"/>
       <use x="139.013671875" xlink:href="#ArialMT-30"/>
      </g>
     </g>
    </g>
    <g id="ytick_9">
     <g id="line2d_15">
      <g>
       <use style="fill:#262626;stroke:#262626;stroke-width:1.3;" x="77.7" xlink:href="#m0c7a31d2f8" y="48.8666666667"/>
      </g>
     </g>
     <g id="text_16">
      <!-- 0.35 -->
      <g style="fill:#262626;" transform="translate(37.30078125 52.2273697917)scale(0.13 -0.13)">
       <use xlink:href="#ArialMT-30"/>
       <use x="55.615234375" xlink:href="#ArialMT-2e"/>
       <use x="83.3984375" xlink:href="#ArialMT-33"/>
       <use x="139.013671875" xlink:href="#ArialMT-35"/>
      </g>
     </g>
    </g>
    <g id="ytick_10">
     <g id="line2d_16">
      <g>
       <use style="fill:#262626;stroke:#262626;stroke-width:1.3;" x="77.7" xlink:href="#m0c7a31d2f8" y="17.1"/>
      </g>
     </g>
     <g id="text_17">
      <!-- 0.40 -->
      <g style="fill:#262626;" transform="translate(37.30078125 20.460703125)scale(0.13 -0.13)">
       <use xlink:href="#ArialMT-30"/>
       <use x="55.615234375" xlink:href="#ArialMT-2e"/>
       <use x="83.3984375" xlink:href="#ArialMT-34"/>
       <use x="139.013671875" xlink:href="#ArialMT-30"/>
      </g>
     </g>
    </g>
    <g id="text_18">
     <!-- Home Win % - Away % -->
     <defs>
      <path d="M 6.59375 0 
L 6.59375 51.859375 
L 14.453125 51.859375 
L 14.453125 44.578125 
Q 16.890625 48.390625 20.9375 50.703125 
Q 25 53.03125 30.171875 53.03125 
Q 35.9375 53.03125 39.625 50.640625 
Q 43.3125 48.25 44.828125 43.953125 
Q 50.984375 53.03125 60.84375 53.03125 
Q 68.5625 53.03125 72.703125 48.75 
Q 76.859375 44.484375 76.859375 35.59375 
L 76.859375 0 
L 68.109375 0 
L 68.109375 32.671875 
Q 68.109375 37.9375 67.25 40.25 
Q 66.40625 42.578125 64.15625 43.984375 
Q 61.921875 45.40625 58.890625 45.40625 
Q 53.421875 45.40625 49.796875 41.765625 
Q 46.1875 38.140625 46.1875 30.125 
L 46.1875 0 
L 37.40625 0 
L 37.40625 33.6875 
Q 37.40625 39.546875 35.25 42.46875 
Q 33.109375 45.40625 28.21875 45.40625 
Q 24.515625 45.40625 21.359375 43.453125 
Q 18.21875 41.5 16.796875 37.734375 
Q 15.375 33.984375 15.375 26.90625 
L 15.375 0 
z
" id="ArialMT-6d"/>
      <path d="M -0.140625 0 
L 27.34375 71.578125 
L 37.546875 71.578125 
L 66.84375 0 
L 56.0625 0 
L 47.703125 21.6875 
L 17.78125 21.6875 
L 9.90625 0 
z
M 20.515625 29.390625 
L 44.78125 29.390625 
L 37.3125 49.21875 
Q 33.890625 58.25 32.234375 64.0625 
Q 30.859375 57.171875 28.375 50.390625 
z
" id="ArialMT-41"/>
      <path d="M 3.171875 21.484375 
L 3.171875 30.328125 
L 30.171875 30.328125 
L 30.171875 21.484375 
z
" id="ArialMT-2d"/>
      <path d="M 8.015625 0 
L 8.015625 71.578125 
L 17.484375 71.578125 
L 17.484375 42.1875 
L 54.6875 42.1875 
L 54.6875 71.578125 
L 64.15625 71.578125 
L 64.15625 0 
L 54.6875 0 
L 54.6875 33.734375 
L 17.484375 33.734375 
L 17.484375 0 
z
" id="ArialMT-48"/>
      <path d="M 16.15625 0 
L 0.296875 51.859375 
L 9.375 51.859375 
L 17.625 21.921875 
L 20.703125 10.796875 
Q 20.90625 11.625 23.390625 21.484375 
L 31.640625 51.859375 
L 40.671875 51.859375 
L 48.4375 21.78125 
L 51.03125 11.859375 
L 54 21.875 
L 62.890625 51.859375 
L 71.4375 51.859375 
L 55.21875 0 
L 46.09375 0 
L 37.84375 31.0625 
L 35.84375 39.890625 
L 25.34375 0 
z
" id="ArialMT-77"/>
      <path d="M 3.328125 25.921875 
Q 3.328125 40.328125 11.328125 47.265625 
Q 18.015625 53.03125 27.640625 53.03125 
Q 38.328125 53.03125 45.109375 46.015625 
Q 51.90625 39.015625 51.90625 26.65625 
Q 51.90625 16.65625 48.90625 10.90625 
Q 45.90625 5.171875 40.15625 2 
Q 34.421875 -1.171875 27.640625 -1.171875 
Q 16.75 -1.171875 10.03125 5.8125 
Q 3.328125 12.796875 3.328125 25.921875 
M 12.359375 25.921875 
Q 12.359375 15.96875 16.703125 11.015625 
Q 21.046875 6.0625 27.640625 6.0625 
Q 34.1875 6.0625 38.53125 11.03125 
Q 42.875 16.015625 42.875 26.21875 
Q 42.875 35.84375 38.5 40.796875 
Q 34.125 45.75 27.640625 45.75 
Q 21.046875 45.75 16.703125 40.8125 
Q 12.359375 35.890625 12.359375 25.921875 
" id="ArialMT-6f"/>
      <path d="M 6.640625 61.46875 
L 6.640625 71.578125 
L 15.4375 71.578125 
L 15.4375 61.46875 
z
M 6.640625 0 
L 6.640625 51.859375 
L 15.4375 51.859375 
L 15.4375 0 
z
" id="ArialMT-69"/>
      <path d="M 20.21875 0 
L 1.21875 71.578125 
L 10.9375 71.578125 
L 21.828125 24.65625 
Q 23.578125 17.28125 24.859375 10.015625 
Q 27.59375 21.484375 28.078125 23.25 
L 41.703125 71.578125 
L 53.125 71.578125 
L 63.375 35.359375 
Q 67.234375 21.875 68.953125 10.015625 
Q 70.3125 16.796875 72.515625 25.59375 
L 83.734375 71.578125 
L 93.265625 71.578125 
L 73.640625 0 
L 64.5 0 
L 49.421875 54.546875 
Q 47.515625 61.375 47.171875 62.9375 
Q 46.046875 58.015625 45.0625 54.546875 
L 29.890625 0 
z
" id="ArialMT-57"/>
      <path d="M 6.203125 -19.96875 
L 5.21875 -11.71875 
Q 8.109375 -12.5 10.25 -12.5 
Q 13.1875 -12.5 14.9375 -11.515625 
Q 16.703125 -10.546875 17.828125 -8.796875 
Q 18.65625 -7.46875 20.515625 -2.25 
Q 20.75 -1.515625 21.296875 -0.09375 
L 1.609375 51.859375 
L 11.078125 51.859375 
L 21.875 21.828125 
Q 23.96875 16.109375 25.640625 9.8125 
Q 27.15625 15.875 29.25 21.625 
L 40.328125 51.859375 
L 49.125 51.859375 
L 29.390625 -0.875 
Q 26.21875 -9.421875 24.46875 -12.640625 
Q 22.125 -17 19.09375 -19.015625 
Q 16.0625 -21.046875 11.859375 -21.046875 
Q 9.328125 -21.046875 6.203125 -19.96875 
" id="ArialMT-79"/>
      <path d="M 6.59375 0 
L 6.59375 51.859375 
L 14.5 51.859375 
L 14.5 44.484375 
Q 20.21875 53.03125 31 53.03125 
Q 35.6875 53.03125 39.625 51.34375 
Q 43.5625 49.65625 45.515625 46.921875 
Q 47.46875 44.1875 48.25 40.4375 
Q 48.734375 37.984375 48.734375 31.890625 
L 48.734375 0 
L 39.9375 0 
L 39.9375 31.546875 
Q 39.9375 36.921875 38.90625 39.578125 
Q 37.890625 42.234375 35.28125 43.8125 
Q 32.671875 45.40625 29.15625 45.40625 
Q 23.53125 45.40625 19.453125 41.84375 
Q 15.375 38.28125 15.375 28.328125 
L 15.375 0 
z
" id="ArialMT-6e"/>
     </defs>
     <g style="fill:#262626;" transform="translate(21.698265625 233.94078125)rotate(-90.0)scale(0.14300000000000002 -0.14300000000000002)">
      <use xlink:href="#ArialMT-48"/>
      <use x="72.216796875" xlink:href="#ArialMT-6f"/>
      <use x="127.83203125" xlink:href="#ArialMT-6d"/>
      <use x="211.1328125" xlink:href="#ArialMT-65"/>
      <use x="266.748046875" xlink:href="#ArialMT-20"/>
      <use x="294.53125" xlink:href="#ArialMT-57"/>
      <use x="388.916015625" xlink:href="#ArialMT-69"/>
      <use x="411.1328125" xlink:href="#ArialMT-6e"/>
      <use x="466.748046875" xlink:href="#ArialMT-20"/>
      <use x="494.53125" xlink:href="#ArialMT-25"/>
      <use x="583.447265625" xlink:href="#ArialMT-20"/>
      <use x="611.23046875" xlink:href="#ArialMT-2d"/>
      <use x="644.53125" xlink:href="#ArialMT-20"/>
      <use x="672.236328125" xlink:href="#ArialMT-41"/>
      <use x="738.919921875" xlink:href="#ArialMT-77"/>
      <use x="811.13671875" xlink:href="#ArialMT-61"/>
      <use x="866.751953125" xlink:href="#ArialMT-79"/>
      <use x="916.751953125" xlink:href="#ArialMT-20"/>
      <use x="944.53515625" xlink:href="#ArialMT-25"/>
     </g>
    </g>
   </g>
   <g id="PathCollection_1">
    <defs>
     <path d="M 0 2.236068 
C 0.593012 2.236068 1.161816 2.000462 1.581139 1.581139 
C 2.000462 1.161816 2.236068 0.593012 2.236068 0 
C 2.236068 -0.593012 2.000462 -1.161816 1.581139 -1.581139 
C 1.161816 -2.000462 0.593012 -2.236068 0 -2.236068 
C -0.593012 -2.236068 -1.161816 -2.000462 -1.581139 -1.581139 
C -2.000462 -1.161816 -2.236068 -0.593012 -2.236068 0 
C -2.236068 0.593012 -2.000462 1.161816 -1.581139 1.581139 
C -1.161816 2.000462 -0.593012 2.236068 0 2.236068 
z
" id="mac2496806e"/>
    </defs>
    <g clip-path="url(#pa9a38172b1)">
     <use style="fill:#4c72b0;fill-opacity:0.8;" x="357.698780488" xlink:href="#mac2496806e" y="178.257723577"/>
     <use style="fill:#4c72b0;fill-opacity:0.8;" x="357.698780488" xlink:href="#mac2496806e" y="147.265853659"/>
     <use style="fill:#4c72b0;fill-opacity:0.8;" x="200.199466463" xlink:href="#mac2496806e" y="162.761788618"/>
     <use style="fill:#4c72b0;fill-opacity:0.8;" x="357.698780488" xlink:href="#mac2496806e" y="85.2821138211"/>
     <use style="fill:#4c72b0;fill-opacity:0.8;" x="322.698932927" xlink:href="#mac2496806e" y="116.27398374"/>
     <use style="fill:#4c72b0;fill-opacity:0.8;" x="410.198551829" xlink:href="#mac2496806e" y="131.769918699"/>
     <use style="fill:#4c72b0;fill-opacity:0.8;" x="322.698932927" xlink:href="#mac2496806e" y="209.249593496"/>
     <use style="fill:#4c72b0;fill-opacity:0.8;" x="270.199161585" xlink:href="#mac2496806e" y="224.745528455"/>
     <use style="fill:#4c72b0;fill-opacity:0.8;" x="334.36554878" xlink:href="#mac2496806e" y="147.265853659"/>
     <use style="fill:#4c72b0;fill-opacity:0.8;" x="503.531478659" xlink:href="#mac2496806e" y="193.753658537"/>
     <use style="fill:#4c72b0;fill-opacity:0.8;" x="316.865625" xlink:href="#mac2496806e" y="193.753658537"/>
     <use style="fill:#4c72b0;fill-opacity:0.8;" x="340.198856707" xlink:href="#mac2496806e" y="162.761788618"/>
     <use style="fill:#4c72b0;fill-opacity:0.8;" x="386.865320122" xlink:href="#mac2496806e" y="193.753658537"/>
     <use style="fill:#4c72b0;fill-opacity:0.8;" x="176.866234756" xlink:href="#mac2496806e" y="162.761788618"/>
     <use style="fill:#4c72b0;fill-opacity:0.8;" x="322.698932927" xlink:href="#mac2496806e" y="116.27398374"/>
     <use style="fill:#4c72b0;fill-opacity:0.8;" x="357.698780488" xlink:href="#mac2496806e" y="147.265853659"/>
     <use style="fill:#4c72b0;fill-opacity:0.8;" x="270.199161585" xlink:href="#mac2496806e" y="69.7861788618"/>
     <use style="fill:#4c72b0;fill-opacity:0.8;" x="246.865929878" xlink:href="#mac2496806e" y="286.729268293"/>
     <use style="fill:#4c72b0;fill-opacity:0.8;" x="252.699237805" xlink:href="#mac2496806e" y="85.2821138211"/>
     <use style="fill:#4c72b0;fill-opacity:0.8;" x="264.365853659" xlink:href="#mac2496806e" y="209.249593496"/>
     <use style="fill:#4c72b0;fill-opacity:0.8;" x="398.531935976" xlink:href="#mac2496806e" y="131.769918699"/>
     <use style="fill:#4c72b0;fill-opacity:0.8;" x="281.865777439" xlink:href="#mac2496806e" y="100.77804878"/>
     <use style="fill:#4c72b0;fill-opacity:0.8;" x="136.033079268" xlink:href="#mac2496806e" y="209.249593496"/>
     <use style="fill:#4c72b0;fill-opacity:0.8;" x="211.866082317" xlink:href="#mac2496806e" y="193.753658537"/>
     <use style="fill:#4c72b0;fill-opacity:0.8;" x="334.36554878" xlink:href="#mac2496806e" y="85.2821138211"/>
     <use style="fill:#4c72b0;fill-opacity:0.8;" x="270.199161585" xlink:href="#mac2496806e" y="224.745528455"/>
     <use style="fill:#4c72b0;fill-opacity:0.8;" x="468.531631098" xlink:href="#mac2496806e" y="69.7861788618"/>
     <use style="fill:#4c72b0;fill-opacity:0.8;" x="404.365243902" xlink:href="#mac2496806e" y="147.265853659"/>
     <use style="fill:#4c72b0;fill-opacity:0.8;" x="311.032317073" xlink:href="#mac2496806e" y="147.265853659"/>
     <use style="fill:#4c72b0;fill-opacity:0.8;" x="316.865625" xlink:href="#mac2496806e" y="224.745528455"/>
    </g>
   </g>
   <g id="PolyCollection_1">
    <defs>
     <path d="M 77.7 -215.756464 
L 77.7 -95.684011 
L 82.531629 -97.776848 
L 87.363258 -99.863989 
L 92.194886 -101.8104 
L 97.026515 -103.755083 
L 101.858144 -105.699766 
L 106.689773 -107.644449 
L 111.521402 -109.594226 
L 116.35303 -111.544378 
L 121.184659 -113.49453 
L 126.016288 -115.444682 
L 130.847917 -117.394834 
L 135.679545 -119.344986 
L 140.511174 -121.298579 
L 145.342803 -123.38733 
L 150.174432 -125.519953 
L 155.006061 -127.294591 
L 159.837689 -129.193506 
L 164.669318 -131.225357 
L 169.500947 -133.265387 
L 174.332576 -135.278745 
L 179.164205 -136.883998 
L 183.995833 -138.822171 
L 188.827462 -140.765457 
L 193.659091 -142.477853 
L 198.49072 -144.410795 
L 203.322348 -145.924806 
L 208.153977 -147.959248 
L 212.985606 -149.939699 
L 217.817235 -151.565168 
L 222.648864 -153.346184 
L 227.480492 -155.218119 
L 232.312121 -157.232279 
L 237.14375 -159.115733 
L 241.975379 -161.251527 
L 246.807008 -162.450967 
L 251.638636 -164.227477 
L 256.470265 -165.760213 
L 261.301894 -167.459996 
L 266.133523 -168.740202 
L 270.965152 -169.980033 
L 275.79678 -171.723756 
L 280.628409 -173.283113 
L 285.460038 -174.854567 
L 290.291667 -175.867991 
L 295.123295 -177.2299 
L 299.954924 -179.033122 
L 304.786553 -180.173308 
L 309.618182 -181.114473 
L 314.449811 -182.0391 
L 319.281439 -183.332764 
L 324.113068 -184.120573 
L 328.944697 -184.993401 
L 333.776326 -186.043323 
L 338.607955 -186.810788 
L 343.439583 -187.480846 
L 348.271212 -188.194026 
L 353.102841 -188.881743 
L 357.93447 -189.336526 
L 362.766098 -189.934619 
L 367.597727 -190.508895 
L 372.429356 -191.217259 
L 377.260985 -191.678957 
L 382.092614 -191.937435 
L 386.924242 -192.386076 
L 391.755871 -193.016619 
L 396.5875 -193.525928 
L 401.419129 -194.059543 
L 406.250758 -194.410056 
L 411.082386 -194.78594 
L 415.914015 -194.977214 
L 420.745644 -195.32042 
L 425.577273 -195.333217 
L 430.408902 -195.665582 
L 435.24053 -195.688121 
L 440.072159 -195.864822 
L 444.903788 -196.137315 
L 449.735417 -196.518164 
L 454.567045 -196.59648 
L 459.398674 -196.828758 
L 464.230303 -197.057677 
L 469.061932 -196.92574 
L 473.893561 -197.102009 
L 478.725189 -197.250802 
L 483.556818 -197.445274 
L 488.388447 -197.581173 
L 493.220076 -197.42536 
L 498.051705 -197.277288 
L 502.883333 -197.644659 
L 507.714962 -197.571221 
L 512.546591 -197.312414 
L 517.37822 -197.400256 
L 522.209848 -197.762446 
L 527.041477 -198.124636 
L 531.873106 -198.486826 
L 536.704735 -198.396606 
L 541.536364 -198.339958 
L 546.367992 -198.476937 
L 551.199621 -198.312323 
L 556.03125 -198.168871 
L 556.03125 -301.664995 
L 556.03125 -301.664995 
L 551.199621 -299.813142 
L 546.367992 -298.092523 
L 541.536364 -296.365247 
L 536.704735 -294.61987 
L 531.873106 -292.638473 
L 527.041477 -290.478679 
L 522.209848 -288.460894 
L 517.37822 -286.571604 
L 512.546591 -284.680424 
L 507.714962 -282.787801 
L 502.883333 -280.741669 
L 498.051705 -278.906397 
L 493.220076 -277.141385 
L 488.388447 -275.26292 
L 483.556818 -273.592735 
L 478.725189 -271.642471 
L 473.893561 -269.624325 
L 469.061932 -267.74906 
L 464.230303 -266.13586 
L 459.398674 -264.723663 
L 454.567045 -263.288693 
L 449.735417 -260.836637 
L 444.903788 -258.330226 
L 440.072159 -256.437087 
L 435.24053 -255.133502 
L 430.408902 -253.314919 
L 425.577273 -251.238674 
L 420.745644 -249.290374 
L 415.914015 -247.843186 
L 411.082386 -246.119467 
L 406.250758 -244.219913 
L 401.419129 -242.743686 
L 396.5875 -241.306708 
L 391.755871 -239.482982 
L 386.924242 -238.086133 
L 382.092614 -236.763695 
L 377.260985 -235.198767 
L 372.429356 -233.437438 
L 367.597727 -231.935144 
L 362.766098 -230.923241 
L 357.93447 -229.714305 
L 353.102841 -228.635856 
L 348.271212 -227.486713 
L 343.439583 -226.099533 
L 338.607955 -225.120734 
L 333.776326 -224.142843 
L 328.944697 -223.543154 
L 324.113068 -222.891659 
L 319.281439 -221.949682 
L 314.449811 -221.536533 
L 309.618182 -220.555719 
L 304.786553 -219.773516 
L 299.954924 -219.247522 
L 295.123295 -218.876031 
L 290.291667 -218.503716 
L 285.460038 -218.181514 
L 280.628409 -217.473922 
L 275.79678 -217.597189 
L 270.965152 -217.324861 
L 266.133523 -217.02583 
L 261.301894 -217.039068 
L 256.470265 -216.339542 
L 251.638636 -215.989508 
L 246.807008 -215.569883 
L 241.975379 -215.295115 
L 237.14375 -215.115165 
L 232.312121 -215.352739 
L 227.480492 -215.024567 
L 222.648864 -215.30738 
L 217.817235 -215.430881 
L 212.985606 -214.684392 
L 208.153977 -214.169481 
L 203.322348 -214.422376 
L 198.49072 -214.391704 
L 193.659091 -214.09127 
L 188.827462 -213.821288 
L 183.995833 -213.560704 
L 179.164205 -213.19153 
L 174.332576 -213.118841 
L 169.500947 -213.231903 
L 164.669318 -213.354253 
L 159.837689 -213.484704 
L 155.006061 -213.615154 
L 150.174432 -213.745604 
L 145.342803 -213.837507 
L 140.511174 -213.914577 
L 135.679545 -214.030927 
L 130.847917 -214.17901 
L 126.016288 -214.351372 
L 121.184659 -214.531677 
L 116.35303 -214.679573 
L 111.521402 -214.814185 
L 106.689773 -214.948796 
L 101.858144 -215.083407 
L 97.026515 -215.218019 
L 92.194886 -215.35263 
L 87.363258 -215.487241 
L 82.531629 -215.621853 
L 77.7 -215.756464 
z
" id="m938f715f40" style="stroke:#000000;stroke-opacity:0.15;stroke-width:0.39;"/>
    </defs>
    <g clip-path="url(#pa9a38172b1)">
     <use style="fill:#4c72b0;fill-opacity:0.15;stroke:#000000;stroke-opacity:0.15;stroke-width:0.39;" x="0.0" xlink:href="#m938f715f40" y="360.0"/>
    </g>
   </g>
   <g id="line2d_17">
    <path clip-path="url(#pa9a38172b1)" d="M 77.7 203.409742 
L 82.531629 202.505091 
L 87.363258 201.600441 
L 92.194886 200.69579 
L 97.026515 199.79114 
L 101.858144 198.886489 
L 106.689773 197.981839 
L 111.521402 197.077188 
L 116.35303 196.172538 
L 121.184659 195.267887 
L 126.016288 194.363236 
L 130.847917 193.458586 
L 135.679545 192.553935 
L 140.511174 191.649285 
L 145.342803 190.744634 
L 150.174432 189.839984 
L 155.006061 188.935333 
L 159.837689 188.030683 
L 164.669318 187.126032 
L 169.500947 186.221381 
L 174.332576 185.316731 
L 179.164205 184.41208 
L 183.995833 183.50743 
L 188.827462 182.602779 
L 193.659091 181.698129 
L 198.49072 180.793478 
L 203.322348 179.888827 
L 208.153977 178.984177 
L 212.985606 178.079526 
L 217.817235 177.174876 
L 222.648864 176.270225 
L 227.480492 175.365575 
L 232.312121 174.460924 
L 237.14375 173.556274 
L 241.975379 172.651623 
L 246.807008 171.746972 
L 251.638636 170.842322 
L 256.470265 169.937671 
L 261.301894 169.033021 
L 266.133523 168.12837 
L 270.965152 167.22372 
L 275.79678 166.319069 
L 280.628409 165.414418 
L 285.460038 164.509768 
L 290.291667 163.605117 
L 295.123295 162.700467 
L 299.954924 161.795816 
L 304.786553 160.891166 
L 309.618182 159.986515 
L 314.449811 159.081865 
L 319.281439 158.177214 
L 324.113068 157.272563 
L 328.944697 156.367913 
L 333.776326 155.463262 
L 338.607955 154.558612 
L 343.439583 153.653961 
L 348.271212 152.749311 
L 353.102841 151.84466 
L 357.93447 150.94001 
L 362.766098 150.035359 
L 367.597727 149.130708 
L 372.429356 148.226058 
L 377.260985 147.321407 
L 382.092614 146.416757 
L 386.924242 145.512106 
L 391.755871 144.607456 
L 396.5875 143.702805 
L 401.419129 142.798154 
L 406.250758 141.893504 
L 411.082386 140.988853 
L 415.914015 140.084203 
L 420.745644 139.179552 
L 425.577273 138.274902 
L 430.408902 137.370251 
L 435.24053 136.465601 
L 440.072159 135.56095 
L 444.903788 134.656299 
L 449.735417 133.751649 
L 454.567045 132.846998 
L 459.398674 131.942348 
L 464.230303 131.037697 
L 469.061932 130.133047 
L 473.893561 129.228396 
L 478.725189 128.323746 
L 483.556818 127.419095 
L 488.388447 126.514444 
L 493.220076 125.609794 
L 498.051705 124.705143 
L 502.883333 123.800493 
L 507.714962 122.895842 
L 512.546591 121.991192 
L 517.37822 121.086541 
L 522.209848 120.18189 
L 527.041477 119.27724 
L 531.873106 118.372589 
L 536.704735 117.467939 
L 541.536364 116.563288 
L 546.367992 115.658638 
L 551.199621 114.753987 
L 556.03125 113.849337 
" style="fill:none;stroke:#4c72b0;stroke-linecap:round;stroke-width:3.4124999999999996;"/>
   </g>
   <g id="patch_3">
    <path d="M 77.7 303 
L 77.7 17.1 
" style="fill:none;stroke:#262626;stroke-linecap:square;stroke-linejoin:miter;stroke-width:1.25;"/>
   </g>
   <g id="patch_4">
    <path d="M 77.7 303 
L 556.03125 303 
" style="fill:none;stroke:#262626;stroke-linecap:square;stroke-linejoin:miter;stroke-width:1.25;"/>
   </g>
  </g>
 </g>
 <defs>
  <clipPath id="pa9a38172b1">
   <rect height="285.9" width="478.33125" x="77.7" y="17.1"/>
  </clipPath>
 </defs>
</svg>
