<?xml version="1.0" encoding="utf-8" standalone="no"?>
<!DOCTYPE svg PUBLIC "-//W3C//DTD SVG 1.1//EN"
  "http://www.w3.org/Graphics/SVG/1.1/DTD/svg11.dtd">
<!-- Created with matplotlib (http://matplotlib.org/) -->
<svg height="576pt" version="1.1" viewBox="0 0 720 576" width="720pt" xmlns="http://www.w3.org/2000/svg" xmlns:xlink="http://www.w3.org/1999/xlink">
 <defs>
  <style type="text/css">
*{stroke-linecap:butt;stroke-linejoin:round;stroke-miterlimit:100000;}
  </style>
 </defs>
 <g id="figure_1">
  <g id="patch_1">
   <path d="M 0 576 
L 720 576 
L 720 0 
L 0 0 
z
" style="fill:#ffffff;"/>
  </g>
  <g id="axes_1">
   <g id="patch_2">
    <path d="M 61.5355 247.126 
L 697.979891 247.126 
L 697.979891 23.148 
L 61.5355 23.148 
z
" style="fill:#ffffff;"/>
   </g>
   <g id="matplotlib.axis_1">
    <g id="xtick_1">
     <g id="line2d_1">
      <defs>
       <path d="M 0 0 
L 0 6 
" id="mf3e8c47d59" style="stroke:#262626;stroke-width:1.3;"/>
      </defs>
      <g>
       <use style="fill:#262626;stroke:#262626;stroke-width:1.3;" x="95.2098064156" xlink:href="#mf3e8c47d59" y="247.126"/>
      </g>
     </g>
     <g id="text_1">
      <!-- 2001 -->
      <defs>
       <path d="M 4.15625 35.296875 
Q 4.15625 48 6.765625 55.734375 
Q 9.375 63.484375 14.515625 67.671875 
Q 19.671875 71.875 27.484375 71.875 
Q 33.25 71.875 37.59375 69.546875 
Q 41.9375 67.234375 44.765625 62.859375 
Q 47.609375 58.5 49.21875 52.21875 
Q 50.828125 45.953125 50.828125 35.296875 
Q 50.828125 22.703125 48.234375 14.96875 
Q 45.65625 7.234375 40.5 3 
Q 35.359375 -1.21875 27.484375 -1.21875 
Q 17.140625 -1.21875 11.234375 6.203125 
Q 4.15625 15.140625 4.15625 35.296875 
M 13.1875 35.296875 
Q 13.1875 17.671875 17.3125 11.828125 
Q 21.4375 6 27.484375 6 
Q 33.546875 6 37.671875 11.859375 
Q 41.796875 17.71875 41.796875 35.296875 
Q 41.796875 52.984375 37.671875 58.78125 
Q 33.546875 64.59375 27.390625 64.59375 
Q 21.34375 64.59375 17.71875 59.46875 
Q 13.1875 52.9375 13.1875 35.296875 
" id="ArialMT-30"/>
       <path d="M 37.25 0 
L 28.46875 0 
L 28.46875 56 
Q 25.296875 52.984375 20.140625 49.953125 
Q 14.984375 46.921875 10.890625 45.40625 
L 10.890625 53.90625 
Q 18.265625 57.375 23.78125 62.296875 
Q 29.296875 67.234375 31.59375 71.875 
L 37.25 71.875 
z
" id="ArialMT-31"/>
       <path d="M 50.34375 8.453125 
L 50.34375 0 
L 3.03125 0 
Q 2.9375 3.171875 4.046875 6.109375 
Q 5.859375 10.9375 9.828125 15.625 
Q 13.8125 20.3125 21.34375 26.46875 
Q 33.015625 36.03125 37.109375 41.625 
Q 41.21875 47.21875 41.21875 52.203125 
Q 41.21875 57.421875 37.46875 61 
Q 33.734375 64.59375 27.734375 64.59375 
Q 21.390625 64.59375 17.578125 60.78125 
Q 13.765625 56.984375 13.71875 50.25 
L 4.6875 51.171875 
Q 5.609375 61.28125 11.65625 66.578125 
Q 17.71875 71.875 27.9375 71.875 
Q 38.234375 71.875 44.234375 66.15625 
Q 50.25 60.453125 50.25 52 
Q 50.25 47.703125 48.484375 43.546875 
Q 46.734375 39.40625 42.65625 34.8125 
Q 38.578125 30.21875 29.109375 22.21875 
Q 21.1875 15.578125 18.9375 13.203125 
Q 16.703125 10.84375 15.234375 8.453125 
z
" id="ArialMT-32"/>
      </defs>
      <g style="fill:#262626;" transform="translate(80.7513689156 271.53115625)scale(0.13 -0.13)">
       <use xlink:href="#ArialMT-32"/>
       <use x="55.615234375" xlink:href="#ArialMT-30"/>
       <use x="111.23046875" xlink:href="#ArialMT-30"/>
       <use x="166.845703125" xlink:href="#ArialMT-31"/>
      </g>
     </g>
    </g>
    <g id="xtick_2">
     <g id="line2d_2">
      <g>
       <use style="fill:#262626;stroke:#262626;stroke-width:1.3;" x="176.028141813" xlink:href="#mf3e8c47d59" y="247.126"/>
      </g>
     </g>
     <g id="text_2">
      <!-- 2003 -->
      <defs>
       <path d="M 4.203125 18.890625 
L 12.984375 20.0625 
Q 14.5 12.59375 18.140625 9.296875 
Q 21.78125 6 27 6 
Q 33.203125 6 37.46875 10.296875 
Q 41.75 14.59375 41.75 20.953125 
Q 41.75 27 37.796875 30.921875 
Q 33.84375 34.859375 27.734375 34.859375 
Q 25.25 34.859375 21.53125 33.890625 
L 22.515625 41.609375 
Q 23.390625 41.5 23.921875 41.5 
Q 29.546875 41.5 34.03125 44.421875 
Q 38.53125 47.359375 38.53125 53.46875 
Q 38.53125 58.296875 35.25 61.46875 
Q 31.984375 64.65625 26.8125 64.65625 
Q 21.6875 64.65625 18.265625 61.421875 
Q 14.84375 58.203125 13.875 51.765625 
L 5.078125 53.328125 
Q 6.6875 62.15625 12.390625 67.015625 
Q 18.109375 71.875 26.609375 71.875 
Q 32.46875 71.875 37.390625 69.359375 
Q 42.328125 66.84375 44.9375 62.5 
Q 47.5625 58.15625 47.5625 53.265625 
Q 47.5625 48.640625 45.0625 44.828125 
Q 42.578125 41.015625 37.703125 38.765625 
Q 44.046875 37.3125 47.5625 32.6875 
Q 51.078125 28.078125 51.078125 21.140625 
Q 51.078125 11.765625 44.234375 5.25 
Q 37.40625 -1.265625 26.953125 -1.265625 
Q 17.53125 -1.265625 11.296875 4.34375 
Q 5.078125 9.96875 4.203125 18.890625 
" id="ArialMT-33"/>
      </defs>
      <g style="fill:#262626;" transform="translate(161.569704313 271.53115625)scale(0.13 -0.13)">
       <use xlink:href="#ArialMT-32"/>
       <use x="55.615234375" xlink:href="#ArialMT-30"/>
       <use x="111.23046875" xlink:href="#ArialMT-30"/>
       <use x="166.845703125" xlink:href="#ArialMT-33"/>
      </g>
     </g>
    </g>
    <g id="xtick_3">
     <g id="line2d_3">
      <g>
       <use style="fill:#262626;stroke:#262626;stroke-width:1.3;" x="256.84647721" xlink:href="#mf3e8c47d59" y="247.126"/>
      </g>
     </g>
     <g id="text_3">
      <!-- 2005 -->
      <defs>
       <path d="M 4.15625 18.75 
L 13.375 19.53125 
Q 14.40625 12.796875 18.140625 9.390625 
Q 21.875 6 27.15625 6 
Q 33.5 6 37.890625 10.78125 
Q 42.28125 15.578125 42.28125 23.484375 
Q 42.28125 31 38.0625 35.34375 
Q 33.84375 39.703125 27 39.703125 
Q 22.75 39.703125 19.328125 37.765625 
Q 15.921875 35.84375 13.96875 32.765625 
L 5.71875 33.84375 
L 12.640625 70.609375 
L 48.25 70.609375 
L 48.25 62.203125 
L 19.671875 62.203125 
L 15.828125 42.96875 
Q 22.265625 47.46875 29.34375 47.46875 
Q 38.71875 47.46875 45.15625 40.96875 
Q 51.609375 34.46875 51.609375 24.265625 
Q 51.609375 14.546875 45.953125 7.46875 
Q 39.0625 -1.21875 27.15625 -1.21875 
Q 17.390625 -1.21875 11.203125 4.25 
Q 5.03125 9.71875 4.15625 18.75 
" id="ArialMT-35"/>
      </defs>
      <g style="fill:#262626;" transform="translate(242.38803971 271.53115625)scale(0.13 -0.13)">
       <use xlink:href="#ArialMT-32"/>
       <use x="55.615234375" xlink:href="#ArialMT-30"/>
       <use x="111.23046875" xlink:href="#ArialMT-30"/>
       <use x="166.845703125" xlink:href="#ArialMT-35"/>
      </g>
     </g>
    </g>
    <g id="xtick_4">
     <g id="line2d_4">
      <g>
       <use style="fill:#262626;stroke:#262626;stroke-width:1.3;" x="337.664812608" xlink:href="#mf3e8c47d59" y="247.126"/>
      </g>
     </g>
     <g id="text_4">
      <!-- 2007 -->
      <defs>
       <path d="M 4.734375 62.203125 
L 4.734375 70.65625 
L 51.078125 70.65625 
L 51.078125 63.8125 
Q 44.234375 56.546875 37.515625 44.484375 
Q 30.8125 32.421875 27.15625 19.671875 
Q 24.515625 10.6875 23.78125 0 
L 14.75 0 
Q 14.890625 8.453125 18.0625 20.40625 
Q 21.234375 32.375 27.171875 43.484375 
Q 33.109375 54.59375 39.796875 62.203125 
z
" id="ArialMT-37"/>
      </defs>
      <g style="fill:#262626;" transform="translate(323.206375108 271.53115625)scale(0.13 -0.13)">
       <use xlink:href="#ArialMT-32"/>
       <use x="55.615234375" xlink:href="#ArialMT-30"/>
       <use x="111.23046875" xlink:href="#ArialMT-30"/>
       <use x="166.845703125" xlink:href="#ArialMT-37"/>
      </g>
     </g>
    </g>
    <g id="xtick_5">
     <g id="line2d_5">
      <g>
       <use style="fill:#262626;stroke:#262626;stroke-width:1.3;" x="418.483148005" xlink:href="#mf3e8c47d59" y="247.126"/>
      </g>
     </g>
     <g id="text_5">
      <!-- 2009 -->
      <defs>
       <path d="M 5.46875 16.546875 
L 13.921875 17.328125 
Q 14.984375 11.375 18.015625 8.6875 
Q 21.046875 6 25.78125 6 
Q 29.828125 6 32.875 7.859375 
Q 35.9375 9.71875 37.890625 12.8125 
Q 39.84375 15.921875 41.15625 21.1875 
Q 42.484375 26.46875 42.484375 31.9375 
Q 42.484375 32.515625 42.4375 33.6875 
Q 39.796875 29.5 35.234375 26.875 
Q 30.671875 24.265625 25.34375 24.265625 
Q 16.453125 24.265625 10.296875 30.703125 
Q 4.15625 37.15625 4.15625 47.703125 
Q 4.15625 58.59375 10.578125 65.234375 
Q 17 71.875 26.65625 71.875 
Q 33.640625 71.875 39.421875 68.109375 
Q 45.21875 64.359375 48.21875 57.390625 
Q 51.21875 50.4375 51.21875 37.25 
Q 51.21875 23.53125 48.234375 15.40625 
Q 45.265625 7.28125 39.375 3.03125 
Q 33.5 -1.21875 25.59375 -1.21875 
Q 17.1875 -1.21875 11.859375 3.4375 
Q 6.546875 8.109375 5.46875 16.546875 
M 41.453125 48.140625 
Q 41.453125 55.71875 37.421875 60.15625 
Q 33.40625 64.59375 27.734375 64.59375 
Q 21.875 64.59375 17.53125 59.8125 
Q 13.1875 55.03125 13.1875 47.40625 
Q 13.1875 40.578125 17.3125 36.296875 
Q 21.4375 32.03125 27.484375 32.03125 
Q 33.59375 32.03125 37.515625 36.296875 
Q 41.453125 40.578125 41.453125 48.140625 
" id="ArialMT-39"/>
      </defs>
      <g style="fill:#262626;" transform="translate(404.024710505 271.53115625)scale(0.13 -0.13)">
       <use xlink:href="#ArialMT-32"/>
       <use x="55.615234375" xlink:href="#ArialMT-30"/>
       <use x="111.23046875" xlink:href="#ArialMT-30"/>
       <use x="166.845703125" xlink:href="#ArialMT-39"/>
      </g>
     </g>
    </g>
    <g id="xtick_6">
     <g id="line2d_6">
      <g>
       <use style="fill:#262626;stroke:#262626;stroke-width:1.3;" x="499.301483402" xlink:href="#mf3e8c47d59" y="247.126"/>
      </g>
     </g>
     <g id="text_6">
      <!-- 2011 -->
      <g style="fill:#262626;" transform="translate(484.850155277 271.53115625)scale(0.13 -0.13)">
       <use xlink:href="#ArialMT-32"/>
       <use x="55.615234375" xlink:href="#ArialMT-30"/>
       <use x="111.23046875" xlink:href="#ArialMT-31"/>
       <use x="166.736328125" xlink:href="#ArialMT-31"/>
      </g>
     </g>
    </g>
    <g id="xtick_7">
     <g id="line2d_7">
      <g>
       <use style="fill:#262626;stroke:#262626;stroke-width:1.3;" x="580.1198188" xlink:href="#mf3e8c47d59" y="247.126"/>
      </g>
     </g>
     <g id="text_7">
      <!-- 2013 -->
      <g style="fill:#262626;" transform="translate(565.6613813 271.53115625)scale(0.13 -0.13)">
       <use xlink:href="#ArialMT-32"/>
       <use x="55.615234375" xlink:href="#ArialMT-30"/>
       <use x="111.23046875" xlink:href="#ArialMT-31"/>
       <use x="166.845703125" xlink:href="#ArialMT-33"/>
      </g>
     </g>
    </g>
    <g id="xtick_8">
     <g id="line2d_8">
      <g>
       <use style="fill:#262626;stroke:#262626;stroke-width:1.3;" x="660.938154197" xlink:href="#mf3e8c47d59" y="247.126"/>
      </g>
     </g>
     <g id="text_8">
      <!-- 2015 -->
      <g style="fill:#262626;" transform="translate(646.479716697 271.53115625)scale(0.13 -0.13)">
       <use xlink:href="#ArialMT-32"/>
       <use x="55.615234375" xlink:href="#ArialMT-30"/>
       <use x="111.23046875" xlink:href="#ArialMT-31"/>
       <use x="166.845703125" xlink:href="#ArialMT-35"/>
      </g>
     </g>
    </g>
    <g id="xtick_9">
     <g id="line2d_9">
      <defs>
       <path d="M 0 0 
L 0 3 
" id="m21b7368f5e" style="stroke:#262626;stroke-width:0.65;"/>
      </defs>
      <g>
       <use style="fill:#262626;stroke:#262626;stroke-width:0.65;" x="95.2098064156" xlink:href="#m21b7368f5e" y="247.126"/>
      </g>
     </g>
    </g>
    <g id="xtick_10">
     <g id="line2d_10">
      <g>
       <use style="fill:#262626;stroke:#262626;stroke-width:0.65;" x="135.618974114" xlink:href="#m21b7368f5e" y="247.126"/>
      </g>
     </g>
    </g>
    <g id="xtick_11">
     <g id="line2d_11">
      <g>
       <use style="fill:#262626;stroke:#262626;stroke-width:0.65;" x="176.028141813" xlink:href="#m21b7368f5e" y="247.126"/>
      </g>
     </g>
    </g>
    <g id="xtick_12">
     <g id="line2d_12">
      <g>
       <use style="fill:#262626;stroke:#262626;stroke-width:0.65;" x="216.437309512" xlink:href="#m21b7368f5e" y="247.126"/>
      </g>
     </g>
    </g>
    <g id="xtick_13">
     <g id="line2d_13">
      <g>
       <use style="fill:#262626;stroke:#262626;stroke-width:0.65;" x="256.84647721" xlink:href="#m21b7368f5e" y="247.126"/>
      </g>
     </g>
    </g>
    <g id="xtick_14">
     <g id="line2d_14">
      <g>
       <use style="fill:#262626;stroke:#262626;stroke-width:0.65;" x="297.255644909" xlink:href="#m21b7368f5e" y="247.126"/>
      </g>
     </g>
    </g>
    <g id="xtick_15">
     <g id="line2d_15">
      <g>
       <use style="fill:#262626;stroke:#262626;stroke-width:0.65;" x="337.664812608" xlink:href="#m21b7368f5e" y="247.126"/>
      </g>
     </g>
    </g>
    <g id="xtick_16">
     <g id="line2d_16">
      <g>
       <use style="fill:#262626;stroke:#262626;stroke-width:0.65;" x="378.073980306" xlink:href="#m21b7368f5e" y="247.126"/>
      </g>
     </g>
    </g>
    <g id="xtick_17">
     <g id="line2d_17">
      <g>
       <use style="fill:#262626;stroke:#262626;stroke-width:0.65;" x="418.483148005" xlink:href="#m21b7368f5e" y="247.126"/>
      </g>
     </g>
    </g>
    <g id="xtick_18">
     <g id="line2d_18">
      <g>
       <use style="fill:#262626;stroke:#262626;stroke-width:0.65;" x="458.892315704" xlink:href="#m21b7368f5e" y="247.126"/>
      </g>
     </g>
    </g>
    <g id="xtick_19">
     <g id="line2d_19">
      <g>
       <use style="fill:#262626;stroke:#262626;stroke-width:0.65;" x="499.301483402" xlink:href="#m21b7368f5e" y="247.126"/>
      </g>
     </g>
    </g>
    <g id="xtick_20">
     <g id="line2d_20">
      <g>
       <use style="fill:#262626;stroke:#262626;stroke-width:0.65;" x="539.710651101" xlink:href="#m21b7368f5e" y="247.126"/>
      </g>
     </g>
    </g>
    <g id="xtick_21">
     <g id="line2d_21">
      <g>
       <use style="fill:#262626;stroke:#262626;stroke-width:0.65;" x="580.1198188" xlink:href="#m21b7368f5e" y="247.126"/>
      </g>
     </g>
    </g>
    <g id="xtick_22">
     <g id="line2d_22">
      <g>
       <use style="fill:#262626;stroke:#262626;stroke-width:0.65;" x="620.528986498" xlink:href="#m21b7368f5e" y="247.126"/>
      </g>
     </g>
    </g>
    <g id="xtick_23">
     <g id="line2d_23">
      <g>
       <use style="fill:#262626;stroke:#262626;stroke-width:0.65;" x="660.938154197" xlink:href="#m21b7368f5e" y="247.126"/>
      </g>
     </g>
    </g>
   </g>
   <g id="matplotlib.axis_2">
    <g id="ytick_1">
     <g id="line2d_24">
      <defs>
       <path d="M 0 0 
L -6 0 
" id="mbe846e2d7a" style="stroke:#262626;stroke-width:1.3;"/>
      </defs>
      <g>
       <use style="fill:#262626;stroke:#262626;stroke-width:1.3;" x="61.5355" xlink:href="#mbe846e2d7a" y="247.126"/>
      </g>
     </g>
     <g id="text_9">
      <!-- −300 -->
      <defs>
       <path d="M 52.828125 31.203125 
L 5.5625 31.203125 
L 5.5625 39.40625 
L 52.828125 39.40625 
z
" id="ArialMT-2212"/>
      </defs>
      <g style="fill:#262626;" transform="translate(17.15503125 250.486703125)scale(0.13 -0.13)">
       <use xlink:href="#ArialMT-2212"/>
       <use x="58.3984375" xlink:href="#ArialMT-33"/>
       <use x="114.013671875" xlink:href="#ArialMT-30"/>
       <use x="169.62890625" xlink:href="#ArialMT-30"/>
      </g>
     </g>
    </g>
    <g id="ytick_2">
     <g id="line2d_25">
      <g>
       <use style="fill:#262626;stroke:#262626;stroke-width:1.3;" x="61.5355" xlink:href="#mbe846e2d7a" y="219.12875"/>
      </g>
     </g>
     <g id="text_10">
      <!-- −200 -->
      <g style="fill:#262626;" transform="translate(17.15503125 222.489453125)scale(0.13 -0.13)">
       <use xlink:href="#ArialMT-2212"/>
       <use x="58.3984375" xlink:href="#ArialMT-32"/>
       <use x="114.013671875" xlink:href="#ArialMT-30"/>
       <use x="169.62890625" xlink:href="#ArialMT-30"/>
      </g>
     </g>
    </g>
    <g id="ytick_3">
     <g id="line2d_26">
      <g>
       <use style="fill:#262626;stroke:#262626;stroke-width:1.3;" x="61.5355" xlink:href="#mbe846e2d7a" y="191.1315"/>
      </g>
     </g>
     <g id="text_11">
      <!-- −100 -->
      <g style="fill:#262626;" transform="translate(17.15503125 194.492203125)scale(0.13 -0.13)">
       <use xlink:href="#ArialMT-2212"/>
       <use x="58.3984375" xlink:href="#ArialMT-31"/>
       <use x="114.013671875" xlink:href="#ArialMT-30"/>
       <use x="169.62890625" xlink:href="#ArialMT-30"/>
      </g>
     </g>
    </g>
    <g id="ytick_4">
     <g id="line2d_27">
      <g>
       <use style="fill:#262626;stroke:#262626;stroke-width:1.3;" x="61.5355" xlink:href="#mbe846e2d7a" y="163.13425"/>
      </g>
     </g>
     <g id="text_12">
      <!-- 0 -->
      <g style="fill:#262626;" transform="translate(39.20628125 166.494953125)scale(0.13 -0.13)">
       <use xlink:href="#ArialMT-30"/>
      </g>
     </g>
    </g>
    <g id="ytick_5">
     <g id="line2d_28">
      <g>
       <use style="fill:#262626;stroke:#262626;stroke-width:1.3;" x="61.5355" xlink:href="#mbe846e2d7a" y="135.137"/>
      </g>
     </g>
     <g id="text_13">
      <!-- 100 -->
      <g style="fill:#262626;" transform="translate(24.74784375 138.497703125)scale(0.13 -0.13)">
       <use xlink:href="#ArialMT-31"/>
       <use x="55.615234375" xlink:href="#ArialMT-30"/>
       <use x="111.23046875" xlink:href="#ArialMT-30"/>
      </g>
     </g>
    </g>
    <g id="ytick_6">
     <g id="line2d_29">
      <g>
       <use style="fill:#262626;stroke:#262626;stroke-width:1.3;" x="61.5355" xlink:href="#mbe846e2d7a" y="107.13975"/>
      </g>
     </g>
     <g id="text_14">
      <!-- 200 -->
      <g style="fill:#262626;" transform="translate(24.74784375 110.500453125)scale(0.13 -0.13)">
       <use xlink:href="#ArialMT-32"/>
       <use x="55.615234375" xlink:href="#ArialMT-30"/>
       <use x="111.23046875" xlink:href="#ArialMT-30"/>
      </g>
     </g>
    </g>
    <g id="ytick_7">
     <g id="line2d_30">
      <g>
       <use style="fill:#262626;stroke:#262626;stroke-width:1.3;" x="61.5355" xlink:href="#mbe846e2d7a" y="79.1425"/>
      </g>
     </g>
     <g id="text_15">
      <!-- 300 -->
      <g style="fill:#262626;" transform="translate(24.74784375 82.503203125)scale(0.13 -0.13)">
       <use xlink:href="#ArialMT-33"/>
       <use x="55.615234375" xlink:href="#ArialMT-30"/>
       <use x="111.23046875" xlink:href="#ArialMT-30"/>
      </g>
     </g>
    </g>
    <g id="ytick_8">
     <g id="line2d_31">
      <g>
       <use style="fill:#262626;stroke:#262626;stroke-width:1.3;" x="61.5355" xlink:href="#mbe846e2d7a" y="51.14525"/>
      </g>
     </g>
     <g id="text_16">
      <!-- 400 -->
      <defs>
       <path d="M 32.328125 0 
L 32.328125 17.140625 
L 1.265625 17.140625 
L 1.265625 25.203125 
L 33.9375 71.578125 
L 41.109375 71.578125 
L 41.109375 25.203125 
L 50.78125 25.203125 
L 50.78125 17.140625 
L 41.109375 17.140625 
L 41.109375 0 
z
M 32.328125 25.203125 
L 32.328125 57.46875 
L 9.90625 25.203125 
z
" id="ArialMT-34"/>
      </defs>
      <g style="fill:#262626;" transform="translate(24.74784375 54.505953125)scale(0.13 -0.13)">
       <use xlink:href="#ArialMT-34"/>
       <use x="55.615234375" xlink:href="#ArialMT-30"/>
       <use x="111.23046875" xlink:href="#ArialMT-30"/>
      </g>
     </g>
    </g>
    <g id="ytick_9">
     <g id="line2d_32">
      <g>
       <use style="fill:#262626;stroke:#262626;stroke-width:1.3;" x="61.5355" xlink:href="#mbe846e2d7a" y="23.148"/>
      </g>
     </g>
     <g id="text_17">
      <!-- 500 -->
      <g style="fill:#262626;" transform="translate(24.74784375 26.508703125)scale(0.13 -0.13)">
       <use xlink:href="#ArialMT-35"/>
       <use x="55.615234375" xlink:href="#ArialMT-30"/>
       <use x="111.23046875" xlink:href="#ArialMT-30"/>
      </g>
     </g>
    </g>
   </g>
   <g id="line2d_33">
    <path clip-path="url(#p645476067f)" d="M 61.5355 158.30218 
L 64.902931 166.46277 
L 68.270361 159.678666 
L 71.637792 158.80925 
L 75.005223 175.094002 
L 78.372653 155.742722 
L 81.740084 180.694407 
L 85.107514 152.807331 
L 88.474945 179.980555 
L 91.842376 169.328396 
L 95.209806 65.533656 
L 98.577237 174.279484 
L 101.944668 162.789598 
L 105.312098 158.29458 
L 108.679529 160.541195 
L 112.04696 154.350176 
L 115.41439 158.027108 
L 118.781821 153.933814 
L 122.149252 205.146059 
L 125.516682 223.779934 
L 128.884113 177.10967 
L 132.251543 160.07003 
L 135.618974 149.169202 
L 138.986405 158.858118 
L 142.353835 157.419744 
L 145.721266 140.367347 
L 149.088697 161.895456 
L 152.456127 131.581631 
L 155.823558 159.618596 
L 159.190989 161.0489 
L 162.558419 184.947568 
L 165.92585 148.804032 
L 169.293281 206.89252 
L 172.660711 164.791948 
L 176.028142 35.244342 
L 179.395572 180.871221 
L 182.763003 162.849212 
L 186.130434 176.920131 
L 189.497864 172.256416 
L 192.865295 135.325339 
L 196.232726 163.21698 
L 199.600156 169.017179 
L 202.967587 168.034551 
L 206.335018 153.170053 
L 209.702448 146.692355 
L 213.069879 157.094772 
L 216.43731 160.938811 
L 219.80474 155.270959 
L 223.172171 160.774459 
L 226.539601 164.339827 
L 229.907032 171.616201 
L 233.274463 162.704953 
L 236.641893 173.23414 
L 240.009324 148.918512 
L 243.376755 194.992654 
L 246.744185 166.328172 
L 250.111616 185.877003 
L 253.479047 164.54511 
L 256.846477 190.617433 
L 260.213908 158.07663 
L 263.581338 148.045771 
L 266.948769 162.524343 
L 270.3162 160.988643 
L 273.68363 154.407779 
L 277.051061 169.22716 
L 280.418492 152.760517 
L 283.785922 176.750798 
L 287.153353 149.190106 
L 290.520784 163.784818 
L 293.888214 167.866829 
L 297.255645 128.968833 
L 300.623076 159.01238 
L 303.990506 151.146868 
L 307.357937 165.800814 
L 310.725367 157.888512 
L 314.092798 153.322196 
L 317.460229 173.53397 
L 320.827659 151.593161 
L 324.19509 185.280189 
L 327.562521 150.254743 
L 330.929951 178.377501 
L 334.297382 165.969916 
L 337.664813 156.118437 
L 341.032243 159.847443 
L 344.399674 157.414814 
L 347.767105 162.161201 
L 351.134535 163.395845 
L 354.501966 158.851112 
L 357.869396 175.95713 
L 361.236827 152.448445 
L 364.604258 185.022474 
L 367.971688 147.415098 
L 371.339119 185.659862 
L 374.70655 181.083611 
L 378.07398 166.788368 
L 381.441411 162.982253 
L 384.808842 158.476976 
L 388.176272 144.656042 
L 391.543703 176.902137 
L 394.911134 149.732235 
L 398.278564 167.16344 
L 401.645995 180.501221 
L 405.013425 191.886297 
L 408.380856 164.387903 
L 411.748287 218.640226 
L 415.115717 155.548036 
L 418.483148 173.825625 
L 421.850579 151.749354 
L 425.218009 141.503624 
L 428.58544 164.156209 
L 431.952871 168.963794 
L 435.320301 136.356773 
L 438.687732 170.431252 
L 442.055162 167.632437 
L 445.422593 180.855394 
L 448.790024 163.201639 
L 452.157454 182.635617 
L 455.524885 161.785156 
L 458.892316 176.361251 
L 462.259746 148.257026 
L 465.627177 141.327734 
L 468.994608 166.010804 
L 472.362038 165.886257 
L 475.729469 136.391898 
L 479.0969 169.198686 
L 482.46433 161.893638 
L 485.831761 181.166852 
L 489.199191 162.186855 
L 492.566622 196.083064 
L 495.934053 173.037205 
L 499.301483 194.085525 
L 502.668914 122.315474 
L 506.036345 124.79965 
L 509.403775 161.364533 
L 512.771206 168.552264 
L 516.138637 131.312294 
L 519.506067 169.987514 
L 522.873498 169.861434 
L 526.240929 206.352359 
L 529.608359 158.53102 
L 532.97579 187.246015 
L 536.34322 170.281666 
L 539.710651 169.35876 
L 543.078082 149.999892 
L 546.445512 144.537865 
L 549.812943 142.89242 
L 553.180374 166.587291 
L 556.547804 134.706187 
L 559.915235 174.666669 
L 563.282666 161.103187 
L 566.650096 204.120414 
L 570.017527 144.728855 
L 573.384958 201.278505 
L 576.752388 190.191255 
L 580.119819 156.650935 
L 583.487249 146.531135 
L 586.85468 133.322584 
L 590.222111 135.68157 
L 593.589541 166.716349 
L 596.956972 133.541299 
L 600.324403 170.800358 
L 603.691833 173.563584 
L 607.059264 199.955634 
L 610.426695 149.255675 
L 613.794125 205.879472 
L 617.161556 188.067789 
L 620.528986 204.937254 
L 623.896417 146.658323 
L 627.263848 131.932282 
L 630.631278 142.126573 
L 633.998709 155.842647 
L 637.36614 130.029904 
L 640.73357 173.705136 
L 644.101001 173.15678 
L 647.468432 163.732766 
L 650.835862 148.94184 
L 654.203293 212.458675 
L 657.570724 173.991384 
L 660.938154 169.602407 
L 664.305585 150.365456 
L 667.673015 114.629899 
L 671.040446 155.061041 
L 674.407877 166.002921 
L 677.775307 121.955522 
L 681.142738 173.643828 
L 684.510169 172.494897 
L 687.877599 187.453759 
L 691.24503 150.258063 
L 694.612461 185.282668 
L 697.979891 185.860463 
L 697.979891 185.860463 
" style="fill:none;stroke:#4c72b0;stroke-linecap:round;stroke-width:2.275;"/>
   </g>
   <g id="patch_3">
    <path d="M 61.5355 247.126 
L 697.979891 247.126 
" style="fill:none;stroke:#262626;stroke-linecap:square;stroke-linejoin:miter;stroke-width:1.25;"/>
   </g>
   <g id="patch_4">
    <path d="M 61.5355 247.126 
L 61.5355 23.148 
" style="fill:none;stroke:#262626;stroke-linecap:square;stroke-linejoin:miter;stroke-width:1.25;"/>
   </g>
  </g>
  <g id="axes_2">
   <g id="patch_5">
    <path d="M 61.5355 531.452 
L 348.203891 531.452 
L 348.203891 307.474 
L 61.5355 307.474 
z
" style="fill:#ffffff;"/>
   </g>
   <g id="matplotlib.axis_3">
    <g id="xtick_24">
     <g id="line2d_34">
      <g>
       <use style="fill:#262626;stroke:#262626;stroke-width:1.3;" x="103.870494489" xlink:href="#mf3e8c47d59" y="531.452"/>
      </g>
     </g>
     <g id="text_18">
      <!-- 5 -->
      <g style="fill:#262626;" transform="translate(100.255885114 555.85715625)scale(0.13 -0.13)">
       <use xlink:href="#ArialMT-35"/>
      </g>
     </g>
    </g>
    <g id="xtick_25">
     <g id="line2d_35">
      <g>
       <use style="fill:#262626;stroke:#262626;stroke-width:1.3;" x="164.349058045" xlink:href="#mf3e8c47d59" y="531.452"/>
      </g>
     </g>
     <g id="text_19">
      <!-- 10 -->
      <g style="fill:#262626;" transform="translate(157.119839295 555.85715625)scale(0.13 -0.13)">
       <use xlink:href="#ArialMT-31"/>
       <use x="55.615234375" xlink:href="#ArialMT-30"/>
      </g>
     </g>
    </g>
    <g id="xtick_26">
     <g id="line2d_36">
      <g>
       <use style="fill:#262626;stroke:#262626;stroke-width:1.3;" x="224.827621601" xlink:href="#mf3e8c47d59" y="531.452"/>
      </g>
     </g>
     <g id="text_20">
      <!-- 15 -->
      <g style="fill:#262626;" transform="translate(217.598402851 555.85715625)scale(0.13 -0.13)">
       <use xlink:href="#ArialMT-31"/>
       <use x="55.615234375" xlink:href="#ArialMT-35"/>
      </g>
     </g>
    </g>
    <g id="xtick_27">
     <g id="line2d_37">
      <g>
       <use style="fill:#262626;stroke:#262626;stroke-width:1.3;" x="285.306185156" xlink:href="#mf3e8c47d59" y="531.452"/>
      </g>
     </g>
     <g id="text_21">
      <!-- 20 -->
      <g style="fill:#262626;" transform="translate(278.076966406 555.85715625)scale(0.13 -0.13)">
       <use xlink:href="#ArialMT-32"/>
       <use x="55.615234375" xlink:href="#ArialMT-30"/>
      </g>
     </g>
    </g>
    <g id="xtick_28">
     <g id="line2d_38">
      <g>
       <use style="fill:#262626;stroke:#262626;stroke-width:1.3;" x="345.784748712" xlink:href="#mf3e8c47d59" y="531.452"/>
      </g>
     </g>
     <g id="text_22">
      <!-- 25 -->
      <g style="fill:#262626;" transform="translate(338.555529962 555.85715625)scale(0.13 -0.13)">
       <use xlink:href="#ArialMT-32"/>
       <use x="55.615234375" xlink:href="#ArialMT-35"/>
      </g>
     </g>
    </g>
   </g>
   <g id="matplotlib.axis_4">
    <g id="ytick_10">
     <g id="line2d_39">
      <g>
       <use style="fill:#262626;stroke:#262626;stroke-width:1.3;" x="61.5355" xlink:href="#mbe846e2d7a" y="520.062568521"/>
      </g>
     </g>
     <g id="text_23">
      <!-- −0.2 -->
      <defs>
       <path d="M 9.078125 0 
L 9.078125 10.015625 
L 19.09375 10.015625 
L 19.09375 0 
z
" id="ArialMT-2e"/>
      </defs>
      <g style="fill:#262626;" transform="translate(20.7726875 523.423271646)scale(0.13 -0.13)">
       <use xlink:href="#ArialMT-2212"/>
       <use x="58.3984375" xlink:href="#ArialMT-30"/>
       <use x="114.013671875" xlink:href="#ArialMT-2e"/>
       <use x="141.796875" xlink:href="#ArialMT-32"/>
      </g>
     </g>
    </g>
    <g id="ytick_11">
     <g id="line2d_40">
      <g>
       <use style="fill:#262626;stroke:#262626;stroke-width:1.3;" x="61.5355" xlink:href="#mbe846e2d7a" y="486.327943465"/>
      </g>
     </g>
     <g id="text_24">
      <!-- 0.0 -->
      <g style="fill:#262626;" transform="translate(28.3655 489.68864659)scale(0.13 -0.13)">
       <use xlink:href="#ArialMT-30"/>
       <use x="55.615234375" xlink:href="#ArialMT-2e"/>
       <use x="83.3984375" xlink:href="#ArialMT-30"/>
      </g>
     </g>
    </g>
    <g id="ytick_12">
     <g id="line2d_41">
      <g>
       <use style="fill:#262626;stroke:#262626;stroke-width:1.3;" x="61.5355" xlink:href="#mbe846e2d7a" y="452.593318408"/>
      </g>
     </g>
     <g id="text_25">
      <!-- 0.2 -->
      <g style="fill:#262626;" transform="translate(28.3655 455.954021533)scale(0.13 -0.13)">
       <use xlink:href="#ArialMT-30"/>
       <use x="55.615234375" xlink:href="#ArialMT-2e"/>
       <use x="83.3984375" xlink:href="#ArialMT-32"/>
      </g>
     </g>
    </g>
    <g id="ytick_13">
     <g id="line2d_42">
      <g>
       <use style="fill:#262626;stroke:#262626;stroke-width:1.3;" x="61.5355" xlink:href="#mbe846e2d7a" y="418.858693352"/>
      </g>
     </g>
     <g id="text_26">
      <!-- 0.4 -->
      <g style="fill:#262626;" transform="translate(28.3655 422.219396477)scale(0.13 -0.13)">
       <use xlink:href="#ArialMT-30"/>
       <use x="55.615234375" xlink:href="#ArialMT-2e"/>
       <use x="83.3984375" xlink:href="#ArialMT-34"/>
      </g>
     </g>
    </g>
    <g id="ytick_14">
     <g id="line2d_43">
      <g>
       <use style="fill:#262626;stroke:#262626;stroke-width:1.3;" x="61.5355" xlink:href="#mbe846e2d7a" y="385.124068295"/>
      </g>
     </g>
     <g id="text_27">
      <!-- 0.6 -->
      <defs>
       <path d="M 49.75 54.046875 
L 41.015625 53.375 
Q 39.84375 58.546875 37.703125 60.890625 
Q 34.125 64.65625 28.90625 64.65625 
Q 24.703125 64.65625 21.53125 62.3125 
Q 17.390625 59.28125 14.984375 53.46875 
Q 12.59375 47.65625 12.5 36.921875 
Q 15.671875 41.75 20.265625 44.09375 
Q 24.859375 46.4375 29.890625 46.4375 
Q 38.671875 46.4375 44.84375 39.96875 
Q 51.03125 33.5 51.03125 23.25 
Q 51.03125 16.5 48.125 10.71875 
Q 45.21875 4.9375 40.140625 1.859375 
Q 35.0625 -1.21875 28.609375 -1.21875 
Q 17.625 -1.21875 10.6875 6.859375 
Q 3.765625 14.9375 3.765625 33.5 
Q 3.765625 54.25 11.421875 63.671875 
Q 18.109375 71.875 29.4375 71.875 
Q 37.890625 71.875 43.28125 67.140625 
Q 48.6875 62.40625 49.75 54.046875 
M 13.875 23.1875 
Q 13.875 18.65625 15.796875 14.5 
Q 17.71875 10.359375 21.1875 8.171875 
Q 24.65625 6 28.46875 6 
Q 34.03125 6 38.03125 10.484375 
Q 42.046875 14.984375 42.046875 22.703125 
Q 42.046875 30.125 38.078125 34.390625 
Q 34.125 38.671875 28.125 38.671875 
Q 22.171875 38.671875 18.015625 34.390625 
Q 13.875 30.125 13.875 23.1875 
" id="ArialMT-36"/>
      </defs>
      <g style="fill:#262626;" transform="translate(28.3655 388.48477142)scale(0.13 -0.13)">
       <use xlink:href="#ArialMT-30"/>
       <use x="55.615234375" xlink:href="#ArialMT-2e"/>
       <use x="83.3984375" xlink:href="#ArialMT-36"/>
      </g>
     </g>
    </g>
    <g id="ytick_15">
     <g id="line2d_44">
      <g>
       <use style="fill:#262626;stroke:#262626;stroke-width:1.3;" x="61.5355" xlink:href="#mbe846e2d7a" y="351.389443238"/>
      </g>
     </g>
     <g id="text_28">
      <!-- 0.8 -->
      <defs>
       <path d="M 17.671875 38.8125 
Q 12.203125 40.828125 9.5625 44.53125 
Q 6.9375 48.25 6.9375 53.421875 
Q 6.9375 61.234375 12.546875 66.546875 
Q 18.171875 71.875 27.484375 71.875 
Q 36.859375 71.875 42.578125 66.421875 
Q 48.296875 60.984375 48.296875 53.171875 
Q 48.296875 48.1875 45.671875 44.5 
Q 43.0625 40.828125 37.75 38.8125 
Q 44.34375 36.671875 47.78125 31.875 
Q 51.21875 27.09375 51.21875 20.453125 
Q 51.21875 11.28125 44.71875 5.03125 
Q 38.234375 -1.21875 27.640625 -1.21875 
Q 17.046875 -1.21875 10.546875 5.046875 
Q 4.046875 11.328125 4.046875 20.703125 
Q 4.046875 27.6875 7.59375 32.390625 
Q 11.140625 37.109375 17.671875 38.8125 
M 15.921875 53.71875 
Q 15.921875 48.640625 19.1875 45.40625 
Q 22.46875 42.1875 27.6875 42.1875 
Q 32.765625 42.1875 36.015625 45.375 
Q 39.265625 48.578125 39.265625 53.21875 
Q 39.265625 58.0625 35.90625 61.359375 
Q 32.5625 64.65625 27.59375 64.65625 
Q 22.5625 64.65625 19.234375 61.421875 
Q 15.921875 58.203125 15.921875 53.71875 
M 13.09375 20.65625 
Q 13.09375 16.890625 14.875 13.375 
Q 16.65625 9.859375 20.171875 7.921875 
Q 23.6875 6 27.734375 6 
Q 34.03125 6 38.125 10.046875 
Q 42.234375 14.109375 42.234375 20.359375 
Q 42.234375 26.703125 38.015625 30.859375 
Q 33.796875 35.015625 27.4375 35.015625 
Q 21.234375 35.015625 17.15625 30.90625 
Q 13.09375 26.8125 13.09375 20.65625 
" id="ArialMT-38"/>
      </defs>
      <g style="fill:#262626;" transform="translate(28.3655 354.750146363)scale(0.13 -0.13)">
       <use xlink:href="#ArialMT-30"/>
       <use x="55.615234375" xlink:href="#ArialMT-2e"/>
       <use x="83.3984375" xlink:href="#ArialMT-38"/>
      </g>
     </g>
    </g>
    <g id="ytick_16">
     <g id="line2d_45">
      <g>
       <use style="fill:#262626;stroke:#262626;stroke-width:1.3;" x="61.5355" xlink:href="#mbe846e2d7a" y="317.654818182"/>
      </g>
     </g>
     <g id="text_29">
      <!-- 1.0 -->
      <g style="fill:#262626;" transform="translate(28.3655 321.015521307)scale(0.13 -0.13)">
       <use xlink:href="#ArialMT-31"/>
       <use x="55.615234375" xlink:href="#ArialMT-2e"/>
       <use x="83.3984375" xlink:href="#ArialMT-30"/>
      </g>
     </g>
    </g>
   </g>
   <g id="PolyCollection_1">
    <defs>
     <path d="M 43.391931 -89.672057 
L 43.391931 -89.672057 
L 55.487644 -65.688301 
L 67.583356 -65.684473 
L 79.679069 -65.571994 
L 91.774782 -65.524449 
L 103.870494 -65.431171 
L 115.966207 -64.882051 
L 128.06192 -64.2371 
L 140.157633 -63.28435 
L 152.253345 -63.24646 
L 164.349058 -62.883755 
L 176.444771 -62.550386 
L 188.540483 -62.5209 
L 200.636196 -58.830102 
L 212.731909 -58.807722 
L 224.827622 -58.447613 
L 236.923334 -58.064785 
L 249.019047 -58.01905 
L 261.11476 -57.754629 
L 273.210472 -57.36239 
L 285.306185 -56.895925 
L 297.401898 -56.887141 
L 309.497611 -56.672485 
L 321.593323 -56.648094 
L 333.689036 -56.643733 
L 333.689036 -122.70038 
L 333.689036 -122.70038 
L 321.593323 -122.696019 
L 309.497611 -122.671628 
L 297.401898 -122.456972 
L 285.306185 -122.448188 
L 273.210472 -121.981723 
L 261.11476 -121.589484 
L 249.019047 -121.325063 
L 236.923334 -121.279328 
L 224.827622 -120.8965 
L 212.731909 -120.536391 
L 200.636196 -120.514011 
L 188.540483 -116.823213 
L 176.444771 -116.793727 
L 164.349058 -116.460358 
L 152.253345 -116.097654 
L 140.157633 -116.059763 
L 128.06192 -115.107013 
L 115.966207 -114.462062 
L 103.870494 -113.912942 
L 91.774782 -113.819664 
L 79.679069 -113.772119 
L 67.583356 -113.65964 
L 55.487644 -113.655812 
L 43.391931 -89.672057 
z
" id="m886cf811d9" style="stroke:#000000;stroke-opacity:0.25;stroke-width:0.39;"/>
    </defs>
    <g clip-path="url(#pd79c6eaf2b)">
     <use style="fill:#4c72b0;fill-opacity:0.25;stroke:#000000;stroke-opacity:0.25;stroke-width:0.39;" x="0.0" xlink:href="#m886cf811d9" y="576.0"/>
    </g>
   </g>
   <g id="LineCollection_1">
    <path clip-path="url(#pd79c6eaf2b)" d="M 43.391931 486.327943 
L 43.391931 317.654818 
" style="fill:none;stroke:#000000;stroke-width:2.275;"/>
    <path clip-path="url(#pd79c6eaf2b)" d="M 55.487644 486.327943 
L 55.487644 488.459178 
" style="fill:none;stroke:#000000;stroke-width:2.275;"/>
    <path clip-path="url(#pd79c6eaf2b)" d="M 67.583356 486.327943 
L 67.583356 474.762435 
" style="fill:none;stroke:#000000;stroke-width:2.275;"/>
    <path clip-path="url(#pd79c6eaf2b)" d="M 79.679069 486.327943 
L 79.679069 493.859875 
" style="fill:none;stroke:#000000;stroke-width:2.275;"/>
    <path clip-path="url(#pd79c6eaf2b)" d="M 91.774782 486.327943 
L 91.774782 496.893072 
" style="fill:none;stroke:#000000;stroke-width:2.275;"/>
    <path clip-path="url(#pd79c6eaf2b)" d="M 103.870494 486.327943 
L 103.870494 512.131654 
" style="fill:none;stroke:#000000;stroke-width:2.275;"/>
    <path clip-path="url(#pd79c6eaf2b)" d="M 115.966207 486.327943 
L 115.966207 514.631226 
" style="fill:none;stroke:#000000;stroke-width:2.275;"/>
    <path clip-path="url(#pd79c6eaf2b)" d="M 128.06192 486.327943 
L 128.06192 521.271182 
" style="fill:none;stroke:#000000;stroke-width:2.275;"/>
    <path clip-path="url(#pd79c6eaf2b)" d="M 140.157633 486.327943 
L 140.157633 493.362697 
" style="fill:none;stroke:#000000;stroke-width:2.275;"/>
    <path clip-path="url(#pd79c6eaf2b)" d="M 152.253345 486.327943 
L 152.253345 508.175495 
" style="fill:none;stroke:#000000;stroke-width:2.275;"/>
    <path clip-path="url(#pd79c6eaf2b)" d="M 164.349058 486.327943 
L 164.349058 465.24599 
" style="fill:none;stroke:#000000;stroke-width:2.275;"/>
    <path clip-path="url(#pd79c6eaf2b)" d="M 176.444771 486.327943 
L 176.444771 480.037083 
" style="fill:none;stroke:#000000;stroke-width:2.275;"/>
    <path clip-path="url(#pd79c6eaf2b)" d="M 188.540483 486.327943 
L 188.540483 413.573076 
" style="fill:none;stroke:#000000;stroke-width:2.275;"/>
    <path clip-path="url(#pd79c6eaf2b)" d="M 200.636196 486.327943 
L 200.636196 480.483908 
" style="fill:none;stroke:#000000;stroke-width:2.275;"/>
    <path clip-path="url(#pd79c6eaf2b)" d="M 212.731909 486.327943 
L 212.731909 462.813371 
" style="fill:none;stroke:#000000;stroke-width:2.275;"/>
    <path clip-path="url(#pd79c6eaf2b)" d="M 224.827622 486.327943 
L 224.827622 510.717575 
" style="fill:none;stroke:#000000;stroke-width:2.275;"/>
    <path clip-path="url(#pd79c6eaf2b)" d="M 236.923334 486.327943 
L 236.923334 494.786644 
" style="fill:none;stroke:#000000;stroke-width:2.275;"/>
    <path clip-path="url(#pd79c6eaf2b)" d="M 249.019047 486.327943 
L 249.019047 506.716636 
" style="fill:none;stroke:#000000;stroke-width:2.275;"/>
    <path clip-path="url(#pd79c6eaf2b)" d="M 261.11476 486.327943 
L 261.11476 511.288128 
" style="fill:none;stroke:#000000;stroke-width:2.275;"/>
    <path clip-path="url(#pd79c6eaf2b)" d="M 273.210472 486.327943 
L 273.210472 513.728951 
" style="fill:none;stroke:#000000;stroke-width:2.275;"/>
    <path clip-path="url(#pd79c6eaf2b)" d="M 285.306185 486.327943 
L 285.306185 490.101697 
" style="fill:none;stroke:#000000;stroke-width:2.275;"/>
    <path clip-path="url(#pd79c6eaf2b)" d="M 297.401898 486.327943 
L 297.401898 505.015288 
" style="fill:none;stroke:#000000;stroke-width:2.275;"/>
    <path clip-path="url(#pd79c6eaf2b)" d="M 309.497611 486.327943 
L 309.497611 480.017291 
" style="fill:none;stroke:#000000;stroke-width:2.275;"/>
    <path clip-path="url(#pd79c6eaf2b)" d="M 321.593323 486.327943 
L 321.593323 483.658789 
" style="fill:none;stroke:#000000;stroke-width:2.275;"/>
    <path clip-path="url(#pd79c6eaf2b)" d="M 333.689036 486.327943 
L 333.689036 407.682956 
" style="fill:none;stroke:#000000;stroke-width:2.275;"/>
   </g>
   <g id="line2d_46">
    <path clip-path="url(#pd79c6eaf2b)" d="M 61.5355 486.327943 
L 348.203891 486.327943 
" style="fill:none;stroke:#0000ff;stroke-linecap:round;stroke-width:2.275;"/>
   </g>
   <g id="line2d_47">
    <defs>
     <path d="M 0 2.5 
C 0.663008 2.5 1.29895 2.236584 1.767767 1.767767 
C 2.236584 1.29895 2.5 0.663008 2.5 0 
C 2.5 -0.663008 2.236584 -1.29895 1.767767 -1.767767 
C 1.29895 -2.236584 0.663008 -2.5 0 -2.5 
C -0.663008 -2.5 -1.29895 -2.236584 -1.767767 -1.767767 
C -2.236584 -1.29895 -2.5 -0.663008 -2.5 0 
C -2.5 0.663008 -2.236584 1.29895 -1.767767 1.767767 
C -1.29895 2.236584 -0.663008 2.5 0 2.5 
z
" id="m94b7fe59aa"/>
    </defs>
    <g clip-path="url(#pd79c6eaf2b)">
     <use style="fill:#4c72b0;" x="43.3919309333" xlink:href="#m94b7fe59aa" y="317.654818182"/>
     <use style="fill:#4c72b0;" x="55.4876436444" xlink:href="#m94b7fe59aa" y="488.459177685"/>
     <use style="fill:#4c72b0;" x="67.5833563556" xlink:href="#m94b7fe59aa" y="474.762434919"/>
     <use style="fill:#4c72b0;" x="79.6790690667" xlink:href="#m94b7fe59aa" y="493.8598747"/>
     <use style="fill:#4c72b0;" x="91.7747817779" xlink:href="#m94b7fe59aa" y="496.89307211"/>
     <use style="fill:#4c72b0;" x="103.870494489" xlink:href="#m94b7fe59aa" y="512.131653899"/>
     <use style="fill:#4c72b0;" x="115.9662072" xlink:href="#m94b7fe59aa" y="514.631225903"/>
     <use style="fill:#4c72b0;" x="128.061919911" xlink:href="#m94b7fe59aa" y="521.271181818"/>
     <use style="fill:#4c72b0;" x="140.157632622" xlink:href="#m94b7fe59aa" y="493.362697134"/>
     <use style="fill:#4c72b0;" x="152.253345334" xlink:href="#m94b7fe59aa" y="508.17549486"/>
     <use style="fill:#4c72b0;" x="164.349058045" xlink:href="#m94b7fe59aa" y="465.245990124"/>
     <use style="fill:#4c72b0;" x="176.444770756" xlink:href="#m94b7fe59aa" y="480.037082734"/>
     <use style="fill:#4c72b0;" x="188.540483467" xlink:href="#m94b7fe59aa" y="413.573075755"/>
     <use style="fill:#4c72b0;" x="200.636196178" xlink:href="#m94b7fe59aa" y="480.483908036"/>
     <use style="fill:#4c72b0;" x="212.731908889" xlink:href="#m94b7fe59aa" y="462.813370615"/>
     <use style="fill:#4c72b0;" x="224.827621601" xlink:href="#m94b7fe59aa" y="510.717575408"/>
     <use style="fill:#4c72b0;" x="236.923334312" xlink:href="#m94b7fe59aa" y="494.786643535"/>
     <use style="fill:#4c72b0;" x="249.019047023" xlink:href="#m94b7fe59aa" y="506.716636015"/>
     <use style="fill:#4c72b0;" x="261.114759734" xlink:href="#m94b7fe59aa" y="511.288128123"/>
     <use style="fill:#4c72b0;" x="273.210472445" xlink:href="#m94b7fe59aa" y="513.728950712"/>
     <use style="fill:#4c72b0;" x="285.306185156" xlink:href="#m94b7fe59aa" y="490.101697203"/>
     <use style="fill:#4c72b0;" x="297.401897867" xlink:href="#m94b7fe59aa" y="505.015287723"/>
     <use style="fill:#4c72b0;" x="309.497610579" xlink:href="#m94b7fe59aa" y="480.017291011"/>
     <use style="fill:#4c72b0;" x="321.59332329" xlink:href="#m94b7fe59aa" y="483.65878861"/>
     <use style="fill:#4c72b0;" x="333.689036001" xlink:href="#m94b7fe59aa" y="407.682955648"/>
    </g>
   </g>
   <g id="patch_6">
    <path d="M 61.5355 531.452 
L 348.203891 531.452 
" style="fill:none;stroke:#262626;stroke-linecap:square;stroke-linejoin:miter;stroke-width:1.25;"/>
   </g>
   <g id="patch_7">
    <path d="M 61.5355 531.452 
L 61.5355 307.474 
" style="fill:none;stroke:#262626;stroke-linecap:square;stroke-linejoin:miter;stroke-width:1.25;"/>
   </g>
   <g id="text_30">
    <!-- Autocorrelation -->
    <defs>
     <path d="M 6.390625 0 
L 6.390625 71.578125 
L 15.1875 71.578125 
L 15.1875 0 
z
" id="ArialMT-6c"/>
     <path d="M 40.578125 0 
L 40.578125 7.625 
Q 34.515625 -1.171875 24.125 -1.171875 
Q 19.53125 -1.171875 15.546875 0.578125 
Q 11.578125 2.34375 9.640625 5 
Q 7.71875 7.671875 6.9375 11.53125 
Q 6.390625 14.109375 6.390625 19.734375 
L 6.390625 51.859375 
L 15.1875 51.859375 
L 15.1875 23.09375 
Q 15.1875 16.21875 15.71875 13.8125 
Q 16.546875 10.359375 19.234375 8.375 
Q 21.921875 6.390625 25.875 6.390625 
Q 29.828125 6.390625 33.296875 8.421875 
Q 36.765625 10.453125 38.203125 13.9375 
Q 39.65625 17.4375 39.65625 24.078125 
L 39.65625 51.859375 
L 48.4375 51.859375 
L 48.4375 0 
z
" id="ArialMT-75"/>
     <path d="M 6.640625 61.46875 
L 6.640625 71.578125 
L 15.4375 71.578125 
L 15.4375 61.46875 
z
M 6.640625 0 
L 6.640625 51.859375 
L 15.4375 51.859375 
L 15.4375 0 
z
" id="ArialMT-69"/>
     <path d="M 25.78125 7.859375 
L 27.046875 0.09375 
Q 23.34375 -0.6875 20.40625 -0.6875 
Q 15.625 -0.6875 12.984375 0.828125 
Q 10.359375 2.34375 9.28125 4.8125 
Q 8.203125 7.28125 8.203125 15.1875 
L 8.203125 45.015625 
L 1.765625 45.015625 
L 1.765625 51.859375 
L 8.203125 51.859375 
L 8.203125 64.703125 
L 16.9375 69.96875 
L 16.9375 51.859375 
L 25.78125 51.859375 
L 25.78125 45.015625 
L 16.9375 45.015625 
L 16.9375 14.703125 
Q 16.9375 10.9375 17.40625 9.859375 
Q 17.875 8.796875 18.921875 8.15625 
Q 19.96875 7.515625 21.921875 7.515625 
Q 23.390625 7.515625 25.78125 7.859375 
" id="ArialMT-74"/>
     <path d="M 3.328125 25.921875 
Q 3.328125 40.328125 11.328125 47.265625 
Q 18.015625 53.03125 27.640625 53.03125 
Q 38.328125 53.03125 45.109375 46.015625 
Q 51.90625 39.015625 51.90625 26.65625 
Q 51.90625 16.65625 48.90625 10.90625 
Q 45.90625 5.171875 40.15625 2 
Q 34.421875 -1.171875 27.640625 -1.171875 
Q 16.75 -1.171875 10.03125 5.8125 
Q 3.328125 12.796875 3.328125 25.921875 
M 12.359375 25.921875 
Q 12.359375 15.96875 16.703125 11.015625 
Q 21.046875 6.0625 27.640625 6.0625 
Q 34.1875 6.0625 38.53125 11.03125 
Q 42.875 16.015625 42.875 26.21875 
Q 42.875 35.84375 38.5 40.796875 
Q 34.125 45.75 27.640625 45.75 
Q 21.046875 45.75 16.703125 40.8125 
Q 12.359375 35.890625 12.359375 25.921875 
" id="ArialMT-6f"/>
     <path d="M 40.4375 19 
L 49.078125 17.875 
Q 47.65625 8.9375 41.8125 3.875 
Q 35.984375 -1.171875 27.484375 -1.171875 
Q 16.84375 -1.171875 10.375 5.78125 
Q 3.90625 12.75 3.90625 25.734375 
Q 3.90625 34.125 6.6875 40.421875 
Q 9.46875 46.734375 15.15625 49.875 
Q 20.84375 53.03125 27.546875 53.03125 
Q 35.984375 53.03125 41.359375 48.75 
Q 46.734375 44.484375 48.25 36.625 
L 39.703125 35.296875 
Q 38.484375 40.53125 35.375 43.15625 
Q 32.28125 45.796875 27.875 45.796875 
Q 21.234375 45.796875 17.078125 41.03125 
Q 12.9375 36.28125 12.9375 25.984375 
Q 12.9375 15.53125 16.9375 10.796875 
Q 20.953125 6.0625 27.390625 6.0625 
Q 32.5625 6.0625 36.03125 9.234375 
Q 39.5 12.40625 40.4375 19 
" id="ArialMT-63"/>
     <path d="M 6.59375 0 
L 6.59375 51.859375 
L 14.5 51.859375 
L 14.5 44.484375 
Q 20.21875 53.03125 31 53.03125 
Q 35.6875 53.03125 39.625 51.34375 
Q 43.5625 49.65625 45.515625 46.921875 
Q 47.46875 44.1875 48.25 40.4375 
Q 48.734375 37.984375 48.734375 31.890625 
L 48.734375 0 
L 39.9375 0 
L 39.9375 31.546875 
Q 39.9375 36.921875 38.90625 39.578125 
Q 37.890625 42.234375 35.28125 43.8125 
Q 32.671875 45.40625 29.15625 45.40625 
Q 23.53125 45.40625 19.453125 41.84375 
Q 15.375 38.28125 15.375 28.328125 
L 15.375 0 
z
" id="ArialMT-6e"/>
     <path d="M 40.4375 6.390625 
Q 35.546875 2.25 31.03125 0.53125 
Q 26.515625 -1.171875 21.34375 -1.171875 
Q 12.796875 -1.171875 8.203125 3 
Q 3.609375 7.171875 3.609375 13.671875 
Q 3.609375 17.484375 5.34375 20.625 
Q 7.078125 23.78125 9.890625 25.6875 
Q 12.703125 27.59375 16.21875 28.5625 
Q 18.796875 29.25 24.03125 29.890625 
Q 34.671875 31.15625 39.703125 32.90625 
Q 39.75 34.71875 39.75 35.203125 
Q 39.75 40.578125 37.25 42.78125 
Q 33.890625 45.75 27.25 45.75 
Q 21.046875 45.75 18.09375 43.578125 
Q 15.140625 41.40625 13.71875 35.890625 
L 5.125 37.0625 
Q 6.296875 42.578125 8.984375 45.96875 
Q 11.671875 49.359375 16.75 51.1875 
Q 21.828125 53.03125 28.515625 53.03125 
Q 35.15625 53.03125 39.296875 51.46875 
Q 43.453125 49.90625 45.40625 47.53125 
Q 47.359375 45.171875 48.140625 41.546875 
Q 48.578125 39.3125 48.578125 33.453125 
L 48.578125 21.734375 
Q 48.578125 9.46875 49.140625 6.21875 
Q 49.703125 2.984375 51.375 0 
L 42.1875 0 
Q 40.828125 2.734375 40.4375 6.390625 
M 39.703125 26.03125 
Q 34.90625 24.078125 25.34375 22.703125 
Q 19.921875 21.921875 17.671875 20.9375 
Q 15.4375 19.96875 14.203125 18.09375 
Q 12.984375 16.21875 12.984375 13.921875 
Q 12.984375 10.40625 15.640625 8.0625 
Q 18.3125 5.71875 23.4375 5.71875 
Q 28.515625 5.71875 32.46875 7.9375 
Q 36.421875 10.15625 38.28125 14.015625 
Q 39.703125 17 39.703125 22.796875 
z
" id="ArialMT-61"/>
     <path d="M -0.140625 0 
L 27.34375 71.578125 
L 37.546875 71.578125 
L 66.84375 0 
L 56.0625 0 
L 47.703125 21.6875 
L 17.78125 21.6875 
L 9.90625 0 
z
M 20.515625 29.390625 
L 44.78125 29.390625 
L 37.3125 49.21875 
Q 33.890625 58.25 32.234375 64.0625 
Q 30.859375 57.171875 28.375 50.390625 
z
" id="ArialMT-41"/>
     <path d="M 42.09375 16.703125 
L 51.171875 15.578125 
Q 49.03125 7.625 43.21875 3.21875 
Q 37.40625 -1.171875 28.375 -1.171875 
Q 17 -1.171875 10.328125 5.828125 
Q 3.65625 12.84375 3.65625 25.484375 
Q 3.65625 38.578125 10.390625 45.796875 
Q 17.140625 53.03125 27.875 53.03125 
Q 38.28125 53.03125 44.875 45.953125 
Q 51.46875 38.875 51.46875 26.03125 
Q 51.46875 25.25 51.421875 23.6875 
L 12.75 23.6875 
Q 13.234375 15.140625 17.578125 10.59375 
Q 21.921875 6.0625 28.421875 6.0625 
Q 33.25 6.0625 36.671875 8.59375 
Q 40.09375 11.140625 42.09375 16.703125 
M 13.234375 30.90625 
L 42.1875 30.90625 
Q 41.609375 37.453125 38.875 40.71875 
Q 34.671875 45.796875 27.984375 45.796875 
Q 21.921875 45.796875 17.796875 41.75 
Q 13.671875 37.703125 13.234375 30.90625 
" id="ArialMT-65"/>
     <path d="M 6.5 0 
L 6.5 51.859375 
L 14.40625 51.859375 
L 14.40625 44 
Q 17.4375 49.515625 20 51.265625 
Q 22.5625 53.03125 25.640625 53.03125 
Q 30.078125 53.03125 34.671875 50.203125 
L 31.640625 42.046875 
Q 28.421875 43.953125 25.203125 43.953125 
Q 22.3125 43.953125 20.015625 42.21875 
Q 17.71875 40.484375 16.75 37.40625 
Q 15.28125 32.71875 15.28125 27.15625 
L 15.28125 0 
z
" id="ArialMT-72"/>
    </defs>
    <g style="fill:#262626;" transform="translate(152.409820627 302.474)scale(0.15600000000000003 -0.15600000000000003)">
     <use xlink:href="#ArialMT-41"/>
     <use x="66.69921875" xlink:href="#ArialMT-75"/>
     <use x="122.314453125" xlink:href="#ArialMT-74"/>
     <use x="150.09765625" xlink:href="#ArialMT-6f"/>
     <use x="205.712890625" xlink:href="#ArialMT-63"/>
     <use x="255.712890625" xlink:href="#ArialMT-6f"/>
     <use x="311.328125" xlink:href="#ArialMT-72"/>
     <use x="344.62890625" xlink:href="#ArialMT-72"/>
     <use x="377.9296875" xlink:href="#ArialMT-65"/>
     <use x="433.544921875" xlink:href="#ArialMT-6c"/>
     <use x="455.76171875" xlink:href="#ArialMT-61"/>
     <use x="511.376953125" xlink:href="#ArialMT-74"/>
     <use x="539.16015625" xlink:href="#ArialMT-69"/>
     <use x="561.376953125" xlink:href="#ArialMT-6f"/>
     <use x="616.9921875" xlink:href="#ArialMT-6e"/>
    </g>
   </g>
  </g>
  <g id="axes_3">
   <g id="patch_8">
    <path d="M 411.3115 531.452 
L 697.979891 531.452 
L 697.979891 307.474 
L 411.3115 307.474 
z
" style="fill:#ffffff;"/>
   </g>
   <g id="matplotlib.axis_5">
    <g id="xtick_29">
     <g id="line2d_48">
      <g>
       <use style="fill:#262626;stroke:#262626;stroke-width:1.3;" x="453.646494489" xlink:href="#mf3e8c47d59" y="531.452"/>
      </g>
     </g>
     <g id="text_31">
      <!-- 5 -->
      <g style="fill:#262626;" transform="translate(450.031885114 555.85715625)scale(0.13 -0.13)">
       <use xlink:href="#ArialMT-35"/>
      </g>
     </g>
    </g>
    <g id="xtick_30">
     <g id="line2d_49">
      <g>
       <use style="fill:#262626;stroke:#262626;stroke-width:1.3;" x="514.125058045" xlink:href="#mf3e8c47d59" y="531.452"/>
      </g>
     </g>
     <g id="text_32">
      <!-- 10 -->
      <g style="fill:#262626;" transform="translate(506.895839295 555.85715625)scale(0.13 -0.13)">
       <use xlink:href="#ArialMT-31"/>
       <use x="55.615234375" xlink:href="#ArialMT-30"/>
      </g>
     </g>
    </g>
    <g id="xtick_31">
     <g id="line2d_50">
      <g>
       <use style="fill:#262626;stroke:#262626;stroke-width:1.3;" x="574.603621601" xlink:href="#mf3e8c47d59" y="531.452"/>
      </g>
     </g>
     <g id="text_33">
      <!-- 15 -->
      <g style="fill:#262626;" transform="translate(567.374402851 555.85715625)scale(0.13 -0.13)">
       <use xlink:href="#ArialMT-31"/>
       <use x="55.615234375" xlink:href="#ArialMT-35"/>
      </g>
     </g>
    </g>
    <g id="xtick_32">
     <g id="line2d_51">
      <g>
       <use style="fill:#262626;stroke:#262626;stroke-width:1.3;" x="635.082185156" xlink:href="#mf3e8c47d59" y="531.452"/>
      </g>
     </g>
     <g id="text_34">
      <!-- 20 -->
      <g style="fill:#262626;" transform="translate(627.852966406 555.85715625)scale(0.13 -0.13)">
       <use xlink:href="#ArialMT-32"/>
       <use x="55.615234375" xlink:href="#ArialMT-30"/>
      </g>
     </g>
    </g>
    <g id="xtick_33">
     <g id="line2d_52">
      <g>
       <use style="fill:#262626;stroke:#262626;stroke-width:1.3;" x="695.560748712" xlink:href="#mf3e8c47d59" y="531.452"/>
      </g>
     </g>
     <g id="text_35">
      <!-- 25 -->
      <g style="fill:#262626;" transform="translate(688.331529962 555.85715625)scale(0.13 -0.13)">
       <use xlink:href="#ArialMT-32"/>
       <use x="55.615234375" xlink:href="#ArialMT-35"/>
      </g>
     </g>
    </g>
   </g>
   <g id="matplotlib.axis_6">
    <g id="ytick_17">
     <g id="line2d_53">
      <g>
       <use style="fill:#262626;stroke:#262626;stroke-width:1.3;" x="411.3115" xlink:href="#mbe846e2d7a" y="518.415420254"/>
      </g>
     </g>
     <g id="text_36">
      <!-- −0.2 -->
      <g style="fill:#262626;" transform="translate(370.5486875 521.776123379)scale(0.13 -0.13)">
       <use xlink:href="#ArialMT-2212"/>
       <use x="58.3984375" xlink:href="#ArialMT-30"/>
       <use x="114.013671875" xlink:href="#ArialMT-2e"/>
       <use x="141.796875" xlink:href="#ArialMT-32"/>
      </g>
     </g>
    </g>
    <g id="ytick_18">
     <g id="line2d_54">
      <g>
       <use style="fill:#262626;stroke:#262626;stroke-width:1.3;" x="411.3115" xlink:href="#mbe846e2d7a" y="484.955319908"/>
      </g>
     </g>
     <g id="text_37">
      <!-- 0.0 -->
      <g style="fill:#262626;" transform="translate(378.1415 488.316023033)scale(0.13 -0.13)">
       <use xlink:href="#ArialMT-30"/>
       <use x="55.615234375" xlink:href="#ArialMT-2e"/>
       <use x="83.3984375" xlink:href="#ArialMT-30"/>
      </g>
     </g>
    </g>
    <g id="ytick_19">
     <g id="line2d_55">
      <g>
       <use style="fill:#262626;stroke:#262626;stroke-width:1.3;" x="411.3115" xlink:href="#mbe846e2d7a" y="451.495219563"/>
      </g>
     </g>
     <g id="text_38">
      <!-- 0.2 -->
      <g style="fill:#262626;" transform="translate(378.1415 454.855922688)scale(0.13 -0.13)">
       <use xlink:href="#ArialMT-30"/>
       <use x="55.615234375" xlink:href="#ArialMT-2e"/>
       <use x="83.3984375" xlink:href="#ArialMT-32"/>
      </g>
     </g>
    </g>
    <g id="ytick_20">
     <g id="line2d_56">
      <g>
       <use style="fill:#262626;stroke:#262626;stroke-width:1.3;" x="411.3115" xlink:href="#mbe846e2d7a" y="418.035119218"/>
      </g>
     </g>
     <g id="text_39">
      <!-- 0.4 -->
      <g style="fill:#262626;" transform="translate(378.1415 421.395822343)scale(0.13 -0.13)">
       <use xlink:href="#ArialMT-30"/>
       <use x="55.615234375" xlink:href="#ArialMT-2e"/>
       <use x="83.3984375" xlink:href="#ArialMT-34"/>
      </g>
     </g>
    </g>
    <g id="ytick_21">
     <g id="line2d_57">
      <g>
       <use style="fill:#262626;stroke:#262626;stroke-width:1.3;" x="411.3115" xlink:href="#mbe846e2d7a" y="384.575018872"/>
      </g>
     </g>
     <g id="text_40">
      <!-- 0.6 -->
      <g style="fill:#262626;" transform="translate(378.1415 387.935721997)scale(0.13 -0.13)">
       <use xlink:href="#ArialMT-30"/>
       <use x="55.615234375" xlink:href="#ArialMT-2e"/>
       <use x="83.3984375" xlink:href="#ArialMT-36"/>
      </g>
     </g>
    </g>
    <g id="ytick_22">
     <g id="line2d_58">
      <g>
       <use style="fill:#262626;stroke:#262626;stroke-width:1.3;" x="411.3115" xlink:href="#mbe846e2d7a" y="351.114918527"/>
      </g>
     </g>
     <g id="text_41">
      <!-- 0.8 -->
      <g style="fill:#262626;" transform="translate(378.1415 354.475621652)scale(0.13 -0.13)">
       <use xlink:href="#ArialMT-30"/>
       <use x="55.615234375" xlink:href="#ArialMT-2e"/>
       <use x="83.3984375" xlink:href="#ArialMT-38"/>
      </g>
     </g>
    </g>
    <g id="ytick_23">
     <g id="line2d_59">
      <g>
       <use style="fill:#262626;stroke:#262626;stroke-width:1.3;" x="411.3115" xlink:href="#mbe846e2d7a" y="317.654818182"/>
      </g>
     </g>
     <g id="text_42">
      <!-- 1.0 -->
      <g style="fill:#262626;" transform="translate(378.1415 321.015521307)scale(0.13 -0.13)">
       <use xlink:href="#ArialMT-31"/>
       <use x="55.615234375" xlink:href="#ArialMT-2e"/>
       <use x="83.3984375" xlink:href="#ArialMT-30"/>
      </g>
     </g>
    </g>
   </g>
   <g id="PolyCollection_2">
    <defs>
     <path d="M 393.167931 -91.04468 
L 393.167931 -91.04468 
L 405.263644 -67.256099 
L 417.359356 -67.256099 
L 429.455069 -67.256099 
L 441.550782 -67.256099 
L 453.646494 -67.256099 
L 465.742207 -67.256099 
L 477.83792 -67.256099 
L 489.933633 -67.256099 
L 502.029345 -67.256099 
L 514.125058 -67.256099 
L 526.220771 -67.256099 
L 538.316483 -67.256099 
L 550.412196 -67.256099 
L 562.507909 -67.256099 
L 574.603622 -67.256099 
L 586.699334 -67.256099 
L 598.795047 -67.256099 
L 610.89076 -67.256099 
L 622.986472 -67.256099 
L 635.082185 -67.256099 
L 647.177898 -67.256099 
L 659.273611 -67.256099 
L 671.369323 -67.256099 
L 683.465036 -67.256099 
L 683.465036 -114.833261 
L 683.465036 -114.833261 
L 671.369323 -114.833261 
L 659.273611 -114.833261 
L 647.177898 -114.833261 
L 635.082185 -114.833261 
L 622.986472 -114.833261 
L 610.89076 -114.833261 
L 598.795047 -114.833261 
L 586.699334 -114.833261 
L 574.603622 -114.833261 
L 562.507909 -114.833261 
L 550.412196 -114.833261 
L 538.316483 -114.833261 
L 526.220771 -114.833261 
L 514.125058 -114.833261 
L 502.029345 -114.833261 
L 489.933633 -114.833261 
L 477.83792 -114.833261 
L 465.742207 -114.833261 
L 453.646494 -114.833261 
L 441.550782 -114.833261 
L 429.455069 -114.833261 
L 417.359356 -114.833261 
L 405.263644 -114.833261 
L 393.167931 -91.04468 
z
" id="m49b501f1dd" style="stroke:#000000;stroke-opacity:0.25;stroke-width:0.39;"/>
    </defs>
    <g clip-path="url(#pc7bf26bdf6)">
     <use style="fill:#4c72b0;fill-opacity:0.25;stroke:#000000;stroke-opacity:0.25;stroke-width:0.39;" x="0.0" xlink:href="#m49b501f1dd" y="576.0"/>
    </g>
   </g>
   <g id="LineCollection_2">
    <path clip-path="url(#pc7bf26bdf6)" d="M 393.167931 484.95532 
L 393.167931 317.654818 
" style="fill:none;stroke:#000000;stroke-width:2.275;"/>
    <path clip-path="url(#pc7bf26bdf6)" d="M 405.263644 484.95532 
L 405.263644 487.069211 
" style="fill:none;stroke:#000000;stroke-width:2.275;"/>
    <path clip-path="url(#pc7bf26bdf6)" d="M 417.359356 484.95532 
L 417.359356 473.508811 
" style="fill:none;stroke:#000000;stroke-width:2.275;"/>
    <path clip-path="url(#pc7bf26bdf6)" d="M 429.455069 484.95532 
L 429.455069 492.181274 
" style="fill:none;stroke:#000000;stroke-width:2.275;"/>
    <path clip-path="url(#pc7bf26bdf6)" d="M 441.550782 484.95532 
L 441.550782 496.447619 
" style="fill:none;stroke:#000000;stroke-width:2.275;"/>
    <path clip-path="url(#pc7bf26bdf6)" d="M 453.646494 484.95532 
L 453.646494 510.058897 
" style="fill:none;stroke:#000000;stroke-width:2.275;"/>
    <path clip-path="url(#pc7bf26bdf6)" d="M 465.742207 484.95532 
L 465.742207 513.621117 
" style="fill:none;stroke:#000000;stroke-width:2.275;"/>
    <path clip-path="url(#pc7bf26bdf6)" d="M 477.83792 484.95532 
L 477.83792 521.271182 
" style="fill:none;stroke:#000000;stroke-width:2.275;"/>
    <path clip-path="url(#pc7bf26bdf6)" d="M 489.933633 484.95532 
L 489.933633 497.044857 
" style="fill:none;stroke:#000000;stroke-width:2.275;"/>
    <path clip-path="url(#pc7bf26bdf6)" d="M 502.029345 484.95532 
L 502.029345 514.384717 
" style="fill:none;stroke:#000000;stroke-width:2.275;"/>
    <path clip-path="url(#pc7bf26bdf6)" d="M 514.125058 484.95532 
L 514.125058 478.9386 
" style="fill:none;stroke:#000000;stroke-width:2.275;"/>
    <path clip-path="url(#pc7bf26bdf6)" d="M 526.220771 484.95532 
L 526.220771 491.807524 
" style="fill:none;stroke:#000000;stroke-width:2.275;"/>
    <path clip-path="url(#pc7bf26bdf6)" d="M 538.316483 484.95532 
L 538.316483 424.963453 
" style="fill:none;stroke:#000000;stroke-width:2.275;"/>
    <path clip-path="url(#pc7bf26bdf6)" d="M 550.412196 484.95532 
L 550.412196 484.331149 
" style="fill:none;stroke:#000000;stroke-width:2.275;"/>
    <path clip-path="url(#pc7bf26bdf6)" d="M 562.507909 484.95532 
L 562.507909 469.380199 
" style="fill:none;stroke:#000000;stroke-width:2.275;"/>
    <path clip-path="url(#pc7bf26bdf6)" d="M 574.603622 484.95532 
L 574.603622 515.418963 
" style="fill:none;stroke:#000000;stroke-width:2.275;"/>
    <path clip-path="url(#pc7bf26bdf6)" d="M 586.699334 484.95532 
L 586.699334 493.637637 
" style="fill:none;stroke:#000000;stroke-width:2.275;"/>
    <path clip-path="url(#pc7bf26bdf6)" d="M 598.795047 484.95532 
L 598.795047 492.32306 
" style="fill:none;stroke:#000000;stroke-width:2.275;"/>
    <path clip-path="url(#pc7bf26bdf6)" d="M 610.89076 484.95532 
L 610.89076 493.718873 
" style="fill:none;stroke:#000000;stroke-width:2.275;"/>
    <path clip-path="url(#pc7bf26bdf6)" d="M 622.986472 484.95532 
L 622.986472 488.24768 
" style="fill:none;stroke:#000000;stroke-width:2.275;"/>
    <path clip-path="url(#pc7bf26bdf6)" d="M 635.082185 484.95532 
L 635.082185 485.707756 
" style="fill:none;stroke:#000000;stroke-width:2.275;"/>
    <path clip-path="url(#pc7bf26bdf6)" d="M 647.177898 484.95532 
L 647.177898 492.312079 
" style="fill:none;stroke:#000000;stroke-width:2.275;"/>
    <path clip-path="url(#pc7bf26bdf6)" d="M 659.273611 484.95532 
L 659.273611 509.472523 
" style="fill:none;stroke:#000000;stroke-width:2.275;"/>
    <path clip-path="url(#pc7bf26bdf6)" d="M 671.369323 484.95532 
L 671.369323 498.045869 
" style="fill:none;stroke:#000000;stroke-width:2.275;"/>
    <path clip-path="url(#pc7bf26bdf6)" d="M 683.465036 484.95532 
L 683.465036 441.38055 
" style="fill:none;stroke:#000000;stroke-width:2.275;"/>
   </g>
   <g id="line2d_60">
    <path clip-path="url(#pc7bf26bdf6)" d="M 411.3115 484.95532 
L 697.979891 484.95532 
" style="fill:none;stroke:#0000ff;stroke-linecap:round;stroke-width:2.275;"/>
   </g>
   <g id="line2d_61">
    <g clip-path="url(#pc7bf26bdf6)">
     <use style="fill:#4c72b0;" x="393.167930933" xlink:href="#m94b7fe59aa" y="317.654818182"/>
     <use style="fill:#4c72b0;" x="405.263643644" xlink:href="#m94b7fe59aa" y="487.069210629"/>
     <use style="fill:#4c72b0;" x="417.359356356" xlink:href="#m94b7fe59aa" y="473.508811027"/>
     <use style="fill:#4c72b0;" x="429.455069067" xlink:href="#m94b7fe59aa" y="492.181274497"/>
     <use style="fill:#4c72b0;" x="441.550781778" xlink:href="#m94b7fe59aa" y="496.447618597"/>
     <use style="fill:#4c72b0;" x="453.646494489" xlink:href="#m94b7fe59aa" y="510.058897211"/>
     <use style="fill:#4c72b0;" x="465.7422072" xlink:href="#m94b7fe59aa" y="513.621117096"/>
     <use style="fill:#4c72b0;" x="477.837919911" xlink:href="#m94b7fe59aa" y="521.271181818"/>
     <use style="fill:#4c72b0;" x="489.933632622" xlink:href="#m94b7fe59aa" y="497.044856741"/>
     <use style="fill:#4c72b0;" x="502.029345334" xlink:href="#m94b7fe59aa" y="514.384717063"/>
     <use style="fill:#4c72b0;" x="514.125058045" xlink:href="#m94b7fe59aa" y="478.938599604"/>
     <use style="fill:#4c72b0;" x="526.220770756" xlink:href="#m94b7fe59aa" y="491.807524486"/>
     <use style="fill:#4c72b0;" x="538.316483467" xlink:href="#m94b7fe59aa" y="424.963452695"/>
     <use style="fill:#4c72b0;" x="550.412196178" xlink:href="#m94b7fe59aa" y="484.331149202"/>
     <use style="fill:#4c72b0;" x="562.507908889" xlink:href="#m94b7fe59aa" y="469.380199302"/>
     <use style="fill:#4c72b0;" x="574.603621601" xlink:href="#m94b7fe59aa" y="515.41896275"/>
     <use style="fill:#4c72b0;" x="586.699334312" xlink:href="#m94b7fe59aa" y="493.637636561"/>
     <use style="fill:#4c72b0;" x="598.795047023" xlink:href="#m94b7fe59aa" y="492.323059694"/>
     <use style="fill:#4c72b0;" x="610.890759734" xlink:href="#m94b7fe59aa" y="493.718872836"/>
     <use style="fill:#4c72b0;" x="622.986472445" xlink:href="#m94b7fe59aa" y="488.247679762"/>
     <use style="fill:#4c72b0;" x="635.082185156" xlink:href="#m94b7fe59aa" y="485.707756072"/>
     <use style="fill:#4c72b0;" x="647.177897867" xlink:href="#m94b7fe59aa" y="492.312078538"/>
     <use style="fill:#4c72b0;" x="659.273610579" xlink:href="#m94b7fe59aa" y="509.472522526"/>
     <use style="fill:#4c72b0;" x="671.36932329" xlink:href="#m94b7fe59aa" y="498.045868954"/>
     <use style="fill:#4c72b0;" x="683.465036001" xlink:href="#m94b7fe59aa" y="441.38055031"/>
    </g>
   </g>
   <g id="patch_9">
    <path d="M 411.3115 531.452 
L 697.979891 531.452 
" style="fill:none;stroke:#262626;stroke-linecap:square;stroke-linejoin:miter;stroke-width:1.25;"/>
   </g>
   <g id="patch_10">
    <path d="M 411.3115 531.452 
L 411.3115 307.474 
" style="fill:none;stroke:#262626;stroke-linecap:square;stroke-linejoin:miter;stroke-width:1.25;"/>
   </g>
   <g id="text_43">
    <!-- Partial Autocorrelation -->
    <defs>
     <path id="ArialMT-20"/>
     <path d="M 7.71875 0 
L 7.71875 71.578125 
L 34.71875 71.578125 
Q 41.84375 71.578125 45.609375 70.90625 
Q 50.875 70.015625 54.4375 67.546875 
Q 58.015625 65.09375 60.1875 60.640625 
Q 62.359375 56.203125 62.359375 50.875 
Q 62.359375 41.75 56.546875 35.421875 
Q 50.734375 29.109375 35.546875 29.109375 
L 17.1875 29.109375 
L 17.1875 0 
z
M 17.1875 37.546875 
L 35.6875 37.546875 
Q 44.875 37.546875 48.734375 40.96875 
Q 52.59375 44.390625 52.59375 50.59375 
Q 52.59375 55.078125 50.3125 58.265625 
Q 48.046875 61.46875 44.34375 62.5 
Q 41.9375 63.140625 35.5 63.140625 
L 17.1875 63.140625 
z
" id="ArialMT-50"/>
    </defs>
    <g style="fill:#262626;" transform="translate(477.916851877 302.474)scale(0.15600000000000003 -0.15600000000000003)">
     <use xlink:href="#ArialMT-50"/>
     <use x="66.69921875" xlink:href="#ArialMT-61"/>
     <use x="122.314453125" xlink:href="#ArialMT-72"/>
     <use x="155.615234375" xlink:href="#ArialMT-74"/>
     <use x="183.3984375" xlink:href="#ArialMT-69"/>
     <use x="205.615234375" xlink:href="#ArialMT-61"/>
     <use x="261.23046875" xlink:href="#ArialMT-6c"/>
     <use x="283.447265625" xlink:href="#ArialMT-20"/>
     <use x="311.15234375" xlink:href="#ArialMT-41"/>
     <use x="377.8515625" xlink:href="#ArialMT-75"/>
     <use x="433.466796875" xlink:href="#ArialMT-74"/>
     <use x="461.25" xlink:href="#ArialMT-6f"/>
     <use x="516.865234375" xlink:href="#ArialMT-63"/>
     <use x="566.865234375" xlink:href="#ArialMT-6f"/>
     <use x="622.48046875" xlink:href="#ArialMT-72"/>
     <use x="655.78125" xlink:href="#ArialMT-72"/>
     <use x="689.08203125" xlink:href="#ArialMT-65"/>
     <use x="744.697265625" xlink:href="#ArialMT-6c"/>
     <use x="766.9140625" xlink:href="#ArialMT-61"/>
     <use x="822.529296875" xlink:href="#ArialMT-74"/>
     <use x="850.3125" xlink:href="#ArialMT-69"/>
     <use x="872.529296875" xlink:href="#ArialMT-6f"/>
     <use x="928.14453125" xlink:href="#ArialMT-6e"/>
    </g>
   </g>
  </g>
 </g>
 <defs>
  <clipPath id="p645476067f">
   <rect height="223.978" width="636.444391254" x="61.5355" y="23.148"/>
  </clipPath>
  <clipPath id="pc7bf26bdf6">
   <rect height="223.978" width="286.668391254" x="411.3115" y="307.474"/>
  </clipPath>
  <clipPath id="pd79c6eaf2b">
   <rect height="223.978" width="286.668391254" x="61.5355" y="307.474"/>
  </clipPath>
 </defs>
</svg>
