<?xml version="1.0" encoding="utf-8" standalone="no"?>
<!DOCTYPE svg PUBLIC "-//W3C//DTD SVG 1.1//EN"
  "http://www.w3.org/Graphics/SVG/1.1/DTD/svg11.dtd">
<!-- Created with matplotlib (http://matplotlib.org/) -->
<svg height="514pt" version="1.1" viewBox="0 0 748 514" width="748pt" xmlns="http://www.w3.org/2000/svg" xmlns:xlink="http://www.w3.org/1999/xlink">
 <defs>
  <style type="text/css">
*{stroke-linecap:butt;stroke-linejoin:round;stroke-miterlimit:100000;}
  </style>
 </defs>
 <g id="figure_1">
  <g id="patch_1">
   <path d="M 0 514.8 
L 748.8 514.8 
L 748.8 0 
L 0 0 
z
" style="fill:#ffffff;"/>
  </g>
  <g id="axes_1">
   <g id="patch_2">
    <path d="M 93.6 450.45 
L 673.92 450.45 
L 673.92 51.48 
L 93.6 51.48 
z
" style="fill:#ffffff;"/>
   </g>
   <g id="PolyCollection_1">
    <defs>
     <path d="M 673.92 -64.35 
L 567.578639 -64.35 
L 567.578639 -463.32 
L 673.92 -463.32 
L 673.92 -463.32 
L 673.92 -64.35 
z
" id="ma3e9722b4f" style="stroke:#000000;stroke-opacity:0.1;stroke-width:0.39;"/>
    </defs>
    <g clip-path="url(#p8c09f41dcb)">
     <use style="fill:#4c72b0;fill-opacity:0.1;stroke:#000000;stroke-opacity:0.1;stroke-width:0.39;" x="0.0" xlink:href="#ma3e9722b4f" y="514.8"/>
    </g>
   </g>
   <g id="matplotlib.axis_1">
    <g id="xtick_1">
     <g id="line2d_1">
      <defs>
       <path d="M 0 0 
L 0 6 
" id="mecbe8dca6c" style="stroke:#262626;stroke-width:1.3;"/>
      </defs>
      <g>
       <use style="fill:#262626;stroke:#262626;stroke-width:1.3;" x="130.059895288" xlink:href="#mecbe8dca6c" y="450.45"/>
      </g>
     </g>
     <g id="text_1">
      <!-- 2001 -->
      <defs>
       <path d="M 4.15625 35.296875 
Q 4.15625 48 6.765625 55.734375 
Q 9.375 63.484375 14.515625 67.671875 
Q 19.671875 71.875 27.484375 71.875 
Q 33.25 71.875 37.59375 69.546875 
Q 41.9375 67.234375 44.765625 62.859375 
Q 47.609375 58.5 49.21875 52.21875 
Q 50.828125 45.953125 50.828125 35.296875 
Q 50.828125 22.703125 48.234375 14.96875 
Q 45.65625 7.234375 40.5 3 
Q 35.359375 -1.21875 27.484375 -1.21875 
Q 17.140625 -1.21875 11.234375 6.203125 
Q 4.15625 15.140625 4.15625 35.296875 
M 13.1875 35.296875 
Q 13.1875 17.671875 17.3125 11.828125 
Q 21.4375 6 27.484375 6 
Q 33.546875 6 37.671875 11.859375 
Q 41.796875 17.71875 41.796875 35.296875 
Q 41.796875 52.984375 37.671875 58.78125 
Q 33.546875 64.59375 27.390625 64.59375 
Q 21.34375 64.59375 17.71875 59.46875 
Q 13.1875 52.9375 13.1875 35.296875 
" id="ArialMT-30"/>
       <path d="M 37.25 0 
L 28.46875 0 
L 28.46875 56 
Q 25.296875 52.984375 20.140625 49.953125 
Q 14.984375 46.921875 10.890625 45.40625 
L 10.890625 53.90625 
Q 18.265625 57.375 23.78125 62.296875 
Q 29.296875 67.234375 31.59375 71.875 
L 37.25 71.875 
z
" id="ArialMT-31"/>
       <path d="M 50.34375 8.453125 
L 50.34375 0 
L 3.03125 0 
Q 2.9375 3.171875 4.046875 6.109375 
Q 5.859375 10.9375 9.828125 15.625 
Q 13.8125 20.3125 21.34375 26.46875 
Q 33.015625 36.03125 37.109375 41.625 
Q 41.21875 47.21875 41.21875 52.203125 
Q 41.21875 57.421875 37.46875 61 
Q 33.734375 64.59375 27.734375 64.59375 
Q 21.390625 64.59375 17.578125 60.78125 
Q 13.765625 56.984375 13.71875 50.25 
L 4.6875 51.171875 
Q 5.609375 61.28125 11.65625 66.578125 
Q 17.71875 71.875 27.9375 71.875 
Q 38.234375 71.875 44.234375 66.15625 
Q 50.25 60.453125 50.25 52 
Q 50.25 47.703125 48.484375 43.546875 
Q 46.734375 39.40625 42.65625 34.8125 
Q 38.578125 30.21875 29.109375 22.21875 
Q 21.1875 15.578125 18.9375 13.203125 
Q 16.703125 10.84375 15.234375 8.453125 
z
" id="ArialMT-32"/>
      </defs>
      <g style="fill:#262626;" transform="translate(115.601457788 474.85515625)scale(0.13 -0.13)">
       <use xlink:href="#ArialMT-32"/>
       <use x="55.615234375" xlink:href="#ArialMT-30"/>
       <use x="111.23046875" xlink:href="#ArialMT-30"/>
       <use x="166.845703125" xlink:href="#ArialMT-31"/>
      </g>
     </g>
    </g>
    <g id="xtick_2">
     <g id="line2d_2">
      <g>
       <use style="fill:#262626;stroke:#262626;stroke-width:1.3;" x="202.979685864" xlink:href="#mecbe8dca6c" y="450.45"/>
      </g>
     </g>
     <g id="text_2">
      <!-- 2003 -->
      <defs>
       <path d="M 4.203125 18.890625 
L 12.984375 20.0625 
Q 14.5 12.59375 18.140625 9.296875 
Q 21.78125 6 27 6 
Q 33.203125 6 37.46875 10.296875 
Q 41.75 14.59375 41.75 20.953125 
Q 41.75 27 37.796875 30.921875 
Q 33.84375 34.859375 27.734375 34.859375 
Q 25.25 34.859375 21.53125 33.890625 
L 22.515625 41.609375 
Q 23.390625 41.5 23.921875 41.5 
Q 29.546875 41.5 34.03125 44.421875 
Q 38.53125 47.359375 38.53125 53.46875 
Q 38.53125 58.296875 35.25 61.46875 
Q 31.984375 64.65625 26.8125 64.65625 
Q 21.6875 64.65625 18.265625 61.421875 
Q 14.84375 58.203125 13.875 51.765625 
L 5.078125 53.328125 
Q 6.6875 62.15625 12.390625 67.015625 
Q 18.109375 71.875 26.609375 71.875 
Q 32.46875 71.875 37.390625 69.359375 
Q 42.328125 66.84375 44.9375 62.5 
Q 47.5625 58.15625 47.5625 53.265625 
Q 47.5625 48.640625 45.0625 44.828125 
Q 42.578125 41.015625 37.703125 38.765625 
Q 44.046875 37.3125 47.5625 32.6875 
Q 51.078125 28.078125 51.078125 21.140625 
Q 51.078125 11.765625 44.234375 5.25 
Q 37.40625 -1.265625 26.953125 -1.265625 
Q 17.53125 -1.265625 11.296875 4.34375 
Q 5.078125 9.96875 4.203125 18.890625 
" id="ArialMT-33"/>
      </defs>
      <g style="fill:#262626;" transform="translate(188.521248364 474.85515625)scale(0.13 -0.13)">
       <use xlink:href="#ArialMT-32"/>
       <use x="55.615234375" xlink:href="#ArialMT-30"/>
       <use x="111.23046875" xlink:href="#ArialMT-30"/>
       <use x="166.845703125" xlink:href="#ArialMT-33"/>
      </g>
     </g>
    </g>
    <g id="xtick_3">
     <g id="line2d_3">
      <g>
       <use style="fill:#262626;stroke:#262626;stroke-width:1.3;" x="275.89947644" xlink:href="#mecbe8dca6c" y="450.45"/>
      </g>
     </g>
     <g id="text_3">
      <!-- 2005 -->
      <defs>
       <path d="M 4.15625 18.75 
L 13.375 19.53125 
Q 14.40625 12.796875 18.140625 9.390625 
Q 21.875 6 27.15625 6 
Q 33.5 6 37.890625 10.78125 
Q 42.28125 15.578125 42.28125 23.484375 
Q 42.28125 31 38.0625 35.34375 
Q 33.84375 39.703125 27 39.703125 
Q 22.75 39.703125 19.328125 37.765625 
Q 15.921875 35.84375 13.96875 32.765625 
L 5.71875 33.84375 
L 12.640625 70.609375 
L 48.25 70.609375 
L 48.25 62.203125 
L 19.671875 62.203125 
L 15.828125 42.96875 
Q 22.265625 47.46875 29.34375 47.46875 
Q 38.71875 47.46875 45.15625 40.96875 
Q 51.609375 34.46875 51.609375 24.265625 
Q 51.609375 14.546875 45.953125 7.46875 
Q 39.0625 -1.21875 27.15625 -1.21875 
Q 17.390625 -1.21875 11.203125 4.25 
Q 5.03125 9.71875 4.15625 18.75 
" id="ArialMT-35"/>
      </defs>
      <g style="fill:#262626;" transform="translate(261.44103894 474.85515625)scale(0.13 -0.13)">
       <use xlink:href="#ArialMT-32"/>
       <use x="55.615234375" xlink:href="#ArialMT-30"/>
       <use x="111.23046875" xlink:href="#ArialMT-30"/>
       <use x="166.845703125" xlink:href="#ArialMT-35"/>
      </g>
     </g>
    </g>
    <g id="xtick_4">
     <g id="line2d_4">
      <g>
       <use style="fill:#262626;stroke:#262626;stroke-width:1.3;" x="348.819267016" xlink:href="#mecbe8dca6c" y="450.45"/>
      </g>
     </g>
     <g id="text_4">
      <!-- 2007 -->
      <defs>
       <path d="M 4.734375 62.203125 
L 4.734375 70.65625 
L 51.078125 70.65625 
L 51.078125 63.8125 
Q 44.234375 56.546875 37.515625 44.484375 
Q 30.8125 32.421875 27.15625 19.671875 
Q 24.515625 10.6875 23.78125 0 
L 14.75 0 
Q 14.890625 8.453125 18.0625 20.40625 
Q 21.234375 32.375 27.171875 43.484375 
Q 33.109375 54.59375 39.796875 62.203125 
z
" id="ArialMT-37"/>
      </defs>
      <g style="fill:#262626;" transform="translate(334.360829516 474.85515625)scale(0.13 -0.13)">
       <use xlink:href="#ArialMT-32"/>
       <use x="55.615234375" xlink:href="#ArialMT-30"/>
       <use x="111.23046875" xlink:href="#ArialMT-30"/>
       <use x="166.845703125" xlink:href="#ArialMT-37"/>
      </g>
     </g>
    </g>
    <g id="xtick_5">
     <g id="line2d_5">
      <g>
       <use style="fill:#262626;stroke:#262626;stroke-width:1.3;" x="421.739057592" xlink:href="#mecbe8dca6c" y="450.45"/>
      </g>
     </g>
     <g id="text_5">
      <!-- 2009 -->
      <defs>
       <path d="M 5.46875 16.546875 
L 13.921875 17.328125 
Q 14.984375 11.375 18.015625 8.6875 
Q 21.046875 6 25.78125 6 
Q 29.828125 6 32.875 7.859375 
Q 35.9375 9.71875 37.890625 12.8125 
Q 39.84375 15.921875 41.15625 21.1875 
Q 42.484375 26.46875 42.484375 31.9375 
Q 42.484375 32.515625 42.4375 33.6875 
Q 39.796875 29.5 35.234375 26.875 
Q 30.671875 24.265625 25.34375 24.265625 
Q 16.453125 24.265625 10.296875 30.703125 
Q 4.15625 37.15625 4.15625 47.703125 
Q 4.15625 58.59375 10.578125 65.234375 
Q 17 71.875 26.65625 71.875 
Q 33.640625 71.875 39.421875 68.109375 
Q 45.21875 64.359375 48.21875 57.390625 
Q 51.21875 50.4375 51.21875 37.25 
Q 51.21875 23.53125 48.234375 15.40625 
Q 45.265625 7.28125 39.375 3.03125 
Q 33.5 -1.21875 25.59375 -1.21875 
Q 17.1875 -1.21875 11.859375 3.4375 
Q 6.546875 8.109375 5.46875 16.546875 
M 41.453125 48.140625 
Q 41.453125 55.71875 37.421875 60.15625 
Q 33.40625 64.59375 27.734375 64.59375 
Q 21.875 64.59375 17.53125 59.8125 
Q 13.1875 55.03125 13.1875 47.40625 
Q 13.1875 40.578125 17.3125 36.296875 
Q 21.4375 32.03125 27.484375 32.03125 
Q 33.59375 32.03125 37.515625 36.296875 
Q 41.453125 40.578125 41.453125 48.140625 
" id="ArialMT-39"/>
      </defs>
      <g style="fill:#262626;" transform="translate(407.280620092 474.85515625)scale(0.13 -0.13)">
       <use xlink:href="#ArialMT-32"/>
       <use x="55.615234375" xlink:href="#ArialMT-30"/>
       <use x="111.23046875" xlink:href="#ArialMT-30"/>
       <use x="166.845703125" xlink:href="#ArialMT-39"/>
      </g>
     </g>
    </g>
    <g id="xtick_6">
     <g id="line2d_6">
      <g>
       <use style="fill:#262626;stroke:#262626;stroke-width:1.3;" x="494.658848168" xlink:href="#mecbe8dca6c" y="450.45"/>
      </g>
     </g>
     <g id="text_6">
      <!-- 2011 -->
      <g style="fill:#262626;" transform="translate(480.207520043 474.85515625)scale(0.13 -0.13)">
       <use xlink:href="#ArialMT-32"/>
       <use x="55.615234375" xlink:href="#ArialMT-30"/>
       <use x="111.23046875" xlink:href="#ArialMT-31"/>
       <use x="166.736328125" xlink:href="#ArialMT-31"/>
      </g>
     </g>
    </g>
    <g id="xtick_7">
     <g id="line2d_7">
      <g>
       <use style="fill:#262626;stroke:#262626;stroke-width:1.3;" x="567.578638743" xlink:href="#mecbe8dca6c" y="450.45"/>
      </g>
     </g>
     <g id="text_7">
      <!-- 2013 -->
      <g style="fill:#262626;" transform="translate(553.120201243 474.85515625)scale(0.13 -0.13)">
       <use xlink:href="#ArialMT-32"/>
       <use x="55.615234375" xlink:href="#ArialMT-30"/>
       <use x="111.23046875" xlink:href="#ArialMT-31"/>
       <use x="166.845703125" xlink:href="#ArialMT-33"/>
      </g>
     </g>
    </g>
    <g id="xtick_8">
     <g id="line2d_8">
      <g>
       <use style="fill:#262626;stroke:#262626;stroke-width:1.3;" x="640.498429319" xlink:href="#mecbe8dca6c" y="450.45"/>
      </g>
     </g>
     <g id="text_8">
      <!-- 2015 -->
      <g style="fill:#262626;" transform="translate(626.039991819 474.85515625)scale(0.13 -0.13)">
       <use xlink:href="#ArialMT-32"/>
       <use x="55.615234375" xlink:href="#ArialMT-30"/>
       <use x="111.23046875" xlink:href="#ArialMT-31"/>
       <use x="166.845703125" xlink:href="#ArialMT-35"/>
      </g>
     </g>
    </g>
    <g id="xtick_9">
     <g id="line2d_9">
      <defs>
       <path d="M 0 0 
L 0 3 
" id="m510d69f3be" style="stroke:#262626;stroke-width:0.65;"/>
      </defs>
      <g>
       <use style="fill:#262626;stroke:#262626;stroke-width:0.65;" x="93.6" xlink:href="#m510d69f3be" y="450.45"/>
      </g>
     </g>
    </g>
    <g id="xtick_10">
     <g id="line2d_10">
      <g>
       <use style="fill:#262626;stroke:#262626;stroke-width:0.65;" x="130.059895288" xlink:href="#m510d69f3be" y="450.45"/>
      </g>
     </g>
    </g>
    <g id="xtick_11">
     <g id="line2d_11">
      <g>
       <use style="fill:#262626;stroke:#262626;stroke-width:0.65;" x="166.519790576" xlink:href="#m510d69f3be" y="450.45"/>
      </g>
     </g>
    </g>
    <g id="xtick_12">
     <g id="line2d_12">
      <g>
       <use style="fill:#262626;stroke:#262626;stroke-width:0.65;" x="202.979685864" xlink:href="#m510d69f3be" y="450.45"/>
      </g>
     </g>
    </g>
    <g id="xtick_13">
     <g id="line2d_13">
      <g>
       <use style="fill:#262626;stroke:#262626;stroke-width:0.65;" x="239.439581152" xlink:href="#m510d69f3be" y="450.45"/>
      </g>
     </g>
    </g>
    <g id="xtick_14">
     <g id="line2d_14">
      <g>
       <use style="fill:#262626;stroke:#262626;stroke-width:0.65;" x="275.89947644" xlink:href="#m510d69f3be" y="450.45"/>
      </g>
     </g>
    </g>
    <g id="xtick_15">
     <g id="line2d_15">
      <g>
       <use style="fill:#262626;stroke:#262626;stroke-width:0.65;" x="312.359371728" xlink:href="#m510d69f3be" y="450.45"/>
      </g>
     </g>
    </g>
    <g id="xtick_16">
     <g id="line2d_16">
      <g>
       <use style="fill:#262626;stroke:#262626;stroke-width:0.65;" x="348.819267016" xlink:href="#m510d69f3be" y="450.45"/>
      </g>
     </g>
    </g>
    <g id="xtick_17">
     <g id="line2d_17">
      <g>
       <use style="fill:#262626;stroke:#262626;stroke-width:0.65;" x="385.279162304" xlink:href="#m510d69f3be" y="450.45"/>
      </g>
     </g>
    </g>
    <g id="xtick_18">
     <g id="line2d_18">
      <g>
       <use style="fill:#262626;stroke:#262626;stroke-width:0.65;" x="421.739057592" xlink:href="#m510d69f3be" y="450.45"/>
      </g>
     </g>
    </g>
    <g id="xtick_19">
     <g id="line2d_19">
      <g>
       <use style="fill:#262626;stroke:#262626;stroke-width:0.65;" x="458.19895288" xlink:href="#m510d69f3be" y="450.45"/>
      </g>
     </g>
    </g>
    <g id="xtick_20">
     <g id="line2d_20">
      <g>
       <use style="fill:#262626;stroke:#262626;stroke-width:0.65;" x="494.658848168" xlink:href="#m510d69f3be" y="450.45"/>
      </g>
     </g>
    </g>
    <g id="xtick_21">
     <g id="line2d_21">
      <g>
       <use style="fill:#262626;stroke:#262626;stroke-width:0.65;" x="531.118743455" xlink:href="#m510d69f3be" y="450.45"/>
      </g>
     </g>
    </g>
    <g id="xtick_22">
     <g id="line2d_22">
      <g>
       <use style="fill:#262626;stroke:#262626;stroke-width:0.65;" x="567.578638743" xlink:href="#m510d69f3be" y="450.45"/>
      </g>
     </g>
    </g>
    <g id="xtick_23">
     <g id="line2d_23">
      <g>
       <use style="fill:#262626;stroke:#262626;stroke-width:0.65;" x="604.038534031" xlink:href="#m510d69f3be" y="450.45"/>
      </g>
     </g>
    </g>
    <g id="xtick_24">
     <g id="line2d_24">
      <g>
       <use style="fill:#262626;stroke:#262626;stroke-width:0.65;" x="640.498429319" xlink:href="#m510d69f3be" y="450.45"/>
      </g>
     </g>
    </g>
   </g>
   <g id="matplotlib.axis_2">
    <g id="ytick_1">
     <g id="line2d_25">
      <defs>
       <path d="M 0 0 
L -6 0 
" id="m53b58e3cb8" style="stroke:#262626;stroke-width:1.3;"/>
      </defs>
      <g>
       <use style="fill:#262626;stroke:#262626;stroke-width:1.3;" x="93.6" xlink:href="#m53b58e3cb8" y="450.45"/>
      </g>
     </g>
     <g id="text_9">
      <!-- 500 -->
      <g style="fill:#262626;" transform="translate(56.81234375 453.810703125)scale(0.13 -0.13)">
       <use xlink:href="#ArialMT-35"/>
       <use x="55.615234375" xlink:href="#ArialMT-30"/>
       <use x="111.23046875" xlink:href="#ArialMT-30"/>
      </g>
     </g>
    </g>
    <g id="ytick_2">
     <g id="line2d_26">
      <g>
       <use style="fill:#262626;stroke:#262626;stroke-width:1.3;" x="93.6" xlink:href="#m53b58e3cb8" y="383.955"/>
      </g>
     </g>
     <g id="text_10">
      <!-- 1000 -->
      <g style="fill:#262626;" transform="translate(49.583125 387.315703125)scale(0.13 -0.13)">
       <use xlink:href="#ArialMT-31"/>
       <use x="55.615234375" xlink:href="#ArialMT-30"/>
       <use x="111.23046875" xlink:href="#ArialMT-30"/>
       <use x="166.845703125" xlink:href="#ArialMT-30"/>
      </g>
     </g>
    </g>
    <g id="ytick_3">
     <g id="line2d_27">
      <g>
       <use style="fill:#262626;stroke:#262626;stroke-width:1.3;" x="93.6" xlink:href="#m53b58e3cb8" y="317.46"/>
      </g>
     </g>
     <g id="text_11">
      <!-- 1500 -->
      <g style="fill:#262626;" transform="translate(49.583125 320.820703125)scale(0.13 -0.13)">
       <use xlink:href="#ArialMT-31"/>
       <use x="55.615234375" xlink:href="#ArialMT-35"/>
       <use x="111.23046875" xlink:href="#ArialMT-30"/>
       <use x="166.845703125" xlink:href="#ArialMT-30"/>
      </g>
     </g>
    </g>
    <g id="ytick_4">
     <g id="line2d_28">
      <g>
       <use style="fill:#262626;stroke:#262626;stroke-width:1.3;" x="93.6" xlink:href="#m53b58e3cb8" y="250.965"/>
      </g>
     </g>
     <g id="text_12">
      <!-- 2000 -->
      <g style="fill:#262626;" transform="translate(49.583125 254.325703125)scale(0.13 -0.13)">
       <use xlink:href="#ArialMT-32"/>
       <use x="55.615234375" xlink:href="#ArialMT-30"/>
       <use x="111.23046875" xlink:href="#ArialMT-30"/>
       <use x="166.845703125" xlink:href="#ArialMT-30"/>
      </g>
     </g>
    </g>
    <g id="ytick_5">
     <g id="line2d_29">
      <g>
       <use style="fill:#262626;stroke:#262626;stroke-width:1.3;" x="93.6" xlink:href="#m53b58e3cb8" y="184.47"/>
      </g>
     </g>
     <g id="text_13">
      <!-- 2500 -->
      <g style="fill:#262626;" transform="translate(49.583125 187.830703125)scale(0.13 -0.13)">
       <use xlink:href="#ArialMT-32"/>
       <use x="55.615234375" xlink:href="#ArialMT-35"/>
       <use x="111.23046875" xlink:href="#ArialMT-30"/>
       <use x="166.845703125" xlink:href="#ArialMT-30"/>
      </g>
     </g>
    </g>
    <g id="ytick_6">
     <g id="line2d_30">
      <g>
       <use style="fill:#262626;stroke:#262626;stroke-width:1.3;" x="93.6" xlink:href="#m53b58e3cb8" y="117.975"/>
      </g>
     </g>
     <g id="text_14">
      <!-- 3000 -->
      <g style="fill:#262626;" transform="translate(49.583125 121.335703125)scale(0.13 -0.13)">
       <use xlink:href="#ArialMT-33"/>
       <use x="55.615234375" xlink:href="#ArialMT-30"/>
       <use x="111.23046875" xlink:href="#ArialMT-30"/>
       <use x="166.845703125" xlink:href="#ArialMT-30"/>
      </g>
     </g>
    </g>
    <g id="ytick_7">
     <g id="line2d_31">
      <g>
       <use style="fill:#262626;stroke:#262626;stroke-width:1.3;" x="93.6" xlink:href="#m53b58e3cb8" y="51.48"/>
      </g>
     </g>
     <g id="text_15">
      <!-- 3500 -->
      <g style="fill:#262626;" transform="translate(49.583125 54.840703125)scale(0.13 -0.13)">
       <use xlink:href="#ArialMT-33"/>
       <use x="55.615234375" xlink:href="#ArialMT-35"/>
       <use x="111.23046875" xlink:href="#ArialMT-30"/>
       <use x="166.845703125" xlink:href="#ArialMT-30"/>
      </g>
     </g>
    </g>
    <g id="text_16">
     <!-- Monthly Flights -->
     <defs>
      <path id="ArialMT-20"/>
      <path d="M 6.59375 0 
L 6.59375 71.578125 
L 15.375 71.578125 
L 15.375 45.90625 
Q 21.53125 53.03125 30.90625 53.03125 
Q 36.671875 53.03125 40.921875 50.75 
Q 45.171875 48.484375 47 44.484375 
Q 48.828125 40.484375 48.828125 32.859375 
L 48.828125 0 
L 40.046875 0 
L 40.046875 32.859375 
Q 40.046875 39.453125 37.1875 42.453125 
Q 34.328125 45.453125 29.109375 45.453125 
Q 25.203125 45.453125 21.75 43.421875 
Q 18.3125 41.40625 16.84375 37.9375 
Q 15.375 34.46875 15.375 28.375 
L 15.375 0 
z
" id="ArialMT-68"/>
      <path d="M 6.640625 61.46875 
L 6.640625 71.578125 
L 15.4375 71.578125 
L 15.4375 61.46875 
z
M 6.640625 0 
L 6.640625 51.859375 
L 15.4375 51.859375 
L 15.4375 0 
z
" id="ArialMT-69"/>
      <path d="M 6.390625 0 
L 6.390625 71.578125 
L 15.1875 71.578125 
L 15.1875 0 
z
" id="ArialMT-6c"/>
      <path d="M 8.203125 0 
L 8.203125 71.578125 
L 56.5 71.578125 
L 56.5 63.140625 
L 17.671875 63.140625 
L 17.671875 40.96875 
L 51.265625 40.96875 
L 51.265625 32.515625 
L 17.671875 32.515625 
L 17.671875 0 
z
" id="ArialMT-46"/>
      <path d="M 4.984375 -4.296875 
L 13.53125 -5.5625 
Q 14.0625 -9.515625 16.5 -11.328125 
Q 19.78125 -13.765625 25.4375 -13.765625 
Q 31.546875 -13.765625 34.859375 -11.328125 
Q 38.1875 -8.890625 39.359375 -4.5 
Q 40.046875 -1.8125 39.984375 6.78125 
Q 34.234375 0 25.640625 0 
Q 14.9375 0 9.078125 7.71875 
Q 3.21875 15.4375 3.21875 26.21875 
Q 3.21875 33.640625 5.90625 39.90625 
Q 8.59375 46.1875 13.6875 49.609375 
Q 18.796875 53.03125 25.6875 53.03125 
Q 34.859375 53.03125 40.828125 45.609375 
L 40.828125 51.859375 
L 48.921875 51.859375 
L 48.921875 7.03125 
Q 48.921875 -5.078125 46.453125 -10.125 
Q 44 -15.1875 38.640625 -18.109375 
Q 33.296875 -21.046875 25.484375 -21.046875 
Q 16.21875 -21.046875 10.5 -16.875 
Q 4.78125 -12.703125 4.984375 -4.296875 
M 12.25 26.859375 
Q 12.25 16.65625 16.296875 11.96875 
Q 20.359375 7.28125 26.46875 7.28125 
Q 32.515625 7.28125 36.609375 11.9375 
Q 40.71875 16.609375 40.71875 26.5625 
Q 40.71875 36.078125 36.5 40.90625 
Q 32.28125 45.75 26.3125 45.75 
Q 20.453125 45.75 16.34375 40.984375 
Q 12.25 36.234375 12.25 26.859375 
" id="ArialMT-67"/>
      <path d="M 25.78125 7.859375 
L 27.046875 0.09375 
Q 23.34375 -0.6875 20.40625 -0.6875 
Q 15.625 -0.6875 12.984375 0.828125 
Q 10.359375 2.34375 9.28125 4.8125 
Q 8.203125 7.28125 8.203125 15.1875 
L 8.203125 45.015625 
L 1.765625 45.015625 
L 1.765625 51.859375 
L 8.203125 51.859375 
L 8.203125 64.703125 
L 16.9375 69.96875 
L 16.9375 51.859375 
L 25.78125 51.859375 
L 25.78125 45.015625 
L 16.9375 45.015625 
L 16.9375 14.703125 
Q 16.9375 10.9375 17.40625 9.859375 
Q 17.875 8.796875 18.921875 8.15625 
Q 19.96875 7.515625 21.921875 7.515625 
Q 23.390625 7.515625 25.78125 7.859375 
" id="ArialMT-74"/>
      <path d="M 3.328125 25.921875 
Q 3.328125 40.328125 11.328125 47.265625 
Q 18.015625 53.03125 27.640625 53.03125 
Q 38.328125 53.03125 45.109375 46.015625 
Q 51.90625 39.015625 51.90625 26.65625 
Q 51.90625 16.65625 48.90625 10.90625 
Q 45.90625 5.171875 40.15625 2 
Q 34.421875 -1.171875 27.640625 -1.171875 
Q 16.75 -1.171875 10.03125 5.8125 
Q 3.328125 12.796875 3.328125 25.921875 
M 12.359375 25.921875 
Q 12.359375 15.96875 16.703125 11.015625 
Q 21.046875 6.0625 27.640625 6.0625 
Q 34.1875 6.0625 38.53125 11.03125 
Q 42.875 16.015625 42.875 26.21875 
Q 42.875 35.84375 38.5 40.796875 
Q 34.125 45.75 27.640625 45.75 
Q 21.046875 45.75 16.703125 40.8125 
Q 12.359375 35.890625 12.359375 25.921875 
" id="ArialMT-6f"/>
      <path d="M 3.078125 15.484375 
L 11.765625 16.84375 
Q 12.5 11.625 15.84375 8.84375 
Q 19.1875 6.0625 25.203125 6.0625 
Q 31.25 6.0625 34.171875 8.515625 
Q 37.109375 10.984375 37.109375 14.3125 
Q 37.109375 17.28125 34.515625 19 
Q 32.71875 20.171875 25.53125 21.96875 
Q 15.875 24.421875 12.140625 26.203125 
Q 8.40625 27.984375 6.46875 31.125 
Q 4.546875 34.28125 4.546875 38.09375 
Q 4.546875 41.546875 6.125 44.5 
Q 7.71875 47.46875 10.453125 49.421875 
Q 12.5 50.921875 16.03125 51.96875 
Q 19.578125 53.03125 23.640625 53.03125 
Q 29.734375 53.03125 34.34375 51.265625 
Q 38.96875 49.515625 41.15625 46.5 
Q 43.359375 43.5 44.1875 38.484375 
L 35.59375 37.3125 
Q 35.015625 41.3125 32.203125 43.546875 
Q 29.390625 45.796875 24.265625 45.796875 
Q 18.21875 45.796875 15.625 43.796875 
Q 13.03125 41.796875 13.03125 39.109375 
Q 13.03125 37.40625 14.109375 36.03125 
Q 15.1875 34.625 17.484375 33.6875 
Q 18.796875 33.203125 25.25 31.453125 
Q 34.578125 28.953125 38.25 27.359375 
Q 41.9375 25.78125 44.03125 22.75 
Q 46.140625 19.734375 46.140625 15.234375 
Q 46.140625 10.84375 43.578125 6.953125 
Q 41.015625 3.078125 36.171875 0.953125 
Q 31.34375 -1.171875 25.25 -1.171875 
Q 15.140625 -1.171875 9.84375 3.03125 
Q 4.546875 7.234375 3.078125 15.484375 
" id="ArialMT-73"/>
      <path d="M 7.421875 0 
L 7.421875 71.578125 
L 21.6875 71.578125 
L 38.625 20.90625 
Q 40.96875 13.8125 42.046875 10.296875 
Q 43.265625 14.203125 45.84375 21.78125 
L 62.984375 71.578125 
L 75.734375 71.578125 
L 75.734375 0 
L 66.609375 0 
L 66.609375 59.90625 
L 45.796875 0 
L 37.25 0 
L 16.546875 60.9375 
L 16.546875 0 
z
" id="ArialMT-4d"/>
      <path d="M 6.59375 0 
L 6.59375 51.859375 
L 14.5 51.859375 
L 14.5 44.484375 
Q 20.21875 53.03125 31 53.03125 
Q 35.6875 53.03125 39.625 51.34375 
Q 43.5625 49.65625 45.515625 46.921875 
Q 47.46875 44.1875 48.25 40.4375 
Q 48.734375 37.984375 48.734375 31.890625 
L 48.734375 0 
L 39.9375 0 
L 39.9375 31.546875 
Q 39.9375 36.921875 38.90625 39.578125 
Q 37.890625 42.234375 35.28125 43.8125 
Q 32.671875 45.40625 29.15625 45.40625 
Q 23.53125 45.40625 19.453125 41.84375 
Q 15.375 38.28125 15.375 28.328125 
L 15.375 0 
z
" id="ArialMT-6e"/>
      <path d="M 6.203125 -19.96875 
L 5.21875 -11.71875 
Q 8.109375 -12.5 10.25 -12.5 
Q 13.1875 -12.5 14.9375 -11.515625 
Q 16.703125 -10.546875 17.828125 -8.796875 
Q 18.65625 -7.46875 20.515625 -2.25 
Q 20.75 -1.515625 21.296875 -0.09375 
L 1.609375 51.859375 
L 11.078125 51.859375 
L 21.875 21.828125 
Q 23.96875 16.109375 25.640625 9.8125 
Q 27.15625 15.875 29.25 21.625 
L 40.328125 51.859375 
L 49.125 51.859375 
L 29.390625 -0.875 
Q 26.21875 -9.421875 24.46875 -12.640625 
Q 22.125 -17 19.09375 -19.015625 
Q 16.0625 -21.046875 11.859375 -21.046875 
Q 9.328125 -21.046875 6.203125 -19.96875 
" id="ArialMT-79"/>
     </defs>
     <g style="fill:#262626;" transform="translate(41.573421875 299.043164063)rotate(-90.0)scale(0.14300000000000002 -0.14300000000000002)">
      <use xlink:href="#ArialMT-4d"/>
      <use x="83.30078125" xlink:href="#ArialMT-6f"/>
      <use x="138.916015625" xlink:href="#ArialMT-6e"/>
      <use x="194.53125" xlink:href="#ArialMT-74"/>
      <use x="222.314453125" xlink:href="#ArialMT-68"/>
      <use x="277.9296875" xlink:href="#ArialMT-6c"/>
      <use x="300.146484375" xlink:href="#ArialMT-79"/>
      <use x="350.146484375" xlink:href="#ArialMT-20"/>
      <use x="377.9296875" xlink:href="#ArialMT-46"/>
      <use x="439.013671875" xlink:href="#ArialMT-6c"/>
      <use x="461.23046875" xlink:href="#ArialMT-69"/>
      <use x="483.447265625" xlink:href="#ArialMT-67"/>
      <use x="539.0625" xlink:href="#ArialMT-68"/>
      <use x="594.677734375" xlink:href="#ArialMT-74"/>
      <use x="622.4609375" xlink:href="#ArialMT-73"/>
     </g>
    </g>
   </g>
   <g id="PolyCollection_2">
    <defs>
     <path d="M 172.59644 -275.641739 
L 172.59644 -242.388181 
L 175.634764 -244.098631 
L 178.673089 -256.526991 
L 181.711414 -260.411591 
L 184.749738 -271.063727 
L 187.788063 -280.588162 
L 190.826387 -265.849388 
L 193.864712 -258.197021 
L 196.903037 -265.825097 
L 199.941361 -252.231383 
L 202.979686 -280.665105 
L 206.01801 -315.13568 
L 209.056335 -313.498728 
L 212.09466 -316.872911 
L 215.132984 -308.78905 
L 218.171309 -309.049247 
L 221.209634 -315.627657 
L 224.247958 -320.075845 
L 227.286283 -300.665758 
L 230.324607 -300.918316 
L 233.362932 -304.152586 
L 236.401257 -322.752524 
L 239.439581 -360.762912 
L 242.477906 -332.572476 
L 245.51623 -337.656604 
L 248.554555 -341.097851 
L 251.59288 -337.485704 
L 254.631204 -343.764172 
L 257.669529 -335.033273 
L 260.707853 -330.514401 
L 263.746178 -324.16537 
L 266.784503 -315.948921 
L 269.822827 -307.373811 
L 272.861152 -305.140782 
L 275.899476 -334.960125 
L 278.937801 -291.731542 
L 281.976126 -293.134214 
L 285.01445 -299.278909 
L 288.052775 -297.350747 
L 291.091099 -310.363562 
L 294.129424 -305.844652 
L 297.167749 -305.063044 
L 300.206073 -299.014228 
L 303.244398 -301.640346 
L 306.282723 -302.547608 
L 309.321047 -309.34215 
L 312.359372 -322.368386 
L 315.397696 -325.229711 
L 318.436021 -330.230084 
L 321.474346 -334.36985 
L 324.51267 -331.783811 
L 327.550995 -343.058766 
L 330.589319 -340.507224 
L 333.627644 -341.32809 
L 336.665969 -333.95783 
L 339.704293 -334.427893 
L 342.742618 -333.606027 
L 345.780942 -331.449394 
L 348.819267 -335.906976 
L 351.857592 -335.265124 
L 354.895916 -339.731766 
L 357.934241 -338.427529 
L 360.972565 -338.774924 
L 364.01089 -344.45556 
L 367.049215 -339.015209 
L 370.087539 -340.551779 
L 373.125864 -331.910045 
L 376.164188 -334.237798 
L 379.202513 -333.260386 
L 382.240838 -326.099315 
L 385.279162 -323.255395 
L 388.317487 -317.468708 
L 391.355812 -319.479615 
L 394.394136 -316.8729 
L 397.432461 -326.337842 
L 400.470785 -324.59072 
L 403.50911 -322.536742 
L 406.547435 -330.375622 
L 409.585759 -308.06676 
L 412.624084 -307.789271 
L 415.662408 -294.57135 
L 418.700733 -270.09894 
L 421.739058 -276.673633 
L 424.777382 -269.998085 
L 427.815707 -276.759898 
L 430.854031 -285.990015 
L 433.892356 -283.991641 
L 436.930681 -286.439256 
L 439.969005 -290.980753 
L 443.00733 -295.472015 
L 446.045654 -280.670497 
L 449.083979 -286.986618 
L 452.122304 -270.224556 
L 455.160628 -268.210295 
L 458.198953 -271.220081 
L 461.237277 -267.381077 
L 464.275602 -276.615195 
L 467.313927 -286.946978 
L 470.352251 -280.902793 
L 473.390576 -288.673574 
L 476.428901 -292.110535 
L 479.467225 -292.571684 
L 482.50555 -283.528057 
L 485.543874 -288.112897 
L 488.582199 -270.500295 
L 491.620524 -267.843992 
L 494.658848 -260.06404 
L 497.697173 -251.559186 
L 500.735497 -272.986853 
L 503.773822 -288.412822 
L 506.812147 -286.820618 
L 509.850471 -297.404052 
L 512.888796 -300.9051 
L 515.92712 -300.184725 
L 518.965445 -288.800732 
L 522.00377 -278.485825 
L 525.042094 -262.851362 
L 528.080419 -263.706109 
L 531.118743 -253.748605 
L 534.157068 -265.108602 
L 537.195393 -274.800565 
L 540.233717 -275.24586 
L 543.272042 -282.065403 
L 546.310366 -296.28547 
L 549.348691 -296.363428 
L 552.387016 -293.094189 
L 555.42534 -283.672232 
L 558.463665 -276.017553 
L 561.50199 -268.28359 
L 564.540314 -261.41294 
L 567.578639 -240.971782 
L 570.616963 -244.615214 
L 573.655288 -253.301643 
L 576.693613 -253.649508 
L 579.731937 -248.749086 
L 582.770262 -259.418179 
L 585.808586 -254.509915 
L 588.846911 -250.718998 
L 591.885236 -232.423312 
L 594.92356 -231.117211 
L 597.961885 -214.15195 
L 601.000209 -205.339458 
L 604.038534 -193.576142 
L 607.076859 -200.379449 
L 610.115183 -210.739177 
L 613.153508 -214.404191 
L 616.191832 -210.950289 
L 619.230157 -222.831982 
L 622.268482 -218.113673 
L 625.306806 -215.370451 
L 628.345131 -195.877751 
L 631.383455 -196.384331 
L 634.42178 -178.984613 
L 637.460105 -168.080287 
L 640.498429 -155.775556 
L 643.536754 -162.10057 
L 646.575079 -171.896217 
L 649.613403 -175.065126 
L 652.651728 -171.039726 
L 655.690052 -182.422232 
L 658.728377 -177.135278 
L 661.766702 -173.897022 
L 664.805026 -153.84363 
L 667.843351 -153.862953 
L 670.881675 -135.91302 
L 673.92 -124.530981 
L 673.92 -372.881744 
L 673.92 -372.881744 
L 670.881675 -378.822235 
L 667.843351 -391.191847 
L 664.805026 -385.472363 
L 661.766702 -399.666606 
L 658.728377 -396.90528 
L 655.690052 -396.007824 
L 652.651728 -378.273504 
L 649.613403 -375.728286 
L 646.575079 -365.784908 
L 643.536754 -348.949711 
L 640.498429 -335.330035 
L 637.460105 -340.025644 
L 634.42178 -346.614296 
L 631.383455 -359.572245 
L 628.345131 -354.512071 
L 625.306806 -369.303502 
L 622.268482 -367.210907 
L 619.230157 -366.916931 
L 616.191832 -349.857175 
L 613.153508 -347.916588 
L 610.115183 -338.646416 
L 607.076859 -322.406687 
L 604.038534 -309.444173 
L 601.000209 -314.691419 
L 597.961885 -318.852383 
L 594.92356 -330.934614 
L 591.885236 -327.122201 
L 588.846911 -339.989239 
L 585.808586 -338.01787 
L 582.770262 -336.715251 
L 579.731937 -319.313087 
L 576.693613 -316.740698 
L 573.655288 -307.936596 
L 570.616963 -289.181555 
L 567.578639 -272.446828 
L 564.540314 -292.887988 
L 561.50199 -299.75864 
L 558.463665 -307.492604 
L 555.42534 -315.147285 
L 552.387016 -324.569245 
L 549.348691 -327.838485 
L 546.310366 -327.76053 
L 543.272042 -313.540465 
L 540.233717 -306.720924 
L 537.195393 -306.275631 
L 534.157068 -296.583671 
L 531.118743 -285.223676 
L 528.080419 -295.181182 
L 525.042094 -294.326438 
L 522.00377 -309.960904 
L 518.965445 -320.275813 
L 515.92712 -331.659809 
L 512.888796 -332.380187 
L 509.850471 -328.879142 
L 506.812147 -318.295712 
L 503.773822 -319.887919 
L 500.735497 -304.461952 
L 497.697173 -283.034289 
L 494.658848 -291.539151 
L 491.620524 -299.319107 
L 488.582199 -301.975413 
L 485.543874 -319.588019 
L 482.50555 -315.003183 
L 479.467225 -324.046814 
L 476.428901 -323.585669 
L 473.390576 -320.148713 
L 470.352251 -312.377935 
L 467.313927 -318.422125 
L 464.275602 -308.090347 
L 461.237277 -298.856233 
L 458.198953 -302.695281 
L 455.160628 -299.6855 
L 452.122304 -301.699766 
L 449.083979 -318.461832 
L 446.045654 -312.145717 
L 443.00733 -326.947241 
L 439.969005 -322.455985 
L 436.930681 -317.914493 
L 433.892356 -315.466884 
L 430.854031 -317.465265 
L 427.815707 -308.235154 
L 424.777382 -301.473348 
L 421.739058 -308.149086 
L 418.700733 -301.5744 
L 415.662408 -326.046818 
L 412.624084 -339.264747 
L 409.585759 -339.542243 
L 406.547435 -361.851113 
L 403.50911 -354.012241 
L 400.470785 -356.066227 
L 397.432461 -357.813358 
L 394.394136 -348.348425 
L 391.355812 -350.955149 
L 388.317487 -348.944252 
L 385.279162 -354.731511 
L 382.240838 -357.575442 
L 379.202513 -364.736523 
L 376.164188 -365.713947 
L 373.125864 -363.386205 
L 370.087539 -372.02795 
L 367.049215 -370.491392 
L 364.01089 -375.931756 
L 360.972565 -370.251132 
L 357.934241 -369.90375 
L 354.895916 -371.208 
L 351.857592 -366.741372 
L 348.819267 -367.384014 
L 345.780942 -362.926449 
L 342.742618 -365.083097 
L 339.704293 -365.904979 
L 336.665969 -365.434933 
L 333.627644 -372.805209 
L 330.589319 -371.98436 
L 327.550995 -374.53592 
L 324.51267 -363.260982 
L 321.474346 -365.84704 
L 318.436021 -361.707293 
L 315.397696 -356.706939 
L 312.359372 -353.845625 
L 309.321047 -340.819412 
L 306.282723 -334.024891 
L 303.244398 -333.11765 
L 300.206073 -330.491554 
L 297.167749 -336.540393 
L 294.129424 -337.322025 
L 291.091099 -341.840958 
L 288.052775 -328.828168 
L 285.01445 -330.756354 
L 281.976126 -324.611685 
L 278.937801 -323.209035 
L 275.899476 -366.456814 
L 272.861152 -336.637504 
L 269.822827 -338.870557 
L 266.784503 -347.445691 
L 263.746178 -355.662166 
L 260.707853 -362.011223 
L 257.669529 -366.530121 
L 254.631204 -375.261048 
L 251.59288 -368.982607 
L 248.554555 -372.594783 
L 245.51623 -369.153566 
L 242.477906 -364.069451 
L 239.439581 -392.504515 
L 236.401257 -354.494387 
L 233.362932 -335.894467 
L 230.324607 -332.660216 
L 227.286283 -332.407677 
L 224.247958 -351.817784 
L 221.209634 -347.369616 
L 218.171309 -340.791228 
L 215.132984 -340.531053 
L 212.09466 -348.614938 
L 209.056335 -345.240778 
L 206.01801 -346.87773 
L 202.979686 -313.916119 
L 199.941361 -285.484867 
L 196.903037 -299.078587 
L 193.864712 -291.450518 
L 190.826387 -299.102893 
L 187.788063 -313.841674 
L 184.749738 -304.317246 
L 181.711414 -293.66512 
L 178.673089 -289.780529 
L 175.634764 -277.352179 
L 172.59644 -275.641739 
z
" id="m8d8d9f685f" style="stroke:#000000;stroke-opacity:0.25;stroke-width:0.39;"/>
    </defs>
    <g clip-path="url(#p8c09f41dcb)">
     <use style="fill-opacity:0.25;stroke:#000000;stroke-opacity:0.25;stroke-width:0.39;" x="0.0" xlink:href="#m8d8d9f685f" y="514.8"/>
    </g>
   </g>
   <g id="line2d_32">
    <path clip-path="url(#p8c09f41dcb)" d="M 93.6 266.60634 
L 96.638325 260.687028 
L 99.676649 257.48151 
L 102.714974 258.359244 
L 105.753298 256.55487 
L 108.791623 254.139028 
L 111.829948 259.33908 
L 114.868272 256.23741 
L 117.906597 264.193072 
L 120.944921 260.05122 
L 123.983246 267.624214 
L 127.021571 271.27386 
L 130.059895 225.40947 
L 133.09822 225.183939 
L 136.136545 223.61196 
L 139.174869 220.692043 
L 142.213194 218.85864 
L 145.251518 214.219863 
L 148.289843 211.02081 
L 151.328168 205.98006 
L 154.366492 225.067414 
L 157.404817 255.86847 
L 160.443141 266.573593 
L 163.481466 267.24126 
L 166.519791 261.07224 
L 169.558115 258.298449 
L 172.59644 254.97186 
L 175.634764 243.508694 
L 178.673089 241.28247 
L 181.711414 225.541745 
L 184.749738 221.69433 
L 187.788063 219.63084 
L 190.826387 229.389589 
L 193.864712 223.51329 
L 196.903037 243.699313 
L 199.941361 246.675 
L 202.979686 186.68364 
L 206.01801 187.946739 
L 209.056335 186.20316 
L 212.09466 192.063729 
L 215.132984 196.83807 
L 218.171309 184.199587 
L 221.209634 182.74113 
L 224.247958 184.90758 
L 227.286283 187.245058 
L 230.324607 182.68965 
L 233.362932 174.265234 
L 236.401257 170.13282 
L 239.439581 168.19374 
L 242.477906 163.91158 
L 245.51623 162.04188 
L 248.554555 162.109948 
L 251.59288 165.92433 
L 254.631204 166.024287 
L 257.669529 170.79777 
L 260.707853 164.50863 
L 263.746178 178.88442 
L 266.784503 181.8531 
L 269.822827 193.242907 
L 272.861152 195.31512 
L 275.899476 208.8372 
L 278.937801 208.066226 
L 281.976126 201.07659 
L 285.01445 199.879108 
L 288.052775 198.39963 
L 291.091099 193.863527 
L 294.129424 196.01439 
L 297.167749 191.06802 
L 300.206073 196.829204 
L 303.244398 190.63044 
L 306.282723 190.184137 
L 309.321047 192.09762 
L 312.359372 175.91574 
L 315.397696 171.911944 
L 318.436021 165.15642 
L 321.474346 165.257378 
L 324.51267 162.40224 
L 327.550995 157.20705 
L 330.589319 161.29113 
L 333.627644 155.99727 
L 336.665969 165.815936 
L 339.704293 160.61331 
L 342.742618 167.332022 
L 345.780942 169.26195 
L 348.819267 166.19031 
L 351.857592 164.212773 
L 354.895916 161.05518 
L 357.934241 160.004273 
L 360.972565 159.7596 
L 364.01089 157.504061 
L 367.049215 163.16586 
L 370.087539 158.56698 
L 373.125864 168.413674 
L 376.164188 161.90031 
L 379.202513 171.929043 
L 382.240838 181.40265 
L 385.279162 184.39278 
L 388.317487 184.864384 
L 391.355812 182.72826 
L 394.394136 173.604717 
L 397.432461 178.85868 
L 400.470785 172.72255 
L 403.50911 173.84367 
L 406.547435 181.9389 
L 409.585759 196.430234 
L 412.624084 198.85866 
L 415.662408 225.834323 
L 418.700733 225.51672 
L 421.739058 231.20955 
L 424.777382 226.523338 
L 427.815707 215.7441 
L 430.854031 214.707493 
L 433.892356 216.89382 
L 436.930681 204.19685 
L 443.00733 207.90627 
L 446.045654 216.383167 
L 449.083979 217.34427 
L 452.122304 226.831748 
L 455.160628 227.27991 
L 458.198953 233.7621 
L 461.237277 227.416271 
L 464.275602 216.35328 
L 467.313927 216.117187 
L 470.352251 216.91956 
L 473.390576 204.090458 
L 476.428901 205.28937 
L 479.467225 204.34986 
L 482.50555 212.615117 
L 485.543874 212.98563 
L 488.582199 228.764536 
L 491.620524 235.29363 
L 494.658848 251.09799 
L 497.697173 233.761794 
L 500.735497 213.83076 
L 503.773822 210.083874 
L 506.812147 211.42836 
L 509.850471 196.08446 
L 512.888796 197.33142 
L 515.92712 200.10705 
L 518.965445 220.767404 
L 522.00377 220.99506 
L 525.042094 232.927123 
L 528.080419 237.76467 
L 531.118743 241.53129 
L 534.157068 235.827069 
L 537.195393 226.32324 
L 540.233717 215.301515 
L 543.272042 215.18211 
L 546.310366 201.151379 
L 549.348691 204.71022 
L 552.387016 203.62485 
L 555.42534 222.828749 
L 558.463665 216.23316 
L 561.50199 233.946713 
L 564.540314 248.7342 
L 567.578639 247.77753 
L 570.616963 240.159563 
L 576.693613 209.844492 
L 579.731937 209.11176 
L 582.770262 194.297961 
L 585.808586 195.87282 
L 588.846911 200.43309 
L 591.885236 218.276058 
L 594.92356 213.80931 
L 597.961885 233.960012 
L 601.000209 248.0907 
L 604.038534 270.07266 
L 607.076859 265.280424 
L 610.115183 250.47594 
L 613.153508 238.610229 
L 616.191832 233.17437 
L 619.230157 216.232445 
L 622.268482 218.82432 
L 625.306806 223.23015 
L 628.345131 223.857205 
L 631.383455 217.16409 
L 634.42178 239.691881 
L 637.460105 247.24986 
L 640.498429 251.68143 
L 643.536754 246.357846 
L 646.575079 222.74109 
L 649.613403 215.820176 
L 652.651728 215.5296 
L 655.690052 195.446108 
L 658.728377 197.79045 
L 661.766702 201.8016 
L 664.805026 213.630274 
L 667.843351 208.89726 
L 670.881675 219.060699 
L 673.92 230.89209 
L 673.92 230.89209 
" style="fill:none;stroke:#4c72b0;stroke-linecap:round;stroke-width:2.275;"/>
   </g>
   <g id="line2d_33">
    <path clip-path="url(#p8c09f41dcb)" d="M 172.59644 255.78504 
L 175.634764 254.074595 
L 178.673089 241.64624 
L 181.711414 237.761645 
L 184.749738 227.109513 
L 187.788063 217.585082 
L 190.826387 232.323859 
L 193.864712 239.976231 
L 196.903037 232.348158 
L 199.941361 245.941875 
L 202.979686 217.509388 
L 206.01801 183.793295 
L 209.056335 185.430247 
L 212.09466 182.056076 
L 215.132984 190.139948 
L 218.171309 189.879763 
L 221.209634 183.301363 
L 224.247958 178.853185 
L 227.286283 198.263283 
L 230.324607 198.010734 
L 233.362932 194.776474 
L 236.401257 176.176545 
L 239.439581 138.166287 
L 242.477906 166.479036 
L 245.51623 161.394915 
L 248.554555 157.953683 
L 251.59288 161.565844 
L 254.631204 155.28739 
L 257.669529 164.018303 
L 260.707853 168.537188 
L 263.746178 174.886232 
L 266.784503 183.102694 
L 269.822827 191.677816 
L 272.861152 193.910857 
L 275.899476 164.091531 
L 278.937801 207.329712 
L 281.976126 205.92705 
L 285.01445 199.782369 
L 288.052775 201.710543 
L 291.091099 188.69774 
L 294.129424 193.216662 
L 297.167749 193.998281 
L 300.206073 200.047109 
L 303.244398 197.421002 
L 306.282723 196.51375 
L 309.321047 189.719219 
L 312.359372 176.692995 
L 315.397696 173.831675 
L 318.436021 168.831311 
L 321.474346 164.691555 
L 324.51267 167.277604 
L 327.550995 156.002657 
L 330.589319 158.554208 
L 333.627644 157.733351 
L 336.665969 165.103619 
L 339.704293 164.633564 
L 342.742618 165.455438 
L 345.780942 167.612079 
L 348.819267 163.154505 
L 351.857592 163.796752 
L 354.895916 159.330117 
L 357.934241 160.634361 
L 360.972565 160.286972 
L 364.01089 154.606342 
L 367.049215 160.046699 
L 370.087539 158.510135 
L 373.125864 167.151875 
L 376.164188 164.824128 
L 379.202513 165.801545 
L 382.240838 172.962621 
L 385.279162 175.806547 
L 388.317487 181.59352 
L 391.355812 179.582618 
L 394.394136 182.189337 
L 397.432461 172.7244 
L 400.470785 174.471526 
L 403.50911 176.525508 
L 406.547435 168.686632 
L 409.585759 190.995498 
L 412.624084 191.272991 
L 415.662408 204.490916 
L 418.700733 228.96333 
L 421.739058 222.38864 
L 424.777382 229.064283 
L 427.815707 222.302474 
L 430.854031 213.07236 
L 433.892356 215.070738 
L 436.930681 212.623125 
L 443.00733 203.590372 
L 446.045654 218.391893 
L 449.083979 212.075775 
L 452.122304 228.837839 
L 455.160628 230.852102 
L 458.198953 227.842319 
L 461.237277 231.681345 
L 464.275602 222.447229 
L 467.313927 212.115449 
L 470.352251 218.159636 
L 473.390576 210.388856 
L 476.428901 206.951898 
L 479.467225 206.490751 
L 482.50555 215.53438 
L 485.543874 210.949542 
L 488.582199 228.562146 
L 491.620524 231.21845 
L 494.658848 238.998404 
L 497.697173 247.503262 
L 500.735497 226.075597 
L 503.773822 210.64963 
L 506.812147 212.241835 
L 509.850471 201.658403 
L 512.888796 198.157356 
L 515.92712 198.877733 
L 518.965445 210.261728 
L 522.00377 220.576635 
L 525.042094 236.2111 
L 528.080419 235.356354 
L 531.118743 245.31386 
L 534.157068 233.953863 
L 537.195393 224.261902 
L 540.233717 223.816608 
L 543.272042 216.997066 
L 546.310366 202.777 
L 549.348691 202.699044 
L 552.387016 205.968283 
L 555.42534 215.390242 
L 561.50199 230.778885 
L 564.540314 237.649536 
L 567.578639 258.090695 
L 570.616963 247.901615 
L 573.655288 234.18088 
L 576.693613 229.604897 
L 579.731937 230.768913 
L 582.770262 216.733285 
L 585.808586 218.536107 
L 588.846911 219.445881 
L 591.885236 235.027244 
L 594.92356 233.774087 
L 597.961885 248.297833 
L 601.000209 254.784562 
L 604.038534 263.289842 
L 607.076859 253.406932 
L 610.115183 240.107204 
L 613.153508 233.639611 
L 616.191832 234.396268 
L 619.230157 219.925544 
L 622.268482 222.13771 
L 625.306806 222.463023 
L 628.345131 239.605089 
L 631.383455 236.821712 
L 634.42178 252.000546 
L 640.498429 269.247204 
L 643.536754 259.27486 
L 646.575079 245.959438 
L 649.613403 239.403294 
L 652.651728 240.143385 
L 655.690052 225.584972 
L 658.728377 227.779721 
L 661.766702 228.018186 
L 664.805026 245.142003 
L 667.843351 242.2726 
L 670.881675 257.432373 
L 673.92 266.093637 
L 673.92 266.093637 
" style="fill:none;stroke:#55a868;stroke-linecap:round;stroke-width:2.275;"/>
   </g>
   <g id="patch_3">
    <path d="M 93.6 450.45 
L 673.92 450.45 
" style="fill:none;stroke:#262626;stroke-linecap:square;stroke-linejoin:miter;stroke-width:1.25;"/>
   </g>
   <g id="patch_4">
    <path d="M 93.6 450.45 
L 93.6 51.48 
" style="fill:none;stroke:#262626;stroke-linecap:square;stroke-linejoin:miter;stroke-width:1.25;"/>
   </g>
   <g id="text_17">
    <!-- Dynamic $\longrightarrow$ -->
    <defs>
     <path d="M 7.71875 0 
L 7.71875 71.578125 
L 32.375 71.578125 
Q 40.71875 71.578125 45.125 70.5625 
Q 51.265625 69.140625 55.609375 65.4375 
Q 61.28125 60.640625 64.078125 53.1875 
Q 66.890625 45.75 66.890625 36.1875 
Q 66.890625 28.03125 64.984375 21.734375 
Q 63.09375 15.4375 60.109375 11.296875 
Q 57.125 7.171875 53.578125 4.796875 
Q 50.046875 2.4375 45.046875 1.21875 
Q 40.046875 0 33.546875 0 
z
M 17.1875 8.453125 
L 32.46875 8.453125 
Q 39.546875 8.453125 43.578125 9.765625 
Q 47.609375 11.078125 50 13.484375 
Q 53.375 16.84375 55.25 22.53125 
Q 57.125 28.21875 57.125 36.328125 
Q 57.125 47.5625 53.4375 53.59375 
Q 49.75 59.625 44.484375 61.671875 
Q 40.671875 63.140625 32.234375 63.140625 
L 17.1875 63.140625 
z
" id="ArialMT-44"/>
     <path d="M 40.4375 6.390625 
Q 35.546875 2.25 31.03125 0.53125 
Q 26.515625 -1.171875 21.34375 -1.171875 
Q 12.796875 -1.171875 8.203125 3 
Q 3.609375 7.171875 3.609375 13.671875 
Q 3.609375 17.484375 5.34375 20.625 
Q 7.078125 23.78125 9.890625 25.6875 
Q 12.703125 27.59375 16.21875 28.5625 
Q 18.796875 29.25 24.03125 29.890625 
Q 34.671875 31.15625 39.703125 32.90625 
Q 39.75 34.71875 39.75 35.203125 
Q 39.75 40.578125 37.25 42.78125 
Q 33.890625 45.75 27.25 45.75 
Q 21.046875 45.75 18.09375 43.578125 
Q 15.140625 41.40625 13.71875 35.890625 
L 5.125 37.0625 
Q 6.296875 42.578125 8.984375 45.96875 
Q 11.671875 49.359375 16.75 51.1875 
Q 21.828125 53.03125 28.515625 53.03125 
Q 35.15625 53.03125 39.296875 51.46875 
Q 43.453125 49.90625 45.40625 47.53125 
Q 47.359375 45.171875 48.140625 41.546875 
Q 48.578125 39.3125 48.578125 33.453125 
L 48.578125 21.734375 
Q 48.578125 9.46875 49.140625 6.21875 
Q 49.703125 2.984375 51.375 0 
L 42.1875 0 
Q 40.828125 2.734375 40.4375 6.390625 
M 39.703125 26.03125 
Q 34.90625 24.078125 25.34375 22.703125 
Q 19.921875 21.921875 17.671875 20.9375 
Q 15.4375 19.96875 14.203125 18.09375 
Q 12.984375 16.21875 12.984375 13.921875 
Q 12.984375 10.40625 15.640625 8.0625 
Q 18.3125 5.71875 23.4375 5.71875 
Q 28.515625 5.71875 32.46875 7.9375 
Q 36.421875 10.15625 38.28125 14.015625 
Q 39.703125 17 39.703125 22.796875 
z
" id="ArialMT-61"/>
     <path d="M 151.90625 25.796875 
L 151.90625 24.796875 
Q 140.40625 19.90625 128.09375 5.703125 
L 126.09375 7.59375 
Q 128.90625 11.59375 134.296875 17.203125 
Q 135.703125 18.59375 135.703125 20 
Q 135.703125 22 133.09375 22 
L 5.5 22 
L 5.5 28.59375 
L 133.203125 28.59375 
Q 134 28.59375 134.890625 29.34375 
Q 135.796875 30.09375 135.796875 30.796875 
Q 135.796875 31.90625 134.40625 33.296875 
Q 129.5 38 126.203125 43 
L 128.203125 44.90625 
Q 140.703125 30.5 151.90625 25.796875 
" id="STIXGeneral-Regular-27f6"/>
     <path d="M 40.4375 19 
L 49.078125 17.875 
Q 47.65625 8.9375 41.8125 3.875 
Q 35.984375 -1.171875 27.484375 -1.171875 
Q 16.84375 -1.171875 10.375 5.78125 
Q 3.90625 12.75 3.90625 25.734375 
Q 3.90625 34.125 6.6875 40.421875 
Q 9.46875 46.734375 15.15625 49.875 
Q 20.84375 53.03125 27.546875 53.03125 
Q 35.984375 53.03125 41.359375 48.75 
Q 46.734375 44.484375 48.25 36.625 
L 39.703125 35.296875 
Q 38.484375 40.53125 35.375 43.15625 
Q 32.28125 45.796875 27.875 45.796875 
Q 21.234375 45.796875 17.078125 41.03125 
Q 12.9375 36.28125 12.9375 25.984375 
Q 12.9375 15.53125 16.9375 10.796875 
Q 20.953125 6.0625 27.390625 6.0625 
Q 32.5625 6.0625 36.03125 9.234375 
Q 39.5 12.40625 40.4375 19 
" id="ArialMT-63"/>
     <path d="M 6.59375 0 
L 6.59375 51.859375 
L 14.453125 51.859375 
L 14.453125 44.578125 
Q 16.890625 48.390625 20.9375 50.703125 
Q 25 53.03125 30.171875 53.03125 
Q 35.9375 53.03125 39.625 50.640625 
Q 43.3125 48.25 44.828125 43.953125 
Q 50.984375 53.03125 60.84375 53.03125 
Q 68.5625 53.03125 72.703125 48.75 
Q 76.859375 44.484375 76.859375 35.59375 
L 76.859375 0 
L 68.109375 0 
L 68.109375 32.671875 
Q 68.109375 37.9375 67.25 40.25 
Q 66.40625 42.578125 64.15625 43.984375 
Q 61.921875 45.40625 58.890625 45.40625 
Q 53.421875 45.40625 49.796875 41.765625 
Q 46.1875 38.140625 46.1875 30.125 
L 46.1875 0 
L 37.40625 0 
L 37.40625 33.6875 
Q 37.40625 39.546875 35.25 42.46875 
Q 33.109375 45.40625 28.21875 45.40625 
Q 24.515625 45.40625 21.359375 43.453125 
Q 18.21875 41.5 16.796875 37.734375 
Q 15.375 33.984375 15.375 26.90625 
L 15.375 0 
z
" id="ArialMT-6d"/>
    </defs>
    <g style="fill:#262626;" transform="translate(570.616963351 443.8005)scale(0.15600000000000003 -0.15600000000000003)">
     <use transform="translate(0.0 0.421875)" xlink:href="#ArialMT-44"/>
     <use transform="translate(72.216796875 0.421875)" xlink:href="#ArialMT-79"/>
     <use transform="translate(122.216796875 0.421875)" xlink:href="#ArialMT-6e"/>
     <use transform="translate(177.83203125 0.421875)" xlink:href="#ArialMT-61"/>
     <use transform="translate(233.447265625 0.421875)" xlink:href="#ArialMT-6d"/>
     <use transform="translate(316.748046875 0.421875)" xlink:href="#ArialMT-69"/>
     <use transform="translate(338.96484375 0.421875)" xlink:href="#ArialMT-63"/>
     <use transform="translate(388.96484375 0.421875)" xlink:href="#ArialMT-20"/>
     <use transform="translate(434.306640625 0.421875)" xlink:href="#STIXGeneral-Regular-27f6"/>
    </g>
   </g>
   <g id="legend_1">
    <g id="line2d_34">
     <path d="M 572.345313 67.935156 
L 598.345313 67.935156 
" style="fill:none;stroke:#4c72b0;stroke-linecap:round;stroke-width:2.275;"/>
    </g>
    <g id="line2d_35"/>
    <g id="text_18">
     <!-- observed -->
     <defs>
      <path d="M 21 0 
L 1.265625 51.859375 
L 10.546875 51.859375 
L 21.6875 20.796875 
Q 23.484375 15.765625 25 10.359375 
Q 26.171875 14.453125 28.265625 20.21875 
L 39.796875 51.859375 
L 48.828125 51.859375 
L 29.203125 0 
z
" id="ArialMT-76"/>
      <path d="M 6.5 0 
L 6.5 51.859375 
L 14.40625 51.859375 
L 14.40625 44 
Q 17.4375 49.515625 20 51.265625 
Q 22.5625 53.03125 25.640625 53.03125 
Q 30.078125 53.03125 34.671875 50.203125 
L 31.640625 42.046875 
Q 28.421875 43.953125 25.203125 43.953125 
Q 22.3125 43.953125 20.015625 42.21875 
Q 17.71875 40.484375 16.75 37.40625 
Q 15.28125 32.71875 15.28125 27.15625 
L 15.28125 0 
z
" id="ArialMT-72"/>
      <path d="M 40.234375 0 
L 40.234375 6.546875 
Q 35.296875 -1.171875 25.734375 -1.171875 
Q 19.53125 -1.171875 14.328125 2.25 
Q 9.125 5.671875 6.265625 11.796875 
Q 3.421875 17.921875 3.421875 25.875 
Q 3.421875 33.640625 6 39.96875 
Q 8.59375 46.296875 13.765625 49.65625 
Q 18.953125 53.03125 25.34375 53.03125 
Q 30.03125 53.03125 33.6875 51.046875 
Q 37.359375 49.078125 39.65625 45.90625 
L 39.65625 71.578125 
L 48.390625 71.578125 
L 48.390625 0 
z
M 12.453125 25.875 
Q 12.453125 15.921875 16.640625 10.984375 
Q 20.84375 6.0625 26.5625 6.0625 
Q 32.328125 6.0625 36.34375 10.765625 
Q 40.375 15.484375 40.375 25.140625 
Q 40.375 35.796875 36.265625 40.765625 
Q 32.171875 45.75 26.171875 45.75 
Q 20.3125 45.75 16.375 40.96875 
Q 12.453125 36.1875 12.453125 25.875 
" id="ArialMT-64"/>
      <path d="M 42.09375 16.703125 
L 51.171875 15.578125 
Q 49.03125 7.625 43.21875 3.21875 
Q 37.40625 -1.171875 28.375 -1.171875 
Q 17 -1.171875 10.328125 5.828125 
Q 3.65625 12.84375 3.65625 25.484375 
Q 3.65625 38.578125 10.390625 45.796875 
Q 17.140625 53.03125 27.875 53.03125 
Q 38.28125 53.03125 44.875 45.953125 
Q 51.46875 38.875 51.46875 26.03125 
Q 51.46875 25.25 51.421875 23.6875 
L 12.75 23.6875 
Q 13.234375 15.140625 17.578125 10.59375 
Q 21.921875 6.0625 28.421875 6.0625 
Q 33.25 6.0625 36.671875 8.59375 
Q 40.09375 11.140625 42.09375 16.703125 
M 13.234375 30.90625 
L 42.1875 30.90625 
Q 41.609375 37.453125 38.875 40.71875 
Q 34.671875 45.796875 27.984375 45.796875 
Q 21.921875 45.796875 17.796875 41.75 
Q 13.671875 37.703125 13.234375 30.90625 
" id="ArialMT-65"/>
      <path d="M 14.703125 0 
L 6.546875 0 
L 6.546875 71.578125 
L 15.328125 71.578125 
L 15.328125 46.046875 
Q 20.90625 53.03125 29.546875 53.03125 
Q 34.328125 53.03125 38.59375 51.09375 
Q 42.875 49.171875 45.625 45.671875 
Q 48.390625 42.1875 49.953125 37.25 
Q 51.515625 32.328125 51.515625 26.703125 
Q 51.515625 13.375 44.921875 6.09375 
Q 38.328125 -1.171875 29.109375 -1.171875 
Q 19.921875 -1.171875 14.703125 6.5 
z
M 14.59375 26.3125 
Q 14.59375 17 17.140625 12.84375 
Q 21.296875 6.0625 28.375 6.0625 
Q 34.125 6.0625 38.328125 11.0625 
Q 42.53125 16.0625 42.53125 25.984375 
Q 42.53125 36.140625 38.5 40.96875 
Q 34.46875 45.796875 28.765625 45.796875 
Q 23 45.796875 18.796875 40.796875 
Q 14.59375 35.796875 14.59375 26.3125 
" id="ArialMT-62"/>
     </defs>
     <g style="fill:#262626;" transform="translate(608.7453125 72.48515625)scale(0.13 -0.13)">
      <use xlink:href="#ArialMT-6f"/>
      <use x="55.615234375" xlink:href="#ArialMT-62"/>
      <use x="111.23046875" xlink:href="#ArialMT-73"/>
      <use x="161.23046875" xlink:href="#ArialMT-65"/>
      <use x="216.845703125" xlink:href="#ArialMT-72"/>
      <use x="250.146484375" xlink:href="#ArialMT-76"/>
      <use x="300.146484375" xlink:href="#ArialMT-65"/>
      <use x="355.76171875" xlink:href="#ArialMT-64"/>
     </g>
    </g>
    <g id="line2d_36">
     <path d="M 572.345313 86.324063 
L 598.345313 86.324063 
" style="fill:none;stroke:#55a868;stroke-linecap:round;stroke-width:2.275;"/>
    </g>
    <g id="line2d_37"/>
    <g id="text_19">
     <!-- Forecast -->
     <g style="fill:#262626;" transform="translate(608.7453125 90.8740625)scale(0.13 -0.13)">
      <use xlink:href="#ArialMT-46"/>
      <use x="61.083984375" xlink:href="#ArialMT-6f"/>
      <use x="116.69921875" xlink:href="#ArialMT-72"/>
      <use x="150.0" xlink:href="#ArialMT-65"/>
      <use x="205.615234375" xlink:href="#ArialMT-63"/>
      <use x="255.615234375" xlink:href="#ArialMT-61"/>
      <use x="311.23046875" xlink:href="#ArialMT-73"/>
      <use x="361.23046875" xlink:href="#ArialMT-74"/>
     </g>
    </g>
   </g>
  </g>
 </g>
 <defs>
  <clipPath id="p8c09f41dcb">
   <rect height="398.97" width="580.32" x="93.6" y="51.48"/>
  </clipPath>
 </defs>
</svg>
