<?xml version="1.0" encoding="utf-8" standalone="no"?>
<!DOCTYPE svg PUBLIC "-//W3C//DTD SVG 1.1//EN"
  "http://www.w3.org/Graphics/SVG/1.1/DTD/svg11.dtd">
<!-- Created with matplotlib (http://matplotlib.org/) -->
<svg height="514pt" version="1.1" viewBox="0 0 748 514" width="748pt" xmlns="http://www.w3.org/2000/svg" xmlns:xlink="http://www.w3.org/1999/xlink">
 <defs>
  <style type="text/css">
*{stroke-linecap:butt;stroke-linejoin:round;stroke-miterlimit:100000;}
  </style>
 </defs>
 <g id="figure_1">
  <g id="patch_1">
   <path d="M 0 514.8 
L 748.8 514.8 
L 748.8 0 
L 0 0 
z
" style="fill:#ffffff;"/>
  </g>
  <g id="axes_1">
   <g id="patch_2">
    <path d="M 93.6 450.45 
L 673.92 450.45 
L 673.92 51.48 
L 93.6 51.48 
z
" style="fill:#ffffff;"/>
   </g>
   <g id="matplotlib.axis_1">
    <g id="xtick_1">
     <g id="line2d_1">
      <defs>
       <path d="M 0 0 
L 0 6 
" id="mbfda18a770" style="stroke:#262626;stroke-width:1.3;"/>
      </defs>
      <g>
       <use style="fill:#262626;stroke:#262626;stroke-width:1.3;" x="130.059895288" xlink:href="#mbfda18a770" y="450.45"/>
      </g>
     </g>
     <g id="text_1">
      <!-- 2001 -->
      <defs>
       <path d="M 4.15625 35.296875 
Q 4.15625 48 6.765625 55.734375 
Q 9.375 63.484375 14.515625 67.671875 
Q 19.671875 71.875 27.484375 71.875 
Q 33.25 71.875 37.59375 69.546875 
Q 41.9375 67.234375 44.765625 62.859375 
Q 47.609375 58.5 49.21875 52.21875 
Q 50.828125 45.953125 50.828125 35.296875 
Q 50.828125 22.703125 48.234375 14.96875 
Q 45.65625 7.234375 40.5 3 
Q 35.359375 -1.21875 27.484375 -1.21875 
Q 17.140625 -1.21875 11.234375 6.203125 
Q 4.15625 15.140625 4.15625 35.296875 
M 13.1875 35.296875 
Q 13.1875 17.671875 17.3125 11.828125 
Q 21.4375 6 27.484375 6 
Q 33.546875 6 37.671875 11.859375 
Q 41.796875 17.71875 41.796875 35.296875 
Q 41.796875 52.984375 37.671875 58.78125 
Q 33.546875 64.59375 27.390625 64.59375 
Q 21.34375 64.59375 17.71875 59.46875 
Q 13.1875 52.9375 13.1875 35.296875 
" id="ArialMT-30"/>
       <path d="M 37.25 0 
L 28.46875 0 
L 28.46875 56 
Q 25.296875 52.984375 20.140625 49.953125 
Q 14.984375 46.921875 10.890625 45.40625 
L 10.890625 53.90625 
Q 18.265625 57.375 23.78125 62.296875 
Q 29.296875 67.234375 31.59375 71.875 
L 37.25 71.875 
z
" id="ArialMT-31"/>
       <path d="M 50.34375 8.453125 
L 50.34375 0 
L 3.03125 0 
Q 2.9375 3.171875 4.046875 6.109375 
Q 5.859375 10.9375 9.828125 15.625 
Q 13.8125 20.3125 21.34375 26.46875 
Q 33.015625 36.03125 37.109375 41.625 
Q 41.21875 47.21875 41.21875 52.203125 
Q 41.21875 57.421875 37.46875 61 
Q 33.734375 64.59375 27.734375 64.59375 
Q 21.390625 64.59375 17.578125 60.78125 
Q 13.765625 56.984375 13.71875 50.25 
L 4.6875 51.171875 
Q 5.609375 61.28125 11.65625 66.578125 
Q 17.71875 71.875 27.9375 71.875 
Q 38.234375 71.875 44.234375 66.15625 
Q 50.25 60.453125 50.25 52 
Q 50.25 47.703125 48.484375 43.546875 
Q 46.734375 39.40625 42.65625 34.8125 
Q 38.578125 30.21875 29.109375 22.21875 
Q 21.1875 15.578125 18.9375 13.203125 
Q 16.703125 10.84375 15.234375 8.453125 
z
" id="ArialMT-32"/>
      </defs>
      <g style="fill:#262626;" transform="translate(115.601457788 474.85515625)scale(0.13 -0.13)">
       <use xlink:href="#ArialMT-32"/>
       <use x="55.615234375" xlink:href="#ArialMT-30"/>
       <use x="111.23046875" xlink:href="#ArialMT-30"/>
       <use x="166.845703125" xlink:href="#ArialMT-31"/>
      </g>
     </g>
    </g>
    <g id="xtick_2">
     <g id="line2d_2">
      <g>
       <use style="fill:#262626;stroke:#262626;stroke-width:1.3;" x="202.979685864" xlink:href="#mbfda18a770" y="450.45"/>
      </g>
     </g>
     <g id="text_2">
      <!-- 2003 -->
      <defs>
       <path d="M 4.203125 18.890625 
L 12.984375 20.0625 
Q 14.5 12.59375 18.140625 9.296875 
Q 21.78125 6 27 6 
Q 33.203125 6 37.46875 10.296875 
Q 41.75 14.59375 41.75 20.953125 
Q 41.75 27 37.796875 30.921875 
Q 33.84375 34.859375 27.734375 34.859375 
Q 25.25 34.859375 21.53125 33.890625 
L 22.515625 41.609375 
Q 23.390625 41.5 23.921875 41.5 
Q 29.546875 41.5 34.03125 44.421875 
Q 38.53125 47.359375 38.53125 53.46875 
Q 38.53125 58.296875 35.25 61.46875 
Q 31.984375 64.65625 26.8125 64.65625 
Q 21.6875 64.65625 18.265625 61.421875 
Q 14.84375 58.203125 13.875 51.765625 
L 5.078125 53.328125 
Q 6.6875 62.15625 12.390625 67.015625 
Q 18.109375 71.875 26.609375 71.875 
Q 32.46875 71.875 37.390625 69.359375 
Q 42.328125 66.84375 44.9375 62.5 
Q 47.5625 58.15625 47.5625 53.265625 
Q 47.5625 48.640625 45.0625 44.828125 
Q 42.578125 41.015625 37.703125 38.765625 
Q 44.046875 37.3125 47.5625 32.6875 
Q 51.078125 28.078125 51.078125 21.140625 
Q 51.078125 11.765625 44.234375 5.25 
Q 37.40625 -1.265625 26.953125 -1.265625 
Q 17.53125 -1.265625 11.296875 4.34375 
Q 5.078125 9.96875 4.203125 18.890625 
" id="ArialMT-33"/>
      </defs>
      <g style="fill:#262626;" transform="translate(188.521248364 474.85515625)scale(0.13 -0.13)">
       <use xlink:href="#ArialMT-32"/>
       <use x="55.615234375" xlink:href="#ArialMT-30"/>
       <use x="111.23046875" xlink:href="#ArialMT-30"/>
       <use x="166.845703125" xlink:href="#ArialMT-33"/>
      </g>
     </g>
    </g>
    <g id="xtick_3">
     <g id="line2d_3">
      <g>
       <use style="fill:#262626;stroke:#262626;stroke-width:1.3;" x="275.89947644" xlink:href="#mbfda18a770" y="450.45"/>
      </g>
     </g>
     <g id="text_3">
      <!-- 2005 -->
      <defs>
       <path d="M 4.15625 18.75 
L 13.375 19.53125 
Q 14.40625 12.796875 18.140625 9.390625 
Q 21.875 6 27.15625 6 
Q 33.5 6 37.890625 10.78125 
Q 42.28125 15.578125 42.28125 23.484375 
Q 42.28125 31 38.0625 35.34375 
Q 33.84375 39.703125 27 39.703125 
Q 22.75 39.703125 19.328125 37.765625 
Q 15.921875 35.84375 13.96875 32.765625 
L 5.71875 33.84375 
L 12.640625 70.609375 
L 48.25 70.609375 
L 48.25 62.203125 
L 19.671875 62.203125 
L 15.828125 42.96875 
Q 22.265625 47.46875 29.34375 47.46875 
Q 38.71875 47.46875 45.15625 40.96875 
Q 51.609375 34.46875 51.609375 24.265625 
Q 51.609375 14.546875 45.953125 7.46875 
Q 39.0625 -1.21875 27.15625 -1.21875 
Q 17.390625 -1.21875 11.203125 4.25 
Q 5.03125 9.71875 4.15625 18.75 
" id="ArialMT-35"/>
      </defs>
      <g style="fill:#262626;" transform="translate(261.44103894 474.85515625)scale(0.13 -0.13)">
       <use xlink:href="#ArialMT-32"/>
       <use x="55.615234375" xlink:href="#ArialMT-30"/>
       <use x="111.23046875" xlink:href="#ArialMT-30"/>
       <use x="166.845703125" xlink:href="#ArialMT-35"/>
      </g>
     </g>
    </g>
    <g id="xtick_4">
     <g id="line2d_4">
      <g>
       <use style="fill:#262626;stroke:#262626;stroke-width:1.3;" x="348.819267016" xlink:href="#mbfda18a770" y="450.45"/>
      </g>
     </g>
     <g id="text_4">
      <!-- 2007 -->
      <defs>
       <path d="M 4.734375 62.203125 
L 4.734375 70.65625 
L 51.078125 70.65625 
L 51.078125 63.8125 
Q 44.234375 56.546875 37.515625 44.484375 
Q 30.8125 32.421875 27.15625 19.671875 
Q 24.515625 10.6875 23.78125 0 
L 14.75 0 
Q 14.890625 8.453125 18.0625 20.40625 
Q 21.234375 32.375 27.171875 43.484375 
Q 33.109375 54.59375 39.796875 62.203125 
z
" id="ArialMT-37"/>
      </defs>
      <g style="fill:#262626;" transform="translate(334.360829516 474.85515625)scale(0.13 -0.13)">
       <use xlink:href="#ArialMT-32"/>
       <use x="55.615234375" xlink:href="#ArialMT-30"/>
       <use x="111.23046875" xlink:href="#ArialMT-30"/>
       <use x="166.845703125" xlink:href="#ArialMT-37"/>
      </g>
     </g>
    </g>
    <g id="xtick_5">
     <g id="line2d_5">
      <g>
       <use style="fill:#262626;stroke:#262626;stroke-width:1.3;" x="421.739057592" xlink:href="#mbfda18a770" y="450.45"/>
      </g>
     </g>
     <g id="text_5">
      <!-- 2009 -->
      <defs>
       <path d="M 5.46875 16.546875 
L 13.921875 17.328125 
Q 14.984375 11.375 18.015625 8.6875 
Q 21.046875 6 25.78125 6 
Q 29.828125 6 32.875 7.859375 
Q 35.9375 9.71875 37.890625 12.8125 
Q 39.84375 15.921875 41.15625 21.1875 
Q 42.484375 26.46875 42.484375 31.9375 
Q 42.484375 32.515625 42.4375 33.6875 
Q 39.796875 29.5 35.234375 26.875 
Q 30.671875 24.265625 25.34375 24.265625 
Q 16.453125 24.265625 10.296875 30.703125 
Q 4.15625 37.15625 4.15625 47.703125 
Q 4.15625 58.59375 10.578125 65.234375 
Q 17 71.875 26.65625 71.875 
Q 33.640625 71.875 39.421875 68.109375 
Q 45.21875 64.359375 48.21875 57.390625 
Q 51.21875 50.4375 51.21875 37.25 
Q 51.21875 23.53125 48.234375 15.40625 
Q 45.265625 7.28125 39.375 3.03125 
Q 33.5 -1.21875 25.59375 -1.21875 
Q 17.1875 -1.21875 11.859375 3.4375 
Q 6.546875 8.109375 5.46875 16.546875 
M 41.453125 48.140625 
Q 41.453125 55.71875 37.421875 60.15625 
Q 33.40625 64.59375 27.734375 64.59375 
Q 21.875 64.59375 17.53125 59.8125 
Q 13.1875 55.03125 13.1875 47.40625 
Q 13.1875 40.578125 17.3125 36.296875 
Q 21.4375 32.03125 27.484375 32.03125 
Q 33.59375 32.03125 37.515625 36.296875 
Q 41.453125 40.578125 41.453125 48.140625 
" id="ArialMT-39"/>
      </defs>
      <g style="fill:#262626;" transform="translate(407.280620092 474.85515625)scale(0.13 -0.13)">
       <use xlink:href="#ArialMT-32"/>
       <use x="55.615234375" xlink:href="#ArialMT-30"/>
       <use x="111.23046875" xlink:href="#ArialMT-30"/>
       <use x="166.845703125" xlink:href="#ArialMT-39"/>
      </g>
     </g>
    </g>
    <g id="xtick_6">
     <g id="line2d_6">
      <g>
       <use style="fill:#262626;stroke:#262626;stroke-width:1.3;" x="494.658848168" xlink:href="#mbfda18a770" y="450.45"/>
      </g>
     </g>
     <g id="text_6">
      <!-- 2011 -->
      <g style="fill:#262626;" transform="translate(480.207520043 474.85515625)scale(0.13 -0.13)">
       <use xlink:href="#ArialMT-32"/>
       <use x="55.615234375" xlink:href="#ArialMT-30"/>
       <use x="111.23046875" xlink:href="#ArialMT-31"/>
       <use x="166.736328125" xlink:href="#ArialMT-31"/>
      </g>
     </g>
    </g>
    <g id="xtick_7">
     <g id="line2d_7">
      <g>
       <use style="fill:#262626;stroke:#262626;stroke-width:1.3;" x="567.578638743" xlink:href="#mbfda18a770" y="450.45"/>
      </g>
     </g>
     <g id="text_7">
      <!-- 2013 -->
      <g style="fill:#262626;" transform="translate(553.120201243 474.85515625)scale(0.13 -0.13)">
       <use xlink:href="#ArialMT-32"/>
       <use x="55.615234375" xlink:href="#ArialMT-30"/>
       <use x="111.23046875" xlink:href="#ArialMT-31"/>
       <use x="166.845703125" xlink:href="#ArialMT-33"/>
      </g>
     </g>
    </g>
    <g id="xtick_8">
     <g id="line2d_8">
      <g>
       <use style="fill:#262626;stroke:#262626;stroke-width:1.3;" x="640.498429319" xlink:href="#mbfda18a770" y="450.45"/>
      </g>
     </g>
     <g id="text_8">
      <!-- 2015 -->
      <g style="fill:#262626;" transform="translate(626.039991819 474.85515625)scale(0.13 -0.13)">
       <use xlink:href="#ArialMT-32"/>
       <use x="55.615234375" xlink:href="#ArialMT-30"/>
       <use x="111.23046875" xlink:href="#ArialMT-31"/>
       <use x="166.845703125" xlink:href="#ArialMT-35"/>
      </g>
     </g>
    </g>
    <g id="xtick_9">
     <g id="line2d_9">
      <defs>
       <path d="M 0 0 
L 0 3 
" id="m21f8d23f37" style="stroke:#262626;stroke-width:0.65;"/>
      </defs>
      <g>
       <use style="fill:#262626;stroke:#262626;stroke-width:0.65;" x="93.6" xlink:href="#m21f8d23f37" y="450.45"/>
      </g>
     </g>
    </g>
    <g id="xtick_10">
     <g id="line2d_10">
      <g>
       <use style="fill:#262626;stroke:#262626;stroke-width:0.65;" x="130.059895288" xlink:href="#m21f8d23f37" y="450.45"/>
      </g>
     </g>
    </g>
    <g id="xtick_11">
     <g id="line2d_11">
      <g>
       <use style="fill:#262626;stroke:#262626;stroke-width:0.65;" x="166.519790576" xlink:href="#m21f8d23f37" y="450.45"/>
      </g>
     </g>
    </g>
    <g id="xtick_12">
     <g id="line2d_12">
      <g>
       <use style="fill:#262626;stroke:#262626;stroke-width:0.65;" x="202.979685864" xlink:href="#m21f8d23f37" y="450.45"/>
      </g>
     </g>
    </g>
    <g id="xtick_13">
     <g id="line2d_13">
      <g>
       <use style="fill:#262626;stroke:#262626;stroke-width:0.65;" x="239.439581152" xlink:href="#m21f8d23f37" y="450.45"/>
      </g>
     </g>
    </g>
    <g id="xtick_14">
     <g id="line2d_14">
      <g>
       <use style="fill:#262626;stroke:#262626;stroke-width:0.65;" x="275.89947644" xlink:href="#m21f8d23f37" y="450.45"/>
      </g>
     </g>
    </g>
    <g id="xtick_15">
     <g id="line2d_15">
      <g>
       <use style="fill:#262626;stroke:#262626;stroke-width:0.65;" x="312.359371728" xlink:href="#m21f8d23f37" y="450.45"/>
      </g>
     </g>
    </g>
    <g id="xtick_16">
     <g id="line2d_16">
      <g>
       <use style="fill:#262626;stroke:#262626;stroke-width:0.65;" x="348.819267016" xlink:href="#m21f8d23f37" y="450.45"/>
      </g>
     </g>
    </g>
    <g id="xtick_17">
     <g id="line2d_17">
      <g>
       <use style="fill:#262626;stroke:#262626;stroke-width:0.65;" x="385.279162304" xlink:href="#m21f8d23f37" y="450.45"/>
      </g>
     </g>
    </g>
    <g id="xtick_18">
     <g id="line2d_18">
      <g>
       <use style="fill:#262626;stroke:#262626;stroke-width:0.65;" x="421.739057592" xlink:href="#m21f8d23f37" y="450.45"/>
      </g>
     </g>
    </g>
    <g id="xtick_19">
     <g id="line2d_19">
      <g>
       <use style="fill:#262626;stroke:#262626;stroke-width:0.65;" x="458.19895288" xlink:href="#m21f8d23f37" y="450.45"/>
      </g>
     </g>
    </g>
    <g id="xtick_20">
     <g id="line2d_20">
      <g>
       <use style="fill:#262626;stroke:#262626;stroke-width:0.65;" x="494.658848168" xlink:href="#m21f8d23f37" y="450.45"/>
      </g>
     </g>
    </g>
    <g id="xtick_21">
     <g id="line2d_21">
      <g>
       <use style="fill:#262626;stroke:#262626;stroke-width:0.65;" x="531.118743455" xlink:href="#m21f8d23f37" y="450.45"/>
      </g>
     </g>
    </g>
    <g id="xtick_22">
     <g id="line2d_22">
      <g>
       <use style="fill:#262626;stroke:#262626;stroke-width:0.65;" x="567.578638743" xlink:href="#m21f8d23f37" y="450.45"/>
      </g>
     </g>
    </g>
    <g id="xtick_23">
     <g id="line2d_23">
      <g>
       <use style="fill:#262626;stroke:#262626;stroke-width:0.65;" x="604.038534031" xlink:href="#m21f8d23f37" y="450.45"/>
      </g>
     </g>
    </g>
    <g id="xtick_24">
     <g id="line2d_24">
      <g>
       <use style="fill:#262626;stroke:#262626;stroke-width:0.65;" x="640.498429319" xlink:href="#m21f8d23f37" y="450.45"/>
      </g>
     </g>
    </g>
   </g>
   <g id="matplotlib.axis_2">
    <g id="ytick_1">
     <g id="line2d_25">
      <defs>
       <path d="M 0 0 
L -6 0 
" id="m036506153b" style="stroke:#262626;stroke-width:1.3;"/>
      </defs>
      <g>
       <use style="fill:#262626;stroke:#262626;stroke-width:1.3;" x="93.6" xlink:href="#m036506153b" y="450.45"/>
      </g>
     </g>
     <g id="text_9">
      <!-- 1600 -->
      <defs>
       <path d="M 49.75 54.046875 
L 41.015625 53.375 
Q 39.84375 58.546875 37.703125 60.890625 
Q 34.125 64.65625 28.90625 64.65625 
Q 24.703125 64.65625 21.53125 62.3125 
Q 17.390625 59.28125 14.984375 53.46875 
Q 12.59375 47.65625 12.5 36.921875 
Q 15.671875 41.75 20.265625 44.09375 
Q 24.859375 46.4375 29.890625 46.4375 
Q 38.671875 46.4375 44.84375 39.96875 
Q 51.03125 33.5 51.03125 23.25 
Q 51.03125 16.5 48.125 10.71875 
Q 45.21875 4.9375 40.140625 1.859375 
Q 35.0625 -1.21875 28.609375 -1.21875 
Q 17.625 -1.21875 10.6875 6.859375 
Q 3.765625 14.9375 3.765625 33.5 
Q 3.765625 54.25 11.421875 63.671875 
Q 18.109375 71.875 29.4375 71.875 
Q 37.890625 71.875 43.28125 67.140625 
Q 48.6875 62.40625 49.75 54.046875 
M 13.875 23.1875 
Q 13.875 18.65625 15.796875 14.5 
Q 17.71875 10.359375 21.1875 8.171875 
Q 24.65625 6 28.46875 6 
Q 34.03125 6 38.03125 10.484375 
Q 42.046875 14.984375 42.046875 22.703125 
Q 42.046875 30.125 38.078125 34.390625 
Q 34.125 38.671875 28.125 38.671875 
Q 22.171875 38.671875 18.015625 34.390625 
Q 13.875 30.125 13.875 23.1875 
" id="ArialMT-36"/>
      </defs>
      <g style="fill:#262626;" transform="translate(49.583125 453.810703125)scale(0.13 -0.13)">
       <use xlink:href="#ArialMT-31"/>
       <use x="55.615234375" xlink:href="#ArialMT-36"/>
       <use x="111.23046875" xlink:href="#ArialMT-30"/>
       <use x="166.845703125" xlink:href="#ArialMT-30"/>
      </g>
     </g>
    </g>
    <g id="ytick_2">
     <g id="line2d_26">
      <g>
       <use style="fill:#262626;stroke:#262626;stroke-width:1.3;" x="93.6" xlink:href="#m036506153b" y="393.454285714"/>
      </g>
     </g>
     <g id="text_10">
      <!-- 1800 -->
      <defs>
       <path d="M 17.671875 38.8125 
Q 12.203125 40.828125 9.5625 44.53125 
Q 6.9375 48.25 6.9375 53.421875 
Q 6.9375 61.234375 12.546875 66.546875 
Q 18.171875 71.875 27.484375 71.875 
Q 36.859375 71.875 42.578125 66.421875 
Q 48.296875 60.984375 48.296875 53.171875 
Q 48.296875 48.1875 45.671875 44.5 
Q 43.0625 40.828125 37.75 38.8125 
Q 44.34375 36.671875 47.78125 31.875 
Q 51.21875 27.09375 51.21875 20.453125 
Q 51.21875 11.28125 44.71875 5.03125 
Q 38.234375 -1.21875 27.640625 -1.21875 
Q 17.046875 -1.21875 10.546875 5.046875 
Q 4.046875 11.328125 4.046875 20.703125 
Q 4.046875 27.6875 7.59375 32.390625 
Q 11.140625 37.109375 17.671875 38.8125 
M 15.921875 53.71875 
Q 15.921875 48.640625 19.1875 45.40625 
Q 22.46875 42.1875 27.6875 42.1875 
Q 32.765625 42.1875 36.015625 45.375 
Q 39.265625 48.578125 39.265625 53.21875 
Q 39.265625 58.0625 35.90625 61.359375 
Q 32.5625 64.65625 27.59375 64.65625 
Q 22.5625 64.65625 19.234375 61.421875 
Q 15.921875 58.203125 15.921875 53.71875 
M 13.09375 20.65625 
Q 13.09375 16.890625 14.875 13.375 
Q 16.65625 9.859375 20.171875 7.921875 
Q 23.6875 6 27.734375 6 
Q 34.03125 6 38.125 10.046875 
Q 42.234375 14.109375 42.234375 20.359375 
Q 42.234375 26.703125 38.015625 30.859375 
Q 33.796875 35.015625 27.4375 35.015625 
Q 21.234375 35.015625 17.15625 30.90625 
Q 13.09375 26.8125 13.09375 20.65625 
" id="ArialMT-38"/>
      </defs>
      <g style="fill:#262626;" transform="translate(49.583125 396.814988839)scale(0.13 -0.13)">
       <use xlink:href="#ArialMT-31"/>
       <use x="55.615234375" xlink:href="#ArialMT-38"/>
       <use x="111.23046875" xlink:href="#ArialMT-30"/>
       <use x="166.845703125" xlink:href="#ArialMT-30"/>
      </g>
     </g>
    </g>
    <g id="ytick_3">
     <g id="line2d_27">
      <g>
       <use style="fill:#262626;stroke:#262626;stroke-width:1.3;" x="93.6" xlink:href="#m036506153b" y="336.458571429"/>
      </g>
     </g>
     <g id="text_11">
      <!-- 2000 -->
      <g style="fill:#262626;" transform="translate(49.583125 339.819274554)scale(0.13 -0.13)">
       <use xlink:href="#ArialMT-32"/>
       <use x="55.615234375" xlink:href="#ArialMT-30"/>
       <use x="111.23046875" xlink:href="#ArialMT-30"/>
       <use x="166.845703125" xlink:href="#ArialMT-30"/>
      </g>
     </g>
    </g>
    <g id="ytick_4">
     <g id="line2d_28">
      <g>
       <use style="fill:#262626;stroke:#262626;stroke-width:1.3;" x="93.6" xlink:href="#m036506153b" y="279.462857143"/>
      </g>
     </g>
     <g id="text_12">
      <!-- 2200 -->
      <g style="fill:#262626;" transform="translate(49.583125 282.823560268)scale(0.13 -0.13)">
       <use xlink:href="#ArialMT-32"/>
       <use x="55.615234375" xlink:href="#ArialMT-32"/>
       <use x="111.23046875" xlink:href="#ArialMT-30"/>
       <use x="166.845703125" xlink:href="#ArialMT-30"/>
      </g>
     </g>
    </g>
    <g id="ytick_5">
     <g id="line2d_29">
      <g>
       <use style="fill:#262626;stroke:#262626;stroke-width:1.3;" x="93.6" xlink:href="#m036506153b" y="222.467142857"/>
      </g>
     </g>
     <g id="text_13">
      <!-- 2400 -->
      <defs>
       <path d="M 32.328125 0 
L 32.328125 17.140625 
L 1.265625 17.140625 
L 1.265625 25.203125 
L 33.9375 71.578125 
L 41.109375 71.578125 
L 41.109375 25.203125 
L 50.78125 25.203125 
L 50.78125 17.140625 
L 41.109375 17.140625 
L 41.109375 0 
z
M 32.328125 25.203125 
L 32.328125 57.46875 
L 9.90625 25.203125 
z
" id="ArialMT-34"/>
      </defs>
      <g style="fill:#262626;" transform="translate(49.583125 225.827845982)scale(0.13 -0.13)">
       <use xlink:href="#ArialMT-32"/>
       <use x="55.615234375" xlink:href="#ArialMT-34"/>
       <use x="111.23046875" xlink:href="#ArialMT-30"/>
       <use x="166.845703125" xlink:href="#ArialMT-30"/>
      </g>
     </g>
    </g>
    <g id="ytick_6">
     <g id="line2d_30">
      <g>
       <use style="fill:#262626;stroke:#262626;stroke-width:1.3;" x="93.6" xlink:href="#m036506153b" y="165.471428571"/>
      </g>
     </g>
     <g id="text_14">
      <!-- 2600 -->
      <g style="fill:#262626;" transform="translate(49.583125 168.832131696)scale(0.13 -0.13)">
       <use xlink:href="#ArialMT-32"/>
       <use x="55.615234375" xlink:href="#ArialMT-36"/>
       <use x="111.23046875" xlink:href="#ArialMT-30"/>
       <use x="166.845703125" xlink:href="#ArialMT-30"/>
      </g>
     </g>
    </g>
    <g id="ytick_7">
     <g id="line2d_31">
      <g>
       <use style="fill:#262626;stroke:#262626;stroke-width:1.3;" x="93.6" xlink:href="#m036506153b" y="108.475714286"/>
      </g>
     </g>
     <g id="text_15">
      <!-- 2800 -->
      <g style="fill:#262626;" transform="translate(49.583125 111.836417411)scale(0.13 -0.13)">
       <use xlink:href="#ArialMT-32"/>
       <use x="55.615234375" xlink:href="#ArialMT-38"/>
       <use x="111.23046875" xlink:href="#ArialMT-30"/>
       <use x="166.845703125" xlink:href="#ArialMT-30"/>
      </g>
     </g>
    </g>
    <g id="ytick_8">
     <g id="line2d_32">
      <g>
       <use style="fill:#262626;stroke:#262626;stroke-width:1.3;" x="93.6" xlink:href="#m036506153b" y="51.48"/>
      </g>
     </g>
     <g id="text_16">
      <!-- 3000 -->
      <g style="fill:#262626;" transform="translate(49.583125 54.840703125)scale(0.13 -0.13)">
       <use xlink:href="#ArialMT-33"/>
       <use x="55.615234375" xlink:href="#ArialMT-30"/>
       <use x="111.23046875" xlink:href="#ArialMT-30"/>
       <use x="166.845703125" xlink:href="#ArialMT-30"/>
      </g>
     </g>
    </g>
    <g id="text_17">
     <!-- Monthly Flights -->
     <defs>
      <path id="ArialMT-20"/>
      <path d="M 6.59375 0 
L 6.59375 71.578125 
L 15.375 71.578125 
L 15.375 45.90625 
Q 21.53125 53.03125 30.90625 53.03125 
Q 36.671875 53.03125 40.921875 50.75 
Q 45.171875 48.484375 47 44.484375 
Q 48.828125 40.484375 48.828125 32.859375 
L 48.828125 0 
L 40.046875 0 
L 40.046875 32.859375 
Q 40.046875 39.453125 37.1875 42.453125 
Q 34.328125 45.453125 29.109375 45.453125 
Q 25.203125 45.453125 21.75 43.421875 
Q 18.3125 41.40625 16.84375 37.9375 
Q 15.375 34.46875 15.375 28.375 
L 15.375 0 
z
" id="ArialMT-68"/>
      <path d="M 6.640625 61.46875 
L 6.640625 71.578125 
L 15.4375 71.578125 
L 15.4375 61.46875 
z
M 6.640625 0 
L 6.640625 51.859375 
L 15.4375 51.859375 
L 15.4375 0 
z
" id="ArialMT-69"/>
      <path d="M 6.390625 0 
L 6.390625 71.578125 
L 15.1875 71.578125 
L 15.1875 0 
z
" id="ArialMT-6c"/>
      <path d="M 8.203125 0 
L 8.203125 71.578125 
L 56.5 71.578125 
L 56.5 63.140625 
L 17.671875 63.140625 
L 17.671875 40.96875 
L 51.265625 40.96875 
L 51.265625 32.515625 
L 17.671875 32.515625 
L 17.671875 0 
z
" id="ArialMT-46"/>
      <path d="M 4.984375 -4.296875 
L 13.53125 -5.5625 
Q 14.0625 -9.515625 16.5 -11.328125 
Q 19.78125 -13.765625 25.4375 -13.765625 
Q 31.546875 -13.765625 34.859375 -11.328125 
Q 38.1875 -8.890625 39.359375 -4.5 
Q 40.046875 -1.8125 39.984375 6.78125 
Q 34.234375 0 25.640625 0 
Q 14.9375 0 9.078125 7.71875 
Q 3.21875 15.4375 3.21875 26.21875 
Q 3.21875 33.640625 5.90625 39.90625 
Q 8.59375 46.1875 13.6875 49.609375 
Q 18.796875 53.03125 25.6875 53.03125 
Q 34.859375 53.03125 40.828125 45.609375 
L 40.828125 51.859375 
L 48.921875 51.859375 
L 48.921875 7.03125 
Q 48.921875 -5.078125 46.453125 -10.125 
Q 44 -15.1875 38.640625 -18.109375 
Q 33.296875 -21.046875 25.484375 -21.046875 
Q 16.21875 -21.046875 10.5 -16.875 
Q 4.78125 -12.703125 4.984375 -4.296875 
M 12.25 26.859375 
Q 12.25 16.65625 16.296875 11.96875 
Q 20.359375 7.28125 26.46875 7.28125 
Q 32.515625 7.28125 36.609375 11.9375 
Q 40.71875 16.609375 40.71875 26.5625 
Q 40.71875 36.078125 36.5 40.90625 
Q 32.28125 45.75 26.3125 45.75 
Q 20.453125 45.75 16.34375 40.984375 
Q 12.25 36.234375 12.25 26.859375 
" id="ArialMT-67"/>
      <path d="M 25.78125 7.859375 
L 27.046875 0.09375 
Q 23.34375 -0.6875 20.40625 -0.6875 
Q 15.625 -0.6875 12.984375 0.828125 
Q 10.359375 2.34375 9.28125 4.8125 
Q 8.203125 7.28125 8.203125 15.1875 
L 8.203125 45.015625 
L 1.765625 45.015625 
L 1.765625 51.859375 
L 8.203125 51.859375 
L 8.203125 64.703125 
L 16.9375 69.96875 
L 16.9375 51.859375 
L 25.78125 51.859375 
L 25.78125 45.015625 
L 16.9375 45.015625 
L 16.9375 14.703125 
Q 16.9375 10.9375 17.40625 9.859375 
Q 17.875 8.796875 18.921875 8.15625 
Q 19.96875 7.515625 21.921875 7.515625 
Q 23.390625 7.515625 25.78125 7.859375 
" id="ArialMT-74"/>
      <path d="M 3.328125 25.921875 
Q 3.328125 40.328125 11.328125 47.265625 
Q 18.015625 53.03125 27.640625 53.03125 
Q 38.328125 53.03125 45.109375 46.015625 
Q 51.90625 39.015625 51.90625 26.65625 
Q 51.90625 16.65625 48.90625 10.90625 
Q 45.90625 5.171875 40.15625 2 
Q 34.421875 -1.171875 27.640625 -1.171875 
Q 16.75 -1.171875 10.03125 5.8125 
Q 3.328125 12.796875 3.328125 25.921875 
M 12.359375 25.921875 
Q 12.359375 15.96875 16.703125 11.015625 
Q 21.046875 6.0625 27.640625 6.0625 
Q 34.1875 6.0625 38.53125 11.03125 
Q 42.875 16.015625 42.875 26.21875 
Q 42.875 35.84375 38.5 40.796875 
Q 34.125 45.75 27.640625 45.75 
Q 21.046875 45.75 16.703125 40.8125 
Q 12.359375 35.890625 12.359375 25.921875 
" id="ArialMT-6f"/>
      <path d="M 3.078125 15.484375 
L 11.765625 16.84375 
Q 12.5 11.625 15.84375 8.84375 
Q 19.1875 6.0625 25.203125 6.0625 
Q 31.25 6.0625 34.171875 8.515625 
Q 37.109375 10.984375 37.109375 14.3125 
Q 37.109375 17.28125 34.515625 19 
Q 32.71875 20.171875 25.53125 21.96875 
Q 15.875 24.421875 12.140625 26.203125 
Q 8.40625 27.984375 6.46875 31.125 
Q 4.546875 34.28125 4.546875 38.09375 
Q 4.546875 41.546875 6.125 44.5 
Q 7.71875 47.46875 10.453125 49.421875 
Q 12.5 50.921875 16.03125 51.96875 
Q 19.578125 53.03125 23.640625 53.03125 
Q 29.734375 53.03125 34.34375 51.265625 
Q 38.96875 49.515625 41.15625 46.5 
Q 43.359375 43.5 44.1875 38.484375 
L 35.59375 37.3125 
Q 35.015625 41.3125 32.203125 43.546875 
Q 29.390625 45.796875 24.265625 45.796875 
Q 18.21875 45.796875 15.625 43.796875 
Q 13.03125 41.796875 13.03125 39.109375 
Q 13.03125 37.40625 14.109375 36.03125 
Q 15.1875 34.625 17.484375 33.6875 
Q 18.796875 33.203125 25.25 31.453125 
Q 34.578125 28.953125 38.25 27.359375 
Q 41.9375 25.78125 44.03125 22.75 
Q 46.140625 19.734375 46.140625 15.234375 
Q 46.140625 10.84375 43.578125 6.953125 
Q 41.015625 3.078125 36.171875 0.953125 
Q 31.34375 -1.171875 25.25 -1.171875 
Q 15.140625 -1.171875 9.84375 3.03125 
Q 4.546875 7.234375 3.078125 15.484375 
" id="ArialMT-73"/>
      <path d="M 7.421875 0 
L 7.421875 71.578125 
L 21.6875 71.578125 
L 38.625 20.90625 
Q 40.96875 13.8125 42.046875 10.296875 
Q 43.265625 14.203125 45.84375 21.78125 
L 62.984375 71.578125 
L 75.734375 71.578125 
L 75.734375 0 
L 66.609375 0 
L 66.609375 59.90625 
L 45.796875 0 
L 37.25 0 
L 16.546875 60.9375 
L 16.546875 0 
z
" id="ArialMT-4d"/>
      <path d="M 6.59375 0 
L 6.59375 51.859375 
L 14.5 51.859375 
L 14.5 44.484375 
Q 20.21875 53.03125 31 53.03125 
Q 35.6875 53.03125 39.625 51.34375 
Q 43.5625 49.65625 45.515625 46.921875 
Q 47.46875 44.1875 48.25 40.4375 
Q 48.734375 37.984375 48.734375 31.890625 
L 48.734375 0 
L 39.9375 0 
L 39.9375 31.546875 
Q 39.9375 36.921875 38.90625 39.578125 
Q 37.890625 42.234375 35.28125 43.8125 
Q 32.671875 45.40625 29.15625 45.40625 
Q 23.53125 45.40625 19.453125 41.84375 
Q 15.375 38.28125 15.375 28.328125 
L 15.375 0 
z
" id="ArialMT-6e"/>
      <path d="M 6.203125 -19.96875 
L 5.21875 -11.71875 
Q 8.109375 -12.5 10.25 -12.5 
Q 13.1875 -12.5 14.9375 -11.515625 
Q 16.703125 -10.546875 17.828125 -8.796875 
Q 18.65625 -7.46875 20.515625 -2.25 
Q 20.75 -1.515625 21.296875 -0.09375 
L 1.609375 51.859375 
L 11.078125 51.859375 
L 21.875 21.828125 
Q 23.96875 16.109375 25.640625 9.8125 
Q 27.15625 15.875 29.25 21.625 
L 40.328125 51.859375 
L 49.125 51.859375 
L 29.390625 -0.875 
Q 26.21875 -9.421875 24.46875 -12.640625 
Q 22.125 -17 19.09375 -19.015625 
Q 16.0625 -21.046875 11.859375 -21.046875 
Q 9.328125 -21.046875 6.203125 -19.96875 
" id="ArialMT-79"/>
     </defs>
     <g style="fill:#262626;" transform="translate(41.573421875 299.043164063)rotate(-90.0)scale(0.14300000000000002 -0.14300000000000002)">
      <use xlink:href="#ArialMT-4d"/>
      <use x="83.30078125" xlink:href="#ArialMT-6f"/>
      <use x="138.916015625" xlink:href="#ArialMT-6e"/>
      <use x="194.53125" xlink:href="#ArialMT-74"/>
      <use x="222.314453125" xlink:href="#ArialMT-68"/>
      <use x="277.9296875" xlink:href="#ArialMT-6c"/>
      <use x="300.146484375" xlink:href="#ArialMT-79"/>
      <use x="350.146484375" xlink:href="#ArialMT-20"/>
      <use x="377.9296875" xlink:href="#ArialMT-46"/>
      <use x="439.013671875" xlink:href="#ArialMT-6c"/>
      <use x="461.23046875" xlink:href="#ArialMT-69"/>
      <use x="483.447265625" xlink:href="#ArialMT-67"/>
      <use x="539.0625" xlink:href="#ArialMT-68"/>
      <use x="594.677734375" xlink:href="#ArialMT-74"/>
      <use x="622.4609375" xlink:href="#ArialMT-73"/>
     </g>
    </g>
   </g>
   <g id="PolyCollection_1">
    <defs>
     <path d="M 136.136545 -283.833562 
L 136.136545 -196.970033 
L 139.174869 -191.838969 
L 142.213194 -203.685107 
L 145.251518 -209.073121 
L 148.289843 -202.583096 
L 151.328168 -227.400082 
L 154.366492 -214.359362 
L 157.404817 -199.357028 
L 160.443141 -107.968105 
L 163.481466 -93.828757 
L 166.519791 -199.68079 
L 169.558115 -128.616071 
L 172.59644 -132.38396 
L 175.634764 -136.04921 
L 178.673089 -162.68141 
L 181.711414 -171.005552 
L 184.749738 -193.831557 
L 187.788063 -214.241062 
L 190.826387 -182.657975 
L 193.864712 -166.260045 
L 196.903037 -182.605921 
L 199.941361 -153.476534 
L 202.979686 -214.405939 
L 206.01801 -288.271458 
L 209.056335 -284.763702 
L 212.09466 -291.994096 
L 215.132984 -274.671536 
L 218.171309 -275.2291 
L 221.209634 -289.325693 
L 224.247958 -298.857525 
L 227.286283 -257.264481 
L 230.324607 -257.805678 
L 233.362932 -264.736255 
L 236.401257 -304.593265 
L 239.439581 -386.044097 
L 242.477906 -325.636021 
L 245.51623 -336.53058 
L 248.554555 -343.90468 
L 251.59288 -336.164366 
L 254.631204 -349.618227 
L 257.669529 -330.909157 
L 260.707853 -321.22586 
L 263.746178 -307.620793 
L 266.784503 -290.014116 
L 269.822827 -271.638881 
L 272.861152 -266.853819 
L 275.899476 -330.75241 
L 278.937801 -238.119734 
L 281.976126 -241.125458 
L 285.01445 -254.292661 
L 288.052775 -250.160887 
L 291.091099 -278.04549 
L 294.129424 -268.362112 
L 297.167749 -266.687237 
L 300.206073 -253.725488 
L 303.244398 -259.352883 
L 306.282723 -261.297018 
L 309.321047 -275.856749 
L 312.359372 -303.770113 
L 315.397696 -309.901524 
L 318.436021 -320.616609 
L 321.474346 -329.487535 
L 324.51267 -323.946023 
L 327.550995 -348.106642 
L 330.589319 -342.639051 
L 333.627644 -344.39805 
L 336.665969 -328.604636 
L 339.704293 -329.611913 
L 342.742618 -327.850772 
L 345.780942 -323.229415 
L 348.819267 -332.781377 
L 351.857592 -331.405981 
L 354.895916 -340.977355 
L 357.934241 -338.182562 
L 360.972565 -338.926981 
L 364.01089 -351.099772 
L 367.049215 -339.441877 
L 370.087539 -342.734526 
L 373.125864 -324.216526 
L 376.164188 -329.204567 
L 379.202513 -327.110112 
L 382.240838 -311.764961 
L 385.279162 -305.670846 
L 388.317487 -293.270803 
L 391.355812 -297.579888 
L 394.394136 -291.994072 
L 397.432461 -312.276089 
L 400.470785 -308.532257 
L 403.50911 -304.130876 
L 406.547435 -320.928476 
L 409.585759 -273.123772 
L 412.624084 -272.529153 
L 415.662408 -244.205036 
L 418.700733 -191.764156 
L 421.739058 -205.852785 
L 424.777382 -191.54804 
L 427.815707 -206.037638 
L 430.854031 -225.816461 
L 433.892356 -221.53423 
L 436.930681 -226.77912 
L 439.969005 -236.5109 
L 443.00733 -246.135032 
L 446.045654 -214.417493 
L 449.083979 -227.952038 
L 452.122304 -192.033335 
L 455.160628 -187.717062 
L 458.198953 -194.166602 
L 461.237277 -185.940164 
L 464.275602 -205.727562 
L 467.313927 -227.867095 
L 470.352251 -214.91527 
L 473.390576 -231.566945 
L 476.428901 -238.93186 
L 479.467225 -239.920036 
L 482.50555 -220.540836 
L 485.543874 -230.365493 
L 488.582199 -192.624203 
L 491.620524 -186.932126 
L 494.658848 -170.2608 
L 497.697173 -152.036113 
L 500.735497 -197.952542 
L 503.773822 -231.008191 
L 506.812147 -227.596325 
L 509.850471 -250.27511 
L 512.888796 -257.777358 
L 515.92712 -256.233696 
L 518.965445 -231.839425 
L 522.00377 -209.736054 
L 525.042094 -176.233633 
L 528.080419 -178.065234 
L 531.118743 -156.727725 
L 534.157068 -181.070577 
L 537.195393 -201.839067 
L 540.233717 -202.793272 
L 543.272042 -217.406578 
L 546.310366 -247.87815 
L 549.348691 -248.045202 
L 552.387016 -241.039692 
L 555.42534 -220.849782 
L 558.463665 -204.446899 
L 561.50199 -187.874122 
L 564.540314 -173.1513 
L 567.578639 -129.348818 
L 570.616963 -173.335696 
L 573.655288 -197.197907 
L 576.693613 -209.946675 
L 579.731937 -230.344868 
L 582.770262 -264.378014 
L 585.808586 -262.20651 
L 588.846911 -260.709369 
L 591.885236 -219.508998 
L 594.92356 -217.310902 
L 597.961885 -193.152121 
L 601.000209 -167.119749 
L 604.038534 -137.209633 
L 607.076859 -123.580093 
L 610.115183 -143.017821 
L 613.153508 -164.4038 
L 616.191832 -170.334021 
L 619.230157 -214.165684 
L 622.268482 -214.41123 
L 625.306806 -211.142241 
L 628.345131 -166.248231 
L 631.383455 -210.233224 
L 634.42178 -182.024138 
L 637.460105 -146.467209 
L 640.498429 -136.638803 
L 643.536754 -160.041382 
L 646.575079 -184.85892 
L 649.613403 -230.27215 
L 652.651728 -222.751781 
L 655.690052 -253.425087 
L 658.728377 -258.995567 
L 661.766702 -253.160467 
L 664.805026 -219.022867 
L 667.843351 -235.124484 
L 670.881675 -194.410158 
L 673.92 -188.722653 
L 673.92 -256.169096 
L 673.92 -256.169096 
L 670.881675 -261.856603 
L 667.843351 -302.57093 
L 664.805026 -286.469315 
L 661.766702 -320.606917 
L 658.728377 -326.442018 
L 655.690052 -320.87154 
L 652.651728 -290.198235 
L 649.613403 -297.718606 
L 646.575079 -252.305378 
L 643.536754 -227.487842 
L 640.498429 -204.085265 
L 637.460105 -213.913673 
L 634.42178 -249.470603 
L 631.383455 -277.679692 
L 628.345131 -233.694701 
L 625.306806 -278.588714 
L 622.268482 -281.857705 
L 619.230157 -281.612161 
L 616.191832 -237.780501 
L 613.153508 -231.850282 
L 610.115183 -210.464306 
L 607.076859 -191.02658 
L 604.038534 -204.656122 
L 601.000209 -234.56624 
L 597.961885 -260.598615 
L 594.92356 -284.7574 
L 591.885236 -286.955499 
L 588.846911 -328.155872 
L 585.808586 -329.653017 
L 582.770262 -331.824524 
L 579.731937 -297.791381 
L 576.693613 -277.393192 
L 573.655288 -264.644428 
L 570.616963 -240.78222 
L 567.578639 -196.795345 
L 564.540314 -240.597831 
L 561.50199 -255.320657 
L 558.463665 -271.893437 
L 555.42534 -288.296325 
L 552.387016 -308.486239 
L 549.348691 -315.491754 
L 546.310366 -315.324707 
L 543.272042 -284.853139 
L 540.233717 -270.239838 
L 537.195393 -269.285638 
L 534.157068 -248.517153 
L 531.118743 -224.174306 
L 528.080419 -245.511819 
L 525.042094 -243.680225 
L 522.00377 -277.182651 
L 518.965445 -299.286028 
L 515.92712 -323.680305 
L 512.888796 -325.223973 
L 509.850471 -317.721732 
L 506.812147 -295.042953 
L 503.773822 -298.454825 
L 500.735497 -265.399184 
L 497.697173 -219.482762 
L 494.658848 -237.707467 
L 491.620524 -254.378801 
L 488.582199 -260.070886 
L 485.543874 -297.812183 
L 482.50555 -287.987535 
L 479.467225 -307.366744 
L 476.428901 -306.378576 
L 473.390576 -299.01367 
L 470.352251 -282.362004 
L 467.313927 -295.313839 
L 464.275602 -273.174315 
L 461.237277 -253.386927 
L 458.198953 -261.613459 
L 455.160628 -255.163929 
L 452.122304 -259.480213 
L 449.083979 -295.398927 
L 446.045654 -281.864394 
L 443.00733 -313.581945 
L 439.969005 -303.957825 
L 436.930681 -294.226057 
L 433.892356 -288.98118 
L 430.854031 -293.263424 
L 427.815707 -273.484615 
L 424.777382 -258.995031 
L 421.739058 -273.300185 
L 418.700733 -259.211572 
L 415.662408 -311.652467 
L 412.624084 -339.9766 
L 409.585759 -340.571236 
L 406.547435 -388.375956 
L 403.50911 -371.578374 
L 400.470785 -375.979773 
L 397.432461 -379.723624 
L 394.394136 -359.441626 
L 391.355812 -365.027461 
L 388.317487 -360.718397 
L 385.279162 -373.119666 
L 382.240838 -379.213805 
L 379.202513 -394.558979 
L 376.164188 -396.653457 
L 373.125864 -391.66544 
L 370.087539 -410.183465 
L 367.049215 -406.890841 
L 364.01089 -418.548762 
L 360.972565 -406.375997 
L 357.934241 -405.631607 
L 354.895916 -408.426428 
L 351.857592 -398.855083 
L 348.819267 -400.232173 
L 345.780942 -390.680248 
L 342.742618 -395.301637 
L 339.704293 -397.062812 
L 336.665969 -396.05557 
L 333.627644 -411.849019 
L 330.589319 -410.090056 
L 327.550995 -415.557685 
L 324.51267 -391.397104 
L 321.474346 -396.938656 
L 318.436021 -388.067771 
L 315.397696 -377.352727 
L 312.359372 -371.221339 
L 309.321047 -343.308025 
L 306.282723 -328.748338 
L 303.244398 -326.80425 
L 300.206073 -321.176902 
L 297.167749 -334.138699 
L 294.129424 -335.813624 
L 291.091099 -345.497053 
L 288.052775 -317.612502 
L 285.01445 -321.744331 
L 281.976126 -308.577183 
L 278.937801 -305.571503 
L 275.899476 -398.245316 
L 272.861152 -334.346795 
L 269.822827 -339.131908 
L 266.784503 -357.507195 
L 263.746178 -375.113926 
L 260.707853 -388.719048 
L 257.669529 -398.402402 
L 254.631204 -417.111531 
L 251.59288 -403.65773 
L 248.554555 -411.398107 
L 245.51623 -404.02407 
L 242.477906 -393.129537 
L 239.439581 -454.061817 
L 236.401257 -372.611543 
L 233.362932 -332.754571 
L 230.324607 -325.824034 
L 227.286283 -325.282878 
L 224.247958 -366.875966 
L 221.209634 -357.344178 
L 218.171309 -343.247631 
L 215.132984 -342.690114 
L 212.09466 -360.012723 
L 209.056335 -352.782381 
L 206.01801 -356.290137 
L 202.979686 -285.658111 
L 199.941361 -224.734 
L 196.903037 -253.8634 
L 193.864712 -237.517538 
L 190.826387 -253.915484 
L 187.788063 -285.498587 
L 184.749738 -265.0891 
L 181.711414 -242.263113 
L 178.673089 -233.93899 
L 175.634764 -207.306812 
L 172.59644 -203.641583 
L 169.558115 -199.873781 
L 166.519791 -286.492359 
L 163.481466 -180.692262 
L 160.443141 -194.831613 
L 157.404817 -286.220537 
L 154.366492 -301.222872 
L 151.328168 -314.263594 
L 148.289843 -289.446611 
L 145.251518 -295.936638 
L 142.213194 -290.548628 
L 139.174869 -278.702494 
L 136.136545 -283.833562 
z
" id="m9cef0c1c39" style="stroke:#000000;stroke-opacity:0.2;stroke-width:0.39;"/>
    </defs>
    <g clip-path="url(#pfdc8dd817f)">
     <use style="fill-opacity:0.2;stroke:#000000;stroke-opacity:0.2;stroke-width:0.39;" x="0.0" xlink:href="#m9cef0c1c39" y="514.8"/>
    </g>
   </g>
   <g id="line2d_33">
    <path clip-path="url(#pfdc8dd817f)" d="M 93.6 369.975729 
L 96.638325 357.291488 
L 99.676649 350.422521 
L 102.714974 352.30338 
L 105.753298 348.436864 
L 108.791623 343.26006 
L 111.829948 354.403029 
L 114.868272 347.756593 
L 117.906597 364.80444 
L 120.944921 355.929043 
L 123.983246 372.156887 
L 127.021571 379.977557 
L 130.059895 281.696721 
L 133.09822 281.21344 
L 136.136545 277.844914 
L 139.174869 271.587949 
L 142.213194 267.659229 
L 145.251518 257.718992 
L 148.289843 250.863879 
L 151.328168 240.062271 
L 154.366492 280.963744 
L 157.404817 346.966007 
L 160.443141 369.905556 
L 163.481466 371.336271 
L 166.519791 358.116943 
L 169.558115 352.173104 
L 172.59644 345.0447 
L 175.634764 320.480773 
L 178.673089 315.710293 
L 181.711414 281.980168 
L 184.749738 273.735707 
L 187.788063 269.313943 
L 190.826387 290.225548 
L 193.864712 277.633479 
L 196.903037 320.889242 
L 199.941361 327.265714 
L 202.979686 198.7128 
L 206.01801 201.41944 
L 209.056335 197.6832 
L 212.09466 210.241562 
L 215.132984 220.472293 
L 218.171309 193.389829 
L 221.209634 190.264564 
L 224.247958 194.906957 
L 227.286283 199.915839 
L 230.324607 190.15425 
L 233.362932 172.10193 
L 236.401257 163.246757 
L 239.439581 159.091586 
L 242.477906 149.915529 
L 245.51623 145.909029 
L 248.554555 146.054889 
L 251.59288 154.228564 
L 254.631204 154.442758 
L 257.669529 164.67165 
L 260.707853 151.194921 
L 263.746178 182.000186 
L 266.784503 188.361643 
L 269.822827 212.768372 
L 272.861152 217.208829 
L 275.899476 246.184714 
L 278.937801 244.532627 
L 281.976126 229.554836 
L 285.01445 226.988803 
L 288.052775 223.818493 
L 291.091099 214.098272 
L 294.129424 218.707264 
L 297.167749 208.1079 
L 300.206073 220.453294 
L 303.244398 207.170229 
L 306.282723 206.213865 
L 309.321047 210.314186 
L 312.359372 175.638729 
L 315.397696 167.059166 
L 318.436021 152.583043 
L 321.474346 152.799381 
L 324.51267 146.681229 
L 327.550995 135.548679 
L 330.589319 144.300279 
L 333.627644 132.956293 
L 336.665969 153.996291 
L 339.704293 142.847807 
L 342.742618 157.245047 
L 345.780942 161.380607 
L 348.819267 154.798521 
L 351.857592 150.560943 
L 354.895916 143.794671 
L 357.934241 141.542728 
L 360.972565 141.018429 
L 364.01089 136.185131 
L 367.049215 148.317557 
L 370.087539 138.462814 
L 373.125864 159.562873 
L 376.164188 145.605664 
L 379.202513 167.095806 
L 382.240838 187.396393 
L 385.279162 193.803814 
L 388.317487 194.814395 
L 391.355812 190.236986 
L 394.394136 170.686536 
L 397.432461 181.945029 
L 400.470785 168.796179 
L 403.50911 171.198579 
L 406.547435 188.5455 
L 409.585759 219.598359 
L 412.624084 224.802129 
L 415.662408 282.607121 
L 418.700733 281.926543 
L 421.739058 294.125464 
L 424.777382 284.083581 
L 427.815707 260.985214 
L 430.854031 258.763914 
L 433.892356 263.4489 
L 436.930681 236.241107 
L 443.00733 244.189864 
L 446.045654 262.354644 
L 449.083979 264.41415 
L 452.122304 284.74446 
L 455.160628 285.704807 
L 458.198953 299.595214 
L 461.237277 285.997009 
L 464.275602 262.2906 
L 467.313927 261.784686 
L 470.352251 263.504057 
L 473.390576 236.013124 
L 476.428901 238.582221 
L 479.467225 236.568986 
L 482.50555 254.280251 
L 485.543874 255.074207 
L 488.582199 288.886149 
L 491.620524 302.877064 
L 494.658848 336.74355 
L 497.697173 299.594558 
L 500.735497 256.8852 
L 503.773822 248.856159 
L 506.812147 251.7372 
L 509.850471 218.857414 
L 512.888796 221.529471 
L 515.92712 227.47725 
L 518.965445 271.749437 
L 522.00377 272.237271 
L 525.042094 297.805978 
L 528.080419 308.17215 
L 531.118743 316.243479 
L 534.157068 304.020149 
L 537.195393 283.6548 
L 540.233717 260.036818 
L 543.272042 259.78095 
L 546.310366 229.715098 
L 549.348691 237.341186 
L 552.387016 235.015393 
L 555.42534 276.166605 
L 558.463665 262.0332 
L 561.50199 299.990814 
L 564.540314 331.678286 
L 567.578639 329.628279 
L 570.616963 313.304062 
L 576.693613 248.343197 
L 579.731937 246.773057 
L 582.770262 215.029202 
L 585.808586 218.4039 
L 588.846911 228.175907 
L 591.885236 266.410839 
L 594.92356 256.839236 
L 597.961885 300.019311 
L 601.000209 330.299357 
L 604.038534 377.403557 
L 607.076859 367.134479 
L 610.115183 335.410586 
L 613.153508 309.984062 
L 616.191832 298.335793 
L 619.230157 262.031668 
L 622.268482 267.585686 
L 625.306806 277.02675 
L 628.345131 278.370439 
L 631.383455 264.02805 
L 634.42178 312.301888 
L 637.460105 328.497557 
L 640.498429 337.993779 
L 643.536754 326.586099 
L 646.575079 275.978764 
L 649.613403 261.148234 
L 652.651728 260.525571 
L 655.690052 217.489517 
L 658.728377 222.513107 
L 661.766702 231.108429 
L 664.805026 256.455587 
L 667.843351 246.313414 
L 670.881675 268.092212 
L 673.92 293.445193 
L 673.92 293.445193 
" style="fill:none;stroke:#4c72b0;stroke-linecap:round;stroke-width:2.275;"/>
   </g>
   <g id="line2d_34">
    <path clip-path="url(#pfdc8dd817f)" d="M 136.136545 274.398202 
L 139.174869 279.529268 
L 142.213194 267.683133 
L 145.251518 262.29512 
L 148.289843 268.785146 
L 151.328168 243.968162 
L 154.366492 257.008883 
L 157.404817 272.011218 
L 160.443141 363.400141 
L 163.481466 377.539491 
L 166.519791 271.713426 
L 169.558115 350.555074 
L 175.634764 343.121989 
L 178.673089 316.4898 
L 181.711414 308.165667 
L 184.749738 285.339672 
L 187.788063 264.930175 
L 190.826387 296.51327 
L 193.864712 312.911209 
L 196.903037 296.565339 
L 199.941361 325.694733 
L 202.979686 264.767975 
L 206.01801 192.519203 
L 209.056335 196.026959 
L 212.09466 188.79659 
L 215.132984 206.119175 
L 218.171309 205.561635 
L 221.209634 191.465064 
L 224.247958 181.933255 
L 227.286283 223.52632 
L 230.324607 222.985144 
L 233.362932 216.054587 
L 236.401257 176.197596 
L 239.439581 94.747043 
L 242.477906 155.417221 
L 245.51623 144.522675 
L 248.554555 137.148607 
L 251.59288 144.888952 
L 254.631204 131.435121 
L 257.669529 150.144221 
L 260.707853 159.827546 
L 263.746178 173.43264 
L 266.784503 191.039345 
L 269.822827 209.414605 
L 272.861152 214.199693 
L 275.899476 150.301137 
L 278.937801 242.954382 
L 281.976126 239.94868 
L 285.01445 226.781504 
L 288.052775 230.913306 
L 291.091099 203.028729 
L 294.129424 212.712132 
L 297.167749 214.387032 
L 300.206073 227.348805 
L 303.244398 221.721434 
L 306.282723 219.777322 
L 309.321047 205.217613 
L 312.359372 177.304274 
L 315.397696 171.172875 
L 318.436021 160.45781 
L 321.474346 151.586904 
L 324.51267 157.128437 
L 327.550995 132.967837 
L 330.589319 138.435447 
L 333.627644 136.676466 
L 336.665969 152.469897 
L 339.704293 151.462637 
L 342.742618 153.223795 
L 345.780942 157.845168 
L 348.819267 148.293225 
L 351.857592 149.669468 
L 354.895916 140.098109 
L 357.934241 142.892915 
L 360.972565 142.148511 
L 364.01089 129.975733 
L 367.049215 141.633641 
L 370.087539 138.341005 
L 373.125864 156.859017 
L 376.164188 151.870988 
L 379.202513 153.965455 
L 382.240838 169.310617 
L 385.279162 175.404744 
L 388.317487 187.8054 
L 391.355812 183.496325 
L 394.394136 189.082151 
L 397.432461 168.800144 
L 400.470785 172.543985 
L 403.50911 176.945375 
L 406.547435 160.147784 
L 409.585759 207.952496 
L 412.624084 208.547124 
L 415.662408 236.871249 
L 418.700733 289.312136 
L 421.739058 275.223515 
L 424.777382 289.528464 
L 427.815707 275.038874 
L 430.854031 255.260057 
L 433.892356 259.542295 
L 436.930681 254.297411 
L 443.00733 234.941511 
L 446.045654 266.659057 
L 449.083979 253.124518 
L 452.122304 289.043226 
L 455.160628 293.359505 
L 458.198953 286.90997 
L 461.237277 295.136454 
L 464.275602 275.349062 
L 467.313927 253.209533 
L 470.352251 266.161363 
L 473.390576 249.509692 
L 476.428901 242.144782 
L 479.467225 241.15661 
L 482.50555 260.535815 
L 485.543874 250.711162 
L 488.582199 288.452455 
L 491.620524 294.144537 
L 494.658848 310.815867 
L 497.697173 329.040562 
L 500.735497 283.124137 
L 503.773822 250.068492 
L 506.812147 253.480361 
L 509.850471 230.801579 
L 512.888796 223.299335 
L 515.92712 224.842999 
L 518.965445 249.237274 
L 522.00377 271.340647 
L 525.042094 304.843071 
L 528.080419 303.011474 
L 531.118743 324.348985 
L 534.157068 300.006135 
L 537.195393 279.237647 
L 540.233717 278.283445 
L 543.272042 263.670142 
L 546.310366 233.198572 
L 549.348691 233.031522 
L 552.387016 240.037035 
L 555.42534 260.226947 
L 561.50199 293.20261 
L 564.540314 307.925434 
L 567.578639 351.727918 
L 570.616963 307.741042 
L 573.655288 283.878832 
L 576.693613 271.130067 
L 579.731937 250.731876 
L 582.770262 216.698731 
L 585.808586 218.870237 
L 588.846911 220.367379 
L 591.885236 261.567752 
L 594.92356 263.765849 
L 597.961885 287.924632 
L 601.000209 313.957006 
L 604.038534 343.867122 
L 607.076859 357.496663 
L 610.115183 338.058937 
L 613.153508 316.672959 
L 616.191832 310.742739 
L 619.230157 266.911078 
L 622.268482 266.665533 
L 625.306806 269.934522 
L 628.345131 314.828534 
L 631.383455 270.843542 
L 634.42178 299.05263 
L 637.460105 334.609559 
L 640.498429 344.437966 
L 643.536754 321.035388 
L 646.575079 296.217851 
L 649.613403 250.804622 
L 652.651728 258.324992 
L 655.690052 227.651687 
L 658.728377 222.081207 
L 661.766702 227.916308 
L 664.805026 262.053909 
L 667.843351 245.952293 
L 670.881675 286.66662 
L 673.92 292.354126 
L 673.92 292.354126 
" style="fill:none;opacity:0.7;stroke:#55a868;stroke-linecap:round;stroke-width:2.275;"/>
   </g>
   <g id="patch_3">
    <path d="M 93.6 450.45 
L 673.92 450.45 
" style="fill:none;stroke:#262626;stroke-linecap:square;stroke-linejoin:miter;stroke-width:1.25;"/>
   </g>
   <g id="patch_4">
    <path d="M 93.6 450.45 
L 93.6 51.48 
" style="fill:none;stroke:#262626;stroke-linecap:square;stroke-linejoin:miter;stroke-width:1.25;"/>
   </g>
   <g id="legend_1">
    <g id="line2d_35">
     <path d="M 572.345313 67.935156 
L 598.345313 67.935156 
" style="fill:none;stroke:#4c72b0;stroke-linecap:round;stroke-width:2.275;"/>
    </g>
    <g id="line2d_36"/>
    <g id="text_18">
     <!-- observed -->
     <defs>
      <path d="M 21 0 
L 1.265625 51.859375 
L 10.546875 51.859375 
L 21.6875 20.796875 
Q 23.484375 15.765625 25 10.359375 
Q 26.171875 14.453125 28.265625 20.21875 
L 39.796875 51.859375 
L 48.828125 51.859375 
L 29.203125 0 
z
" id="ArialMT-76"/>
      <path d="M 6.5 0 
L 6.5 51.859375 
L 14.40625 51.859375 
L 14.40625 44 
Q 17.4375 49.515625 20 51.265625 
Q 22.5625 53.03125 25.640625 53.03125 
Q 30.078125 53.03125 34.671875 50.203125 
L 31.640625 42.046875 
Q 28.421875 43.953125 25.203125 43.953125 
Q 22.3125 43.953125 20.015625 42.21875 
Q 17.71875 40.484375 16.75 37.40625 
Q 15.28125 32.71875 15.28125 27.15625 
L 15.28125 0 
z
" id="ArialMT-72"/>
      <path d="M 40.234375 0 
L 40.234375 6.546875 
Q 35.296875 -1.171875 25.734375 -1.171875 
Q 19.53125 -1.171875 14.328125 2.25 
Q 9.125 5.671875 6.265625 11.796875 
Q 3.421875 17.921875 3.421875 25.875 
Q 3.421875 33.640625 6 39.96875 
Q 8.59375 46.296875 13.765625 49.65625 
Q 18.953125 53.03125 25.34375 53.03125 
Q 30.03125 53.03125 33.6875 51.046875 
Q 37.359375 49.078125 39.65625 45.90625 
L 39.65625 71.578125 
L 48.390625 71.578125 
L 48.390625 0 
z
M 12.453125 25.875 
Q 12.453125 15.921875 16.640625 10.984375 
Q 20.84375 6.0625 26.5625 6.0625 
Q 32.328125 6.0625 36.34375 10.765625 
Q 40.375 15.484375 40.375 25.140625 
Q 40.375 35.796875 36.265625 40.765625 
Q 32.171875 45.75 26.171875 45.75 
Q 20.3125 45.75 16.375 40.96875 
Q 12.453125 36.1875 12.453125 25.875 
" id="ArialMT-64"/>
      <path d="M 42.09375 16.703125 
L 51.171875 15.578125 
Q 49.03125 7.625 43.21875 3.21875 
Q 37.40625 -1.171875 28.375 -1.171875 
Q 17 -1.171875 10.328125 5.828125 
Q 3.65625 12.84375 3.65625 25.484375 
Q 3.65625 38.578125 10.390625 45.796875 
Q 17.140625 53.03125 27.875 53.03125 
Q 38.28125 53.03125 44.875 45.953125 
Q 51.46875 38.875 51.46875 26.03125 
Q 51.46875 25.25 51.421875 23.6875 
L 12.75 23.6875 
Q 13.234375 15.140625 17.578125 10.59375 
Q 21.921875 6.0625 28.421875 6.0625 
Q 33.25 6.0625 36.671875 8.59375 
Q 40.09375 11.140625 42.09375 16.703125 
M 13.234375 30.90625 
L 42.1875 30.90625 
Q 41.609375 37.453125 38.875 40.71875 
Q 34.671875 45.796875 27.984375 45.796875 
Q 21.921875 45.796875 17.796875 41.75 
Q 13.671875 37.703125 13.234375 30.90625 
" id="ArialMT-65"/>
      <path d="M 14.703125 0 
L 6.546875 0 
L 6.546875 71.578125 
L 15.328125 71.578125 
L 15.328125 46.046875 
Q 20.90625 53.03125 29.546875 53.03125 
Q 34.328125 53.03125 38.59375 51.09375 
Q 42.875 49.171875 45.625 45.671875 
Q 48.390625 42.1875 49.953125 37.25 
Q 51.515625 32.328125 51.515625 26.703125 
Q 51.515625 13.375 44.921875 6.09375 
Q 38.328125 -1.171875 29.109375 -1.171875 
Q 19.921875 -1.171875 14.703125 6.5 
z
M 14.59375 26.3125 
Q 14.59375 17 17.140625 12.84375 
Q 21.296875 6.0625 28.375 6.0625 
Q 34.125 6.0625 38.328125 11.0625 
Q 42.53125 16.0625 42.53125 25.984375 
Q 42.53125 36.140625 38.5 40.96875 
Q 34.46875 45.796875 28.765625 45.796875 
Q 23 45.796875 18.796875 40.796875 
Q 14.59375 35.796875 14.59375 26.3125 
" id="ArialMT-62"/>
     </defs>
     <g style="fill:#262626;" transform="translate(608.7453125 72.48515625)scale(0.13 -0.13)">
      <use xlink:href="#ArialMT-6f"/>
      <use x="55.615234375" xlink:href="#ArialMT-62"/>
      <use x="111.23046875" xlink:href="#ArialMT-73"/>
      <use x="161.23046875" xlink:href="#ArialMT-65"/>
      <use x="216.845703125" xlink:href="#ArialMT-72"/>
      <use x="250.146484375" xlink:href="#ArialMT-76"/>
      <use x="300.146484375" xlink:href="#ArialMT-65"/>
      <use x="355.76171875" xlink:href="#ArialMT-64"/>
     </g>
    </g>
    <g id="line2d_37">
     <path d="M 572.345313 86.324063 
L 598.345313 86.324063 
" style="fill:none;opacity:0.7;stroke:#55a868;stroke-linecap:round;stroke-width:2.275;"/>
    </g>
    <g id="line2d_38"/>
    <g id="text_19">
     <!-- Forecast -->
     <defs>
      <path d="M 40.4375 6.390625 
Q 35.546875 2.25 31.03125 0.53125 
Q 26.515625 -1.171875 21.34375 -1.171875 
Q 12.796875 -1.171875 8.203125 3 
Q 3.609375 7.171875 3.609375 13.671875 
Q 3.609375 17.484375 5.34375 20.625 
Q 7.078125 23.78125 9.890625 25.6875 
Q 12.703125 27.59375 16.21875 28.5625 
Q 18.796875 29.25 24.03125 29.890625 
Q 34.671875 31.15625 39.703125 32.90625 
Q 39.75 34.71875 39.75 35.203125 
Q 39.75 40.578125 37.25 42.78125 
Q 33.890625 45.75 27.25 45.75 
Q 21.046875 45.75 18.09375 43.578125 
Q 15.140625 41.40625 13.71875 35.890625 
L 5.125 37.0625 
Q 6.296875 42.578125 8.984375 45.96875 
Q 11.671875 49.359375 16.75 51.1875 
Q 21.828125 53.03125 28.515625 53.03125 
Q 35.15625 53.03125 39.296875 51.46875 
Q 43.453125 49.90625 45.40625 47.53125 
Q 47.359375 45.171875 48.140625 41.546875 
Q 48.578125 39.3125 48.578125 33.453125 
L 48.578125 21.734375 
Q 48.578125 9.46875 49.140625 6.21875 
Q 49.703125 2.984375 51.375 0 
L 42.1875 0 
Q 40.828125 2.734375 40.4375 6.390625 
M 39.703125 26.03125 
Q 34.90625 24.078125 25.34375 22.703125 
Q 19.921875 21.921875 17.671875 20.9375 
Q 15.4375 19.96875 14.203125 18.09375 
Q 12.984375 16.21875 12.984375 13.921875 
Q 12.984375 10.40625 15.640625 8.0625 
Q 18.3125 5.71875 23.4375 5.71875 
Q 28.515625 5.71875 32.46875 7.9375 
Q 36.421875 10.15625 38.28125 14.015625 
Q 39.703125 17 39.703125 22.796875 
z
" id="ArialMT-61"/>
      <path d="M 40.4375 19 
L 49.078125 17.875 
Q 47.65625 8.9375 41.8125 3.875 
Q 35.984375 -1.171875 27.484375 -1.171875 
Q 16.84375 -1.171875 10.375 5.78125 
Q 3.90625 12.75 3.90625 25.734375 
Q 3.90625 34.125 6.6875 40.421875 
Q 9.46875 46.734375 15.15625 49.875 
Q 20.84375 53.03125 27.546875 53.03125 
Q 35.984375 53.03125 41.359375 48.75 
Q 46.734375 44.484375 48.25 36.625 
L 39.703125 35.296875 
Q 38.484375 40.53125 35.375 43.15625 
Q 32.28125 45.796875 27.875 45.796875 
Q 21.234375 45.796875 17.078125 41.03125 
Q 12.9375 36.28125 12.9375 25.984375 
Q 12.9375 15.53125 16.9375 10.796875 
Q 20.953125 6.0625 27.390625 6.0625 
Q 32.5625 6.0625 36.03125 9.234375 
Q 39.5 12.40625 40.4375 19 
" id="ArialMT-63"/>
     </defs>
     <g style="fill:#262626;" transform="translate(608.7453125 90.8740625)scale(0.13 -0.13)">
      <use xlink:href="#ArialMT-46"/>
      <use x="61.083984375" xlink:href="#ArialMT-6f"/>
      <use x="116.69921875" xlink:href="#ArialMT-72"/>
      <use x="150.0" xlink:href="#ArialMT-65"/>
      <use x="205.615234375" xlink:href="#ArialMT-63"/>
      <use x="255.615234375" xlink:href="#ArialMT-61"/>
      <use x="311.23046875" xlink:href="#ArialMT-73"/>
      <use x="361.23046875" xlink:href="#ArialMT-74"/>
     </g>
    </g>
   </g>
  </g>
 </g>
 <defs>
  <clipPath id="pfdc8dd817f">
   <rect height="398.97" width="580.32" x="93.6" y="51.48"/>
  </clipPath>
 </defs>
</svg>
