<?xml version="1.0" encoding="utf-8" standalone="no"?>
<!DOCTYPE svg PUBLIC "-//W3C//DTD SVG 1.1//EN"
  "http://www.w3.org/Graphics/SVG/1.1/DTD/svg11.dtd">
<!-- Created with matplotlib (http://matplotlib.org/) -->
<svg height="576pt" version="1.1" viewBox="0 0 720 576" width="720pt" xmlns="http://www.w3.org/2000/svg" xmlns:xlink="http://www.w3.org/1999/xlink">
 <defs>
  <style type="text/css">
*{stroke-linecap:butt;stroke-linejoin:round;stroke-miterlimit:100000;}
  </style>
 </defs>
 <g id="figure_1">
  <g id="patch_1">
   <path d="M 0 576 
L 720 576 
L 720 0 
L 0 0 
z
" style="fill:#ffffff;"/>
  </g>
  <g id="axes_1">
   <g id="patch_2">
    <path d="M 61.5355 243.976 
L 703.152 243.976 
L 703.152 16.848 
L 61.5355 16.848 
z
" style="fill:#ffffff;"/>
   </g>
   <g id="matplotlib.axis_1">
    <g id="xtick_1">
     <g id="line2d_1">
      <defs>
       <path d="M 0 0 
L 0 6 
" id="m04e023e1d1" style="stroke:#262626;stroke-width:1.3;"/>
      </defs>
      <g>
       <use style="fill:#262626;stroke:#262626;stroke-width:1.3;" x="101.846484293" xlink:href="#m04e023e1d1" y="243.976"/>
      </g>
     </g>
     <g id="text_1">
      <!-- 2001 -->
      <defs>
       <path d="M 4.15625 35.296875 
Q 4.15625 48 6.765625 55.734375 
Q 9.375 63.484375 14.515625 67.671875 
Q 19.671875 71.875 27.484375 71.875 
Q 33.25 71.875 37.59375 69.546875 
Q 41.9375 67.234375 44.765625 62.859375 
Q 47.609375 58.5 49.21875 52.21875 
Q 50.828125 45.953125 50.828125 35.296875 
Q 50.828125 22.703125 48.234375 14.96875 
Q 45.65625 7.234375 40.5 3 
Q 35.359375 -1.21875 27.484375 -1.21875 
Q 17.140625 -1.21875 11.234375 6.203125 
Q 4.15625 15.140625 4.15625 35.296875 
M 13.1875 35.296875 
Q 13.1875 17.671875 17.3125 11.828125 
Q 21.4375 6 27.484375 6 
Q 33.546875 6 37.671875 11.859375 
Q 41.796875 17.71875 41.796875 35.296875 
Q 41.796875 52.984375 37.671875 58.78125 
Q 33.546875 64.59375 27.390625 64.59375 
Q 21.34375 64.59375 17.71875 59.46875 
Q 13.1875 52.9375 13.1875 35.296875 
" id="ArialMT-30"/>
       <path d="M 37.25 0 
L 28.46875 0 
L 28.46875 56 
Q 25.296875 52.984375 20.140625 49.953125 
Q 14.984375 46.921875 10.890625 45.40625 
L 10.890625 53.90625 
Q 18.265625 57.375 23.78125 62.296875 
Q 29.296875 67.234375 31.59375 71.875 
L 37.25 71.875 
z
" id="ArialMT-31"/>
       <path d="M 50.34375 8.453125 
L 50.34375 0 
L 3.03125 0 
Q 2.9375 3.171875 4.046875 6.109375 
Q 5.859375 10.9375 9.828125 15.625 
Q 13.8125 20.3125 21.34375 26.46875 
Q 33.015625 36.03125 37.109375 41.625 
Q 41.21875 47.21875 41.21875 52.203125 
Q 41.21875 57.421875 37.46875 61 
Q 33.734375 64.59375 27.734375 64.59375 
Q 21.390625 64.59375 17.578125 60.78125 
Q 13.765625 56.984375 13.71875 50.25 
L 4.6875 51.171875 
Q 5.609375 61.28125 11.65625 66.578125 
Q 17.71875 71.875 27.9375 71.875 
Q 38.234375 71.875 44.234375 66.15625 
Q 50.25 60.453125 50.25 52 
Q 50.25 47.703125 48.484375 43.546875 
Q 46.734375 39.40625 42.65625 34.8125 
Q 38.578125 30.21875 29.109375 22.21875 
Q 21.1875 15.578125 18.9375 13.203125 
Q 16.703125 10.84375 15.234375 8.453125 
z
" id="ArialMT-32"/>
      </defs>
      <g style="fill:#262626;" transform="translate(87.3880467932 268.38115625)scale(0.13 -0.13)">
       <use xlink:href="#ArialMT-32"/>
       <use x="55.615234375" xlink:href="#ArialMT-30"/>
       <use x="111.23046875" xlink:href="#ArialMT-30"/>
       <use x="166.845703125" xlink:href="#ArialMT-31"/>
      </g>
     </g>
    </g>
    <g id="xtick_2">
     <g id="line2d_2">
      <g>
       <use style="fill:#262626;stroke:#262626;stroke-width:1.3;" x="182.46845288" xlink:href="#m04e023e1d1" y="243.976"/>
      </g>
     </g>
     <g id="text_2">
      <!-- 2003 -->
      <defs>
       <path d="M 4.203125 18.890625 
L 12.984375 20.0625 
Q 14.5 12.59375 18.140625 9.296875 
Q 21.78125 6 27 6 
Q 33.203125 6 37.46875 10.296875 
Q 41.75 14.59375 41.75 20.953125 
Q 41.75 27 37.796875 30.921875 
Q 33.84375 34.859375 27.734375 34.859375 
Q 25.25 34.859375 21.53125 33.890625 
L 22.515625 41.609375 
Q 23.390625 41.5 23.921875 41.5 
Q 29.546875 41.5 34.03125 44.421875 
Q 38.53125 47.359375 38.53125 53.46875 
Q 38.53125 58.296875 35.25 61.46875 
Q 31.984375 64.65625 26.8125 64.65625 
Q 21.6875 64.65625 18.265625 61.421875 
Q 14.84375 58.203125 13.875 51.765625 
L 5.078125 53.328125 
Q 6.6875 62.15625 12.390625 67.015625 
Q 18.109375 71.875 26.609375 71.875 
Q 32.46875 71.875 37.390625 69.359375 
Q 42.328125 66.84375 44.9375 62.5 
Q 47.5625 58.15625 47.5625 53.265625 
Q 47.5625 48.640625 45.0625 44.828125 
Q 42.578125 41.015625 37.703125 38.765625 
Q 44.046875 37.3125 47.5625 32.6875 
Q 51.078125 28.078125 51.078125 21.140625 
Q 51.078125 11.765625 44.234375 5.25 
Q 37.40625 -1.265625 26.953125 -1.265625 
Q 17.53125 -1.265625 11.296875 4.34375 
Q 5.078125 9.96875 4.203125 18.890625 
" id="ArialMT-33"/>
      </defs>
      <g style="fill:#262626;" transform="translate(168.01001538 268.38115625)scale(0.13 -0.13)">
       <use xlink:href="#ArialMT-32"/>
       <use x="55.615234375" xlink:href="#ArialMT-30"/>
       <use x="111.23046875" xlink:href="#ArialMT-30"/>
       <use x="166.845703125" xlink:href="#ArialMT-33"/>
      </g>
     </g>
    </g>
    <g id="xtick_3">
     <g id="line2d_3">
      <g>
       <use style="fill:#262626;stroke:#262626;stroke-width:1.3;" x="263.090421466" xlink:href="#m04e023e1d1" y="243.976"/>
      </g>
     </g>
     <g id="text_3">
      <!-- 2005 -->
      <defs>
       <path d="M 4.15625 18.75 
L 13.375 19.53125 
Q 14.40625 12.796875 18.140625 9.390625 
Q 21.875 6 27.15625 6 
Q 33.5 6 37.890625 10.78125 
Q 42.28125 15.578125 42.28125 23.484375 
Q 42.28125 31 38.0625 35.34375 
Q 33.84375 39.703125 27 39.703125 
Q 22.75 39.703125 19.328125 37.765625 
Q 15.921875 35.84375 13.96875 32.765625 
L 5.71875 33.84375 
L 12.640625 70.609375 
L 48.25 70.609375 
L 48.25 62.203125 
L 19.671875 62.203125 
L 15.828125 42.96875 
Q 22.265625 47.46875 29.34375 47.46875 
Q 38.71875 47.46875 45.15625 40.96875 
Q 51.609375 34.46875 51.609375 24.265625 
Q 51.609375 14.546875 45.953125 7.46875 
Q 39.0625 -1.21875 27.15625 -1.21875 
Q 17.390625 -1.21875 11.203125 4.25 
Q 5.03125 9.71875 4.15625 18.75 
" id="ArialMT-35"/>
      </defs>
      <g style="fill:#262626;" transform="translate(248.631983966 268.38115625)scale(0.13 -0.13)">
       <use xlink:href="#ArialMT-32"/>
       <use x="55.615234375" xlink:href="#ArialMT-30"/>
       <use x="111.23046875" xlink:href="#ArialMT-30"/>
       <use x="166.845703125" xlink:href="#ArialMT-35"/>
      </g>
     </g>
    </g>
    <g id="xtick_4">
     <g id="line2d_4">
      <g>
       <use style="fill:#262626;stroke:#262626;stroke-width:1.3;" x="343.712390052" xlink:href="#m04e023e1d1" y="243.976"/>
      </g>
     </g>
     <g id="text_4">
      <!-- 2007 -->
      <defs>
       <path d="M 4.734375 62.203125 
L 4.734375 70.65625 
L 51.078125 70.65625 
L 51.078125 63.8125 
Q 44.234375 56.546875 37.515625 44.484375 
Q 30.8125 32.421875 27.15625 19.671875 
Q 24.515625 10.6875 23.78125 0 
L 14.75 0 
Q 14.890625 8.453125 18.0625 20.40625 
Q 21.234375 32.375 27.171875 43.484375 
Q 33.109375 54.59375 39.796875 62.203125 
z
" id="ArialMT-37"/>
      </defs>
      <g style="fill:#262626;" transform="translate(329.253952552 268.38115625)scale(0.13 -0.13)">
       <use xlink:href="#ArialMT-32"/>
       <use x="55.615234375" xlink:href="#ArialMT-30"/>
       <use x="111.23046875" xlink:href="#ArialMT-30"/>
       <use x="166.845703125" xlink:href="#ArialMT-37"/>
      </g>
     </g>
    </g>
    <g id="xtick_5">
     <g id="line2d_5">
      <g>
       <use style="fill:#262626;stroke:#262626;stroke-width:1.3;" x="424.334358639" xlink:href="#m04e023e1d1" y="243.976"/>
      </g>
     </g>
     <g id="text_5">
      <!-- 2009 -->
      <defs>
       <path d="M 5.46875 16.546875 
L 13.921875 17.328125 
Q 14.984375 11.375 18.015625 8.6875 
Q 21.046875 6 25.78125 6 
Q 29.828125 6 32.875 7.859375 
Q 35.9375 9.71875 37.890625 12.8125 
Q 39.84375 15.921875 41.15625 21.1875 
Q 42.484375 26.46875 42.484375 31.9375 
Q 42.484375 32.515625 42.4375 33.6875 
Q 39.796875 29.5 35.234375 26.875 
Q 30.671875 24.265625 25.34375 24.265625 
Q 16.453125 24.265625 10.296875 30.703125 
Q 4.15625 37.15625 4.15625 47.703125 
Q 4.15625 58.59375 10.578125 65.234375 
Q 17 71.875 26.65625 71.875 
Q 33.640625 71.875 39.421875 68.109375 
Q 45.21875 64.359375 48.21875 57.390625 
Q 51.21875 50.4375 51.21875 37.25 
Q 51.21875 23.53125 48.234375 15.40625 
Q 45.265625 7.28125 39.375 3.03125 
Q 33.5 -1.21875 25.59375 -1.21875 
Q 17.1875 -1.21875 11.859375 3.4375 
Q 6.546875 8.109375 5.46875 16.546875 
M 41.453125 48.140625 
Q 41.453125 55.71875 37.421875 60.15625 
Q 33.40625 64.59375 27.734375 64.59375 
Q 21.875 64.59375 17.53125 59.8125 
Q 13.1875 55.03125 13.1875 47.40625 
Q 13.1875 40.578125 17.3125 36.296875 
Q 21.4375 32.03125 27.484375 32.03125 
Q 33.59375 32.03125 37.515625 36.296875 
Q 41.453125 40.578125 41.453125 48.140625 
" id="ArialMT-39"/>
      </defs>
      <g style="fill:#262626;" transform="translate(409.875921139 268.38115625)scale(0.13 -0.13)">
       <use xlink:href="#ArialMT-32"/>
       <use x="55.615234375" xlink:href="#ArialMT-30"/>
       <use x="111.23046875" xlink:href="#ArialMT-30"/>
       <use x="166.845703125" xlink:href="#ArialMT-39"/>
      </g>
     </g>
    </g>
    <g id="xtick_6">
     <g id="line2d_6">
      <g>
       <use style="fill:#262626;stroke:#262626;stroke-width:1.3;" x="504.956327225" xlink:href="#m04e023e1d1" y="243.976"/>
      </g>
     </g>
     <g id="text_6">
      <!-- 2011 -->
      <g style="fill:#262626;" transform="translate(490.5049991 268.38115625)scale(0.13 -0.13)">
       <use xlink:href="#ArialMT-32"/>
       <use x="55.615234375" xlink:href="#ArialMT-30"/>
       <use x="111.23046875" xlink:href="#ArialMT-31"/>
       <use x="166.736328125" xlink:href="#ArialMT-31"/>
      </g>
     </g>
    </g>
    <g id="xtick_7">
     <g id="line2d_7">
      <g>
       <use style="fill:#262626;stroke:#262626;stroke-width:1.3;" x="585.578295812" xlink:href="#m04e023e1d1" y="243.976"/>
      </g>
     </g>
     <g id="text_7">
      <!-- 2013 -->
      <g style="fill:#262626;" transform="translate(571.119858312 268.38115625)scale(0.13 -0.13)">
       <use xlink:href="#ArialMT-32"/>
       <use x="55.615234375" xlink:href="#ArialMT-30"/>
       <use x="111.23046875" xlink:href="#ArialMT-31"/>
       <use x="166.845703125" xlink:href="#ArialMT-33"/>
      </g>
     </g>
    </g>
    <g id="xtick_8">
     <g id="line2d_8">
      <g>
       <use style="fill:#262626;stroke:#262626;stroke-width:1.3;" x="666.200264398" xlink:href="#m04e023e1d1" y="243.976"/>
      </g>
     </g>
     <g id="text_8">
      <!-- 2015 -->
      <g style="fill:#262626;" transform="translate(651.741826898 268.38115625)scale(0.13 -0.13)">
       <use xlink:href="#ArialMT-32"/>
       <use x="55.615234375" xlink:href="#ArialMT-30"/>
       <use x="111.23046875" xlink:href="#ArialMT-31"/>
       <use x="166.845703125" xlink:href="#ArialMT-35"/>
      </g>
     </g>
    </g>
    <g id="xtick_9">
     <g id="line2d_9">
      <defs>
       <path d="M 0 0 
L 0 3 
" id="md2f6aad67c" style="stroke:#262626;stroke-width:0.65;"/>
      </defs>
      <g>
       <use style="fill:#262626;stroke:#262626;stroke-width:0.65;" x="61.5355" xlink:href="#md2f6aad67c" y="243.976"/>
      </g>
     </g>
    </g>
    <g id="xtick_10">
     <g id="line2d_10">
      <g>
       <use style="fill:#262626;stroke:#262626;stroke-width:0.65;" x="101.846484293" xlink:href="#md2f6aad67c" y="243.976"/>
      </g>
     </g>
    </g>
    <g id="xtick_11">
     <g id="line2d_11">
      <g>
       <use style="fill:#262626;stroke:#262626;stroke-width:0.65;" x="142.157468586" xlink:href="#md2f6aad67c" y="243.976"/>
      </g>
     </g>
    </g>
    <g id="xtick_12">
     <g id="line2d_12">
      <g>
       <use style="fill:#262626;stroke:#262626;stroke-width:0.65;" x="182.46845288" xlink:href="#md2f6aad67c" y="243.976"/>
      </g>
     </g>
    </g>
    <g id="xtick_13">
     <g id="line2d_13">
      <g>
       <use style="fill:#262626;stroke:#262626;stroke-width:0.65;" x="222.779437173" xlink:href="#md2f6aad67c" y="243.976"/>
      </g>
     </g>
    </g>
    <g id="xtick_14">
     <g id="line2d_14">
      <g>
       <use style="fill:#262626;stroke:#262626;stroke-width:0.65;" x="263.090421466" xlink:href="#md2f6aad67c" y="243.976"/>
      </g>
     </g>
    </g>
    <g id="xtick_15">
     <g id="line2d_15">
      <g>
       <use style="fill:#262626;stroke:#262626;stroke-width:0.65;" x="303.401405759" xlink:href="#md2f6aad67c" y="243.976"/>
      </g>
     </g>
    </g>
    <g id="xtick_16">
     <g id="line2d_16">
      <g>
       <use style="fill:#262626;stroke:#262626;stroke-width:0.65;" x="343.712390052" xlink:href="#md2f6aad67c" y="243.976"/>
      </g>
     </g>
    </g>
    <g id="xtick_17">
     <g id="line2d_17">
      <g>
       <use style="fill:#262626;stroke:#262626;stroke-width:0.65;" x="384.023374346" xlink:href="#md2f6aad67c" y="243.976"/>
      </g>
     </g>
    </g>
    <g id="xtick_18">
     <g id="line2d_18">
      <g>
       <use style="fill:#262626;stroke:#262626;stroke-width:0.65;" x="424.334358639" xlink:href="#md2f6aad67c" y="243.976"/>
      </g>
     </g>
    </g>
    <g id="xtick_19">
     <g id="line2d_19">
      <g>
       <use style="fill:#262626;stroke:#262626;stroke-width:0.65;" x="464.645342932" xlink:href="#md2f6aad67c" y="243.976"/>
      </g>
     </g>
    </g>
    <g id="xtick_20">
     <g id="line2d_20">
      <g>
       <use style="fill:#262626;stroke:#262626;stroke-width:0.65;" x="504.956327225" xlink:href="#md2f6aad67c" y="243.976"/>
      </g>
     </g>
    </g>
    <g id="xtick_21">
     <g id="line2d_21">
      <g>
       <use style="fill:#262626;stroke:#262626;stroke-width:0.65;" x="545.267311518" xlink:href="#md2f6aad67c" y="243.976"/>
      </g>
     </g>
    </g>
    <g id="xtick_22">
     <g id="line2d_22">
      <g>
       <use style="fill:#262626;stroke:#262626;stroke-width:0.65;" x="585.578295812" xlink:href="#md2f6aad67c" y="243.976"/>
      </g>
     </g>
    </g>
    <g id="xtick_23">
     <g id="line2d_23">
      <g>
       <use style="fill:#262626;stroke:#262626;stroke-width:0.65;" x="625.889280105" xlink:href="#md2f6aad67c" y="243.976"/>
      </g>
     </g>
    </g>
    <g id="xtick_24">
     <g id="line2d_24">
      <g>
       <use style="fill:#262626;stroke:#262626;stroke-width:0.65;" x="666.200264398" xlink:href="#md2f6aad67c" y="243.976"/>
      </g>
     </g>
    </g>
   </g>
   <g id="matplotlib.axis_2">
    <g id="ytick_1">
     <g id="line2d_25">
      <defs>
       <path d="M 0 0 
L -6 0 
" id="mb68d631b42" style="stroke:#262626;stroke-width:1.3;"/>
      </defs>
      <g>
       <use style="fill:#262626;stroke:#262626;stroke-width:1.3;" x="61.5355" xlink:href="#mb68d631b42" y="221.2632"/>
      </g>
     </g>
     <g id="text_9">
      <!-- −400 -->
      <defs>
       <path d="M 52.828125 31.203125 
L 5.5625 31.203125 
L 5.5625 39.40625 
L 52.828125 39.40625 
z
" id="ArialMT-2212"/>
       <path d="M 32.328125 0 
L 32.328125 17.140625 
L 1.265625 17.140625 
L 1.265625 25.203125 
L 33.9375 71.578125 
L 41.109375 71.578125 
L 41.109375 25.203125 
L 50.78125 25.203125 
L 50.78125 17.140625 
L 41.109375 17.140625 
L 41.109375 0 
z
M 32.328125 25.203125 
L 32.328125 57.46875 
L 9.90625 25.203125 
z
" id="ArialMT-34"/>
      </defs>
      <g style="fill:#262626;" transform="translate(17.15503125 224.623903125)scale(0.13 -0.13)">
       <use xlink:href="#ArialMT-2212"/>
       <use x="58.3984375" xlink:href="#ArialMT-34"/>
       <use x="114.013671875" xlink:href="#ArialMT-30"/>
       <use x="169.62890625" xlink:href="#ArialMT-30"/>
      </g>
     </g>
    </g>
    <g id="ytick_2">
     <g id="line2d_26">
      <g>
       <use style="fill:#262626;stroke:#262626;stroke-width:1.3;" x="61.5355" xlink:href="#mb68d631b42" y="175.8376"/>
      </g>
     </g>
     <g id="text_10">
      <!-- −200 -->
      <g style="fill:#262626;" transform="translate(17.15503125 179.198303125)scale(0.13 -0.13)">
       <use xlink:href="#ArialMT-2212"/>
       <use x="58.3984375" xlink:href="#ArialMT-32"/>
       <use x="114.013671875" xlink:href="#ArialMT-30"/>
       <use x="169.62890625" xlink:href="#ArialMT-30"/>
      </g>
     </g>
    </g>
    <g id="ytick_3">
     <g id="line2d_27">
      <g>
       <use style="fill:#262626;stroke:#262626;stroke-width:1.3;" x="61.5355" xlink:href="#mb68d631b42" y="130.412"/>
      </g>
     </g>
     <g id="text_11">
      <!-- 0 -->
      <g style="fill:#262626;" transform="translate(39.20628125 133.772703125)scale(0.13 -0.13)">
       <use xlink:href="#ArialMT-30"/>
      </g>
     </g>
    </g>
    <g id="ytick_4">
     <g id="line2d_28">
      <g>
       <use style="fill:#262626;stroke:#262626;stroke-width:1.3;" x="61.5355" xlink:href="#mb68d631b42" y="84.9864"/>
      </g>
     </g>
     <g id="text_12">
      <!-- 200 -->
      <g style="fill:#262626;" transform="translate(24.74784375 88.347103125)scale(0.13 -0.13)">
       <use xlink:href="#ArialMT-32"/>
       <use x="55.615234375" xlink:href="#ArialMT-30"/>
       <use x="111.23046875" xlink:href="#ArialMT-30"/>
      </g>
     </g>
    </g>
    <g id="ytick_5">
     <g id="line2d_29">
      <g>
       <use style="fill:#262626;stroke:#262626;stroke-width:1.3;" x="61.5355" xlink:href="#mb68d631b42" y="39.5608"/>
      </g>
     </g>
     <g id="text_13">
      <!-- 400 -->
      <g style="fill:#262626;" transform="translate(24.74784375 42.921503125)scale(0.13 -0.13)">
       <use xlink:href="#ArialMT-34"/>
       <use x="55.615234375" xlink:href="#ArialMT-30"/>
       <use x="111.23046875" xlink:href="#ArialMT-30"/>
      </g>
     </g>
    </g>
   </g>
   <g id="line2d_30">
    <path clip-path="url(#pe3f3ceadb5)" d="M 61.5355 231.212445 
L 64.894749 221.064953 
L 68.253997 215.552236 
L 71.613246 217.013132 
L 74.972495 213.89337 
L 78.331743 209.729307 
L 81.690992 218.572107 
L 85.050241 213.236748 
L 88.40949 226.785738 
L 91.768738 219.673895 
L 95.127987 232.569343 
L 98.487236 238.764271 
L 101.846484 160.396269 
L 105.205733 159.972945 
L 108.564982 157.250081 
L 111.92423 152.225129 
L 115.283479 149.055789 
L 118.642728 141.095269 
L 122.001976 135.593593 
L 125.361225 126.946561 
L 128.720474 159.506897 
L 132.079723 212.072571 
L 135.438971 230.317249 
L 138.79822 231.419381 
L 142.157469 220.845424 
L 145.516717 216.070034 
L 148.875966 210.350545 
L 152.235215 190.73494 
L 155.594463 186.894718 
L 158.953712 159.97365 
L 162.312961 153.364664 
L 165.672209 149.802368 
L 169.031458 166.430775 
L 172.390707 156.356743 
L 175.749955 190.79345 
L 179.109204 195.837352 
L 182.468453 93.342495 
L 185.827702 95.461539 
L 189.18695 92.445607 
L 192.546199 102.416476 
L 195.905448 110.532223 
L 199.264696 88.909343 
L 202.623945 86.380358 
L 205.983194 90.042197 
L 209.342442 93.996129 
L 212.701691 86.177991 
L 216.06094 71.752139 
L 219.420188 64.656415 
L 222.779437 61.306594 
L 226.138686 53.955126 
L 229.497935 50.723795 
L 232.857183 50.801897 
L 236.216432 57.27817 
L 239.575681 57.410734 
L 242.934929 65.525015 
L 246.294178 54.74591 
L 249.653427 79.259566 
L 253.012675 84.2915 
L 256.371924 103.705522 
L 259.731173 107.206418 
L 263.090421 130.262058 
L 266.44967 128.907195 
L 269.808919 116.931743 
L 273.168168 114.848466 
L 276.527416 112.283579 
L 279.886665 104.498412 
L 283.245914 108.133632 
L 286.605162 99.647787 
L 289.964411 109.448921 
L 293.32366 98.824165 
L 296.682908 98.023795 
L 300.042157 101.253603 
L 303.401406 73.579106 
L 306.760654 66.703043 
L 310.119903 55.127421 
L 313.479152 55.261694 
L 316.838401 50.347376 
L 320.197649 41.436582 
L 323.556898 48.373461 
L 326.916147 39.294153 
L 330.275395 56.024889 
L 333.634644 47.101395 
L 336.993893 58.537851 
L 340.353141 61.795745 
L 343.71239 56.511672 
L 347.071639 53.096172 
L 350.430887 47.665303 
L 353.790136 45.832355 
L 357.149385 45.37634 
L 360.508634 41.486052 
L 363.867882 51.11745 
L 367.227131 43.225069 
L 370.58638 60.003673 
L 373.945628 48.841625 
L 377.304877 65.931126 
L 380.664126 82.07255 
L 384.023374 87.141118 
L 387.382623 87.908402 
L 390.741872 84.222058 
L 394.10112 68.602196 
L 397.460369 77.537069 
L 400.819618 67.019283 
L 404.178866 68.895848 
L 407.538115 82.6832 
L 410.897364 107.394189 
L 414.256613 111.503446 
L 417.615861 157.535892 
L 420.97511 156.955323 
L 424.334359 166.639718 
L 427.693607 158.598186 
L 431.052856 140.150633 
L 434.412105 138.342107 
L 437.771353 142.037894 
L 441.130602 120.315127 
L 447.849099 126.573991 
L 451.208348 141.013177 
L 454.567597 142.616455 
L 457.926846 158.78157 
L 461.286094 159.508818 
L 464.645343 170.541328 
L 468.004592 159.665406 
L 471.36384 140.733243 
L 474.723089 140.291881 
L 478.082338 141.624071 
L 481.441586 119.675642 
L 484.800835 121.685064 
L 488.160084 120.042366 
L 491.519332 134.120101 
L 494.878581 134.714736 
L 498.23783 161.624714 
L 501.597079 172.737329 
L 504.956327 199.690779 
L 508.315576 170.044873 
L 511.674825 135.967355 
L 515.034073 129.530058 
L 518.393322 131.7881 
L 521.752571 105.544753 
L 525.111819 107.636235 
L 528.471068 112.338468 
L 531.830317 147.585264 
L 535.189565 147.93592 
L 538.548814 168.276037 
L 541.908063 176.499731 
L 545.267312 182.894433 
L 548.62656 173.114287 
L 551.985809 156.84495 
L 555.345058 137.983264 
L 558.704306 137.741188 
L 562.063555 113.740547 
L 565.422804 119.780393 
L 568.782052 117.888587 
L 572.141301 150.647966 
L 575.50055 139.345489 
L 578.859798 169.559569 
L 582.219047 194.776345 
L 585.578296 193.10434 
L 588.937545 180.055787 
L 595.656042 128.205662 
L 599.015291 126.916111 
L 602.374539 101.578102 
L 605.733788 104.229588 
L 609.093037 111.979732 
L 612.452285 142.414834 
L 615.811534 134.748116 
L 619.170783 169.124499 
L 622.530031 193.219555 
L 625.88928 230.723467 
L 629.248529 222.500861 
L 632.607777 197.17876 
L 635.967026 176.875665 
L 639.326275 167.553843 
L 642.685524 138.581297 
L 646.044772 142.969702 
L 649.404021 150.456084 
L 652.76327 151.488857 
L 656.122518 140.01982 
L 659.481767 178.455933 
L 662.841016 191.325738 
L 666.200264 198.85608 
L 669.559513 189.726008 
L 672.918762 149.353799 
L 676.27801 137.495714 
L 679.637259 136.961303 
L 682.996508 102.623408 
L 686.355757 106.589062 
L 689.715005 113.401387 
L 693.074254 133.564931 
L 696.433503 125.443467 
L 699.792751 142.763027 
L 703.152 162.931211 
L 703.152 162.931211 
" style="fill:none;stroke:#4c72b0;stroke-linecap:round;stroke-width:2.275;"/>
   </g>
   <g id="patch_3">
    <path d="M 61.5355 243.976 
L 703.152 243.976 
" style="fill:none;stroke:#262626;stroke-linecap:square;stroke-linejoin:miter;stroke-width:1.25;"/>
   </g>
   <g id="patch_4">
    <path d="M 61.5355 243.976 
L 61.5355 16.848 
" style="fill:none;stroke:#262626;stroke-linecap:square;stroke-linejoin:miter;stroke-width:1.25;"/>
   </g>
  </g>
  <g id="axes_2">
   <g id="patch_5">
    <path d="M 61.5355 531.452 
L 353.376 531.452 
L 353.376 304.324 
L 61.5355 304.324 
z
" style="fill:#ffffff;"/>
   </g>
   <g id="matplotlib.axis_3">
    <g id="xtick_25">
     <g id="line2d_31">
      <g>
       <use style="fill:#262626;stroke:#262626;stroke-width:1.3;" x="89.6743911846" xlink:href="#m04e023e1d1" y="531.452"/>
      </g>
     </g>
     <g id="text_14">
      <!-- 5 -->
      <g style="fill:#262626;" transform="translate(86.0597818096 555.85715625)scale(0.13 -0.13)">
       <use xlink:href="#ArialMT-35"/>
      </g>
     </g>
    </g>
    <g id="xtick_26">
     <g id="line2d_32">
      <g>
       <use style="fill:#262626;stroke:#262626;stroke-width:1.3;" x="129.872807163" xlink:href="#m04e023e1d1" y="531.452"/>
      </g>
     </g>
     <g id="text_15">
      <!-- 10 -->
      <g style="fill:#262626;" transform="translate(122.643588413 555.85715625)scale(0.13 -0.13)">
       <use xlink:href="#ArialMT-31"/>
       <use x="55.615234375" xlink:href="#ArialMT-30"/>
      </g>
     </g>
    </g>
    <g id="xtick_27">
     <g id="line2d_33">
      <g>
       <use style="fill:#262626;stroke:#262626;stroke-width:1.3;" x="170.07122314" xlink:href="#m04e023e1d1" y="531.452"/>
      </g>
     </g>
     <g id="text_16">
      <!-- 15 -->
      <g style="fill:#262626;" transform="translate(162.84200439 555.85715625)scale(0.13 -0.13)">
       <use xlink:href="#ArialMT-31"/>
       <use x="55.615234375" xlink:href="#ArialMT-35"/>
      </g>
     </g>
    </g>
    <g id="xtick_28">
     <g id="line2d_34">
      <g>
       <use style="fill:#262626;stroke:#262626;stroke-width:1.3;" x="210.269639118" xlink:href="#m04e023e1d1" y="531.452"/>
      </g>
     </g>
     <g id="text_17">
      <!-- 20 -->
      <g style="fill:#262626;" transform="translate(203.040420368 555.85715625)scale(0.13 -0.13)">
       <use xlink:href="#ArialMT-32"/>
       <use x="55.615234375" xlink:href="#ArialMT-30"/>
      </g>
     </g>
    </g>
    <g id="xtick_29">
     <g id="line2d_35">
      <g>
       <use style="fill:#262626;stroke:#262626;stroke-width:1.3;" x="250.468055096" xlink:href="#m04e023e1d1" y="531.452"/>
      </g>
     </g>
     <g id="text_18">
      <!-- 25 -->
      <g style="fill:#262626;" transform="translate(243.238836346 555.85715625)scale(0.13 -0.13)">
       <use xlink:href="#ArialMT-32"/>
       <use x="55.615234375" xlink:href="#ArialMT-35"/>
      </g>
     </g>
    </g>
    <g id="xtick_30">
     <g id="line2d_36">
      <g>
       <use style="fill:#262626;stroke:#262626;stroke-width:1.3;" x="290.666471074" xlink:href="#m04e023e1d1" y="531.452"/>
      </g>
     </g>
     <g id="text_19">
      <!-- 30 -->
      <g style="fill:#262626;" transform="translate(283.437252324 555.85715625)scale(0.13 -0.13)">
       <use xlink:href="#ArialMT-33"/>
       <use x="55.615234375" xlink:href="#ArialMT-30"/>
      </g>
     </g>
    </g>
    <g id="xtick_31">
     <g id="line2d_37">
      <g>
       <use style="fill:#262626;stroke:#262626;stroke-width:1.3;" x="330.864887052" xlink:href="#m04e023e1d1" y="531.452"/>
      </g>
     </g>
     <g id="text_20">
      <!-- 35 -->
      <g style="fill:#262626;" transform="translate(323.635668302 555.85715625)scale(0.13 -0.13)">
       <use xlink:href="#ArialMT-33"/>
       <use x="55.615234375" xlink:href="#ArialMT-35"/>
      </g>
     </g>
    </g>
   </g>
   <g id="matplotlib.axis_4">
    <g id="ytick_6">
     <g id="line2d_38">
      <g>
       <use style="fill:#262626;stroke:#262626;stroke-width:1.3;" x="61.5355" xlink:href="#mb68d631b42" y="517.884193399"/>
      </g>
     </g>
     <g id="text_21">
      <!-- −0.5 -->
      <defs>
       <path d="M 9.078125 0 
L 9.078125 10.015625 
L 19.09375 10.015625 
L 19.09375 0 
z
" id="ArialMT-2e"/>
      </defs>
      <g style="fill:#262626;" transform="translate(20.7726875 521.244896524)scale(0.13 -0.13)">
       <use xlink:href="#ArialMT-2212"/>
       <use x="58.3984375" xlink:href="#ArialMT-30"/>
       <use x="114.013671875" xlink:href="#ArialMT-2e"/>
       <use x="141.796875" xlink:href="#ArialMT-35"/>
      </g>
     </g>
    </g>
    <g id="ytick_7">
     <g id="line2d_39">
      <g>
       <use style="fill:#262626;stroke:#262626;stroke-width:1.3;" x="61.5355" xlink:href="#mb68d631b42" y="450.1387956"/>
      </g>
     </g>
     <g id="text_22">
      <!-- 0.0 -->
      <g style="fill:#262626;" transform="translate(28.3655 453.499498725)scale(0.13 -0.13)">
       <use xlink:href="#ArialMT-30"/>
       <use x="55.615234375" xlink:href="#ArialMT-2e"/>
       <use x="83.3984375" xlink:href="#ArialMT-30"/>
      </g>
     </g>
    </g>
    <g id="ytick_8">
     <g id="line2d_40">
      <g>
       <use style="fill:#262626;stroke:#262626;stroke-width:1.3;" x="61.5355" xlink:href="#mb68d631b42" y="382.3933978"/>
      </g>
     </g>
     <g id="text_23">
      <!-- 0.5 -->
      <g style="fill:#262626;" transform="translate(28.3655 385.754100925)scale(0.13 -0.13)">
       <use xlink:href="#ArialMT-30"/>
       <use x="55.615234375" xlink:href="#ArialMT-2e"/>
       <use x="83.3984375" xlink:href="#ArialMT-35"/>
      </g>
     </g>
    </g>
    <g id="ytick_9">
     <g id="line2d_41">
      <g>
       <use style="fill:#262626;stroke:#262626;stroke-width:1.3;" x="61.5355" xlink:href="#mb68d631b42" y="314.648"/>
      </g>
     </g>
     <g id="text_24">
      <!-- 1.0 -->
      <g style="fill:#262626;" transform="translate(28.3655 318.008703125)scale(0.13 -0.13)">
       <use xlink:href="#ArialMT-31"/>
       <use x="55.615234375" xlink:href="#ArialMT-2e"/>
       <use x="83.3984375" xlink:href="#ArialMT-30"/>
      </g>
     </g>
    </g>
   </g>
   <g id="PolyCollection_1">
    <defs>
     <path d="M 49.475975 -125.861204 
L 49.475975 -125.861204 
L 57.515658 -106.696273 
L 65.555342 -94.228805 
L 73.595025 -86.788258 
L 81.634708 -81.761831 
L 89.674391 -78.206474 
L 97.714074 -75.585095 
L 105.753758 -73.495036 
L 113.793441 -71.67094 
L 121.833124 -69.890783 
L 129.872807 -68.101655 
L 137.91249 -66.198748 
L 145.952174 -64.325655 
L 153.991857 -62.58024 
L 162.03154 -61.172328 
L 170.071223 -60.108023 
L 178.110906 -59.386571 
L 186.15059 -58.883426 
L 194.190273 -58.528028 
L 202.229956 -58.244047 
L 210.269639 -57.967019 
L 218.309322 -57.636216 
L 226.349006 -57.243767 
L 234.388689 -56.77904 
L 242.428372 -56.271684 
L 250.468055 -55.753267 
L 258.507738 -55.382403 
L 266.547421 -55.135892 
L 274.587105 -55.020364 
L 282.626788 -54.975868 
L 290.666471 -54.967204 
L 298.706154 -54.966569 
L 306.745837 -54.966113 
L 314.785521 -54.961828 
L 322.825204 -54.949667 
L 330.864887 -54.915847 
L 338.90457 -54.872 
L 338.90457 -196.850409 
L 338.90457 -196.850409 
L 330.864887 -196.806562 
L 322.825204 -196.772742 
L 314.785521 -196.760581 
L 306.745837 -196.756295 
L 298.706154 -196.755839 
L 290.666471 -196.755205 
L 282.626788 -196.746541 
L 274.587105 -196.702045 
L 266.547421 -196.586517 
L 258.507738 -196.340006 
L 250.468055 -195.969141 
L 242.428372 -195.450725 
L 234.388689 -194.943369 
L 226.349006 -194.478642 
L 218.309322 -194.086192 
L 210.269639 -193.75539 
L 202.229956 -193.478362 
L 194.190273 -193.194381 
L 186.15059 -192.838982 
L 178.110906 -192.335837 
L 170.071223 -191.614386 
L 162.03154 -190.550081 
L 153.991857 -189.142169 
L 145.952174 -187.396754 
L 137.91249 -185.523661 
L 129.872807 -183.620754 
L 121.833124 -181.831626 
L 113.793441 -180.051469 
L 105.753758 -178.227373 
L 97.714074 -176.137314 
L 89.674391 -173.515934 
L 81.634708 -169.960577 
L 73.595025 -164.934151 
L 65.555342 -157.493604 
L 57.515658 -145.026136 
L 49.475975 -125.861204 
z
" id="m77cba9547b" style="stroke:#000000;stroke-opacity:0.25;stroke-width:0.39;"/>
    </defs>
    <g clip-path="url(#p94bb927cc6)">
     <use style="fill:#4c72b0;fill-opacity:0.25;stroke:#000000;stroke-opacity:0.25;stroke-width:0.39;" x="0.0" xlink:href="#m77cba9547b" y="576.0"/>
    </g>
   </g>
   <g id="LineCollection_1">
    <path clip-path="url(#p94bb927cc6)" d="M 49.475975 450.138796 
L 49.475975 314.648 
" style="fill:none;stroke:#000000;stroke-width:2.275;"/>
    <path clip-path="url(#p94bb927cc6)" d="M 57.515658 450.138796 
L 57.515658 324.334026 
" style="fill:none;stroke:#000000;stroke-width:2.275;"/>
    <path clip-path="url(#p94bb927cc6)" d="M 65.555342 450.138796 
L 65.555342 335.477704 
" style="fill:none;stroke:#000000;stroke-width:2.275;"/>
    <path clip-path="url(#p94bb927cc6)" d="M 73.595025 450.138796 
L 73.595025 347.925685 
" style="fill:none;stroke:#000000;stroke-width:2.275;"/>
    <path clip-path="url(#p94bb927cc6)" d="M 81.634708 450.138796 
L 81.634708 359.848332 
" style="fill:none;stroke:#000000;stroke-width:2.275;"/>
    <path clip-path="url(#p94bb927cc6)" d="M 89.674391 450.138796 
L 89.674391 370.042545 
" style="fill:none;stroke:#000000;stroke-width:2.275;"/>
    <path clip-path="url(#p94bb927cc6)" d="M 97.714074 450.138796 
L 97.714074 376.918747 
" style="fill:none;stroke:#000000;stroke-width:2.275;"/>
    <path clip-path="url(#p94bb927cc6)" d="M 105.753758 450.138796 
L 105.753758 380.443874 
" style="fill:none;stroke:#000000;stroke-width:2.275;"/>
    <path clip-path="url(#p94bb927cc6)" d="M 113.793441 450.138796 
L 113.793441 380.133637 
" style="fill:none;stroke:#000000;stroke-width:2.275;"/>
    <path clip-path="url(#p94bb927cc6)" d="M 121.833124 450.138796 
L 121.833124 378.829571 
" style="fill:none;stroke:#000000;stroke-width:2.275;"/>
    <path clip-path="url(#p94bb927cc6)" d="M 129.872807 450.138796 
L 129.872807 375.412925 
" style="fill:none;stroke:#000000;stroke-width:2.275;"/>
    <path clip-path="url(#p94bb927cc6)" d="M 137.91249 450.138796 
L 137.91249 374.817992 
" style="fill:none;stroke:#000000;stroke-width:2.275;"/>
    <path clip-path="url(#p94bb927cc6)" d="M 145.952174 450.138796 
L 145.952174 376.35297 
" style="fill:none;stroke:#000000;stroke-width:2.275;"/>
    <path clip-path="url(#p94bb927cc6)" d="M 153.991857 450.138796 
L 153.991857 383.037791 
" style="fill:none;stroke:#000000;stroke-width:2.275;"/>
    <path clip-path="url(#p94bb927cc6)" d="M 162.03154 450.138796 
L 162.03154 391.236862 
" style="fill:none;stroke:#000000;stroke-width:2.275;"/>
    <path clip-path="url(#p94bb927cc6)" d="M 170.071223 450.138796 
L 170.071223 401.312659 
" style="fill:none;stroke:#000000;stroke-width:2.275;"/>
    <path clip-path="url(#p94bb927cc6)" d="M 178.110906 450.138796 
L 178.110906 409.175265 
" style="fill:none;stroke:#000000;stroke-width:2.275;"/>
    <path clip-path="url(#p94bb927cc6)" d="M 186.15059 450.138796 
L 186.15059 415.600503 
" style="fill:none;stroke:#000000;stroke-width:2.275;"/>
    <path clip-path="url(#p94bb927cc6)" d="M 194.190273 450.138796 
L 194.190273 419.191754 
" style="fill:none;stroke:#000000;stroke-width:2.275;"/>
    <path clip-path="url(#p94bb927cc6)" d="M 202.229956 450.138796 
L 202.229956 419.509487 
" style="fill:none;stroke:#000000;stroke-width:2.275;"/>
    <path clip-path="url(#p94bb927cc6)" d="M 210.269639 450.138796 
L 210.269639 416.593499 
" style="fill:none;stroke:#000000;stroke-width:2.275;"/>
    <path clip-path="url(#p94bb927cc6)" d="M 218.309322 450.138796 
L 218.309322 413.504327 
" style="fill:none;stroke:#000000;stroke-width:2.275;"/>
    <path clip-path="url(#p94bb927cc6)" d="M 226.349006 450.138796 
L 226.349006 410.148658 
" style="fill:none;stroke:#000000;stroke-width:2.275;"/>
    <path clip-path="url(#p94bb927cc6)" d="M 234.388689 450.138796 
L 234.388689 408.20757 
" style="fill:none;stroke:#000000;stroke-width:2.275;"/>
    <path clip-path="url(#p94bb927cc6)" d="M 242.428372 450.138796 
L 242.428372 407.596456 
" style="fill:none;stroke:#000000;stroke-width:2.275;"/>
    <path clip-path="url(#p94bb927cc6)" d="M 250.468055 450.138796 
L 250.468055 414.042115 
" style="fill:none;stroke:#000000;stroke-width:2.275;"/>
    <path clip-path="url(#p94bb927cc6)" d="M 258.507738 450.138796 
L 258.507738 420.645074 
" style="fill:none;stroke:#000000;stroke-width:2.275;"/>
    <path clip-path="url(#p94bb927cc6)" d="M 266.547421 450.138796 
L 266.547421 429.922106 
" style="fill:none;stroke:#000000;stroke-width:2.275;"/>
    <path clip-path="url(#p94bb927cc6)" d="M 274.587105 450.138796 
L 274.587105 437.585047 
" style="fill:none;stroke:#000000;stroke-width:2.275;"/>
    <path clip-path="url(#p94bb927cc6)" d="M 282.626788 450.138796 
L 282.626788 444.598148 
" style="fill:none;stroke:#000000;stroke-width:2.275;"/>
    <path clip-path="url(#p94bb927cc6)" d="M 290.666471 450.138796 
L 290.666471 448.639562 
" style="fill:none;stroke:#000000;stroke-width:2.275;"/>
    <path clip-path="url(#p94bb927cc6)" d="M 298.706154 450.138796 
L 298.706154 448.867534 
" style="fill:none;stroke:#000000;stroke-width:2.275;"/>
    <path clip-path="url(#p94bb927cc6)" d="M 306.745837 450.138796 
L 306.745837 446.241773 
" style="fill:none;stroke:#000000;stroke-width:2.275;"/>
    <path clip-path="url(#p94bb927cc6)" d="M 314.785521 450.138796 
L 314.785521 443.573908 
" style="fill:none;stroke:#000000;stroke-width:2.275;"/>
    <path clip-path="url(#p94bb927cc6)" d="M 322.825204 450.138796 
L 322.825204 439.189278 
" style="fill:none;stroke:#000000;stroke-width:2.275;"/>
    <path clip-path="url(#p94bb927cc6)" d="M 330.864887 450.138796 
L 330.864887 437.667753 
" style="fill:none;stroke:#000000;stroke-width:2.275;"/>
    <path clip-path="url(#p94bb927cc6)" d="M 338.90457 450.138796 
L 338.90457 437.490605 
" style="fill:none;stroke:#000000;stroke-width:2.275;"/>
   </g>
   <g id="line2d_42">
    <path clip-path="url(#p94bb927cc6)" d="M 61.5355 450.138796 
L 353.376 450.138796 
" style="fill:none;stroke:#0000ff;stroke-linecap:round;stroke-width:2.275;"/>
   </g>
   <g id="line2d_43">
    <defs>
     <path d="M 0 2.5 
C 0.663008 2.5 1.29895 2.236584 1.767767 1.767767 
C 2.236584 1.29895 2.5 0.663008 2.5 0 
C 2.5 -0.663008 2.236584 -1.29895 1.767767 -1.767767 
C 1.29895 -2.236584 0.663008 -2.5 0 -2.5 
C -0.663008 -2.5 -1.29895 -2.236584 -1.767767 -1.767767 
C -2.236584 -1.29895 -2.5 -0.663008 -2.5 0 
C -2.5 0.663008 -2.236584 1.29895 -1.767767 1.767767 
C -1.29895 2.236584 -0.663008 2.5 0 2.5 
z
" id="m1a9c8a12ef"/>
    </defs>
    <g clip-path="url(#p94bb927cc6)">
     <use style="fill:#4c72b0;" x="49.4759752066" xlink:href="#m1a9c8a12ef" y="314.648"/>
     <use style="fill:#4c72b0;" x="57.5156584022" xlink:href="#m1a9c8a12ef" y="324.334025532"/>
     <use style="fill:#4c72b0;" x="65.5553415978" xlink:href="#m1a9c8a12ef" y="335.477703586"/>
     <use style="fill:#4c72b0;" x="73.5950247934" xlink:href="#m1a9c8a12ef" y="347.925685125"/>
     <use style="fill:#4c72b0;" x="81.634707989" xlink:href="#m1a9c8a12ef" y="359.848332117"/>
     <use style="fill:#4c72b0;" x="89.6743911846" xlink:href="#m1a9c8a12ef" y="370.042545126"/>
     <use style="fill:#4c72b0;" x="97.7140743802" xlink:href="#m1a9c8a12ef" y="376.918746887"/>
     <use style="fill:#4c72b0;" x="105.753757576" xlink:href="#m1a9c8a12ef" y="380.443873943"/>
     <use style="fill:#4c72b0;" x="113.793440771" xlink:href="#m1a9c8a12ef" y="380.133636953"/>
     <use style="fill:#4c72b0;" x="121.833123967" xlink:href="#m1a9c8a12ef" y="378.829571166"/>
     <use style="fill:#4c72b0;" x="129.872807163" xlink:href="#m1a9c8a12ef" y="375.412924868"/>
     <use style="fill:#4c72b0;" x="137.912490358" xlink:href="#m1a9c8a12ef" y="374.81799217"/>
     <use style="fill:#4c72b0;" x="145.952173554" xlink:href="#m1a9c8a12ef" y="376.352970151"/>
     <use style="fill:#4c72b0;" x="153.991856749" xlink:href="#m1a9c8a12ef" y="383.037790524"/>
     <use style="fill:#4c72b0;" x="162.031539945" xlink:href="#m1a9c8a12ef" y="391.236861613"/>
     <use style="fill:#4c72b0;" x="170.07122314" xlink:href="#m1a9c8a12ef" y="401.312658733"/>
     <use style="fill:#4c72b0;" x="178.110906336" xlink:href="#m1a9c8a12ef" y="409.175264642"/>
     <use style="fill:#4c72b0;" x="186.150589532" xlink:href="#m1a9c8a12ef" y="415.600503199"/>
     <use style="fill:#4c72b0;" x="194.190272727" xlink:href="#m1a9c8a12ef" y="419.191753542"/>
     <use style="fill:#4c72b0;" x="202.229955923" xlink:href="#m1a9c8a12ef" y="419.509486553"/>
     <use style="fill:#4c72b0;" x="210.269639118" xlink:href="#m1a9c8a12ef" y="416.59349888"/>
     <use style="fill:#4c72b0;" x="218.309322314" xlink:href="#m1a9c8a12ef" y="413.504326954"/>
     <use style="fill:#4c72b0;" x="226.34900551" xlink:href="#m1a9c8a12ef" y="410.148657845"/>
     <use style="fill:#4c72b0;" x="234.388688705" xlink:href="#m1a9c8a12ef" y="408.207570259"/>
     <use style="fill:#4c72b0;" x="242.428371901" xlink:href="#m1a9c8a12ef" y="407.596456412"/>
     <use style="fill:#4c72b0;" x="250.468055096" xlink:href="#m1a9c8a12ef" y="414.042115295"/>
     <use style="fill:#4c72b0;" x="258.507738292" xlink:href="#m1a9c8a12ef" y="420.64507422"/>
     <use style="fill:#4c72b0;" x="266.547421488" xlink:href="#m1a9c8a12ef" y="429.922105968"/>
     <use style="fill:#4c72b0;" x="274.587104683" xlink:href="#m1a9c8a12ef" y="437.585046617"/>
     <use style="fill:#4c72b0;" x="282.626787879" xlink:href="#m1a9c8a12ef" y="444.598148282"/>
     <use style="fill:#4c72b0;" x="290.666471074" xlink:href="#m1a9c8a12ef" y="448.639562081"/>
     <use style="fill:#4c72b0;" x="298.70615427" xlink:href="#m1a9c8a12ef" y="448.86753421"/>
     <use style="fill:#4c72b0;" x="306.745837466" xlink:href="#m1a9c8a12ef" y="446.241772965"/>
     <use style="fill:#4c72b0;" x="314.785520661" xlink:href="#m1a9c8a12ef" y="443.573908195"/>
     <use style="fill:#4c72b0;" x="322.825203857" xlink:href="#m1a9c8a12ef" y="439.189278389"/>
     <use style="fill:#4c72b0;" x="330.864887052" xlink:href="#m1a9c8a12ef" y="437.667752727"/>
     <use style="fill:#4c72b0;" x="338.904570248" xlink:href="#m1a9c8a12ef" y="437.490605096"/>
    </g>
   </g>
   <g id="patch_6">
    <path d="M 61.5355 531.452 
L 353.376 531.452 
" style="fill:none;stroke:#262626;stroke-linecap:square;stroke-linejoin:miter;stroke-width:1.25;"/>
   </g>
   <g id="patch_7">
    <path d="M 61.5355 531.452 
L 61.5355 304.324 
" style="fill:none;stroke:#262626;stroke-linecap:square;stroke-linejoin:miter;stroke-width:1.25;"/>
   </g>
   <g id="text_25">
    <!-- Autocorrelation -->
    <defs>
     <path d="M 6.390625 0 
L 6.390625 71.578125 
L 15.1875 71.578125 
L 15.1875 0 
z
" id="ArialMT-6c"/>
     <path d="M 40.578125 0 
L 40.578125 7.625 
Q 34.515625 -1.171875 24.125 -1.171875 
Q 19.53125 -1.171875 15.546875 0.578125 
Q 11.578125 2.34375 9.640625 5 
Q 7.71875 7.671875 6.9375 11.53125 
Q 6.390625 14.109375 6.390625 19.734375 
L 6.390625 51.859375 
L 15.1875 51.859375 
L 15.1875 23.09375 
Q 15.1875 16.21875 15.71875 13.8125 
Q 16.546875 10.359375 19.234375 8.375 
Q 21.921875 6.390625 25.875 6.390625 
Q 29.828125 6.390625 33.296875 8.421875 
Q 36.765625 10.453125 38.203125 13.9375 
Q 39.65625 17.4375 39.65625 24.078125 
L 39.65625 51.859375 
L 48.4375 51.859375 
L 48.4375 0 
z
" id="ArialMT-75"/>
     <path d="M 6.640625 61.46875 
L 6.640625 71.578125 
L 15.4375 71.578125 
L 15.4375 61.46875 
z
M 6.640625 0 
L 6.640625 51.859375 
L 15.4375 51.859375 
L 15.4375 0 
z
" id="ArialMT-69"/>
     <path d="M 25.78125 7.859375 
L 27.046875 0.09375 
Q 23.34375 -0.6875 20.40625 -0.6875 
Q 15.625 -0.6875 12.984375 0.828125 
Q 10.359375 2.34375 9.28125 4.8125 
Q 8.203125 7.28125 8.203125 15.1875 
L 8.203125 45.015625 
L 1.765625 45.015625 
L 1.765625 51.859375 
L 8.203125 51.859375 
L 8.203125 64.703125 
L 16.9375 69.96875 
L 16.9375 51.859375 
L 25.78125 51.859375 
L 25.78125 45.015625 
L 16.9375 45.015625 
L 16.9375 14.703125 
Q 16.9375 10.9375 17.40625 9.859375 
Q 17.875 8.796875 18.921875 8.15625 
Q 19.96875 7.515625 21.921875 7.515625 
Q 23.390625 7.515625 25.78125 7.859375 
" id="ArialMT-74"/>
     <path d="M 3.328125 25.921875 
Q 3.328125 40.328125 11.328125 47.265625 
Q 18.015625 53.03125 27.640625 53.03125 
Q 38.328125 53.03125 45.109375 46.015625 
Q 51.90625 39.015625 51.90625 26.65625 
Q 51.90625 16.65625 48.90625 10.90625 
Q 45.90625 5.171875 40.15625 2 
Q 34.421875 -1.171875 27.640625 -1.171875 
Q 16.75 -1.171875 10.03125 5.8125 
Q 3.328125 12.796875 3.328125 25.921875 
M 12.359375 25.921875 
Q 12.359375 15.96875 16.703125 11.015625 
Q 21.046875 6.0625 27.640625 6.0625 
Q 34.1875 6.0625 38.53125 11.03125 
Q 42.875 16.015625 42.875 26.21875 
Q 42.875 35.84375 38.5 40.796875 
Q 34.125 45.75 27.640625 45.75 
Q 21.046875 45.75 16.703125 40.8125 
Q 12.359375 35.890625 12.359375 25.921875 
" id="ArialMT-6f"/>
     <path d="M 40.4375 19 
L 49.078125 17.875 
Q 47.65625 8.9375 41.8125 3.875 
Q 35.984375 -1.171875 27.484375 -1.171875 
Q 16.84375 -1.171875 10.375 5.78125 
Q 3.90625 12.75 3.90625 25.734375 
Q 3.90625 34.125 6.6875 40.421875 
Q 9.46875 46.734375 15.15625 49.875 
Q 20.84375 53.03125 27.546875 53.03125 
Q 35.984375 53.03125 41.359375 48.75 
Q 46.734375 44.484375 48.25 36.625 
L 39.703125 35.296875 
Q 38.484375 40.53125 35.375 43.15625 
Q 32.28125 45.796875 27.875 45.796875 
Q 21.234375 45.796875 17.078125 41.03125 
Q 12.9375 36.28125 12.9375 25.984375 
Q 12.9375 15.53125 16.9375 10.796875 
Q 20.953125 6.0625 27.390625 6.0625 
Q 32.5625 6.0625 36.03125 9.234375 
Q 39.5 12.40625 40.4375 19 
" id="ArialMT-63"/>
     <path d="M 6.59375 0 
L 6.59375 51.859375 
L 14.5 51.859375 
L 14.5 44.484375 
Q 20.21875 53.03125 31 53.03125 
Q 35.6875 53.03125 39.625 51.34375 
Q 43.5625 49.65625 45.515625 46.921875 
Q 47.46875 44.1875 48.25 40.4375 
Q 48.734375 37.984375 48.734375 31.890625 
L 48.734375 0 
L 39.9375 0 
L 39.9375 31.546875 
Q 39.9375 36.921875 38.90625 39.578125 
Q 37.890625 42.234375 35.28125 43.8125 
Q 32.671875 45.40625 29.15625 45.40625 
Q 23.53125 45.40625 19.453125 41.84375 
Q 15.375 38.28125 15.375 28.328125 
L 15.375 0 
z
" id="ArialMT-6e"/>
     <path d="M 40.4375 6.390625 
Q 35.546875 2.25 31.03125 0.53125 
Q 26.515625 -1.171875 21.34375 -1.171875 
Q 12.796875 -1.171875 8.203125 3 
Q 3.609375 7.171875 3.609375 13.671875 
Q 3.609375 17.484375 5.34375 20.625 
Q 7.078125 23.78125 9.890625 25.6875 
Q 12.703125 27.59375 16.21875 28.5625 
Q 18.796875 29.25 24.03125 29.890625 
Q 34.671875 31.15625 39.703125 32.90625 
Q 39.75 34.71875 39.75 35.203125 
Q 39.75 40.578125 37.25 42.78125 
Q 33.890625 45.75 27.25 45.75 
Q 21.046875 45.75 18.09375 43.578125 
Q 15.140625 41.40625 13.71875 35.890625 
L 5.125 37.0625 
Q 6.296875 42.578125 8.984375 45.96875 
Q 11.671875 49.359375 16.75 51.1875 
Q 21.828125 53.03125 28.515625 53.03125 
Q 35.15625 53.03125 39.296875 51.46875 
Q 43.453125 49.90625 45.40625 47.53125 
Q 47.359375 45.171875 48.140625 41.546875 
Q 48.578125 39.3125 48.578125 33.453125 
L 48.578125 21.734375 
Q 48.578125 9.46875 49.140625 6.21875 
Q 49.703125 2.984375 51.375 0 
L 42.1875 0 
Q 40.828125 2.734375 40.4375 6.390625 
M 39.703125 26.03125 
Q 34.90625 24.078125 25.34375 22.703125 
Q 19.921875 21.921875 17.671875 20.9375 
Q 15.4375 19.96875 14.203125 18.09375 
Q 12.984375 16.21875 12.984375 13.921875 
Q 12.984375 10.40625 15.640625 8.0625 
Q 18.3125 5.71875 23.4375 5.71875 
Q 28.515625 5.71875 32.46875 7.9375 
Q 36.421875 10.15625 38.28125 14.015625 
Q 39.703125 17 39.703125 22.796875 
z
" id="ArialMT-61"/>
     <path d="M -0.140625 0 
L 27.34375 71.578125 
L 37.546875 71.578125 
L 66.84375 0 
L 56.0625 0 
L 47.703125 21.6875 
L 17.78125 21.6875 
L 9.90625 0 
z
M 20.515625 29.390625 
L 44.78125 29.390625 
L 37.3125 49.21875 
Q 33.890625 58.25 32.234375 64.0625 
Q 30.859375 57.171875 28.375 50.390625 
z
" id="ArialMT-41"/>
     <path d="M 42.09375 16.703125 
L 51.171875 15.578125 
Q 49.03125 7.625 43.21875 3.21875 
Q 37.40625 -1.171875 28.375 -1.171875 
Q 17 -1.171875 10.328125 5.828125 
Q 3.65625 12.84375 3.65625 25.484375 
Q 3.65625 38.578125 10.390625 45.796875 
Q 17.140625 53.03125 27.875 53.03125 
Q 38.28125 53.03125 44.875 45.953125 
Q 51.46875 38.875 51.46875 26.03125 
Q 51.46875 25.25 51.421875 23.6875 
L 12.75 23.6875 
Q 13.234375 15.140625 17.578125 10.59375 
Q 21.921875 6.0625 28.421875 6.0625 
Q 33.25 6.0625 36.671875 8.59375 
Q 40.09375 11.140625 42.09375 16.703125 
M 13.234375 30.90625 
L 42.1875 30.90625 
Q 41.609375 37.453125 38.875 40.71875 
Q 34.671875 45.796875 27.984375 45.796875 
Q 21.921875 45.796875 17.796875 41.75 
Q 13.671875 37.703125 13.234375 30.90625 
" id="ArialMT-65"/>
     <path d="M 6.5 0 
L 6.5 51.859375 
L 14.40625 51.859375 
L 14.40625 44 
Q 17.4375 49.515625 20 51.265625 
Q 22.5625 53.03125 25.640625 53.03125 
Q 30.078125 53.03125 34.671875 50.203125 
L 31.640625 42.046875 
Q 28.421875 43.953125 25.203125 43.953125 
Q 22.3125 43.953125 20.015625 42.21875 
Q 17.71875 40.484375 16.75 37.40625 
Q 15.28125 32.71875 15.28125 27.15625 
L 15.28125 0 
z
" id="ArialMT-72"/>
    </defs>
    <g style="fill:#262626;" transform="translate(154.995875 299.324)scale(0.15600000000000003 -0.15600000000000003)">
     <use xlink:href="#ArialMT-41"/>
     <use x="66.69921875" xlink:href="#ArialMT-75"/>
     <use x="122.314453125" xlink:href="#ArialMT-74"/>
     <use x="150.09765625" xlink:href="#ArialMT-6f"/>
     <use x="205.712890625" xlink:href="#ArialMT-63"/>
     <use x="255.712890625" xlink:href="#ArialMT-6f"/>
     <use x="311.328125" xlink:href="#ArialMT-72"/>
     <use x="344.62890625" xlink:href="#ArialMT-72"/>
     <use x="377.9296875" xlink:href="#ArialMT-65"/>
     <use x="433.544921875" xlink:href="#ArialMT-6c"/>
     <use x="455.76171875" xlink:href="#ArialMT-61"/>
     <use x="511.376953125" xlink:href="#ArialMT-74"/>
     <use x="539.16015625" xlink:href="#ArialMT-69"/>
     <use x="561.376953125" xlink:href="#ArialMT-6f"/>
     <use x="616.9921875" xlink:href="#ArialMT-6e"/>
    </g>
   </g>
  </g>
  <g id="axes_3">
   <g id="patch_8">
    <path d="M 411.3115 531.452 
L 703.152 531.452 
L 703.152 304.324 
L 411.3115 304.324 
z
" style="fill:#ffffff;"/>
   </g>
   <g id="matplotlib.axis_5">
    <g id="xtick_32">
     <g id="line2d_44">
      <g>
       <use style="fill:#262626;stroke:#262626;stroke-width:1.3;" x="439.450391185" xlink:href="#m04e023e1d1" y="531.452"/>
      </g>
     </g>
     <g id="text_26">
      <!-- 5 -->
      <g style="fill:#262626;" transform="translate(435.83578181 555.85715625)scale(0.13 -0.13)">
       <use xlink:href="#ArialMT-35"/>
      </g>
     </g>
    </g>
    <g id="xtick_33">
     <g id="line2d_45">
      <g>
       <use style="fill:#262626;stroke:#262626;stroke-width:1.3;" x="479.648807163" xlink:href="#m04e023e1d1" y="531.452"/>
      </g>
     </g>
     <g id="text_27">
      <!-- 10 -->
      <g style="fill:#262626;" transform="translate(472.419588413 555.85715625)scale(0.13 -0.13)">
       <use xlink:href="#ArialMT-31"/>
       <use x="55.615234375" xlink:href="#ArialMT-30"/>
      </g>
     </g>
    </g>
    <g id="xtick_34">
     <g id="line2d_46">
      <g>
       <use style="fill:#262626;stroke:#262626;stroke-width:1.3;" x="519.84722314" xlink:href="#m04e023e1d1" y="531.452"/>
      </g>
     </g>
     <g id="text_28">
      <!-- 15 -->
      <g style="fill:#262626;" transform="translate(512.61800439 555.85715625)scale(0.13 -0.13)">
       <use xlink:href="#ArialMT-31"/>
       <use x="55.615234375" xlink:href="#ArialMT-35"/>
      </g>
     </g>
    </g>
    <g id="xtick_35">
     <g id="line2d_47">
      <g>
       <use style="fill:#262626;stroke:#262626;stroke-width:1.3;" x="560.045639118" xlink:href="#m04e023e1d1" y="531.452"/>
      </g>
     </g>
     <g id="text_29">
      <!-- 20 -->
      <g style="fill:#262626;" transform="translate(552.816420368 555.85715625)scale(0.13 -0.13)">
       <use xlink:href="#ArialMT-32"/>
       <use x="55.615234375" xlink:href="#ArialMT-30"/>
      </g>
     </g>
    </g>
    <g id="xtick_36">
     <g id="line2d_48">
      <g>
       <use style="fill:#262626;stroke:#262626;stroke-width:1.3;" x="600.244055096" xlink:href="#m04e023e1d1" y="531.452"/>
      </g>
     </g>
     <g id="text_30">
      <!-- 25 -->
      <g style="fill:#262626;" transform="translate(593.014836346 555.85715625)scale(0.13 -0.13)">
       <use xlink:href="#ArialMT-32"/>
       <use x="55.615234375" xlink:href="#ArialMT-35"/>
      </g>
     </g>
    </g>
    <g id="xtick_37">
     <g id="line2d_49">
      <g>
       <use style="fill:#262626;stroke:#262626;stroke-width:1.3;" x="640.442471074" xlink:href="#m04e023e1d1" y="531.452"/>
      </g>
     </g>
     <g id="text_31">
      <!-- 30 -->
      <g style="fill:#262626;" transform="translate(633.213252324 555.85715625)scale(0.13 -0.13)">
       <use xlink:href="#ArialMT-33"/>
       <use x="55.615234375" xlink:href="#ArialMT-30"/>
      </g>
     </g>
    </g>
    <g id="xtick_38">
     <g id="line2d_50">
      <g>
       <use style="fill:#262626;stroke:#262626;stroke-width:1.3;" x="680.640887052" xlink:href="#m04e023e1d1" y="531.452"/>
      </g>
     </g>
     <g id="text_32">
      <!-- 35 -->
      <g style="fill:#262626;" transform="translate(673.411668302 555.85715625)scale(0.13 -0.13)">
       <use xlink:href="#ArialMT-33"/>
       <use x="55.615234375" xlink:href="#ArialMT-35"/>
      </g>
     </g>
    </g>
   </g>
   <g id="matplotlib.axis_6">
    <g id="ytick_10">
     <g id="line2d_51">
      <g>
       <use style="fill:#262626;stroke:#262626;stroke-width:1.3;" x="411.3115" xlink:href="#mb68d631b42" y="512.336222104"/>
      </g>
     </g>
     <g id="text_33">
      <!-- −0.2 -->
      <g style="fill:#262626;" transform="translate(370.5486875 515.696925229)scale(0.13 -0.13)">
       <use xlink:href="#ArialMT-2212"/>
       <use x="58.3984375" xlink:href="#ArialMT-30"/>
       <use x="114.013671875" xlink:href="#ArialMT-2e"/>
       <use x="141.796875" xlink:href="#ArialMT-32"/>
      </g>
     </g>
    </g>
    <g id="ytick_11">
     <g id="line2d_52">
      <g>
       <use style="fill:#262626;stroke:#262626;stroke-width:1.3;" x="411.3115" xlink:href="#mb68d631b42" y="479.388185087"/>
      </g>
     </g>
     <g id="text_34">
      <!-- 0.0 -->
      <g style="fill:#262626;" transform="translate(378.1415 482.748888212)scale(0.13 -0.13)">
       <use xlink:href="#ArialMT-30"/>
       <use x="55.615234375" xlink:href="#ArialMT-2e"/>
       <use x="83.3984375" xlink:href="#ArialMT-30"/>
      </g>
     </g>
    </g>
    <g id="ytick_12">
     <g id="line2d_53">
      <g>
       <use style="fill:#262626;stroke:#262626;stroke-width:1.3;" x="411.3115" xlink:href="#mb68d631b42" y="446.440148069"/>
      </g>
     </g>
     <g id="text_35">
      <!-- 0.2 -->
      <g style="fill:#262626;" transform="translate(378.1415 449.800851194)scale(0.13 -0.13)">
       <use xlink:href="#ArialMT-30"/>
       <use x="55.615234375" xlink:href="#ArialMT-2e"/>
       <use x="83.3984375" xlink:href="#ArialMT-32"/>
      </g>
     </g>
    </g>
    <g id="ytick_13">
     <g id="line2d_54">
      <g>
       <use style="fill:#262626;stroke:#262626;stroke-width:1.3;" x="411.3115" xlink:href="#mb68d631b42" y="413.492111052"/>
      </g>
     </g>
     <g id="text_36">
      <!-- 0.4 -->
      <g style="fill:#262626;" transform="translate(378.1415 416.852814177)scale(0.13 -0.13)">
       <use xlink:href="#ArialMT-30"/>
       <use x="55.615234375" xlink:href="#ArialMT-2e"/>
       <use x="83.3984375" xlink:href="#ArialMT-34"/>
      </g>
     </g>
    </g>
    <g id="ytick_14">
     <g id="line2d_55">
      <g>
       <use style="fill:#262626;stroke:#262626;stroke-width:1.3;" x="411.3115" xlink:href="#mb68d631b42" y="380.544074035"/>
      </g>
     </g>
     <g id="text_37">
      <!-- 0.6 -->
      <defs>
       <path d="M 49.75 54.046875 
L 41.015625 53.375 
Q 39.84375 58.546875 37.703125 60.890625 
Q 34.125 64.65625 28.90625 64.65625 
Q 24.703125 64.65625 21.53125 62.3125 
Q 17.390625 59.28125 14.984375 53.46875 
Q 12.59375 47.65625 12.5 36.921875 
Q 15.671875 41.75 20.265625 44.09375 
Q 24.859375 46.4375 29.890625 46.4375 
Q 38.671875 46.4375 44.84375 39.96875 
Q 51.03125 33.5 51.03125 23.25 
Q 51.03125 16.5 48.125 10.71875 
Q 45.21875 4.9375 40.140625 1.859375 
Q 35.0625 -1.21875 28.609375 -1.21875 
Q 17.625 -1.21875 10.6875 6.859375 
Q 3.765625 14.9375 3.765625 33.5 
Q 3.765625 54.25 11.421875 63.671875 
Q 18.109375 71.875 29.4375 71.875 
Q 37.890625 71.875 43.28125 67.140625 
Q 48.6875 62.40625 49.75 54.046875 
M 13.875 23.1875 
Q 13.875 18.65625 15.796875 14.5 
Q 17.71875 10.359375 21.1875 8.171875 
Q 24.65625 6 28.46875 6 
Q 34.03125 6 38.03125 10.484375 
Q 42.046875 14.984375 42.046875 22.703125 
Q 42.046875 30.125 38.078125 34.390625 
Q 34.125 38.671875 28.125 38.671875 
Q 22.171875 38.671875 18.015625 34.390625 
Q 13.875 30.125 13.875 23.1875 
" id="ArialMT-36"/>
      </defs>
      <g style="fill:#262626;" transform="translate(378.1415 383.90477716)scale(0.13 -0.13)">
       <use xlink:href="#ArialMT-30"/>
       <use x="55.615234375" xlink:href="#ArialMT-2e"/>
       <use x="83.3984375" xlink:href="#ArialMT-36"/>
      </g>
     </g>
    </g>
    <g id="ytick_15">
     <g id="line2d_56">
      <g>
       <use style="fill:#262626;stroke:#262626;stroke-width:1.3;" x="411.3115" xlink:href="#mb68d631b42" y="347.596037017"/>
      </g>
     </g>
     <g id="text_38">
      <!-- 0.8 -->
      <defs>
       <path d="M 17.671875 38.8125 
Q 12.203125 40.828125 9.5625 44.53125 
Q 6.9375 48.25 6.9375 53.421875 
Q 6.9375 61.234375 12.546875 66.546875 
Q 18.171875 71.875 27.484375 71.875 
Q 36.859375 71.875 42.578125 66.421875 
Q 48.296875 60.984375 48.296875 53.171875 
Q 48.296875 48.1875 45.671875 44.5 
Q 43.0625 40.828125 37.75 38.8125 
Q 44.34375 36.671875 47.78125 31.875 
Q 51.21875 27.09375 51.21875 20.453125 
Q 51.21875 11.28125 44.71875 5.03125 
Q 38.234375 -1.21875 27.640625 -1.21875 
Q 17.046875 -1.21875 10.546875 5.046875 
Q 4.046875 11.328125 4.046875 20.703125 
Q 4.046875 27.6875 7.59375 32.390625 
Q 11.140625 37.109375 17.671875 38.8125 
M 15.921875 53.71875 
Q 15.921875 48.640625 19.1875 45.40625 
Q 22.46875 42.1875 27.6875 42.1875 
Q 32.765625 42.1875 36.015625 45.375 
Q 39.265625 48.578125 39.265625 53.21875 
Q 39.265625 58.0625 35.90625 61.359375 
Q 32.5625 64.65625 27.59375 64.65625 
Q 22.5625 64.65625 19.234375 61.421875 
Q 15.921875 58.203125 15.921875 53.71875 
M 13.09375 20.65625 
Q 13.09375 16.890625 14.875 13.375 
Q 16.65625 9.859375 20.171875 7.921875 
Q 23.6875 6 27.734375 6 
Q 34.03125 6 38.125 10.046875 
Q 42.234375 14.109375 42.234375 20.359375 
Q 42.234375 26.703125 38.015625 30.859375 
Q 33.796875 35.015625 27.4375 35.015625 
Q 21.234375 35.015625 17.15625 30.90625 
Q 13.09375 26.8125 13.09375 20.65625 
" id="ArialMT-38"/>
      </defs>
      <g style="fill:#262626;" transform="translate(378.1415 350.956740142)scale(0.13 -0.13)">
       <use xlink:href="#ArialMT-30"/>
       <use x="55.615234375" xlink:href="#ArialMT-2e"/>
       <use x="83.3984375" xlink:href="#ArialMT-38"/>
      </g>
     </g>
    </g>
    <g id="ytick_16">
     <g id="line2d_57">
      <g>
       <use style="fill:#262626;stroke:#262626;stroke-width:1.3;" x="411.3115" xlink:href="#mb68d631b42" y="314.648"/>
      </g>
     </g>
     <g id="text_39">
      <!-- 1.0 -->
      <g style="fill:#262626;" transform="translate(378.1415 318.008703125)scale(0.13 -0.13)">
       <use xlink:href="#ArialMT-31"/>
       <use x="55.615234375" xlink:href="#ArialMT-2e"/>
       <use x="83.3984375" xlink:href="#ArialMT-30"/>
      </g>
     </g>
    </g>
   </g>
   <g id="PolyCollection_2">
    <defs>
     <path d="M 399.251975 -96.611815 
L 399.251975 -96.611815 
L 407.291658 -73.30961 
L 415.331342 -73.30961 
L 423.371025 -73.30961 
L 431.410708 -73.30961 
L 439.450391 -73.30961 
L 447.490074 -73.30961 
L 455.529758 -73.30961 
L 463.569441 -73.30961 
L 471.609124 -73.30961 
L 479.648807 -73.30961 
L 487.68849 -73.30961 
L 495.728174 -73.30961 
L 503.767857 -73.30961 
L 511.80754 -73.30961 
L 519.847223 -73.30961 
L 527.886906 -73.30961 
L 535.92659 -73.30961 
L 543.966273 -73.30961 
L 552.005956 -73.30961 
L 560.045639 -73.30961 
L 568.085322 -73.30961 
L 576.125006 -73.30961 
L 584.164689 -73.30961 
L 592.204372 -73.30961 
L 600.244055 -73.30961 
L 608.283738 -73.30961 
L 616.323421 -73.30961 
L 624.363105 -73.30961 
L 632.402788 -73.30961 
L 640.442471 -73.30961 
L 648.482154 -73.30961 
L 656.521837 -73.30961 
L 664.561521 -73.30961 
L 672.601204 -73.30961 
L 680.640887 -73.30961 
L 688.68057 -73.30961 
L 688.68057 -119.91402 
L 688.68057 -119.91402 
L 680.640887 -119.91402 
L 672.601204 -119.91402 
L 664.561521 -119.91402 
L 656.521837 -119.91402 
L 648.482154 -119.91402 
L 640.442471 -119.91402 
L 632.402788 -119.91402 
L 624.363105 -119.91402 
L 616.323421 -119.91402 
L 608.283738 -119.91402 
L 600.244055 -119.91402 
L 592.204372 -119.91402 
L 584.164689 -119.91402 
L 576.125006 -119.91402 
L 568.085322 -119.91402 
L 560.045639 -119.91402 
L 552.005956 -119.91402 
L 543.966273 -119.91402 
L 535.92659 -119.91402 
L 527.886906 -119.91402 
L 519.847223 -119.91402 
L 511.80754 -119.91402 
L 503.767857 -119.91402 
L 495.728174 -119.91402 
L 487.68849 -119.91402 
L 479.648807 -119.91402 
L 471.609124 -119.91402 
L 463.569441 -119.91402 
L 455.529758 -119.91402 
L 447.490074 -119.91402 
L 439.450391 -119.91402 
L 431.410708 -119.91402 
L 423.371025 -119.91402 
L 415.331342 -119.91402 
L 407.291658 -119.91402 
L 399.251975 -96.611815 
z
" id="mb7f7d9018f" style="stroke:#000000;stroke-opacity:0.25;stroke-width:0.39;"/>
    </defs>
    <g clip-path="url(#pc8c759e4e3)">
     <use style="fill:#4c72b0;fill-opacity:0.25;stroke:#000000;stroke-opacity:0.25;stroke-width:0.39;" x="0.0" xlink:href="#mb7f7d9018f" y="576.0"/>
    </g>
   </g>
   <g id="LineCollection_2">
    <path clip-path="url(#pc8c759e4e3)" d="M 399.251975 479.388185 
L 399.251975 314.648 
" style="fill:none;stroke:#000000;stroke-width:2.275;"/>
    <path clip-path="url(#pc8c759e4e3)" d="M 407.291658 479.388185 
L 407.291658 326.425019 
" style="fill:none;stroke:#000000;stroke-width:2.275;"/>
    <path clip-path="url(#pc8c759e4e3)" d="M 415.331342 479.388185 
L 415.331342 498.35038 
" style="fill:none;stroke:#000000;stroke-width:2.275;"/>
    <path clip-path="url(#pc8c759e4e3)" d="M 423.371025 479.388185 
L 423.371025 497.485733 
" style="fill:none;stroke:#000000;stroke-width:2.275;"/>
    <path clip-path="url(#pc8c759e4e3)" d="M 431.410708 479.388185 
L 431.410708 481.838089 
" style="fill:none;stroke:#000000;stroke-width:2.275;"/>
    <path clip-path="url(#pc8c759e4e3)" d="M 439.450391 479.388185 
L 439.450391 472.473416 
" style="fill:none;stroke:#000000;stroke-width:2.275;"/>
    <path clip-path="url(#pc8c759e4e3)" d="M 447.490074 479.388185 
L 447.490074 459.842192 
" style="fill:none;stroke:#000000;stroke-width:2.275;"/>
    <path clip-path="url(#pc8c759e4e3)" d="M 455.529758 479.388185 
L 455.529758 459.968315 
" style="fill:none;stroke:#000000;stroke-width:2.275;"/>
    <path clip-path="url(#pc8c759e4e3)" d="M 463.569441 479.388185 
L 463.569441 453.772706 
" style="fill:none;stroke:#000000;stroke-width:2.275;"/>
    <path clip-path="url(#pc8c759e4e3)" d="M 471.609124 479.388185 
L 471.609124 475.330286 
" style="fill:none;stroke:#000000;stroke-width:2.275;"/>
    <path clip-path="url(#pc8c759e4e3)" d="M 479.648807 479.388185 
L 479.648807 458.913264 
" style="fill:none;stroke:#000000;stroke-width:2.275;"/>
    <path clip-path="url(#pc8c759e4e3)" d="M 487.68849 479.388185 
L 487.68849 497.759664 
" style="fill:none;stroke:#000000;stroke-width:2.275;"/>
    <path clip-path="url(#pc8c759e4e3)" d="M 495.728174 479.388185 
L 495.728174 487.748193 
" style="fill:none;stroke:#000000;stroke-width:2.275;"/>
    <path clip-path="url(#pc8c759e4e3)" d="M 503.767857 479.388185 
L 503.767857 513.373645 
" style="fill:none;stroke:#000000;stroke-width:2.275;"/>
    <path clip-path="url(#pc8c759e4e3)" d="M 511.80754 479.388185 
L 511.80754 482.721659 
" style="fill:none;stroke:#000000;stroke-width:2.275;"/>
    <path clip-path="url(#pc8c759e4e3)" d="M 519.847223 479.388185 
L 519.847223 491.357807 
" style="fill:none;stroke:#000000;stroke-width:2.275;"/>
    <path clip-path="url(#pc8c759e4e3)" d="M 527.886906 479.388185 
L 527.886906 462.576986 
" style="fill:none;stroke:#000000;stroke-width:2.275;"/>
    <path clip-path="url(#pc8c759e4e3)" d="M 535.92659 479.388185 
L 535.92659 477.351078 
" style="fill:none;stroke:#000000;stroke-width:2.275;"/>
    <path clip-path="url(#pc8c759e4e3)" d="M 543.966273 479.388185 
L 543.966273 475.563947 
" style="fill:none;stroke:#000000;stroke-width:2.275;"/>
    <path clip-path="url(#pc8c759e4e3)" d="M 552.005956 479.388185 
L 552.005956 467.054339 
" style="fill:none;stroke:#000000;stroke-width:2.275;"/>
    <path clip-path="url(#pc8c759e4e3)" d="M 560.045639 479.388185 
L 560.045639 470.64238 
" style="fill:none;stroke:#000000;stroke-width:2.275;"/>
    <path clip-path="url(#pc8c759e4e3)" d="M 568.085322 479.388185 
L 568.085322 482.303339 
" style="fill:none;stroke:#000000;stroke-width:2.275;"/>
    <path clip-path="url(#pc8c759e4e3)" d="M 576.125006 479.388185 
L 576.125006 480.769074 
" style="fill:none;stroke:#000000;stroke-width:2.275;"/>
    <path clip-path="url(#pc8c759e4e3)" d="M 584.164689 479.388185 
L 584.164689 472.319146 
" style="fill:none;stroke:#000000;stroke-width:2.275;"/>
    <path clip-path="url(#pc8c759e4e3)" d="M 592.204372 479.388185 
L 592.204372 475.854812 
" style="fill:none;stroke:#000000;stroke-width:2.275;"/>
    <path clip-path="url(#pc8c759e4e3)" d="M 600.244055 479.388185 
L 600.244055 521.128 
" style="fill:none;stroke:#000000;stroke-width:2.275;"/>
    <path clip-path="url(#pc8c759e4e3)" d="M 608.283738 479.388185 
L 608.283738 469.477741 
" style="fill:none;stroke:#000000;stroke-width:2.275;"/>
    <path clip-path="url(#pc8c759e4e3)" d="M 616.323421 479.388185 
L 616.323421 500.67289 
" style="fill:none;stroke:#000000;stroke-width:2.275;"/>
    <path clip-path="url(#pc8c759e4e3)" d="M 624.363105 479.388185 
L 624.363105 471.52429 
" style="fill:none;stroke:#000000;stroke-width:2.275;"/>
    <path clip-path="url(#pc8c759e4e3)" d="M 632.402788 479.388185 
L 632.402788 492.039096 
" style="fill:none;stroke:#000000;stroke-width:2.275;"/>
    <path clip-path="url(#pc8c759e4e3)" d="M 640.442471 479.388185 
L 640.442471 475.300172 
" style="fill:none;stroke:#000000;stroke-width:2.275;"/>
    <path clip-path="url(#pc8c759e4e3)" d="M 648.482154 479.388185 
L 648.482154 466.935552 
" style="fill:none;stroke:#000000;stroke-width:2.275;"/>
    <path clip-path="url(#pc8c759e4e3)" d="M 656.521837 479.388185 
L 656.521837 475.76415 
" style="fill:none;stroke:#000000;stroke-width:2.275;"/>
    <path clip-path="url(#pc8c759e4e3)" d="M 664.561521 479.388185 
L 664.561521 484.185738 
" style="fill:none;stroke:#000000;stroke-width:2.275;"/>
    <path clip-path="url(#pc8c759e4e3)" d="M 672.601204 479.388185 
L 672.601204 472.375313 
" style="fill:none;stroke:#000000;stroke-width:2.275;"/>
    <path clip-path="url(#pc8c759e4e3)" d="M 680.640887 479.388185 
L 680.640887 484.784435 
" style="fill:none;stroke:#000000;stroke-width:2.275;"/>
    <path clip-path="url(#pc8c759e4e3)" d="M 688.68057 479.388185 
L 688.68057 481.413853 
" style="fill:none;stroke:#000000;stroke-width:2.275;"/>
   </g>
   <g id="line2d_58">
    <path clip-path="url(#pc8c759e4e3)" d="M 411.3115 479.388185 
L 703.152 479.388185 
" style="fill:none;stroke:#0000ff;stroke-linecap:round;stroke-width:2.275;"/>
   </g>
   <g id="line2d_59">
    <g clip-path="url(#pc8c759e4e3)">
     <use style="fill:#4c72b0;" x="399.251975207" xlink:href="#m1a9c8a12ef" y="314.648"/>
     <use style="fill:#4c72b0;" x="407.291658402" xlink:href="#m1a9c8a12ef" y="326.42501874"/>
     <use style="fill:#4c72b0;" x="415.331341598" xlink:href="#m1a9c8a12ef" y="498.350380146"/>
     <use style="fill:#4c72b0;" x="423.371024793" xlink:href="#m1a9c8a12ef" y="497.485732879"/>
     <use style="fill:#4c72b0;" x="431.410707989" xlink:href="#m1a9c8a12ef" y="481.838089371"/>
     <use style="fill:#4c72b0;" x="439.450391185" xlink:href="#m1a9c8a12ef" y="472.473416032"/>
     <use style="fill:#4c72b0;" x="447.49007438" xlink:href="#m1a9c8a12ef" y="459.842192344"/>
     <use style="fill:#4c72b0;" x="455.529757576" xlink:href="#m1a9c8a12ef" y="459.968314718"/>
     <use style="fill:#4c72b0;" x="463.569440771" xlink:href="#m1a9c8a12ef" y="453.772705781"/>
     <use style="fill:#4c72b0;" x="471.609123967" xlink:href="#m1a9c8a12ef" y="475.330285933"/>
     <use style="fill:#4c72b0;" x="479.648807163" xlink:href="#m1a9c8a12ef" y="458.913264357"/>
     <use style="fill:#4c72b0;" x="487.688490358" xlink:href="#m1a9c8a12ef" y="497.75966423"/>
     <use style="fill:#4c72b0;" x="495.728173554" xlink:href="#m1a9c8a12ef" y="487.748193494"/>
     <use style="fill:#4c72b0;" x="503.767856749" xlink:href="#m1a9c8a12ef" y="513.373644753"/>
     <use style="fill:#4c72b0;" x="511.807539945" xlink:href="#m1a9c8a12ef" y="482.72165949"/>
     <use style="fill:#4c72b0;" x="519.84722314" xlink:href="#m1a9c8a12ef" y="491.35780706"/>
     <use style="fill:#4c72b0;" x="527.886906336" xlink:href="#m1a9c8a12ef" y="462.576985868"/>
     <use style="fill:#4c72b0;" x="535.926589532" xlink:href="#m1a9c8a12ef" y="477.351078374"/>
     <use style="fill:#4c72b0;" x="543.966272727" xlink:href="#m1a9c8a12ef" y="475.56394654"/>
     <use style="fill:#4c72b0;" x="552.005955923" xlink:href="#m1a9c8a12ef" y="467.05433869"/>
     <use style="fill:#4c72b0;" x="560.045639118" xlink:href="#m1a9c8a12ef" y="470.64237951"/>
     <use style="fill:#4c72b0;" x="568.085322314" xlink:href="#m1a9c8a12ef" y="482.303338572"/>
     <use style="fill:#4c72b0;" x="576.12500551" xlink:href="#m1a9c8a12ef" y="480.769074471"/>
     <use style="fill:#4c72b0;" x="584.164688705" xlink:href="#m1a9c8a12ef" y="472.319146156"/>
     <use style="fill:#4c72b0;" x="592.204371901" xlink:href="#m1a9c8a12ef" y="475.854812194"/>
     <use style="fill:#4c72b0;" x="600.244055096" xlink:href="#m1a9c8a12ef" y="521.128"/>
     <use style="fill:#4c72b0;" x="608.283738292" xlink:href="#m1a9c8a12ef" y="469.47774092"/>
     <use style="fill:#4c72b0;" x="616.323421488" xlink:href="#m1a9c8a12ef" y="500.672890154"/>
     <use style="fill:#4c72b0;" x="624.363104683" xlink:href="#m1a9c8a12ef" y="471.52428997"/>
     <use style="fill:#4c72b0;" x="632.402787879" xlink:href="#m1a9c8a12ef" y="492.039095999"/>
     <use style="fill:#4c72b0;" x="640.442471074" xlink:href="#m1a9c8a12ef" y="475.300172171"/>
     <use style="fill:#4c72b0;" x="648.48215427" xlink:href="#m1a9c8a12ef" y="466.935552145"/>
     <use style="fill:#4c72b0;" x="656.521837466" xlink:href="#m1a9c8a12ef" y="475.764150195"/>
     <use style="fill:#4c72b0;" x="664.561520661" xlink:href="#m1a9c8a12ef" y="484.185738389"/>
     <use style="fill:#4c72b0;" x="672.601203857" xlink:href="#m1a9c8a12ef" y="472.375312931"/>
     <use style="fill:#4c72b0;" x="680.640887052" xlink:href="#m1a9c8a12ef" y="484.784435134"/>
     <use style="fill:#4c72b0;" x="688.680570248" xlink:href="#m1a9c8a12ef" y="481.413853456"/>
    </g>
   </g>
   <g id="patch_9">
    <path d="M 411.3115 531.452 
L 703.152 531.452 
" style="fill:none;stroke:#262626;stroke-linecap:square;stroke-linejoin:miter;stroke-width:1.25;"/>
   </g>
   <g id="patch_10">
    <path d="M 411.3115 531.452 
L 411.3115 304.324 
" style="fill:none;stroke:#262626;stroke-linecap:square;stroke-linejoin:miter;stroke-width:1.25;"/>
   </g>
   <g id="text_40">
    <!-- Partial Autocorrelation -->
    <defs>
     <path id="ArialMT-20"/>
     <path d="M 7.71875 0 
L 7.71875 71.578125 
L 34.71875 71.578125 
Q 41.84375 71.578125 45.609375 70.90625 
Q 50.875 70.015625 54.4375 67.546875 
Q 58.015625 65.09375 60.1875 60.640625 
Q 62.359375 56.203125 62.359375 50.875 
Q 62.359375 41.75 56.546875 35.421875 
Q 50.734375 29.109375 35.546875 29.109375 
L 17.1875 29.109375 
L 17.1875 0 
z
M 17.1875 37.546875 
L 35.6875 37.546875 
Q 44.875 37.546875 48.734375 40.96875 
Q 52.59375 44.390625 52.59375 50.59375 
Q 52.59375 55.078125 50.3125 58.265625 
Q 48.046875 61.46875 44.34375 62.5 
Q 41.9375 63.140625 35.5 63.140625 
L 17.1875 63.140625 
z
" id="ArialMT-50"/>
    </defs>
    <g style="fill:#262626;" transform="translate(480.50290625 299.324)scale(0.15600000000000003 -0.15600000000000003)">
     <use xlink:href="#ArialMT-50"/>
     <use x="66.69921875" xlink:href="#ArialMT-61"/>
     <use x="122.314453125" xlink:href="#ArialMT-72"/>
     <use x="155.615234375" xlink:href="#ArialMT-74"/>
     <use x="183.3984375" xlink:href="#ArialMT-69"/>
     <use x="205.615234375" xlink:href="#ArialMT-61"/>
     <use x="261.23046875" xlink:href="#ArialMT-6c"/>
     <use x="283.447265625" xlink:href="#ArialMT-20"/>
     <use x="311.15234375" xlink:href="#ArialMT-41"/>
     <use x="377.8515625" xlink:href="#ArialMT-75"/>
     <use x="433.466796875" xlink:href="#ArialMT-74"/>
     <use x="461.25" xlink:href="#ArialMT-6f"/>
     <use x="516.865234375" xlink:href="#ArialMT-63"/>
     <use x="566.865234375" xlink:href="#ArialMT-6f"/>
     <use x="622.48046875" xlink:href="#ArialMT-72"/>
     <use x="655.78125" xlink:href="#ArialMT-72"/>
     <use x="689.08203125" xlink:href="#ArialMT-65"/>
     <use x="744.697265625" xlink:href="#ArialMT-6c"/>
     <use x="766.9140625" xlink:href="#ArialMT-61"/>
     <use x="822.529296875" xlink:href="#ArialMT-74"/>
     <use x="850.3125" xlink:href="#ArialMT-69"/>
     <use x="872.529296875" xlink:href="#ArialMT-6f"/>
     <use x="928.14453125" xlink:href="#ArialMT-6e"/>
    </g>
   </g>
  </g>
 </g>
 <defs>
  <clipPath id="pc8c759e4e3">
   <rect height="227.128" width="291.8405" x="411.3115" y="304.324"/>
  </clipPath>
  <clipPath id="p94bb927cc6">
   <rect height="227.128" width="291.8405" x="61.5355" y="304.324"/>
  </clipPath>
  <clipPath id="pe3f3ceadb5">
   <rect height="227.128" width="641.6165" x="61.5355" y="16.848"/>
  </clipPath>
 </defs>
</svg>
