<?xml version="1.0" encoding="utf-8" standalone="no"?>
<!DOCTYPE svg PUBLIC "-//W3C//DTD SVG 1.1//EN"
  "http://www.w3.org/Graphics/SVG/1.1/DTD/svg11.dtd">
<!-- Created with matplotlib (http://matplotlib.org/) -->
<svg height="514pt" version="1.1" viewBox="0 0 748 514" width="748pt" xmlns="http://www.w3.org/2000/svg" xmlns:xlink="http://www.w3.org/1999/xlink">
 <defs>
  <style type="text/css">
*{stroke-linecap:butt;stroke-linejoin:round;stroke-miterlimit:100000;}
  </style>
 </defs>
 <g id="figure_1">
  <g id="patch_1">
   <path d="M 0 514.8 
L 748.8 514.8 
L 748.8 0 
L 0 0 
z
" style="fill:#ffffff;"/>
  </g>
  <g id="axes_1">
   <g id="patch_2">
    <path d="M 53.8855 426.49633 
L 731.952 426.49633 
L 731.952 23.148 
L 53.8855 23.148 
z
" style="fill:#ffffff;"/>
   </g>
   <g id="matplotlib.axis_1">
    <g id="xtick_1">
     <g id="line2d_1">
      <defs>
       <path d="M 0 0 
L 0 6 
" id="m81572ec0f9" style="stroke:#262626;stroke-width:1.3;"/>
      </defs>
      <g>
       <use style="fill:#262626;stroke:#262626;stroke-width:1.3;" x="137.132347394" xlink:href="#m81572ec0f9" y="426.496329912"/>
      </g>
     </g>
     <g id="text_1">
      <!-- Jul 2006 -->
      <defs>
       <path d="M 40.578125 0 
L 40.578125 7.625 
Q 34.515625 -1.171875 24.125 -1.171875 
Q 19.53125 -1.171875 15.546875 0.578125 
Q 11.578125 2.34375 9.640625 5 
Q 7.71875 7.671875 6.9375 11.53125 
Q 6.390625 14.109375 6.390625 19.734375 
L 6.390625 51.859375 
L 15.1875 51.859375 
L 15.1875 23.09375 
Q 15.1875 16.21875 15.71875 13.8125 
Q 16.546875 10.359375 19.234375 8.375 
Q 21.921875 6.390625 25.875 6.390625 
Q 29.828125 6.390625 33.296875 8.421875 
Q 36.765625 10.453125 38.203125 13.9375 
Q 39.65625 17.4375 39.65625 24.078125 
L 39.65625 51.859375 
L 48.4375 51.859375 
L 48.4375 0 
z
" id="ArialMT-75"/>
       <path id="ArialMT-20"/>
       <path d="M 2.875 20.3125 
L 11.421875 21.484375 
Q 11.765625 13.28125 14.5 10.25 
Q 17.234375 7.234375 22.078125 7.234375 
Q 25.640625 7.234375 28.21875 8.859375 
Q 30.8125 10.5 31.78125 13.296875 
Q 32.765625 16.109375 32.765625 22.265625 
L 32.765625 71.578125 
L 42.234375 71.578125 
L 42.234375 22.796875 
Q 42.234375 13.8125 40.0625 8.875 
Q 37.890625 3.953125 33.171875 1.359375 
Q 28.46875 -1.21875 22.125 -1.21875 
Q 12.703125 -1.21875 7.6875 4.203125 
Q 2.6875 9.625 2.875 20.3125 
" id="ArialMT-4a"/>
       <path d="M 6.390625 0 
L 6.390625 71.578125 
L 15.1875 71.578125 
L 15.1875 0 
z
" id="ArialMT-6c"/>
       <path d="M 4.15625 35.296875 
Q 4.15625 48 6.765625 55.734375 
Q 9.375 63.484375 14.515625 67.671875 
Q 19.671875 71.875 27.484375 71.875 
Q 33.25 71.875 37.59375 69.546875 
Q 41.9375 67.234375 44.765625 62.859375 
Q 47.609375 58.5 49.21875 52.21875 
Q 50.828125 45.953125 50.828125 35.296875 
Q 50.828125 22.703125 48.234375 14.96875 
Q 45.65625 7.234375 40.5 3 
Q 35.359375 -1.21875 27.484375 -1.21875 
Q 17.140625 -1.21875 11.234375 6.203125 
Q 4.15625 15.140625 4.15625 35.296875 
M 13.1875 35.296875 
Q 13.1875 17.671875 17.3125 11.828125 
Q 21.4375 6 27.484375 6 
Q 33.546875 6 37.671875 11.859375 
Q 41.796875 17.71875 41.796875 35.296875 
Q 41.796875 52.984375 37.671875 58.78125 
Q 33.546875 64.59375 27.390625 64.59375 
Q 21.34375 64.59375 17.71875 59.46875 
Q 13.1875 52.9375 13.1875 35.296875 
" id="ArialMT-30"/>
       <path d="M 50.34375 8.453125 
L 50.34375 0 
L 3.03125 0 
Q 2.9375 3.171875 4.046875 6.109375 
Q 5.859375 10.9375 9.828125 15.625 
Q 13.8125 20.3125 21.34375 26.46875 
Q 33.015625 36.03125 37.109375 41.625 
Q 41.21875 47.21875 41.21875 52.203125 
Q 41.21875 57.421875 37.46875 61 
Q 33.734375 64.59375 27.734375 64.59375 
Q 21.390625 64.59375 17.578125 60.78125 
Q 13.765625 56.984375 13.71875 50.25 
L 4.6875 51.171875 
Q 5.609375 61.28125 11.65625 66.578125 
Q 17.71875 71.875 27.9375 71.875 
Q 38.234375 71.875 44.234375 66.15625 
Q 50.25 60.453125 50.25 52 
Q 50.25 47.703125 48.484375 43.546875 
Q 46.734375 39.40625 42.65625 34.8125 
Q 38.578125 30.21875 29.109375 22.21875 
Q 21.1875 15.578125 18.9375 13.203125 
Q 16.703125 10.84375 15.234375 8.453125 
z
" id="ArialMT-32"/>
       <path d="M 49.75 54.046875 
L 41.015625 53.375 
Q 39.84375 58.546875 37.703125 60.890625 
Q 34.125 64.65625 28.90625 64.65625 
Q 24.703125 64.65625 21.53125 62.3125 
Q 17.390625 59.28125 14.984375 53.46875 
Q 12.59375 47.65625 12.5 36.921875 
Q 15.671875 41.75 20.265625 44.09375 
Q 24.859375 46.4375 29.890625 46.4375 
Q 38.671875 46.4375 44.84375 39.96875 
Q 51.03125 33.5 51.03125 23.25 
Q 51.03125 16.5 48.125 10.71875 
Q 45.21875 4.9375 40.140625 1.859375 
Q 35.0625 -1.21875 28.609375 -1.21875 
Q 17.625 -1.21875 10.6875 6.859375 
Q 3.765625 14.9375 3.765625 33.5 
Q 3.765625 54.25 11.421875 63.671875 
Q 18.109375 71.875 29.4375 71.875 
Q 37.890625 71.875 43.28125 67.140625 
Q 48.6875 62.40625 49.75 54.046875 
M 13.875 23.1875 
Q 13.875 18.65625 15.796875 14.5 
Q 17.71875 10.359375 21.1875 8.171875 
Q 24.65625 6 28.46875 6 
Q 34.03125 6 38.03125 10.484375 
Q 42.046875 14.984375 42.046875 22.703125 
Q 42.046875 30.125 38.078125 34.390625 
Q 34.125 38.671875 28.125 38.671875 
Q 22.171875 38.671875 18.015625 34.390625 
Q 13.875 30.125 13.875 23.1875 
" id="ArialMT-36"/>
      </defs>
      <g style="fill:#262626;" transform="translate(93.2787067094 474.227878486)rotate(-30.0)scale(0.13 -0.13)">
       <use xlink:href="#ArialMT-4a"/>
       <use x="50.0" xlink:href="#ArialMT-75"/>
       <use x="105.615234375" xlink:href="#ArialMT-6c"/>
       <use x="127.83203125" xlink:href="#ArialMT-20"/>
       <use x="155.615234375" xlink:href="#ArialMT-32"/>
       <use x="211.23046875" xlink:href="#ArialMT-30"/>
       <use x="266.845703125" xlink:href="#ArialMT-30"/>
       <use x="322.4609375" xlink:href="#ArialMT-36"/>
      </g>
     </g>
    </g>
    <g id="xtick_2">
     <g id="line2d_2">
      <g>
       <use style="fill:#262626;stroke:#262626;stroke-width:1.3;" x="222.70452572" xlink:href="#m81572ec0f9" y="426.496329912"/>
      </g>
     </g>
     <g id="text_2">
      <!-- Jan 2007 -->
      <defs>
       <path d="M 40.4375 6.390625 
Q 35.546875 2.25 31.03125 0.53125 
Q 26.515625 -1.171875 21.34375 -1.171875 
Q 12.796875 -1.171875 8.203125 3 
Q 3.609375 7.171875 3.609375 13.671875 
Q 3.609375 17.484375 5.34375 20.625 
Q 7.078125 23.78125 9.890625 25.6875 
Q 12.703125 27.59375 16.21875 28.5625 
Q 18.796875 29.25 24.03125 29.890625 
Q 34.671875 31.15625 39.703125 32.90625 
Q 39.75 34.71875 39.75 35.203125 
Q 39.75 40.578125 37.25 42.78125 
Q 33.890625 45.75 27.25 45.75 
Q 21.046875 45.75 18.09375 43.578125 
Q 15.140625 41.40625 13.71875 35.890625 
L 5.125 37.0625 
Q 6.296875 42.578125 8.984375 45.96875 
Q 11.671875 49.359375 16.75 51.1875 
Q 21.828125 53.03125 28.515625 53.03125 
Q 35.15625 53.03125 39.296875 51.46875 
Q 43.453125 49.90625 45.40625 47.53125 
Q 47.359375 45.171875 48.140625 41.546875 
Q 48.578125 39.3125 48.578125 33.453125 
L 48.578125 21.734375 
Q 48.578125 9.46875 49.140625 6.21875 
Q 49.703125 2.984375 51.375 0 
L 42.1875 0 
Q 40.828125 2.734375 40.4375 6.390625 
M 39.703125 26.03125 
Q 34.90625 24.078125 25.34375 22.703125 
Q 19.921875 21.921875 17.671875 20.9375 
Q 15.4375 19.96875 14.203125 18.09375 
Q 12.984375 16.21875 12.984375 13.921875 
Q 12.984375 10.40625 15.640625 8.0625 
Q 18.3125 5.71875 23.4375 5.71875 
Q 28.515625 5.71875 32.46875 7.9375 
Q 36.421875 10.15625 38.28125 14.015625 
Q 39.703125 17 39.703125 22.796875 
z
" id="ArialMT-61"/>
       <path d="M 4.734375 62.203125 
L 4.734375 70.65625 
L 51.078125 70.65625 
L 51.078125 63.8125 
Q 44.234375 56.546875 37.515625 44.484375 
Q 30.8125 32.421875 27.15625 19.671875 
Q 24.515625 10.6875 23.78125 0 
L 14.75 0 
Q 14.890625 8.453125 18.0625 20.40625 
Q 21.234375 32.375 27.171875 43.484375 
Q 33.109375 54.59375 39.796875 62.203125 
z
" id="ArialMT-37"/>
       <path d="M 6.59375 0 
L 6.59375 51.859375 
L 14.5 51.859375 
L 14.5 44.484375 
Q 20.21875 53.03125 31 53.03125 
Q 35.6875 53.03125 39.625 51.34375 
Q 43.5625 49.65625 45.515625 46.921875 
Q 47.46875 44.1875 48.25 40.4375 
Q 48.734375 37.984375 48.734375 31.890625 
L 48.734375 0 
L 39.9375 0 
L 39.9375 31.546875 
Q 39.9375 36.921875 38.90625 39.578125 
Q 37.890625 42.234375 35.28125 43.8125 
Q 32.671875 45.40625 29.15625 45.40625 
Q 23.53125 45.40625 19.453125 41.84375 
Q 15.375 38.28125 15.375 28.328125 
L 15.375 0 
z
" id="ArialMT-6e"/>
      </defs>
      <g style="fill:#262626;" transform="translate(175.091658201 476.398269111)rotate(-30.0)scale(0.13 -0.13)">
       <use xlink:href="#ArialMT-4a"/>
       <use x="50.0" xlink:href="#ArialMT-61"/>
       <use x="105.615234375" xlink:href="#ArialMT-6e"/>
       <use x="161.23046875" xlink:href="#ArialMT-20"/>
       <use x="189.013671875" xlink:href="#ArialMT-32"/>
       <use x="244.62890625" xlink:href="#ArialMT-30"/>
       <use x="300.244140625" xlink:href="#ArialMT-30"/>
       <use x="355.859375" xlink:href="#ArialMT-37"/>
      </g>
     </g>
    </g>
    <g id="xtick_3">
     <g id="line2d_3">
      <g>
       <use style="fill:#262626;stroke:#262626;stroke-width:1.3;" x="306.881505487" xlink:href="#m81572ec0f9" y="426.496329912"/>
      </g>
     </g>
     <g id="text_3">
      <!-- Jul 2007 -->
      <g style="fill:#262626;" transform="translate(263.027864803 474.227878486)rotate(-30.0)scale(0.13 -0.13)">
       <use xlink:href="#ArialMT-4a"/>
       <use x="50.0" xlink:href="#ArialMT-75"/>
       <use x="105.615234375" xlink:href="#ArialMT-6c"/>
       <use x="127.83203125" xlink:href="#ArialMT-20"/>
       <use x="155.615234375" xlink:href="#ArialMT-32"/>
       <use x="211.23046875" xlink:href="#ArialMT-30"/>
       <use x="266.845703125" xlink:href="#ArialMT-30"/>
       <use x="322.4609375" xlink:href="#ArialMT-37"/>
      </g>
     </g>
    </g>
    <g id="xtick_4">
     <g id="line2d_4">
      <g>
       <use style="fill:#262626;stroke:#262626;stroke-width:1.3;" x="392.453683813" xlink:href="#m81572ec0f9" y="426.496329912"/>
      </g>
     </g>
     <g id="text_4">
      <!-- Jan 2008 -->
      <defs>
       <path d="M 17.671875 38.8125 
Q 12.203125 40.828125 9.5625 44.53125 
Q 6.9375 48.25 6.9375 53.421875 
Q 6.9375 61.234375 12.546875 66.546875 
Q 18.171875 71.875 27.484375 71.875 
Q 36.859375 71.875 42.578125 66.421875 
Q 48.296875 60.984375 48.296875 53.171875 
Q 48.296875 48.1875 45.671875 44.5 
Q 43.0625 40.828125 37.75 38.8125 
Q 44.34375 36.671875 47.78125 31.875 
Q 51.21875 27.09375 51.21875 20.453125 
Q 51.21875 11.28125 44.71875 5.03125 
Q 38.234375 -1.21875 27.640625 -1.21875 
Q 17.046875 -1.21875 10.546875 5.046875 
Q 4.046875 11.328125 4.046875 20.703125 
Q 4.046875 27.6875 7.59375 32.390625 
Q 11.140625 37.109375 17.671875 38.8125 
M 15.921875 53.71875 
Q 15.921875 48.640625 19.1875 45.40625 
Q 22.46875 42.1875 27.6875 42.1875 
Q 32.765625 42.1875 36.015625 45.375 
Q 39.265625 48.578125 39.265625 53.21875 
Q 39.265625 58.0625 35.90625 61.359375 
Q 32.5625 64.65625 27.59375 64.65625 
Q 22.5625 64.65625 19.234375 61.421875 
Q 15.921875 58.203125 15.921875 53.71875 
M 13.09375 20.65625 
Q 13.09375 16.890625 14.875 13.375 
Q 16.65625 9.859375 20.171875 7.921875 
Q 23.6875 6 27.734375 6 
Q 34.03125 6 38.125 10.046875 
Q 42.234375 14.109375 42.234375 20.359375 
Q 42.234375 26.703125 38.015625 30.859375 
Q 33.796875 35.015625 27.4375 35.015625 
Q 21.234375 35.015625 17.15625 30.90625 
Q 13.09375 26.8125 13.09375 20.65625 
" id="ArialMT-38"/>
      </defs>
      <g style="fill:#262626;" transform="translate(344.840816294 476.398269111)rotate(-30.0)scale(0.13 -0.13)">
       <use xlink:href="#ArialMT-4a"/>
       <use x="50.0" xlink:href="#ArialMT-61"/>
       <use x="105.615234375" xlink:href="#ArialMT-6e"/>
       <use x="161.23046875" xlink:href="#ArialMT-20"/>
       <use x="189.013671875" xlink:href="#ArialMT-32"/>
       <use x="244.62890625" xlink:href="#ArialMT-30"/>
       <use x="300.244140625" xlink:href="#ArialMT-30"/>
       <use x="355.859375" xlink:href="#ArialMT-38"/>
      </g>
     </g>
    </g>
    <g id="xtick_5">
     <g id="line2d_5">
      <g>
       <use style="fill:#262626;stroke:#262626;stroke-width:1.3;" x="477.095729767" xlink:href="#m81572ec0f9" y="426.496329912"/>
      </g>
     </g>
     <g id="text_5">
      <!-- Jul 2008 -->
      <g style="fill:#262626;" transform="translate(433.242089082 474.227878486)rotate(-30.0)scale(0.13 -0.13)">
       <use xlink:href="#ArialMT-4a"/>
       <use x="50.0" xlink:href="#ArialMT-75"/>
       <use x="105.615234375" xlink:href="#ArialMT-6c"/>
       <use x="127.83203125" xlink:href="#ArialMT-20"/>
       <use x="155.615234375" xlink:href="#ArialMT-32"/>
       <use x="211.23046875" xlink:href="#ArialMT-30"/>
       <use x="266.845703125" xlink:href="#ArialMT-30"/>
       <use x="322.4609375" xlink:href="#ArialMT-38"/>
      </g>
     </g>
    </g>
    <g id="xtick_6">
     <g id="line2d_6">
      <g>
       <use style="fill:#262626;stroke:#262626;stroke-width:1.3;" x="562.667908093" xlink:href="#m81572ec0f9" y="426.496329912"/>
      </g>
     </g>
     <g id="text_6">
      <!-- Jan 2009 -->
      <defs>
       <path d="M 5.46875 16.546875 
L 13.921875 17.328125 
Q 14.984375 11.375 18.015625 8.6875 
Q 21.046875 6 25.78125 6 
Q 29.828125 6 32.875 7.859375 
Q 35.9375 9.71875 37.890625 12.8125 
Q 39.84375 15.921875 41.15625 21.1875 
Q 42.484375 26.46875 42.484375 31.9375 
Q 42.484375 32.515625 42.4375 33.6875 
Q 39.796875 29.5 35.234375 26.875 
Q 30.671875 24.265625 25.34375 24.265625 
Q 16.453125 24.265625 10.296875 30.703125 
Q 4.15625 37.15625 4.15625 47.703125 
Q 4.15625 58.59375 10.578125 65.234375 
Q 17 71.875 26.65625 71.875 
Q 33.640625 71.875 39.421875 68.109375 
Q 45.21875 64.359375 48.21875 57.390625 
Q 51.21875 50.4375 51.21875 37.25 
Q 51.21875 23.53125 48.234375 15.40625 
Q 45.265625 7.28125 39.375 3.03125 
Q 33.5 -1.21875 25.59375 -1.21875 
Q 17.1875 -1.21875 11.859375 3.4375 
Q 6.546875 8.109375 5.46875 16.546875 
M 41.453125 48.140625 
Q 41.453125 55.71875 37.421875 60.15625 
Q 33.40625 64.59375 27.734375 64.59375 
Q 21.875 64.59375 17.53125 59.8125 
Q 13.1875 55.03125 13.1875 47.40625 
Q 13.1875 40.578125 17.3125 36.296875 
Q 21.4375 32.03125 27.484375 32.03125 
Q 33.59375 32.03125 37.515625 36.296875 
Q 41.453125 40.578125 41.453125 48.140625 
" id="ArialMT-39"/>
      </defs>
      <g style="fill:#262626;" transform="translate(515.055040574 476.398269111)rotate(-30.0)scale(0.13 -0.13)">
       <use xlink:href="#ArialMT-4a"/>
       <use x="50.0" xlink:href="#ArialMT-61"/>
       <use x="105.615234375" xlink:href="#ArialMT-6e"/>
       <use x="161.23046875" xlink:href="#ArialMT-20"/>
       <use x="189.013671875" xlink:href="#ArialMT-32"/>
       <use x="244.62890625" xlink:href="#ArialMT-30"/>
       <use x="300.244140625" xlink:href="#ArialMT-30"/>
       <use x="355.859375" xlink:href="#ArialMT-39"/>
      </g>
     </g>
    </g>
    <g id="xtick_7">
     <g id="line2d_7">
      <g>
       <use style="fill:#262626;stroke:#262626;stroke-width:1.3;" x="646.84488786" xlink:href="#m81572ec0f9" y="426.496329912"/>
      </g>
     </g>
     <g id="text_7">
      <!-- Jul 2009 -->
      <g style="fill:#262626;" transform="translate(602.991247176 474.227878486)rotate(-30.0)scale(0.13 -0.13)">
       <use xlink:href="#ArialMT-4a"/>
       <use x="50.0" xlink:href="#ArialMT-75"/>
       <use x="105.615234375" xlink:href="#ArialMT-6c"/>
       <use x="127.83203125" xlink:href="#ArialMT-20"/>
       <use x="155.615234375" xlink:href="#ArialMT-32"/>
       <use x="211.23046875" xlink:href="#ArialMT-30"/>
       <use x="266.845703125" xlink:href="#ArialMT-30"/>
       <use x="322.4609375" xlink:href="#ArialMT-39"/>
      </g>
     </g>
    </g>
    <g id="text_8">
     <!-- Date -->
     <defs>
      <path d="M 7.71875 0 
L 7.71875 71.578125 
L 32.375 71.578125 
Q 40.71875 71.578125 45.125 70.5625 
Q 51.265625 69.140625 55.609375 65.4375 
Q 61.28125 60.640625 64.078125 53.1875 
Q 66.890625 45.75 66.890625 36.1875 
Q 66.890625 28.03125 64.984375 21.734375 
Q 63.09375 15.4375 60.109375 11.296875 
Q 57.125 7.171875 53.578125 4.796875 
Q 50.046875 2.4375 45.046875 1.21875 
Q 40.046875 0 33.546875 0 
z
M 17.1875 8.453125 
L 32.46875 8.453125 
Q 39.546875 8.453125 43.578125 9.765625 
Q 47.609375 11.078125 50 13.484375 
Q 53.375 16.84375 55.25 22.53125 
Q 57.125 28.21875 57.125 36.328125 
Q 57.125 47.5625 53.4375 53.59375 
Q 49.75 59.625 44.484375 61.671875 
Q 40.671875 63.140625 32.234375 63.140625 
L 17.1875 63.140625 
z
" id="ArialMT-44"/>
      <path d="M 25.78125 7.859375 
L 27.046875 0.09375 
Q 23.34375 -0.6875 20.40625 -0.6875 
Q 15.625 -0.6875 12.984375 0.828125 
Q 10.359375 2.34375 9.28125 4.8125 
Q 8.203125 7.28125 8.203125 15.1875 
L 8.203125 45.015625 
L 1.765625 45.015625 
L 1.765625 51.859375 
L 8.203125 51.859375 
L 8.203125 64.703125 
L 16.9375 69.96875 
L 16.9375 51.859375 
L 25.78125 51.859375 
L 25.78125 45.015625 
L 16.9375 45.015625 
L 16.9375 14.703125 
Q 16.9375 10.9375 17.40625 9.859375 
Q 17.875 8.796875 18.921875 8.15625 
Q 19.96875 7.515625 21.921875 7.515625 
Q 23.390625 7.515625 25.78125 7.859375 
" id="ArialMT-74"/>
      <path d="M 42.09375 16.703125 
L 51.171875 15.578125 
Q 49.03125 7.625 43.21875 3.21875 
Q 37.40625 -1.171875 28.375 -1.171875 
Q 17 -1.171875 10.328125 5.828125 
Q 3.65625 12.84375 3.65625 25.484375 
Q 3.65625 38.578125 10.390625 45.796875 
Q 17.140625 53.03125 27.875 53.03125 
Q 38.28125 53.03125 44.875 45.953125 
Q 51.46875 38.875 51.46875 26.03125 
Q 51.46875 25.25 51.421875 23.6875 
L 12.75 23.6875 
Q 13.234375 15.140625 17.578125 10.59375 
Q 21.921875 6.0625 28.421875 6.0625 
Q 33.25 6.0625 36.671875 8.59375 
Q 40.09375 11.140625 42.09375 16.703125 
M 13.234375 30.90625 
L 42.1875 30.90625 
Q 41.609375 37.453125 38.875 40.71875 
Q 34.671875 45.796875 27.984375 45.796875 
Q 21.921875 45.796875 17.796875 41.75 
Q 13.671875 37.703125 13.234375 30.90625 
" id="ArialMT-65"/>
     </defs>
     <g style="fill:#262626;" transform="translate(377.816609375 493.871534123)scale(0.14300000000000002 -0.14300000000000002)">
      <use xlink:href="#ArialMT-44"/>
      <use x="72.216796875" xlink:href="#ArialMT-61"/>
      <use x="127.83203125" xlink:href="#ArialMT-74"/>
      <use x="155.615234375" xlink:href="#ArialMT-65"/>
     </g>
    </g>
   </g>
   <g id="matplotlib.axis_2">
    <g id="ytick_1">
     <g id="line2d_8">
      <defs>
       <path d="M 0 0 
L -6 0 
" id="m8a3d9b4ebc" style="stroke:#262626;stroke-width:1.3;"/>
      </defs>
      <g>
       <use style="fill:#262626;stroke:#262626;stroke-width:1.3;" x="53.8855" xlink:href="#m8a3d9b4ebc" y="426.496329912"/>
      </g>
     </g>
     <g id="text_9">
      <!-- 60 -->
      <g style="fill:#262626;" transform="translate(24.3270625 429.857033037)scale(0.13 -0.13)">
       <use xlink:href="#ArialMT-36"/>
       <use x="55.615234375" xlink:href="#ArialMT-30"/>
      </g>
     </g>
    </g>
    <g id="ytick_2">
     <g id="line2d_9">
      <g>
       <use style="fill:#262626;stroke:#262626;stroke-width:1.3;" x="53.8855" xlink:href="#m8a3d9b4ebc" y="381.679848811"/>
      </g>
     </g>
     <g id="text_10">
      <!-- 80 -->
      <g style="fill:#262626;" transform="translate(24.3270625 385.040551936)scale(0.13 -0.13)">
       <use xlink:href="#ArialMT-38"/>
       <use x="55.615234375" xlink:href="#ArialMT-30"/>
      </g>
     </g>
    </g>
    <g id="ytick_3">
     <g id="line2d_10">
      <g>
       <use style="fill:#262626;stroke:#262626;stroke-width:1.3;" x="53.8855" xlink:href="#m8a3d9b4ebc" y="336.86336771"/>
      </g>
     </g>
     <g id="text_11">
      <!-- 100 -->
      <defs>
       <path d="M 37.25 0 
L 28.46875 0 
L 28.46875 56 
Q 25.296875 52.984375 20.140625 49.953125 
Q 14.984375 46.921875 10.890625 45.40625 
L 10.890625 53.90625 
Q 18.265625 57.375 23.78125 62.296875 
Q 29.296875 67.234375 31.59375 71.875 
L 37.25 71.875 
z
" id="ArialMT-31"/>
      </defs>
      <g style="fill:#262626;" transform="translate(17.09784375 340.224070835)scale(0.13 -0.13)">
       <use xlink:href="#ArialMT-31"/>
       <use x="55.615234375" xlink:href="#ArialMT-30"/>
       <use x="111.23046875" xlink:href="#ArialMT-30"/>
      </g>
     </g>
    </g>
    <g id="ytick_4">
     <g id="line2d_11">
      <g>
       <use style="fill:#262626;stroke:#262626;stroke-width:1.3;" x="53.8855" xlink:href="#m8a3d9b4ebc" y="292.046886608"/>
      </g>
     </g>
     <g id="text_12">
      <!-- 120 -->
      <g style="fill:#262626;" transform="translate(17.09784375 295.407589733)scale(0.13 -0.13)">
       <use xlink:href="#ArialMT-31"/>
       <use x="55.615234375" xlink:href="#ArialMT-32"/>
       <use x="111.23046875" xlink:href="#ArialMT-30"/>
      </g>
     </g>
    </g>
    <g id="ytick_5">
     <g id="line2d_12">
      <g>
       <use style="fill:#262626;stroke:#262626;stroke-width:1.3;" x="53.8855" xlink:href="#m8a3d9b4ebc" y="247.230405507"/>
      </g>
     </g>
     <g id="text_13">
      <!-- 140 -->
      <defs>
       <path d="M 32.328125 0 
L 32.328125 17.140625 
L 1.265625 17.140625 
L 1.265625 25.203125 
L 33.9375 71.578125 
L 41.109375 71.578125 
L 41.109375 25.203125 
L 50.78125 25.203125 
L 50.78125 17.140625 
L 41.109375 17.140625 
L 41.109375 0 
z
M 32.328125 25.203125 
L 32.328125 57.46875 
L 9.90625 25.203125 
z
" id="ArialMT-34"/>
      </defs>
      <g style="fill:#262626;" transform="translate(17.09784375 250.591108632)scale(0.13 -0.13)">
       <use xlink:href="#ArialMT-31"/>
       <use x="55.615234375" xlink:href="#ArialMT-34"/>
       <use x="111.23046875" xlink:href="#ArialMT-30"/>
      </g>
     </g>
    </g>
    <g id="ytick_6">
     <g id="line2d_13">
      <g>
       <use style="fill:#262626;stroke:#262626;stroke-width:1.3;" x="53.8855" xlink:href="#m8a3d9b4ebc" y="202.413924405"/>
      </g>
     </g>
     <g id="text_14">
      <!-- 160 -->
      <g style="fill:#262626;" transform="translate(17.09784375 205.77462753)scale(0.13 -0.13)">
       <use xlink:href="#ArialMT-31"/>
       <use x="55.615234375" xlink:href="#ArialMT-36"/>
       <use x="111.23046875" xlink:href="#ArialMT-30"/>
      </g>
     </g>
    </g>
    <g id="ytick_7">
     <g id="line2d_14">
      <g>
       <use style="fill:#262626;stroke:#262626;stroke-width:1.3;" x="53.8855" xlink:href="#m8a3d9b4ebc" y="157.597443304"/>
      </g>
     </g>
     <g id="text_15">
      <!-- 180 -->
      <g style="fill:#262626;" transform="translate(17.09784375 160.958146429)scale(0.13 -0.13)">
       <use xlink:href="#ArialMT-31"/>
       <use x="55.615234375" xlink:href="#ArialMT-38"/>
       <use x="111.23046875" xlink:href="#ArialMT-30"/>
      </g>
     </g>
    </g>
    <g id="ytick_8">
     <g id="line2d_15">
      <g>
       <use style="fill:#262626;stroke:#262626;stroke-width:1.3;" x="53.8855" xlink:href="#m8a3d9b4ebc" y="112.780962203"/>
      </g>
     </g>
     <g id="text_16">
      <!-- 200 -->
      <g style="fill:#262626;" transform="translate(17.09784375 116.141665328)scale(0.13 -0.13)">
       <use xlink:href="#ArialMT-32"/>
       <use x="55.615234375" xlink:href="#ArialMT-30"/>
       <use x="111.23046875" xlink:href="#ArialMT-30"/>
      </g>
     </g>
    </g>
    <g id="ytick_9">
     <g id="line2d_16">
      <g>
       <use style="fill:#262626;stroke:#262626;stroke-width:1.3;" x="53.8855" xlink:href="#m8a3d9b4ebc" y="67.9644811014"/>
      </g>
     </g>
     <g id="text_17">
      <!-- 220 -->
      <g style="fill:#262626;" transform="translate(17.09784375 71.3251842264)scale(0.13 -0.13)">
       <use xlink:href="#ArialMT-32"/>
       <use x="55.615234375" xlink:href="#ArialMT-32"/>
       <use x="111.23046875" xlink:href="#ArialMT-30"/>
      </g>
     </g>
    </g>
    <g id="ytick_10">
     <g id="line2d_17">
      <g>
       <use style="fill:#262626;stroke:#262626;stroke-width:1.3;" x="53.8855" xlink:href="#m8a3d9b4ebc" y="23.148"/>
      </g>
     </g>
     <g id="text_18">
      <!-- 240 -->
      <g style="fill:#262626;" transform="translate(17.09784375 26.508703125)scale(0.13 -0.13)">
       <use xlink:href="#ArialMT-32"/>
       <use x="55.615234375" xlink:href="#ArialMT-34"/>
       <use x="111.23046875" xlink:href="#ArialMT-30"/>
      </g>
     </g>
    </g>
    <g id="text_19">
     <!-- Close ($) -->
     <defs>
      <path d="M 12.359375 -21.046875 
L 6.0625 -21.046875 
Q 20.65625 2.390625 20.65625 25.875 
Q 20.65625 35.0625 18.5625 44.09375 
Q 16.890625 51.421875 13.921875 58.15625 
Q 12.015625 62.546875 6.0625 72.796875 
L 12.359375 72.796875 
Q 21.53125 60.546875 25.921875 48.1875 
Q 29.6875 37.546875 29.6875 25.921875 
Q 29.6875 12.75 24.625 0.4375 
Q 19.578125 -11.859375 12.359375 -21.046875 
" id="ArialMT-29"/>
      <path d="M 23.390625 -21.046875 
Q 16.109375 -11.859375 11.078125 0.4375 
Q 6.0625 12.75 6.0625 25.921875 
Q 6.0625 37.546875 9.8125 48.1875 
Q 14.203125 60.546875 23.390625 72.796875 
L 29.6875 72.796875 
Q 23.78125 62.640625 21.875 58.296875 
Q 18.890625 51.5625 17.1875 44.234375 
Q 15.09375 35.109375 15.09375 25.875 
Q 15.09375 2.390625 29.6875 -21.046875 
z
" id="ArialMT-28"/>
      <path d="M 3.328125 25.921875 
Q 3.328125 40.328125 11.328125 47.265625 
Q 18.015625 53.03125 27.640625 53.03125 
Q 38.328125 53.03125 45.109375 46.015625 
Q 51.90625 39.015625 51.90625 26.65625 
Q 51.90625 16.65625 48.90625 10.90625 
Q 45.90625 5.171875 40.15625 2 
Q 34.421875 -1.171875 27.640625 -1.171875 
Q 16.75 -1.171875 10.03125 5.8125 
Q 3.328125 12.796875 3.328125 25.921875 
M 12.359375 25.921875 
Q 12.359375 15.96875 16.703125 11.015625 
Q 21.046875 6.0625 27.640625 6.0625 
Q 34.1875 6.0625 38.53125 11.03125 
Q 42.875 16.015625 42.875 26.21875 
Q 42.875 35.84375 38.5 40.796875 
Q 34.125 45.75 27.640625 45.75 
Q 21.046875 45.75 16.703125 40.8125 
Q 12.359375 35.890625 12.359375 25.921875 
" id="ArialMT-6f"/>
      <path d="M 24.90625 -10.296875 
L 24.90625 -1.515625 
Q 18.3125 -0.6875 14.1875 1.4375 
Q 10.0625 3.5625 7.046875 8.296875 
Q 4.046875 13.03125 3.5625 19.875 
L 12.40625 21.53125 
Q 13.421875 14.453125 16.015625 11.140625 
Q 19.734375 6.453125 24.90625 5.90625 
L 24.90625 33.890625 
Q 19.484375 34.90625 13.8125 38.09375 
Q 9.625 40.4375 7.34375 44.578125 
Q 5.078125 48.734375 5.078125 54 
Q 5.078125 63.375 11.71875 69.1875 
Q 16.15625 73.09375 24.90625 73.96875 
L 24.90625 78.171875 
L 30.078125 78.171875 
L 30.078125 73.96875 
Q 37.75 73.25 42.234375 69.484375 
Q 48 64.703125 49.171875 56.34375 
L 40.09375 54.984375 
Q 39.3125 60.15625 36.84375 62.90625 
Q 34.375 65.671875 30.078125 66.546875 
L 30.078125 41.21875 
Q 36.71875 39.546875 38.875 38.625 
Q 42.96875 36.8125 45.546875 34.21875 
Q 48.140625 31.640625 49.53125 28.078125 
Q 50.921875 24.515625 50.921875 20.359375 
Q 50.921875 11.234375 45.109375 5.125 
Q 39.3125 -0.984375 30.078125 -1.421875 
L 30.078125 -10.296875 
z
M 24.90625 66.65625 
Q 19.78125 65.875 16.828125 62.546875 
Q 13.875 59.234375 13.875 54.6875 
Q 13.875 50.203125 16.375 47.171875 
Q 18.890625 44.140625 24.90625 42.328125 
z
M 30.078125 5.90625 
Q 35.203125 6.546875 38.546875 10.34375 
Q 41.890625 14.15625 41.890625 19.78125 
Q 41.890625 24.5625 39.515625 27.46875 
Q 37.15625 30.375 30.078125 32.671875 
z
" id="ArialMT-24"/>
      <path d="M 58.796875 25.09375 
L 68.265625 22.703125 
Q 65.28125 11.03125 57.546875 4.90625 
Q 49.8125 -1.21875 38.625 -1.21875 
Q 27.046875 -1.21875 19.796875 3.484375 
Q 12.546875 8.203125 8.765625 17.140625 
Q 4.984375 26.078125 4.984375 36.328125 
Q 4.984375 47.515625 9.25 55.828125 
Q 13.53125 64.15625 21.40625 68.46875 
Q 29.296875 72.796875 38.765625 72.796875 
Q 49.515625 72.796875 56.828125 67.328125 
Q 64.15625 61.859375 67.046875 51.953125 
L 57.71875 49.75 
Q 55.21875 57.5625 50.484375 61.125 
Q 45.75 64.703125 38.578125 64.703125 
Q 30.328125 64.703125 24.78125 60.734375 
Q 19.234375 56.78125 16.984375 50.109375 
Q 14.75 43.453125 14.75 36.375 
Q 14.75 27.25 17.40625 20.4375 
Q 20.0625 13.625 25.671875 10.25 
Q 31.296875 6.890625 37.84375 6.890625 
Q 45.796875 6.890625 51.3125 11.46875 
Q 56.84375 16.0625 58.796875 25.09375 
" id="ArialMT-43"/>
      <path d="M 3.078125 15.484375 
L 11.765625 16.84375 
Q 12.5 11.625 15.84375 8.84375 
Q 19.1875 6.0625 25.203125 6.0625 
Q 31.25 6.0625 34.171875 8.515625 
Q 37.109375 10.984375 37.109375 14.3125 
Q 37.109375 17.28125 34.515625 19 
Q 32.71875 20.171875 25.53125 21.96875 
Q 15.875 24.421875 12.140625 26.203125 
Q 8.40625 27.984375 6.46875 31.125 
Q 4.546875 34.28125 4.546875 38.09375 
Q 4.546875 41.546875 6.125 44.5 
Q 7.71875 47.46875 10.453125 49.421875 
Q 12.5 50.921875 16.03125 51.96875 
Q 19.578125 53.03125 23.640625 53.03125 
Q 29.734375 53.03125 34.34375 51.265625 
Q 38.96875 49.515625 41.15625 46.5 
Q 43.359375 43.5 44.1875 38.484375 
L 35.59375 37.3125 
Q 35.015625 41.3125 32.203125 43.546875 
Q 29.390625 45.796875 24.265625 45.796875 
Q 18.21875 45.796875 15.625 43.796875 
Q 13.03125 41.796875 13.03125 39.109375 
Q 13.03125 37.40625 14.109375 36.03125 
Q 15.1875 34.625 17.484375 33.6875 
Q 18.796875 33.203125 25.25 31.453125 
Q 34.578125 28.953125 38.25 27.359375 
Q 41.9375 25.78125 44.03125 22.75 
Q 46.140625 19.734375 46.140625 15.234375 
Q 46.140625 10.84375 43.578125 6.953125 
Q 41.015625 3.078125 36.171875 0.953125 
Q 31.34375 -1.171875 25.25 -1.171875 
Q 15.140625 -1.171875 9.84375 3.03125 
Q 4.546875 7.234375 3.078125 15.484375 
" id="ArialMT-73"/>
     </defs>
     <g style="fill:#262626;" transform="translate(9.088140625 253.825469644)rotate(-90.0)scale(0.14300000000000002 -0.14300000000000002)">
      <use xlink:href="#ArialMT-43"/>
      <use x="72.216796875" xlink:href="#ArialMT-6c"/>
      <use x="94.43359375" xlink:href="#ArialMT-6f"/>
      <use x="150.048828125" xlink:href="#ArialMT-73"/>
      <use x="200.048828125" xlink:href="#ArialMT-65"/>
      <use x="255.6640625" xlink:href="#ArialMT-20"/>
      <use x="283.447265625" xlink:href="#ArialMT-28"/>
      <use x="316.748046875" xlink:href="#ArialMT-24"/>
      <use x="372.36328125" xlink:href="#ArialMT-29"/>
     </g>
    </g>
   </g>
   <g id="PolyCollection_1">
    <defs>
     <path d="M 64.116956 -269.597105 
L 64.116956 -246.472669 
L 64.582022 -247.449475 
L 65.047088 -248.883718 
L 66.442287 -250.522153 
L 66.907353 -251.977164 
L 67.372419 -253.181228 
L 67.837486 -254.208635 
L 68.302552 -255.325286 
L 69.69775 -256.470186 
L 70.162817 -257.417701 
L 70.627883 -258.628851 
L 71.092949 -259.997155 
L 71.558015 -261.142461 
L 72.953214 -263.01855 
L 73.41828 -264.692646 
L 73.883346 -266.468515 
L 74.348412 -268.280377 
L 74.813478 -269.062279 
L 76.673743 -269.396257 
L 77.138809 -269.487498 
L 77.603876 -269.566548 
L 78.068942 -269.77486 
L 79.46414 -269.728888 
L 79.929206 -269.579831 
L 80.394273 -269.774614 
L 80.859339 -270.379654 
L 81.324405 -270.821476 
L 82.719604 -271.372177 
L 83.18467 -271.809015 
L 83.649736 -272.690647 
L 84.114802 -273.090707 
L 84.579868 -273.20783 
L 85.975067 -273.352053 
L 86.440133 -273.561492 
L 86.905199 -273.94644 
L 87.370265 -274.260265 
L 87.835332 -274.840047 
L 89.23053 -275.605514 
L 89.695596 -276.478465 
L 90.160663 -278.020656 
L 90.625729 -279.335955 
L 91.090795 -280.60248 
L 92.485993 -281.599232 
L 92.95106 -282.727214 
L 93.416126 -284.072937 
L 93.881192 -285.884954 
L 94.346258 -288.232945 
L 95.741457 -290.879343 
L 96.206523 -294.059923 
L 96.671589 -295.401406 
L 97.136655 -296.928433 
L 97.601722 -298.757745 
L 98.99692 -299.750302 
L 99.461986 -300.663052 
L 99.927052 -302.283293 
L 100.392119 -303.316592 
L 102.252383 -304.82933 
L 102.71745 -306.351387 
L 103.182516 -307.328155 
L 103.647582 -308.592419 
L 104.112648 -308.97096 
L 105.507847 -308.831675 
L 105.972913 -307.976414 
L 106.437979 -306.882829 
L 106.903045 -304.377694 
L 107.368111 -301.862596 
L 108.76331 -300.091274 
L 109.228376 -297.751693 
L 109.693442 -294.953853 
L 110.158509 -292.612062 
L 110.623575 -291.086696 
L 112.018773 -290.485854 
L 112.48384 -289.368016 
L 112.948906 -288.434387 
L 113.413972 -287.92332 
L 113.879038 -287.626512 
L 115.274237 -286.880916 
L 115.739303 -286.057323 
L 116.204369 -285.341434 
L 116.669435 -284.691577 
L 117.134501 -284.172848 
L 118.5297 -282.897284 
L 118.994766 -280.595934 
L 119.459832 -278.27524 
L 119.924898 -277.159684 
L 120.389965 -276.097567 
L 122.250229 -275.376093 
L 122.715296 -274.994543 
L 123.180362 -275.58348 
L 123.645428 -276.188144 
L 125.040627 -276.381167 
L 125.505693 -276.501784 
L 125.970759 -276.330431 
L 126.435825 -276.116589 
L 126.900891 -276.200607 
L 128.29609 -276.385003 
L 128.761156 -276.424166 
L 129.226222 -276.726667 
L 129.691288 -277.377595 
L 130.156355 -277.916617 
L 131.551553 -278.042048 
L 132.016619 -277.935046 
L 132.481686 -277.528026 
L 132.946752 -276.68003 
L 133.411818 -275.448966 
L 134.807016 -274.527871 
L 135.272083 -273.846196 
L 135.737149 -273.739534 
L 136.202215 -273.476506 
L 136.667281 -272.827136 
L 138.06248 -272.73518 
L 138.992612 -272.957892 
L 139.457678 -274.082633 
L 139.922745 -275.533196 
L 141.317943 -275.936385 
L 141.783009 -276.369319 
L 142.248075 -276.934085 
L 142.713142 -277.296197 
L 143.178208 -277.309503 
L 144.573406 -277.388773 
L 145.038473 -277.52833 
L 145.503539 -277.566207 
L 145.968605 -277.762307 
L 146.433671 -278.080487 
L 147.82887 -278.068907 
L 148.293936 -278.066775 
L 148.759002 -278.065144 
L 149.224068 -278.011245 
L 149.689134 -278.015355 
L 151.084333 -278.161285 
L 151.549399 -278.32571 
L 152.014465 -278.521676 
L 152.479532 -279.134073 
L 152.944598 -280.228786 
L 154.339796 -281.926325 
L 154.804862 -283.537222 
L 155.269929 -284.562801 
L 155.734995 -284.577786 
L 156.200061 -285.178399 
L 157.59526 -286.804209 
L 158.060326 -287.416139 
L 158.525392 -287.697791 
L 158.990458 -287.923156 
L 159.455524 -288.163149 
L 160.850723 -288.111588 
L 161.315789 -287.741033 
L 161.780855 -287.243444 
L 162.245921 -286.924732 
L 162.710988 -286.628778 
L 164.106186 -286.392781 
L 164.571252 -286.316119 
L 165.036319 -286.192281 
L 165.501385 -286.411108 
L 165.966451 -286.59876 
L 167.826716 -286.928832 
L 168.291782 -287.527699 
L 168.756848 -287.970074 
L 169.221914 -288.23679 
L 170.617113 -288.700792 
L 171.082179 -289.176605 
L 171.547245 -289.691603 
L 172.012311 -290.198418 
L 172.477378 -291.135433 
L 173.872576 -292.413077 
L 174.337642 -293.999516 
L 174.802709 -295.819912 
L 175.267775 -298.320067 
L 175.732841 -300.983787 
L 177.128039 -303.493601 
L 177.593106 -306.136019 
L 178.058172 -308.734373 
L 178.523238 -311.728541 
L 178.988304 -315.571339 
L 180.383503 -319.483302 
L 180.848569 -323.411722 
L 181.313635 -325.717024 
L 181.778701 -327.68961 
L 182.243767 -329.232302 
L 183.638966 -331.315417 
L 184.104032 -333.465395 
L 184.569098 -335.802661 
L 185.034165 -337.714226 
L 185.499231 -339.665822 
L 186.894429 -341.692959 
L 187.359496 -343.609575 
L 187.824562 -345.713426 
L 188.289628 -347.923162 
L 188.754694 -349.977475 
L 190.149893 -352.515294 
L 190.614959 -354.917701 
L 191.080025 -356.648866 
L 191.545091 -357.91051 
L 192.010157 -359.313373 
L 193.405356 -361.034283 
L 193.870422 -362.352916 
L 194.335488 -363.360245 
L 194.800555 -364.322263 
L 195.265621 -365.134706 
L 196.660819 -365.955412 
L 197.125885 -366.640372 
L 197.590952 -367.735999 
L 198.056018 -368.910239 
L 198.521084 -370.774985 
L 199.916283 -372.675902 
L 200.381349 -373.730914 
L 200.846415 -374.151787 
L 201.311481 -374.854513 
L 201.776547 -374.886561 
L 203.171746 -375.675583 
L 203.636812 -376.404983 
L 204.101878 -377.132557 
L 205.032011 -378.79236 
L 206.427209 -380.075587 
L 206.892275 -381.507866 
L 207.357342 -382.512893 
L 207.822408 -383.828775 
L 208.287474 -385.07305 
L 209.682672 -387.417706 
L 210.147739 -389.473168 
L 210.612805 -391.647387 
L 211.077871 -393.270379 
L 211.542937 -394.231109 
L 212.938136 -394.619344 
L 213.403202 -395.186003 
L 213.868268 -395.373759 
L 214.333334 -395.469899 
L 214.798401 -395.451907 
L 216.193599 -395.175525 
L 216.658665 -395.763814 
L 217.123731 -395.576698 
L 217.588798 -395.924045 
L 218.053864 -396.798136 
L 219.914129 -398.118372 
L 220.379195 -398.582007 
L 220.844261 -398.808961 
L 221.309327 -398.848719 
L 223.634658 -398.830641 
L 224.099724 -399.014558 
L 224.56479 -399.466204 
L 225.959989 -400.298143 
L 226.425055 -401.379383 
L 226.890121 -402.301886 
L 227.355188 -403.327316 
L 227.820254 -403.933863 
L 229.680519 -404.853742 
L 230.145585 -405.820453 
L 230.610651 -407.451713 
L 231.075717 -409.211079 
L 232.470916 -410.709068 
L 232.935982 -411.797464 
L 233.401048 -413.246685 
L 233.866114 -415.190909 
L 234.33118 -416.999167 
L 235.726379 -419.546897 
L 236.191445 -422.196632 
L 236.656511 -423.793918 
L 237.121578 -425.581415 
L 237.586644 -426.53558 
L 238.981842 -426.754695 
L 239.446908 -422.185982 
L 239.911975 -420.215923 
L 240.377041 -417.923292 
L 240.842107 -415.106987 
L 242.237306 -410.949661 
L 242.702372 -408.836234 
L 243.167438 -406.501003 
L 243.632504 -404.978396 
L 244.09757 -403.901815 
L 245.957835 -402.973372 
L 246.422901 -401.671094 
L 246.887967 -400.723495 
L 247.353034 -399.723061 
L 248.748232 -398.502022 
L 249.213298 -397.735533 
L 249.678365 -397.187909 
L 250.143431 -397.101463 
L 250.608497 -396.99591 
L 252.003695 -396.955886 
L 252.468762 -396.920942 
L 252.933828 -396.871059 
L 253.398894 -396.606101 
L 253.86396 -396.411608 
L 255.259159 -396.212221 
L 255.724225 -396.00335 
L 256.189291 -396.329189 
L 256.654357 -396.685861 
L 257.119424 -397.043437 
L 258.514622 -397.30746 
L 258.979688 -397.443484 
L 259.444754 -398.620505 
L 259.909821 -398.998273 
L 260.374887 -399.630361 
L 261.770085 -400.956647 
L 262.235152 -403.923159 
L 262.700218 -405.13451 
L 263.165284 -406.739415 
L 263.63035 -407.585929 
L 265.025549 -408.11286 
L 265.490615 -408.865218 
L 265.955681 -410.040017 
L 266.420747 -411.357956 
L 268.281012 -412.802591 
L 268.746078 -415.006722 
L 269.211144 -416.634515 
L 269.676211 -418.074733 
L 270.141277 -418.541364 
L 271.536475 -418.926212 
L 272.001541 -419.260942 
L 272.466608 -419.81052 
L 272.931674 -420.624589 
L 273.39674 -422.061153 
L 274.791939 -423.47251 
L 275.257005 -425.153005 
L 275.722071 -427.166499 
L 276.187137 -428.521949 
L 276.652203 -430.163684 
L 278.047402 -432.057237 
L 278.512468 -433.948201 
L 278.977534 -435.953171 
L 279.4426 -438.722151 
L 279.907667 -441.723516 
L 281.302865 -445.366339 
L 281.767931 -447.039907 
L 282.232998 -448.666175 
L 282.698064 -450.066945 
L 283.16313 -451.028646 
L 284.558329 -451.947597 
L 285.023395 -452.496351 
L 285.488461 -453.316048 
L 285.953527 -452.48657 
L 286.418593 -452.512085 
L 287.813792 -452.762356 
L 288.278858 -454.109512 
L 288.743924 -455.513393 
L 289.20899 -456.69896 
L 289.674057 -457.490126 
L 291.534321 -457.458706 
L 291.999388 -457.57738 
L 292.464454 -457.704631 
L 292.92952 -457.737497 
L 294.324718 -457.590738 
L 294.789785 -455.374346 
L 295.254851 -452.804214 
L 295.719917 -451.979937 
L 296.184983 -450.879353 
L 297.580182 -449.366993 
L 298.045248 -448.340695 
L 298.510314 -448.084088 
L 298.97538 -447.476928 
L 299.440447 -447.184601 
L 300.835645 -446.987217 
L 301.300711 -445.896182 
L 301.765777 -444.686134 
L 302.230844 -444.167693 
L 302.69591 -443.885903 
L 304.091108 -443.460656 
L 304.556175 -442.93445 
L 305.021241 -441.738216 
L 305.486307 -439.905047 
L 305.951373 -437.099511 
L 307.346572 -434.074739 
L 307.811638 -429.467958 
L 308.74177 -426.665938 
L 309.206836 -422.364228 
L 310.602035 -417.661589 
L 311.067101 -414.165367 
L 311.532167 -409.230698 
L 311.997234 -404.995649 
L 312.4623 -400.72099 
L 313.857498 -395.016606 
L 314.322564 -391.547503 
L 314.787631 -388.99464 
L 315.252697 -386.972826 
L 315.717763 -383.007843 
L 317.112962 -378.978544 
L 317.578028 -374.653358 
L 318.043094 -369.008992 
L 318.50816 -362.871571 
L 318.973226 -358.234235 
L 320.368425 -355.003906 
L 320.833491 -351.733324 
L 321.298557 -349.006157 
L 321.763623 -346.882795 
L 322.22869 -345.159203 
L 323.623888 -344.254592 
L 324.088954 -343.427298 
L 324.554021 -341.999815 
L 325.019087 -341.097448 
L 325.484153 -339.994529 
L 326.879352 -339.406836 
L 327.344418 -339.561591 
L 327.809484 -339.113846 
L 328.27455 -339.522734 
L 328.739616 -339.396537 
L 330.134815 -339.496382 
L 330.599881 -339.946413 
L 331.064947 -339.939483 
L 331.530013 -339.960547 
L 331.99508 -339.830856 
L 333.390278 -340.02203 
L 333.855344 -339.023699 
L 334.32041 -337.661474 
L 334.785477 -336.881869 
L 335.250543 -335.80454 
L 337.110808 -335.344978 
L 337.575874 -335.56581 
L 338.04094 -336.919004 
L 338.506006 -339.425545 
L 339.901205 -341.546476 
L 340.366271 -342.827659 
L 340.831337 -344.549152 
L 341.296403 -346.458804 
L 341.761469 -348.535023 
L 343.156668 -350.909523 
L 343.621734 -353.383061 
L 344.0868 -355.85037 
L 344.551867 -360.247211 
L 345.016933 -364.813144 
L 346.412131 -370.150084 
L 346.877198 -375.083339 
L 347.342264 -379.424954 
L 347.80733 -384.700504 
L 348.272396 -390.083636 
L 349.667595 -395.556006 
L 350.132661 -400.588271 
L 350.597727 -406.104453 
L 351.062793 -412.442652 
L 351.527859 -417.864099 
L 352.923058 -423.317623 
L 353.388124 -430.015868 
L 353.85319 -433.971182 
L 354.318257 -436.615748 
L 354.783323 -440.630177 
L 356.178521 -443.29851 
L 356.643587 -444.804134 
L 357.108654 -446.94864 
L 357.57372 -446.860719 
L 358.038786 -445.428195 
L 359.433985 -444.365602 
L 359.899051 -443.124515 
L 360.364117 -443.382419 
L 360.829183 -443.708224 
L 361.294249 -443.801645 
L 362.689448 -443.529301 
L 363.154514 -442.836084 
L 363.61958 -441.389013 
L 364.084646 -438.599367 
L 364.549713 -437.353454 
L 365.944911 -434.457335 
L 366.409977 -432.879693 
L 366.875044 -433.044214 
L 367.34011 -432.842114 
L 367.805176 -432.778397 
L 369.200374 -433.607603 
L 369.665441 -432.794909 
L 370.130507 -432.25571 
L 370.595573 -432.055802 
L 371.060639 -431.298206 
L 372.455838 -430.982754 
L 372.920904 -429.703656 
L 373.38597 -428.662669 
L 374.316103 -428.300878 
L 375.711301 -427.799473 
L 376.176367 -426.325356 
L 376.641433 -423.707824 
L 377.1065 -421.612423 
L 377.571566 -419.870545 
L 378.966764 -419.824295 
L 379.431831 -420.152172 
L 379.896897 -420.320692 
L 380.361963 -419.884208 
L 380.827029 -419.699415 
L 382.222228 -419.517765 
L 382.687294 -418.505539 
L 383.15236 -417.070681 
L 383.617426 -414.854284 
L 384.082492 -412.180757 
L 385.477691 -407.9401 
L 385.942757 -405.249071 
L 386.407823 -403.265737 
L 386.87289 -401.69518 
L 387.337956 -400.597531 
L 388.733154 -398.448611 
L 389.663287 -397.35154 
L 390.128353 -394.816367 
L 390.593419 -391.738168 
L 391.988618 -389.824922 
L 392.91875 -389.152655 
L 393.383816 -389.123953 
L 393.848882 -387.434968 
L 395.244081 -386.594807 
L 395.709147 -385.768721 
L 396.174213 -385.274655 
L 396.639279 -384.896173 
L 397.104346 -385.12142 
L 398.499544 -384.929883 
L 398.96461 -383.486651 
L 399.429677 -381.531763 
L 399.894743 -380.503212 
L 400.359809 -379.384924 
L 402.220074 -377.902309 
L 402.68514 -375.595465 
L 403.150206 -373.924406 
L 403.615272 -370.96611 
L 405.010471 -368.602281 
L 405.475537 -365.28177 
L 405.940603 -363.091736 
L 406.405669 -360.937787 
L 406.870736 -359.212832 
L 408.265934 -357.312153 
L 408.731 -354.65959 
L 409.196067 -353.58167 
L 409.661133 -351.982937 
L 410.126199 -349.162648 
L 411.521397 -345.685747 
L 411.986464 -342.310368 
L 412.45153 -339.273497 
L 412.916596 -335.125322 
L 413.381662 -331.638752 
L 415.241927 -327.43035 
L 415.706993 -324.96543 
L 416.172059 -322.696759 
L 416.637126 -321.121949 
L 418.032324 -318.469971 
L 418.49739 -315.990725 
L 418.962456 -316.703864 
L 419.427523 -315.968601 
L 419.892589 -316.072902 
L 421.287787 -316.423463 
L 421.752854 -316.623603 
L 422.21792 -316.732476 
L 422.682986 -316.239252 
L 423.148052 -315.39907 
L 424.543251 -314.713316 
L 425.008317 -314.717629 
L 425.473383 -314.775888 
L 425.938449 -314.772224 
L 426.403515 -314.776791 
L 427.798714 -314.769639 
L 428.26378 -314.761417 
L 428.728846 -314.817137 
L 429.193913 -314.655182 
L 431.054177 -314.219966 
L 431.519243 -313.644304 
L 431.98431 -313.544959 
L 432.449376 -314.07698 
L 432.914442 -314.636874 
L 434.309641 -316.250488 
L 434.774707 -317.742948 
L 435.239773 -320.301281 
L 435.704839 -321.567546 
L 436.169905 -322.564758 
L 437.565104 -323.175379 
L 438.03017 -325.829075 
L 438.495236 -330.287053 
L 438.960302 -330.408402 
L 439.425369 -331.234432 
L 440.820567 -330.804636 
L 441.285633 -330.898117 
L 441.7507 -331.050893 
L 442.215766 -331.839542 
L 442.680832 -333.626295 
L 444.076031 -336.187187 
L 444.541097 -338.791382 
L 445.006163 -339.696985 
L 445.471229 -340.640925 
L 445.936295 -341.620162 
L 447.331494 -342.717926 
L 447.79656 -343.248649 
L 448.261626 -343.606903 
L 448.726692 -344.207957 
L 449.191759 -345.246706 
L 450.586957 -346.263142 
L 451.052023 -348.410042 
L 451.51709 -350.683202 
L 451.982156 -352.094425 
L 452.447222 -352.901182 
L 453.84242 -351.626725 
L 454.307487 -349.985052 
L 454.772553 -348.781745 
L 455.237619 -348.407067 
L 455.702685 -346.047958 
L 457.097884 -343.016595 
L 457.56295 -340.513076 
L 458.028016 -337.195462 
L 458.493082 -334.954263 
L 458.958148 -334.630184 
L 460.818413 -334.860034 
L 461.283479 -334.852976 
L 461.748546 -335.251093 
L 462.213612 -335.299749 
L 463.60881 -335.279977 
L 464.073877 -335.046059 
L 464.538943 -335.226247 
L 465.004009 -335.392443 
L 465.469075 -335.276713 
L 466.864274 -335.025769 
L 467.32934 -334.824965 
L 467.794406 -334.605621 
L 468.259472 -334.568612 
L 468.724538 -334.578411 
L 470.119737 -333.826094 
L 470.584803 -334.045841 
L 471.049869 -333.425684 
L 471.514936 -332.909636 
L 471.980002 -330.927986 
L 473.3752 -328.206393 
L 473.840266 -325.776678 
L 474.305333 -325.992464 
L 474.770399 -326.421252 
L 475.235465 -326.545504 
L 476.630664 -327.318914 
L 477.09573 -328.577642 
L 477.560796 -329.767268 
L 478.025862 -331.956724 
L 479.886127 -333.335173 
L 480.351193 -332.858693 
L 480.816259 -332.84728 
L 481.281325 -332.961829 
L 481.746392 -332.978624 
L 483.14159 -332.970206 
L 483.606656 -332.762391 
L 484.071723 -332.862134 
L 484.536789 -332.777657 
L 485.001855 -332.095346 
L 486.397053 -332.07134 
L 486.86212 -332.333418 
L 487.327186 -331.363331 
L 487.792252 -329.977895 
L 488.257318 -328.719135 
L 489.652517 -326.936168 
L 490.117583 -325.344437 
L 490.582649 -322.948761 
L 491.047715 -321.251105 
L 491.512782 -319.14233 
L 492.90798 -318.701049 
L 493.373046 -318.130458 
L 493.838112 -317.765315 
L 494.303179 -315.408774 
L 494.768245 -313.883524 
L 496.163443 -312.731577 
L 496.62851 -311.813657 
L 497.093576 -311.407491 
L 497.558642 -310.396522 
L 498.023708 -309.524574 
L 499.418907 -309.276567 
L 499.883973 -308.373678 
L 500.349039 -307.00926 
L 500.814105 -306.086787 
L 501.279171 -304.817381 
L 502.67437 -299.121285 
L 503.139436 -293.232864 
L 503.604502 -282.541888 
L 504.069569 -271.498673 
L 504.534635 -267.159614 
L 506.3949 -261.313625 
L 506.859966 -256.941639 
L 507.325032 -254.124123 
L 507.790098 -251.856432 
L 509.185297 -250.043077 
L 509.650363 -245.615193 
L 510.115429 -242.758332 
L 510.580495 -240.985227 
L 511.045561 -238.910253 
L 512.44076 -236.487364 
L 512.905826 -233.553923 
L 513.370892 -229.324803 
L 513.835959 -224.987638 
L 514.301025 -218.634562 
L 515.696223 -209.981954 
L 516.161289 -206.479109 
L 516.626356 -204.957788 
L 517.091422 -202.646098 
L 517.556488 -200.256875 
L 518.951687 -198.641135 
L 519.416753 -198.992651 
L 519.881819 -199.101049 
L 520.346885 -198.6584 
L 520.811951 -197.885388 
L 522.20715 -196.036417 
L 522.672216 -191.486507 
L 523.137282 -187.442621 
L 523.602348 -185.115613 
L 524.067415 -182.264246 
L 525.462613 -178.610179 
L 525.927679 -174.699697 
L 526.392746 -171.960497 
L 526.857812 -168.144682 
L 527.322878 -163.448767 
L 528.718076 -158.787858 
L 529.183143 -152.625738 
L 529.648209 -147.793176 
L 530.113275 -142.069808 
L 530.578341 -137.481085 
L 531.97354 -132.554121 
L 532.438606 -127.069183 
L 532.903672 -121.746163 
L 533.368738 -115.399528 
L 533.833805 -109.021195 
L 535.229003 -104.000655 
L 535.694069 -100.874222 
L 536.159135 -98.985462 
L 536.624202 -97.53621 
L 537.089268 -96.510297 
L 538.484466 -94.267592 
L 538.949533 -92.899921 
L 539.414599 -92.731659 
L 539.879665 -92.402806 
L 540.344731 -92.334633 
L 541.73993 -92.443125 
L 542.204996 -91.976083 
L 542.670062 -91.571613 
L 543.135128 -91.532501 
L 543.600194 -91.042107 
L 544.995393 -90.763017 
L 545.460459 -91.083545 
L 545.925525 -92.351091 
L 546.855658 -92.839041 
L 548.250856 -92.838635 
L 548.715922 -92.843785 
L 549.180989 -92.992349 
L 549.646055 -93.017758 
L 550.111121 -93.56045 
L 551.50632 -93.842229 
L 551.971386 -94.397198 
L 552.436452 -95.543489 
L 552.901518 -96.81299 
L 553.366584 -99.588153 
L 554.761783 -103.614594 
L 555.226849 -107.994568 
L 555.691915 -109.247525 
L 556.156981 -109.967854 
L 556.622048 -110.050127 
L 558.017246 -109.991053 
L 558.482312 -111.418379 
L 558.947379 -112.889025 
L 559.877511 -113.517744 
L 561.27271 -111.514054 
L 561.737776 -111.389257 
L 562.202842 -110.730003 
L 563.132974 -110.964637 
L 564.528173 -111.289742 
L 564.993239 -112.245472 
L 565.458305 -113.732523 
L 565.923371 -115.662397 
L 566.388438 -116.032458 
L 567.783636 -116.253614 
L 568.248702 -116.377364 
L 568.713769 -116.471033 
L 569.178835 -116.68717 
L 569.643901 -116.991718 
L 571.504166 -117.274386 
L 571.969232 -118.116006 
L 572.434298 -118.866376 
L 572.899364 -119.125351 
L 574.294563 -119.26145 
L 574.759629 -119.210318 
L 575.224695 -119.01994 
L 575.689761 -118.919231 
L 576.154828 -118.924676 
L 577.550026 -118.524492 
L 578.015092 -118.777742 
L 578.480158 -119.631448 
L 578.945225 -120.530559 
L 579.410291 -121.772659 
L 580.805489 -123.168722 
L 581.270556 -124.437299 
L 581.735622 -129.647474 
L 582.200688 -131.838608 
L 582.665754 -132.872843 
L 584.526019 -132.666725 
L 584.991085 -134.409357 
L 585.456151 -135.776355 
L 585.921217 -135.904504 
L 587.316416 -136.565652 
L 587.781482 -137.717711 
L 588.246548 -138.441931 
L 588.711615 -139.00274 
L 589.176681 -139.426091 
L 590.571879 -139.541669 
L 591.036945 -138.67502 
L 591.502012 -138.158224 
L 591.967078 -138.02047 
L 592.432144 -137.881971 
L 593.827343 -138.011199 
L 594.292409 -138.160981 
L 594.757475 -139.35213 
L 595.222541 -140.736846 
L 595.687607 -141.925396 
L 597.082806 -143.252956 
L 597.547872 -145.784078 
L 598.012938 -146.653276 
L 598.478004 -148.052998 
L 598.943071 -148.963677 
L 600.338269 -149.914637 
L 600.803335 -152.35325 
L 601.268402 -155.647654 
L 601.733468 -158.623163 
L 602.198534 -162.607946 
L 603.593733 -168.38306 
L 604.058799 -175.487421 
L 604.523865 -180.058325 
L 604.988931 -183.238653 
L 605.453997 -185.626242 
L 606.849196 -187.872566 
L 607.314262 -191.446854 
L 607.779328 -193.99728 
L 608.244394 -195.453157 
L 610.104659 -198.406907 
L 610.569725 -201.827554 
L 611.034791 -202.398516 
L 611.499858 -203.074378 
L 611.964924 -204.057188 
L 613.360122 -205.010817 
L 613.825189 -207.084926 
L 614.290255 -211.202561 
L 614.755321 -214.285601 
L 615.220387 -216.657139 
L 616.615586 -218.395779 
L 617.080652 -219.006475 
L 617.545718 -220.407128 
L 618.010784 -222.20727 
L 618.47585 -224.409934 
L 619.871049 -225.158998 
L 620.336115 -225.312154 
L 620.801181 -227.74469 
L 621.266248 -229.048171 
L 621.731314 -230.530082 
L 623.126512 -232.293253 
L 623.591579 -235.495433 
L 624.056645 -237.73061 
L 624.521711 -239.890556 
L 624.986777 -241.840622 
L 626.381976 -244.390402 
L 626.847042 -247.281454 
L 627.312108 -250.658898 
L 627.777174 -252.685788 
L 628.24224 -254.580907 
L 630.102505 -256.933883 
L 630.567571 -257.929044 
L 631.032638 -258.509658 
L 631.497704 -258.806158 
L 632.892902 -259.941027 
L 633.357968 -259.618436 
L 633.823035 -260.285096 
L 634.288101 -261.14869 
L 634.753167 -263.673519 
L 636.148366 -265.287064 
L 636.613432 -266.79605 
L 637.078498 -266.961922 
L 637.543564 -267.355353 
L 638.00863 -268.453427 
L 639.403829 -269.63157 
L 639.868895 -270.828535 
L 640.333961 -270.209875 
L 640.799027 -270.670725 
L 641.264094 -270.379945 
L 642.659292 -270.455913 
L 643.124358 -270.57286 
L 643.589425 -270.405166 
L 644.054491 -270.39414 
L 644.519557 -270.03656 
L 645.914755 -269.462342 
L 646.379822 -269.139108 
L 646.844888 -268.858692 
L 647.309954 -268.422432 
L 649.170219 -268.501306 
L 649.635285 -268.801316 
L 650.100351 -269.701489 
L 650.565417 -270.563949 
L 651.030484 -272.122295 
L 652.425682 -273.263261 
L 652.890748 -274.501801 
L 653.355814 -276.975545 
L 653.820881 -278.701353 
L 654.285947 -280.440351 
L 655.681145 -282.054596 
L 656.146212 -283.32218 
L 656.611278 -284.211609 
L 657.076344 -285.559993 
L 657.54141 -287.018147 
L 658.936609 -289.253125 
L 659.401675 -290.703416 
L 659.866741 -293.321785 
L 660.331807 -297.322166 
L 660.796873 -300.529874 
L 662.192072 -304.815711 
L 662.657138 -307.089311 
L 663.122204 -309.724657 
L 663.587271 -310.937881 
L 664.052337 -311.882278 
L 665.447535 -312.898681 
L 665.912602 -313.334653 
L 666.377668 -313.395861 
L 666.842734 -313.054759 
L 667.3078 -312.842778 
L 668.702999 -312.764895 
L 669.168065 -312.753951 
L 669.633131 -312.867403 
L 670.098197 -312.694577 
L 670.563263 -312.475177 
L 671.958462 -312.020728 
L 672.423528 -311.889393 
L 672.888594 -311.520128 
L 673.35366 -311.004194 
L 673.818727 -310.634272 
L 675.213925 -310.846997 
L 675.678991 -311.435762 
L 676.144058 -312.587056 
L 676.609124 -313.305057 
L 677.07419 -314.132302 
L 678.934455 -315.220094 
L 679.399521 -317.321554 
L 679.864587 -318.995819 
L 680.329653 -320.919205 
L 681.724852 -322.53837 
L 682.189918 -324.030363 
L 682.654984 -325.825545 
L 683.12005 -327.253263 
L 683.585117 -328.768477 
L 684.980315 -330.56036 
L 685.445381 -332.610373 
L 685.910448 -334.663176 
L 686.375514 -337.996624 
L 686.84058 -342.2272 
L 688.235778 -345.948878 
L 688.700845 -349.8085 
L 689.165911 -352.821437 
L 689.630977 -354.712868 
L 690.096043 -356.038687 
L 691.491242 -357.128507 
L 691.956308 -357.428807 
L 692.421374 -357.823975 
L 692.88644 -356.088803 
L 693.351507 -355.6819 
L 694.746705 -353.26047 
L 695.211771 -351.267198 
L 695.676837 -349.45533 
L 696.141904 -347.393071 
L 696.60697 -346.25503 
L 698.002168 -345.150751 
L 698.467235 -344.587702 
L 698.932301 -343.975103 
L 699.397367 -343.698834 
L 699.862433 -343.648708 
L 701.257632 -343.353019 
L 701.722698 -342.797411 
L 702.187764 -342.203677 
L 702.65283 -341.796947 
L 703.117896 -340.859312 
L 704.513095 -339.621239 
L 704.978161 -338.927159 
L 705.443227 -338.05626 
L 705.908294 -337.490307 
L 706.37336 -335.753034 
L 707.768558 -334.986303 
L 708.233624 -334.094036 
L 708.698691 -333.154136 
L 709.163757 -331.560764 
L 709.628823 -330.908778 
L 711.024022 -329.512308 
L 711.489088 -327.775954 
L 711.954154 -327.032816 
L 712.41922 -326.464996 
L 712.884286 -325.768148 
L 714.279485 -325.294833 
L 714.744551 -324.232174 
L 715.209617 -323.537471 
L 716.13975 -322.29847 
L 717.534948 -321.326486 
L 718.000014 -320.777104 
L 718.465081 -320.113448 
L 718.930147 -319.385746 
L 719.395213 -319.043847 
L 720.790412 -318.719624 
L 721.255478 -318.440145 
L 721.720544 -318.628028 
L 722.18561 -319.015963 
L 722.18561 -334.934709 
L 722.18561 -334.934709 
L 721.720544 -336.481898 
L 721.255478 -338.245828 
L 720.790412 -339.854617 
L 719.395213 -341.729389 
L 718.930147 -343.759776 
L 718.465081 -344.956193 
L 718.000014 -346.080715 
L 717.534948 -346.476962 
L 716.13975 -347.03023 
L 715.209617 -347.071488 
L 714.744551 -347.365735 
L 714.279485 -347.489217 
L 712.884286 -347.623911 
L 712.41922 -348.806368 
L 711.954154 -349.049727 
L 711.489088 -350.124645 
L 711.024022 -351.007066 
L 709.628823 -352.076996 
L 709.163757 -353.882446 
L 708.698691 -354.523922 
L 708.233624 -356.317828 
L 707.768558 -358.095129 
L 706.37336 -359.525898 
L 705.908294 -361.444156 
L 705.443227 -364.367913 
L 704.978161 -365.902164 
L 704.513095 -367.91948 
L 703.117896 -369.563107 
L 702.65283 -370.917089 
L 702.187764 -372.539051 
L 701.722698 -373.495966 
L 701.257632 -374.317718 
L 699.862433 -374.447786 
L 699.397367 -374.47385 
L 698.932301 -374.869828 
L 698.467235 -375.313405 
L 698.002168 -375.636227 
L 696.60697 -375.685226 
L 696.141904 -375.990276 
L 695.676837 -376.040368 
L 695.211771 -376.306491 
L 694.746705 -376.062556 
L 693.351507 -375.584667 
L 692.88644 -375.608003 
L 692.421374 -375.024613 
L 691.956308 -375.128474 
L 691.491242 -375.180792 
L 690.096043 -375.425073 
L 689.630977 -375.433287 
L 689.165911 -375.981719 
L 688.700845 -376.344507 
L 688.235778 -376.838411 
L 686.84058 -377.167484 
L 686.375514 -376.902965 
L 685.910448 -375.439555 
L 685.445381 -374.240176 
L 684.980315 -372.446431 
L 683.585117 -370.611166 
L 683.12005 -368.806973 
L 682.654984 -366.419316 
L 682.189918 -364.569424 
L 681.724852 -362.631462 
L 680.329653 -361.669198 
L 679.864587 -360.745241 
L 679.399521 -358.853607 
L 678.934455 -357.021673 
L 677.07419 -355.156059 
L 676.609124 -353.739492 
L 676.144058 -351.574298 
L 675.678991 -349.077531 
L 675.213925 -345.907686 
L 673.818727 -343.320875 
L 673.35366 -340.496504 
L 672.888594 -338.065412 
L 672.423528 -335.50014 
L 671.958462 -333.492488 
L 670.563263 -330.885353 
L 670.098197 -328.831466 
L 669.633131 -326.35358 
L 669.168065 -325.013482 
L 668.702999 -324.502087 
L 667.3078 -324.685633 
L 666.842734 -325.039833 
L 666.377668 -324.985558 
L 665.912602 -324.991494 
L 665.447535 -324.616285 
L 664.052337 -324.500325 
L 663.587271 -324.222725 
L 663.122204 -323.838988 
L 662.657138 -324.191682 
L 662.192072 -324.50232 
L 660.796873 -325.555394 
L 660.331807 -325.906799 
L 659.866741 -326.713261 
L 659.401675 -326.651603 
L 658.936609 -326.489997 
L 657.54141 -325.850746 
L 657.076344 -324.745399 
L 656.611278 -323.655767 
L 656.146212 -323.072227 
L 655.681145 -322.305144 
L 654.285947 -321.048146 
L 653.820881 -319.186886 
L 653.355814 -316.811986 
L 652.890748 -315.078956 
L 652.425682 -313.184825 
L 651.030484 -311.306653 
L 650.565417 -309.475378 
L 650.100351 -308.055186 
L 649.635285 -306.336582 
L 649.170219 -303.913244 
L 647.309954 -301.068589 
L 646.844888 -297.82831 
L 646.379822 -295.882214 
L 645.914755 -293.848485 
L 644.519557 -291.628007 
L 644.054491 -290.169437 
L 643.589425 -287.963897 
L 643.124358 -285.984125 
L 642.659292 -285.304832 
L 641.264094 -284.65328 
L 640.799027 -284.777799 
L 640.333961 -284.760604 
L 639.868895 -284.664804 
L 639.403829 -284.937058 
L 638.00863 -284.725889 
L 637.543564 -284.770775 
L 637.078498 -284.242479 
L 636.613432 -283.767474 
L 636.148366 -283.04161 
L 634.753167 -282.692193 
L 634.288101 -282.950803 
L 633.823035 -282.732827 
L 633.357968 -282.591296 
L 632.892902 -282.654127 
L 631.497704 -282.384745 
L 631.032638 -282.103113 
L 630.567571 -282.006999 
L 630.102505 -281.508277 
L 628.24224 -281.481499 
L 627.777174 -280.816103 
L 627.312108 -280.158486 
L 626.847042 -279.650342 
L 626.381976 -278.297274 
L 624.986777 -276.8061 
L 624.521711 -274.842194 
L 624.056645 -272.672868 
L 623.591579 -271.652876 
L 623.126512 -270.654257 
L 621.731314 -268.872444 
L 621.266248 -266.861656 
L 620.801181 -264.66049 
L 620.336115 -263.373258 
L 619.871049 -261.748693 
L 618.47585 -260.702109 
L 618.010784 -259.556982 
L 617.545718 -258.315579 
L 617.080652 -256.05622 
L 616.615586 -253.118945 
L 615.220387 -251.842931 
L 614.755321 -250.732228 
L 614.290255 -250.343486 
L 613.825189 -249.24 
L 613.360122 -247.176053 
L 611.964924 -244.006566 
L 611.499858 -241.885088 
L 611.034791 -238.285458 
L 610.569725 -235.380155 
L 610.104659 -233.297338 
L 608.244394 -232.101082 
L 607.779328 -230.083682 
L 607.314262 -228.422852 
L 606.849196 -227.998017 
L 605.453997 -226.94286 
L 604.988931 -225.73766 
L 604.523865 -224.373598 
L 604.058799 -223.68454 
L 603.593733 -223.855792 
L 602.198534 -223.750983 
L 601.733468 -221.927551 
L 601.268402 -219.566911 
L 600.803335 -217.062062 
L 600.338269 -215.192316 
L 598.943071 -210.306678 
L 598.478004 -206.410043 
L 598.012938 -204.100454 
L 597.547872 -201.518782 
L 597.082806 -198.585281 
L 595.687607 -194.712635 
L 595.222541 -191.686941 
L 594.757475 -189.218935 
L 594.292409 -187.376007 
L 593.827343 -186.926742 
L 592.432144 -185.188617 
L 591.967078 -182.468689 
L 591.502012 -178.96223 
L 591.036945 -176.546709 
L 590.571879 -173.385456 
L 589.176681 -172.833268 
L 588.711615 -171.56405 
L 588.246548 -168.772586 
L 587.781482 -167.193239 
L 587.316416 -166.377855 
L 585.921217 -164.636839 
L 585.456151 -163.33833 
L 584.991085 -162.594472 
L 584.526019 -162.681881 
L 582.665754 -162.619178 
L 582.200688 -162.963238 
L 581.735622 -163.388603 
L 581.270556 -164.674348 
L 580.805489 -164.550627 
L 579.410291 -164.0883 
L 578.945225 -163.031314 
L 578.480158 -161.80463 
L 578.015092 -160.82833 
L 577.550026 -159.728121 
L 576.154828 -160.125671 
L 575.689761 -160.117672 
L 575.224695 -160.420311 
L 574.759629 -160.869314 
L 574.294563 -160.975041 
L 572.899364 -159.309517 
L 572.434298 -157.548762 
L 571.969232 -155.587735 
L 571.504166 -154.273682 
L 569.643901 -151.351972 
L 569.178835 -148.464092 
L 568.713769 -146.312425 
L 568.248702 -145.324524 
L 567.783636 -145.035963 
L 566.388438 -144.541549 
L 565.923371 -144.205003 
L 565.458305 -143.705823 
L 564.993239 -142.211085 
L 564.528173 -141.889544 
L 563.132974 -141.815783 
L 562.202842 -141.730725 
L 561.737776 -141.985728 
L 561.27271 -141.983429 
L 559.877511 -141.224143 
L 558.947379 -141.240369 
L 558.482312 -141.391917 
L 558.017246 -141.335817 
L 556.622048 -141.436589 
L 556.156981 -141.344078 
L 555.691915 -140.250833 
L 555.226849 -138.816295 
L 554.761783 -138.536849 
L 553.366584 -137.079246 
L 552.901518 -134.834963 
L 552.436452 -132.410092 
L 551.971386 -130.28478 
L 551.50632 -128.549628 
L 550.111121 -127.849926 
L 549.646055 -127.021234 
L 549.180989 -126.783719 
L 548.715922 -126.336224 
L 548.250856 -126.457897 
L 546.855658 -126.455996 
L 545.925525 -128.046431 
L 545.460459 -131.737055 
L 544.995393 -134.013075 
L 543.600194 -137.624056 
L 543.135128 -140.624866 
L 542.670062 -144.761158 
L 542.204996 -147.649205 
L 541.73993 -150.186361 
L 540.344731 -153.76813 
L 539.879665 -159.355797 
L 539.414599 -166.127369 
L 538.949533 -173.787052 
L 538.484466 -180.859818 
L 537.089268 -185.86842 
L 536.624202 -189.83357 
L 536.159135 -193.859398 
L 535.694069 -199.607367 
L 535.229003 -202.991275 
L 533.833805 -203.272525 
L 533.368738 -204.266503 
L 532.903672 -206.557498 
L 532.438606 -209.147575 
L 531.97354 -212.851509 
L 530.578341 -217.077564 
L 530.113275 -221.683688 
L 529.648209 -226.0754 
L 529.183143 -229.20822 
L 528.718076 -230.439325 
L 527.322878 -234.773085 
L 526.857812 -238.26066 
L 526.392746 -241.252468 
L 525.927679 -243.002386 
L 525.462613 -243.826019 
L 524.067415 -245.744134 
L 523.602348 -245.415935 
L 523.137282 -245.604625 
L 522.672216 -247.452612 
L 522.20715 -249.269631 
L 520.811951 -255.459243 
L 520.346885 -261.924092 
L 519.881819 -267.834925 
L 519.416753 -273.966659 
L 518.951687 -281.523171 
L 517.556488 -287.218493 
L 517.091422 -292.0746 
L 516.626356 -297.898595 
L 516.161289 -302.714326 
L 515.696223 -307.124577 
L 514.301025 -309.381795 
L 513.835959 -311.115104 
L 513.370892 -313.188191 
L 512.905826 -315.040668 
L 512.44076 -317.456821 
L 511.045561 -319.279547 
L 510.580495 -321.194734 
L 510.115429 -322.932253 
L 509.650363 -324.861792 
L 509.185297 -326.779921 
L 507.790098 -329.239069 
L 507.325032 -331.363392 
L 506.859966 -333.669894 
L 506.3949 -337.208017 
L 504.534635 -339.603779 
L 504.069569 -341.618203 
L 503.604502 -341.263718 
L 503.139436 -340.472705 
L 502.67437 -341.284347 
L 501.279171 -342.534806 
L 500.814105 -345.72165 
L 500.349039 -349.152351 
L 499.883973 -351.379229 
L 499.418907 -352.15397 
L 498.023708 -353.240001 
L 497.558642 -354.91064 
L 497.093576 -357.928673 
L 496.62851 -360.574508 
L 496.163443 -361.966129 
L 494.768245 -363.633138 
L 494.303179 -365.007515 
L 493.838112 -365.247343 
L 493.373046 -365.164544 
L 492.90798 -365.036141 
L 491.512782 -364.993726 
L 491.047715 -364.937547 
L 490.582649 -364.848803 
L 490.117583 -364.977788 
L 489.652517 -364.847076 
L 488.257318 -365.411 
L 487.792252 -365.974776 
L 487.327186 -366.147461 
L 486.86212 -366.312724 
L 486.397053 -366.060905 
L 485.001855 -366.08321 
L 484.536789 -367.091973 
L 484.071723 -367.370509 
L 483.606656 -367.144584 
L 483.14159 -367.819653 
L 481.746392 -368.547718 
L 481.281325 -368.374792 
L 480.816259 -367.483959 
L 480.351193 -367.541263 
L 479.886127 -367.869986 
L 478.025862 -367.46922 
L 477.560796 -366.990601 
L 477.09573 -365.093867 
L 476.630664 -363.024225 
L 475.235465 -362.103573 
L 474.770399 -361.295643 
L 474.305333 -360.359023 
L 473.840266 -360.234203 
L 473.3752 -359.976592 
L 471.980002 -359.905149 
L 471.514936 -359.979083 
L 471.049869 -360.160677 
L 470.584803 -360.272522 
L 470.119737 -360.154653 
L 468.724538 -360.50482 
L 468.259472 -360.471296 
L 467.794406 -360.978061 
L 467.32934 -362.113667 
L 466.864274 -363.741377 
L 465.469075 -365.590832 
L 465.004009 -367.547118 
L 464.538943 -368.711229 
L 464.073877 -370.40024 
L 463.60881 -371.58551 
L 462.213612 -372.155821 
L 461.748546 -372.627246 
L 461.283479 -375.242284 
L 460.818413 -377.87641 
L 458.958148 -380.82214 
L 458.493082 -383.599364 
L 458.028016 -385.036102 
L 457.56295 -386.241965 
L 457.097884 -387.178858 
L 455.702685 -388.067444 
L 455.237619 -388.598997 
L 454.772553 -388.635137 
L 454.307487 -388.576142 
L 453.84242 -388.40146 
L 452.447222 -388.26086 
L 451.982156 -388.423754 
L 451.51709 -388.760875 
L 451.052023 -389.446037 
L 450.586957 -390.049756 
L 449.191759 -390.268459 
L 448.726692 -390.313777 
L 448.261626 -390.248558 
L 447.79656 -390.079472 
L 447.331494 -389.763164 
L 445.936295 -389.107108 
L 445.471229 -388.280242 
L 445.006163 -387.243292 
L 444.541097 -386.136635 
L 444.076031 -384.753656 
L 442.680832 -383.783009 
L 442.215766 -382.64474 
L 441.7507 -381.300125 
L 441.285633 -378.7669 
L 440.820567 -376.13554 
L 439.425369 -372.622371 
L 438.960302 -368.584319 
L 438.495236 -366.348321 
L 438.03017 -364.582786 
L 437.565104 -362.2499 
L 436.169905 -358.89277 
L 435.704839 -356.038752 
L 435.239773 -354.872976 
L 434.774707 -353.819102 
L 434.309641 -352.2745 
L 432.914442 -350.709133 
L 432.449376 -350.203887 
L 431.98431 -349.921742 
L 431.519243 -349.95386 
L 431.054177 -350.280504 
L 429.193913 -351.249537 
L 428.728846 -352.618812 
L 428.26378 -352.459413 
L 427.798714 -352.221133 
L 426.403515 -352.061608 
L 425.938449 -352.031815 
L 425.473383 -352.135712 
L 425.008317 -351.735349 
L 424.543251 -351.971215 
L 423.148052 -352.954128 
L 422.682986 -354.463822 
L 422.21792 -355.839445 
L 421.752854 -357.500462 
L 421.287787 -358.812051 
L 419.892589 -360.892529 
L 419.427523 -362.123216 
L 418.962456 -364.879156 
L 418.49739 -369.358374 
L 418.032324 -375.358407 
L 416.637126 -379.083814 
L 416.172059 -382.455249 
L 415.706993 -385.122368 
L 415.241927 -387.61415 
L 413.381662 -388.752353 
L 412.916596 -391.111344 
L 412.45153 -393.049249 
L 411.986464 -393.854644 
L 411.521397 -394.006322 
L 410.126199 -394.398577 
L 409.661133 -395.741738 
L 409.196067 -396.621355 
L 408.731 -398.65818 
L 408.265934 -399.895688 
L 406.870736 -400.915551 
L 406.405669 -401.288006 
L 405.940603 -401.274791 
L 405.475537 -401.696064 
L 405.010471 -402.279066 
L 403.615272 -403.863568 
L 403.150206 -405.542286 
L 402.68514 -409.080397 
L 402.220074 -411.447913 
L 400.359809 -413.861344 
L 399.894743 -417.167936 
L 399.429677 -419.703789 
L 398.96461 -421.099681 
L 398.499544 -421.570112 
L 397.104346 -421.880521 
L 396.639279 -421.169102 
L 396.174213 -422.147066 
L 395.709147 -423.463585 
L 395.244081 -424.494394 
L 393.848882 -426.093744 
L 393.383816 -427.359659 
L 392.91875 -431.067159 
L 391.988618 -433.158575 
L 390.593419 -435.998863 
L 390.128353 -437.559168 
L 389.663287 -438.645168 
L 388.733154 -441.938617 
L 387.337956 -444.771797 
L 386.87289 -447.069745 
L 386.407823 -449.798583 
L 385.942757 -450.268203 
L 385.477691 -449.922569 
L 384.082492 -449.712408 
L 383.617426 -449.245347 
L 383.15236 -449.650714 
L 382.687294 -450.561251 
L 382.222228 -452.185727 
L 380.827029 -453.792255 
L 380.361963 -456.799889 
L 379.896897 -459.514002 
L 379.431831 -459.386735 
L 378.966764 -459.26794 
L 377.571566 -459.272481 
L 377.1065 -459.250062 
L 376.641433 -459.993038 
L 376.176367 -459.89718 
L 375.711301 -461.555735 
L 374.316103 -465.467262 
L 373.38597 -470.997344 
L 372.920904 -474.101882 
L 372.455838 -477.701805 
L 371.060639 -479.135688 
L 370.595573 -479.688228 
L 370.130507 -479.878224 
L 369.665441 -480.16066 
L 369.200374 -480.387708 
L 367.805176 -479.842542 
L 367.34011 -479.959586 
L 366.875044 -480.241502 
L 366.409977 -480.004168 
L 365.944911 -480.818231 
L 364.549713 -481.82264 
L 364.084646 -482.448563 
L 363.61958 -483.608742 
L 363.154514 -485.406385 
L 362.689448 -485.672243 
L 361.294249 -485.88541 
L 360.829183 -485.818985 
L 360.364117 -485.254437 
L 359.899051 -484.762414 
L 359.433985 -484.756766 
L 358.038786 -484.502364 
L 357.57372 -484.091655 
L 357.108654 -484.067973 
L 356.643587 -484.380977 
L 356.178521 -484.697469 
L 354.783323 -484.434803 
L 354.318257 -482.969669 
L 353.85319 -479.277184 
L 353.388124 -477.282364 
L 352.923058 -475.584989 
L 351.527859 -474.266742 
L 351.062793 -473.983051 
L 350.597727 -473.958804 
L 350.132661 -473.460614 
L 349.667595 -472.730975 
L 348.272396 -472.420524 
L 347.80733 -470.532928 
L 347.342264 -468.367448 
L 346.877198 -466.131497 
L 346.412131 -463.097876 
L 345.016933 -459.145854 
L 344.551867 -455.452111 
L 344.0868 -450.140207 
L 343.621734 -443.457485 
L 343.156668 -438.875413 
L 341.761469 -433.631111 
L 341.296403 -428.527731 
L 340.831337 -422.688611 
L 340.366271 -416.154907 
L 339.901205 -410.268441 
L 338.506006 -405.384557 
L 338.04094 -400.140834 
L 337.575874 -394.792469 
L 337.110808 -390.023734 
L 335.250543 -385.092982 
L 334.785477 -379.873118 
L 334.32041 -377.565271 
L 333.855344 -374.074263 
L 333.390278 -371.177206 
L 331.99508 -370.18373 
L 331.530013 -369.586455 
L 331.064947 -369.686694 
L 330.599881 -370.54771 
L 330.134815 -372.826254 
L 328.739616 -374.276568 
L 328.27455 -376.561498 
L 327.809484 -380.552718 
L 327.344418 -383.14353 
L 326.879352 -386.919455 
L 325.484153 -390.802954 
L 325.019087 -395.721876 
L 324.554021 -400.984763 
L 324.088954 -406.795142 
L 323.623888 -412.309379 
L 322.22869 -417.7463 
L 321.763623 -422.415031 
L 321.298557 -426.092416 
L 320.833491 -429.579802 
L 320.368425 -433.859304 
L 318.973226 -437.89522 
L 318.50816 -440.946899 
L 318.043094 -443.720489 
L 317.578028 -445.460385 
L 317.112962 -446.998688 
L 315.717763 -448.714863 
L 315.252697 -450.289198 
L 314.787631 -451.385116 
L 314.322564 -452.640161 
L 313.857498 -454.341386 
L 312.4623 -455.691117 
L 311.997234 -457.157447 
L 311.532167 -458.968141 
L 311.067101 -459.804343 
L 310.602035 -460.856993 
L 309.206836 -461.099107 
L 308.74177 -462.551833 
L 307.811638 -463.43821 
L 307.346572 -463.165184 
L 305.951373 -463.131166 
L 305.486307 -462.433498 
L 305.021241 -462.939751 
L 304.556175 -463.890226 
L 304.091108 -464.904215 
L 302.69591 -466.019162 
L 302.230844 -467.028089 
L 301.765777 -468.258986 
L 301.300711 -468.799769 
L 300.835645 -468.971064 
L 299.440447 -469.129222 
L 298.97538 -469.568897 
L 298.510314 -470.364493 
L 298.045248 -470.807022 
L 297.580182 -471.447897 
L 296.184983 -471.523536 
L 295.719917 -471.640466 
L 295.254851 -471.5706 
L 294.789785 -470.79462 
L 294.324718 -470.185645 
L 292.92952 -470.143459 
L 292.464454 -470.127029 
L 291.999388 -470.113855 
L 291.534321 -469.896405 
L 289.674057 -469.920258 
L 289.20899 -470.019756 
L 288.743924 -470.270154 
L 288.278858 -469.424247 
L 287.813792 -469.391055 
L 286.418593 -469.211087 
L 285.953527 -469.199255 
L 285.488461 -469.198882 
L 285.023395 -469.028134 
L 284.558329 -468.540133 
L 283.16313 -468.008523 
L 282.698064 -467.264208 
L 282.232998 -466.563084 
L 281.767931 -465.634811 
L 281.302865 -465.228895 
L 279.907667 -466.02886 
L 279.4426 -466.247123 
L 278.977534 -465.787822 
L 278.512468 -464.557041 
L 278.047402 -463.416918 
L 276.652203 -461.96268 
L 276.187137 -460.827285 
L 275.722071 -459.589354 
L 275.257005 -458.804804 
L 274.791939 -457.564761 
L 273.39674 -455.943535 
L 272.931674 -454.939093 
L 272.466608 -453.258377 
L 272.001541 -451.833042 
L 271.536475 -449.877649 
L 270.141277 -447.684056 
L 269.676211 -446.565677 
L 269.211144 -445.69187 
L 268.746078 -444.908537 
L 268.281012 -444.183163 
L 266.420747 -442.133607 
L 265.955681 -439.767631 
L 265.490615 -436.973182 
L 265.025549 -435.018626 
L 263.63035 -432.450232 
L 263.165284 -430.300017 
L 262.700218 -428.36442 
L 262.235152 -426.680626 
L 261.770085 -425.927371 
L 260.374887 -424.437688 
L 259.909821 -424.04796 
L 259.444754 -423.63397 
L 258.979688 -423.178178 
L 258.514622 -424.053673 
L 257.119424 -425.447071 
L 256.654357 -427.453895 
L 256.189291 -429.507618 
L 255.724225 -431.505112 
L 255.259159 -432.979847 
L 253.86396 -434.302728 
L 253.398894 -435.631995 
L 252.933828 -436.229007 
L 252.468762 -436.367355 
L 252.003695 -436.563963 
L 250.608497 -436.824209 
L 250.143431 -437.237033 
L 249.678365 -437.703323 
L 249.213298 -438.432969 
L 248.748232 -439.308256 
L 247.353034 -440.029265 
L 246.887967 -440.712438 
L 246.422901 -441.05406 
L 245.957835 -441.545934 
L 244.09757 -442.245822 
L 243.632504 -442.867788 
L 243.167438 -444.356848 
L 242.702372 -444.568688 
L 242.237306 -444.785719 
L 240.842107 -443.65948 
L 240.377041 -442.936104 
L 239.911975 -442.670671 
L 239.446908 -442.469368 
L 238.981842 -440.588151 
L 237.586644 -440.490563 
L 237.121578 -440.191361 
L 236.656511 -439.754466 
L 236.191445 -438.898797 
L 235.726379 -438.278424 
L 234.33118 -438.126709 
L 233.866114 -437.529815 
L 233.401048 -436.777582 
L 232.935982 -436.47448 
L 232.470916 -436.19149 
L 231.075717 -435.684689 
L 230.610651 -435.082227 
L 230.145585 -434.405437 
L 229.680519 -433.388273 
L 227.820254 -432.618571 
L 227.355188 -431.702853 
L 226.890121 -430.911721 
L 226.425055 -430.037084 
L 225.959989 -429.554228 
L 224.56479 -428.736922 
L 224.099724 -427.548285 
L 223.634658 -426.541578 
L 221.309327 -423.550671 
L 220.844261 -422.449103 
L 220.379195 -420.979007 
L 219.914129 -419.912907 
L 218.053864 -418.965431 
L 217.588798 -417.086297 
L 217.123731 -414.83877 
L 216.658665 -412.131472 
L 216.193599 -409.915743 
L 214.798401 -408.666844 
L 214.333334 -408.381446 
L 213.868268 -407.884514 
L 213.403202 -407.833248 
L 212.938136 -407.830736 
L 211.542937 -407.621418 
L 211.077871 -407.649964 
L 210.612805 -407.713343 
L 210.147739 -407.76326 
L 209.682672 -407.906552 
L 208.287474 -408.26285 
L 207.822408 -408.113332 
L 207.357342 -407.533476 
L 206.892275 -406.859379 
L 206.427209 -405.885013 
L 205.032011 -405.308357 
L 204.101878 -404.707914 
L 203.636812 -404.162699 
L 203.171746 -403.36087 
L 201.776547 -402.080863 
L 201.311481 -400.36208 
L 200.846415 -399.333397 
L 200.381349 -397.190767 
L 199.916283 -395.719622 
L 198.521084 -394.685059 
L 198.056018 -394.391145 
L 197.590952 -393.798121 
L 197.125885 -392.929293 
L 196.660819 -391.836533 
L 195.265621 -391.273905 
L 194.800555 -389.085135 
L 194.335488 -386.56342 
L 193.870422 -384.448536 
L 193.405356 -382.779403 
L 192.010157 -381.603675 
L 191.545091 -379.836519 
L 191.080025 -378.625786 
L 190.614959 -377.942836 
L 190.149893 -377.799668 
L 188.754694 -377.66493 
L 188.289628 -377.511285 
L 187.824562 -376.767615 
L 187.359496 -375.8837 
L 186.894429 -374.616853 
L 185.499231 -373.714485 
L 185.034165 -372.642462 
L 184.569098 -371.805284 
L 184.104032 -370.198701 
L 183.638966 -368.385407 
L 182.243767 -366.590404 
L 181.778701 -363.522974 
L 181.313635 -361.350036 
L 180.848569 -359.240914 
L 180.383503 -358.134949 
L 178.988304 -357.475633 
L 178.523238 -356.615689 
L 178.058172 -354.784616 
L 177.593106 -352.633915 
L 177.128039 -349.886403 
L 175.732841 -347.137749 
L 175.267775 -344.655043 
L 174.802709 -342.3927 
L 174.337642 -339.831537 
L 173.872576 -337.327727 
L 172.477378 -334.982705 
L 172.012311 -332.513667 
L 171.547245 -329.672691 
L 171.082179 -327.14465 
L 170.617113 -325.228756 
L 169.221914 -323.493763 
L 168.756848 -321.518161 
L 168.291782 -319.518038 
L 167.826716 -317.381605 
L 165.966451 -315.085431 
L 165.501385 -312.899304 
L 165.036319 -310.557616 
L 164.571252 -308.170544 
L 164.106186 -306.489452 
L 162.710988 -304.725213 
L 162.245921 -302.844249 
L 161.780855 -300.640256 
L 161.315789 -298.708539 
L 160.850723 -297.510373 
L 159.455524 -297.566372 
L 158.990458 -297.576307 
L 158.525392 -297.623899 
L 158.060326 -297.579885 
L 157.59526 -297.537494 
L 156.200061 -298.102647 
L 155.734995 -298.184882 
L 155.269929 -298.186422 
L 154.804862 -298.502408 
L 154.339796 -298.819601 
L 152.944598 -299.027739 
L 152.479532 -298.800367 
L 152.014465 -298.30281 
L 151.549399 -297.680129 
L 151.084333 -297.100602 
L 149.689134 -296.324806 
L 149.224068 -295.750784 
L 148.759002 -295.093355 
L 148.293936 -295.061847 
L 147.82887 -295.068678 
L 146.433671 -295.219931 
L 145.968605 -294.770255 
L 145.503539 -294.5406 
L 145.038473 -294.346925 
L 144.573406 -293.779875 
L 143.178208 -293.160007 
L 142.713142 -292.834202 
L 142.248075 -292.503152 
L 141.783009 -291.946013 
L 141.317943 -291.0718 
L 139.922745 -290.339636 
L 139.457678 -290.332171 
L 138.992612 -290.242384 
L 138.06248 -289.943731 
L 136.667281 -290.298446 
L 136.202215 -290.802354 
L 135.737149 -291.251909 
L 135.272083 -291.484359 
L 134.807016 -292.006753 
L 133.411818 -293.060571 
L 132.946752 -293.838779 
L 132.481686 -294.245644 
L 132.016619 -294.519833 
L 131.551553 -295.05072 
L 130.156355 -294.947588 
L 129.691288 -294.800917 
L 129.226222 -294.424054 
L 128.761156 -294.009491 
L 128.29609 -293.594514 
L 126.900891 -293.270991 
L 126.435825 -292.758951 
L 125.970759 -293.472809 
L 125.505693 -294.194797 
L 125.040627 -295.243117 
L 123.645428 -297.133191 
L 123.180362 -300.095201 
L 122.715296 -303.062399 
L 122.250229 -305.410173 
L 120.389965 -307.772073 
L 119.924898 -308.807366 
L 119.459832 -309.937116 
L 118.994766 -310.653486 
L 118.5297 -310.921613 
L 117.134501 -311.930195 
L 116.669435 -313.514853 
L 116.204369 -314.902652 
L 115.739303 -316.106403 
L 115.274237 -317.689456 
L 113.879038 -319.257884 
L 113.413972 -321.121232 
L 112.948906 -322.626906 
L 112.48384 -323.874347 
L 112.018773 -324.565601 
L 110.623575 -324.934288 
L 110.158509 -325.231458 
L 109.693442 -325.16485 
L 109.228376 -325.169535 
L 108.76331 -325.051359 
L 107.368111 -325.16681 
L 106.903045 -324.701319 
L 106.437979 -324.106858 
L 105.972913 -323.822958 
L 105.507847 -323.538362 
L 104.112648 -323.503648 
L 103.647582 -323.526643 
L 103.182516 -323.307483 
L 102.71745 -322.678328 
L 102.252383 -322.503333 
L 100.392119 -322.115853 
L 99.927052 -322.219959 
L 99.461986 -322.383664 
L 98.99692 -322.30298 
L 97.601722 -322.385763 
L 97.136655 -322.332785 
L 96.671589 -321.623469 
L 96.206523 -320.876505 
L 95.741457 -320.758592 
L 94.346258 -319.846559 
L 93.881192 -318.580849 
L 93.416126 -316.499807 
L 92.95106 -314.443959 
L 92.485993 -312.505 
L 91.090795 -311.120503 
L 90.625729 -310.081968 
L 90.160663 -308.951779 
L 89.695596 -307.825896 
L 89.23053 -305.914249 
L 87.835332 -304.16103 
L 87.370265 -302.039874 
L 86.905199 -300.080009 
L 86.440133 -297.843192 
L 85.975067 -296.173327 
L 84.579868 -294.665313 
L 84.114802 -293.039076 
L 83.649736 -291.180386 
L 83.18467 -289.894393 
L 82.719604 -288.21141 
L 81.324405 -287.071037 
L 80.859339 -285.939802 
L 80.394273 -284.701388 
L 79.929206 -283.913199 
L 79.46414 -282.353918 
L 78.068942 -281.136743 
L 77.603876 -280.451714 
L 77.138809 -279.373004 
L 76.673743 -278.037587 
L 74.813478 -278.105654 
L 74.348412 -278.270581 
L 73.883346 -278.866423 
L 73.41828 -279.224597 
L 72.953214 -279.194172 
L 71.558015 -279.041568 
L 71.092949 -278.367326 
L 70.627883 -277.998244 
L 70.162817 -277.631854 
L 69.69775 -277.379782 
L 68.302552 -276.796258 
L 67.837486 -276.091865 
L 67.372419 -275.337069 
L 66.907353 -274.279395 
L 66.442287 -273.551843 
L 65.047088 -272.426596 
L 64.582022 -271.050847 
L 64.116956 -269.597105 
z
" id="m74f0d6cc85" style="stroke:#000000;stroke-opacity:0.25;stroke-width:0.39;"/>
    </defs>
    <g clip-path="url(#pd9ce0e1c3f)">
     <use style="fill:#4c72b0;fill-opacity:0.25;stroke:#000000;stroke-opacity:0.25;stroke-width:0.39;" x="0.0" xlink:href="#m74f0d6cc85" y="514.8"/>
    </g>
   </g>
   <g id="line2d_18">
    <path clip-path="url(#pd9ce0e1c3f)" d="M 64.116956 256.765113 
L 65.047088 254.144843 
L 66.442287 252.763002 
L 67.837486 249.64975 
L 68.302552 248.739228 
L 69.69775 247.875016 
L 70.162817 247.275223 
L 71.558015 244.707985 
L 72.953214 243.693639 
L 73.883346 242.132531 
L 74.348412 241.524521 
L 74.813478 241.216034 
L 76.673743 241.083078 
L 77.603876 239.790869 
L 78.068942 239.344199 
L 79.46414 238.758597 
L 79.929206 238.053485 
L 80.394273 237.561999 
L 81.324405 235.853743 
L 82.719604 235.008206 
L 84.579868 230.863428 
L 85.975067 230.03731 
L 86.440133 229.097658 
L 87.835332 225.299462 
L 89.23053 224.040118 
L 90.625729 220.091039 
L 91.090795 218.938509 
L 92.485993 217.747884 
L 93.416126 214.513628 
L 94.346258 210.760248 
L 95.741457 208.981033 
L 96.206523 207.331786 
L 97.601722 204.228246 
L 98.99692 203.773359 
L 99.461986 203.276642 
L 99.927052 202.548374 
L 100.392119 202.083778 
L 102.252383 201.133668 
L 103.647582 198.740469 
L 104.112648 198.562696 
L 105.507847 198.614982 
L 106.437979 199.305156 
L 107.368111 201.285297 
L 108.76331 202.228683 
L 109.228376 203.339386 
L 110.158509 205.87824 
L 110.623575 206.789508 
L 112.018773 207.274272 
L 112.948906 209.269353 
L 113.879038 211.357802 
L 115.274237 212.514814 
L 116.204369 214.677957 
L 117.134501 216.748479 
L 118.5297 217.890551 
L 120.389965 222.86518 
L 122.250229 224.406867 
L 123.180362 226.96066 
L 123.645428 228.139333 
L 125.040627 228.987858 
L 126.435825 230.36223 
L 126.900891 230.064201 
L 128.29609 229.810241 
L 128.761156 229.583172 
L 129.226222 229.22464 
L 129.691288 228.710744 
L 130.156355 228.367898 
L 131.551553 228.253616 
L 132.481686 228.913165 
L 132.946752 229.540596 
L 133.411818 230.545231 
L 134.807016 231.532688 
L 135.272083 232.134723 
L 135.737149 232.304279 
L 136.202215 232.66057 
L 136.667281 233.237209 
L 138.06248 233.460545 
L 138.992612 233.199862 
L 139.922745 231.863584 
L 141.317943 231.295908 
L 142.248075 230.081381 
L 142.713142 229.734801 
L 143.178208 229.565245 
L 144.573406 229.215676 
L 145.038473 228.862373 
L 145.968605 228.533719 
L 146.433671 228.149791 
L 148.759002 228.22075 
L 149.689134 227.62992 
L 151.084333 227.169057 
L 152.014465 226.387757 
L 152.944598 225.171737 
L 154.339796 224.427037 
L 154.804862 223.780185 
L 155.269929 223.425388 
L 155.734995 223.418666 
L 156.200061 223.159477 
L 157.59526 222.629148 
L 158.060326 222.301988 
L 158.990458 222.050269 
L 159.455524 221.935239 
L 160.850723 221.989019 
L 161.315789 221.575214 
L 161.780855 220.85815 
L 162.710988 219.123004 
L 164.106186 218.358884 
L 164.571252 217.556668 
L 165.966451 213.957904 
L 167.826716 212.644781 
L 168.756848 210.055882 
L 169.221914 208.934724 
L 170.617113 207.835226 
L 171.082179 206.639372 
L 172.477378 201.740931 
L 173.872576 199.929598 
L 175.267775 193.312445 
L 175.732841 190.739232 
L 177.128039 188.109998 
L 178.523238 180.627885 
L 178.988304 178.276514 
L 180.383503 175.990874 
L 181.313635 171.26647 
L 182.243767 166.888647 
L 183.638966 164.949588 
L 184.569098 160.996028 
L 185.499231 158.109846 
L 186.894429 156.645094 
L 188.289628 152.082776 
L 188.754694 150.978797 
L 190.149893 149.642519 
L 192.010157 144.341476 
L 193.405356 142.893157 
L 195.265621 136.595695 
L 196.660819 135.904027 
L 198.056018 133.149308 
L 198.521084 132.069978 
L 199.916283 130.602238 
L 200.846415 128.057408 
L 201.776547 126.316288 
L 203.171746 125.281774 
L 204.101878 123.879764 
L 205.032011 122.749642 
L 206.427209 121.8197 
L 206.892275 120.616378 
L 208.287474 118.13205 
L 209.682672 117.137871 
L 211.077871 114.339829 
L 211.542937 113.873737 
L 212.938136 113.57496 
L 213.403202 113.290375 
L 213.868268 113.170863 
L 214.333334 112.874328 
L 216.193599 112.254366 
L 218.053864 106.918217 
L 219.914129 105.78436 
L 221.309327 103.600305 
L 223.634658 102.113891 
L 224.099724 101.518578 
L 224.56479 100.698437 
L 225.959989 99.873814 
L 226.890121 98.193196 
L 227.820254 96.523783 
L 229.680519 95.678993 
L 230.610651 93.53303 
L 231.075717 92.352116 
L 232.470916 91.349721 
L 233.401048 89.787866 
L 234.33118 87.237062 
L 235.726379 85.88734 
L 236.191445 84.252285 
L 237.121578 81.913612 
L 237.586644 81.286928 
L 238.981842 81.128577 
L 239.446908 82.472325 
L 240.377041 84.370302 
L 240.842107 85.416767 
L 242.237306 86.93231 
L 243.167438 89.371074 
L 243.632504 90.876908 
L 244.09757 91.726181 
L 245.957835 92.540347 
L 246.422901 93.437423 
L 246.887967 94.082034 
L 247.353034 94.923837 
L 248.748232 95.894861 
L 249.678365 97.354384 
L 250.608497 97.889941 
L 252.933828 98.249967 
L 253.398894 98.680952 
L 253.86396 99.442832 
L 255.259159 100.203966 
L 257.119424 103.554746 
L 258.514622 104.119433 
L 258.979688 104.489169 
L 259.444754 103.672763 
L 260.374887 102.765976 
L 261.770085 101.357991 
L 262.700218 98.050535 
L 263.63035 94.78192 
L 265.025549 93.234257 
L 265.490615 91.8808 
L 266.420747 88.054219 
L 268.281012 86.307123 
L 269.211144 83.636807 
L 269.676211 82.479795 
L 270.141277 81.68729 
L 271.536475 80.39807 
L 273.39674 75.797656 
L 274.791939 74.281365 
L 276.652203 68.736818 
L 278.047402 67.062922 
L 279.907667 60.923812 
L 281.302865 59.502383 
L 283.16313 55.281416 
L 284.558329 54.556135 
L 285.488461 53.542535 
L 285.953527 53.957088 
L 286.418593 53.938414 
L 287.813792 53.723295 
L 288.278858 53.03312 
L 288.743924 51.908227 
L 289.674057 51.094808 
L 291.534321 51.122444 
L 292.464454 50.88417 
L 292.92952 50.859522 
L 294.324718 50.911809 
L 295.254851 52.612593 
L 295.719917 52.989799 
L 296.184983 53.598556 
L 297.580182 54.392555 
L 298.045248 55.226141 
L 298.510314 55.57571 
L 298.97538 56.277087 
L 299.440447 56.643088 
L 300.835645 56.82086 
L 301.300711 57.452025 
L 302.69591 59.847467 
L 304.091108 60.617565 
L 304.556175 61.387662 
L 305.951373 64.684662 
L 307.346572 66.180039 
L 307.811638 68.346916 
L 308.74177 70.191114 
L 309.206836 73.068333 
L 310.602035 75.540709 
L 311.067101 77.815145 
L 312.4623 86.593947 
L 313.857498 90.121004 
L 314.322564 92.706168 
L 315.252697 96.168988 
L 315.717763 98.938647 
L 317.112962 101.811384 
L 317.578028 104.743129 
L 318.50816 112.890765 
L 318.973226 116.735272 
L 320.368425 120.368395 
L 321.298557 127.250714 
L 322.22869 133.347249 
L 323.623888 136.518014 
L 325.484153 149.401258 
L 326.879352 151.636854 
L 328.27455 156.757884 
L 328.739616 157.963447 
L 330.134815 158.638682 
L 330.599881 159.552938 
L 331.064947 159.986911 
L 331.530013 160.026499 
L 333.390278 159.200382 
L 334.785477 156.422507 
L 335.250543 154.351239 
L 337.110808 152.115644 
L 337.575874 149.62086 
L 338.506006 142.394949 
L 339.901205 138.892541 
L 341.761469 123.716933 
L 343.156668 119.907532 
L 343.621734 116.379727 
L 345.016933 102.820501 
L 346.412131 98.17602 
L 347.80733 87.183284 
L 348.272396 83.54792 
L 349.667595 80.656509 
L 351.527859 68.73458 
L 352.923058 65.348694 
L 353.388124 61.150884 
L 354.783323 52.26751 
L 356.643587 50.207445 
L 357.108654 49.291694 
L 357.57372 49.323813 
L 358.038786 49.83472 
L 359.433985 50.238816 
L 359.899051 50.856536 
L 360.829183 50.036395 
L 361.294249 49.956472 
L 362.689448 50.199228 
L 363.154514 50.678766 
L 364.549713 55.211953 
L 365.944911 57.162217 
L 366.409977 58.358069 
L 366.875044 58.157142 
L 367.34011 58.39915 
L 367.805176 58.489531 
L 369.200374 57.802345 
L 370.130507 58.733033 
L 370.595573 58.927985 
L 371.060639 59.583053 
L 372.455838 60.45772 
L 373.38597 64.969993 
L 374.316103 67.91593 
L 375.711301 70.122396 
L 376.641433 72.949569 
L 377.1065 74.368758 
L 377.571566 75.228487 
L 378.966764 75.253882 
L 379.896897 74.882653 
L 380.827029 78.054165 
L 382.222228 78.948254 
L 383.617426 82.750185 
L 384.082492 83.853418 
L 385.477691 85.868665 
L 386.407823 88.26784 
L 387.337956 92.115336 
L 388.733154 94.606386 
L 389.663287 96.801646 
L 390.128353 98.612233 
L 390.593419 100.931485 
L 392.91875 104.690093 
L 393.848882 108.035644 
L 395.244081 109.255399 
L 396.174213 111.089139 
L 396.639279 111.767362 
L 397.104346 111.29903 
L 398.499544 111.550002 
L 398.96461 112.506834 
L 399.894743 115.964426 
L 400.359809 118.176866 
L 402.220074 120.124889 
L 403.615272 127.385161 
L 405.010471 129.359326 
L 405.475537 131.311083 
L 406.405669 133.687104 
L 406.870736 134.735809 
L 408.265934 136.196079 
L 409.196067 139.698487 
L 409.661133 140.937663 
L 410.126199 143.019388 
L 411.521397 144.953965 
L 412.45153 148.638627 
L 413.381662 154.604448 
L 415.241927 157.27775 
L 416.637126 164.697119 
L 418.032324 167.885811 
L 418.49739 172.12545 
L 419.427523 175.754092 
L 419.892589 176.317285 
L 421.287787 177.182243 
L 421.752854 177.737968 
L 422.682986 179.448463 
L 423.148052 180.623401 
L 424.543251 181.457735 
L 425.008317 181.573511 
L 425.473383 181.3442 
L 426.403515 181.380801 
L 428.26378 181.189585 
L 428.728846 181.082026 
L 429.193913 181.84764 
L 431.054177 182.549765 
L 431.519243 183.000918 
L 431.98431 183.066649 
L 432.914442 182.126997 
L 434.309641 180.537506 
L 435.704839 175.996851 
L 436.169905 174.071236 
L 437.565104 172.08736 
L 438.03017 169.59407 
L 438.495236 166.482313 
L 438.960302 165.303639 
L 439.425369 162.871599 
L 440.820567 161.329912 
L 442.680832 156.095348 
L 444.076031 154.329578 
L 444.541097 152.335992 
L 445.936295 149.436365 
L 448.261626 147.872269 
L 448.726692 147.539133 
L 449.191759 147.042418 
L 450.586957 146.643551 
L 451.982156 144.540911 
L 452.447222 144.218979 
L 453.84242 144.785907 
L 454.772553 146.091559 
L 455.237619 146.296968 
L 455.702685 147.742299 
L 457.097884 149.702274 
L 457.56295 151.422479 
L 458.493082 155.523187 
L 458.958148 157.073838 
L 460.818413 158.431778 
L 461.748546 160.86083 
L 462.213612 161.072215 
L 463.60881 161.367257 
L 465.469075 164.366228 
L 466.864274 165.416427 
L 467.794406 167.008159 
L 468.259472 167.280046 
L 468.724538 167.258385 
L 470.119737 167.809627 
L 470.584803 167.640818 
L 471.514936 168.355641 
L 471.980002 169.383433 
L 473.3752 170.708507 
L 473.840266 171.794559 
L 474.305333 171.624257 
L 474.770399 170.941552 
L 475.235465 170.475462 
L 476.630664 169.62843 
L 477.560796 166.421065 
L 478.025862 165.087028 
L 479.886127 164.197421 
L 480.351193 164.600022 
L 480.816259 164.634381 
L 481.281325 164.131689 
L 481.746392 164.036829 
L 483.14159 164.40507 
L 483.606656 164.846513 
L 484.071723 164.683679 
L 484.536789 164.865185 
L 485.001855 165.710722 
L 486.397053 165.733877 
L 486.86212 165.476929 
L 487.327186 166.044604 
L 488.257318 167.734933 
L 489.652517 168.908378 
L 490.117583 169.638888 
L 490.582649 170.901218 
L 491.512782 172.731972 
L 492.90798 172.931405 
L 493.838112 173.293671 
L 494.768245 176.041669 
L 496.163443 177.451147 
L 496.62851 178.605918 
L 497.093576 180.131918 
L 497.558642 182.146419 
L 498.023708 183.417712 
L 499.418907 184.084732 
L 499.883973 184.923547 
L 500.814105 188.895781 
L 501.279171 191.123906 
L 502.67437 194.597184 
L 503.139436 197.947216 
L 504.069569 208.241562 
L 504.534635 211.418304 
L 506.3949 215.539179 
L 506.859966 219.494233 
L 507.790098 224.252249 
L 509.185297 226.388501 
L 509.650363 229.561508 
L 510.115429 231.954707 
L 511.045561 235.7051 
L 512.44076 237.827907 
L 513.370892 243.543503 
L 513.835959 246.748629 
L 514.301025 250.791822 
L 515.696223 256.246735 
L 517.091422 267.439651 
L 517.556488 271.062316 
L 518.951687 274.717847 
L 519.881819 281.332013 
L 520.811951 288.127685 
L 522.20715 292.146976 
L 523.137282 298.276377 
L 524.067415 300.79581 
L 525.462613 303.581901 
L 526.392746 308.193518 
L 527.322878 315.689074 
L 528.718076 320.186408 
L 529.648209 327.865712 
L 530.578341 337.520676 
L 531.97354 342.097185 
L 533.368738 354.966985 
L 533.833805 358.65314 
L 535.229003 361.304035 
L 537.089268 373.610641 
L 538.484466 377.236295 
L 539.879665 388.920698 
L 540.344731 391.748618 
L 541.73993 393.485257 
L 542.670062 396.633615 
L 543.600194 400.466919 
L 544.995393 402.411954 
L 545.925525 404.601239 
L 546.855658 405.152481 
L 548.715922 405.209996 
L 549.180989 404.911966 
L 549.646055 404.780504 
L 550.111121 404.094812 
L 551.50632 403.604072 
L 551.971386 402.459011 
L 552.901518 398.976023 
L 553.366584 396.466301 
L 554.761783 393.724279 
L 555.226849 391.394569 
L 555.691915 390.050821 
L 556.156981 389.144034 
L 556.622048 389.056642 
L 558.017246 389.136565 
L 558.947379 387.735303 
L 559.877511 387.429056 
L 561.27271 388.051258 
L 561.737776 388.112508 
L 562.202842 388.569636 
L 564.528173 388.210357 
L 564.993239 387.571722 
L 565.923371 384.8663 
L 566.388438 384.512997 
L 568.248702 383.949056 
L 568.713769 383.408271 
L 569.178835 382.224369 
L 569.643901 380.628155 
L 571.504166 379.025966 
L 572.899364 375.582566 
L 574.294563 374.681755 
L 574.759629 374.760184 
L 575.689761 375.281549 
L 576.154828 375.274826 
L 577.550026 375.673693 
L 578.015092 374.996964 
L 578.945225 373.019063 
L 579.410291 371.86952 
L 580.805489 370.940326 
L 581.270556 370.244176 
L 581.735622 368.281961 
L 582.200688 367.399077 
L 582.665754 367.05399 
L 584.526019 367.125697 
L 584.991085 366.298085 
L 585.456151 365.242658 
L 585.921217 364.529328 
L 587.316416 363.328247 
L 588.246548 361.192741 
L 588.711615 359.516605 
L 589.176681 358.67032 
L 590.571879 358.336437 
L 591.502012 356.239773 
L 592.432144 353.264706 
L 594.292409 352.031506 
L 594.757475 350.514468 
L 595.687607 346.480985 
L 597.082806 343.880881 
L 597.547872 341.14857 
L 598.478004 337.56848 
L 598.943071 335.164822 
L 600.338269 332.246523 
L 600.803335 330.092344 
L 602.198534 321.620535 
L 603.593733 318.680574 
L 604.058799 315.214019 
L 604.988931 310.311843 
L 605.453997 308.515449 
L 606.849196 306.864709 
L 608.244394 301.022881 
L 610.104659 298.947878 
L 610.569725 296.196145 
L 611.964924 290.768123 
L 613.360122 288.706565 
L 613.825189 286.637537 
L 614.290255 284.026977 
L 615.220387 280.549965 
L 616.615586 279.042638 
L 618.47585 272.243978 
L 619.871049 271.346155 
L 620.336115 270.457294 
L 621.731314 265.098737 
L 623.126512 263.326245 
L 624.521711 257.433625 
L 624.986777 255.476639 
L 626.381976 253.456162 
L 627.312108 249.391308 
L 628.24224 246.768797 
L 630.102505 245.57892 
L 630.567571 244.831979 
L 631.497704 244.204549 
L 632.892902 243.502423 
L 633.357968 243.695134 
L 634.288101 242.750254 
L 634.753167 241.617144 
L 636.148366 240.635663 
L 636.613432 239.518238 
L 637.078498 239.1978 
L 638.00863 238.210342 
L 639.403829 237.515686 
L 639.868895 237.053331 
L 640.333961 237.31476 
L 640.799027 237.075738 
L 641.264094 237.283388 
L 642.659292 236.919628 
L 643.124358 236.521508 
L 644.519557 233.967716 
L 645.914755 233.144586 
L 646.844888 231.456499 
L 647.309954 230.054489 
L 649.170219 228.592725 
L 651.030484 223.085526 
L 652.425682 221.575957 
L 652.890748 220.009621 
L 654.285947 214.055751 
L 655.681145 212.62013 
L 656.146212 211.602796 
L 656.611278 210.866312 
L 657.54141 208.365554 
L 658.936609 206.928439 
L 659.401675 206.12249 
L 660.331807 203.185517 
L 660.796873 201.757366 
L 662.192072 200.140985 
L 663.587271 197.219697 
L 664.052337 196.608698 
L 665.447535 196.042517 
L 665.912602 195.636927 
L 666.377668 195.60929 
L 666.842734 195.752704 
L 667.3078 196.035795 
L 668.702999 196.166509 
L 669.168065 195.916283 
L 669.633131 195.189509 
L 670.563263 193.119735 
L 671.958462 192.043392 
L 673.35366 189.049651 
L 673.818727 187.822427 
L 675.213925 186.422658 
L 676.144058 182.719323 
L 677.07419 180.15582 
L 678.934455 178.679116 
L 679.864587 174.92947 
L 680.329653 173.505799 
L 681.724852 172.215084 
L 683.585117 165.110178 
L 684.980315 163.296605 
L 686.375514 157.350206 
L 686.84058 155.102658 
L 688.235778 153.406355 
L 689.165911 150.398422 
L 690.096043 149.06812 
L 692.421374 148.375706 
L 692.88644 148.951597 
L 693.351507 149.166716 
L 694.746705 150.138487 
L 695.676837 152.052151 
L 696.141904 153.108326 
L 696.60697 153.829872 
L 698.002168 154.406511 
L 699.397367 155.713658 
L 701.257632 155.964631 
L 702.187764 157.428636 
L 703.117896 159.58879 
L 704.513095 161.029641 
L 705.908294 165.332769 
L 706.37336 167.160534 
L 707.768558 168.259284 
L 709.628823 173.307113 
L 711.024022 174.540313 
L 711.489088 175.849701 
L 711.954154 176.758728 
L 712.41922 177.164318 
L 712.884286 178.103971 
L 714.279485 178.407975 
L 715.209617 179.49552 
L 716.13975 180.13565 
L 717.534948 180.898276 
L 718.000014 181.37109 
L 718.930147 183.227239 
L 719.395213 184.413382 
L 720.790412 185.51288 
L 721.720544 187.245037 
L 722.18561 187.824664 
L 722.18561 187.824664 
" style="fill:none;stroke:#4c72b0;stroke-linecap:round;stroke-width:2.275;"/>
   </g>
   <g id="patch_3">
    <path d="M 53.8855 426.49633 
L 731.952 426.49633 
" style="fill:none;stroke:#262626;stroke-linecap:square;stroke-linejoin:miter;stroke-width:1.25;"/>
   </g>
   <g id="patch_4">
    <path d="M 53.8855 426.49633 
L 53.8855 23.148 
" style="fill:none;stroke:#262626;stroke-linecap:square;stroke-linejoin:miter;stroke-width:1.25;"/>
   </g>
  </g>
 </g>
 <defs>
  <clipPath id="pd9ce0e1c3f">
   <rect height="403.348329912" width="678.0665" x="53.8855" y="23.148"/>
  </clipPath>
 </defs>
</svg>
