<?xml version="1.0" encoding="utf-8" standalone="no"?>
<!DOCTYPE svg PUBLIC "-//W3C//DTD SVG 1.1//EN"
  "http://www.w3.org/Graphics/SVG/1.1/DTD/svg11.dtd">
<!-- Created with matplotlib (http://matplotlib.org/) -->
<svg height="576pt" version="1.1" viewBox="0 0 720 576" width="720pt" xmlns="http://www.w3.org/2000/svg" xmlns:xlink="http://www.w3.org/1999/xlink">
 <defs>
  <style type="text/css">
*{stroke-linecap:butt;stroke-linejoin:round;stroke-miterlimit:100000;}
  </style>
 </defs>
 <g id="figure_1">
  <g id="patch_1">
   <path d="M 0 576 
L 720 576 
L 720 0 
L 0 0 
z
" style="fill:#ffffff;"/>
  </g>
  <g id="axes_1">
   <g id="patch_2">
    <path d="M 61.5355 247.126 
L 697.979891 247.126 
L 697.979891 23.148 
L 61.5355 23.148 
z
" style="fill:#ffffff;"/>
   </g>
   <g id="matplotlib.axis_1">
    <g id="xtick_1">
     <g id="line2d_1">
      <defs>
       <path d="M 0 0 
L 0 6 
" id="m542654bca8" style="stroke:#262626;stroke-width:1.3;"/>
      </defs>
      <g>
       <use style="fill:#262626;stroke:#262626;stroke-width:1.3;" x="61.5355" xlink:href="#m542654bca8" y="247.126"/>
      </g>
     </g>
     <g id="text_1">
      <!-- 2001 -->
      <defs>
       <path d="M 4.15625 35.296875 
Q 4.15625 48 6.765625 55.734375 
Q 9.375 63.484375 14.515625 67.671875 
Q 19.671875 71.875 27.484375 71.875 
Q 33.25 71.875 37.59375 69.546875 
Q 41.9375 67.234375 44.765625 62.859375 
Q 47.609375 58.5 49.21875 52.21875 
Q 50.828125 45.953125 50.828125 35.296875 
Q 50.828125 22.703125 48.234375 14.96875 
Q 45.65625 7.234375 40.5 3 
Q 35.359375 -1.21875 27.484375 -1.21875 
Q 17.140625 -1.21875 11.234375 6.203125 
Q 4.15625 15.140625 4.15625 35.296875 
M 13.1875 35.296875 
Q 13.1875 17.671875 17.3125 11.828125 
Q 21.4375 6 27.484375 6 
Q 33.546875 6 37.671875 11.859375 
Q 41.796875 17.71875 41.796875 35.296875 
Q 41.796875 52.984375 37.671875 58.78125 
Q 33.546875 64.59375 27.390625 64.59375 
Q 21.34375 64.59375 17.71875 59.46875 
Q 13.1875 52.9375 13.1875 35.296875 
" id="ArialMT-30"/>
       <path d="M 37.25 0 
L 28.46875 0 
L 28.46875 56 
Q 25.296875 52.984375 20.140625 49.953125 
Q 14.984375 46.921875 10.890625 45.40625 
L 10.890625 53.90625 
Q 18.265625 57.375 23.78125 62.296875 
Q 29.296875 67.234375 31.59375 71.875 
L 37.25 71.875 
z
" id="ArialMT-31"/>
       <path d="M 50.34375 8.453125 
L 50.34375 0 
L 3.03125 0 
Q 2.9375 3.171875 4.046875 6.109375 
Q 5.859375 10.9375 9.828125 15.625 
Q 13.8125 20.3125 21.34375 26.46875 
Q 33.015625 36.03125 37.109375 41.625 
Q 41.21875 47.21875 41.21875 52.203125 
Q 41.21875 57.421875 37.46875 61 
Q 33.734375 64.59375 27.734375 64.59375 
Q 21.390625 64.59375 17.578125 60.78125 
Q 13.765625 56.984375 13.71875 50.25 
L 4.6875 51.171875 
Q 5.609375 61.28125 11.65625 66.578125 
Q 17.71875 71.875 27.9375 71.875 
Q 38.234375 71.875 44.234375 66.15625 
Q 50.25 60.453125 50.25 52 
Q 50.25 47.703125 48.484375 43.546875 
Q 46.734375 39.40625 42.65625 34.8125 
Q 38.578125 30.21875 29.109375 22.21875 
Q 21.1875 15.578125 18.9375 13.203125 
Q 16.703125 10.84375 15.234375 8.453125 
z
" id="ArialMT-32"/>
      </defs>
      <g style="fill:#262626;" transform="translate(47.0770625 271.53115625)scale(0.13 -0.13)">
       <use xlink:href="#ArialMT-32"/>
       <use x="55.615234375" xlink:href="#ArialMT-30"/>
       <use x="111.23046875" xlink:href="#ArialMT-30"/>
       <use x="166.845703125" xlink:href="#ArialMT-31"/>
      </g>
     </g>
    </g>
    <g id="xtick_2">
     <g id="line2d_2">
      <g>
       <use style="fill:#262626;stroke:#262626;stroke-width:1.3;" x="146.868826202" xlink:href="#m542654bca8" y="247.126"/>
      </g>
     </g>
     <g id="text_2">
      <!-- 2003 -->
      <defs>
       <path d="M 4.203125 18.890625 
L 12.984375 20.0625 
Q 14.5 12.59375 18.140625 9.296875 
Q 21.78125 6 27 6 
Q 33.203125 6 37.46875 10.296875 
Q 41.75 14.59375 41.75 20.953125 
Q 41.75 27 37.796875 30.921875 
Q 33.84375 34.859375 27.734375 34.859375 
Q 25.25 34.859375 21.53125 33.890625 
L 22.515625 41.609375 
Q 23.390625 41.5 23.921875 41.5 
Q 29.546875 41.5 34.03125 44.421875 
Q 38.53125 47.359375 38.53125 53.46875 
Q 38.53125 58.296875 35.25 61.46875 
Q 31.984375 64.65625 26.8125 64.65625 
Q 21.6875 64.65625 18.265625 61.421875 
Q 14.84375 58.203125 13.875 51.765625 
L 5.078125 53.328125 
Q 6.6875 62.15625 12.390625 67.015625 
Q 18.109375 71.875 26.609375 71.875 
Q 32.46875 71.875 37.390625 69.359375 
Q 42.328125 66.84375 44.9375 62.5 
Q 47.5625 58.15625 47.5625 53.265625 
Q 47.5625 48.640625 45.0625 44.828125 
Q 42.578125 41.015625 37.703125 38.765625 
Q 44.046875 37.3125 47.5625 32.6875 
Q 51.078125 28.078125 51.078125 21.140625 
Q 51.078125 11.765625 44.234375 5.25 
Q 37.40625 -1.265625 26.953125 -1.265625 
Q 17.53125 -1.265625 11.296875 4.34375 
Q 5.078125 9.96875 4.203125 18.890625 
" id="ArialMT-33"/>
      </defs>
      <g style="fill:#262626;" transform="translate(132.410388702 271.53115625)scale(0.13 -0.13)">
       <use xlink:href="#ArialMT-32"/>
       <use x="55.615234375" xlink:href="#ArialMT-30"/>
       <use x="111.23046875" xlink:href="#ArialMT-30"/>
       <use x="166.845703125" xlink:href="#ArialMT-33"/>
      </g>
     </g>
    </g>
    <g id="xtick_3">
     <g id="line2d_3">
      <g>
       <use style="fill:#262626;stroke:#262626;stroke-width:1.3;" x="232.202152403" xlink:href="#m542654bca8" y="247.126"/>
      </g>
     </g>
     <g id="text_3">
      <!-- 2005 -->
      <defs>
       <path d="M 4.15625 18.75 
L 13.375 19.53125 
Q 14.40625 12.796875 18.140625 9.390625 
Q 21.875 6 27.15625 6 
Q 33.5 6 37.890625 10.78125 
Q 42.28125 15.578125 42.28125 23.484375 
Q 42.28125 31 38.0625 35.34375 
Q 33.84375 39.703125 27 39.703125 
Q 22.75 39.703125 19.328125 37.765625 
Q 15.921875 35.84375 13.96875 32.765625 
L 5.71875 33.84375 
L 12.640625 70.609375 
L 48.25 70.609375 
L 48.25 62.203125 
L 19.671875 62.203125 
L 15.828125 42.96875 
Q 22.265625 47.46875 29.34375 47.46875 
Q 38.71875 47.46875 45.15625 40.96875 
Q 51.609375 34.46875 51.609375 24.265625 
Q 51.609375 14.546875 45.953125 7.46875 
Q 39.0625 -1.21875 27.15625 -1.21875 
Q 17.390625 -1.21875 11.203125 4.25 
Q 5.03125 9.71875 4.15625 18.75 
" id="ArialMT-35"/>
      </defs>
      <g style="fill:#262626;" transform="translate(217.743714903 271.53115625)scale(0.13 -0.13)">
       <use xlink:href="#ArialMT-32"/>
       <use x="55.615234375" xlink:href="#ArialMT-30"/>
       <use x="111.23046875" xlink:href="#ArialMT-30"/>
       <use x="166.845703125" xlink:href="#ArialMT-35"/>
      </g>
     </g>
    </g>
    <g id="xtick_4">
     <g id="line2d_4">
      <g>
       <use style="fill:#262626;stroke:#262626;stroke-width:1.3;" x="317.535478605" xlink:href="#m542654bca8" y="247.126"/>
      </g>
     </g>
     <g id="text_4">
      <!-- 2007 -->
      <defs>
       <path d="M 4.734375 62.203125 
L 4.734375 70.65625 
L 51.078125 70.65625 
L 51.078125 63.8125 
Q 44.234375 56.546875 37.515625 44.484375 
Q 30.8125 32.421875 27.15625 19.671875 
Q 24.515625 10.6875 23.78125 0 
L 14.75 0 
Q 14.890625 8.453125 18.0625 20.40625 
Q 21.234375 32.375 27.171875 43.484375 
Q 33.109375 54.59375 39.796875 62.203125 
z
" id="ArialMT-37"/>
      </defs>
      <g style="fill:#262626;" transform="translate(303.077041105 271.53115625)scale(0.13 -0.13)">
       <use xlink:href="#ArialMT-32"/>
       <use x="55.615234375" xlink:href="#ArialMT-30"/>
       <use x="111.23046875" xlink:href="#ArialMT-30"/>
       <use x="166.845703125" xlink:href="#ArialMT-37"/>
      </g>
     </g>
    </g>
    <g id="xtick_5">
     <g id="line2d_5">
      <g>
       <use style="fill:#262626;stroke:#262626;stroke-width:1.3;" x="402.868804807" xlink:href="#m542654bca8" y="247.126"/>
      </g>
     </g>
     <g id="text_5">
      <!-- 2009 -->
      <defs>
       <path d="M 5.46875 16.546875 
L 13.921875 17.328125 
Q 14.984375 11.375 18.015625 8.6875 
Q 21.046875 6 25.78125 6 
Q 29.828125 6 32.875 7.859375 
Q 35.9375 9.71875 37.890625 12.8125 
Q 39.84375 15.921875 41.15625 21.1875 
Q 42.484375 26.46875 42.484375 31.9375 
Q 42.484375 32.515625 42.4375 33.6875 
Q 39.796875 29.5 35.234375 26.875 
Q 30.671875 24.265625 25.34375 24.265625 
Q 16.453125 24.265625 10.296875 30.703125 
Q 4.15625 37.15625 4.15625 47.703125 
Q 4.15625 58.59375 10.578125 65.234375 
Q 17 71.875 26.65625 71.875 
Q 33.640625 71.875 39.421875 68.109375 
Q 45.21875 64.359375 48.21875 57.390625 
Q 51.21875 50.4375 51.21875 37.25 
Q 51.21875 23.53125 48.234375 15.40625 
Q 45.265625 7.28125 39.375 3.03125 
Q 33.5 -1.21875 25.59375 -1.21875 
Q 17.1875 -1.21875 11.859375 3.4375 
Q 6.546875 8.109375 5.46875 16.546875 
M 41.453125 48.140625 
Q 41.453125 55.71875 37.421875 60.15625 
Q 33.40625 64.59375 27.734375 64.59375 
Q 21.875 64.59375 17.53125 59.8125 
Q 13.1875 55.03125 13.1875 47.40625 
Q 13.1875 40.578125 17.3125 36.296875 
Q 21.4375 32.03125 27.484375 32.03125 
Q 33.59375 32.03125 37.515625 36.296875 
Q 41.453125 40.578125 41.453125 48.140625 
" id="ArialMT-39"/>
      </defs>
      <g style="fill:#262626;" transform="translate(388.410367307 271.53115625)scale(0.13 -0.13)">
       <use xlink:href="#ArialMT-32"/>
       <use x="55.615234375" xlink:href="#ArialMT-30"/>
       <use x="111.23046875" xlink:href="#ArialMT-30"/>
       <use x="166.845703125" xlink:href="#ArialMT-39"/>
      </g>
     </g>
    </g>
    <g id="xtick_6">
     <g id="line2d_6">
      <g>
       <use style="fill:#262626;stroke:#262626;stroke-width:1.3;" x="488.202131008" xlink:href="#m542654bca8" y="247.126"/>
      </g>
     </g>
     <g id="text_6">
      <!-- 2011 -->
      <g style="fill:#262626;" transform="translate(473.750802883 271.53115625)scale(0.13 -0.13)">
       <use xlink:href="#ArialMT-32"/>
       <use x="55.615234375" xlink:href="#ArialMT-30"/>
       <use x="111.23046875" xlink:href="#ArialMT-31"/>
       <use x="166.736328125" xlink:href="#ArialMT-31"/>
      </g>
     </g>
    </g>
    <g id="xtick_7">
     <g id="line2d_7">
      <g>
       <use style="fill:#262626;stroke:#262626;stroke-width:1.3;" x="573.53545721" xlink:href="#m542654bca8" y="247.126"/>
      </g>
     </g>
     <g id="text_7">
      <!-- 2013 -->
      <g style="fill:#262626;" transform="translate(559.07701971 271.53115625)scale(0.13 -0.13)">
       <use xlink:href="#ArialMT-32"/>
       <use x="55.615234375" xlink:href="#ArialMT-30"/>
       <use x="111.23046875" xlink:href="#ArialMT-31"/>
       <use x="166.845703125" xlink:href="#ArialMT-33"/>
      </g>
     </g>
    </g>
    <g id="xtick_8">
     <g id="line2d_8">
      <g>
       <use style="fill:#262626;stroke:#262626;stroke-width:1.3;" x="658.868783412" xlink:href="#m542654bca8" y="247.126"/>
      </g>
     </g>
     <g id="text_8">
      <!-- 2015 -->
      <g style="fill:#262626;" transform="translate(644.410345912 271.53115625)scale(0.13 -0.13)">
       <use xlink:href="#ArialMT-32"/>
       <use x="55.615234375" xlink:href="#ArialMT-30"/>
       <use x="111.23046875" xlink:href="#ArialMT-31"/>
       <use x="166.845703125" xlink:href="#ArialMT-35"/>
      </g>
     </g>
    </g>
    <g id="xtick_9">
     <g id="line2d_9">
      <defs>
       <path d="M 0 0 
L 0 3 
" id="m427f487142" style="stroke:#262626;stroke-width:0.65;"/>
      </defs>
      <g>
       <use style="fill:#262626;stroke:#262626;stroke-width:0.65;" x="61.5355" xlink:href="#m427f487142" y="247.126"/>
      </g>
     </g>
    </g>
    <g id="xtick_10">
     <g id="line2d_10">
      <g>
       <use style="fill:#262626;stroke:#262626;stroke-width:0.65;" x="104.202163101" xlink:href="#m427f487142" y="247.126"/>
      </g>
     </g>
    </g>
    <g id="xtick_11">
     <g id="line2d_11">
      <g>
       <use style="fill:#262626;stroke:#262626;stroke-width:0.65;" x="146.868826202" xlink:href="#m427f487142" y="247.126"/>
      </g>
     </g>
    </g>
    <g id="xtick_12">
     <g id="line2d_12">
      <g>
       <use style="fill:#262626;stroke:#262626;stroke-width:0.65;" x="189.535489303" xlink:href="#m427f487142" y="247.126"/>
      </g>
     </g>
    </g>
    <g id="xtick_13">
     <g id="line2d_13">
      <g>
       <use style="fill:#262626;stroke:#262626;stroke-width:0.65;" x="232.202152403" xlink:href="#m427f487142" y="247.126"/>
      </g>
     </g>
    </g>
    <g id="xtick_14">
     <g id="line2d_14">
      <g>
       <use style="fill:#262626;stroke:#262626;stroke-width:0.65;" x="274.868815504" xlink:href="#m427f487142" y="247.126"/>
      </g>
     </g>
    </g>
    <g id="xtick_15">
     <g id="line2d_15">
      <g>
       <use style="fill:#262626;stroke:#262626;stroke-width:0.65;" x="317.535478605" xlink:href="#m427f487142" y="247.126"/>
      </g>
     </g>
    </g>
    <g id="xtick_16">
     <g id="line2d_16">
      <g>
       <use style="fill:#262626;stroke:#262626;stroke-width:0.65;" x="360.202141706" xlink:href="#m427f487142" y="247.126"/>
      </g>
     </g>
    </g>
    <g id="xtick_17">
     <g id="line2d_17">
      <g>
       <use style="fill:#262626;stroke:#262626;stroke-width:0.65;" x="402.868804807" xlink:href="#m427f487142" y="247.126"/>
      </g>
     </g>
    </g>
    <g id="xtick_18">
     <g id="line2d_18">
      <g>
       <use style="fill:#262626;stroke:#262626;stroke-width:0.65;" x="445.535467908" xlink:href="#m427f487142" y="247.126"/>
      </g>
     </g>
    </g>
    <g id="xtick_19">
     <g id="line2d_19">
      <g>
       <use style="fill:#262626;stroke:#262626;stroke-width:0.65;" x="488.202131008" xlink:href="#m427f487142" y="247.126"/>
      </g>
     </g>
    </g>
    <g id="xtick_20">
     <g id="line2d_20">
      <g>
       <use style="fill:#262626;stroke:#262626;stroke-width:0.65;" x="530.868794109" xlink:href="#m427f487142" y="247.126"/>
      </g>
     </g>
    </g>
    <g id="xtick_21">
     <g id="line2d_21">
      <g>
       <use style="fill:#262626;stroke:#262626;stroke-width:0.65;" x="573.53545721" xlink:href="#m427f487142" y="247.126"/>
      </g>
     </g>
    </g>
    <g id="xtick_22">
     <g id="line2d_22">
      <g>
       <use style="fill:#262626;stroke:#262626;stroke-width:0.65;" x="616.202120311" xlink:href="#m427f487142" y="247.126"/>
      </g>
     </g>
    </g>
    <g id="xtick_23">
     <g id="line2d_23">
      <g>
       <use style="fill:#262626;stroke:#262626;stroke-width:0.65;" x="658.868783412" xlink:href="#m427f487142" y="247.126"/>
      </g>
     </g>
    </g>
   </g>
   <g id="matplotlib.axis_2">
    <g id="ytick_1">
     <g id="line2d_24">
      <defs>
       <path d="M 0 0 
L -6 0 
" id="m37a84376c5" style="stroke:#262626;stroke-width:1.3;"/>
      </defs>
      <g>
       <use style="fill:#262626;stroke:#262626;stroke-width:1.3;" x="61.5355" xlink:href="#m37a84376c5" y="247.126"/>
      </g>
     </g>
     <g id="text_9">
      <!-- −600 -->
      <defs>
       <path d="M 52.828125 31.203125 
L 5.5625 31.203125 
L 5.5625 39.40625 
L 52.828125 39.40625 
z
" id="ArialMT-2212"/>
       <path d="M 49.75 54.046875 
L 41.015625 53.375 
Q 39.84375 58.546875 37.703125 60.890625 
Q 34.125 64.65625 28.90625 64.65625 
Q 24.703125 64.65625 21.53125 62.3125 
Q 17.390625 59.28125 14.984375 53.46875 
Q 12.59375 47.65625 12.5 36.921875 
Q 15.671875 41.75 20.265625 44.09375 
Q 24.859375 46.4375 29.890625 46.4375 
Q 38.671875 46.4375 44.84375 39.96875 
Q 51.03125 33.5 51.03125 23.25 
Q 51.03125 16.5 48.125 10.71875 
Q 45.21875 4.9375 40.140625 1.859375 
Q 35.0625 -1.21875 28.609375 -1.21875 
Q 17.625 -1.21875 10.6875 6.859375 
Q 3.765625 14.9375 3.765625 33.5 
Q 3.765625 54.25 11.421875 63.671875 
Q 18.109375 71.875 29.4375 71.875 
Q 37.890625 71.875 43.28125 67.140625 
Q 48.6875 62.40625 49.75 54.046875 
M 13.875 23.1875 
Q 13.875 18.65625 15.796875 14.5 
Q 17.71875 10.359375 21.1875 8.171875 
Q 24.65625 6 28.46875 6 
Q 34.03125 6 38.03125 10.484375 
Q 42.046875 14.984375 42.046875 22.703125 
Q 42.046875 30.125 38.078125 34.390625 
Q 34.125 38.671875 28.125 38.671875 
Q 22.171875 38.671875 18.015625 34.390625 
Q 13.875 30.125 13.875 23.1875 
" id="ArialMT-36"/>
      </defs>
      <g style="fill:#262626;" transform="translate(17.15503125 250.486703125)scale(0.13 -0.13)">
       <use xlink:href="#ArialMT-2212"/>
       <use x="58.3984375" xlink:href="#ArialMT-36"/>
       <use x="114.013671875" xlink:href="#ArialMT-30"/>
       <use x="169.62890625" xlink:href="#ArialMT-30"/>
      </g>
     </g>
    </g>
    <g id="ytick_2">
     <g id="line2d_25">
      <g>
       <use style="fill:#262626;stroke:#262626;stroke-width:1.3;" x="61.5355" xlink:href="#m37a84376c5" y="222.239555556"/>
      </g>
     </g>
     <g id="text_10">
      <!-- −500 -->
      <g style="fill:#262626;" transform="translate(17.15503125 225.600258681)scale(0.13 -0.13)">
       <use xlink:href="#ArialMT-2212"/>
       <use x="58.3984375" xlink:href="#ArialMT-35"/>
       <use x="114.013671875" xlink:href="#ArialMT-30"/>
       <use x="169.62890625" xlink:href="#ArialMT-30"/>
      </g>
     </g>
    </g>
    <g id="ytick_3">
     <g id="line2d_26">
      <g>
       <use style="fill:#262626;stroke:#262626;stroke-width:1.3;" x="61.5355" xlink:href="#m37a84376c5" y="197.353111111"/>
      </g>
     </g>
     <g id="text_11">
      <!-- −400 -->
      <defs>
       <path d="M 32.328125 0 
L 32.328125 17.140625 
L 1.265625 17.140625 
L 1.265625 25.203125 
L 33.9375 71.578125 
L 41.109375 71.578125 
L 41.109375 25.203125 
L 50.78125 25.203125 
L 50.78125 17.140625 
L 41.109375 17.140625 
L 41.109375 0 
z
M 32.328125 25.203125 
L 32.328125 57.46875 
L 9.90625 25.203125 
z
" id="ArialMT-34"/>
      </defs>
      <g style="fill:#262626;" transform="translate(17.15503125 200.713814236)scale(0.13 -0.13)">
       <use xlink:href="#ArialMT-2212"/>
       <use x="58.3984375" xlink:href="#ArialMT-34"/>
       <use x="114.013671875" xlink:href="#ArialMT-30"/>
       <use x="169.62890625" xlink:href="#ArialMT-30"/>
      </g>
     </g>
    </g>
    <g id="ytick_4">
     <g id="line2d_27">
      <g>
       <use style="fill:#262626;stroke:#262626;stroke-width:1.3;" x="61.5355" xlink:href="#m37a84376c5" y="172.466666667"/>
      </g>
     </g>
     <g id="text_12">
      <!-- −300 -->
      <g style="fill:#262626;" transform="translate(17.15503125 175.827369792)scale(0.13 -0.13)">
       <use xlink:href="#ArialMT-2212"/>
       <use x="58.3984375" xlink:href="#ArialMT-33"/>
       <use x="114.013671875" xlink:href="#ArialMT-30"/>
       <use x="169.62890625" xlink:href="#ArialMT-30"/>
      </g>
     </g>
    </g>
    <g id="ytick_5">
     <g id="line2d_28">
      <g>
       <use style="fill:#262626;stroke:#262626;stroke-width:1.3;" x="61.5355" xlink:href="#m37a84376c5" y="147.580222222"/>
      </g>
     </g>
     <g id="text_13">
      <!-- −200 -->
      <g style="fill:#262626;" transform="translate(17.15503125 150.940925347)scale(0.13 -0.13)">
       <use xlink:href="#ArialMT-2212"/>
       <use x="58.3984375" xlink:href="#ArialMT-32"/>
       <use x="114.013671875" xlink:href="#ArialMT-30"/>
       <use x="169.62890625" xlink:href="#ArialMT-30"/>
      </g>
     </g>
    </g>
    <g id="ytick_6">
     <g id="line2d_29">
      <g>
       <use style="fill:#262626;stroke:#262626;stroke-width:1.3;" x="61.5355" xlink:href="#m37a84376c5" y="122.693777778"/>
      </g>
     </g>
     <g id="text_14">
      <!-- −100 -->
      <g style="fill:#262626;" transform="translate(17.15503125 126.054480903)scale(0.13 -0.13)">
       <use xlink:href="#ArialMT-2212"/>
       <use x="58.3984375" xlink:href="#ArialMT-31"/>
       <use x="114.013671875" xlink:href="#ArialMT-30"/>
       <use x="169.62890625" xlink:href="#ArialMT-30"/>
      </g>
     </g>
    </g>
    <g id="ytick_7">
     <g id="line2d_30">
      <g>
       <use style="fill:#262626;stroke:#262626;stroke-width:1.3;" x="61.5355" xlink:href="#m37a84376c5" y="97.8073333333"/>
      </g>
     </g>
     <g id="text_15">
      <!-- 0 -->
      <g style="fill:#262626;" transform="translate(39.20628125 101.168036458)scale(0.13 -0.13)">
       <use xlink:href="#ArialMT-30"/>
      </g>
     </g>
    </g>
    <g id="ytick_8">
     <g id="line2d_31">
      <g>
       <use style="fill:#262626;stroke:#262626;stroke-width:1.3;" x="61.5355" xlink:href="#m37a84376c5" y="72.9208888889"/>
      </g>
     </g>
     <g id="text_16">
      <!-- 100 -->
      <g style="fill:#262626;" transform="translate(24.74784375 76.2815920139)scale(0.13 -0.13)">
       <use xlink:href="#ArialMT-31"/>
       <use x="55.615234375" xlink:href="#ArialMT-30"/>
       <use x="111.23046875" xlink:href="#ArialMT-30"/>
      </g>
     </g>
    </g>
    <g id="ytick_9">
     <g id="line2d_32">
      <g>
       <use style="fill:#262626;stroke:#262626;stroke-width:1.3;" x="61.5355" xlink:href="#m37a84376c5" y="48.0344444444"/>
      </g>
     </g>
     <g id="text_17">
      <!-- 200 -->
      <g style="fill:#262626;" transform="translate(24.74784375 51.3951475694)scale(0.13 -0.13)">
       <use xlink:href="#ArialMT-32"/>
       <use x="55.615234375" xlink:href="#ArialMT-30"/>
       <use x="111.23046875" xlink:href="#ArialMT-30"/>
      </g>
     </g>
    </g>
    <g id="ytick_10">
     <g id="line2d_33">
      <g>
       <use style="fill:#262626;stroke:#262626;stroke-width:1.3;" x="61.5355" xlink:href="#m37a84376c5" y="23.148"/>
      </g>
     </g>
     <g id="text_18">
      <!-- 300 -->
      <g style="fill:#262626;" transform="translate(24.74784375 26.508703125)scale(0.13 -0.13)">
       <use xlink:href="#ArialMT-33"/>
       <use x="55.615234375" xlink:href="#ArialMT-30"/>
       <use x="111.23046875" xlink:href="#ArialMT-30"/>
      </g>
     </g>
    </g>
   </g>
   <g id="line2d_34">
    <path clip-path="url(#p7cf5684bc6)" d="M 61.5355 246.120719 
L 65.091055 108.598239 
L 68.646611 100.817258 
L 72.202166 90.872384 
L 75.757721 97.786458 
L 79.313276 93.811118 
L 82.868832 82.157152 
L 86.424387 94.39642 
L 89.979942 118.726496 
L 93.535497 163.26342 
L 97.091053 103.488345 
L 100.646608 92.390222 
L 104.202163 173.261299 
L 107.757718 99.220317 
L 111.313274 96.285628 
L 114.868829 78.035343 
L 118.424384 97.12661 
L 121.979939 74.940211 
L 125.535495 87.67389 
L 129.09105 101.635565 
L 132.646605 92.316427 
L 136.20216 67.000201 
L 139.757716 119.048771 
L 143.313271 99.179231 
L 146.868826 40.123051 
L 150.424381 105.579681 
L 153.979937 99.253686 
L 157.535492 116.534675 
L 161.091047 110.341541 
L 164.646602 87.178009 
L 168.202158 96.758968 
L 171.757713 109.136934 
L 175.313268 77.188908 
L 178.868824 69.13696 
L 182.424379 59.424611 
L 185.979934 86.4977 
L 189.535489 153.997765 
L 193.091045 93.002848 
L 196.6466 99.018 
L 200.202155 105.58496 
L 203.75771 105.963376 
L 207.313266 117.899309 
L 210.868821 110.493763 
L 214.424376 90.268685 
L 217.979931 105.28915 
L 221.535487 95.468965 
L 225.091042 100.736092 
L 228.646597 100.435134 
L 232.202152 181.539991 
L 235.757708 99.185574 
L 239.313263 88.730657 
L 242.868818 97.988362 
L 246.424373 91.611616 
L 249.979929 107.474081 
L 253.535484 103.042728 
L 257.091039 92.323929 
L 260.646594 91.785662 
L 264.20215 85.100141 
L 267.757705 85.962716 
L 271.31326 102.258039 
L 274.868816 96.352855 
L 278.424371 94.214938 
L 281.979926 90.930502 
L 285.535481 98.866158 
L 289.091037 88.684056 
L 292.646592 100.061116 
L 296.202147 102.92894 
L 299.757702 94.558602 
L 303.313258 99.140294 
L 306.868813 90.284224 
L 310.424368 101.318989 
L 313.979923 100.894741 
L 317.535479 103.488241 
L 321.091034 98.585835 
L 324.646589 101.035446 
L 328.202144 96.628249 
L 331.7577 96.820461 
L 335.313255 103.229841 
L 338.86881 103.644225 
L 342.424365 97.913707 
L 345.979921 100.168541 
L 349.535476 92.335988 
L 353.091031 109.273731 
L 356.646586 113.601175 
L 360.202142 113.874767 
L 363.757697 103.928108 
L 367.313252 103.693779 
L 370.868807 81.742917 
L 374.424363 109.286423 
L 377.979918 94.53447 
L 381.535473 92.788804 
L 385.091029 122.606327 
L 388.646584 107.977365 
L 392.202139 112.00241 
L 395.757694 137.747292 
L 399.31325 91.357685 
L 402.868805 114.313919 
L 406.42436 93.052457 
L 409.979915 85.534635 
L 413.535471 100.867161 
L 417.091026 101.218871 
L 420.646581 82.039228 
L 427.757692 105.883682 
L 431.313247 94.0484 
L 434.868802 107.666278 
L 438.424357 94.053332 
L 441.979913 91.122683 
L 445.535468 108.885031 
L 449.091023 89.826091 
L 452.646578 86.403715 
L 456.202134 105.295794 
L 459.757689 95.486777 
L 463.313244 86.021128 
L 466.868799 94.696241 
L 470.424355 93.801079 
L 473.97991 92.34451 
L 477.535465 101.617468 
L 481.09102 98.186066 
L 484.646576 105.433225 
L 488.202131 120.449311 
L 491.757686 72.092896 
L 495.313242 74.893545 
L 498.868797 96.748634 
L 502.424352 96.285076 
L 505.979907 87.376802 
L 509.535463 96.261757 
L 513.091018 100.107757 
L 516.646573 117.466626 
L 520.202128 98.590332 
L 523.757684 91.662021 
L 527.313239 102.314019 
L 530.868794 90.729004 
L 534.424349 101.312668 
L 537.979905 101.664719 
L 541.53546 81.873024 
L 545.091015 94.411002 
L 548.64657 94.765306 
L 552.202126 101.570852 
L 555.757681 93.422063 
L 559.313236 111.727026 
L 562.868791 85.060471 
L 566.424347 103.735296 
L 569.979902 118.550086 
L 573.535457 78.508287 
L 577.091012 102.665376 
L 580.646568 95.203326 
L 584.202123 77.908147 
L 587.757678 94.350199 
L 591.313234 96.349377 
L 594.868789 97.400093 
L 598.424344 104.626319 
L 601.979899 102.036676 
L 605.535455 91.7585 
L 609.09101 108.369305 
L 612.646565 112.078688 
L 616.20212 127.093838 
L 619.757676 106.22379 
L 623.313231 95.494597 
L 626.868786 91.966092 
L 630.424341 86.972667 
L 633.979897 93.54627 
L 637.535452 98.610879 
L 641.091007 104.000793 
L 644.646562 65.969418 
L 648.202118 91.85554 
L 651.757673 109.377569 
L 655.313228 92.46988 
L 658.868783 92.17979 
L 662.424339 102.654627 
L 665.979894 80.13306 
L 669.535449 106.840144 
L 673.091004 99.729043 
L 676.64656 88.932973 
L 680.202115 98.1845 
L 683.75767 100.59493 
L 687.313225 92.918463 
L 690.868781 98.122691 
L 694.424336 81.586782 
L 697.979891 98.760134 
L 697.979891 98.760134 
" style="fill:none;stroke:#4c72b0;stroke-linecap:round;stroke-width:2.275;"/>
   </g>
   <g id="patch_3">
    <path d="M 61.5355 247.126 
L 697.979891 247.126 
" style="fill:none;stroke:#262626;stroke-linecap:square;stroke-linejoin:miter;stroke-width:1.25;"/>
   </g>
   <g id="patch_4">
    <path d="M 61.5355 247.126 
L 61.5355 23.148 
" style="fill:none;stroke:#262626;stroke-linecap:square;stroke-linejoin:miter;stroke-width:1.25;"/>
   </g>
  </g>
  <g id="axes_2">
   <g id="patch_5">
    <path d="M 61.5355 531.452 
L 348.203891 531.452 
L 348.203891 307.474 
L 61.5355 307.474 
z
" style="fill:#ffffff;"/>
   </g>
   <g id="matplotlib.axis_3">
    <g id="xtick_24">
     <g id="line2d_35">
      <g>
       <use style="fill:#262626;stroke:#262626;stroke-width:1.3;" x="103.870494489" xlink:href="#m542654bca8" y="531.452"/>
      </g>
     </g>
     <g id="text_19">
      <!-- 5 -->
      <g style="fill:#262626;" transform="translate(100.255885114 555.85715625)scale(0.13 -0.13)">
       <use xlink:href="#ArialMT-35"/>
      </g>
     </g>
    </g>
    <g id="xtick_25">
     <g id="line2d_36">
      <g>
       <use style="fill:#262626;stroke:#262626;stroke-width:1.3;" x="164.349058045" xlink:href="#m542654bca8" y="531.452"/>
      </g>
     </g>
     <g id="text_20">
      <!-- 10 -->
      <g style="fill:#262626;" transform="translate(157.119839295 555.85715625)scale(0.13 -0.13)">
       <use xlink:href="#ArialMT-31"/>
       <use x="55.615234375" xlink:href="#ArialMT-30"/>
      </g>
     </g>
    </g>
    <g id="xtick_26">
     <g id="line2d_37">
      <g>
       <use style="fill:#262626;stroke:#262626;stroke-width:1.3;" x="224.827621601" xlink:href="#m542654bca8" y="531.452"/>
      </g>
     </g>
     <g id="text_21">
      <!-- 15 -->
      <g style="fill:#262626;" transform="translate(217.598402851 555.85715625)scale(0.13 -0.13)">
       <use xlink:href="#ArialMT-31"/>
       <use x="55.615234375" xlink:href="#ArialMT-35"/>
      </g>
     </g>
    </g>
    <g id="xtick_27">
     <g id="line2d_38">
      <g>
       <use style="fill:#262626;stroke:#262626;stroke-width:1.3;" x="285.306185156" xlink:href="#m542654bca8" y="531.452"/>
      </g>
     </g>
     <g id="text_22">
      <!-- 20 -->
      <g style="fill:#262626;" transform="translate(278.076966406 555.85715625)scale(0.13 -0.13)">
       <use xlink:href="#ArialMT-32"/>
       <use x="55.615234375" xlink:href="#ArialMT-30"/>
      </g>
     </g>
    </g>
    <g id="xtick_28">
     <g id="line2d_39">
      <g>
       <use style="fill:#262626;stroke:#262626;stroke-width:1.3;" x="345.784748712" xlink:href="#m542654bca8" y="531.452"/>
      </g>
     </g>
     <g id="text_23">
      <!-- 25 -->
      <g style="fill:#262626;" transform="translate(338.555529962 555.85715625)scale(0.13 -0.13)">
       <use xlink:href="#ArialMT-32"/>
       <use x="55.615234375" xlink:href="#ArialMT-35"/>
      </g>
     </g>
    </g>
   </g>
   <g id="matplotlib.axis_4">
    <g id="ytick_11">
     <g id="line2d_40">
      <g>
       <use style="fill:#262626;stroke:#262626;stroke-width:1.3;" x="61.5355" xlink:href="#m37a84376c5" y="523.888711398"/>
      </g>
     </g>
     <g id="text_24">
      <!-- −0.2 -->
      <defs>
       <path d="M 9.078125 0 
L 9.078125 10.015625 
L 19.09375 10.015625 
L 19.09375 0 
z
" id="ArialMT-2e"/>
      </defs>
      <g style="fill:#262626;" transform="translate(20.7726875 527.249414523)scale(0.13 -0.13)">
       <use xlink:href="#ArialMT-2212"/>
       <use x="58.3984375" xlink:href="#ArialMT-30"/>
       <use x="114.013671875" xlink:href="#ArialMT-2e"/>
       <use x="141.796875" xlink:href="#ArialMT-32"/>
      </g>
     </g>
    </g>
    <g id="ytick_12">
     <g id="line2d_41">
      <g>
       <use style="fill:#262626;stroke:#262626;stroke-width:1.3;" x="61.5355" xlink:href="#m37a84376c5" y="489.516395862"/>
      </g>
     </g>
     <g id="text_25">
      <!-- 0.0 -->
      <g style="fill:#262626;" transform="translate(28.3655 492.877098987)scale(0.13 -0.13)">
       <use xlink:href="#ArialMT-30"/>
       <use x="55.615234375" xlink:href="#ArialMT-2e"/>
       <use x="83.3984375" xlink:href="#ArialMT-30"/>
      </g>
     </g>
    </g>
    <g id="ytick_13">
     <g id="line2d_42">
      <g>
       <use style="fill:#262626;stroke:#262626;stroke-width:1.3;" x="61.5355" xlink:href="#m37a84376c5" y="455.144080326"/>
      </g>
     </g>
     <g id="text_26">
      <!-- 0.2 -->
      <g style="fill:#262626;" transform="translate(28.3655 458.504783451)scale(0.13 -0.13)">
       <use xlink:href="#ArialMT-30"/>
       <use x="55.615234375" xlink:href="#ArialMT-2e"/>
       <use x="83.3984375" xlink:href="#ArialMT-32"/>
      </g>
     </g>
    </g>
    <g id="ytick_14">
     <g id="line2d_43">
      <g>
       <use style="fill:#262626;stroke:#262626;stroke-width:1.3;" x="61.5355" xlink:href="#m37a84376c5" y="420.77176479"/>
      </g>
     </g>
     <g id="text_27">
      <!-- 0.4 -->
      <g style="fill:#262626;" transform="translate(28.3655 424.132467915)scale(0.13 -0.13)">
       <use xlink:href="#ArialMT-30"/>
       <use x="55.615234375" xlink:href="#ArialMT-2e"/>
       <use x="83.3984375" xlink:href="#ArialMT-34"/>
      </g>
     </g>
    </g>
    <g id="ytick_15">
     <g id="line2d_44">
      <g>
       <use style="fill:#262626;stroke:#262626;stroke-width:1.3;" x="61.5355" xlink:href="#m37a84376c5" y="386.399449254"/>
      </g>
     </g>
     <g id="text_28">
      <!-- 0.6 -->
      <g style="fill:#262626;" transform="translate(28.3655 389.760152379)scale(0.13 -0.13)">
       <use xlink:href="#ArialMT-30"/>
       <use x="55.615234375" xlink:href="#ArialMT-2e"/>
       <use x="83.3984375" xlink:href="#ArialMT-36"/>
      </g>
     </g>
    </g>
    <g id="ytick_16">
     <g id="line2d_45">
      <g>
       <use style="fill:#262626;stroke:#262626;stroke-width:1.3;" x="61.5355" xlink:href="#m37a84376c5" y="352.027133718"/>
      </g>
     </g>
     <g id="text_29">
      <!-- 0.8 -->
      <defs>
       <path d="M 17.671875 38.8125 
Q 12.203125 40.828125 9.5625 44.53125 
Q 6.9375 48.25 6.9375 53.421875 
Q 6.9375 61.234375 12.546875 66.546875 
Q 18.171875 71.875 27.484375 71.875 
Q 36.859375 71.875 42.578125 66.421875 
Q 48.296875 60.984375 48.296875 53.171875 
Q 48.296875 48.1875 45.671875 44.5 
Q 43.0625 40.828125 37.75 38.8125 
Q 44.34375 36.671875 47.78125 31.875 
Q 51.21875 27.09375 51.21875 20.453125 
Q 51.21875 11.28125 44.71875 5.03125 
Q 38.234375 -1.21875 27.640625 -1.21875 
Q 17.046875 -1.21875 10.546875 5.046875 
Q 4.046875 11.328125 4.046875 20.703125 
Q 4.046875 27.6875 7.59375 32.390625 
Q 11.140625 37.109375 17.671875 38.8125 
M 15.921875 53.71875 
Q 15.921875 48.640625 19.1875 45.40625 
Q 22.46875 42.1875 27.6875 42.1875 
Q 32.765625 42.1875 36.015625 45.375 
Q 39.265625 48.578125 39.265625 53.21875 
Q 39.265625 58.0625 35.90625 61.359375 
Q 32.5625 64.65625 27.59375 64.65625 
Q 22.5625 64.65625 19.234375 61.421875 
Q 15.921875 58.203125 15.921875 53.71875 
M 13.09375 20.65625 
Q 13.09375 16.890625 14.875 13.375 
Q 16.65625 9.859375 20.171875 7.921875 
Q 23.6875 6 27.734375 6 
Q 34.03125 6 38.125 10.046875 
Q 42.234375 14.109375 42.234375 20.359375 
Q 42.234375 26.703125 38.015625 30.859375 
Q 33.796875 35.015625 27.4375 35.015625 
Q 21.234375 35.015625 17.15625 30.90625 
Q 13.09375 26.8125 13.09375 20.65625 
" id="ArialMT-38"/>
      </defs>
      <g style="fill:#262626;" transform="translate(28.3655 355.387836843)scale(0.13 -0.13)">
       <use xlink:href="#ArialMT-30"/>
       <use x="55.615234375" xlink:href="#ArialMT-2e"/>
       <use x="83.3984375" xlink:href="#ArialMT-38"/>
      </g>
     </g>
    </g>
    <g id="ytick_17">
     <g id="line2d_46">
      <g>
       <use style="fill:#262626;stroke:#262626;stroke-width:1.3;" x="61.5355" xlink:href="#m37a84376c5" y="317.654818182"/>
      </g>
     </g>
     <g id="text_30">
      <!-- 1.0 -->
      <g style="fill:#262626;" transform="translate(28.3655 321.015521307)scale(0.13 -0.13)">
       <use xlink:href="#ArialMT-31"/>
       <use x="55.615234375" xlink:href="#ArialMT-2e"/>
       <use x="83.3984375" xlink:href="#ArialMT-30"/>
      </g>
     </g>
    </g>
   </g>
   <g id="PolyCollection_1">
    <defs>
     <path d="M 43.391931 -86.483604 
L 43.391931 -86.483604 
L 55.487644 -61.376846 
L 67.583356 -61.265761 
L 79.679069 -61.208285 
L 91.774782 -61.083815 
L 103.870494 -61.054564 
L 115.966207 -61.042263 
L 128.06192 -60.992612 
L 140.157633 -60.727134 
L 152.253345 -60.680647 
L 164.349058 -60.145209 
L 176.444771 -60.140528 
L 188.540483 -60.103843 
L 200.636196 -59.656244 
L 212.731909 -59.654538 
L 224.827622 -59.654481 
L 236.923334 -59.250628 
L 249.019047 -59.125993 
L 261.11476 -59.125114 
L 273.210472 -59.12451 
L 285.306185 -59.107271 
L 297.401898 -59.089645 
L 309.497611 -58.517257 
L 321.593323 -58.492955 
L 333.689036 -58.472741 
L 333.689036 -114.494467 
L 333.689036 -114.494467 
L 321.593323 -114.474254 
L 309.497611 -114.449951 
L 297.401898 -113.877563 
L 285.306185 -113.859938 
L 273.210472 -113.842698 
L 261.11476 -113.842094 
L 249.019047 -113.841216 
L 236.923334 -113.71658 
L 224.827622 -113.312727 
L 212.731909 -113.31267 
L 200.636196 -113.310965 
L 188.540483 -112.863366 
L 176.444771 -112.826681 
L 164.349058 -112.821999 
L 152.253345 -112.286561 
L 140.157633 -112.240075 
L 128.06192 -111.974596 
L 115.966207 -111.924945 
L 103.870494 -111.912644 
L 91.774782 -111.883393 
L 79.679069 -111.758923 
L 67.583356 -111.701448 
L 55.487644 -111.590362 
L 43.391931 -86.483604 
z
" id="m700fe06c7c" style="stroke:#000000;stroke-opacity:0.25;stroke-width:0.39;"/>
    </defs>
    <g clip-path="url(#pbbc1479288)">
     <use style="fill:#4c72b0;fill-opacity:0.25;stroke:#000000;stroke-opacity:0.25;stroke-width:0.39;" x="0.0" xlink:href="#m700fe06c7c" y="576.0"/>
    </g>
   </g>
   <g id="LineCollection_1">
    <path clip-path="url(#pbbc1479288)" d="M 43.391931 489.516396 
L 43.391931 317.654818 
" style="fill:none;stroke:#000000;stroke-width:2.275;"/>
    <path clip-path="url(#pbbc1479288)" d="M 55.487644 489.516396 
L 55.487644 478.072014 
" style="fill:none;stroke:#000000;stroke-width:2.275;"/>
    <path clip-path="url(#pbbc1479288)" d="M 67.583356 489.516396 
L 67.583356 497.762184 
" style="fill:none;stroke:#000000;stroke-width:2.275;"/>
    <path clip-path="url(#pbbc1479288)" d="M 79.679069 489.516396 
L 79.679069 477.360075 
" style="fill:none;stroke:#000000;stroke-width:2.275;"/>
    <path clip-path="url(#pbbc1479288)" d="M 91.774782 489.516396 
L 91.774782 495.418384 
" style="fill:none;stroke:#000000;stroke-width:2.275;"/>
    <path clip-path="url(#pbbc1479288)" d="M 103.870494 489.516396 
L 103.870494 493.345317 
" style="fill:none;stroke:#000000;stroke-width:2.275;"/>
    <path clip-path="url(#pbbc1479288)" d="M 115.966207 489.516396 
L 115.966207 497.213607 
" style="fill:none;stroke:#000000;stroke-width:2.275;"/>
    <path clip-path="url(#pbbc1479288)" d="M 128.06192 489.516396 
L 128.06192 507.369935 
" style="fill:none;stroke:#000000;stroke-width:2.275;"/>
    <path clip-path="url(#pbbc1479288)" d="M 140.157633 489.516396 
L 140.157633 482.022807 
" style="fill:none;stroke:#000000;stroke-width:2.275;"/>
    <path clip-path="url(#pbbc1479288)" d="M 152.253345 489.516396 
L 152.253345 463.941202 
" style="fill:none;stroke:#000000;stroke-width:2.275;"/>
    <path clip-path="url(#pbbc1479288)" d="M 164.349058 489.516396 
L 164.349058 487.11263 
" style="fill:none;stroke:#000000;stroke-width:2.275;"/>
    <path clip-path="url(#pbbc1479288)" d="M 176.444771 489.516396 
L 176.444771 482.784821 
" style="fill:none;stroke:#000000;stroke-width:2.275;"/>
    <path clip-path="url(#pbbc1479288)" d="M 188.540483 489.516396 
L 188.540483 465.895162 
" style="fill:none;stroke:#000000;stroke-width:2.275;"/>
    <path clip-path="url(#pbbc1479288)" d="M 200.636196 489.516396 
L 200.636196 488.052279 
" style="fill:none;stroke:#000000;stroke-width:2.275;"/>
    <path clip-path="url(#pbbc1479288)" d="M 212.731909 489.516396 
L 212.731909 489.24763 
" style="fill:none;stroke:#000000;stroke-width:2.275;"/>
    <path clip-path="url(#pbbc1479288)" d="M 224.827622 489.516396 
L 224.827622 512.133195 
" style="fill:none;stroke:#000000;stroke-width:2.275;"/>
    <path clip-path="url(#pbbc1479288)" d="M 236.923334 489.516396 
L 236.923334 502.142027 
" style="fill:none;stroke:#000000;stroke-width:2.275;"/>
    <path clip-path="url(#pbbc1479288)" d="M 249.019047 489.516396 
L 249.019047 490.577808 
" style="fill:none;stroke:#000000;stroke-width:2.275;"/>
    <path clip-path="url(#pbbc1479288)" d="M 261.11476 489.516396 
L 261.11476 490.396266 
" style="fill:none;stroke:#000000;stroke-width:2.275;"/>
    <path clip-path="url(#pbbc1479288)" d="M 273.210472 489.516396 
L 273.210472 494.218235 
" style="fill:none;stroke:#000000;stroke-width:2.275;"/>
    <path clip-path="url(#pbbc1479288)" d="M 285.306185 489.516396 
L 285.306185 494.272145 
" style="fill:none;stroke:#000000;stroke-width:2.275;"/>
    <path clip-path="url(#pbbc1479288)" d="M 297.401898 489.516396 
L 297.401898 516.763325 
" style="fill:none;stroke:#000000;stroke-width:2.275;"/>
    <path clip-path="url(#pbbc1479288)" d="M 309.497611 489.516396 
L 309.497611 495.160904 
" style="fill:none;stroke:#000000;stroke-width:2.275;"/>
    <path clip-path="url(#pbbc1479288)" d="M 321.593323 489.516396 
L 321.593323 484.366564 
" style="fill:none;stroke:#000000;stroke-width:2.275;"/>
    <path clip-path="url(#pbbc1479288)" d="M 333.689036 489.516396 
L 333.689036 521.271182 
" style="fill:none;stroke:#000000;stroke-width:2.275;"/>
   </g>
   <g id="line2d_47">
    <path clip-path="url(#pbbc1479288)" d="M 61.5355 489.516396 
L 348.203891 489.516396 
" style="fill:none;stroke:#0000ff;stroke-linecap:round;stroke-width:2.275;"/>
   </g>
   <g id="line2d_48">
    <defs>
     <path d="M 0 2.5 
C 0.663008 2.5 1.29895 2.236584 1.767767 1.767767 
C 2.236584 1.29895 2.5 0.663008 2.5 0 
C 2.5 -0.663008 2.236584 -1.29895 1.767767 -1.767767 
C 1.29895 -2.236584 0.663008 -2.5 0 -2.5 
C -0.663008 -2.5 -1.29895 -2.236584 -1.767767 -1.767767 
C -2.236584 -1.29895 -2.5 -0.663008 -2.5 0 
C -2.5 0.663008 -2.236584 1.29895 -1.767767 1.767767 
C -1.29895 2.236584 -0.663008 2.5 0 2.5 
z
" id="m34c2af12ea"/>
    </defs>
    <g clip-path="url(#pbbc1479288)">
     <use style="fill:#4c72b0;" x="43.3919309333" xlink:href="#m34c2af12ea" y="317.654818182"/>
     <use style="fill:#4c72b0;" x="55.4876436444" xlink:href="#m34c2af12ea" y="478.072013659"/>
     <use style="fill:#4c72b0;" x="67.5833563556" xlink:href="#m34c2af12ea" y="497.762183535"/>
     <use style="fill:#4c72b0;" x="79.6790690667" xlink:href="#m34c2af12ea" y="477.360074587"/>
     <use style="fill:#4c72b0;" x="91.7747817779" xlink:href="#m34c2af12ea" y="495.418383785"/>
     <use style="fill:#4c72b0;" x="103.870494489" xlink:href="#m34c2af12ea" y="493.345317146"/>
     <use style="fill:#4c72b0;" x="115.9662072" xlink:href="#m34c2af12ea" y="497.213606943"/>
     <use style="fill:#4c72b0;" x="128.061919911" xlink:href="#m34c2af12ea" y="507.3699345"/>
     <use style="fill:#4c72b0;" x="140.157632622" xlink:href="#m34c2af12ea" y="482.022806647"/>
     <use style="fill:#4c72b0;" x="152.253345334" xlink:href="#m34c2af12ea" y="463.941202056"/>
     <use style="fill:#4c72b0;" x="164.349058045" xlink:href="#m34c2af12ea" y="487.112629959"/>
     <use style="fill:#4c72b0;" x="176.444770756" xlink:href="#m34c2af12ea" y="482.784820911"/>
     <use style="fill:#4c72b0;" x="188.540483467" xlink:href="#m34c2af12ea" y="465.895161629"/>
     <use style="fill:#4c72b0;" x="200.636196178" xlink:href="#m34c2af12ea" y="488.052278739"/>
     <use style="fill:#4c72b0;" x="212.731908889" xlink:href="#m34c2af12ea" y="489.247630061"/>
     <use style="fill:#4c72b0;" x="224.827621601" xlink:href="#m34c2af12ea" y="512.133195268"/>
     <use style="fill:#4c72b0;" x="236.923334312" xlink:href="#m34c2af12ea" y="502.142027052"/>
     <use style="fill:#4c72b0;" x="249.019047023" xlink:href="#m34c2af12ea" y="490.577808464"/>
     <use style="fill:#4c72b0;" x="261.114759734" xlink:href="#m34c2af12ea" y="490.396266275"/>
     <use style="fill:#4c72b0;" x="273.210472445" xlink:href="#m34c2af12ea" y="494.218234646"/>
     <use style="fill:#4c72b0;" x="285.306185156" xlink:href="#m34c2af12ea" y="494.272145"/>
     <use style="fill:#4c72b0;" x="297.401897867" xlink:href="#m34c2af12ea" y="516.763325444"/>
     <use style="fill:#4c72b0;" x="309.497610579" xlink:href="#m34c2af12ea" y="495.160904254"/>
     <use style="fill:#4c72b0;" x="321.59332329" xlink:href="#m34c2af12ea" y="484.366564288"/>
     <use style="fill:#4c72b0;" x="333.689036001" xlink:href="#m34c2af12ea" y="521.271181818"/>
    </g>
   </g>
   <g id="patch_6">
    <path d="M 61.5355 531.452 
L 348.203891 531.452 
" style="fill:none;stroke:#262626;stroke-linecap:square;stroke-linejoin:miter;stroke-width:1.25;"/>
   </g>
   <g id="patch_7">
    <path d="M 61.5355 531.452 
L 61.5355 307.474 
" style="fill:none;stroke:#262626;stroke-linecap:square;stroke-linejoin:miter;stroke-width:1.25;"/>
   </g>
   <g id="text_31">
    <!-- Autocorrelation -->
    <defs>
     <path d="M 6.390625 0 
L 6.390625 71.578125 
L 15.1875 71.578125 
L 15.1875 0 
z
" id="ArialMT-6c"/>
     <path d="M 40.578125 0 
L 40.578125 7.625 
Q 34.515625 -1.171875 24.125 -1.171875 
Q 19.53125 -1.171875 15.546875 0.578125 
Q 11.578125 2.34375 9.640625 5 
Q 7.71875 7.671875 6.9375 11.53125 
Q 6.390625 14.109375 6.390625 19.734375 
L 6.390625 51.859375 
L 15.1875 51.859375 
L 15.1875 23.09375 
Q 15.1875 16.21875 15.71875 13.8125 
Q 16.546875 10.359375 19.234375 8.375 
Q 21.921875 6.390625 25.875 6.390625 
Q 29.828125 6.390625 33.296875 8.421875 
Q 36.765625 10.453125 38.203125 13.9375 
Q 39.65625 17.4375 39.65625 24.078125 
L 39.65625 51.859375 
L 48.4375 51.859375 
L 48.4375 0 
z
" id="ArialMT-75"/>
     <path d="M 6.640625 61.46875 
L 6.640625 71.578125 
L 15.4375 71.578125 
L 15.4375 61.46875 
z
M 6.640625 0 
L 6.640625 51.859375 
L 15.4375 51.859375 
L 15.4375 0 
z
" id="ArialMT-69"/>
     <path d="M 25.78125 7.859375 
L 27.046875 0.09375 
Q 23.34375 -0.6875 20.40625 -0.6875 
Q 15.625 -0.6875 12.984375 0.828125 
Q 10.359375 2.34375 9.28125 4.8125 
Q 8.203125 7.28125 8.203125 15.1875 
L 8.203125 45.015625 
L 1.765625 45.015625 
L 1.765625 51.859375 
L 8.203125 51.859375 
L 8.203125 64.703125 
L 16.9375 69.96875 
L 16.9375 51.859375 
L 25.78125 51.859375 
L 25.78125 45.015625 
L 16.9375 45.015625 
L 16.9375 14.703125 
Q 16.9375 10.9375 17.40625 9.859375 
Q 17.875 8.796875 18.921875 8.15625 
Q 19.96875 7.515625 21.921875 7.515625 
Q 23.390625 7.515625 25.78125 7.859375 
" id="ArialMT-74"/>
     <path d="M 3.328125 25.921875 
Q 3.328125 40.328125 11.328125 47.265625 
Q 18.015625 53.03125 27.640625 53.03125 
Q 38.328125 53.03125 45.109375 46.015625 
Q 51.90625 39.015625 51.90625 26.65625 
Q 51.90625 16.65625 48.90625 10.90625 
Q 45.90625 5.171875 40.15625 2 
Q 34.421875 -1.171875 27.640625 -1.171875 
Q 16.75 -1.171875 10.03125 5.8125 
Q 3.328125 12.796875 3.328125 25.921875 
M 12.359375 25.921875 
Q 12.359375 15.96875 16.703125 11.015625 
Q 21.046875 6.0625 27.640625 6.0625 
Q 34.1875 6.0625 38.53125 11.03125 
Q 42.875 16.015625 42.875 26.21875 
Q 42.875 35.84375 38.5 40.796875 
Q 34.125 45.75 27.640625 45.75 
Q 21.046875 45.75 16.703125 40.8125 
Q 12.359375 35.890625 12.359375 25.921875 
" id="ArialMT-6f"/>
     <path d="M 40.4375 19 
L 49.078125 17.875 
Q 47.65625 8.9375 41.8125 3.875 
Q 35.984375 -1.171875 27.484375 -1.171875 
Q 16.84375 -1.171875 10.375 5.78125 
Q 3.90625 12.75 3.90625 25.734375 
Q 3.90625 34.125 6.6875 40.421875 
Q 9.46875 46.734375 15.15625 49.875 
Q 20.84375 53.03125 27.546875 53.03125 
Q 35.984375 53.03125 41.359375 48.75 
Q 46.734375 44.484375 48.25 36.625 
L 39.703125 35.296875 
Q 38.484375 40.53125 35.375 43.15625 
Q 32.28125 45.796875 27.875 45.796875 
Q 21.234375 45.796875 17.078125 41.03125 
Q 12.9375 36.28125 12.9375 25.984375 
Q 12.9375 15.53125 16.9375 10.796875 
Q 20.953125 6.0625 27.390625 6.0625 
Q 32.5625 6.0625 36.03125 9.234375 
Q 39.5 12.40625 40.4375 19 
" id="ArialMT-63"/>
     <path d="M 6.59375 0 
L 6.59375 51.859375 
L 14.5 51.859375 
L 14.5 44.484375 
Q 20.21875 53.03125 31 53.03125 
Q 35.6875 53.03125 39.625 51.34375 
Q 43.5625 49.65625 45.515625 46.921875 
Q 47.46875 44.1875 48.25 40.4375 
Q 48.734375 37.984375 48.734375 31.890625 
L 48.734375 0 
L 39.9375 0 
L 39.9375 31.546875 
Q 39.9375 36.921875 38.90625 39.578125 
Q 37.890625 42.234375 35.28125 43.8125 
Q 32.671875 45.40625 29.15625 45.40625 
Q 23.53125 45.40625 19.453125 41.84375 
Q 15.375 38.28125 15.375 28.328125 
L 15.375 0 
z
" id="ArialMT-6e"/>
     <path d="M 40.4375 6.390625 
Q 35.546875 2.25 31.03125 0.53125 
Q 26.515625 -1.171875 21.34375 -1.171875 
Q 12.796875 -1.171875 8.203125 3 
Q 3.609375 7.171875 3.609375 13.671875 
Q 3.609375 17.484375 5.34375 20.625 
Q 7.078125 23.78125 9.890625 25.6875 
Q 12.703125 27.59375 16.21875 28.5625 
Q 18.796875 29.25 24.03125 29.890625 
Q 34.671875 31.15625 39.703125 32.90625 
Q 39.75 34.71875 39.75 35.203125 
Q 39.75 40.578125 37.25 42.78125 
Q 33.890625 45.75 27.25 45.75 
Q 21.046875 45.75 18.09375 43.578125 
Q 15.140625 41.40625 13.71875 35.890625 
L 5.125 37.0625 
Q 6.296875 42.578125 8.984375 45.96875 
Q 11.671875 49.359375 16.75 51.1875 
Q 21.828125 53.03125 28.515625 53.03125 
Q 35.15625 53.03125 39.296875 51.46875 
Q 43.453125 49.90625 45.40625 47.53125 
Q 47.359375 45.171875 48.140625 41.546875 
Q 48.578125 39.3125 48.578125 33.453125 
L 48.578125 21.734375 
Q 48.578125 9.46875 49.140625 6.21875 
Q 49.703125 2.984375 51.375 0 
L 42.1875 0 
Q 40.828125 2.734375 40.4375 6.390625 
M 39.703125 26.03125 
Q 34.90625 24.078125 25.34375 22.703125 
Q 19.921875 21.921875 17.671875 20.9375 
Q 15.4375 19.96875 14.203125 18.09375 
Q 12.984375 16.21875 12.984375 13.921875 
Q 12.984375 10.40625 15.640625 8.0625 
Q 18.3125 5.71875 23.4375 5.71875 
Q 28.515625 5.71875 32.46875 7.9375 
Q 36.421875 10.15625 38.28125 14.015625 
Q 39.703125 17 39.703125 22.796875 
z
" id="ArialMT-61"/>
     <path d="M -0.140625 0 
L 27.34375 71.578125 
L 37.546875 71.578125 
L 66.84375 0 
L 56.0625 0 
L 47.703125 21.6875 
L 17.78125 21.6875 
L 9.90625 0 
z
M 20.515625 29.390625 
L 44.78125 29.390625 
L 37.3125 49.21875 
Q 33.890625 58.25 32.234375 64.0625 
Q 30.859375 57.171875 28.375 50.390625 
z
" id="ArialMT-41"/>
     <path d="M 42.09375 16.703125 
L 51.171875 15.578125 
Q 49.03125 7.625 43.21875 3.21875 
Q 37.40625 -1.171875 28.375 -1.171875 
Q 17 -1.171875 10.328125 5.828125 
Q 3.65625 12.84375 3.65625 25.484375 
Q 3.65625 38.578125 10.390625 45.796875 
Q 17.140625 53.03125 27.875 53.03125 
Q 38.28125 53.03125 44.875 45.953125 
Q 51.46875 38.875 51.46875 26.03125 
Q 51.46875 25.25 51.421875 23.6875 
L 12.75 23.6875 
Q 13.234375 15.140625 17.578125 10.59375 
Q 21.921875 6.0625 28.421875 6.0625 
Q 33.25 6.0625 36.671875 8.59375 
Q 40.09375 11.140625 42.09375 16.703125 
M 13.234375 30.90625 
L 42.1875 30.90625 
Q 41.609375 37.453125 38.875 40.71875 
Q 34.671875 45.796875 27.984375 45.796875 
Q 21.921875 45.796875 17.796875 41.75 
Q 13.671875 37.703125 13.234375 30.90625 
" id="ArialMT-65"/>
     <path d="M 6.5 0 
L 6.5 51.859375 
L 14.40625 51.859375 
L 14.40625 44 
Q 17.4375 49.515625 20 51.265625 
Q 22.5625 53.03125 25.640625 53.03125 
Q 30.078125 53.03125 34.671875 50.203125 
L 31.640625 42.046875 
Q 28.421875 43.953125 25.203125 43.953125 
Q 22.3125 43.953125 20.015625 42.21875 
Q 17.71875 40.484375 16.75 37.40625 
Q 15.28125 32.71875 15.28125 27.15625 
L 15.28125 0 
z
" id="ArialMT-72"/>
    </defs>
    <g style="fill:#262626;" transform="translate(152.409820627 302.474)scale(0.15600000000000003 -0.15600000000000003)">
     <use xlink:href="#ArialMT-41"/>
     <use x="66.69921875" xlink:href="#ArialMT-75"/>
     <use x="122.314453125" xlink:href="#ArialMT-74"/>
     <use x="150.09765625" xlink:href="#ArialMT-6f"/>
     <use x="205.712890625" xlink:href="#ArialMT-63"/>
     <use x="255.712890625" xlink:href="#ArialMT-6f"/>
     <use x="311.328125" xlink:href="#ArialMT-72"/>
     <use x="344.62890625" xlink:href="#ArialMT-72"/>
     <use x="377.9296875" xlink:href="#ArialMT-65"/>
     <use x="433.544921875" xlink:href="#ArialMT-6c"/>
     <use x="455.76171875" xlink:href="#ArialMT-61"/>
     <use x="511.376953125" xlink:href="#ArialMT-74"/>
     <use x="539.16015625" xlink:href="#ArialMT-69"/>
     <use x="561.376953125" xlink:href="#ArialMT-6f"/>
     <use x="616.9921875" xlink:href="#ArialMT-6e"/>
    </g>
   </g>
  </g>
  <g id="axes_3">
   <g id="patch_8">
    <path d="M 411.3115 531.452 
L 697.979891 531.452 
L 697.979891 307.474 
L 411.3115 307.474 
z
" style="fill:#ffffff;"/>
   </g>
   <g id="matplotlib.axis_5">
    <g id="xtick_29">
     <g id="line2d_49">
      <g>
       <use style="fill:#262626;stroke:#262626;stroke-width:1.3;" x="453.646494489" xlink:href="#m542654bca8" y="531.452"/>
      </g>
     </g>
     <g id="text_32">
      <!-- 5 -->
      <g style="fill:#262626;" transform="translate(450.031885114 555.85715625)scale(0.13 -0.13)">
       <use xlink:href="#ArialMT-35"/>
      </g>
     </g>
    </g>
    <g id="xtick_30">
     <g id="line2d_50">
      <g>
       <use style="fill:#262626;stroke:#262626;stroke-width:1.3;" x="514.125058045" xlink:href="#m542654bca8" y="531.452"/>
      </g>
     </g>
     <g id="text_33">
      <!-- 10 -->
      <g style="fill:#262626;" transform="translate(506.895839295 555.85715625)scale(0.13 -0.13)">
       <use xlink:href="#ArialMT-31"/>
       <use x="55.615234375" xlink:href="#ArialMT-30"/>
      </g>
     </g>
    </g>
    <g id="xtick_31">
     <g id="line2d_51">
      <g>
       <use style="fill:#262626;stroke:#262626;stroke-width:1.3;" x="574.603621601" xlink:href="#m542654bca8" y="531.452"/>
      </g>
     </g>
     <g id="text_34">
      <!-- 15 -->
      <g style="fill:#262626;" transform="translate(567.374402851 555.85715625)scale(0.13 -0.13)">
       <use xlink:href="#ArialMT-31"/>
       <use x="55.615234375" xlink:href="#ArialMT-35"/>
      </g>
     </g>
    </g>
    <g id="xtick_32">
     <g id="line2d_52">
      <g>
       <use style="fill:#262626;stroke:#262626;stroke-width:1.3;" x="635.082185156" xlink:href="#m542654bca8" y="531.452"/>
      </g>
     </g>
     <g id="text_35">
      <!-- 20 -->
      <g style="fill:#262626;" transform="translate(627.852966406 555.85715625)scale(0.13 -0.13)">
       <use xlink:href="#ArialMT-32"/>
       <use x="55.615234375" xlink:href="#ArialMT-30"/>
      </g>
     </g>
    </g>
    <g id="xtick_33">
     <g id="line2d_53">
      <g>
       <use style="fill:#262626;stroke:#262626;stroke-width:1.3;" x="695.560748712" xlink:href="#m542654bca8" y="531.452"/>
      </g>
     </g>
     <g id="text_36">
      <!-- 25 -->
      <g style="fill:#262626;" transform="translate(688.331529962 555.85715625)scale(0.13 -0.13)">
       <use xlink:href="#ArialMT-32"/>
       <use x="55.615234375" xlink:href="#ArialMT-35"/>
      </g>
     </g>
    </g>
   </g>
   <g id="matplotlib.axis_6">
    <g id="ytick_18">
     <g id="line2d_54">
      <g>
       <use style="fill:#262626;stroke:#262626;stroke-width:1.3;" x="411.3115" xlink:href="#m37a84376c5" y="518.014938341"/>
      </g>
     </g>
     <g id="text_37">
      <!-- −0.2 -->
      <g style="fill:#262626;" transform="translate(370.5486875 521.375641466)scale(0.13 -0.13)">
       <use xlink:href="#ArialMT-2212"/>
       <use x="58.3984375" xlink:href="#ArialMT-30"/>
       <use x="114.013671875" xlink:href="#ArialMT-2e"/>
       <use x="141.796875" xlink:href="#ArialMT-32"/>
      </g>
     </g>
    </g>
    <g id="ytick_19">
     <g id="line2d_55">
      <g>
       <use style="fill:#262626;stroke:#262626;stroke-width:1.3;" x="411.3115" xlink:href="#m37a84376c5" y="484.621584981"/>
      </g>
     </g>
     <g id="text_38">
      <!-- 0.0 -->
      <g style="fill:#262626;" transform="translate(378.1415 487.982288106)scale(0.13 -0.13)">
       <use xlink:href="#ArialMT-30"/>
       <use x="55.615234375" xlink:href="#ArialMT-2e"/>
       <use x="83.3984375" xlink:href="#ArialMT-30"/>
      </g>
     </g>
    </g>
    <g id="ytick_20">
     <g id="line2d_56">
      <g>
       <use style="fill:#262626;stroke:#262626;stroke-width:1.3;" x="411.3115" xlink:href="#m37a84376c5" y="451.228231621"/>
      </g>
     </g>
     <g id="text_39">
      <!-- 0.2 -->
      <g style="fill:#262626;" transform="translate(378.1415 454.588934746)scale(0.13 -0.13)">
       <use xlink:href="#ArialMT-30"/>
       <use x="55.615234375" xlink:href="#ArialMT-2e"/>
       <use x="83.3984375" xlink:href="#ArialMT-32"/>
      </g>
     </g>
    </g>
    <g id="ytick_21">
     <g id="line2d_57">
      <g>
       <use style="fill:#262626;stroke:#262626;stroke-width:1.3;" x="411.3115" xlink:href="#m37a84376c5" y="417.834878262"/>
      </g>
     </g>
     <g id="text_40">
      <!-- 0.4 -->
      <g style="fill:#262626;" transform="translate(378.1415 421.195581387)scale(0.13 -0.13)">
       <use xlink:href="#ArialMT-30"/>
       <use x="55.615234375" xlink:href="#ArialMT-2e"/>
       <use x="83.3984375" xlink:href="#ArialMT-34"/>
      </g>
     </g>
    </g>
    <g id="ytick_22">
     <g id="line2d_58">
      <g>
       <use style="fill:#262626;stroke:#262626;stroke-width:1.3;" x="411.3115" xlink:href="#m37a84376c5" y="384.441524902"/>
      </g>
     </g>
     <g id="text_41">
      <!-- 0.6 -->
      <g style="fill:#262626;" transform="translate(378.1415 387.802228027)scale(0.13 -0.13)">
       <use xlink:href="#ArialMT-30"/>
       <use x="55.615234375" xlink:href="#ArialMT-2e"/>
       <use x="83.3984375" xlink:href="#ArialMT-36"/>
      </g>
     </g>
    </g>
    <g id="ytick_23">
     <g id="line2d_59">
      <g>
       <use style="fill:#262626;stroke:#262626;stroke-width:1.3;" x="411.3115" xlink:href="#m37a84376c5" y="351.048171542"/>
      </g>
     </g>
     <g id="text_42">
      <!-- 0.8 -->
      <g style="fill:#262626;" transform="translate(378.1415 354.408874667)scale(0.13 -0.13)">
       <use xlink:href="#ArialMT-30"/>
       <use x="55.615234375" xlink:href="#ArialMT-2e"/>
       <use x="83.3984375" xlink:href="#ArialMT-38"/>
      </g>
     </g>
    </g>
    <g id="ytick_24">
     <g id="line2d_60">
      <g>
       <use style="fill:#262626;stroke:#262626;stroke-width:1.3;" x="411.3115" xlink:href="#m37a84376c5" y="317.654818182"/>
      </g>
     </g>
     <g id="text_43">
      <!-- 1.0 -->
      <g style="fill:#262626;" transform="translate(378.1415 321.015521307)scale(0.13 -0.13)">
       <use xlink:href="#ArialMT-31"/>
       <use x="55.615234375" xlink:href="#ArialMT-2e"/>
       <use x="83.3984375" xlink:href="#ArialMT-30"/>
      </g>
     </g>
    </g>
   </g>
   <g id="PolyCollection_2">
    <defs>
     <path d="M 393.167931 -91.378415 
L 393.167931 -91.378415 
L 405.263644 -66.986726 
L 417.359356 -66.986726 
L 429.455069 -66.986726 
L 441.550782 -66.986726 
L 453.646494 -66.986726 
L 465.742207 -66.986726 
L 477.83792 -66.986726 
L 489.933633 -66.986726 
L 502.029345 -66.986726 
L 514.125058 -66.986726 
L 526.220771 -66.986726 
L 538.316483 -66.986726 
L 550.412196 -66.986726 
L 562.507909 -66.986726 
L 574.603622 -66.986726 
L 586.699334 -66.986726 
L 598.795047 -66.986726 
L 610.89076 -66.986726 
L 622.986472 -66.986726 
L 635.082185 -66.986726 
L 647.177898 -66.986726 
L 659.273611 -66.986726 
L 671.369323 -66.986726 
L 683.465036 -66.986726 
L 683.465036 -115.770104 
L 683.465036 -115.770104 
L 671.369323 -115.770104 
L 659.273611 -115.770104 
L 647.177898 -115.770104 
L 635.082185 -115.770104 
L 622.986472 -115.770104 
L 610.89076 -115.770104 
L 598.795047 -115.770104 
L 586.699334 -115.770104 
L 574.603622 -115.770104 
L 562.507909 -115.770104 
L 550.412196 -115.770104 
L 538.316483 -115.770104 
L 526.220771 -115.770104 
L 514.125058 -115.770104 
L 502.029345 -115.770104 
L 489.933633 -115.770104 
L 477.83792 -115.770104 
L 465.742207 -115.770104 
L 453.646494 -115.770104 
L 441.550782 -115.770104 
L 429.455069 -115.770104 
L 417.359356 -115.770104 
L 405.263644 -115.770104 
L 393.167931 -91.378415 
z
" id="md8308fbaba" style="stroke:#000000;stroke-opacity:0.25;stroke-width:0.39;"/>
    </defs>
    <g clip-path="url(#p36ca641925)">
     <use style="fill:#4c72b0;fill-opacity:0.25;stroke:#000000;stroke-opacity:0.25;stroke-width:0.39;" x="0.0" xlink:href="#md8308fbaba" y="576.0"/>
    </g>
   </g>
   <g id="LineCollection_2">
    <path clip-path="url(#p36ca641925)" d="M 393.167931 484.621585 
L 393.167931 317.654818 
" style="fill:none;stroke:#000000;stroke-width:2.275;"/>
    <path clip-path="url(#p36ca641925)" d="M 405.263644 484.621585 
L 405.263644 473.503152 
" style="fill:none;stroke:#000000;stroke-width:2.275;"/>
    <path clip-path="url(#p36ca641925)" d="M 417.359356 484.621585 
L 417.359356 493.411887 
" style="fill:none;stroke:#000000;stroke-width:2.275;"/>
    <path clip-path="url(#p36ca641925)" d="M 429.455069 484.621585 
L 429.455069 471.570714 
" style="fill:none;stroke:#000000;stroke-width:2.275;"/>
    <path clip-path="url(#p36ca641925)" d="M 441.550782 484.621585 
L 441.550782 492.673398 
" style="fill:none;stroke:#000000;stroke-width:2.275;"/>
    <path clip-path="url(#p36ca641925)" d="M 453.646494 484.621585 
L 453.646494 486.005246 
" style="fill:none;stroke:#000000;stroke-width:2.275;"/>
    <path clip-path="url(#p36ca641925)" d="M 465.742207 484.621585 
L 465.742207 493.54428 
" style="fill:none;stroke:#000000;stroke-width:2.275;"/>
    <path clip-path="url(#p36ca641925)" d="M 477.83792 484.621585 
L 477.83792 500.260019 
" style="fill:none;stroke:#000000;stroke-width:2.275;"/>
    <path clip-path="url(#p36ca641925)" d="M 489.933633 484.621585 
L 489.933633 475.470404 
" style="fill:none;stroke:#000000;stroke-width:2.275;"/>
    <path clip-path="url(#p36ca641925)" d="M 502.029345 484.621585 
L 502.029345 461.198638 
" style="fill:none;stroke:#000000;stroke-width:2.275;"/>
    <path clip-path="url(#p36ca641925)" d="M 514.125058 484.621585 
L 514.125058 482.856869 
" style="fill:none;stroke:#000000;stroke-width:2.275;"/>
    <path clip-path="url(#p36ca641925)" d="M 526.220771 484.621585 
L 526.220771 478.35978 
" style="fill:none;stroke:#000000;stroke-width:2.275;"/>
    <path clip-path="url(#p36ca641925)" d="M 538.316483 484.621585 
L 538.316483 465.563158 
" style="fill:none;stroke:#000000;stroke-width:2.275;"/>
    <path clip-path="url(#p36ca641925)" d="M 550.412196 484.621585 
L 550.412196 485.317567 
" style="fill:none;stroke:#000000;stroke-width:2.275;"/>
    <path clip-path="url(#p36ca641925)" d="M 562.507909 484.621585 
L 562.507909 483.25916 
" style="fill:none;stroke:#000000;stroke-width:2.275;"/>
    <path clip-path="url(#p36ca641925)" d="M 574.603622 484.621585 
L 574.603622 506.970472 
" style="fill:none;stroke:#000000;stroke-width:2.275;"/>
    <path clip-path="url(#p36ca641925)" d="M 586.699334 484.621585 
L 586.699334 488.413658 
" style="fill:none;stroke:#000000;stroke-width:2.275;"/>
    <path clip-path="url(#p36ca641925)" d="M 598.795047 484.621585 
L 598.795047 487.992143 
" style="fill:none;stroke:#000000;stroke-width:2.275;"/>
    <path clip-path="url(#p36ca641925)" d="M 610.89076 484.621585 
L 610.89076 483.160258 
" style="fill:none;stroke:#000000;stroke-width:2.275;"/>
    <path clip-path="url(#p36ca641925)" d="M 622.986472 484.621585 
L 622.986472 486.844053 
" style="fill:none;stroke:#000000;stroke-width:2.275;"/>
    <path clip-path="url(#p36ca641925)" d="M 635.082185 484.621585 
L 635.082185 493.125481 
" style="fill:none;stroke:#000000;stroke-width:2.275;"/>
    <path clip-path="url(#p36ca641925)" d="M 647.177898 484.621585 
L 647.177898 521.271182 
" style="fill:none;stroke:#000000;stroke-width:2.275;"/>
    <path clip-path="url(#p36ca641925)" d="M 659.273611 484.621585 
L 659.273611 493.464675 
" style="fill:none;stroke:#000000;stroke-width:2.275;"/>
    <path clip-path="url(#p36ca641925)" d="M 671.369323 484.621585 
L 671.369323 482.943696 
" style="fill:none;stroke:#000000;stroke-width:2.275;"/>
    <path clip-path="url(#p36ca641925)" d="M 683.465036 484.621585 
L 683.465036 512.113311 
" style="fill:none;stroke:#000000;stroke-width:2.275;"/>
   </g>
   <g id="line2d_61">
    <path clip-path="url(#p36ca641925)" d="M 411.3115 484.621585 
L 697.979891 484.621585 
" style="fill:none;stroke:#0000ff;stroke-linecap:round;stroke-width:2.275;"/>
   </g>
   <g id="line2d_62">
    <g clip-path="url(#p36ca641925)">
     <use style="fill:#4c72b0;" x="393.167930933" xlink:href="#m34c2af12ea" y="317.654818182"/>
     <use style="fill:#4c72b0;" x="405.263643644" xlink:href="#m34c2af12ea" y="473.503151645"/>
     <use style="fill:#4c72b0;" x="417.359356356" xlink:href="#m34c2af12ea" y="493.411886595"/>
     <use style="fill:#4c72b0;" x="429.455069067" xlink:href="#m34c2af12ea" y="471.570713812"/>
     <use style="fill:#4c72b0;" x="441.550781778" xlink:href="#m34c2af12ea" y="492.673397803"/>
     <use style="fill:#4c72b0;" x="453.646494489" xlink:href="#m34c2af12ea" y="486.005246018"/>
     <use style="fill:#4c72b0;" x="465.7422072" xlink:href="#m34c2af12ea" y="493.544280352"/>
     <use style="fill:#4c72b0;" x="477.837919911" xlink:href="#m34c2af12ea" y="500.260019387"/>
     <use style="fill:#4c72b0;" x="489.933632622" xlink:href="#m34c2af12ea" y="475.470403881"/>
     <use style="fill:#4c72b0;" x="502.029345334" xlink:href="#m34c2af12ea" y="461.198637698"/>
     <use style="fill:#4c72b0;" x="514.125058045" xlink:href="#m34c2af12ea" y="482.856868627"/>
     <use style="fill:#4c72b0;" x="526.220770756" xlink:href="#m34c2af12ea" y="478.359779754"/>
     <use style="fill:#4c72b0;" x="538.316483467" xlink:href="#m34c2af12ea" y="465.563157857"/>
     <use style="fill:#4c72b0;" x="550.412196178" xlink:href="#m34c2af12ea" y="485.317566995"/>
     <use style="fill:#4c72b0;" x="562.507908889" xlink:href="#m34c2af12ea" y="483.259159839"/>
     <use style="fill:#4c72b0;" x="574.603621601" xlink:href="#m34c2af12ea" y="506.970472193"/>
     <use style="fill:#4c72b0;" x="586.699334312" xlink:href="#m34c2af12ea" y="488.413658304"/>
     <use style="fill:#4c72b0;" x="598.795047023" xlink:href="#m34c2af12ea" y="487.992143284"/>
     <use style="fill:#4c72b0;" x="610.890759734" xlink:href="#m34c2af12ea" y="483.160257948"/>
     <use style="fill:#4c72b0;" x="622.986472445" xlink:href="#m34c2af12ea" y="486.844052834"/>
     <use style="fill:#4c72b0;" x="635.082185156" xlink:href="#m34c2af12ea" y="493.125481224"/>
     <use style="fill:#4c72b0;" x="647.177897867" xlink:href="#m34c2af12ea" y="521.271181818"/>
     <use style="fill:#4c72b0;" x="659.273610579" xlink:href="#m34c2af12ea" y="493.46467491"/>
     <use style="fill:#4c72b0;" x="671.36932329" xlink:href="#m34c2af12ea" y="482.94369622"/>
     <use style="fill:#4c72b0;" x="683.465036001" xlink:href="#m34c2af12ea" y="512.113310844"/>
    </g>
   </g>
   <g id="patch_9">
    <path d="M 411.3115 531.452 
L 697.979891 531.452 
" style="fill:none;stroke:#262626;stroke-linecap:square;stroke-linejoin:miter;stroke-width:1.25;"/>
   </g>
   <g id="patch_10">
    <path d="M 411.3115 531.452 
L 411.3115 307.474 
" style="fill:none;stroke:#262626;stroke-linecap:square;stroke-linejoin:miter;stroke-width:1.25;"/>
   </g>
   <g id="text_44">
    <!-- Partial Autocorrelation -->
    <defs>
     <path id="ArialMT-20"/>
     <path d="M 7.71875 0 
L 7.71875 71.578125 
L 34.71875 71.578125 
Q 41.84375 71.578125 45.609375 70.90625 
Q 50.875 70.015625 54.4375 67.546875 
Q 58.015625 65.09375 60.1875 60.640625 
Q 62.359375 56.203125 62.359375 50.875 
Q 62.359375 41.75 56.546875 35.421875 
Q 50.734375 29.109375 35.546875 29.109375 
L 17.1875 29.109375 
L 17.1875 0 
z
M 17.1875 37.546875 
L 35.6875 37.546875 
Q 44.875 37.546875 48.734375 40.96875 
Q 52.59375 44.390625 52.59375 50.59375 
Q 52.59375 55.078125 50.3125 58.265625 
Q 48.046875 61.46875 44.34375 62.5 
Q 41.9375 63.140625 35.5 63.140625 
L 17.1875 63.140625 
z
" id="ArialMT-50"/>
    </defs>
    <g style="fill:#262626;" transform="translate(477.916851877 302.474)scale(0.15600000000000003 -0.15600000000000003)">
     <use xlink:href="#ArialMT-50"/>
     <use x="66.69921875" xlink:href="#ArialMT-61"/>
     <use x="122.314453125" xlink:href="#ArialMT-72"/>
     <use x="155.615234375" xlink:href="#ArialMT-74"/>
     <use x="183.3984375" xlink:href="#ArialMT-69"/>
     <use x="205.615234375" xlink:href="#ArialMT-61"/>
     <use x="261.23046875" xlink:href="#ArialMT-6c"/>
     <use x="283.447265625" xlink:href="#ArialMT-20"/>
     <use x="311.15234375" xlink:href="#ArialMT-41"/>
     <use x="377.8515625" xlink:href="#ArialMT-75"/>
     <use x="433.466796875" xlink:href="#ArialMT-74"/>
     <use x="461.25" xlink:href="#ArialMT-6f"/>
     <use x="516.865234375" xlink:href="#ArialMT-63"/>
     <use x="566.865234375" xlink:href="#ArialMT-6f"/>
     <use x="622.48046875" xlink:href="#ArialMT-72"/>
     <use x="655.78125" xlink:href="#ArialMT-72"/>
     <use x="689.08203125" xlink:href="#ArialMT-65"/>
     <use x="744.697265625" xlink:href="#ArialMT-6c"/>
     <use x="766.9140625" xlink:href="#ArialMT-61"/>
     <use x="822.529296875" xlink:href="#ArialMT-74"/>
     <use x="850.3125" xlink:href="#ArialMT-69"/>
     <use x="872.529296875" xlink:href="#ArialMT-6f"/>
     <use x="928.14453125" xlink:href="#ArialMT-6e"/>
    </g>
   </g>
  </g>
 </g>
 <defs>
  <clipPath id="p7cf5684bc6">
   <rect height="223.978" width="636.444391254" x="61.5355" y="23.148"/>
  </clipPath>
  <clipPath id="p36ca641925">
   <rect height="223.978" width="286.668391254" x="411.3115" y="307.474"/>
  </clipPath>
  <clipPath id="pbbc1479288">
   <rect height="223.978" width="286.668391254" x="61.5355" y="307.474"/>
  </clipPath>
 </defs>
</svg>
