<?xml version="1.0" encoding="utf-8" standalone="no"?>
<!DOCTYPE svg PUBLIC "-//W3C//DTD SVG 1.1//EN"
  "http://www.w3.org/Graphics/SVG/1.1/DTD/svg11.dtd">
<!-- Created with matplotlib (http://matplotlib.org/) -->
<svg height="576pt" version="1.1" viewBox="0 0 720 576" width="720pt" xmlns="http://www.w3.org/2000/svg" xmlns:xlink="http://www.w3.org/1999/xlink">
 <defs>
  <style type="text/css">
*{stroke-linecap:butt;stroke-linejoin:round;stroke-miterlimit:100000;}
  </style>
 </defs>
 <g id="figure_1">
  <g id="patch_1">
   <path d="M 0 576 
L 720 576 
L 720 0 
L 0 0 
z
" style="fill:#ffffff;"/>
  </g>
  <g id="axes_1">
   <g id="patch_2">
    <path d="M 61.5355 247.126 
L 697.979891 247.126 
L 697.979891 23.148 
L 61.5355 23.148 
z
" style="fill:#ffffff;"/>
   </g>
   <g id="matplotlib.axis_1">
    <g id="xtick_1">
     <g id="line2d_1">
      <defs>
       <path d="M 0 0 
L 0 6 
" id="mb664c627ec" style="stroke:#262626;stroke-width:1.3;"/>
      </defs>
      <g>
       <use style="fill:#262626;stroke:#262626;stroke-width:1.3;" x="95.2098064156" xlink:href="#mb664c627ec" y="247.126"/>
      </g>
     </g>
     <g id="text_1">
      <!-- 2001 -->
      <defs>
       <path d="M 4.15625 35.296875 
Q 4.15625 48 6.765625 55.734375 
Q 9.375 63.484375 14.515625 67.671875 
Q 19.671875 71.875 27.484375 71.875 
Q 33.25 71.875 37.59375 69.546875 
Q 41.9375 67.234375 44.765625 62.859375 
Q 47.609375 58.5 49.21875 52.21875 
Q 50.828125 45.953125 50.828125 35.296875 
Q 50.828125 22.703125 48.234375 14.96875 
Q 45.65625 7.234375 40.5 3 
Q 35.359375 -1.21875 27.484375 -1.21875 
Q 17.140625 -1.21875 11.234375 6.203125 
Q 4.15625 15.140625 4.15625 35.296875 
M 13.1875 35.296875 
Q 13.1875 17.671875 17.3125 11.828125 
Q 21.4375 6 27.484375 6 
Q 33.546875 6 37.671875 11.859375 
Q 41.796875 17.71875 41.796875 35.296875 
Q 41.796875 52.984375 37.671875 58.78125 
Q 33.546875 64.59375 27.390625 64.59375 
Q 21.34375 64.59375 17.71875 59.46875 
Q 13.1875 52.9375 13.1875 35.296875 
" id="ArialMT-30"/>
       <path d="M 37.25 0 
L 28.46875 0 
L 28.46875 56 
Q 25.296875 52.984375 20.140625 49.953125 
Q 14.984375 46.921875 10.890625 45.40625 
L 10.890625 53.90625 
Q 18.265625 57.375 23.78125 62.296875 
Q 29.296875 67.234375 31.59375 71.875 
L 37.25 71.875 
z
" id="ArialMT-31"/>
       <path d="M 50.34375 8.453125 
L 50.34375 0 
L 3.03125 0 
Q 2.9375 3.171875 4.046875 6.109375 
Q 5.859375 10.9375 9.828125 15.625 
Q 13.8125 20.3125 21.34375 26.46875 
Q 33.015625 36.03125 37.109375 41.625 
Q 41.21875 47.21875 41.21875 52.203125 
Q 41.21875 57.421875 37.46875 61 
Q 33.734375 64.59375 27.734375 64.59375 
Q 21.390625 64.59375 17.578125 60.78125 
Q 13.765625 56.984375 13.71875 50.25 
L 4.6875 51.171875 
Q 5.609375 61.28125 11.65625 66.578125 
Q 17.71875 71.875 27.9375 71.875 
Q 38.234375 71.875 44.234375 66.15625 
Q 50.25 60.453125 50.25 52 
Q 50.25 47.703125 48.484375 43.546875 
Q 46.734375 39.40625 42.65625 34.8125 
Q 38.578125 30.21875 29.109375 22.21875 
Q 21.1875 15.578125 18.9375 13.203125 
Q 16.703125 10.84375 15.234375 8.453125 
z
" id="ArialMT-32"/>
      </defs>
      <g style="fill:#262626;" transform="translate(80.7513689156 271.53115625)scale(0.13 -0.13)">
       <use xlink:href="#ArialMT-32"/>
       <use x="55.615234375" xlink:href="#ArialMT-30"/>
       <use x="111.23046875" xlink:href="#ArialMT-30"/>
       <use x="166.845703125" xlink:href="#ArialMT-31"/>
      </g>
     </g>
    </g>
    <g id="xtick_2">
     <g id="line2d_2">
      <g>
       <use style="fill:#262626;stroke:#262626;stroke-width:1.3;" x="176.028141813" xlink:href="#mb664c627ec" y="247.126"/>
      </g>
     </g>
     <g id="text_2">
      <!-- 2003 -->
      <defs>
       <path d="M 4.203125 18.890625 
L 12.984375 20.0625 
Q 14.5 12.59375 18.140625 9.296875 
Q 21.78125 6 27 6 
Q 33.203125 6 37.46875 10.296875 
Q 41.75 14.59375 41.75 20.953125 
Q 41.75 27 37.796875 30.921875 
Q 33.84375 34.859375 27.734375 34.859375 
Q 25.25 34.859375 21.53125 33.890625 
L 22.515625 41.609375 
Q 23.390625 41.5 23.921875 41.5 
Q 29.546875 41.5 34.03125 44.421875 
Q 38.53125 47.359375 38.53125 53.46875 
Q 38.53125 58.296875 35.25 61.46875 
Q 31.984375 64.65625 26.8125 64.65625 
Q 21.6875 64.65625 18.265625 61.421875 
Q 14.84375 58.203125 13.875 51.765625 
L 5.078125 53.328125 
Q 6.6875 62.15625 12.390625 67.015625 
Q 18.109375 71.875 26.609375 71.875 
Q 32.46875 71.875 37.390625 69.359375 
Q 42.328125 66.84375 44.9375 62.5 
Q 47.5625 58.15625 47.5625 53.265625 
Q 47.5625 48.640625 45.0625 44.828125 
Q 42.578125 41.015625 37.703125 38.765625 
Q 44.046875 37.3125 47.5625 32.6875 
Q 51.078125 28.078125 51.078125 21.140625 
Q 51.078125 11.765625 44.234375 5.25 
Q 37.40625 -1.265625 26.953125 -1.265625 
Q 17.53125 -1.265625 11.296875 4.34375 
Q 5.078125 9.96875 4.203125 18.890625 
" id="ArialMT-33"/>
      </defs>
      <g style="fill:#262626;" transform="translate(161.569704313 271.53115625)scale(0.13 -0.13)">
       <use xlink:href="#ArialMT-32"/>
       <use x="55.615234375" xlink:href="#ArialMT-30"/>
       <use x="111.23046875" xlink:href="#ArialMT-30"/>
       <use x="166.845703125" xlink:href="#ArialMT-33"/>
      </g>
     </g>
    </g>
    <g id="xtick_3">
     <g id="line2d_3">
      <g>
       <use style="fill:#262626;stroke:#262626;stroke-width:1.3;" x="256.84647721" xlink:href="#mb664c627ec" y="247.126"/>
      </g>
     </g>
     <g id="text_3">
      <!-- 2005 -->
      <defs>
       <path d="M 4.15625 18.75 
L 13.375 19.53125 
Q 14.40625 12.796875 18.140625 9.390625 
Q 21.875 6 27.15625 6 
Q 33.5 6 37.890625 10.78125 
Q 42.28125 15.578125 42.28125 23.484375 
Q 42.28125 31 38.0625 35.34375 
Q 33.84375 39.703125 27 39.703125 
Q 22.75 39.703125 19.328125 37.765625 
Q 15.921875 35.84375 13.96875 32.765625 
L 5.71875 33.84375 
L 12.640625 70.609375 
L 48.25 70.609375 
L 48.25 62.203125 
L 19.671875 62.203125 
L 15.828125 42.96875 
Q 22.265625 47.46875 29.34375 47.46875 
Q 38.71875 47.46875 45.15625 40.96875 
Q 51.609375 34.46875 51.609375 24.265625 
Q 51.609375 14.546875 45.953125 7.46875 
Q 39.0625 -1.21875 27.15625 -1.21875 
Q 17.390625 -1.21875 11.203125 4.25 
Q 5.03125 9.71875 4.15625 18.75 
" id="ArialMT-35"/>
      </defs>
      <g style="fill:#262626;" transform="translate(242.38803971 271.53115625)scale(0.13 -0.13)">
       <use xlink:href="#ArialMT-32"/>
       <use x="55.615234375" xlink:href="#ArialMT-30"/>
       <use x="111.23046875" xlink:href="#ArialMT-30"/>
       <use x="166.845703125" xlink:href="#ArialMT-35"/>
      </g>
     </g>
    </g>
    <g id="xtick_4">
     <g id="line2d_4">
      <g>
       <use style="fill:#262626;stroke:#262626;stroke-width:1.3;" x="337.664812608" xlink:href="#mb664c627ec" y="247.126"/>
      </g>
     </g>
     <g id="text_4">
      <!-- 2007 -->
      <defs>
       <path d="M 4.734375 62.203125 
L 4.734375 70.65625 
L 51.078125 70.65625 
L 51.078125 63.8125 
Q 44.234375 56.546875 37.515625 44.484375 
Q 30.8125 32.421875 27.15625 19.671875 
Q 24.515625 10.6875 23.78125 0 
L 14.75 0 
Q 14.890625 8.453125 18.0625 20.40625 
Q 21.234375 32.375 27.171875 43.484375 
Q 33.109375 54.59375 39.796875 62.203125 
z
" id="ArialMT-37"/>
      </defs>
      <g style="fill:#262626;" transform="translate(323.206375108 271.53115625)scale(0.13 -0.13)">
       <use xlink:href="#ArialMT-32"/>
       <use x="55.615234375" xlink:href="#ArialMT-30"/>
       <use x="111.23046875" xlink:href="#ArialMT-30"/>
       <use x="166.845703125" xlink:href="#ArialMT-37"/>
      </g>
     </g>
    </g>
    <g id="xtick_5">
     <g id="line2d_5">
      <g>
       <use style="fill:#262626;stroke:#262626;stroke-width:1.3;" x="418.483148005" xlink:href="#mb664c627ec" y="247.126"/>
      </g>
     </g>
     <g id="text_5">
      <!-- 2009 -->
      <defs>
       <path d="M 5.46875 16.546875 
L 13.921875 17.328125 
Q 14.984375 11.375 18.015625 8.6875 
Q 21.046875 6 25.78125 6 
Q 29.828125 6 32.875 7.859375 
Q 35.9375 9.71875 37.890625 12.8125 
Q 39.84375 15.921875 41.15625 21.1875 
Q 42.484375 26.46875 42.484375 31.9375 
Q 42.484375 32.515625 42.4375 33.6875 
Q 39.796875 29.5 35.234375 26.875 
Q 30.671875 24.265625 25.34375 24.265625 
Q 16.453125 24.265625 10.296875 30.703125 
Q 4.15625 37.15625 4.15625 47.703125 
Q 4.15625 58.59375 10.578125 65.234375 
Q 17 71.875 26.65625 71.875 
Q 33.640625 71.875 39.421875 68.109375 
Q 45.21875 64.359375 48.21875 57.390625 
Q 51.21875 50.4375 51.21875 37.25 
Q 51.21875 23.53125 48.234375 15.40625 
Q 45.265625 7.28125 39.375 3.03125 
Q 33.5 -1.21875 25.59375 -1.21875 
Q 17.1875 -1.21875 11.859375 3.4375 
Q 6.546875 8.109375 5.46875 16.546875 
M 41.453125 48.140625 
Q 41.453125 55.71875 37.421875 60.15625 
Q 33.40625 64.59375 27.734375 64.59375 
Q 21.875 64.59375 17.53125 59.8125 
Q 13.1875 55.03125 13.1875 47.40625 
Q 13.1875 40.578125 17.3125 36.296875 
Q 21.4375 32.03125 27.484375 32.03125 
Q 33.59375 32.03125 37.515625 36.296875 
Q 41.453125 40.578125 41.453125 48.140625 
" id="ArialMT-39"/>
      </defs>
      <g style="fill:#262626;" transform="translate(404.024710505 271.53115625)scale(0.13 -0.13)">
       <use xlink:href="#ArialMT-32"/>
       <use x="55.615234375" xlink:href="#ArialMT-30"/>
       <use x="111.23046875" xlink:href="#ArialMT-30"/>
       <use x="166.845703125" xlink:href="#ArialMT-39"/>
      </g>
     </g>
    </g>
    <g id="xtick_6">
     <g id="line2d_6">
      <g>
       <use style="fill:#262626;stroke:#262626;stroke-width:1.3;" x="499.301483402" xlink:href="#mb664c627ec" y="247.126"/>
      </g>
     </g>
     <g id="text_6">
      <!-- 2011 -->
      <g style="fill:#262626;" transform="translate(484.850155277 271.53115625)scale(0.13 -0.13)">
       <use xlink:href="#ArialMT-32"/>
       <use x="55.615234375" xlink:href="#ArialMT-30"/>
       <use x="111.23046875" xlink:href="#ArialMT-31"/>
       <use x="166.736328125" xlink:href="#ArialMT-31"/>
      </g>
     </g>
    </g>
    <g id="xtick_7">
     <g id="line2d_7">
      <g>
       <use style="fill:#262626;stroke:#262626;stroke-width:1.3;" x="580.1198188" xlink:href="#mb664c627ec" y="247.126"/>
      </g>
     </g>
     <g id="text_7">
      <!-- 2013 -->
      <g style="fill:#262626;" transform="translate(565.6613813 271.53115625)scale(0.13 -0.13)">
       <use xlink:href="#ArialMT-32"/>
       <use x="55.615234375" xlink:href="#ArialMT-30"/>
       <use x="111.23046875" xlink:href="#ArialMT-31"/>
       <use x="166.845703125" xlink:href="#ArialMT-33"/>
      </g>
     </g>
    </g>
    <g id="xtick_8">
     <g id="line2d_8">
      <g>
       <use style="fill:#262626;stroke:#262626;stroke-width:1.3;" x="660.938154197" xlink:href="#mb664c627ec" y="247.126"/>
      </g>
     </g>
     <g id="text_8">
      <!-- 2015 -->
      <g style="fill:#262626;" transform="translate(646.479716697 271.53115625)scale(0.13 -0.13)">
       <use xlink:href="#ArialMT-32"/>
       <use x="55.615234375" xlink:href="#ArialMT-30"/>
       <use x="111.23046875" xlink:href="#ArialMT-31"/>
       <use x="166.845703125" xlink:href="#ArialMT-35"/>
      </g>
     </g>
    </g>
    <g id="xtick_9">
     <g id="line2d_9">
      <defs>
       <path d="M 0 0 
L 0 3 
" id="ma6888a1753" style="stroke:#262626;stroke-width:0.65;"/>
      </defs>
      <g>
       <use style="fill:#262626;stroke:#262626;stroke-width:0.65;" x="95.2098064156" xlink:href="#ma6888a1753" y="247.126"/>
      </g>
     </g>
    </g>
    <g id="xtick_10">
     <g id="line2d_10">
      <g>
       <use style="fill:#262626;stroke:#262626;stroke-width:0.65;" x="135.618974114" xlink:href="#ma6888a1753" y="247.126"/>
      </g>
     </g>
    </g>
    <g id="xtick_11">
     <g id="line2d_11">
      <g>
       <use style="fill:#262626;stroke:#262626;stroke-width:0.65;" x="176.028141813" xlink:href="#ma6888a1753" y="247.126"/>
      </g>
     </g>
    </g>
    <g id="xtick_12">
     <g id="line2d_12">
      <g>
       <use style="fill:#262626;stroke:#262626;stroke-width:0.65;" x="216.437309512" xlink:href="#ma6888a1753" y="247.126"/>
      </g>
     </g>
    </g>
    <g id="xtick_13">
     <g id="line2d_13">
      <g>
       <use style="fill:#262626;stroke:#262626;stroke-width:0.65;" x="256.84647721" xlink:href="#ma6888a1753" y="247.126"/>
      </g>
     </g>
    </g>
    <g id="xtick_14">
     <g id="line2d_14">
      <g>
       <use style="fill:#262626;stroke:#262626;stroke-width:0.65;" x="297.255644909" xlink:href="#ma6888a1753" y="247.126"/>
      </g>
     </g>
    </g>
    <g id="xtick_15">
     <g id="line2d_15">
      <g>
       <use style="fill:#262626;stroke:#262626;stroke-width:0.65;" x="337.664812608" xlink:href="#ma6888a1753" y="247.126"/>
      </g>
     </g>
    </g>
    <g id="xtick_16">
     <g id="line2d_16">
      <g>
       <use style="fill:#262626;stroke:#262626;stroke-width:0.65;" x="378.073980306" xlink:href="#ma6888a1753" y="247.126"/>
      </g>
     </g>
    </g>
    <g id="xtick_17">
     <g id="line2d_17">
      <g>
       <use style="fill:#262626;stroke:#262626;stroke-width:0.65;" x="418.483148005" xlink:href="#ma6888a1753" y="247.126"/>
      </g>
     </g>
    </g>
    <g id="xtick_18">
     <g id="line2d_18">
      <g>
       <use style="fill:#262626;stroke:#262626;stroke-width:0.65;" x="458.892315704" xlink:href="#ma6888a1753" y="247.126"/>
      </g>
     </g>
    </g>
    <g id="xtick_19">
     <g id="line2d_19">
      <g>
       <use style="fill:#262626;stroke:#262626;stroke-width:0.65;" x="499.301483402" xlink:href="#ma6888a1753" y="247.126"/>
      </g>
     </g>
    </g>
    <g id="xtick_20">
     <g id="line2d_20">
      <g>
       <use style="fill:#262626;stroke:#262626;stroke-width:0.65;" x="539.710651101" xlink:href="#ma6888a1753" y="247.126"/>
      </g>
     </g>
    </g>
    <g id="xtick_21">
     <g id="line2d_21">
      <g>
       <use style="fill:#262626;stroke:#262626;stroke-width:0.65;" x="580.1198188" xlink:href="#ma6888a1753" y="247.126"/>
      </g>
     </g>
    </g>
    <g id="xtick_22">
     <g id="line2d_22">
      <g>
       <use style="fill:#262626;stroke:#262626;stroke-width:0.65;" x="620.528986498" xlink:href="#ma6888a1753" y="247.126"/>
      </g>
     </g>
    </g>
    <g id="xtick_23">
     <g id="line2d_23">
      <g>
       <use style="fill:#262626;stroke:#262626;stroke-width:0.65;" x="660.938154197" xlink:href="#ma6888a1753" y="247.126"/>
      </g>
     </g>
    </g>
   </g>
   <g id="matplotlib.axis_2">
    <g id="ytick_1">
     <g id="line2d_24">
      <defs>
       <path d="M 0 0 
L -6 0 
" id="mf6d1dcd228" style="stroke:#262626;stroke-width:1.3;"/>
      </defs>
      <g>
       <use style="fill:#262626;stroke:#262626;stroke-width:1.3;" x="61.5355" xlink:href="#mf6d1dcd228" y="247.126"/>
      </g>
     </g>
     <g id="text_9">
      <!-- −300 -->
      <defs>
       <path d="M 52.828125 31.203125 
L 5.5625 31.203125 
L 5.5625 39.40625 
L 52.828125 39.40625 
z
" id="ArialMT-2212"/>
      </defs>
      <g style="fill:#262626;" transform="translate(17.15503125 250.486703125)scale(0.13 -0.13)">
       <use xlink:href="#ArialMT-2212"/>
       <use x="58.3984375" xlink:href="#ArialMT-33"/>
       <use x="114.013671875" xlink:href="#ArialMT-30"/>
       <use x="169.62890625" xlink:href="#ArialMT-30"/>
      </g>
     </g>
    </g>
    <g id="ytick_2">
     <g id="line2d_25">
      <g>
       <use style="fill:#262626;stroke:#262626;stroke-width:1.3;" x="61.5355" xlink:href="#mf6d1dcd228" y="219.12875"/>
      </g>
     </g>
     <g id="text_10">
      <!-- −200 -->
      <g style="fill:#262626;" transform="translate(17.15503125 222.489453125)scale(0.13 -0.13)">
       <use xlink:href="#ArialMT-2212"/>
       <use x="58.3984375" xlink:href="#ArialMT-32"/>
       <use x="114.013671875" xlink:href="#ArialMT-30"/>
       <use x="169.62890625" xlink:href="#ArialMT-30"/>
      </g>
     </g>
    </g>
    <g id="ytick_3">
     <g id="line2d_26">
      <g>
       <use style="fill:#262626;stroke:#262626;stroke-width:1.3;" x="61.5355" xlink:href="#mf6d1dcd228" y="191.1315"/>
      </g>
     </g>
     <g id="text_11">
      <!-- −100 -->
      <g style="fill:#262626;" transform="translate(17.15503125 194.492203125)scale(0.13 -0.13)">
       <use xlink:href="#ArialMT-2212"/>
       <use x="58.3984375" xlink:href="#ArialMT-31"/>
       <use x="114.013671875" xlink:href="#ArialMT-30"/>
       <use x="169.62890625" xlink:href="#ArialMT-30"/>
      </g>
     </g>
    </g>
    <g id="ytick_4">
     <g id="line2d_27">
      <g>
       <use style="fill:#262626;stroke:#262626;stroke-width:1.3;" x="61.5355" xlink:href="#mf6d1dcd228" y="163.13425"/>
      </g>
     </g>
     <g id="text_12">
      <!-- 0 -->
      <g style="fill:#262626;" transform="translate(39.20628125 166.494953125)scale(0.13 -0.13)">
       <use xlink:href="#ArialMT-30"/>
      </g>
     </g>
    </g>
    <g id="ytick_5">
     <g id="line2d_28">
      <g>
       <use style="fill:#262626;stroke:#262626;stroke-width:1.3;" x="61.5355" xlink:href="#mf6d1dcd228" y="135.137"/>
      </g>
     </g>
     <g id="text_13">
      <!-- 100 -->
      <g style="fill:#262626;" transform="translate(24.74784375 138.497703125)scale(0.13 -0.13)">
       <use xlink:href="#ArialMT-31"/>
       <use x="55.615234375" xlink:href="#ArialMT-30"/>
       <use x="111.23046875" xlink:href="#ArialMT-30"/>
      </g>
     </g>
    </g>
    <g id="ytick_6">
     <g id="line2d_29">
      <g>
       <use style="fill:#262626;stroke:#262626;stroke-width:1.3;" x="61.5355" xlink:href="#mf6d1dcd228" y="107.13975"/>
      </g>
     </g>
     <g id="text_14">
      <!-- 200 -->
      <g style="fill:#262626;" transform="translate(24.74784375 110.500453125)scale(0.13 -0.13)">
       <use xlink:href="#ArialMT-32"/>
       <use x="55.615234375" xlink:href="#ArialMT-30"/>
       <use x="111.23046875" xlink:href="#ArialMT-30"/>
      </g>
     </g>
    </g>
    <g id="ytick_7">
     <g id="line2d_30">
      <g>
       <use style="fill:#262626;stroke:#262626;stroke-width:1.3;" x="61.5355" xlink:href="#mf6d1dcd228" y="79.1425"/>
      </g>
     </g>
     <g id="text_15">
      <!-- 300 -->
      <g style="fill:#262626;" transform="translate(24.74784375 82.503203125)scale(0.13 -0.13)">
       <use xlink:href="#ArialMT-33"/>
       <use x="55.615234375" xlink:href="#ArialMT-30"/>
       <use x="111.23046875" xlink:href="#ArialMT-30"/>
      </g>
     </g>
    </g>
    <g id="ytick_8">
     <g id="line2d_31">
      <g>
       <use style="fill:#262626;stroke:#262626;stroke-width:1.3;" x="61.5355" xlink:href="#mf6d1dcd228" y="51.14525"/>
      </g>
     </g>
     <g id="text_16">
      <!-- 400 -->
      <defs>
       <path d="M 32.328125 0 
L 32.328125 17.140625 
L 1.265625 17.140625 
L 1.265625 25.203125 
L 33.9375 71.578125 
L 41.109375 71.578125 
L 41.109375 25.203125 
L 50.78125 25.203125 
L 50.78125 17.140625 
L 41.109375 17.140625 
L 41.109375 0 
z
M 32.328125 25.203125 
L 32.328125 57.46875 
L 9.90625 25.203125 
z
" id="ArialMT-34"/>
      </defs>
      <g style="fill:#262626;" transform="translate(24.74784375 54.505953125)scale(0.13 -0.13)">
       <use xlink:href="#ArialMT-34"/>
       <use x="55.615234375" xlink:href="#ArialMT-30"/>
       <use x="111.23046875" xlink:href="#ArialMT-30"/>
      </g>
     </g>
    </g>
    <g id="ytick_9">
     <g id="line2d_32">
      <g>
       <use style="fill:#262626;stroke:#262626;stroke-width:1.3;" x="61.5355" xlink:href="#mf6d1dcd228" y="23.148"/>
      </g>
     </g>
     <g id="text_17">
      <!-- 500 -->
      <g style="fill:#262626;" transform="translate(24.74784375 26.508703125)scale(0.13 -0.13)">
       <use xlink:href="#ArialMT-35"/>
       <use x="55.615234375" xlink:href="#ArialMT-30"/>
       <use x="111.23046875" xlink:href="#ArialMT-30"/>
      </g>
     </g>
    </g>
   </g>
   <g id="line2d_33">
    <path clip-path="url(#p7c678111a8)" d="M 61.5355 158.105102 
L 64.902931 166.036295 
L 68.270361 159.389412 
L 71.637792 158.759305 
L 75.005223 174.942217 
L 78.372653 155.59928 
L 81.740084 180.911408 
L 85.107514 152.734299 
L 88.474945 180.360673 
L 91.842376 169.230836 
L 95.209806 65.954451 
L 98.577237 174.165873 
L 101.944668 160.148974 
L 105.312098 157.641178 
L 108.679529 160.258792 
L 112.04696 154.086662 
L 115.41439 157.804957 
L 118.781821 153.575031 
L 122.149252 204.821119 
L 125.516682 223.569158 
L 128.884113 178.392838 
L 132.251543 162.185702 
L 135.618974 150.252365 
L 138.986405 159.075161 
L 142.353835 157.079512 
L 145.721266 140.085715 
L 149.088697 161.525069 
L 152.456127 130.810926 
L 155.823558 159.160192 
L 159.190989 160.001663 
L 162.558419 184.452921 
L 165.92585 148.641127 
L 169.293281 207.338777 
L 172.660711 164.721589 
L 176.028142 36.379279 
L 179.395572 180.76112 
L 182.763003 159.422978 
L 186.130434 176.168031 
L 189.497864 172.018135 
L 192.865295 135.626548 
L 196.232726 163.429357 
L 199.600156 168.321257 
L 202.967587 167.793141 
L 206.335018 153.240231 
L 209.702448 146.784019 
L 213.069879 156.767581 
L 216.43731 160.333403 
L 219.80474 154.863311 
L 223.172171 160.516152 
L 226.539601 164.004475 
L 229.907032 171.416482 
L 233.274463 162.678906 
L 236.641893 173.427782 
L 240.009324 148.993488 
L 243.376755 195.208143 
L 246.744185 166.130449 
L 250.111616 186.653676 
L 253.479047 164.974813 
L 256.846477 191.362219 
L 260.213908 158.466848 
L 263.581338 148.877286 
L 266.948769 162.594696 
L 270.3162 160.581853 
L 273.68363 154.216095 
L 277.051061 169.042522 
L 280.418492 152.462896 
L 283.785922 176.743545 
L 287.153353 148.941744 
L 290.520784 163.982312 
L 293.888214 167.540712 
L 297.255645 128.867898 
L 300.623076 158.939068 
L 303.990506 150.16224 
L 307.357937 165.27083 
L 310.725367 157.367652 
L 314.092798 153.165637 
L 317.460229 173.273847 
L 320.827659 151.257682 
L 324.19509 185.370557 
L 327.562521 150.044673 
L 330.929951 178.822135 
L 334.297382 165.819775 
L 337.664813 156.463738 
L 341.032243 159.992534 
L 344.399674 157.240187 
L 347.767105 161.964349 
L 351.134535 163.145469 
L 354.501966 158.714622 
L 357.869396 175.875017 
L 361.236827 152.334195 
L 364.604258 185.25928 
L 367.971688 147.278421 
L 371.339119 186.111594 
L 374.70655 180.889824 
L 378.07398 167.376729 
L 381.441411 163.663259 
L 384.808842 158.790516 
L 388.176272 144.719439 
L 391.543703 176.699219 
L 394.911134 149.197881 
L 398.278564 167.266727 
L 401.645995 180.170569 
L 405.013425 191.926959 
L 408.380856 164.964788 
L 411.748287 219.597621 
L 415.115717 156.124923 
L 418.483148 175.465515 
L 421.850579 152.142739 
L 425.218009 141.858663 
L 428.58544 163.861893 
L 431.952871 168.259742 
L 435.320301 136.13753 
L 438.687732 170.376469 
L 442.055162 166.900244 
L 445.422593 180.789412 
L 448.790024 163.349403 
L 452.157454 183.140757 
L 455.524885 162.021942 
L 458.892316 176.939661 
L 462.259746 148.455481 
L 465.627177 141.667938 
L 468.994608 165.616672 
L 472.362038 165.150081 
L 475.729469 136.198457 
L 479.0969 169.070394 
L 482.46433 161.131442 
L 485.831761 181.033404 
L 489.199191 162.15794 
L 492.566622 196.530269 
L 495.934053 173.282096 
L 499.301483 195.074892 
L 502.668914 123.0343 
L 506.036345 125.691642 
L 509.403775 160.398528 
L 512.771206 167.151553 
L 516.138637 130.77144 
L 519.506067 169.787716 
L 522.873498 168.940836 
L 526.240929 206.217468 
L 529.608359 158.820174 
L 532.97579 188.466841 
L 536.34322 170.663572 
L 539.710651 170.147325 
L 543.078082 150.471568 
L 546.445512 144.793102 
L 549.812943 142.528578 
L 553.180374 165.852214 
L 556.547804 133.894622 
L 559.915235 174.332972 
L 563.282666 160.24615 
L 566.650096 204.097332 
L 570.017527 144.812636 
L 573.384958 202.309936 
L 576.752388 190.193763 
L 580.119819 157.765872 
L 583.487249 147.600011 
L 586.85468 133.431765 
L 590.222111 135.126661 
L 593.589541 165.582759 
L 596.956972 132.396372 
L 600.324403 170.34813 
L 603.691833 172.617546 
L 607.059264 199.848997 
L 610.426695 149.627756 
L 613.794125 206.919054 
L 617.161556 188.213915 
L 620.528986 206.21754 
L 623.896417 147.928406 
L 627.263848 133.410635 
L 630.631278 142.050562 
L 633.998709 154.866729 
L 637.36614 129.068561 
L 640.73357 173.010596 
L 644.101001 172.043229 
L 647.468432 163.643645 
L 650.835862 149.158983 
L 654.203293 212.468836 
L 657.570724 173.794522 
L 660.938154 170.880633 
L 664.305585 151.109966 
L 667.673015 114.989098 
L 671.040446 154.619586 
L 674.407877 164.48709 
L 677.775307 121.194201 
L 681.142738 173.259226 
L 684.510169 171.272993 
L 687.877599 187.322161 
L 691.24503 150.540819 
L 694.612461 185.958961 
L 697.979891 185.82046 
L 697.979891 185.82046 
" style="fill:none;stroke:#4c72b0;stroke-linecap:round;stroke-width:2.275;"/>
   </g>
   <g id="patch_3">
    <path d="M 61.5355 247.126 
L 697.979891 247.126 
" style="fill:none;stroke:#262626;stroke-linecap:square;stroke-linejoin:miter;stroke-width:1.25;"/>
   </g>
   <g id="patch_4">
    <path d="M 61.5355 247.126 
L 61.5355 23.148 
" style="fill:none;stroke:#262626;stroke-linecap:square;stroke-linejoin:miter;stroke-width:1.25;"/>
   </g>
  </g>
  <g id="axes_2">
   <g id="patch_5">
    <path d="M 61.5355 531.452 
L 348.203891 531.452 
L 348.203891 307.474 
L 61.5355 307.474 
z
" style="fill:#ffffff;"/>
   </g>
   <g id="matplotlib.axis_3">
    <g id="xtick_24">
     <g id="line2d_34">
      <g>
       <use style="fill:#262626;stroke:#262626;stroke-width:1.3;" x="103.870494489" xlink:href="#mb664c627ec" y="531.452"/>
      </g>
     </g>
     <g id="text_18">
      <!-- 5 -->
      <g style="fill:#262626;" transform="translate(100.255885114 555.85715625)scale(0.13 -0.13)">
       <use xlink:href="#ArialMT-35"/>
      </g>
     </g>
    </g>
    <g id="xtick_25">
     <g id="line2d_35">
      <g>
       <use style="fill:#262626;stroke:#262626;stroke-width:1.3;" x="164.349058045" xlink:href="#mb664c627ec" y="531.452"/>
      </g>
     </g>
     <g id="text_19">
      <!-- 10 -->
      <g style="fill:#262626;" transform="translate(157.119839295 555.85715625)scale(0.13 -0.13)">
       <use xlink:href="#ArialMT-31"/>
       <use x="55.615234375" xlink:href="#ArialMT-30"/>
      </g>
     </g>
    </g>
    <g id="xtick_26">
     <g id="line2d_36">
      <g>
       <use style="fill:#262626;stroke:#262626;stroke-width:1.3;" x="224.827621601" xlink:href="#mb664c627ec" y="531.452"/>
      </g>
     </g>
     <g id="text_20">
      <!-- 15 -->
      <g style="fill:#262626;" transform="translate(217.598402851 555.85715625)scale(0.13 -0.13)">
       <use xlink:href="#ArialMT-31"/>
       <use x="55.615234375" xlink:href="#ArialMT-35"/>
      </g>
     </g>
    </g>
    <g id="xtick_27">
     <g id="line2d_37">
      <g>
       <use style="fill:#262626;stroke:#262626;stroke-width:1.3;" x="285.306185156" xlink:href="#mb664c627ec" y="531.452"/>
      </g>
     </g>
     <g id="text_21">
      <!-- 20 -->
      <g style="fill:#262626;" transform="translate(278.076966406 555.85715625)scale(0.13 -0.13)">
       <use xlink:href="#ArialMT-32"/>
       <use x="55.615234375" xlink:href="#ArialMT-30"/>
      </g>
     </g>
    </g>
    <g id="xtick_28">
     <g id="line2d_38">
      <g>
       <use style="fill:#262626;stroke:#262626;stroke-width:1.3;" x="345.784748712" xlink:href="#mb664c627ec" y="531.452"/>
      </g>
     </g>
     <g id="text_22">
      <!-- 25 -->
      <g style="fill:#262626;" transform="translate(338.555529962 555.85715625)scale(0.13 -0.13)">
       <use xlink:href="#ArialMT-32"/>
       <use x="55.615234375" xlink:href="#ArialMT-35"/>
      </g>
     </g>
    </g>
   </g>
   <g id="matplotlib.axis_4">
    <g id="ytick_10">
     <g id="line2d_39">
      <g>
       <use style="fill:#262626;stroke:#262626;stroke-width:1.3;" x="61.5355" xlink:href="#mf6d1dcd228" y="518.883902655"/>
      </g>
     </g>
     <g id="text_23">
      <!-- −0.2 -->
      <defs>
       <path d="M 9.078125 0 
L 9.078125 10.015625 
L 19.09375 10.015625 
L 19.09375 0 
z
" id="ArialMT-2e"/>
      </defs>
      <g style="fill:#262626;" transform="translate(20.7726875 522.24460578)scale(0.13 -0.13)">
       <use xlink:href="#ArialMT-2212"/>
       <use x="58.3984375" xlink:href="#ArialMT-30"/>
       <use x="114.013671875" xlink:href="#ArialMT-2e"/>
       <use x="141.796875" xlink:href="#ArialMT-32"/>
      </g>
     </g>
    </g>
    <g id="ytick_11">
     <g id="line2d_40">
      <g>
       <use style="fill:#262626;stroke:#262626;stroke-width:1.3;" x="61.5355" xlink:href="#mf6d1dcd228" y="485.345721909"/>
      </g>
     </g>
     <g id="text_24">
      <!-- 0.0 -->
      <g style="fill:#262626;" transform="translate(28.3655 488.706425034)scale(0.13 -0.13)">
       <use xlink:href="#ArialMT-30"/>
       <use x="55.615234375" xlink:href="#ArialMT-2e"/>
       <use x="83.3984375" xlink:href="#ArialMT-30"/>
      </g>
     </g>
    </g>
    <g id="ytick_12">
     <g id="line2d_41">
      <g>
       <use style="fill:#262626;stroke:#262626;stroke-width:1.3;" x="61.5355" xlink:href="#mf6d1dcd228" y="451.807541164"/>
      </g>
     </g>
     <g id="text_25">
      <!-- 0.2 -->
      <g style="fill:#262626;" transform="translate(28.3655 455.168244289)scale(0.13 -0.13)">
       <use xlink:href="#ArialMT-30"/>
       <use x="55.615234375" xlink:href="#ArialMT-2e"/>
       <use x="83.3984375" xlink:href="#ArialMT-32"/>
      </g>
     </g>
    </g>
    <g id="ytick_13">
     <g id="line2d_42">
      <g>
       <use style="fill:#262626;stroke:#262626;stroke-width:1.3;" x="61.5355" xlink:href="#mf6d1dcd228" y="418.269360418"/>
      </g>
     </g>
     <g id="text_26">
      <!-- 0.4 -->
      <g style="fill:#262626;" transform="translate(28.3655 421.630063543)scale(0.13 -0.13)">
       <use xlink:href="#ArialMT-30"/>
       <use x="55.615234375" xlink:href="#ArialMT-2e"/>
       <use x="83.3984375" xlink:href="#ArialMT-34"/>
      </g>
     </g>
    </g>
    <g id="ytick_14">
     <g id="line2d_43">
      <g>
       <use style="fill:#262626;stroke:#262626;stroke-width:1.3;" x="61.5355" xlink:href="#mf6d1dcd228" y="384.731179673"/>
      </g>
     </g>
     <g id="text_27">
      <!-- 0.6 -->
      <defs>
       <path d="M 49.75 54.046875 
L 41.015625 53.375 
Q 39.84375 58.546875 37.703125 60.890625 
Q 34.125 64.65625 28.90625 64.65625 
Q 24.703125 64.65625 21.53125 62.3125 
Q 17.390625 59.28125 14.984375 53.46875 
Q 12.59375 47.65625 12.5 36.921875 
Q 15.671875 41.75 20.265625 44.09375 
Q 24.859375 46.4375 29.890625 46.4375 
Q 38.671875 46.4375 44.84375 39.96875 
Q 51.03125 33.5 51.03125 23.25 
Q 51.03125 16.5 48.125 10.71875 
Q 45.21875 4.9375 40.140625 1.859375 
Q 35.0625 -1.21875 28.609375 -1.21875 
Q 17.625 -1.21875 10.6875 6.859375 
Q 3.765625 14.9375 3.765625 33.5 
Q 3.765625 54.25 11.421875 63.671875 
Q 18.109375 71.875 29.4375 71.875 
Q 37.890625 71.875 43.28125 67.140625 
Q 48.6875 62.40625 49.75 54.046875 
M 13.875 23.1875 
Q 13.875 18.65625 15.796875 14.5 
Q 17.71875 10.359375 21.1875 8.171875 
Q 24.65625 6 28.46875 6 
Q 34.03125 6 38.03125 10.484375 
Q 42.046875 14.984375 42.046875 22.703125 
Q 42.046875 30.125 38.078125 34.390625 
Q 34.125 38.671875 28.125 38.671875 
Q 22.171875 38.671875 18.015625 34.390625 
Q 13.875 30.125 13.875 23.1875 
" id="ArialMT-36"/>
      </defs>
      <g style="fill:#262626;" transform="translate(28.3655 388.091882798)scale(0.13 -0.13)">
       <use xlink:href="#ArialMT-30"/>
       <use x="55.615234375" xlink:href="#ArialMT-2e"/>
       <use x="83.3984375" xlink:href="#ArialMT-36"/>
      </g>
     </g>
    </g>
    <g id="ytick_15">
     <g id="line2d_44">
      <g>
       <use style="fill:#262626;stroke:#262626;stroke-width:1.3;" x="61.5355" xlink:href="#mf6d1dcd228" y="351.192998927"/>
      </g>
     </g>
     <g id="text_28">
      <!-- 0.8 -->
      <defs>
       <path d="M 17.671875 38.8125 
Q 12.203125 40.828125 9.5625 44.53125 
Q 6.9375 48.25 6.9375 53.421875 
Q 6.9375 61.234375 12.546875 66.546875 
Q 18.171875 71.875 27.484375 71.875 
Q 36.859375 71.875 42.578125 66.421875 
Q 48.296875 60.984375 48.296875 53.171875 
Q 48.296875 48.1875 45.671875 44.5 
Q 43.0625 40.828125 37.75 38.8125 
Q 44.34375 36.671875 47.78125 31.875 
Q 51.21875 27.09375 51.21875 20.453125 
Q 51.21875 11.28125 44.71875 5.03125 
Q 38.234375 -1.21875 27.640625 -1.21875 
Q 17.046875 -1.21875 10.546875 5.046875 
Q 4.046875 11.328125 4.046875 20.703125 
Q 4.046875 27.6875 7.59375 32.390625 
Q 11.140625 37.109375 17.671875 38.8125 
M 15.921875 53.71875 
Q 15.921875 48.640625 19.1875 45.40625 
Q 22.46875 42.1875 27.6875 42.1875 
Q 32.765625 42.1875 36.015625 45.375 
Q 39.265625 48.578125 39.265625 53.21875 
Q 39.265625 58.0625 35.90625 61.359375 
Q 32.5625 64.65625 27.59375 64.65625 
Q 22.5625 64.65625 19.234375 61.421875 
Q 15.921875 58.203125 15.921875 53.71875 
M 13.09375 20.65625 
Q 13.09375 16.890625 14.875 13.375 
Q 16.65625 9.859375 20.171875 7.921875 
Q 23.6875 6 27.734375 6 
Q 34.03125 6 38.125 10.046875 
Q 42.234375 14.109375 42.234375 20.359375 
Q 42.234375 26.703125 38.015625 30.859375 
Q 33.796875 35.015625 27.4375 35.015625 
Q 21.234375 35.015625 17.15625 30.90625 
Q 13.09375 26.8125 13.09375 20.65625 
" id="ArialMT-38"/>
      </defs>
      <g style="fill:#262626;" transform="translate(28.3655 354.553702052)scale(0.13 -0.13)">
       <use xlink:href="#ArialMT-30"/>
       <use x="55.615234375" xlink:href="#ArialMT-2e"/>
       <use x="83.3984375" xlink:href="#ArialMT-38"/>
      </g>
     </g>
    </g>
    <g id="ytick_16">
     <g id="line2d_45">
      <g>
       <use style="fill:#262626;stroke:#262626;stroke-width:1.3;" x="61.5355" xlink:href="#mf6d1dcd228" y="317.654818182"/>
      </g>
     </g>
     <g id="text_29">
      <!-- 1.0 -->
      <g style="fill:#262626;" transform="translate(28.3655 321.015521307)scale(0.13 -0.13)">
       <use xlink:href="#ArialMT-31"/>
       <use x="55.615234375" xlink:href="#ArialMT-2e"/>
       <use x="83.3984375" xlink:href="#ArialMT-30"/>
      </g>
     </g>
    </g>
   </g>
   <g id="PolyCollection_1">
    <defs>
     <path d="M 43.391931 -90.654278 
L 43.391931 -90.654278 
L 55.487644 -66.810186 
L 67.583356 -66.807492 
L 79.679069 -66.606394 
L 91.774782 -66.564774 
L 103.870494 -66.464244 
L 115.966207 -65.869877 
L 128.06192 -65.1946 
L 140.157633 -64.189509 
L 152.253345 -64.148423 
L 164.349058 -63.783042 
L 176.444771 -63.407198 
L 188.540483 -63.378679 
L 200.636196 -59.684599 
L 212.731909 -59.663916 
L 224.827622 -59.266167 
L 236.923334 -58.891145 
L 249.019047 -58.843793 
L 261.11476 -58.547664 
L 273.210472 -58.135685 
L 285.306185 -57.638496 
L 297.401898 -57.626801 
L 309.497611 -57.413065 
L 321.593323 -57.374022 
L 333.689036 -57.370372 
L 333.689036 -123.938184 
L 333.689036 -123.938184 
L 321.593323 -123.934534 
L 309.497611 -123.895491 
L 297.401898 -123.681755 
L 285.306185 -123.67006 
L 273.210472 -123.172872 
L 261.11476 -122.760892 
L 249.019047 -122.464763 
L 236.923334 -122.417411 
L 224.827622 -122.042389 
L 212.731909 -121.64464 
L 200.636196 -121.623957 
L 188.540483 -117.929877 
L 176.444771 -117.901359 
L 164.349058 -117.525514 
L 152.253345 -117.160133 
L 140.157633 -117.119047 
L 128.06192 -116.113956 
L 115.966207 -115.438679 
L 103.870494 -114.844312 
L 91.774782 -114.743782 
L 79.679069 -114.702162 
L 67.583356 -114.501064 
L 55.487644 -114.49837 
L 43.391931 -90.654278 
z
" id="m0bd31081de" style="stroke:#000000;stroke-opacity:0.25;stroke-width:0.39;"/>
    </defs>
    <g clip-path="url(#p4ce1db20d4)">
     <use style="fill:#4c72b0;fill-opacity:0.25;stroke:#000000;stroke-opacity:0.25;stroke-width:0.39;" x="0.0" xlink:href="#m0bd31081de" y="576.0"/>
    </g>
   </g>
   <g id="LineCollection_1">
    <path clip-path="url(#p4ce1db20d4)" d="M 43.391931 485.345722 
L 43.391931 317.654818 
" style="fill:none;stroke:#000000;stroke-width:2.275;"/>
    <path clip-path="url(#p4ce1db20d4)" d="M 55.487644 485.345722 
L 55.487644 487.128149 
" style="fill:none;stroke:#000000;stroke-width:2.275;"/>
    <path clip-path="url(#p4ce1db20d4)" d="M 67.583356 485.345722 
L 67.583356 469.912343 
" style="fill:none;stroke:#000000;stroke-width:2.275;"/>
    <path clip-path="url(#p4ce1db20d4)" d="M 79.679069 485.345722 
L 79.679069 492.384627 
" style="fill:none;stroke:#000000;stroke-width:2.275;"/>
    <path clip-path="url(#p4ce1db20d4)" d="M 91.774782 485.345722 
L 91.774782 496.301514 
" style="fill:none;stroke:#000000;stroke-width:2.275;"/>
    <path clip-path="url(#p4ce1db20d4)" d="M 103.870494 485.345722 
L 103.870494 512.176036 
" style="fill:none;stroke:#000000;stroke-width:2.275;"/>
    <path clip-path="url(#p4ce1db20d4)" d="M 115.966207 485.345722 
L 115.966207 514.31229 
" style="fill:none;stroke:#000000;stroke-width:2.275;"/>
    <path clip-path="url(#p4ce1db20d4)" d="M 128.06192 485.345722 
L 128.06192 521.271182 
" style="fill:none;stroke:#000000;stroke-width:2.275;"/>
    <path clip-path="url(#p4ce1db20d4)" d="M 140.157633 485.345722 
L 140.157633 492.68209 
" style="fill:none;stroke:#000000;stroke-width:2.275;"/>
    <path clip-path="url(#p4ce1db20d4)" d="M 152.253345 485.345722 
L 152.253345 507.307329 
" style="fill:none;stroke:#000000;stroke-width:2.275;"/>
    <path clip-path="url(#p4ce1db20d4)" d="M 164.349058 485.345722 
L 164.349058 462.917764 
" style="fill:none;stroke:#000000;stroke-width:2.275;"/>
    <path clip-path="url(#p4ce1db20d4)" d="M 176.444771 485.345722 
L 176.444771 479.144619 
" style="fill:none;stroke:#000000;stroke-width:2.275;"/>
    <path clip-path="url(#p4ce1db20d4)" d="M 188.540483 485.345722 
L 188.540483 412.400437 
" style="fill:none;stroke:#000000;stroke-width:2.275;"/>
    <path clip-path="url(#p4ce1db20d4)" d="M 200.636196 485.345722 
L 200.636196 479.716151 
" style="fill:none;stroke:#000000;stroke-width:2.275;"/>
    <path clip-path="url(#p4ce1db20d4)" d="M 212.731909 485.345722 
L 212.731909 460.575191 
" style="fill:none;stroke:#000000;stroke-width:2.275;"/>
    <path clip-path="url(#p4ce1db20d4)" d="M 224.827622 485.345722 
L 224.827622 509.54671 
" style="fill:none;stroke:#000000;stroke-width:2.275;"/>
    <path clip-path="url(#p4ce1db20d4)" d="M 236.923334 485.345722 
L 236.923334 493.973992 
" style="fill:none;stroke:#000000;stroke-width:2.275;"/>
    <path clip-path="url(#p4ce1db20d4)" d="M 249.019047 485.345722 
L 249.019047 506.980985 
" style="fill:none;stroke:#000000;stroke-width:2.275;"/>
    <path clip-path="url(#p4ce1db20d4)" d="M 261.11476 485.345722 
L 261.11476 511.005486 
" style="fill:none;stroke:#000000;stroke-width:2.275;"/>
    <path clip-path="url(#p4ce1db20d4)" d="M 273.210472 485.345722 
L 273.210472 513.732027 
" style="fill:none;stroke:#000000;stroke-width:2.275;"/>
    <path clip-path="url(#p4ce1db20d4)" d="M 285.306185 485.345722 
L 285.306185 489.716124 
" style="fill:none;stroke:#000000;stroke-width:2.275;"/>
    <path clip-path="url(#p4ce1db20d4)" d="M 297.401898 485.345722 
L 297.401898 504.061449 
" style="fill:none;stroke:#000000;stroke-width:2.275;"/>
    <path clip-path="url(#p4ce1db20d4)" d="M 309.497611 485.345722 
L 309.497611 477.331382 
" style="fill:none;stroke:#000000;stroke-width:2.275;"/>
    <path clip-path="url(#p4ce1db20d4)" d="M 321.593323 485.345722 
L 321.593323 482.894482 
" style="fill:none;stroke:#000000;stroke-width:2.275;"/>
    <path clip-path="url(#p4ce1db20d4)" d="M 333.689036 485.345722 
L 333.689036 406.675633 
" style="fill:none;stroke:#000000;stroke-width:2.275;"/>
   </g>
   <g id="line2d_46">
    <path clip-path="url(#p4ce1db20d4)" d="M 61.5355 485.345722 
L 348.203891 485.345722 
" style="fill:none;stroke:#0000ff;stroke-linecap:round;stroke-width:2.275;"/>
   </g>
   <g id="line2d_47">
    <defs>
     <path d="M 0 2.5 
C 0.663008 2.5 1.29895 2.236584 1.767767 1.767767 
C 2.236584 1.29895 2.5 0.663008 2.5 0 
C 2.5 -0.663008 2.236584 -1.29895 1.767767 -1.767767 
C 1.29895 -2.236584 0.663008 -2.5 0 -2.5 
C -0.663008 -2.5 -1.29895 -2.236584 -1.767767 -1.767767 
C -2.236584 -1.29895 -2.5 -0.663008 -2.5 0 
C -2.5 0.663008 -2.236584 1.29895 -1.767767 1.767767 
C -1.29895 2.236584 -0.663008 2.5 0 2.5 
z
" id="m639ac71910"/>
    </defs>
    <g clip-path="url(#p4ce1db20d4)">
     <use style="fill:#4c72b0;" x="43.3919309333" xlink:href="#m639ac71910" y="317.654818182"/>
     <use style="fill:#4c72b0;" x="55.4876436444" xlink:href="#m639ac71910" y="487.128149106"/>
     <use style="fill:#4c72b0;" x="67.5833563556" xlink:href="#m639ac71910" y="469.912342777"/>
     <use style="fill:#4c72b0;" x="79.6790690667" xlink:href="#m639ac71910" y="492.384626722"/>
     <use style="fill:#4c72b0;" x="91.7747817779" xlink:href="#m639ac71910" y="496.301513666"/>
     <use style="fill:#4c72b0;" x="103.870494489" xlink:href="#m639ac71910" y="512.176035922"/>
     <use style="fill:#4c72b0;" x="115.9662072" xlink:href="#m639ac71910" y="514.312290144"/>
     <use style="fill:#4c72b0;" x="128.061919911" xlink:href="#m639ac71910" y="521.271181818"/>
     <use style="fill:#4c72b0;" x="140.157632622" xlink:href="#m639ac71910" y="492.682090476"/>
     <use style="fill:#4c72b0;" x="152.253345334" xlink:href="#m639ac71910" y="507.307329427"/>
     <use style="fill:#4c72b0;" x="164.349058045" xlink:href="#m639ac71910" y="462.917763829"/>
     <use style="fill:#4c72b0;" x="176.444770756" xlink:href="#m639ac71910" y="479.144618537"/>
     <use style="fill:#4c72b0;" x="188.540483467" xlink:href="#m639ac71910" y="412.400437206"/>
     <use style="fill:#4c72b0;" x="200.636196178" xlink:href="#m639ac71910" y="479.716151028"/>
     <use style="fill:#4c72b0;" x="212.731908889" xlink:href="#m639ac71910" y="460.57519103"/>
     <use style="fill:#4c72b0;" x="224.827621601" xlink:href="#m639ac71910" y="509.546710019"/>
     <use style="fill:#4c72b0;" x="236.923334312" xlink:href="#m639ac71910" y="493.97399182"/>
     <use style="fill:#4c72b0;" x="249.019047023" xlink:href="#m639ac71910" y="506.980985389"/>
     <use style="fill:#4c72b0;" x="261.114759734" xlink:href="#m639ac71910" y="511.005486372"/>
     <use style="fill:#4c72b0;" x="273.210472445" xlink:href="#m639ac71910" y="513.732026895"/>
     <use style="fill:#4c72b0;" x="285.306185156" xlink:href="#m639ac71910" y="489.716123521"/>
     <use style="fill:#4c72b0;" x="297.401897867" xlink:href="#m639ac71910" y="504.061448954"/>
     <use style="fill:#4c72b0;" x="309.497610579" xlink:href="#m639ac71910" y="477.33138186"/>
     <use style="fill:#4c72b0;" x="321.59332329" xlink:href="#m639ac71910" y="482.894481821"/>
     <use style="fill:#4c72b0;" x="333.689036001" xlink:href="#m639ac71910" y="406.675633341"/>
    </g>
   </g>
   <g id="patch_6">
    <path d="M 61.5355 531.452 
L 348.203891 531.452 
" style="fill:none;stroke:#262626;stroke-linecap:square;stroke-linejoin:miter;stroke-width:1.25;"/>
   </g>
   <g id="patch_7">
    <path d="M 61.5355 531.452 
L 61.5355 307.474 
" style="fill:none;stroke:#262626;stroke-linecap:square;stroke-linejoin:miter;stroke-width:1.25;"/>
   </g>
   <g id="text_30">
    <!-- Autocorrelation -->
    <defs>
     <path d="M 6.390625 0 
L 6.390625 71.578125 
L 15.1875 71.578125 
L 15.1875 0 
z
" id="ArialMT-6c"/>
     <path d="M 40.578125 0 
L 40.578125 7.625 
Q 34.515625 -1.171875 24.125 -1.171875 
Q 19.53125 -1.171875 15.546875 0.578125 
Q 11.578125 2.34375 9.640625 5 
Q 7.71875 7.671875 6.9375 11.53125 
Q 6.390625 14.109375 6.390625 19.734375 
L 6.390625 51.859375 
L 15.1875 51.859375 
L 15.1875 23.09375 
Q 15.1875 16.21875 15.71875 13.8125 
Q 16.546875 10.359375 19.234375 8.375 
Q 21.921875 6.390625 25.875 6.390625 
Q 29.828125 6.390625 33.296875 8.421875 
Q 36.765625 10.453125 38.203125 13.9375 
Q 39.65625 17.4375 39.65625 24.078125 
L 39.65625 51.859375 
L 48.4375 51.859375 
L 48.4375 0 
z
" id="ArialMT-75"/>
     <path d="M 6.640625 61.46875 
L 6.640625 71.578125 
L 15.4375 71.578125 
L 15.4375 61.46875 
z
M 6.640625 0 
L 6.640625 51.859375 
L 15.4375 51.859375 
L 15.4375 0 
z
" id="ArialMT-69"/>
     <path d="M 25.78125 7.859375 
L 27.046875 0.09375 
Q 23.34375 -0.6875 20.40625 -0.6875 
Q 15.625 -0.6875 12.984375 0.828125 
Q 10.359375 2.34375 9.28125 4.8125 
Q 8.203125 7.28125 8.203125 15.1875 
L 8.203125 45.015625 
L 1.765625 45.015625 
L 1.765625 51.859375 
L 8.203125 51.859375 
L 8.203125 64.703125 
L 16.9375 69.96875 
L 16.9375 51.859375 
L 25.78125 51.859375 
L 25.78125 45.015625 
L 16.9375 45.015625 
L 16.9375 14.703125 
Q 16.9375 10.9375 17.40625 9.859375 
Q 17.875 8.796875 18.921875 8.15625 
Q 19.96875 7.515625 21.921875 7.515625 
Q 23.390625 7.515625 25.78125 7.859375 
" id="ArialMT-74"/>
     <path d="M 3.328125 25.921875 
Q 3.328125 40.328125 11.328125 47.265625 
Q 18.015625 53.03125 27.640625 53.03125 
Q 38.328125 53.03125 45.109375 46.015625 
Q 51.90625 39.015625 51.90625 26.65625 
Q 51.90625 16.65625 48.90625 10.90625 
Q 45.90625 5.171875 40.15625 2 
Q 34.421875 -1.171875 27.640625 -1.171875 
Q 16.75 -1.171875 10.03125 5.8125 
Q 3.328125 12.796875 3.328125 25.921875 
M 12.359375 25.921875 
Q 12.359375 15.96875 16.703125 11.015625 
Q 21.046875 6.0625 27.640625 6.0625 
Q 34.1875 6.0625 38.53125 11.03125 
Q 42.875 16.015625 42.875 26.21875 
Q 42.875 35.84375 38.5 40.796875 
Q 34.125 45.75 27.640625 45.75 
Q 21.046875 45.75 16.703125 40.8125 
Q 12.359375 35.890625 12.359375 25.921875 
" id="ArialMT-6f"/>
     <path d="M 40.4375 19 
L 49.078125 17.875 
Q 47.65625 8.9375 41.8125 3.875 
Q 35.984375 -1.171875 27.484375 -1.171875 
Q 16.84375 -1.171875 10.375 5.78125 
Q 3.90625 12.75 3.90625 25.734375 
Q 3.90625 34.125 6.6875 40.421875 
Q 9.46875 46.734375 15.15625 49.875 
Q 20.84375 53.03125 27.546875 53.03125 
Q 35.984375 53.03125 41.359375 48.75 
Q 46.734375 44.484375 48.25 36.625 
L 39.703125 35.296875 
Q 38.484375 40.53125 35.375 43.15625 
Q 32.28125 45.796875 27.875 45.796875 
Q 21.234375 45.796875 17.078125 41.03125 
Q 12.9375 36.28125 12.9375 25.984375 
Q 12.9375 15.53125 16.9375 10.796875 
Q 20.953125 6.0625 27.390625 6.0625 
Q 32.5625 6.0625 36.03125 9.234375 
Q 39.5 12.40625 40.4375 19 
" id="ArialMT-63"/>
     <path d="M 6.59375 0 
L 6.59375 51.859375 
L 14.5 51.859375 
L 14.5 44.484375 
Q 20.21875 53.03125 31 53.03125 
Q 35.6875 53.03125 39.625 51.34375 
Q 43.5625 49.65625 45.515625 46.921875 
Q 47.46875 44.1875 48.25 40.4375 
Q 48.734375 37.984375 48.734375 31.890625 
L 48.734375 0 
L 39.9375 0 
L 39.9375 31.546875 
Q 39.9375 36.921875 38.90625 39.578125 
Q 37.890625 42.234375 35.28125 43.8125 
Q 32.671875 45.40625 29.15625 45.40625 
Q 23.53125 45.40625 19.453125 41.84375 
Q 15.375 38.28125 15.375 28.328125 
L 15.375 0 
z
" id="ArialMT-6e"/>
     <path d="M 40.4375 6.390625 
Q 35.546875 2.25 31.03125 0.53125 
Q 26.515625 -1.171875 21.34375 -1.171875 
Q 12.796875 -1.171875 8.203125 3 
Q 3.609375 7.171875 3.609375 13.671875 
Q 3.609375 17.484375 5.34375 20.625 
Q 7.078125 23.78125 9.890625 25.6875 
Q 12.703125 27.59375 16.21875 28.5625 
Q 18.796875 29.25 24.03125 29.890625 
Q 34.671875 31.15625 39.703125 32.90625 
Q 39.75 34.71875 39.75 35.203125 
Q 39.75 40.578125 37.25 42.78125 
Q 33.890625 45.75 27.25 45.75 
Q 21.046875 45.75 18.09375 43.578125 
Q 15.140625 41.40625 13.71875 35.890625 
L 5.125 37.0625 
Q 6.296875 42.578125 8.984375 45.96875 
Q 11.671875 49.359375 16.75 51.1875 
Q 21.828125 53.03125 28.515625 53.03125 
Q 35.15625 53.03125 39.296875 51.46875 
Q 43.453125 49.90625 45.40625 47.53125 
Q 47.359375 45.171875 48.140625 41.546875 
Q 48.578125 39.3125 48.578125 33.453125 
L 48.578125 21.734375 
Q 48.578125 9.46875 49.140625 6.21875 
Q 49.703125 2.984375 51.375 0 
L 42.1875 0 
Q 40.828125 2.734375 40.4375 6.390625 
M 39.703125 26.03125 
Q 34.90625 24.078125 25.34375 22.703125 
Q 19.921875 21.921875 17.671875 20.9375 
Q 15.4375 19.96875 14.203125 18.09375 
Q 12.984375 16.21875 12.984375 13.921875 
Q 12.984375 10.40625 15.640625 8.0625 
Q 18.3125 5.71875 23.4375 5.71875 
Q 28.515625 5.71875 32.46875 7.9375 
Q 36.421875 10.15625 38.28125 14.015625 
Q 39.703125 17 39.703125 22.796875 
z
" id="ArialMT-61"/>
     <path d="M -0.140625 0 
L 27.34375 71.578125 
L 37.546875 71.578125 
L 66.84375 0 
L 56.0625 0 
L 47.703125 21.6875 
L 17.78125 21.6875 
L 9.90625 0 
z
M 20.515625 29.390625 
L 44.78125 29.390625 
L 37.3125 49.21875 
Q 33.890625 58.25 32.234375 64.0625 
Q 30.859375 57.171875 28.375 50.390625 
z
" id="ArialMT-41"/>
     <path d="M 42.09375 16.703125 
L 51.171875 15.578125 
Q 49.03125 7.625 43.21875 3.21875 
Q 37.40625 -1.171875 28.375 -1.171875 
Q 17 -1.171875 10.328125 5.828125 
Q 3.65625 12.84375 3.65625 25.484375 
Q 3.65625 38.578125 10.390625 45.796875 
Q 17.140625 53.03125 27.875 53.03125 
Q 38.28125 53.03125 44.875 45.953125 
Q 51.46875 38.875 51.46875 26.03125 
Q 51.46875 25.25 51.421875 23.6875 
L 12.75 23.6875 
Q 13.234375 15.140625 17.578125 10.59375 
Q 21.921875 6.0625 28.421875 6.0625 
Q 33.25 6.0625 36.671875 8.59375 
Q 40.09375 11.140625 42.09375 16.703125 
M 13.234375 30.90625 
L 42.1875 30.90625 
Q 41.609375 37.453125 38.875 40.71875 
Q 34.671875 45.796875 27.984375 45.796875 
Q 21.921875 45.796875 17.796875 41.75 
Q 13.671875 37.703125 13.234375 30.90625 
" id="ArialMT-65"/>
     <path d="M 6.5 0 
L 6.5 51.859375 
L 14.40625 51.859375 
L 14.40625 44 
Q 17.4375 49.515625 20 51.265625 
Q 22.5625 53.03125 25.640625 53.03125 
Q 30.078125 53.03125 34.671875 50.203125 
L 31.640625 42.046875 
Q 28.421875 43.953125 25.203125 43.953125 
Q 22.3125 43.953125 20.015625 42.21875 
Q 17.71875 40.484375 16.75 37.40625 
Q 15.28125 32.71875 15.28125 27.15625 
L 15.28125 0 
z
" id="ArialMT-72"/>
    </defs>
    <g style="fill:#262626;" transform="translate(152.409820627 302.474)scale(0.15600000000000003 -0.15600000000000003)">
     <use xlink:href="#ArialMT-41"/>
     <use x="66.69921875" xlink:href="#ArialMT-75"/>
     <use x="122.314453125" xlink:href="#ArialMT-74"/>
     <use x="150.09765625" xlink:href="#ArialMT-6f"/>
     <use x="205.712890625" xlink:href="#ArialMT-63"/>
     <use x="255.712890625" xlink:href="#ArialMT-6f"/>
     <use x="311.328125" xlink:href="#ArialMT-72"/>
     <use x="344.62890625" xlink:href="#ArialMT-72"/>
     <use x="377.9296875" xlink:href="#ArialMT-65"/>
     <use x="433.544921875" xlink:href="#ArialMT-6c"/>
     <use x="455.76171875" xlink:href="#ArialMT-61"/>
     <use x="511.376953125" xlink:href="#ArialMT-74"/>
     <use x="539.16015625" xlink:href="#ArialMT-69"/>
     <use x="561.376953125" xlink:href="#ArialMT-6f"/>
     <use x="616.9921875" xlink:href="#ArialMT-6e"/>
    </g>
   </g>
  </g>
  <g id="axes_3">
   <g id="patch_8">
    <path d="M 411.3115 531.452 
L 697.979891 531.452 
L 697.979891 307.474 
L 411.3115 307.474 
z
" style="fill:#ffffff;"/>
   </g>
   <g id="matplotlib.axis_5">
    <g id="xtick_29">
     <g id="line2d_48">
      <g>
       <use style="fill:#262626;stroke:#262626;stroke-width:1.3;" x="453.646494489" xlink:href="#mb664c627ec" y="531.452"/>
      </g>
     </g>
     <g id="text_31">
      <!-- 5 -->
      <g style="fill:#262626;" transform="translate(450.031885114 555.85715625)scale(0.13 -0.13)">
       <use xlink:href="#ArialMT-35"/>
      </g>
     </g>
    </g>
    <g id="xtick_30">
     <g id="line2d_49">
      <g>
       <use style="fill:#262626;stroke:#262626;stroke-width:1.3;" x="514.125058045" xlink:href="#mb664c627ec" y="531.452"/>
      </g>
     </g>
     <g id="text_32">
      <!-- 10 -->
      <g style="fill:#262626;" transform="translate(506.895839295 555.85715625)scale(0.13 -0.13)">
       <use xlink:href="#ArialMT-31"/>
       <use x="55.615234375" xlink:href="#ArialMT-30"/>
      </g>
     </g>
    </g>
    <g id="xtick_31">
     <g id="line2d_50">
      <g>
       <use style="fill:#262626;stroke:#262626;stroke-width:1.3;" x="574.603621601" xlink:href="#mb664c627ec" y="531.452"/>
      </g>
     </g>
     <g id="text_33">
      <!-- 15 -->
      <g style="fill:#262626;" transform="translate(567.374402851 555.85715625)scale(0.13 -0.13)">
       <use xlink:href="#ArialMT-31"/>
       <use x="55.615234375" xlink:href="#ArialMT-35"/>
      </g>
     </g>
    </g>
    <g id="xtick_32">
     <g id="line2d_51">
      <g>
       <use style="fill:#262626;stroke:#262626;stroke-width:1.3;" x="635.082185156" xlink:href="#mb664c627ec" y="531.452"/>
      </g>
     </g>
     <g id="text_34">
      <!-- 20 -->
      <g style="fill:#262626;" transform="translate(627.852966406 555.85715625)scale(0.13 -0.13)">
       <use xlink:href="#ArialMT-32"/>
       <use x="55.615234375" xlink:href="#ArialMT-30"/>
      </g>
     </g>
    </g>
    <g id="xtick_33">
     <g id="line2d_52">
      <g>
       <use style="fill:#262626;stroke:#262626;stroke-width:1.3;" x="695.560748712" xlink:href="#mb664c627ec" y="531.452"/>
      </g>
     </g>
     <g id="text_35">
      <!-- 25 -->
      <g style="fill:#262626;" transform="translate(688.331529962 555.85715625)scale(0.13 -0.13)">
       <use xlink:href="#ArialMT-32"/>
       <use x="55.615234375" xlink:href="#ArialMT-35"/>
      </g>
     </g>
    </g>
   </g>
   <g id="matplotlib.axis_6">
    <g id="ytick_17">
     <g id="line2d_53">
      <g>
       <use style="fill:#262626;stroke:#262626;stroke-width:1.3;" x="411.3115" xlink:href="#mf6d1dcd228" y="518.545085968"/>
      </g>
     </g>
     <g id="text_36">
      <!-- −0.2 -->
      <g style="fill:#262626;" transform="translate(370.5486875 521.905789093)scale(0.13 -0.13)">
       <use xlink:href="#ArialMT-2212"/>
       <use x="58.3984375" xlink:href="#ArialMT-30"/>
       <use x="114.013671875" xlink:href="#ArialMT-2e"/>
       <use x="141.796875" xlink:href="#ArialMT-32"/>
      </g>
     </g>
    </g>
    <g id="ytick_18">
     <g id="line2d_54">
      <g>
       <use style="fill:#262626;stroke:#262626;stroke-width:1.3;" x="411.3115" xlink:href="#mf6d1dcd228" y="485.06337467"/>
      </g>
     </g>
     <g id="text_37">
      <!-- 0.0 -->
      <g style="fill:#262626;" transform="translate(378.1415 488.424077795)scale(0.13 -0.13)">
       <use xlink:href="#ArialMT-30"/>
       <use x="55.615234375" xlink:href="#ArialMT-2e"/>
       <use x="83.3984375" xlink:href="#ArialMT-30"/>
      </g>
     </g>
    </g>
    <g id="ytick_19">
     <g id="line2d_55">
      <g>
       <use style="fill:#262626;stroke:#262626;stroke-width:1.3;" x="411.3115" xlink:href="#mf6d1dcd228" y="451.581663373"/>
      </g>
     </g>
     <g id="text_38">
      <!-- 0.2 -->
      <g style="fill:#262626;" transform="translate(378.1415 454.942366498)scale(0.13 -0.13)">
       <use xlink:href="#ArialMT-30"/>
       <use x="55.615234375" xlink:href="#ArialMT-2e"/>
       <use x="83.3984375" xlink:href="#ArialMT-32"/>
      </g>
     </g>
    </g>
    <g id="ytick_20">
     <g id="line2d_56">
      <g>
       <use style="fill:#262626;stroke:#262626;stroke-width:1.3;" x="411.3115" xlink:href="#mf6d1dcd228" y="418.099952075"/>
      </g>
     </g>
     <g id="text_39">
      <!-- 0.4 -->
      <g style="fill:#262626;" transform="translate(378.1415 421.4606552)scale(0.13 -0.13)">
       <use xlink:href="#ArialMT-30"/>
       <use x="55.615234375" xlink:href="#ArialMT-2e"/>
       <use x="83.3984375" xlink:href="#ArialMT-34"/>
      </g>
     </g>
    </g>
    <g id="ytick_21">
     <g id="line2d_57">
      <g>
       <use style="fill:#262626;stroke:#262626;stroke-width:1.3;" x="411.3115" xlink:href="#mf6d1dcd228" y="384.618240777"/>
      </g>
     </g>
     <g id="text_40">
      <!-- 0.6 -->
      <g style="fill:#262626;" transform="translate(378.1415 387.978943902)scale(0.13 -0.13)">
       <use xlink:href="#ArialMT-30"/>
       <use x="55.615234375" xlink:href="#ArialMT-2e"/>
       <use x="83.3984375" xlink:href="#ArialMT-36"/>
      </g>
     </g>
    </g>
    <g id="ytick_22">
     <g id="line2d_58">
      <g>
       <use style="fill:#262626;stroke:#262626;stroke-width:1.3;" x="411.3115" xlink:href="#mf6d1dcd228" y="351.13652948"/>
      </g>
     </g>
     <g id="text_41">
      <!-- 0.8 -->
      <g style="fill:#262626;" transform="translate(378.1415 354.497232605)scale(0.13 -0.13)">
       <use xlink:href="#ArialMT-30"/>
       <use x="55.615234375" xlink:href="#ArialMT-2e"/>
       <use x="83.3984375" xlink:href="#ArialMT-38"/>
      </g>
     </g>
    </g>
    <g id="ytick_23">
     <g id="line2d_59">
      <g>
       <use style="fill:#262626;stroke:#262626;stroke-width:1.3;" x="411.3115" xlink:href="#mf6d1dcd228" y="317.654818182"/>
      </g>
     </g>
     <g id="text_42">
      <!-- 1.0 -->
      <g style="fill:#262626;" transform="translate(378.1415 321.015521307)scale(0.13 -0.13)">
       <use xlink:href="#ArialMT-31"/>
       <use x="55.615234375" xlink:href="#ArialMT-2e"/>
       <use x="83.3984375" xlink:href="#ArialMT-30"/>
      </g>
     </g>
    </g>
   </g>
   <g id="PolyCollection_2">
    <defs>
     <path d="M 393.167931 -90.936625 
L 393.167931 -90.936625 
L 405.263644 -67.13268 
L 417.359356 -67.13268 
L 429.455069 -67.13268 
L 441.550782 -67.13268 
L 453.646494 -67.13268 
L 465.742207 -67.13268 
L 477.83792 -67.13268 
L 489.933633 -67.13268 
L 502.029345 -67.13268 
L 514.125058 -67.13268 
L 526.220771 -67.13268 
L 538.316483 -67.13268 
L 550.412196 -67.13268 
L 562.507909 -67.13268 
L 574.603622 -67.13268 
L 586.699334 -67.13268 
L 598.795047 -67.13268 
L 610.89076 -67.13268 
L 622.986472 -67.13268 
L 635.082185 -67.13268 
L 647.177898 -67.13268 
L 659.273611 -67.13268 
L 671.369323 -67.13268 
L 683.465036 -67.13268 
L 683.465036 -114.740571 
L 683.465036 -114.740571 
L 671.369323 -114.740571 
L 659.273611 -114.740571 
L 647.177898 -114.740571 
L 635.082185 -114.740571 
L 622.986472 -114.740571 
L 610.89076 -114.740571 
L 598.795047 -114.740571 
L 586.699334 -114.740571 
L 574.603622 -114.740571 
L 562.507909 -114.740571 
L 550.412196 -114.740571 
L 538.316483 -114.740571 
L 526.220771 -114.740571 
L 514.125058 -114.740571 
L 502.029345 -114.740571 
L 489.933633 -114.740571 
L 477.83792 -114.740571 
L 465.742207 -114.740571 
L 453.646494 -114.740571 
L 441.550782 -114.740571 
L 429.455069 -114.740571 
L 417.359356 -114.740571 
L 405.263644 -114.740571 
L 393.167931 -90.936625 
z
" id="ma0ac33533b" style="stroke:#000000;stroke-opacity:0.25;stroke-width:0.39;"/>
    </defs>
    <g clip-path="url(#p4cf69773d0)">
     <use style="fill:#4c72b0;fill-opacity:0.25;stroke:#000000;stroke-opacity:0.25;stroke-width:0.39;" x="0.0" xlink:href="#ma0ac33533b" y="576.0"/>
    </g>
   </g>
   <g id="LineCollection_2">
    <path clip-path="url(#p4cf69773d0)" d="M 393.167931 485.063375 
L 393.167931 317.654818 
" style="fill:none;stroke:#000000;stroke-width:2.275;"/>
    <path clip-path="url(#p4cf69773d0)" d="M 405.263644 485.063375 
L 405.263644 486.842801 
" style="fill:none;stroke:#000000;stroke-width:2.275;"/>
    <path clip-path="url(#p4cf69773d0)" d="M 417.359356 485.063375 
L 417.359356 469.673156 
" style="fill:none;stroke:#000000;stroke-width:2.275;"/>
    <path clip-path="url(#p4cf69773d0)" d="M 429.455069 485.063375 
L 429.455069 491.836127 
" style="fill:none;stroke:#000000;stroke-width:2.275;"/>
    <path clip-path="url(#p4cf69773d0)" d="M 441.550782 485.063375 
L 441.550782 497.653058 
" style="fill:none;stroke:#000000;stroke-width:2.275;"/>
    <path clip-path="url(#p4cf69773d0)" d="M 453.646494 485.063375 
L 453.646494 511.170735 
" style="fill:none;stroke:#000000;stroke-width:2.275;"/>
    <path clip-path="url(#p4cf69773d0)" d="M 465.742207 485.063375 
L 465.742207 513.953299 
" style="fill:none;stroke:#000000;stroke-width:2.275;"/>
    <path clip-path="url(#p4cf69773d0)" d="M 477.83792 485.063375 
L 477.83792 521.271182 
" style="fill:none;stroke:#000000;stroke-width:2.275;"/>
    <path clip-path="url(#p4cf69773d0)" d="M 489.933633 485.063375 
L 489.933633 495.812604 
" style="fill:none;stroke:#000000;stroke-width:2.275;"/>
    <path clip-path="url(#p4cf69773d0)" d="M 502.029345 485.063375 
L 502.029345 512.716616 
" style="fill:none;stroke:#000000;stroke-width:2.275;"/>
    <path clip-path="url(#p4cf69773d0)" d="M 514.125058 485.063375 
L 514.125058 476.443492 
" style="fill:none;stroke:#000000;stroke-width:2.275;"/>
    <path clip-path="url(#p4cf69773d0)" d="M 526.220771 485.063375 
L 526.220771 490.549225 
" style="fill:none;stroke:#000000;stroke-width:2.275;"/>
    <path clip-path="url(#p4cf69773d0)" d="M 538.316483 485.063375 
L 538.316483 424.78428 
" style="fill:none;stroke:#000000;stroke-width:2.275;"/>
    <path clip-path="url(#p4cf69773d0)" d="M 550.412196 485.063375 
L 550.412196 485.361838 
" style="fill:none;stroke:#000000;stroke-width:2.275;"/>
    <path clip-path="url(#p4cf69773d0)" d="M 562.507909 485.063375 
L 562.507909 471.54359 
" style="fill:none;stroke:#000000;stroke-width:2.275;"/>
    <path clip-path="url(#p4cf69773d0)" d="M 574.603622 485.063375 
L 574.603622 516.41854 
" style="fill:none;stroke:#000000;stroke-width:2.275;"/>
    <path clip-path="url(#p4cf69773d0)" d="M 586.699334 485.063375 
L 586.699334 494.392556 
" style="fill:none;stroke:#000000;stroke-width:2.275;"/>
    <path clip-path="url(#p4cf69773d0)" d="M 598.795047 485.063375 
L 598.795047 491.829188 
" style="fill:none;stroke:#000000;stroke-width:2.275;"/>
    <path clip-path="url(#p4cf69773d0)" d="M 610.89076 485.063375 
L 610.89076 493.517395 
" style="fill:none;stroke:#000000;stroke-width:2.275;"/>
    <path clip-path="url(#p4cf69773d0)" d="M 622.986472 485.063375 
L 622.986472 488.442038 
" style="fill:none;stroke:#000000;stroke-width:2.275;"/>
    <path clip-path="url(#p4cf69773d0)" d="M 635.082185 485.063375 
L 635.082185 486.183633 
" style="fill:none;stroke:#000000;stroke-width:2.275;"/>
    <path clip-path="url(#p4cf69773d0)" d="M 647.177898 485.063375 
L 647.177898 492.326232 
" style="fill:none;stroke:#000000;stroke-width:2.275;"/>
    <path clip-path="url(#p4cf69773d0)" d="M 659.273611 485.063375 
L 659.273611 508.421587 
" style="fill:none;stroke:#000000;stroke-width:2.275;"/>
    <path clip-path="url(#p4cf69773d0)" d="M 671.369323 485.063375 
L 671.369323 497.883514 
" style="fill:none;stroke:#000000;stroke-width:2.275;"/>
    <path clip-path="url(#p4cf69773d0)" d="M 683.465036 485.063375 
L 683.465036 440.347712 
" style="fill:none;stroke:#000000;stroke-width:2.275;"/>
   </g>
   <g id="line2d_60">
    <path clip-path="url(#p4cf69773d0)" d="M 411.3115 485.063375 
L 697.979891 485.063375 
" style="fill:none;stroke:#0000ff;stroke-linecap:round;stroke-width:2.275;"/>
   </g>
   <g id="line2d_61">
    <g clip-path="url(#p4cf69773d0)">
     <use style="fill:#4c72b0;" x="393.167930933" xlink:href="#m639ac71910" y="317.654818182"/>
     <use style="fill:#4c72b0;" x="405.263643644" xlink:href="#m639ac71910" y="486.84280073"/>
     <use style="fill:#4c72b0;" x="417.359356356" xlink:href="#m639ac71910" y="469.673156428"/>
     <use style="fill:#4c72b0;" x="429.455069067" xlink:href="#m639ac71910" y="491.836126875"/>
     <use style="fill:#4c72b0;" x="441.550781778" xlink:href="#m639ac71910" y="497.653058296"/>
     <use style="fill:#4c72b0;" x="453.646494489" xlink:href="#m639ac71910" y="511.170735335"/>
     <use style="fill:#4c72b0;" x="465.7422072" xlink:href="#m639ac71910" y="513.953298598"/>
     <use style="fill:#4c72b0;" x="477.837919911" xlink:href="#m639ac71910" y="521.271181818"/>
     <use style="fill:#4c72b0;" x="489.933632622" xlink:href="#m639ac71910" y="495.812604216"/>
     <use style="fill:#4c72b0;" x="502.029345334" xlink:href="#m639ac71910" y="512.716616176"/>
     <use style="fill:#4c72b0;" x="514.125058045" xlink:href="#m639ac71910" y="476.443492228"/>
     <use style="fill:#4c72b0;" x="526.220770756" xlink:href="#m639ac71910" y="490.549224955"/>
     <use style="fill:#4c72b0;" x="538.316483467" xlink:href="#m639ac71910" y="424.784280252"/>
     <use style="fill:#4c72b0;" x="550.412196178" xlink:href="#m639ac71910" y="485.361838144"/>
     <use style="fill:#4c72b0;" x="562.507908889" xlink:href="#m639ac71910" y="471.543590357"/>
     <use style="fill:#4c72b0;" x="574.603621601" xlink:href="#m639ac71910" y="516.418539953"/>
     <use style="fill:#4c72b0;" x="586.699334312" xlink:href="#m639ac71910" y="494.392555956"/>
     <use style="fill:#4c72b0;" x="598.795047023" xlink:href="#m639ac71910" y="491.829188171"/>
     <use style="fill:#4c72b0;" x="610.890759734" xlink:href="#m639ac71910" y="493.517394612"/>
     <use style="fill:#4c72b0;" x="622.986472445" xlink:href="#m639ac71910" y="488.442038105"/>
     <use style="fill:#4c72b0;" x="635.082185156" xlink:href="#m639ac71910" y="486.183633354"/>
     <use style="fill:#4c72b0;" x="647.177897867" xlink:href="#m639ac71910" y="492.32623222"/>
     <use style="fill:#4c72b0;" x="659.273610579" xlink:href="#m639ac71910" y="508.421587414"/>
     <use style="fill:#4c72b0;" x="671.36932329" xlink:href="#m639ac71910" y="497.883514256"/>
     <use style="fill:#4c72b0;" x="683.465036001" xlink:href="#m639ac71910" y="440.347712379"/>
    </g>
   </g>
   <g id="patch_9">
    <path d="M 411.3115 531.452 
L 697.979891 531.452 
" style="fill:none;stroke:#262626;stroke-linecap:square;stroke-linejoin:miter;stroke-width:1.25;"/>
   </g>
   <g id="patch_10">
    <path d="M 411.3115 531.452 
L 411.3115 307.474 
" style="fill:none;stroke:#262626;stroke-linecap:square;stroke-linejoin:miter;stroke-width:1.25;"/>
   </g>
   <g id="text_43">
    <!-- Partial Autocorrelation -->
    <defs>
     <path id="ArialMT-20"/>
     <path d="M 7.71875 0 
L 7.71875 71.578125 
L 34.71875 71.578125 
Q 41.84375 71.578125 45.609375 70.90625 
Q 50.875 70.015625 54.4375 67.546875 
Q 58.015625 65.09375 60.1875 60.640625 
Q 62.359375 56.203125 62.359375 50.875 
Q 62.359375 41.75 56.546875 35.421875 
Q 50.734375 29.109375 35.546875 29.109375 
L 17.1875 29.109375 
L 17.1875 0 
z
M 17.1875 37.546875 
L 35.6875 37.546875 
Q 44.875 37.546875 48.734375 40.96875 
Q 52.59375 44.390625 52.59375 50.59375 
Q 52.59375 55.078125 50.3125 58.265625 
Q 48.046875 61.46875 44.34375 62.5 
Q 41.9375 63.140625 35.5 63.140625 
L 17.1875 63.140625 
z
" id="ArialMT-50"/>
    </defs>
    <g style="fill:#262626;" transform="translate(477.916851877 302.474)scale(0.15600000000000003 -0.15600000000000003)">
     <use xlink:href="#ArialMT-50"/>
     <use x="66.69921875" xlink:href="#ArialMT-61"/>
     <use x="122.314453125" xlink:href="#ArialMT-72"/>
     <use x="155.615234375" xlink:href="#ArialMT-74"/>
     <use x="183.3984375" xlink:href="#ArialMT-69"/>
     <use x="205.615234375" xlink:href="#ArialMT-61"/>
     <use x="261.23046875" xlink:href="#ArialMT-6c"/>
     <use x="283.447265625" xlink:href="#ArialMT-20"/>
     <use x="311.15234375" xlink:href="#ArialMT-41"/>
     <use x="377.8515625" xlink:href="#ArialMT-75"/>
     <use x="433.466796875" xlink:href="#ArialMT-74"/>
     <use x="461.25" xlink:href="#ArialMT-6f"/>
     <use x="516.865234375" xlink:href="#ArialMT-63"/>
     <use x="566.865234375" xlink:href="#ArialMT-6f"/>
     <use x="622.48046875" xlink:href="#ArialMT-72"/>
     <use x="655.78125" xlink:href="#ArialMT-72"/>
     <use x="689.08203125" xlink:href="#ArialMT-65"/>
     <use x="744.697265625" xlink:href="#ArialMT-6c"/>
     <use x="766.9140625" xlink:href="#ArialMT-61"/>
     <use x="822.529296875" xlink:href="#ArialMT-74"/>
     <use x="850.3125" xlink:href="#ArialMT-69"/>
     <use x="872.529296875" xlink:href="#ArialMT-6f"/>
     <use x="928.14453125" xlink:href="#ArialMT-6e"/>
    </g>
   </g>
  </g>
 </g>
 <defs>
  <clipPath id="p7c678111a8">
   <rect height="223.978" width="636.444391254" x="61.5355" y="23.148"/>
  </clipPath>
  <clipPath id="p4cf69773d0">
   <rect height="223.978" width="286.668391254" x="411.3115" y="307.474"/>
  </clipPath>
  <clipPath id="p4ce1db20d4">
   <rect height="223.978" width="286.668391254" x="61.5355" y="307.474"/>
  </clipPath>
 </defs>
</svg>
