<?xml version="1.0" encoding="utf-8" standalone="no"?>
<!DOCTYPE svg PUBLIC "-//W3C//DTD SVG 1.1//EN"
  "http://www.w3.org/Graphics/SVG/1.1/DTD/svg11.dtd">
<!-- Created with matplotlib (http://matplotlib.org/) -->
<svg height="514pt" version="1.1" viewBox="0 0 748 514" width="748pt" xmlns="http://www.w3.org/2000/svg" xmlns:xlink="http://www.w3.org/1999/xlink">
 <defs>
  <style type="text/css">
*{stroke-linecap:butt;stroke-linejoin:round;stroke-miterlimit:100000;}
  </style>
 </defs>
 <g id="figure_1">
  <g id="patch_1">
   <path d="M 0 514.8 
L 748.8 514.8 
L 748.8 0 
L 0 0 
z
" style="fill:#ffffff;"/>
  </g>
  <g id="axes_1">
   <g id="patch_2">
    <path d="M 93.6 215.28 
L 673.92 215.28 
L 673.92 51.48 
L 93.6 51.48 
z
" style="fill:#ffffff;"/>
   </g>
   <g id="matplotlib.axis_1">
    <g id="xtick_1">
     <g id="line2d_1">
      <defs>
       <path d="M 0 0 
L 0 6 
" id="m1ce1a78120" style="stroke:#262626;stroke-width:1.3;"/>
      </defs>
      <g>
       <use style="fill:#262626;stroke:#262626;stroke-width:1.3;" x="130.059895288" xlink:href="#m1ce1a78120" y="215.28"/>
      </g>
     </g>
    </g>
    <g id="xtick_2">
     <g id="line2d_2">
      <g>
       <use style="fill:#262626;stroke:#262626;stroke-width:1.3;" x="202.979685864" xlink:href="#m1ce1a78120" y="215.28"/>
      </g>
     </g>
    </g>
    <g id="xtick_3">
     <g id="line2d_3">
      <g>
       <use style="fill:#262626;stroke:#262626;stroke-width:1.3;" x="275.89947644" xlink:href="#m1ce1a78120" y="215.28"/>
      </g>
     </g>
    </g>
    <g id="xtick_4">
     <g id="line2d_4">
      <g>
       <use style="fill:#262626;stroke:#262626;stroke-width:1.3;" x="348.819267016" xlink:href="#m1ce1a78120" y="215.28"/>
      </g>
     </g>
    </g>
    <g id="xtick_5">
     <g id="line2d_5">
      <g>
       <use style="fill:#262626;stroke:#262626;stroke-width:1.3;" x="421.739057592" xlink:href="#m1ce1a78120" y="215.28"/>
      </g>
     </g>
    </g>
    <g id="xtick_6">
     <g id="line2d_6">
      <g>
       <use style="fill:#262626;stroke:#262626;stroke-width:1.3;" x="494.658848168" xlink:href="#m1ce1a78120" y="215.28"/>
      </g>
     </g>
    </g>
    <g id="xtick_7">
     <g id="line2d_7">
      <g>
       <use style="fill:#262626;stroke:#262626;stroke-width:1.3;" x="567.578638743" xlink:href="#m1ce1a78120" y="215.28"/>
      </g>
     </g>
    </g>
    <g id="xtick_8">
     <g id="line2d_8">
      <g>
       <use style="fill:#262626;stroke:#262626;stroke-width:1.3;" x="640.498429319" xlink:href="#m1ce1a78120" y="215.28"/>
      </g>
     </g>
    </g>
    <g id="xtick_9">
     <g id="line2d_9">
      <defs>
       <path d="M 0 0 
L 0 3 
" id="mb71b8227f5" style="stroke:#262626;stroke-width:0.65;"/>
      </defs>
      <g>
       <use style="fill:#262626;stroke:#262626;stroke-width:0.65;" x="93.6" xlink:href="#mb71b8227f5" y="215.28"/>
      </g>
     </g>
    </g>
    <g id="xtick_10">
     <g id="line2d_10">
      <g>
       <use style="fill:#262626;stroke:#262626;stroke-width:0.65;" x="130.059895288" xlink:href="#mb71b8227f5" y="215.28"/>
      </g>
     </g>
    </g>
    <g id="xtick_11">
     <g id="line2d_11">
      <g>
       <use style="fill:#262626;stroke:#262626;stroke-width:0.65;" x="166.519790576" xlink:href="#mb71b8227f5" y="215.28"/>
      </g>
     </g>
    </g>
    <g id="xtick_12">
     <g id="line2d_12">
      <g>
       <use style="fill:#262626;stroke:#262626;stroke-width:0.65;" x="202.979685864" xlink:href="#mb71b8227f5" y="215.28"/>
      </g>
     </g>
    </g>
    <g id="xtick_13">
     <g id="line2d_13">
      <g>
       <use style="fill:#262626;stroke:#262626;stroke-width:0.65;" x="239.439581152" xlink:href="#mb71b8227f5" y="215.28"/>
      </g>
     </g>
    </g>
    <g id="xtick_14">
     <g id="line2d_14">
      <g>
       <use style="fill:#262626;stroke:#262626;stroke-width:0.65;" x="275.89947644" xlink:href="#mb71b8227f5" y="215.28"/>
      </g>
     </g>
    </g>
    <g id="xtick_15">
     <g id="line2d_15">
      <g>
       <use style="fill:#262626;stroke:#262626;stroke-width:0.65;" x="312.359371728" xlink:href="#mb71b8227f5" y="215.28"/>
      </g>
     </g>
    </g>
    <g id="xtick_16">
     <g id="line2d_16">
      <g>
       <use style="fill:#262626;stroke:#262626;stroke-width:0.65;" x="348.819267016" xlink:href="#mb71b8227f5" y="215.28"/>
      </g>
     </g>
    </g>
    <g id="xtick_17">
     <g id="line2d_17">
      <g>
       <use style="fill:#262626;stroke:#262626;stroke-width:0.65;" x="385.279162304" xlink:href="#mb71b8227f5" y="215.28"/>
      </g>
     </g>
    </g>
    <g id="xtick_18">
     <g id="line2d_18">
      <g>
       <use style="fill:#262626;stroke:#262626;stroke-width:0.65;" x="421.739057592" xlink:href="#mb71b8227f5" y="215.28"/>
      </g>
     </g>
    </g>
    <g id="xtick_19">
     <g id="line2d_19">
      <g>
       <use style="fill:#262626;stroke:#262626;stroke-width:0.65;" x="458.19895288" xlink:href="#mb71b8227f5" y="215.28"/>
      </g>
     </g>
    </g>
    <g id="xtick_20">
     <g id="line2d_20">
      <g>
       <use style="fill:#262626;stroke:#262626;stroke-width:0.65;" x="494.658848168" xlink:href="#mb71b8227f5" y="215.28"/>
      </g>
     </g>
    </g>
    <g id="xtick_21">
     <g id="line2d_21">
      <g>
       <use style="fill:#262626;stroke:#262626;stroke-width:0.65;" x="531.118743455" xlink:href="#mb71b8227f5" y="215.28"/>
      </g>
     </g>
    </g>
    <g id="xtick_22">
     <g id="line2d_22">
      <g>
       <use style="fill:#262626;stroke:#262626;stroke-width:0.65;" x="567.578638743" xlink:href="#mb71b8227f5" y="215.28"/>
      </g>
     </g>
    </g>
    <g id="xtick_23">
     <g id="line2d_23">
      <g>
       <use style="fill:#262626;stroke:#262626;stroke-width:0.65;" x="604.038534031" xlink:href="#mb71b8227f5" y="215.28"/>
      </g>
     </g>
    </g>
    <g id="xtick_24">
     <g id="line2d_24">
      <g>
       <use style="fill:#262626;stroke:#262626;stroke-width:0.65;" x="640.498429319" xlink:href="#mb71b8227f5" y="215.28"/>
      </g>
     </g>
    </g>
   </g>
   <g id="matplotlib.axis_2">
    <g id="ytick_1">
     <g id="line2d_25">
      <defs>
       <path d="M 0 0 
L -6 0 
" id="m24dae0308c" style="stroke:#262626;stroke-width:1.3;"/>
      </defs>
      <g>
       <use style="fill:#262626;stroke:#262626;stroke-width:1.3;" x="93.6" xlink:href="#m24dae0308c" y="215.28"/>
      </g>
     </g>
     <g id="text_1">
      <!-- 1800 -->
      <defs>
       <path d="M 4.15625 35.296875 
Q 4.15625 48 6.765625 55.734375 
Q 9.375 63.484375 14.515625 67.671875 
Q 19.671875 71.875 27.484375 71.875 
Q 33.25 71.875 37.59375 69.546875 
Q 41.9375 67.234375 44.765625 62.859375 
Q 47.609375 58.5 49.21875 52.21875 
Q 50.828125 45.953125 50.828125 35.296875 
Q 50.828125 22.703125 48.234375 14.96875 
Q 45.65625 7.234375 40.5 3 
Q 35.359375 -1.21875 27.484375 -1.21875 
Q 17.140625 -1.21875 11.234375 6.203125 
Q 4.15625 15.140625 4.15625 35.296875 
M 13.1875 35.296875 
Q 13.1875 17.671875 17.3125 11.828125 
Q 21.4375 6 27.484375 6 
Q 33.546875 6 37.671875 11.859375 
Q 41.796875 17.71875 41.796875 35.296875 
Q 41.796875 52.984375 37.671875 58.78125 
Q 33.546875 64.59375 27.390625 64.59375 
Q 21.34375 64.59375 17.71875 59.46875 
Q 13.1875 52.9375 13.1875 35.296875 
" id="ArialMT-30"/>
       <path d="M 37.25 0 
L 28.46875 0 
L 28.46875 56 
Q 25.296875 52.984375 20.140625 49.953125 
Q 14.984375 46.921875 10.890625 45.40625 
L 10.890625 53.90625 
Q 18.265625 57.375 23.78125 62.296875 
Q 29.296875 67.234375 31.59375 71.875 
L 37.25 71.875 
z
" id="ArialMT-31"/>
       <path d="M 17.671875 38.8125 
Q 12.203125 40.828125 9.5625 44.53125 
Q 6.9375 48.25 6.9375 53.421875 
Q 6.9375 61.234375 12.546875 66.546875 
Q 18.171875 71.875 27.484375 71.875 
Q 36.859375 71.875 42.578125 66.421875 
Q 48.296875 60.984375 48.296875 53.171875 
Q 48.296875 48.1875 45.671875 44.5 
Q 43.0625 40.828125 37.75 38.8125 
Q 44.34375 36.671875 47.78125 31.875 
Q 51.21875 27.09375 51.21875 20.453125 
Q 51.21875 11.28125 44.71875 5.03125 
Q 38.234375 -1.21875 27.640625 -1.21875 
Q 17.046875 -1.21875 10.546875 5.046875 
Q 4.046875 11.328125 4.046875 20.703125 
Q 4.046875 27.6875 7.59375 32.390625 
Q 11.140625 37.109375 17.671875 38.8125 
M 15.921875 53.71875 
Q 15.921875 48.640625 19.1875 45.40625 
Q 22.46875 42.1875 27.6875 42.1875 
Q 32.765625 42.1875 36.015625 45.375 
Q 39.265625 48.578125 39.265625 53.21875 
Q 39.265625 58.0625 35.90625 61.359375 
Q 32.5625 64.65625 27.59375 64.65625 
Q 22.5625 64.65625 19.234375 61.421875 
Q 15.921875 58.203125 15.921875 53.71875 
M 13.09375 20.65625 
Q 13.09375 16.890625 14.875 13.375 
Q 16.65625 9.859375 20.171875 7.921875 
Q 23.6875 6 27.734375 6 
Q 34.03125 6 38.125 10.046875 
Q 42.234375 14.109375 42.234375 20.359375 
Q 42.234375 26.703125 38.015625 30.859375 
Q 33.796875 35.015625 27.4375 35.015625 
Q 21.234375 35.015625 17.15625 30.90625 
Q 13.09375 26.8125 13.09375 20.65625 
" id="ArialMT-38"/>
      </defs>
      <g style="fill:#262626;" transform="translate(49.583125 218.640703125)scale(0.13 -0.13)">
       <use xlink:href="#ArialMT-31"/>
       <use x="55.615234375" xlink:href="#ArialMT-38"/>
       <use x="111.23046875" xlink:href="#ArialMT-30"/>
       <use x="166.845703125" xlink:href="#ArialMT-30"/>
      </g>
     </g>
    </g>
    <g id="ytick_2">
     <g id="line2d_26">
      <g>
       <use style="fill:#262626;stroke:#262626;stroke-width:1.3;" x="93.6" xlink:href="#m24dae0308c" y="182.52"/>
      </g>
     </g>
     <g id="text_2">
      <!-- 2000 -->
      <defs>
       <path d="M 50.34375 8.453125 
L 50.34375 0 
L 3.03125 0 
Q 2.9375 3.171875 4.046875 6.109375 
Q 5.859375 10.9375 9.828125 15.625 
Q 13.8125 20.3125 21.34375 26.46875 
Q 33.015625 36.03125 37.109375 41.625 
Q 41.21875 47.21875 41.21875 52.203125 
Q 41.21875 57.421875 37.46875 61 
Q 33.734375 64.59375 27.734375 64.59375 
Q 21.390625 64.59375 17.578125 60.78125 
Q 13.765625 56.984375 13.71875 50.25 
L 4.6875 51.171875 
Q 5.609375 61.28125 11.65625 66.578125 
Q 17.71875 71.875 27.9375 71.875 
Q 38.234375 71.875 44.234375 66.15625 
Q 50.25 60.453125 50.25 52 
Q 50.25 47.703125 48.484375 43.546875 
Q 46.734375 39.40625 42.65625 34.8125 
Q 38.578125 30.21875 29.109375 22.21875 
Q 21.1875 15.578125 18.9375 13.203125 
Q 16.703125 10.84375 15.234375 8.453125 
z
" id="ArialMT-32"/>
      </defs>
      <g style="fill:#262626;" transform="translate(49.583125 185.880703125)scale(0.13 -0.13)">
       <use xlink:href="#ArialMT-32"/>
       <use x="55.615234375" xlink:href="#ArialMT-30"/>
       <use x="111.23046875" xlink:href="#ArialMT-30"/>
       <use x="166.845703125" xlink:href="#ArialMT-30"/>
      </g>
     </g>
    </g>
    <g id="ytick_3">
     <g id="line2d_27">
      <g>
       <use style="fill:#262626;stroke:#262626;stroke-width:1.3;" x="93.6" xlink:href="#m24dae0308c" y="149.76"/>
      </g>
     </g>
     <g id="text_3">
      <!-- 2200 -->
      <g style="fill:#262626;" transform="translate(49.583125 153.120703125)scale(0.13 -0.13)">
       <use xlink:href="#ArialMT-32"/>
       <use x="55.615234375" xlink:href="#ArialMT-32"/>
       <use x="111.23046875" xlink:href="#ArialMT-30"/>
       <use x="166.845703125" xlink:href="#ArialMT-30"/>
      </g>
     </g>
    </g>
    <g id="ytick_4">
     <g id="line2d_28">
      <g>
       <use style="fill:#262626;stroke:#262626;stroke-width:1.3;" x="93.6" xlink:href="#m24dae0308c" y="117.0"/>
      </g>
     </g>
     <g id="text_4">
      <!-- 2400 -->
      <defs>
       <path d="M 32.328125 0 
L 32.328125 17.140625 
L 1.265625 17.140625 
L 1.265625 25.203125 
L 33.9375 71.578125 
L 41.109375 71.578125 
L 41.109375 25.203125 
L 50.78125 25.203125 
L 50.78125 17.140625 
L 41.109375 17.140625 
L 41.109375 0 
z
M 32.328125 25.203125 
L 32.328125 57.46875 
L 9.90625 25.203125 
z
" id="ArialMT-34"/>
      </defs>
      <g style="fill:#262626;" transform="translate(49.583125 120.360703125)scale(0.13 -0.13)">
       <use xlink:href="#ArialMT-32"/>
       <use x="55.615234375" xlink:href="#ArialMT-34"/>
       <use x="111.23046875" xlink:href="#ArialMT-30"/>
       <use x="166.845703125" xlink:href="#ArialMT-30"/>
      </g>
     </g>
    </g>
    <g id="ytick_5">
     <g id="line2d_29">
      <g>
       <use style="fill:#262626;stroke:#262626;stroke-width:1.3;" x="93.6" xlink:href="#m24dae0308c" y="84.24"/>
      </g>
     </g>
     <g id="text_5">
      <!-- 2600 -->
      <defs>
       <path d="M 49.75 54.046875 
L 41.015625 53.375 
Q 39.84375 58.546875 37.703125 60.890625 
Q 34.125 64.65625 28.90625 64.65625 
Q 24.703125 64.65625 21.53125 62.3125 
Q 17.390625 59.28125 14.984375 53.46875 
Q 12.59375 47.65625 12.5 36.921875 
Q 15.671875 41.75 20.265625 44.09375 
Q 24.859375 46.4375 29.890625 46.4375 
Q 38.671875 46.4375 44.84375 39.96875 
Q 51.03125 33.5 51.03125 23.25 
Q 51.03125 16.5 48.125 10.71875 
Q 45.21875 4.9375 40.140625 1.859375 
Q 35.0625 -1.21875 28.609375 -1.21875 
Q 17.625 -1.21875 10.6875 6.859375 
Q 3.765625 14.9375 3.765625 33.5 
Q 3.765625 54.25 11.421875 63.671875 
Q 18.109375 71.875 29.4375 71.875 
Q 37.890625 71.875 43.28125 67.140625 
Q 48.6875 62.40625 49.75 54.046875 
M 13.875 23.1875 
Q 13.875 18.65625 15.796875 14.5 
Q 17.71875 10.359375 21.1875 8.171875 
Q 24.65625 6 28.46875 6 
Q 34.03125 6 38.03125 10.484375 
Q 42.046875 14.984375 42.046875 22.703125 
Q 42.046875 30.125 38.078125 34.390625 
Q 34.125 38.671875 28.125 38.671875 
Q 22.171875 38.671875 18.015625 34.390625 
Q 13.875 30.125 13.875 23.1875 
" id="ArialMT-36"/>
      </defs>
      <g style="fill:#262626;" transform="translate(49.583125 87.600703125)scale(0.13 -0.13)">
       <use xlink:href="#ArialMT-32"/>
       <use x="55.615234375" xlink:href="#ArialMT-36"/>
       <use x="111.23046875" xlink:href="#ArialMT-30"/>
       <use x="166.845703125" xlink:href="#ArialMT-30"/>
      </g>
     </g>
    </g>
    <g id="ytick_6">
     <g id="line2d_30">
      <g>
       <use style="fill:#262626;stroke:#262626;stroke-width:1.3;" x="93.6" xlink:href="#m24dae0308c" y="51.48"/>
      </g>
     </g>
     <g id="text_6">
      <!-- 2800 -->
      <g style="fill:#262626;" transform="translate(49.583125 54.840703125)scale(0.13 -0.13)">
       <use xlink:href="#ArialMT-32"/>
       <use x="55.615234375" xlink:href="#ArialMT-38"/>
       <use x="111.23046875" xlink:href="#ArialMT-30"/>
       <use x="166.845703125" xlink:href="#ArialMT-30"/>
      </g>
     </g>
    </g>
   </g>
   <g id="line2d_31">
    <path clip-path="url(#p6b78352a4c)" d="M 93.6 201.784994 
L 96.638325 194.494345 
L 99.676649 190.5462 
L 102.714974 191.62728 
L 105.753298 189.404884 
L 108.791623 186.42936 
L 111.829948 192.834116 
L 114.868272 189.013877 
L 117.906597 198.81264 
L 120.944921 193.711239 
L 123.983246 203.03868 
L 127.021571 207.533845 
L 130.059895 151.043981 
L 133.09822 150.7662 
L 136.136545 148.830039 
L 139.174869 145.23366 
L 142.213194 142.97551 
L 145.251518 137.26206 
L 148.289843 133.321877 
L 151.328168 127.113329 
L 154.366492 150.62268 
L 157.404817 188.559465 
L 160.443141 201.74466 
L 163.481466 202.567006 
L 166.519791 194.9688 
L 169.558115 191.5524 
L 172.59644 187.455135 
L 175.634764 173.33628 
L 178.673089 170.594303 
L 181.711414 151.2069 
L 184.749738 146.468148 
L 187.788063 143.926606 
L 190.826387 155.94618 
L 193.864712 148.70851 
L 196.903037 173.57106 
L 199.941361 177.236129 
L 202.979686 103.346477 
L 206.01801 104.9022 
L 209.056335 102.754684 
L 212.09466 109.97298 
L 215.132984 115.8534 
L 218.171309 100.28694 
L 221.209634 98.4906 
L 224.247958 101.158955 
L 227.286283 104.03796 
L 230.324607 98.427194 
L 233.362932 88.05108 
L 236.401257 82.961303 
L 239.439581 80.572994 
L 242.477906 75.298779 
L 245.51623 72.995923 
L 248.554555 73.07976 
L 251.59288 77.777826 
L 254.631204 77.90094 
L 257.669529 83.780303 
L 260.707853 76.034148 
L 263.746178 93.7404 
L 266.784503 97.396839 
L 269.822827 111.42534 
L 272.861152 113.977626 
L 275.899476 130.632387 
L 278.937801 129.6828 
L 281.976126 121.073865 
L 285.01445 119.59896 
L 288.052775 117.776729 
L 291.091099 112.18974 
L 294.129424 114.838897 
L 297.167749 108.746594 
L 300.206073 115.84248 
L 303.244398 108.207639 
L 306.282723 107.65794 
L 309.321047 110.014723 
L 312.359372 90.083961 
L 315.397696 85.1526 
L 318.436021 76.832013 
L 321.474346 76.95636 
L 324.51267 73.439768 
L 327.550995 67.041 
L 330.589319 72.071245 
L 333.627644 65.550948 
L 336.665969 77.64432 
L 339.704293 71.236394 
L 342.742618 79.51164 
L 345.780942 81.888677 
L 348.819267 78.105426 
L 351.857592 75.66975 
L 354.895916 71.780632 
L 357.934241 70.48626 
L 360.972565 70.184903 
L 364.01089 67.40682 
L 367.049215 74.380297 
L 370.087539 68.715987 
L 373.125864 80.84388 
L 376.164188 72.821555 
L 379.202513 85.17366 
L 382.240838 96.842032 
L 385.279162 100.52489 
L 388.317487 101.105752 
L 391.355812 98.474748 
L 394.394136 87.23754 
L 397.432461 93.708697 
L 400.470785 86.151 
L 403.50911 87.531852 
L 406.547435 97.502516 
L 409.585759 115.35108 
L 412.624084 118.342103 
L 415.662408 151.56726 
L 418.700733 151.176077 
L 421.739058 158.187774 
L 424.777382 152.4159 
L 427.815707 139.139419 
L 430.854031 137.86266 
L 433.892356 140.555497 
L 436.930681 124.917 
L 443.00733 129.485787 
L 446.045654 139.92654 
L 449.083979 141.110303 
L 452.122304 152.79576 
L 455.160628 153.347748 
L 458.198953 161.331677 
L 461.237277 153.5157 
L 464.275602 139.889729 
L 467.313927 139.59894 
L 470.352251 140.5872 
L 473.390576 124.78596 
L 476.428901 126.262626 
L 479.467225 125.105458 
L 482.50555 135.28554 
L 485.543874 135.74189 
L 488.582199 155.17632 
L 491.620524 163.218019 
L 494.658848 182.6838 
L 497.697173 161.3313 
L 500.735497 136.782813 
L 503.773822 132.16788 
L 506.812147 133.823845 
L 509.850471 114.9252 
L 512.888796 116.461045 
L 515.92712 119.87971 
L 518.965445 145.32648 
L 522.00377 145.606877 
L 525.042094 160.30326 
L 528.080419 166.261529 
L 531.118743 170.900768 
L 534.157068 163.875041 
L 537.195393 152.169445 
L 540.233717 138.5943 
L 543.272042 138.447232 
L 546.310366 121.16598 
L 549.348691 125.549303 
L 552.387016 124.212484 
L 555.42534 147.86538 
L 558.463665 139.741781 
L 561.50199 161.55906 
L 564.540314 179.772387 
L 567.578639 178.594084 
L 570.616963 169.21125 
L 576.693613 131.87304 
L 579.731937 130.970555 
L 582.770262 112.72482 
L 585.808586 114.664529 
L 588.846911 120.281284 
L 591.885236 142.25796 
L 594.92356 136.756394 
L 597.961885 161.57544 
L 601.000209 178.979806 
L 604.038534 206.054361 
L 607.076859 200.1519 
L 610.115183 181.917639 
L 613.153508 167.30298 
L 616.191832 160.607787 
L 619.230157 139.7409 
L 622.268482 142.933239 
L 625.306806 148.359774 
L 628.345131 149.1321 
L 631.383455 140.888381 
L 634.42178 168.63522 
L 637.460105 177.944168 
L 640.498429 183.402406 
L 643.536754 176.8455 
L 646.575079 147.757413 
L 649.613403 139.23312 
L 652.651728 138.875226 
L 655.690052 114.13896 
L 658.728377 117.026419 
L 661.766702 121.966839 
L 664.805026 136.53588 
L 667.843351 130.706361 
L 670.881675 143.22438 
L 673.92 157.796768 
L 673.92 157.796768 
" style="fill:none;stroke:#4c72b0;stroke-linecap:round;stroke-width:2.275;"/>
   </g>
   <g id="patch_3">
    <path d="M 93.6 215.28 
L 673.92 215.28 
" style="fill:none;stroke:#262626;stroke-linecap:square;stroke-linejoin:miter;stroke-width:1.25;"/>
   </g>
   <g id="patch_4">
    <path d="M 93.6 215.28 
L 93.6 51.48 
" style="fill:none;stroke:#262626;stroke-linecap:square;stroke-linejoin:miter;stroke-width:1.25;"/>
   </g>
   <g id="legend_1">
    <g id="line2d_32">
     <path d="M 619.32 67.935156 
L 645.32 67.935156 
" style="fill:none;stroke:#4c72b0;stroke-linecap:round;stroke-width:2.275;"/>
    </g>
    <g id="line2d_33"/>
    <g id="text_7">
     <!-- y -->
     <defs>
      <path d="M 6.203125 -19.96875 
L 5.21875 -11.71875 
Q 8.109375 -12.5 10.25 -12.5 
Q 13.1875 -12.5 14.9375 -11.515625 
Q 16.703125 -10.546875 17.828125 -8.796875 
Q 18.65625 -7.46875 20.515625 -2.25 
Q 20.75 -1.515625 21.296875 -0.09375 
L 1.609375 51.859375 
L 11.078125 51.859375 
L 21.875 21.828125 
Q 23.96875 16.109375 25.640625 9.8125 
Q 27.15625 15.875 29.25 21.625 
L 40.328125 51.859375 
L 49.125 51.859375 
L 29.390625 -0.875 
Q 26.21875 -9.421875 24.46875 -12.640625 
Q 22.125 -17 19.09375 -19.015625 
Q 16.0625 -21.046875 11.859375 -21.046875 
Q 9.328125 -21.046875 6.203125 -19.96875 
" id="ArialMT-79"/>
     </defs>
     <g style="fill:#262626;" transform="translate(655.72 72.48515625)scale(0.13 -0.13)">
      <use xlink:href="#ArialMT-79"/>
     </g>
    </g>
   </g>
  </g>
  <g id="axes_2">
   <g id="patch_5">
    <path d="M 93.6 411.84 
L 673.92 411.84 
L 673.92 248.04 
L 93.6 248.04 
z
" style="fill:#ffffff;"/>
   </g>
   <g id="matplotlib.axis_3">
    <g id="xtick_25">
     <g id="line2d_34">
      <g>
       <use style="fill:#262626;stroke:#262626;stroke-width:1.3;" x="130.059895288" xlink:href="#m1ce1a78120" y="411.84"/>
      </g>
     </g>
     <g id="text_8">
      <!-- 2001 -->
      <g style="fill:#262626;" transform="translate(103.72527194 449.456939199)rotate(-30.0)scale(0.13 -0.13)">
       <use xlink:href="#ArialMT-32"/>
       <use x="55.615234375" xlink:href="#ArialMT-30"/>
       <use x="111.23046875" xlink:href="#ArialMT-30"/>
       <use x="166.845703125" xlink:href="#ArialMT-31"/>
      </g>
     </g>
    </g>
    <g id="xtick_26">
     <g id="line2d_35">
      <g>
       <use style="fill:#262626;stroke:#262626;stroke-width:1.3;" x="202.979685864" xlink:href="#m1ce1a78120" y="411.84"/>
      </g>
     </g>
     <g id="text_9">
      <!-- 2003 -->
      <defs>
       <path d="M 4.203125 18.890625 
L 12.984375 20.0625 
Q 14.5 12.59375 18.140625 9.296875 
Q 21.78125 6 27 6 
Q 33.203125 6 37.46875 10.296875 
Q 41.75 14.59375 41.75 20.953125 
Q 41.75 27 37.796875 30.921875 
Q 33.84375 34.859375 27.734375 34.859375 
Q 25.25 34.859375 21.53125 33.890625 
L 22.515625 41.609375 
Q 23.390625 41.5 23.921875 41.5 
Q 29.546875 41.5 34.03125 44.421875 
Q 38.53125 47.359375 38.53125 53.46875 
Q 38.53125 58.296875 35.25 61.46875 
Q 31.984375 64.65625 26.8125 64.65625 
Q 21.6875 64.65625 18.265625 61.421875 
Q 14.84375 58.203125 13.875 51.765625 
L 5.078125 53.328125 
Q 6.6875 62.15625 12.390625 67.015625 
Q 18.109375 71.875 26.609375 71.875 
Q 32.46875 71.875 37.390625 69.359375 
Q 42.328125 66.84375 44.9375 62.5 
Q 47.5625 58.15625 47.5625 53.265625 
Q 47.5625 48.640625 45.0625 44.828125 
Q 42.578125 41.015625 37.703125 38.765625 
Q 44.046875 37.3125 47.5625 32.6875 
Q 51.078125 28.078125 51.078125 21.140625 
Q 51.078125 11.765625 44.234375 5.25 
Q 37.40625 -1.265625 26.953125 -1.265625 
Q 17.53125 -1.265625 11.296875 4.34375 
Q 5.078125 9.96875 4.203125 18.890625 
" id="ArialMT-33"/>
      </defs>
      <g style="fill:#262626;" transform="translate(176.645062516 449.456939199)rotate(-30.0)scale(0.13 -0.13)">
       <use xlink:href="#ArialMT-32"/>
       <use x="55.615234375" xlink:href="#ArialMT-30"/>
       <use x="111.23046875" xlink:href="#ArialMT-30"/>
       <use x="166.845703125" xlink:href="#ArialMT-33"/>
      </g>
     </g>
    </g>
    <g id="xtick_27">
     <g id="line2d_36">
      <g>
       <use style="fill:#262626;stroke:#262626;stroke-width:1.3;" x="275.89947644" xlink:href="#m1ce1a78120" y="411.84"/>
      </g>
     </g>
     <g id="text_10">
      <!-- 2005 -->
      <defs>
       <path d="M 4.15625 18.75 
L 13.375 19.53125 
Q 14.40625 12.796875 18.140625 9.390625 
Q 21.875 6 27.15625 6 
Q 33.5 6 37.890625 10.78125 
Q 42.28125 15.578125 42.28125 23.484375 
Q 42.28125 31 38.0625 35.34375 
Q 33.84375 39.703125 27 39.703125 
Q 22.75 39.703125 19.328125 37.765625 
Q 15.921875 35.84375 13.96875 32.765625 
L 5.71875 33.84375 
L 12.640625 70.609375 
L 48.25 70.609375 
L 48.25 62.203125 
L 19.671875 62.203125 
L 15.828125 42.96875 
Q 22.265625 47.46875 29.34375 47.46875 
Q 38.71875 47.46875 45.15625 40.96875 
Q 51.609375 34.46875 51.609375 24.265625 
Q 51.609375 14.546875 45.953125 7.46875 
Q 39.0625 -1.21875 27.15625 -1.21875 
Q 17.390625 -1.21875 11.203125 4.25 
Q 5.03125 9.71875 4.15625 18.75 
" id="ArialMT-35"/>
      </defs>
      <g style="fill:#262626;" transform="translate(249.564853092 449.456939199)rotate(-30.0)scale(0.13 -0.13)">
       <use xlink:href="#ArialMT-32"/>
       <use x="55.615234375" xlink:href="#ArialMT-30"/>
       <use x="111.23046875" xlink:href="#ArialMT-30"/>
       <use x="166.845703125" xlink:href="#ArialMT-35"/>
      </g>
     </g>
    </g>
    <g id="xtick_28">
     <g id="line2d_37">
      <g>
       <use style="fill:#262626;stroke:#262626;stroke-width:1.3;" x="348.819267016" xlink:href="#m1ce1a78120" y="411.84"/>
      </g>
     </g>
     <g id="text_11">
      <!-- 2007 -->
      <defs>
       <path d="M 4.734375 62.203125 
L 4.734375 70.65625 
L 51.078125 70.65625 
L 51.078125 63.8125 
Q 44.234375 56.546875 37.515625 44.484375 
Q 30.8125 32.421875 27.15625 19.671875 
Q 24.515625 10.6875 23.78125 0 
L 14.75 0 
Q 14.890625 8.453125 18.0625 20.40625 
Q 21.234375 32.375 27.171875 43.484375 
Q 33.109375 54.59375 39.796875 62.203125 
z
" id="ArialMT-37"/>
      </defs>
      <g style="fill:#262626;" transform="translate(322.484643668 449.456939199)rotate(-30.0)scale(0.13 -0.13)">
       <use xlink:href="#ArialMT-32"/>
       <use x="55.615234375" xlink:href="#ArialMT-30"/>
       <use x="111.23046875" xlink:href="#ArialMT-30"/>
       <use x="166.845703125" xlink:href="#ArialMT-37"/>
      </g>
     </g>
    </g>
    <g id="xtick_29">
     <g id="line2d_38">
      <g>
       <use style="fill:#262626;stroke:#262626;stroke-width:1.3;" x="421.739057592" xlink:href="#m1ce1a78120" y="411.84"/>
      </g>
     </g>
     <g id="text_12">
      <!-- 2009 -->
      <defs>
       <path d="M 5.46875 16.546875 
L 13.921875 17.328125 
Q 14.984375 11.375 18.015625 8.6875 
Q 21.046875 6 25.78125 6 
Q 29.828125 6 32.875 7.859375 
Q 35.9375 9.71875 37.890625 12.8125 
Q 39.84375 15.921875 41.15625 21.1875 
Q 42.484375 26.46875 42.484375 31.9375 
Q 42.484375 32.515625 42.4375 33.6875 
Q 39.796875 29.5 35.234375 26.875 
Q 30.671875 24.265625 25.34375 24.265625 
Q 16.453125 24.265625 10.296875 30.703125 
Q 4.15625 37.15625 4.15625 47.703125 
Q 4.15625 58.59375 10.578125 65.234375 
Q 17 71.875 26.65625 71.875 
Q 33.640625 71.875 39.421875 68.109375 
Q 45.21875 64.359375 48.21875 57.390625 
Q 51.21875 50.4375 51.21875 37.25 
Q 51.21875 23.53125 48.234375 15.40625 
Q 45.265625 7.28125 39.375 3.03125 
Q 33.5 -1.21875 25.59375 -1.21875 
Q 17.1875 -1.21875 11.859375 3.4375 
Q 6.546875 8.109375 5.46875 16.546875 
M 41.453125 48.140625 
Q 41.453125 55.71875 37.421875 60.15625 
Q 33.40625 64.59375 27.734375 64.59375 
Q 21.875 64.59375 17.53125 59.8125 
Q 13.1875 55.03125 13.1875 47.40625 
Q 13.1875 40.578125 17.3125 36.296875 
Q 21.4375 32.03125 27.484375 32.03125 
Q 33.59375 32.03125 37.515625 36.296875 
Q 41.453125 40.578125 41.453125 48.140625 
" id="ArialMT-39"/>
      </defs>
      <g style="fill:#262626;" transform="translate(395.404434244 449.456939199)rotate(-30.0)scale(0.13 -0.13)">
       <use xlink:href="#ArialMT-32"/>
       <use x="55.615234375" xlink:href="#ArialMT-30"/>
       <use x="111.23046875" xlink:href="#ArialMT-30"/>
       <use x="166.845703125" xlink:href="#ArialMT-39"/>
      </g>
     </g>
    </g>
    <g id="xtick_30">
     <g id="line2d_39">
      <g>
       <use style="fill:#262626;stroke:#262626;stroke-width:1.3;" x="494.658848168" xlink:href="#m1ce1a78120" y="411.84"/>
      </g>
     </g>
     <g id="text_13">
      <!-- 2011 -->
      <g style="fill:#262626;" transform="translate(468.336538618 449.449829824)rotate(-30.0)scale(0.13 -0.13)">
       <use xlink:href="#ArialMT-32"/>
       <use x="55.615234375" xlink:href="#ArialMT-30"/>
       <use x="111.23046875" xlink:href="#ArialMT-31"/>
       <use x="166.736328125" xlink:href="#ArialMT-31"/>
      </g>
     </g>
    </g>
    <g id="xtick_31">
     <g id="line2d_40">
      <g>
       <use style="fill:#262626;stroke:#262626;stroke-width:1.3;" x="567.578638743" xlink:href="#m1ce1a78120" y="411.84"/>
      </g>
     </g>
     <g id="text_14">
      <!-- 2013 -->
      <g style="fill:#262626;" transform="translate(541.244015395 449.456939199)rotate(-30.0)scale(0.13 -0.13)">
       <use xlink:href="#ArialMT-32"/>
       <use x="55.615234375" xlink:href="#ArialMT-30"/>
       <use x="111.23046875" xlink:href="#ArialMT-31"/>
       <use x="166.845703125" xlink:href="#ArialMT-33"/>
      </g>
     </g>
    </g>
    <g id="xtick_32">
     <g id="line2d_41">
      <g>
       <use style="fill:#262626;stroke:#262626;stroke-width:1.3;" x="640.498429319" xlink:href="#m1ce1a78120" y="411.84"/>
      </g>
     </g>
     <g id="text_15">
      <!-- 2015 -->
      <g style="fill:#262626;" transform="translate(614.163805971 449.456939199)rotate(-30.0)scale(0.13 -0.13)">
       <use xlink:href="#ArialMT-32"/>
       <use x="55.615234375" xlink:href="#ArialMT-30"/>
       <use x="111.23046875" xlink:href="#ArialMT-31"/>
       <use x="166.845703125" xlink:href="#ArialMT-35"/>
      </g>
     </g>
    </g>
    <g id="xtick_33">
     <g id="line2d_42">
      <g>
       <use style="fill:#262626;stroke:#262626;stroke-width:0.65;" x="93.6" xlink:href="#mb71b8227f5" y="411.84"/>
      </g>
     </g>
    </g>
    <g id="xtick_34">
     <g id="line2d_43">
      <g>
       <use style="fill:#262626;stroke:#262626;stroke-width:0.65;" x="130.059895288" xlink:href="#mb71b8227f5" y="411.84"/>
      </g>
     </g>
    </g>
    <g id="xtick_35">
     <g id="line2d_44">
      <g>
       <use style="fill:#262626;stroke:#262626;stroke-width:0.65;" x="166.519790576" xlink:href="#mb71b8227f5" y="411.84"/>
      </g>
     </g>
    </g>
    <g id="xtick_36">
     <g id="line2d_45">
      <g>
       <use style="fill:#262626;stroke:#262626;stroke-width:0.65;" x="202.979685864" xlink:href="#mb71b8227f5" y="411.84"/>
      </g>
     </g>
    </g>
    <g id="xtick_37">
     <g id="line2d_46">
      <g>
       <use style="fill:#262626;stroke:#262626;stroke-width:0.65;" x="239.439581152" xlink:href="#mb71b8227f5" y="411.84"/>
      </g>
     </g>
    </g>
    <g id="xtick_38">
     <g id="line2d_47">
      <g>
       <use style="fill:#262626;stroke:#262626;stroke-width:0.65;" x="275.89947644" xlink:href="#mb71b8227f5" y="411.84"/>
      </g>
     </g>
    </g>
    <g id="xtick_39">
     <g id="line2d_48">
      <g>
       <use style="fill:#262626;stroke:#262626;stroke-width:0.65;" x="312.359371728" xlink:href="#mb71b8227f5" y="411.84"/>
      </g>
     </g>
    </g>
    <g id="xtick_40">
     <g id="line2d_49">
      <g>
       <use style="fill:#262626;stroke:#262626;stroke-width:0.65;" x="348.819267016" xlink:href="#mb71b8227f5" y="411.84"/>
      </g>
     </g>
    </g>
    <g id="xtick_41">
     <g id="line2d_50">
      <g>
       <use style="fill:#262626;stroke:#262626;stroke-width:0.65;" x="385.279162304" xlink:href="#mb71b8227f5" y="411.84"/>
      </g>
     </g>
    </g>
    <g id="xtick_42">
     <g id="line2d_51">
      <g>
       <use style="fill:#262626;stroke:#262626;stroke-width:0.65;" x="421.739057592" xlink:href="#mb71b8227f5" y="411.84"/>
      </g>
     </g>
    </g>
    <g id="xtick_43">
     <g id="line2d_52">
      <g>
       <use style="fill:#262626;stroke:#262626;stroke-width:0.65;" x="458.19895288" xlink:href="#mb71b8227f5" y="411.84"/>
      </g>
     </g>
    </g>
    <g id="xtick_44">
     <g id="line2d_53">
      <g>
       <use style="fill:#262626;stroke:#262626;stroke-width:0.65;" x="494.658848168" xlink:href="#mb71b8227f5" y="411.84"/>
      </g>
     </g>
    </g>
    <g id="xtick_45">
     <g id="line2d_54">
      <g>
       <use style="fill:#262626;stroke:#262626;stroke-width:0.65;" x="531.118743455" xlink:href="#mb71b8227f5" y="411.84"/>
      </g>
     </g>
    </g>
    <g id="xtick_46">
     <g id="line2d_55">
      <g>
       <use style="fill:#262626;stroke:#262626;stroke-width:0.65;" x="567.578638743" xlink:href="#mb71b8227f5" y="411.84"/>
      </g>
     </g>
    </g>
    <g id="xtick_47">
     <g id="line2d_56">
      <g>
       <use style="fill:#262626;stroke:#262626;stroke-width:0.65;" x="604.038534031" xlink:href="#mb71b8227f5" y="411.84"/>
      </g>
     </g>
    </g>
    <g id="xtick_48">
     <g id="line2d_57">
      <g>
       <use style="fill:#262626;stroke:#262626;stroke-width:0.65;" x="640.498429319" xlink:href="#mb71b8227f5" y="411.84"/>
      </g>
     </g>
    </g>
   </g>
   <g id="matplotlib.axis_4">
    <g id="ytick_7">
     <g id="line2d_58">
      <g>
       <use style="fill:#262626;stroke:#262626;stroke-width:1.3;" x="93.6" xlink:href="#m24dae0308c" y="411.84"/>
      </g>
     </g>
     <g id="text_16">
      <!-- −300 -->
      <defs>
       <path d="M 52.828125 31.203125 
L 5.5625 31.203125 
L 5.5625 39.40625 
L 52.828125 39.40625 
z
" id="ArialMT-2212"/>
      </defs>
      <g style="fill:#262626;" transform="translate(49.21953125 415.200703125)scale(0.13 -0.13)">
       <use xlink:href="#ArialMT-2212"/>
       <use x="58.3984375" xlink:href="#ArialMT-33"/>
       <use x="114.013671875" xlink:href="#ArialMT-30"/>
       <use x="169.62890625" xlink:href="#ArialMT-30"/>
      </g>
     </g>
    </g>
    <g id="ytick_8">
     <g id="line2d_59">
      <g>
       <use style="fill:#262626;stroke:#262626;stroke-width:1.3;" x="93.6" xlink:href="#m24dae0308c" y="391.365"/>
      </g>
     </g>
     <g id="text_17">
      <!-- −200 -->
      <g style="fill:#262626;" transform="translate(49.21953125 394.725703125)scale(0.13 -0.13)">
       <use xlink:href="#ArialMT-2212"/>
       <use x="58.3984375" xlink:href="#ArialMT-32"/>
       <use x="114.013671875" xlink:href="#ArialMT-30"/>
       <use x="169.62890625" xlink:href="#ArialMT-30"/>
      </g>
     </g>
    </g>
    <g id="ytick_9">
     <g id="line2d_60">
      <g>
       <use style="fill:#262626;stroke:#262626;stroke-width:1.3;" x="93.6" xlink:href="#m24dae0308c" y="370.89"/>
      </g>
     </g>
     <g id="text_18">
      <!-- −100 -->
      <g style="fill:#262626;" transform="translate(49.21953125 374.250703125)scale(0.13 -0.13)">
       <use xlink:href="#ArialMT-2212"/>
       <use x="58.3984375" xlink:href="#ArialMT-31"/>
       <use x="114.013671875" xlink:href="#ArialMT-30"/>
       <use x="169.62890625" xlink:href="#ArialMT-30"/>
      </g>
     </g>
    </g>
    <g id="ytick_10">
     <g id="line2d_61">
      <g>
       <use style="fill:#262626;stroke:#262626;stroke-width:1.3;" x="93.6" xlink:href="#m24dae0308c" y="350.415"/>
      </g>
     </g>
     <g id="text_19">
      <!-- 0 -->
      <g style="fill:#262626;" transform="translate(71.27078125 353.775703125)scale(0.13 -0.13)">
       <use xlink:href="#ArialMT-30"/>
      </g>
     </g>
    </g>
    <g id="ytick_11">
     <g id="line2d_62">
      <g>
       <use style="fill:#262626;stroke:#262626;stroke-width:1.3;" x="93.6" xlink:href="#m24dae0308c" y="329.94"/>
      </g>
     </g>
     <g id="text_20">
      <!-- 100 -->
      <g style="fill:#262626;" transform="translate(56.81234375 333.300703125)scale(0.13 -0.13)">
       <use xlink:href="#ArialMT-31"/>
       <use x="55.615234375" xlink:href="#ArialMT-30"/>
       <use x="111.23046875" xlink:href="#ArialMT-30"/>
      </g>
     </g>
    </g>
    <g id="ytick_12">
     <g id="line2d_63">
      <g>
       <use style="fill:#262626;stroke:#262626;stroke-width:1.3;" x="93.6" xlink:href="#m24dae0308c" y="309.465"/>
      </g>
     </g>
     <g id="text_21">
      <!-- 200 -->
      <g style="fill:#262626;" transform="translate(56.81234375 312.825703125)scale(0.13 -0.13)">
       <use xlink:href="#ArialMT-32"/>
       <use x="55.615234375" xlink:href="#ArialMT-30"/>
       <use x="111.23046875" xlink:href="#ArialMT-30"/>
      </g>
     </g>
    </g>
    <g id="ytick_13">
     <g id="line2d_64">
      <g>
       <use style="fill:#262626;stroke:#262626;stroke-width:1.3;" x="93.6" xlink:href="#m24dae0308c" y="288.99"/>
      </g>
     </g>
     <g id="text_22">
      <!-- 300 -->
      <g style="fill:#262626;" transform="translate(56.81234375 292.350703125)scale(0.13 -0.13)">
       <use xlink:href="#ArialMT-33"/>
       <use x="55.615234375" xlink:href="#ArialMT-30"/>
       <use x="111.23046875" xlink:href="#ArialMT-30"/>
      </g>
     </g>
    </g>
    <g id="ytick_14">
     <g id="line2d_65">
      <g>
       <use style="fill:#262626;stroke:#262626;stroke-width:1.3;" x="93.6" xlink:href="#m24dae0308c" y="268.515"/>
      </g>
     </g>
     <g id="text_23">
      <!-- 400 -->
      <g style="fill:#262626;" transform="translate(56.81234375 271.875703125)scale(0.13 -0.13)">
       <use xlink:href="#ArialMT-34"/>
       <use x="55.615234375" xlink:href="#ArialMT-30"/>
       <use x="111.23046875" xlink:href="#ArialMT-30"/>
      </g>
     </g>
    </g>
    <g id="ytick_15">
     <g id="line2d_66">
      <g>
       <use style="fill:#262626;stroke:#262626;stroke-width:1.3;" x="93.6" xlink:href="#m24dae0308c" y="248.04"/>
      </g>
     </g>
     <g id="text_24">
      <!-- 500 -->
      <g style="fill:#262626;" transform="translate(56.81234375 251.400703125)scale(0.13 -0.13)">
       <use xlink:href="#ArialMT-35"/>
       <use x="55.615234375" xlink:href="#ArialMT-30"/>
       <use x="111.23046875" xlink:href="#ArialMT-30"/>
      </g>
     </g>
    </g>
   </g>
   <g id="line2d_67">
    <path clip-path="url(#p811bd43846)" d="M 96.638325 341.301689 
L 99.676649 345.479819 
L 102.714974 351.76635 
L 105.753298 347.637005 
L 108.791623 346.695595 
L 111.829948 358.420945 
L 114.868272 345.639702 
L 117.906597 362.663453 
L 120.944921 344.038248 
L 123.983246 362.074302 
L 127.021571 356.033956 
L 130.059895 279.802669 
L 133.09822 350.067774 
L 139.174869 345.919527 
L 142.213194 347.592312 
L 145.251518 343.273188 
L 148.289843 345.489772 
L 151.328168 342.654315 
L 154.366492 379.801689 
L 157.404817 397.835981 
L 160.443141 366.896494 
L 163.481466 351.442933 
L 166.519791 340.917242 
L 169.558115 346.1445 
L 172.59644 345.293419 
L 175.634764 332.766431 
L 178.673089 346.987529 
L 181.711414 326.180746 
L 184.749738 344.49156 
L 187.788063 347.238073 
L 190.826387 365.439467 
L 193.864712 341.367912 
L 196.903037 381.493188 
L 199.941361 354.996336 
L 202.979686 258.052935 
L 206.01801 352.359653 
L 209.056335 347.730605 
L 212.09466 359.43787 
L 215.132984 357.765525 
L 218.171309 330.956925 
L 221.209634 348.169575 
L 224.247958 353.750444 
L 227.286283 354.013756 
L 230.324607 343.401542 
L 233.362932 337.444858 
L 236.401257 344.052779 
L 239.439581 347.429613 
L 242.477906 343.822232 
L 245.51623 347.536429 
L 248.554555 350.519797 
L 251.59288 356.287582 
L 254.631204 350.568893 
L 257.669529 357.764204 
L 260.707853 340.732306 
L 263.746178 372.547815 
L 266.784503 354.985548 
L 269.822827 367.950627 
L 272.861152 353.605357 
L 275.899476 371.233452 
L 278.937801 349.228016 
L 281.976126 339.653831 
L 285.01445 348.571369 
L 288.052775 348.137211 
L 291.091099 343.431264 
L 294.129424 353.726446 
L 297.167749 342.799621 
L 300.206073 359.284858 
L 303.244398 340.871448 
L 306.282723 349.727877 
L 309.321047 353.360978 
L 312.359372 325.501548 
L 315.397696 344.250798 
L 318.436021 340.014266 
L 321.474346 350.570434 
L 324.51267 346.01926 
L 327.550995 342.41654 
L 330.589319 356.702806 
L 333.627644 342.264629 
L 336.665969 365.531715 
L 339.704293 342.405092 
L 342.742618 360.759058 
L 345.780942 353.386297 
L 348.819267 345.685935 
L 351.857592 347.370405 
L 354.895916 345.553603 
L 357.934241 348.797035 
L 360.972565 350.038304 
L 364.01089 346.942396 
L 367.049215 359.131846 
L 370.087539 343.334613 
L 373.125864 365.574866 
L 376.164188 340.387094 
L 379.202513 365.855131 
L 382.240838 365.000465 
L 385.279162 355.018573 
L 391.355812 347.126246 
L 394.394136 336.36849 
L 397.432461 358.503946 
L 400.470785 340.967879 
L 403.50911 352.141065 
L 406.547435 362.878331 
L 409.585759 372.725705 
L 412.624084 354.153779 
L 415.662408 391.946446 
L 418.700733 349.926022 
L 421.739058 359.179621 
L 424.777382 343.200157 
L 427.815707 333.819399 
L 430.854031 348.819051 
L 433.892356 353.781046 
L 436.930681 330.866879 
L 439.969005 353.239669 
L 443.00733 353.301315 
L 446.045654 363.465941 
L 449.083979 351.894704 
L 452.122304 365.021821 
L 455.160628 351.104985 
L 458.198953 360.394911 
L 461.237277 340.645028 
L 464.275602 333.382536 
L 467.313927 350.051514 
L 470.352251 351.650325 
L 473.390576 330.66345 
L 476.428901 352.260832 
L 479.467225 348.96854 
L 482.50555 363.140102 
L 485.543874 350.985438 
L 488.582199 374.708037 
L 491.620524 360.467124 
L 494.658848 374.747226 
L 497.697173 323.724375 
L 500.735497 319.729391 
L 503.773822 344.646334 
L 506.812147 352.484956 
L 509.850471 326.791694 
L 512.888796 352.334806 
L 515.92712 354.688331 
L 518.965445 382.223463 
L 522.00377 350.765497 
L 525.042094 368.785478 
L 528.080419 357.862836 
L 531.118743 356.214048 
L 534.157068 341.632842 
L 537.195393 335.783005 
L 540.233717 333.446069 
L 543.272042 350.231165 
L 546.310366 328.813435 
L 549.348691 355.894154 
L 552.387016 348.743976 
L 555.42534 379.98112 
L 558.463665 340.260501 
L 561.50199 377.686599 
L 564.540314 373.181659 
L 567.578639 348.942121 
L 570.616963 338.686458 
L 573.655288 327.131292 
L 576.693613 327.025945 
L 579.731937 349.286894 
L 582.770262 327.607831 
L 585.808586 352.839636 
L 588.846911 357.435944 
L 591.885236 377.885845 
L 594.92356 343.538042 
L 597.961885 381.438808 
L 601.000209 372.170458 
L 604.038534 384.258194 
L 607.076859 343.036923 
L 610.115183 327.622173 
L 613.153508 332.146677 
L 616.191832 342.046009 
L 619.230157 324.331391 
L 622.268482 354.405423 
L 625.306806 357.198169 
L 628.345131 351.380407 
L 631.383455 340.110351 
L 634.42178 385.098549 
L 637.460105 362.051185 
L 640.498429 357.237798 
L 643.536754 342.218867 
L 646.575079 314.054891 
L 649.613403 339.759634 
L 652.651728 349.967632 
L 655.690052 319.494668 
L 658.728377 354.024324 
L 661.766702 356.590524 
L 664.805026 368.626302 
L 667.843351 343.128102 
L 670.881675 366.062523 
L 673.92 368.630485 
L 673.92 368.630485 
" style="fill:none;stroke:#55a868;stroke-linecap:round;stroke-width:2.275;"/>
   </g>
   <g id="patch_6">
    <path d="M 93.6 411.84 
L 673.92 411.84 
" style="fill:none;stroke:#262626;stroke-linecap:square;stroke-linejoin:miter;stroke-width:1.25;"/>
   </g>
   <g id="patch_7">
    <path d="M 93.6 411.84 
L 93.6 248.04 
" style="fill:none;stroke:#262626;stroke-linecap:square;stroke-linejoin:miter;stroke-width:1.25;"/>
   </g>
   <g id="legend_2">
    <g id="line2d_68">
     <path d="M 610.636406 264.495156 
L 636.636406 264.495156 
" style="fill:none;stroke:#55a868;stroke-linecap:round;stroke-width:2.275;"/>
    </g>
    <g id="line2d_69"/>
    <g id="text_25">
     <!-- Δy -->
     <defs>
      <path d="M -0.09375 0 
L 27.390625 71.578125 
L 37.59375 71.578125 
L 66.890625 0 
z
M 13.03125 8.453125 
L 52.828125 8.453125 
L 37.359375 49.21875 
Q 33.890625 58.40625 32.28125 64.0625 
Q 30.953125 57.421875 28.421875 50.390625 
z
" id="ArialMT-394"/>
     </defs>
     <g style="fill:#262626;" transform="translate(647.03640625 269.04515625)scale(0.13 -0.13)">
      <use xlink:href="#ArialMT-394"/>
      <use x="66.796875" xlink:href="#ArialMT-79"/>
     </g>
    </g>
   </g>
  </g>
 </g>
 <defs>
  <clipPath id="p6b78352a4c">
   <rect height="163.8" width="580.32" x="93.6" y="51.48"/>
  </clipPath>
  <clipPath id="p811bd43846">
   <rect height="163.8" width="580.32" x="93.6" y="248.04"/>
  </clipPath>
 </defs>
</svg>
