<?xml version="1.0" encoding="utf-8" standalone="no"?>
<!DOCTYPE svg PUBLIC "-//W3C//DTD SVG 1.1//EN"
  "http://www.w3.org/Graphics/SVG/1.1/DTD/svg11.dtd">
<!-- Created with matplotlib (http://matplotlib.org/) -->
<svg height="288pt" version="1.1" viewBox="0 0 972 288" width="972pt" xmlns="http://www.w3.org/2000/svg" xmlns:xlink="http://www.w3.org/1999/xlink">
 <defs>
  <style type="text/css">
*{stroke-linecap:butt;stroke-linejoin:round;stroke-miterlimit:100000;}
  </style>
 </defs>
 <g id="figure_1">
  <g id="patch_1">
   <path d="M 0 288 
L 972.275 288 
L 972.275 0 
L 0 0 
L 0 288 
z
" style="fill:none;"/>
  </g>
  <g id="axes_1">
   <g id="patch_2">
    <path d="M 78.828546 230.929688 
L 330.18225 230.929688 
L 330.18225 26.670312 
L 78.828546 26.670312 
L 78.828546 230.929688 
z
" style="fill:none;"/>
   </g>
   <g id="matplotlib.axis_1">
    <g id="xtick_1">
     <g id="line2d_1">
      <defs>
       <path d="M 0 0 
L 0 6 
" id="mde926e7fda" style="stroke:#262626;stroke-width:1.3;"/>
      </defs>
      <g>
       <use style="fill:#262626;stroke:#262626;stroke-width:1.3;" x="96.7823820271" xlink:href="#mde926e7fda" y="230.9296875"/>
      </g>
     </g>
     <g id="text_1">
      <!-- 1 -->
      <defs>
       <path d="M 37.25 0 
L 28.46875 0 
L 28.46875 56 
Q 25.296875 52.984375 20.140625 49.953125 
Q 14.984375 46.921875 10.890625 45.40625 
L 10.890625 53.90625 
Q 18.265625 57.375 23.78125 62.296875 
Q 29.296875 67.234375 31.59375 71.875 
L 37.25 71.875 
z
" id="ArialMT-31"/>
      </defs>
      <g style="fill:#262626;" transform="translate(93.1677726521 255.33484375)scale(0.13 -0.13)">
       <use xlink:href="#ArialMT-31"/>
      </g>
     </g>
    </g>
    <g id="xtick_2">
     <g id="line2d_2">
      <g>
       <use style="fill:#262626;stroke:#262626;stroke-width:1.3;" x="132.690054067" xlink:href="#mde926e7fda" y="230.9296875"/>
      </g>
     </g>
     <g id="text_2">
      <!-- 2 -->
      <defs>
       <path d="M 50.34375 8.453125 
L 50.34375 0 
L 3.03125 0 
Q 2.9375 3.171875 4.046875 6.109375 
Q 5.859375 10.9375 9.828125 15.625 
Q 13.8125 20.3125 21.34375 26.46875 
Q 33.015625 36.03125 37.109375 41.625 
Q 41.21875 47.21875 41.21875 52.203125 
Q 41.21875 57.421875 37.46875 61 
Q 33.734375 64.59375 27.734375 64.59375 
Q 21.390625 64.59375 17.578125 60.78125 
Q 13.765625 56.984375 13.71875 50.25 
L 4.6875 51.171875 
Q 5.609375 61.28125 11.65625 66.578125 
Q 17.71875 71.875 27.9375 71.875 
Q 38.234375 71.875 44.234375 66.15625 
Q 50.25 60.453125 50.25 52 
Q 50.25 47.703125 48.484375 43.546875 
Q 46.734375 39.40625 42.65625 34.8125 
Q 38.578125 30.21875 29.109375 22.21875 
Q 21.1875 15.578125 18.9375 13.203125 
Q 16.703125 10.84375 15.234375 8.453125 
z
" id="ArialMT-32"/>
      </defs>
      <g style="fill:#262626;" transform="translate(129.075444692 255.33484375)scale(0.13 -0.13)">
       <use xlink:href="#ArialMT-32"/>
      </g>
     </g>
    </g>
    <g id="xtick_3">
     <g id="line2d_3">
      <g>
       <use style="fill:#262626;stroke:#262626;stroke-width:1.3;" x="168.597726108" xlink:href="#mde926e7fda" y="230.9296875"/>
      </g>
     </g>
     <g id="text_3">
      <!-- 5 -->
      <defs>
       <path d="M 4.15625 18.75 
L 13.375 19.53125 
Q 14.40625 12.796875 18.140625 9.390625 
Q 21.875 6 27.15625 6 
Q 33.5 6 37.890625 10.78125 
Q 42.28125 15.578125 42.28125 23.484375 
Q 42.28125 31 38.0625 35.34375 
Q 33.84375 39.703125 27 39.703125 
Q 22.75 39.703125 19.328125 37.765625 
Q 15.921875 35.84375 13.96875 32.765625 
L 5.71875 33.84375 
L 12.640625 70.609375 
L 48.25 70.609375 
L 48.25 62.203125 
L 19.671875 62.203125 
L 15.828125 42.96875 
Q 22.265625 47.46875 29.34375 47.46875 
Q 38.71875 47.46875 45.15625 40.96875 
Q 51.609375 34.46875 51.609375 24.265625 
Q 51.609375 14.546875 45.953125 7.46875 
Q 39.0625 -1.21875 27.15625 -1.21875 
Q 17.390625 -1.21875 11.203125 4.25 
Q 5.03125 9.71875 4.15625 18.75 
" id="ArialMT-35"/>
      </defs>
      <g style="fill:#262626;" transform="translate(164.983116733 255.33484375)scale(0.13 -0.13)">
       <use xlink:href="#ArialMT-35"/>
      </g>
     </g>
    </g>
    <g id="xtick_4">
     <g id="line2d_4">
      <g>
       <use style="fill:#262626;stroke:#262626;stroke-width:1.3;" x="204.505398148" xlink:href="#mde926e7fda" y="230.9296875"/>
      </g>
     </g>
     <g id="text_4">
      <!-- 10 -->
      <defs>
       <path d="M 4.15625 35.296875 
Q 4.15625 48 6.765625 55.734375 
Q 9.375 63.484375 14.515625 67.671875 
Q 19.671875 71.875 27.484375 71.875 
Q 33.25 71.875 37.59375 69.546875 
Q 41.9375 67.234375 44.765625 62.859375 
Q 47.609375 58.5 49.21875 52.21875 
Q 50.828125 45.953125 50.828125 35.296875 
Q 50.828125 22.703125 48.234375 14.96875 
Q 45.65625 7.234375 40.5 3 
Q 35.359375 -1.21875 27.484375 -1.21875 
Q 17.140625 -1.21875 11.234375 6.203125 
Q 4.15625 15.140625 4.15625 35.296875 
M 13.1875 35.296875 
Q 13.1875 17.671875 17.3125 11.828125 
Q 21.4375 6 27.484375 6 
Q 33.546875 6 37.671875 11.859375 
Q 41.796875 17.71875 41.796875 35.296875 
Q 41.796875 52.984375 37.671875 58.78125 
Q 33.546875 64.59375 27.390625 64.59375 
Q 21.34375 64.59375 17.71875 59.46875 
Q 13.1875 52.9375 13.1875 35.296875 
" id="ArialMT-30"/>
      </defs>
      <g style="fill:#262626;" transform="translate(197.276179398 255.33484375)scale(0.13 -0.13)">
       <use xlink:href="#ArialMT-31"/>
       <use x="55.615234375" xlink:href="#ArialMT-30"/>
      </g>
     </g>
    </g>
    <g id="xtick_5">
     <g id="line2d_5">
      <g>
       <use style="fill:#262626;stroke:#262626;stroke-width:1.3;" x="240.413070188" xlink:href="#mde926e7fda" y="230.9296875"/>
      </g>
     </g>
     <g id="text_5">
      <!-- 20 -->
      <g style="fill:#262626;" transform="translate(233.183851438 255.33484375)scale(0.13 -0.13)">
       <use xlink:href="#ArialMT-32"/>
       <use x="55.615234375" xlink:href="#ArialMT-30"/>
      </g>
     </g>
    </g>
    <g id="xtick_6">
     <g id="line2d_6">
      <g>
       <use style="fill:#262626;stroke:#262626;stroke-width:1.3;" x="276.320742229" xlink:href="#mde926e7fda" y="230.9296875"/>
      </g>
     </g>
     <g id="text_6">
      <!-- 30 -->
      <defs>
       <path d="M 4.203125 18.890625 
L 12.984375 20.0625 
Q 14.5 12.59375 18.140625 9.296875 
Q 21.78125 6 27 6 
Q 33.203125 6 37.46875 10.296875 
Q 41.75 14.59375 41.75 20.953125 
Q 41.75 27 37.796875 30.921875 
Q 33.84375 34.859375 27.734375 34.859375 
Q 25.25 34.859375 21.53125 33.890625 
L 22.515625 41.609375 
Q 23.390625 41.5 23.921875 41.5 
Q 29.546875 41.5 34.03125 44.421875 
Q 38.53125 47.359375 38.53125 53.46875 
Q 38.53125 58.296875 35.25 61.46875 
Q 31.984375 64.65625 26.8125 64.65625 
Q 21.6875 64.65625 18.265625 61.421875 
Q 14.84375 58.203125 13.875 51.765625 
L 5.078125 53.328125 
Q 6.6875 62.15625 12.390625 67.015625 
Q 18.109375 71.875 26.609375 71.875 
Q 32.46875 71.875 37.390625 69.359375 
Q 42.328125 66.84375 44.9375 62.5 
Q 47.5625 58.15625 47.5625 53.265625 
Q 47.5625 48.640625 45.0625 44.828125 
Q 42.578125 41.015625 37.703125 38.765625 
Q 44.046875 37.3125 47.5625 32.6875 
Q 51.078125 28.078125 51.078125 21.140625 
Q 51.078125 11.765625 44.234375 5.25 
Q 37.40625 -1.265625 26.953125 -1.265625 
Q 17.53125 -1.265625 11.296875 4.34375 
Q 5.078125 9.96875 4.203125 18.890625 
" id="ArialMT-33"/>
      </defs>
      <g style="fill:#262626;" transform="translate(269.091523479 255.33484375)scale(0.13 -0.13)">
       <use xlink:href="#ArialMT-33"/>
       <use x="55.615234375" xlink:href="#ArialMT-30"/>
      </g>
     </g>
    </g>
    <g id="xtick_7">
     <g id="line2d_7">
      <g>
       <use style="fill:#262626;stroke:#262626;stroke-width:1.3;" x="312.228414269" xlink:href="#mde926e7fda" y="230.9296875"/>
      </g>
     </g>
     <g id="text_7">
      <!-- 40 -->
      <defs>
       <path d="M 32.328125 0 
L 32.328125 17.140625 
L 1.265625 17.140625 
L 1.265625 25.203125 
L 33.9375 71.578125 
L 41.109375 71.578125 
L 41.109375 25.203125 
L 50.78125 25.203125 
L 50.78125 17.140625 
L 41.109375 17.140625 
L 41.109375 0 
z
M 32.328125 25.203125 
L 32.328125 57.46875 
L 9.90625 25.203125 
z
" id="ArialMT-34"/>
      </defs>
      <g style="fill:#262626;" transform="translate(304.999195519 255.33484375)scale(0.13 -0.13)">
       <use xlink:href="#ArialMT-34"/>
       <use x="55.615234375" xlink:href="#ArialMT-30"/>
      </g>
     </g>
    </g>
    <g id="text_8">
     <!-- max_depth -->
     <defs>
      <path d="M 25.78125 7.859375 
L 27.046875 0.09375 
Q 23.34375 -0.6875 20.40625 -0.6875 
Q 15.625 -0.6875 12.984375 0.828125 
Q 10.359375 2.34375 9.28125 4.8125 
Q 8.203125 7.28125 8.203125 15.1875 
L 8.203125 45.015625 
L 1.765625 45.015625 
L 1.765625 51.859375 
L 8.203125 51.859375 
L 8.203125 64.703125 
L 16.9375 69.96875 
L 16.9375 51.859375 
L 25.78125 51.859375 
L 25.78125 45.015625 
L 16.9375 45.015625 
L 16.9375 14.703125 
Q 16.9375 10.9375 17.40625 9.859375 
Q 17.875 8.796875 18.921875 8.15625 
Q 19.96875 7.515625 21.921875 7.515625 
Q 23.390625 7.515625 25.78125 7.859375 
" id="ArialMT-74"/>
      <path d="M 42.09375 16.703125 
L 51.171875 15.578125 
Q 49.03125 7.625 43.21875 3.21875 
Q 37.40625 -1.171875 28.375 -1.171875 
Q 17 -1.171875 10.328125 5.828125 
Q 3.65625 12.84375 3.65625 25.484375 
Q 3.65625 38.578125 10.390625 45.796875 
Q 17.140625 53.03125 27.875 53.03125 
Q 38.28125 53.03125 44.875 45.953125 
Q 51.46875 38.875 51.46875 26.03125 
Q 51.46875 25.25 51.421875 23.6875 
L 12.75 23.6875 
Q 13.234375 15.140625 17.578125 10.59375 
Q 21.921875 6.0625 28.421875 6.0625 
Q 33.25 6.0625 36.671875 8.59375 
Q 40.09375 11.140625 42.09375 16.703125 
M 13.234375 30.90625 
L 42.1875 30.90625 
Q 41.609375 37.453125 38.875 40.71875 
Q 34.671875 45.796875 27.984375 45.796875 
Q 21.921875 45.796875 17.796875 41.75 
Q 13.671875 37.703125 13.234375 30.90625 
" id="ArialMT-65"/>
      <path d="M 40.4375 6.390625 
Q 35.546875 2.25 31.03125 0.53125 
Q 26.515625 -1.171875 21.34375 -1.171875 
Q 12.796875 -1.171875 8.203125 3 
Q 3.609375 7.171875 3.609375 13.671875 
Q 3.609375 17.484375 5.34375 20.625 
Q 7.078125 23.78125 9.890625 25.6875 
Q 12.703125 27.59375 16.21875 28.5625 
Q 18.796875 29.25 24.03125 29.890625 
Q 34.671875 31.15625 39.703125 32.90625 
Q 39.75 34.71875 39.75 35.203125 
Q 39.75 40.578125 37.25 42.78125 
Q 33.890625 45.75 27.25 45.75 
Q 21.046875 45.75 18.09375 43.578125 
Q 15.140625 41.40625 13.71875 35.890625 
L 5.125 37.0625 
Q 6.296875 42.578125 8.984375 45.96875 
Q 11.671875 49.359375 16.75 51.1875 
Q 21.828125 53.03125 28.515625 53.03125 
Q 35.15625 53.03125 39.296875 51.46875 
Q 43.453125 49.90625 45.40625 47.53125 
Q 47.359375 45.171875 48.140625 41.546875 
Q 48.578125 39.3125 48.578125 33.453125 
L 48.578125 21.734375 
Q 48.578125 9.46875 49.140625 6.21875 
Q 49.703125 2.984375 51.375 0 
L 42.1875 0 
Q 40.828125 2.734375 40.4375 6.390625 
M 39.703125 26.03125 
Q 34.90625 24.078125 25.34375 22.703125 
Q 19.921875 21.921875 17.671875 20.9375 
Q 15.4375 19.96875 14.203125 18.09375 
Q 12.984375 16.21875 12.984375 13.921875 
Q 12.984375 10.40625 15.640625 8.0625 
Q 18.3125 5.71875 23.4375 5.71875 
Q 28.515625 5.71875 32.46875 7.9375 
Q 36.421875 10.15625 38.28125 14.015625 
Q 39.703125 17 39.703125 22.796875 
z
" id="ArialMT-61"/>
      <path d="M 0.734375 0 
L 19.671875 26.953125 
L 2.15625 51.859375 
L 13.140625 51.859375 
L 21.09375 39.703125 
Q 23.34375 36.234375 24.703125 33.890625 
Q 26.859375 37.109375 28.65625 39.59375 
L 37.40625 51.859375 
L 47.90625 51.859375 
L 29.984375 27.4375 
L 49.265625 0 
L 38.484375 0 
L 27.828125 16.109375 
L 25 20.453125 
L 11.375 0 
z
" id="ArialMT-78"/>
      <path d="M -1.515625 -19.875 
L -1.515625 -13.53125 
L 56.734375 -13.53125 
L 56.734375 -19.875 
z
" id="ArialMT-5f"/>
      <path d="M 6.59375 0 
L 6.59375 71.578125 
L 15.375 71.578125 
L 15.375 45.90625 
Q 21.53125 53.03125 30.90625 53.03125 
Q 36.671875 53.03125 40.921875 50.75 
Q 45.171875 48.484375 47 44.484375 
Q 48.828125 40.484375 48.828125 32.859375 
L 48.828125 0 
L 40.046875 0 
L 40.046875 32.859375 
Q 40.046875 39.453125 37.1875 42.453125 
Q 34.328125 45.453125 29.109375 45.453125 
Q 25.203125 45.453125 21.75 43.421875 
Q 18.3125 41.40625 16.84375 37.9375 
Q 15.375 34.46875 15.375 28.375 
L 15.375 0 
z
" id="ArialMT-68"/>
      <path d="M 6.59375 -19.875 
L 6.59375 51.859375 
L 14.59375 51.859375 
L 14.59375 45.125 
Q 17.4375 49.078125 21 51.046875 
Q 24.5625 53.03125 29.640625 53.03125 
Q 36.28125 53.03125 41.359375 49.609375 
Q 46.4375 46.1875 49.015625 39.953125 
Q 51.609375 33.734375 51.609375 26.3125 
Q 51.609375 18.359375 48.75 11.984375 
Q 45.90625 5.609375 40.453125 2.21875 
Q 35.015625 -1.171875 29 -1.171875 
Q 24.609375 -1.171875 21.109375 0.6875 
Q 17.625 2.546875 15.375 5.375 
L 15.375 -19.875 
z
M 14.546875 25.640625 
Q 14.546875 15.625 18.59375 10.84375 
Q 22.65625 6.0625 28.421875 6.0625 
Q 34.28125 6.0625 38.453125 11.015625 
Q 42.625 15.96875 42.625 26.375 
Q 42.625 36.28125 38.546875 41.203125 
Q 34.46875 46.140625 28.8125 46.140625 
Q 23.1875 46.140625 18.859375 40.890625 
Q 14.546875 35.640625 14.546875 25.640625 
" id="ArialMT-70"/>
      <path d="M 40.234375 0 
L 40.234375 6.546875 
Q 35.296875 -1.171875 25.734375 -1.171875 
Q 19.53125 -1.171875 14.328125 2.25 
Q 9.125 5.671875 6.265625 11.796875 
Q 3.421875 17.921875 3.421875 25.875 
Q 3.421875 33.640625 6 39.96875 
Q 8.59375 46.296875 13.765625 49.65625 
Q 18.953125 53.03125 25.34375 53.03125 
Q 30.03125 53.03125 33.6875 51.046875 
Q 37.359375 49.078125 39.65625 45.90625 
L 39.65625 71.578125 
L 48.390625 71.578125 
L 48.390625 0 
z
M 12.453125 25.875 
Q 12.453125 15.921875 16.640625 10.984375 
Q 20.84375 6.0625 26.5625 6.0625 
Q 32.328125 6.0625 36.34375 10.765625 
Q 40.375 15.484375 40.375 25.140625 
Q 40.375 35.796875 36.265625 40.765625 
Q 32.171875 45.75 26.171875 45.75 
Q 20.3125 45.75 16.375 40.96875 
Q 12.453125 36.1875 12.453125 25.875 
" id="ArialMT-64"/>
      <path d="M 6.59375 0 
L 6.59375 51.859375 
L 14.453125 51.859375 
L 14.453125 44.578125 
Q 16.890625 48.390625 20.9375 50.703125 
Q 25 53.03125 30.171875 53.03125 
Q 35.9375 53.03125 39.625 50.640625 
Q 43.3125 48.25 44.828125 43.953125 
Q 50.984375 53.03125 60.84375 53.03125 
Q 68.5625 53.03125 72.703125 48.75 
Q 76.859375 44.484375 76.859375 35.59375 
L 76.859375 0 
L 68.109375 0 
L 68.109375 32.671875 
Q 68.109375 37.9375 67.25 40.25 
Q 66.40625 42.578125 64.15625 43.984375 
Q 61.921875 45.40625 58.890625 45.40625 
Q 53.421875 45.40625 49.796875 41.765625 
Q 46.1875 38.140625 46.1875 30.125 
L 46.1875 0 
L 37.40625 0 
L 37.40625 33.6875 
Q 37.40625 39.546875 35.25 42.46875 
Q 33.109375 45.40625 28.21875 45.40625 
Q 24.515625 45.40625 21.359375 43.453125 
Q 18.21875 41.5 16.796875 37.734375 
Q 15.375 33.984375 15.375 26.90625 
L 15.375 0 
z
" id="ArialMT-6d"/>
     </defs>
     <g style="fill:#262626;" transform="translate(169.131890336 273.154265625)scale(0.14300000000000002 -0.14300000000000002)">
      <use xlink:href="#ArialMT-6d"/>
      <use x="83.30078125" xlink:href="#ArialMT-61"/>
      <use x="138.916015625" xlink:href="#ArialMT-78"/>
      <use x="188.916015625" xlink:href="#ArialMT-5f"/>
      <use x="244.53125" xlink:href="#ArialMT-64"/>
      <use x="300.146484375" xlink:href="#ArialMT-65"/>
      <use x="355.76171875" xlink:href="#ArialMT-70"/>
      <use x="411.376953125" xlink:href="#ArialMT-74"/>
      <use x="439.16015625" xlink:href="#ArialMT-68"/>
     </g>
    </g>
   </g>
   <g id="matplotlib.axis_2">
    <g id="ytick_1">
     <g id="line2d_8">
      <defs>
       <path d="M 0 0 
L -6 0 
" id="mdf9e9def13" style="stroke:#262626;stroke-width:1.3;"/>
      </defs>
      <g>
       <use style="fill:#262626;stroke:#262626;stroke-width:1.3;" x="78.8285460069" xlink:href="#mdf9e9def13" y="230.9296875"/>
      </g>
     </g>
     <g id="text_9">
      <!-- 0.72 -->
      <defs>
       <path d="M 4.734375 62.203125 
L 4.734375 70.65625 
L 51.078125 70.65625 
L 51.078125 63.8125 
Q 44.234375 56.546875 37.515625 44.484375 
Q 30.8125 32.421875 27.15625 19.671875 
Q 24.515625 10.6875 23.78125 0 
L 14.75 0 
Q 14.890625 8.453125 18.0625 20.40625 
Q 21.234375 32.375 27.171875 43.484375 
Q 33.109375 54.59375 39.796875 62.203125 
z
" id="ArialMT-37"/>
       <path d="M 9.078125 0 
L 9.078125 10.015625 
L 19.09375 10.015625 
L 19.09375 0 
z
" id="ArialMT-2e"/>
      </defs>
      <g style="fill:#262626;" transform="translate(38.4293272569 234.290390625)scale(0.13 -0.13)">
       <use xlink:href="#ArialMT-30"/>
       <use x="55.615234375" xlink:href="#ArialMT-2e"/>
       <use x="83.3984375" xlink:href="#ArialMT-37"/>
       <use x="139.013671875" xlink:href="#ArialMT-32"/>
      </g>
     </g>
    </g>
    <g id="ytick_2">
     <g id="line2d_9">
      <g>
       <use style="fill:#262626;stroke:#262626;stroke-width:1.3;" x="78.8285460069" xlink:href="#mdf9e9def13" y="196.886458333"/>
      </g>
     </g>
     <g id="text_10">
      <!-- 0.74 -->
      <g style="fill:#262626;" transform="translate(38.4293272569 200.247161458)scale(0.13 -0.13)">
       <use xlink:href="#ArialMT-30"/>
       <use x="55.615234375" xlink:href="#ArialMT-2e"/>
       <use x="83.3984375" xlink:href="#ArialMT-37"/>
       <use x="139.013671875" xlink:href="#ArialMT-34"/>
      </g>
     </g>
    </g>
    <g id="ytick_3">
     <g id="line2d_10">
      <g>
       <use style="fill:#262626;stroke:#262626;stroke-width:1.3;" x="78.8285460069" xlink:href="#mdf9e9def13" y="162.843229167"/>
      </g>
     </g>
     <g id="text_11">
      <!-- 0.76 -->
      <defs>
       <path d="M 49.75 54.046875 
L 41.015625 53.375 
Q 39.84375 58.546875 37.703125 60.890625 
Q 34.125 64.65625 28.90625 64.65625 
Q 24.703125 64.65625 21.53125 62.3125 
Q 17.390625 59.28125 14.984375 53.46875 
Q 12.59375 47.65625 12.5 36.921875 
Q 15.671875 41.75 20.265625 44.09375 
Q 24.859375 46.4375 29.890625 46.4375 
Q 38.671875 46.4375 44.84375 39.96875 
Q 51.03125 33.5 51.03125 23.25 
Q 51.03125 16.5 48.125 10.71875 
Q 45.21875 4.9375 40.140625 1.859375 
Q 35.0625 -1.21875 28.609375 -1.21875 
Q 17.625 -1.21875 10.6875 6.859375 
Q 3.765625 14.9375 3.765625 33.5 
Q 3.765625 54.25 11.421875 63.671875 
Q 18.109375 71.875 29.4375 71.875 
Q 37.890625 71.875 43.28125 67.140625 
Q 48.6875 62.40625 49.75 54.046875 
M 13.875 23.1875 
Q 13.875 18.65625 15.796875 14.5 
Q 17.71875 10.359375 21.1875 8.171875 
Q 24.65625 6 28.46875 6 
Q 34.03125 6 38.03125 10.484375 
Q 42.046875 14.984375 42.046875 22.703125 
Q 42.046875 30.125 38.078125 34.390625 
Q 34.125 38.671875 28.125 38.671875 
Q 22.171875 38.671875 18.015625 34.390625 
Q 13.875 30.125 13.875 23.1875 
" id="ArialMT-36"/>
      </defs>
      <g style="fill:#262626;" transform="translate(38.4293272569 166.203932292)scale(0.13 -0.13)">
       <use xlink:href="#ArialMT-30"/>
       <use x="55.615234375" xlink:href="#ArialMT-2e"/>
       <use x="83.3984375" xlink:href="#ArialMT-37"/>
       <use x="139.013671875" xlink:href="#ArialMT-36"/>
      </g>
     </g>
    </g>
    <g id="ytick_4">
     <g id="line2d_11">
      <g>
       <use style="fill:#262626;stroke:#262626;stroke-width:1.3;" x="78.8285460069" xlink:href="#mdf9e9def13" y="128.8"/>
      </g>
     </g>
     <g id="text_12">
      <!-- 0.78 -->
      <defs>
       <path d="M 17.671875 38.8125 
Q 12.203125 40.828125 9.5625 44.53125 
Q 6.9375 48.25 6.9375 53.421875 
Q 6.9375 61.234375 12.546875 66.546875 
Q 18.171875 71.875 27.484375 71.875 
Q 36.859375 71.875 42.578125 66.421875 
Q 48.296875 60.984375 48.296875 53.171875 
Q 48.296875 48.1875 45.671875 44.5 
Q 43.0625 40.828125 37.75 38.8125 
Q 44.34375 36.671875 47.78125 31.875 
Q 51.21875 27.09375 51.21875 20.453125 
Q 51.21875 11.28125 44.71875 5.03125 
Q 38.234375 -1.21875 27.640625 -1.21875 
Q 17.046875 -1.21875 10.546875 5.046875 
Q 4.046875 11.328125 4.046875 20.703125 
Q 4.046875 27.6875 7.59375 32.390625 
Q 11.140625 37.109375 17.671875 38.8125 
M 15.921875 53.71875 
Q 15.921875 48.640625 19.1875 45.40625 
Q 22.46875 42.1875 27.6875 42.1875 
Q 32.765625 42.1875 36.015625 45.375 
Q 39.265625 48.578125 39.265625 53.21875 
Q 39.265625 58.0625 35.90625 61.359375 
Q 32.5625 64.65625 27.59375 64.65625 
Q 22.5625 64.65625 19.234375 61.421875 
Q 15.921875 58.203125 15.921875 53.71875 
M 13.09375 20.65625 
Q 13.09375 16.890625 14.875 13.375 
Q 16.65625 9.859375 20.171875 7.921875 
Q 23.6875 6 27.734375 6 
Q 34.03125 6 38.125 10.046875 
Q 42.234375 14.109375 42.234375 20.359375 
Q 42.234375 26.703125 38.015625 30.859375 
Q 33.796875 35.015625 27.4375 35.015625 
Q 21.234375 35.015625 17.15625 30.90625 
Q 13.09375 26.8125 13.09375 20.65625 
" id="ArialMT-38"/>
      </defs>
      <g style="fill:#262626;" transform="translate(38.4293272569 132.160703125)scale(0.13 -0.13)">
       <use xlink:href="#ArialMT-30"/>
       <use x="55.615234375" xlink:href="#ArialMT-2e"/>
       <use x="83.3984375" xlink:href="#ArialMT-37"/>
       <use x="139.013671875" xlink:href="#ArialMT-38"/>
      </g>
     </g>
    </g>
    <g id="ytick_5">
     <g id="line2d_12">
      <g>
       <use style="fill:#262626;stroke:#262626;stroke-width:1.3;" x="78.8285460069" xlink:href="#mdf9e9def13" y="94.7567708333"/>
      </g>
     </g>
     <g id="text_13">
      <!-- 0.80 -->
      <g style="fill:#262626;" transform="translate(38.4293272569 98.1174739583)scale(0.13 -0.13)">
       <use xlink:href="#ArialMT-30"/>
       <use x="55.615234375" xlink:href="#ArialMT-2e"/>
       <use x="83.3984375" xlink:href="#ArialMT-38"/>
       <use x="139.013671875" xlink:href="#ArialMT-30"/>
      </g>
     </g>
    </g>
    <g id="ytick_6">
     <g id="line2d_13">
      <g>
       <use style="fill:#262626;stroke:#262626;stroke-width:1.3;" x="78.8285460069" xlink:href="#mdf9e9def13" y="60.7135416667"/>
      </g>
     </g>
     <g id="text_14">
      <!-- 0.82 -->
      <g style="fill:#262626;" transform="translate(38.4293272569 64.0742447917)scale(0.13 -0.13)">
       <use xlink:href="#ArialMT-30"/>
       <use x="55.615234375" xlink:href="#ArialMT-2e"/>
       <use x="83.3984375" xlink:href="#ArialMT-38"/>
       <use x="139.013671875" xlink:href="#ArialMT-32"/>
      </g>
     </g>
    </g>
    <g id="ytick_7">
     <g id="line2d_14">
      <g>
       <use style="fill:#262626;stroke:#262626;stroke-width:1.3;" x="78.8285460069" xlink:href="#mdf9e9def13" y="26.6703125"/>
      </g>
     </g>
     <g id="text_15">
      <!-- 0.84 -->
      <g style="fill:#262626;" transform="translate(38.4293272569 30.031015625)scale(0.13 -0.13)">
       <use xlink:href="#ArialMT-30"/>
       <use x="55.615234375" xlink:href="#ArialMT-2e"/>
       <use x="83.3984375" xlink:href="#ArialMT-38"/>
       <use x="139.013671875" xlink:href="#ArialMT-34"/>
      </g>
     </g>
    </g>
    <g id="text_16">
     <!-- mean_ -->
     <defs>
      <path d="M 6.59375 0 
L 6.59375 51.859375 
L 14.5 51.859375 
L 14.5 44.484375 
Q 20.21875 53.03125 31 53.03125 
Q 35.6875 53.03125 39.625 51.34375 
Q 43.5625 49.65625 45.515625 46.921875 
Q 47.46875 44.1875 48.25 40.4375 
Q 48.734375 37.984375 48.734375 31.890625 
L 48.734375 0 
L 39.9375 0 
L 39.9375 31.546875 
Q 39.9375 36.921875 38.90625 39.578125 
Q 37.890625 42.234375 35.28125 43.8125 
Q 32.671875 45.40625 29.15625 45.40625 
Q 23.53125 45.40625 19.453125 41.84375 
Q 15.375 38.28125 15.375 28.328125 
L 15.375 0 
z
" id="ArialMT-6e"/>
     </defs>
     <g style="fill:#262626;" transform="translate(30.5872022569 150.660007812)rotate(-90.0)scale(0.14300000000000002 -0.14300000000000002)">
      <use xlink:href="#ArialMT-6d"/>
      <use x="83.30078125" xlink:href="#ArialMT-65"/>
      <use x="138.916015625" xlink:href="#ArialMT-61"/>
      <use x="194.53125" xlink:href="#ArialMT-6e"/>
      <use x="250.146484375" xlink:href="#ArialMT-5f"/>
     </g>
    </g>
   </g>
   <g id="PathCollection_1">
    <defs>
     <path d="M 0 5.132321 
C 1.361108 5.132321 2.666651 4.591548 3.629099 3.629099 
C 4.591548 2.666651 5.132321 1.361108 5.132321 0 
C 5.132321 -1.361108 4.591548 -2.666651 3.629099 -3.629099 
C 2.666651 -4.591548 1.361108 -5.132321 0 -5.132321 
C -1.361108 -5.132321 -2.666651 -4.591548 -3.629099 -3.629099 
C -4.591548 -2.666651 -5.132321 -1.361108 -5.132321 0 
C -5.132321 1.361108 -4.591548 2.666651 -3.629099 3.629099 
C -2.666651 4.591548 -1.361108 5.132321 0 5.132321 
z
" id="C0_0_f1094ab1d5"/>
    </defs>
    <g clip-path="url(#p4eefe6b936)">
     <use style="fill:#4c72b0;stroke:#4c72b0;stroke-width:3.07125;" x="96.7823820271" xlink:href="#C0_0_f1094ab1d5" y="98.1954808502"/>
    </g>
    <g clip-path="url(#p4eefe6b936)">
     <use style="fill:#4c72b0;stroke:#4c72b0;stroke-width:3.07125;" x="132.690054067" xlink:href="#C0_0_f1094ab1d5" y="119.209819842"/>
    </g>
    <g clip-path="url(#p4eefe6b936)">
     <use style="fill:#4c72b0;stroke:#4c72b0;stroke-width:3.07125;" x="168.597726108" xlink:href="#C0_0_f1094ab1d5" y="61.897986228"/>
    </g>
    <g clip-path="url(#p4eefe6b936)">
     <use style="fill:#4c72b0;stroke:#4c72b0;stroke-width:3.07125;" x="204.505398148" xlink:href="#C0_0_f1094ab1d5" y="59.9875917742"/>
    </g>
    <g clip-path="url(#p4eefe6b936)">
     <use style="fill:#4c72b0;stroke:#4c72b0;stroke-width:3.07125;" x="240.413070188" xlink:href="#C0_0_f1094ab1d5" y="82.9123252198"/>
    </g>
    <g clip-path="url(#p4eefe6b936)">
     <use style="fill:#4c72b0;stroke:#4c72b0;stroke-width:3.07125;" x="276.320742229" xlink:href="#C0_0_f1094ab1d5" y="88.6435085812"/>
    </g>
    <g clip-path="url(#p4eefe6b936)">
     <use style="fill:#4c72b0;stroke:#4c72b0;stroke-width:3.07125;" x="312.228414269" xlink:href="#C0_0_f1094ab1d5" y="65.7187751356"/>
    </g>
   </g>
   <g id="line2d_15">
    <path clip-path="url(#p4eefe6b936)" d="M 96.782382 98.195481 
L 132.690054 119.20982 
L 168.597726 61.897986 
L 204.505398 59.987592 
L 240.41307 82.912325 
L 276.320742 88.643509 
L 312.228414 65.718775 
" style="fill:none;stroke:#4c72b0;stroke-linecap:round;stroke-width:4.095;"/>
   </g>
   <g id="line2d_16">
    <path clip-path="url(#p4eefe6b936)" style="fill:none;stroke:#4c72b0;stroke-linecap:round;stroke-width:4.095;"/>
   </g>
   <g id="line2d_17">
    <path clip-path="url(#p4eefe6b936)" style="fill:none;stroke:#4c72b0;stroke-linecap:round;stroke-width:4.095;"/>
   </g>
   <g id="line2d_18">
    <path clip-path="url(#p4eefe6b936)" style="fill:none;stroke:#4c72b0;stroke-linecap:round;stroke-width:4.095;"/>
   </g>
   <g id="line2d_19">
    <path clip-path="url(#p4eefe6b936)" style="fill:none;stroke:#4c72b0;stroke-linecap:round;stroke-width:4.095;"/>
   </g>
   <g id="line2d_20">
    <path clip-path="url(#p4eefe6b936)" style="fill:none;stroke:#4c72b0;stroke-linecap:round;stroke-width:4.095;"/>
   </g>
   <g id="line2d_21">
    <path clip-path="url(#p4eefe6b936)" style="fill:none;stroke:#4c72b0;stroke-linecap:round;stroke-width:4.095;"/>
   </g>
   <g id="line2d_22">
    <path clip-path="url(#p4eefe6b936)" style="fill:none;stroke:#4c72b0;stroke-linecap:round;stroke-width:4.095;"/>
   </g>
   <g id="PathCollection_2">
    <defs>
     <path d="M 0 5.132321 
C 1.361108 5.132321 2.666651 4.591548 3.629099 3.629099 
C 4.591548 2.666651 5.132321 1.361108 5.132321 0 
C 5.132321 -1.361108 4.591548 -2.666651 3.629099 -3.629099 
C 2.666651 -4.591548 1.361108 -5.132321 0 -5.132321 
C -1.361108 -5.132321 -2.666651 -4.591548 -3.629099 -3.629099 
C -4.591548 -2.666651 -5.132321 -1.361108 -5.132321 0 
C -5.132321 1.361108 -4.591548 2.666651 -3.629099 3.629099 
C -2.666651 4.591548 -1.361108 5.132321 0 5.132321 
z
" id="C1_0_3c4e7cd800"/>
    </defs>
    <g clip-path="url(#p4eefe6b936)">
     <use style="fill:#55a868;stroke:#55a868;stroke-width:3.07125;" x="96.7823820271" xlink:href="#C1_0_3c4e7cd800" y="186.073625725"/>
    </g>
    <g clip-path="url(#p4eefe6b936)">
     <use style="fill:#55a868;stroke:#55a868;stroke-width:3.07125;" x="132.690054067" xlink:href="#C1_0_3c4e7cd800" y="94.3746919426"/>
    </g>
    <g clip-path="url(#p4eefe6b936)">
     <use style="fill:#55a868;stroke:#55a868;stroke-width:3.07125;" x="168.597726108" xlink:href="#C1_0_3c4e7cd800" y="75.2707474046"/>
    </g>
    <g clip-path="url(#p4eefe6b936)">
     <use style="fill:#55a868;stroke:#55a868;stroke-width:3.07125;" x="204.505398148" xlink:href="#C1_0_3c4e7cd800" y="54.2564084128"/>
    </g>
    <g clip-path="url(#p4eefe6b936)">
     <use style="fill:#55a868;stroke:#55a868;stroke-width:3.07125;" x="240.413070188" xlink:href="#C1_0_3c4e7cd800" y="50.4356195052"/>
    </g>
    <g clip-path="url(#p4eefe6b936)">
     <use style="fill:#55a868;stroke:#55a868;stroke-width:3.07125;" x="276.320742229" xlink:href="#C1_0_3c4e7cd800" y="54.2564084128"/>
    </g>
    <g clip-path="url(#p4eefe6b936)">
     <use style="fill:#55a868;stroke:#55a868;stroke-width:3.07125;" x="312.228414269" xlink:href="#C1_0_3c4e7cd800" y="82.9123252198"/>
    </g>
   </g>
   <g id="line2d_23">
    <path clip-path="url(#p4eefe6b936)" d="M 96.782382 186.073626 
L 132.690054 94.374692 
L 168.597726 75.270747 
L 204.505398 54.256408 
L 240.41307 50.43562 
L 276.320742 54.256408 
L 312.228414 82.912325 
" style="fill:none;stroke:#55a868;stroke-linecap:round;stroke-width:4.095;"/>
   </g>
   <g id="line2d_24">
    <path clip-path="url(#p4eefe6b936)" style="fill:none;stroke:#55a868;stroke-linecap:round;stroke-width:4.095;"/>
   </g>
   <g id="line2d_25">
    <path clip-path="url(#p4eefe6b936)" style="fill:none;stroke:#55a868;stroke-linecap:round;stroke-width:4.095;"/>
   </g>
   <g id="line2d_26">
    <path clip-path="url(#p4eefe6b936)" style="fill:none;stroke:#55a868;stroke-linecap:round;stroke-width:4.095;"/>
   </g>
   <g id="line2d_27">
    <path clip-path="url(#p4eefe6b936)" style="fill:none;stroke:#55a868;stroke-linecap:round;stroke-width:4.095;"/>
   </g>
   <g id="line2d_28">
    <path clip-path="url(#p4eefe6b936)" style="fill:none;stroke:#55a868;stroke-linecap:round;stroke-width:4.095;"/>
   </g>
   <g id="line2d_29">
    <path clip-path="url(#p4eefe6b936)" style="fill:none;stroke:#55a868;stroke-linecap:round;stroke-width:4.095;"/>
   </g>
   <g id="line2d_30">
    <path clip-path="url(#p4eefe6b936)" style="fill:none;stroke:#55a868;stroke-linecap:round;stroke-width:4.095;"/>
   </g>
   <g id="patch_3">
    <path d="M 78.828546 230.929688 
L 330.18225 230.929688 
" style="fill:none;stroke:#262626;stroke-linecap:square;stroke-linejoin:miter;stroke-width:1.25;"/>
   </g>
   <g id="patch_4">
    <path d="M 78.828546 230.929687 
L 78.828546 26.670312 
" style="fill:none;stroke:#262626;stroke-linecap:square;stroke-linejoin:miter;stroke-width:1.25;"/>
   </g>
   <g id="PathCollection_3">
    <defs>
     <path d="M 0 5.132321 
C 1.361108 5.132321 2.666651 4.591548 3.629099 3.629099 
C 4.591548 2.666651 5.132321 1.361108 5.132321 0 
C 5.132321 -1.361108 4.591548 -2.666651 3.629099 -3.629099 
C 2.666651 -4.591548 1.361108 -5.132321 0 -5.132321 
C -1.361108 -5.132321 -2.666651 -4.591548 -3.629099 -3.629099 
C -4.591548 -2.666651 -5.132321 -1.361108 -5.132321 0 
C -5.132321 1.361108 -4.591548 2.666651 -3.629099 3.629099 
C -2.666651 4.591548 -1.361108 5.132321 0 5.132321 
z
" id="C2_0_1a3f608415"/>
    </defs>
    <g clip-path="url(#p4eefe6b936)">
     <use style="fill:#c44e52;stroke:#c44e52;stroke-width:3.07125;" x="96.7823820271" xlink:href="#C2_0_1a3f608415" y="134.492975472"/>
    </g>
    <g clip-path="url(#p4eefe6b936)">
     <use style="fill:#c44e52;stroke:#c44e52;stroke-width:3.07125;" x="132.690054067" xlink:href="#C2_0_1a3f608415" y="103.926664212"/>
    </g>
    <g clip-path="url(#p4eefe6b936)">
     <use style="fill:#c44e52;stroke:#c44e52;stroke-width:3.07125;" x="168.597726108" xlink:href="#C2_0_1a3f608415" y="69.5395640432"/>
    </g>
    <g clip-path="url(#p4eefe6b936)">
     <use style="fill:#c44e52;stroke:#c44e52;stroke-width:3.07125;" x="204.505398148" xlink:href="#C2_0_1a3f608415" y="69.5395640432"/>
    </g>
    <g clip-path="url(#p4eefe6b936)">
     <use style="fill:#c44e52;stroke:#c44e52;stroke-width:3.07125;" x="240.413070188" xlink:href="#C2_0_1a3f608415" y="84.8227196736"/>
    </g>
    <g clip-path="url(#p4eefe6b936)">
     <use style="fill:#c44e52;stroke:#c44e52;stroke-width:3.07125;" x="276.320742229" xlink:href="#C2_0_1a3f608415" y="58.0771973204"/>
    </g>
    <g clip-path="url(#p4eefe6b936)">
     <use style="fill:#c44e52;stroke:#c44e52;stroke-width:3.07125;" x="312.228414269" xlink:href="#C2_0_1a3f608415" y="58.0771973204"/>
    </g>
   </g>
   <g id="line2d_31">
    <path clip-path="url(#p4eefe6b936)" d="M 96.782382 134.492975 
L 132.690054 103.926664 
L 168.597726 69.539564 
L 204.505398 69.539564 
L 240.41307 84.82272 
L 276.320742 58.077197 
L 312.228414 58.077197 
" style="fill:none;stroke:#c44e52;stroke-linecap:round;stroke-width:4.095;"/>
   </g>
   <g id="line2d_32">
    <path clip-path="url(#p4eefe6b936)" style="fill:none;stroke:#c44e52;stroke-linecap:round;stroke-width:4.095;"/>
   </g>
   <g id="line2d_33">
    <path clip-path="url(#p4eefe6b936)" style="fill:none;stroke:#c44e52;stroke-linecap:round;stroke-width:4.095;"/>
   </g>
   <g id="line2d_34">
    <path clip-path="url(#p4eefe6b936)" style="fill:none;stroke:#c44e52;stroke-linecap:round;stroke-width:4.095;"/>
   </g>
   <g id="line2d_35">
    <path clip-path="url(#p4eefe6b936)" style="fill:none;stroke:#c44e52;stroke-linecap:round;stroke-width:4.095;"/>
   </g>
   <g id="line2d_36">
    <path clip-path="url(#p4eefe6b936)" style="fill:none;stroke:#c44e52;stroke-linecap:round;stroke-width:4.095;"/>
   </g>
   <g id="line2d_37">
    <path clip-path="url(#p4eefe6b936)" style="fill:none;stroke:#c44e52;stroke-linecap:round;stroke-width:4.095;"/>
   </g>
   <g id="line2d_38">
    <path clip-path="url(#p4eefe6b936)" style="fill:none;stroke:#c44e52;stroke-linecap:round;stroke-width:4.095;"/>
   </g>
   <g id="text_17">
    <!-- min_samples_split = 2 -->
    <defs>
     <path id="ArialMT-20"/>
     <path d="M 6.640625 61.46875 
L 6.640625 71.578125 
L 15.4375 71.578125 
L 15.4375 61.46875 
z
M 6.640625 0 
L 6.640625 51.859375 
L 15.4375 51.859375 
L 15.4375 0 
z
" id="ArialMT-69"/>
     <path d="M 3.078125 15.484375 
L 11.765625 16.84375 
Q 12.5 11.625 15.84375 8.84375 
Q 19.1875 6.0625 25.203125 6.0625 
Q 31.25 6.0625 34.171875 8.515625 
Q 37.109375 10.984375 37.109375 14.3125 
Q 37.109375 17.28125 34.515625 19 
Q 32.71875 20.171875 25.53125 21.96875 
Q 15.875 24.421875 12.140625 26.203125 
Q 8.40625 27.984375 6.46875 31.125 
Q 4.546875 34.28125 4.546875 38.09375 
Q 4.546875 41.546875 6.125 44.5 
Q 7.71875 47.46875 10.453125 49.421875 
Q 12.5 50.921875 16.03125 51.96875 
Q 19.578125 53.03125 23.640625 53.03125 
Q 29.734375 53.03125 34.34375 51.265625 
Q 38.96875 49.515625 41.15625 46.5 
Q 43.359375 43.5 44.1875 38.484375 
L 35.59375 37.3125 
Q 35.015625 41.3125 32.203125 43.546875 
Q 29.390625 45.796875 24.265625 45.796875 
Q 18.21875 45.796875 15.625 43.796875 
Q 13.03125 41.796875 13.03125 39.109375 
Q 13.03125 37.40625 14.109375 36.03125 
Q 15.1875 34.625 17.484375 33.6875 
Q 18.796875 33.203125 25.25 31.453125 
Q 34.578125 28.953125 38.25 27.359375 
Q 41.9375 25.78125 44.03125 22.75 
Q 46.140625 19.734375 46.140625 15.234375 
Q 46.140625 10.84375 43.578125 6.953125 
Q 41.015625 3.078125 36.171875 0.953125 
Q 31.34375 -1.171875 25.25 -1.171875 
Q 15.140625 -1.171875 9.84375 3.03125 
Q 4.546875 7.234375 3.078125 15.484375 
" id="ArialMT-73"/>
     <path d="M 6.390625 0 
L 6.390625 71.578125 
L 15.1875 71.578125 
L 15.1875 0 
z
" id="ArialMT-6c"/>
     <path d="M 52.828125 42.09375 
L 5.5625 42.09375 
L 5.5625 50.296875 
L 52.828125 50.296875 
z
M 52.828125 20.359375 
L 5.5625 20.359375 
L 5.5625 28.5625 
L 52.828125 28.5625 
z
" id="ArialMT-3d"/>
    </defs>
    <g style="fill:#262626;" transform="translate(133.570695023 21.6703125)scale(0.14300000000000002 -0.14300000000000002)">
     <use xlink:href="#ArialMT-6d"/>
     <use x="83.30078125" xlink:href="#ArialMT-69"/>
     <use x="105.517578125" xlink:href="#ArialMT-6e"/>
     <use x="161.1328125" xlink:href="#ArialMT-5f"/>
     <use x="216.748046875" xlink:href="#ArialMT-73"/>
     <use x="266.748046875" xlink:href="#ArialMT-61"/>
     <use x="322.36328125" xlink:href="#ArialMT-6d"/>
     <use x="405.6640625" xlink:href="#ArialMT-70"/>
     <use x="461.279296875" xlink:href="#ArialMT-6c"/>
     <use x="483.49609375" xlink:href="#ArialMT-65"/>
     <use x="539.111328125" xlink:href="#ArialMT-73"/>
     <use x="589.111328125" xlink:href="#ArialMT-5f"/>
     <use x="644.7265625" xlink:href="#ArialMT-73"/>
     <use x="694.7265625" xlink:href="#ArialMT-70"/>
     <use x="750.341796875" xlink:href="#ArialMT-6c"/>
     <use x="772.55859375" xlink:href="#ArialMT-69"/>
     <use x="794.775390625" xlink:href="#ArialMT-74"/>
     <use x="822.55859375" xlink:href="#ArialMT-20"/>
     <use x="850.341796875" xlink:href="#ArialMT-3d"/>
     <use x="908.740234375" xlink:href="#ArialMT-20"/>
     <use x="936.5234375" xlink:href="#ArialMT-32"/>
    </g>
   </g>
  </g>
  <g id="axes_2">
   <g id="patch_5">
    <path d="M 340.876046 230.929688 
L 592.22975 230.929688 
L 592.22975 26.670312 
L 340.876046 26.670312 
L 340.876046 230.929688 
z
" style="fill:none;"/>
   </g>
   <g id="matplotlib.axis_3">
    <g id="xtick_8">
     <g id="line2d_39">
      <g>
       <use style="fill:#262626;stroke:#262626;stroke-width:1.3;" x="358.829881883" xlink:href="#mde926e7fda" y="230.9296875"/>
      </g>
     </g>
     <g id="text_18">
      <!-- 1 -->
      <g style="fill:#262626;" transform="translate(355.215272508 255.33484375)scale(0.13 -0.13)">
       <use xlink:href="#ArialMT-31"/>
      </g>
     </g>
    </g>
    <g id="xtick_9">
     <g id="line2d_40">
      <g>
       <use style="fill:#262626;stroke:#262626;stroke-width:1.3;" x="394.737553923" xlink:href="#mde926e7fda" y="230.9296875"/>
      </g>
     </g>
     <g id="text_19">
      <!-- 2 -->
      <g style="fill:#262626;" transform="translate(391.122944548 255.33484375)scale(0.13 -0.13)">
       <use xlink:href="#ArialMT-32"/>
      </g>
     </g>
    </g>
    <g id="xtick_10">
     <g id="line2d_41">
      <g>
       <use style="fill:#262626;stroke:#262626;stroke-width:1.3;" x="430.645225963" xlink:href="#mde926e7fda" y="230.9296875"/>
      </g>
     </g>
     <g id="text_20">
      <!-- 5 -->
      <g style="fill:#262626;" transform="translate(427.030616588 255.33484375)scale(0.13 -0.13)">
       <use xlink:href="#ArialMT-35"/>
      </g>
     </g>
    </g>
    <g id="xtick_11">
     <g id="line2d_42">
      <g>
       <use style="fill:#262626;stroke:#262626;stroke-width:1.3;" x="466.552898003" xlink:href="#mde926e7fda" y="230.9296875"/>
      </g>
     </g>
     <g id="text_21">
      <!-- 10 -->
      <g style="fill:#262626;" transform="translate(459.323679253 255.33484375)scale(0.13 -0.13)">
       <use xlink:href="#ArialMT-31"/>
       <use x="55.615234375" xlink:href="#ArialMT-30"/>
      </g>
     </g>
    </g>
    <g id="xtick_12">
     <g id="line2d_43">
      <g>
       <use style="fill:#262626;stroke:#262626;stroke-width:1.3;" x="502.460570044" xlink:href="#mde926e7fda" y="230.9296875"/>
      </g>
     </g>
     <g id="text_22">
      <!-- 20 -->
      <g style="fill:#262626;" transform="translate(495.231351294 255.33484375)scale(0.13 -0.13)">
       <use xlink:href="#ArialMT-32"/>
       <use x="55.615234375" xlink:href="#ArialMT-30"/>
      </g>
     </g>
    </g>
    <g id="xtick_13">
     <g id="line2d_44">
      <g>
       <use style="fill:#262626;stroke:#262626;stroke-width:1.3;" x="538.368242084" xlink:href="#mde926e7fda" y="230.9296875"/>
      </g>
     </g>
     <g id="text_23">
      <!-- 30 -->
      <g style="fill:#262626;" transform="translate(531.139023334 255.33484375)scale(0.13 -0.13)">
       <use xlink:href="#ArialMT-33"/>
       <use x="55.615234375" xlink:href="#ArialMT-30"/>
      </g>
     </g>
    </g>
    <g id="xtick_14">
     <g id="line2d_45">
      <g>
       <use style="fill:#262626;stroke:#262626;stroke-width:1.3;" x="574.275914124" xlink:href="#mde926e7fda" y="230.9296875"/>
      </g>
     </g>
     <g id="text_24">
      <!-- 40 -->
      <g style="fill:#262626;" transform="translate(567.046695374 255.33484375)scale(0.13 -0.13)">
       <use xlink:href="#ArialMT-34"/>
       <use x="55.615234375" xlink:href="#ArialMT-30"/>
      </g>
     </g>
    </g>
    <g id="text_25">
     <!-- max_depth -->
     <g style="fill:#262626;" transform="translate(431.179390191 273.154265625)scale(0.14300000000000002 -0.14300000000000002)">
      <use xlink:href="#ArialMT-6d"/>
      <use x="83.30078125" xlink:href="#ArialMT-61"/>
      <use x="138.916015625" xlink:href="#ArialMT-78"/>
      <use x="188.916015625" xlink:href="#ArialMT-5f"/>
      <use x="244.53125" xlink:href="#ArialMT-64"/>
      <use x="300.146484375" xlink:href="#ArialMT-65"/>
      <use x="355.76171875" xlink:href="#ArialMT-70"/>
      <use x="411.376953125" xlink:href="#ArialMT-74"/>
      <use x="439.16015625" xlink:href="#ArialMT-68"/>
     </g>
    </g>
   </g>
   <g id="matplotlib.axis_4">
    <g id="ytick_8">
     <g id="line2d_46">
      <g>
       <use style="fill:#262626;stroke:#262626;stroke-width:1.3;" x="340.876045862" xlink:href="#mdf9e9def13" y="230.9296875"/>
      </g>
     </g>
    </g>
    <g id="ytick_9">
     <g id="line2d_47">
      <g>
       <use style="fill:#262626;stroke:#262626;stroke-width:1.3;" x="340.876045862" xlink:href="#mdf9e9def13" y="196.886458333"/>
      </g>
     </g>
    </g>
    <g id="ytick_10">
     <g id="line2d_48">
      <g>
       <use style="fill:#262626;stroke:#262626;stroke-width:1.3;" x="340.876045862" xlink:href="#mdf9e9def13" y="162.843229167"/>
      </g>
     </g>
    </g>
    <g id="ytick_11">
     <g id="line2d_49">
      <g>
       <use style="fill:#262626;stroke:#262626;stroke-width:1.3;" x="340.876045862" xlink:href="#mdf9e9def13" y="128.8"/>
      </g>
     </g>
    </g>
    <g id="ytick_12">
     <g id="line2d_50">
      <g>
       <use style="fill:#262626;stroke:#262626;stroke-width:1.3;" x="340.876045862" xlink:href="#mdf9e9def13" y="94.7567708333"/>
      </g>
     </g>
    </g>
    <g id="ytick_13">
     <g id="line2d_51">
      <g>
       <use style="fill:#262626;stroke:#262626;stroke-width:1.3;" x="340.876045862" xlink:href="#mdf9e9def13" y="60.7135416667"/>
      </g>
     </g>
    </g>
    <g id="ytick_14">
     <g id="line2d_52">
      <g>
       <use style="fill:#262626;stroke:#262626;stroke-width:1.3;" x="340.876045862" xlink:href="#mdf9e9def13" y="26.6703125"/>
      </g>
     </g>
    </g>
   </g>
   <g id="PathCollection_4">
    <defs>
     <path d="M 0 5.132321 
C 1.361108 5.132321 2.666651 4.591548 3.629099 3.629099 
C 4.591548 2.666651 5.132321 1.361108 5.132321 0 
C 5.132321 -1.361108 4.591548 -2.666651 3.629099 -3.629099 
C 2.666651 -4.591548 1.361108 -5.132321 0 -5.132321 
C -1.361108 -5.132321 -2.666651 -4.591548 -3.629099 -3.629099 
C -4.591548 -2.666651 -5.132321 -1.361108 -5.132321 0 
C -5.132321 1.361108 -4.591548 2.666651 -3.629099 3.629099 
C -2.666651 4.591548 -1.361108 5.132321 0 5.132321 
z
" id="C3_0_b1973b2e7a"/>
    </defs>
    <g clip-path="url(#p17a25e61d2)">
     <use style="fill:#4c72b0;stroke:#4c72b0;stroke-width:3.07125;" x="358.829881883" xlink:href="#C3_0_b1973b2e7a" y="155.507314464"/>
    </g>
    <g clip-path="url(#p17a25e61d2)">
     <use style="fill:#4c72b0;stroke:#4c72b0;stroke-width:3.07125;" x="394.737553923" xlink:href="#C3_0_b1973b2e7a" y="102.016269758"/>
    </g>
    <g clip-path="url(#p17a25e61d2)">
     <use style="fill:#4c72b0;stroke:#4c72b0;stroke-width:3.07125;" x="430.645225963" xlink:href="#C3_0_b1973b2e7a" y="63.8083806818"/>
    </g>
    <g clip-path="url(#p17a25e61d2)">
     <use style="fill:#4c72b0;stroke:#4c72b0;stroke-width:3.07125;" x="466.552898003" xlink:href="#C3_0_b1973b2e7a" y="50.4356195052"/>
    </g>
    <g clip-path="url(#p17a25e61d2)">
     <use style="fill:#4c72b0;stroke:#4c72b0;stroke-width:3.07125;" x="502.460570044" xlink:href="#C3_0_b1973b2e7a" y="50.4356195052"/>
    </g>
    <g clip-path="url(#p17a25e61d2)">
     <use style="fill:#4c72b0;stroke:#4c72b0;stroke-width:3.07125;" x="538.368242084" xlink:href="#C3_0_b1973b2e7a" y="52.346013959"/>
    </g>
    <g clip-path="url(#p17a25e61d2)">
     <use style="fill:#4c72b0;stroke:#4c72b0;stroke-width:3.07125;" x="574.275914124" xlink:href="#C3_0_b1973b2e7a" y="75.2707474046"/>
    </g>
   </g>
   <g id="line2d_53">
    <path clip-path="url(#p17a25e61d2)" d="M 358.829882 155.507314 
L 394.737554 102.01627 
L 430.645226 63.808381 
L 466.552898 50.43562 
L 502.46057 50.43562 
L 538.368242 52.346014 
L 574.275914 75.270747 
" style="fill:none;stroke:#4c72b0;stroke-linecap:round;stroke-width:4.095;"/>
   </g>
   <g id="line2d_54">
    <path clip-path="url(#p17a25e61d2)" style="fill:none;stroke:#4c72b0;stroke-linecap:round;stroke-width:4.095;"/>
   </g>
   <g id="line2d_55">
    <path clip-path="url(#p17a25e61d2)" style="fill:none;stroke:#4c72b0;stroke-linecap:round;stroke-width:4.095;"/>
   </g>
   <g id="line2d_56">
    <path clip-path="url(#p17a25e61d2)" style="fill:none;stroke:#4c72b0;stroke-linecap:round;stroke-width:4.095;"/>
   </g>
   <g id="line2d_57">
    <path clip-path="url(#p17a25e61d2)" style="fill:none;stroke:#4c72b0;stroke-linecap:round;stroke-width:4.095;"/>
   </g>
   <g id="line2d_58">
    <path clip-path="url(#p17a25e61d2)" style="fill:none;stroke:#4c72b0;stroke-linecap:round;stroke-width:4.095;"/>
   </g>
   <g id="line2d_59">
    <path clip-path="url(#p17a25e61d2)" style="fill:none;stroke:#4c72b0;stroke-linecap:round;stroke-width:4.095;"/>
   </g>
   <g id="line2d_60">
    <path clip-path="url(#p17a25e61d2)" style="fill:none;stroke:#4c72b0;stroke-linecap:round;stroke-width:4.095;"/>
   </g>
   <g id="PathCollection_5">
    <defs>
     <path d="M 0 5.132321 
C 1.361108 5.132321 2.666651 4.591548 3.629099 3.629099 
C 4.591548 2.666651 5.132321 1.361108 5.132321 0 
C 5.132321 -1.361108 4.591548 -2.666651 3.629099 -3.629099 
C 2.666651 -4.591548 1.361108 -5.132321 0 -5.132321 
C -1.361108 -5.132321 -2.666651 -4.591548 -3.629099 -3.629099 
C -4.591548 -2.666651 -5.132321 -1.361108 -5.132321 0 
C -5.132321 1.361108 -4.591548 2.666651 -3.629099 3.629099 
C -2.666651 4.591548 -1.361108 5.132321 0 5.132321 
z
" id="C4_0_6e7b942132"/>
    </defs>
    <g clip-path="url(#p17a25e61d2)">
     <use style="fill:#55a868;stroke:#55a868;stroke-width:3.07125;" x="358.829881883" xlink:href="#C4_0_6e7b942132" y="111.568242027"/>
    </g>
    <g clip-path="url(#p17a25e61d2)">
     <use style="fill:#55a868;stroke:#55a868;stroke-width:3.07125;" x="394.737553923" xlink:href="#C4_0_6e7b942132" y="111.568242027"/>
    </g>
    <g clip-path="url(#p17a25e61d2)">
     <use style="fill:#55a868;stroke:#55a868;stroke-width:3.07125;" x="430.645225963" xlink:href="#C4_0_6e7b942132" y="82.9123252198"/>
    </g>
    <g clip-path="url(#p17a25e61d2)">
     <use style="fill:#55a868;stroke:#55a868;stroke-width:3.07125;" x="466.552898003" xlink:href="#C4_0_6e7b942132" y="81.001930766"/>
    </g>
    <g clip-path="url(#p17a25e61d2)">
     <use style="fill:#55a868;stroke:#55a868;stroke-width:3.07125;" x="502.460570044" xlink:href="#C4_0_6e7b942132" y="77.1811418584"/>
    </g>
    <g clip-path="url(#p17a25e61d2)">
     <use style="fill:#55a868;stroke:#55a868;stroke-width:3.07125;" x="538.368242084" xlink:href="#C4_0_6e7b942132" y="56.1668028666"/>
    </g>
    <g clip-path="url(#p17a25e61d2)">
     <use style="fill:#55a868;stroke:#55a868;stroke-width:3.07125;" x="574.275914124" xlink:href="#C4_0_6e7b942132" y="58.0771973204"/>
    </g>
   </g>
   <g id="line2d_61">
    <path clip-path="url(#p17a25e61d2)" d="M 358.829882 111.568242 
L 394.737554 111.568242 
L 430.645226 82.912325 
L 466.552898 81.001931 
L 502.46057 77.181142 
L 538.368242 56.166803 
L 574.275914 58.077197 
" style="fill:none;stroke:#55a868;stroke-linecap:round;stroke-width:4.095;"/>
   </g>
   <g id="line2d_62">
    <path clip-path="url(#p17a25e61d2)" style="fill:none;stroke:#55a868;stroke-linecap:round;stroke-width:4.095;"/>
   </g>
   <g id="line2d_63">
    <path clip-path="url(#p17a25e61d2)" style="fill:none;stroke:#55a868;stroke-linecap:round;stroke-width:4.095;"/>
   </g>
   <g id="line2d_64">
    <path clip-path="url(#p17a25e61d2)" style="fill:none;stroke:#55a868;stroke-linecap:round;stroke-width:4.095;"/>
   </g>
   <g id="line2d_65">
    <path clip-path="url(#p17a25e61d2)" style="fill:none;stroke:#55a868;stroke-linecap:round;stroke-width:4.095;"/>
   </g>
   <g id="line2d_66">
    <path clip-path="url(#p17a25e61d2)" style="fill:none;stroke:#55a868;stroke-linecap:round;stroke-width:4.095;"/>
   </g>
   <g id="line2d_67">
    <path clip-path="url(#p17a25e61d2)" style="fill:none;stroke:#55a868;stroke-linecap:round;stroke-width:4.095;"/>
   </g>
   <g id="line2d_68">
    <path clip-path="url(#p17a25e61d2)" style="fill:none;stroke:#55a868;stroke-linecap:round;stroke-width:4.095;"/>
   </g>
   <g id="patch_6">
    <path d="M 340.876046 230.929688 
L 592.22975 230.929688 
" style="fill:none;stroke:#262626;stroke-linecap:square;stroke-linejoin:miter;stroke-width:1.25;"/>
   </g>
   <g id="patch_7">
    <path d="M 340.876046 230.929687 
L 340.876046 26.670312 
" style="fill:none;stroke:#262626;stroke-linecap:square;stroke-linejoin:miter;stroke-width:1.25;"/>
   </g>
   <g id="PathCollection_6">
    <defs>
     <path d="M 0 5.132321 
C 1.361108 5.132321 2.666651 4.591548 3.629099 3.629099 
C 4.591548 2.666651 5.132321 1.361108 5.132321 0 
C 5.132321 -1.361108 4.591548 -2.666651 3.629099 -3.629099 
C 2.666651 -4.591548 1.361108 -5.132321 0 -5.132321 
C -1.361108 -5.132321 -2.666651 -4.591548 -3.629099 -3.629099 
C -4.591548 -2.666651 -5.132321 -1.361108 -5.132321 0 
C -5.132321 1.361108 -4.591548 2.666651 -3.629099 3.629099 
C -2.666651 4.591548 -1.361108 5.132321 0 5.132321 
z
" id="C5_0_8723393f47"/>
    </defs>
    <g clip-path="url(#p17a25e61d2)">
     <use style="fill:#c44e52;stroke:#c44e52;stroke-width:3.07125;" x="358.829881883" xlink:href="#C5_0_8723393f47" y="189.894414632"/>
    </g>
    <g clip-path="url(#p17a25e61d2)">
     <use style="fill:#c44e52;stroke:#c44e52;stroke-width:3.07125;" x="394.737553923" xlink:href="#C5_0_8723393f47" y="113.478636481"/>
    </g>
    <g clip-path="url(#p17a25e61d2)">
     <use style="fill:#c44e52;stroke:#c44e52;stroke-width:3.07125;" x="430.645225963" xlink:href="#C5_0_8723393f47" y="77.1811418584"/>
    </g>
    <g clip-path="url(#p17a25e61d2)">
     <use style="fill:#c44e52;stroke:#c44e52;stroke-width:3.07125;" x="466.552898003" xlink:href="#C5_0_8723393f47" y="77.1811418584"/>
    </g>
    <g clip-path="url(#p17a25e61d2)">
     <use style="fill:#c44e52;stroke:#c44e52;stroke-width:3.07125;" x="502.460570044" xlink:href="#C5_0_8723393f47" y="73.3603529508"/>
    </g>
    <g clip-path="url(#p17a25e61d2)">
     <use style="fill:#c44e52;stroke:#c44e52;stroke-width:3.07125;" x="538.368242084" xlink:href="#C5_0_8723393f47" y="61.897986228"/>
    </g>
    <g clip-path="url(#p17a25e61d2)">
     <use style="fill:#c44e52;stroke:#c44e52;stroke-width:3.07125;" x="574.275914124" xlink:href="#C5_0_8723393f47" y="90.553903035"/>
    </g>
   </g>
   <g id="line2d_69">
    <path clip-path="url(#p17a25e61d2)" d="M 358.829882 189.894415 
L 394.737554 113.478636 
L 430.645226 77.181142 
L 466.552898 77.181142 
L 502.46057 73.360353 
L 538.368242 61.897986 
L 574.275914 90.553903 
" style="fill:none;stroke:#c44e52;stroke-linecap:round;stroke-width:4.095;"/>
   </g>
   <g id="line2d_70">
    <path clip-path="url(#p17a25e61d2)" style="fill:none;stroke:#c44e52;stroke-linecap:round;stroke-width:4.095;"/>
   </g>
   <g id="line2d_71">
    <path clip-path="url(#p17a25e61d2)" style="fill:none;stroke:#c44e52;stroke-linecap:round;stroke-width:4.095;"/>
   </g>
   <g id="line2d_72">
    <path clip-path="url(#p17a25e61d2)" style="fill:none;stroke:#c44e52;stroke-linecap:round;stroke-width:4.095;"/>
   </g>
   <g id="line2d_73">
    <path clip-path="url(#p17a25e61d2)" style="fill:none;stroke:#c44e52;stroke-linecap:round;stroke-width:4.095;"/>
   </g>
   <g id="line2d_74">
    <path clip-path="url(#p17a25e61d2)" style="fill:none;stroke:#c44e52;stroke-linecap:round;stroke-width:4.095;"/>
   </g>
   <g id="line2d_75">
    <path clip-path="url(#p17a25e61d2)" style="fill:none;stroke:#c44e52;stroke-linecap:round;stroke-width:4.095;"/>
   </g>
   <g id="line2d_76">
    <path clip-path="url(#p17a25e61d2)" style="fill:none;stroke:#c44e52;stroke-linecap:round;stroke-width:4.095;"/>
   </g>
   <g id="text_26">
    <!-- min_samples_split = 5 -->
    <g style="fill:#262626;" transform="translate(395.618194878 21.6703125)scale(0.14300000000000002 -0.14300000000000002)">
     <use xlink:href="#ArialMT-6d"/>
     <use x="83.30078125" xlink:href="#ArialMT-69"/>
     <use x="105.517578125" xlink:href="#ArialMT-6e"/>
     <use x="161.1328125" xlink:href="#ArialMT-5f"/>
     <use x="216.748046875" xlink:href="#ArialMT-73"/>
     <use x="266.748046875" xlink:href="#ArialMT-61"/>
     <use x="322.36328125" xlink:href="#ArialMT-6d"/>
     <use x="405.6640625" xlink:href="#ArialMT-70"/>
     <use x="461.279296875" xlink:href="#ArialMT-6c"/>
     <use x="483.49609375" xlink:href="#ArialMT-65"/>
     <use x="539.111328125" xlink:href="#ArialMT-73"/>
     <use x="589.111328125" xlink:href="#ArialMT-5f"/>
     <use x="644.7265625" xlink:href="#ArialMT-73"/>
     <use x="694.7265625" xlink:href="#ArialMT-70"/>
     <use x="750.341796875" xlink:href="#ArialMT-6c"/>
     <use x="772.55859375" xlink:href="#ArialMT-69"/>
     <use x="794.775390625" xlink:href="#ArialMT-74"/>
     <use x="822.55859375" xlink:href="#ArialMT-20"/>
     <use x="850.341796875" xlink:href="#ArialMT-3d"/>
     <use x="908.740234375" xlink:href="#ArialMT-20"/>
     <use x="936.5234375" xlink:href="#ArialMT-35"/>
    </g>
   </g>
  </g>
  <g id="axes_3">
   <g id="patch_8">
    <path d="M 602.923546 230.929688 
L 854.27725 230.929688 
L 854.27725 26.670312 
L 602.923546 26.670312 
L 602.923546 230.929688 
z
" style="fill:none;"/>
   </g>
   <g id="matplotlib.axis_5">
    <g id="xtick_15">
     <g id="line2d_77">
      <g>
       <use style="fill:#262626;stroke:#262626;stroke-width:1.3;" x="620.877381738" xlink:href="#mde926e7fda" y="230.9296875"/>
      </g>
     </g>
     <g id="text_27">
      <!-- 1 -->
      <g style="fill:#262626;" transform="translate(617.262772363 255.33484375)scale(0.13 -0.13)">
       <use xlink:href="#ArialMT-31"/>
      </g>
     </g>
    </g>
    <g id="xtick_16">
     <g id="line2d_78">
      <g>
       <use style="fill:#262626;stroke:#262626;stroke-width:1.3;" x="656.785053778" xlink:href="#mde926e7fda" y="230.9296875"/>
      </g>
     </g>
     <g id="text_28">
      <!-- 2 -->
      <g style="fill:#262626;" transform="translate(653.170444403 255.33484375)scale(0.13 -0.13)">
       <use xlink:href="#ArialMT-32"/>
      </g>
     </g>
    </g>
    <g id="xtick_17">
     <g id="line2d_79">
      <g>
       <use style="fill:#262626;stroke:#262626;stroke-width:1.3;" x="692.692725819" xlink:href="#mde926e7fda" y="230.9296875"/>
      </g>
     </g>
     <g id="text_29">
      <!-- 5 -->
      <g style="fill:#262626;" transform="translate(689.078116444 255.33484375)scale(0.13 -0.13)">
       <use xlink:href="#ArialMT-35"/>
      </g>
     </g>
    </g>
    <g id="xtick_18">
     <g id="line2d_80">
      <g>
       <use style="fill:#262626;stroke:#262626;stroke-width:1.3;" x="728.600397859" xlink:href="#mde926e7fda" y="230.9296875"/>
      </g>
     </g>
     <g id="text_30">
      <!-- 10 -->
      <g style="fill:#262626;" transform="translate(721.371179109 255.33484375)scale(0.13 -0.13)">
       <use xlink:href="#ArialMT-31"/>
       <use x="55.615234375" xlink:href="#ArialMT-30"/>
      </g>
     </g>
    </g>
    <g id="xtick_19">
     <g id="line2d_81">
      <g>
       <use style="fill:#262626;stroke:#262626;stroke-width:1.3;" x="764.508069899" xlink:href="#mde926e7fda" y="230.9296875"/>
      </g>
     </g>
     <g id="text_31">
      <!-- 20 -->
      <g style="fill:#262626;" transform="translate(757.278851149 255.33484375)scale(0.13 -0.13)">
       <use xlink:href="#ArialMT-32"/>
       <use x="55.615234375" xlink:href="#ArialMT-30"/>
      </g>
     </g>
    </g>
    <g id="xtick_20">
     <g id="line2d_82">
      <g>
       <use style="fill:#262626;stroke:#262626;stroke-width:1.3;" x="800.41574194" xlink:href="#mde926e7fda" y="230.9296875"/>
      </g>
     </g>
     <g id="text_32">
      <!-- 30 -->
      <g style="fill:#262626;" transform="translate(793.18652319 255.33484375)scale(0.13 -0.13)">
       <use xlink:href="#ArialMT-33"/>
       <use x="55.615234375" xlink:href="#ArialMT-30"/>
      </g>
     </g>
    </g>
    <g id="xtick_21">
     <g id="line2d_83">
      <g>
       <use style="fill:#262626;stroke:#262626;stroke-width:1.3;" x="836.32341398" xlink:href="#mde926e7fda" y="230.9296875"/>
      </g>
     </g>
     <g id="text_33">
      <!-- 40 -->
      <g style="fill:#262626;" transform="translate(829.09419523 255.33484375)scale(0.13 -0.13)">
       <use xlink:href="#ArialMT-34"/>
       <use x="55.615234375" xlink:href="#ArialMT-30"/>
      </g>
     </g>
    </g>
    <g id="text_34">
     <!-- max_depth -->
     <g style="fill:#262626;" transform="translate(693.226890046 273.154265625)scale(0.14300000000000002 -0.14300000000000002)">
      <use xlink:href="#ArialMT-6d"/>
      <use x="83.30078125" xlink:href="#ArialMT-61"/>
      <use x="138.916015625" xlink:href="#ArialMT-78"/>
      <use x="188.916015625" xlink:href="#ArialMT-5f"/>
      <use x="244.53125" xlink:href="#ArialMT-64"/>
      <use x="300.146484375" xlink:href="#ArialMT-65"/>
      <use x="355.76171875" xlink:href="#ArialMT-70"/>
      <use x="411.376953125" xlink:href="#ArialMT-74"/>
      <use x="439.16015625" xlink:href="#ArialMT-68"/>
     </g>
    </g>
   </g>
   <g id="matplotlib.axis_6">
    <g id="ytick_15">
     <g id="line2d_84">
      <g>
       <use style="fill:#262626;stroke:#262626;stroke-width:1.3;" x="602.923545718" xlink:href="#mdf9e9def13" y="230.9296875"/>
      </g>
     </g>
    </g>
    <g id="ytick_16">
     <g id="line2d_85">
      <g>
       <use style="fill:#262626;stroke:#262626;stroke-width:1.3;" x="602.923545718" xlink:href="#mdf9e9def13" y="196.886458333"/>
      </g>
     </g>
    </g>
    <g id="ytick_17">
     <g id="line2d_86">
      <g>
       <use style="fill:#262626;stroke:#262626;stroke-width:1.3;" x="602.923545718" xlink:href="#mdf9e9def13" y="162.843229167"/>
      </g>
     </g>
    </g>
    <g id="ytick_18">
     <g id="line2d_87">
      <g>
       <use style="fill:#262626;stroke:#262626;stroke-width:1.3;" x="602.923545718" xlink:href="#mdf9e9def13" y="128.8"/>
      </g>
     </g>
    </g>
    <g id="ytick_19">
     <g id="line2d_88">
      <g>
       <use style="fill:#262626;stroke:#262626;stroke-width:1.3;" x="602.923545718" xlink:href="#mdf9e9def13" y="94.7567708333"/>
      </g>
     </g>
    </g>
    <g id="ytick_20">
     <g id="line2d_89">
      <g>
       <use style="fill:#262626;stroke:#262626;stroke-width:1.3;" x="602.923545718" xlink:href="#mdf9e9def13" y="60.7135416667"/>
      </g>
     </g>
    </g>
    <g id="ytick_21">
     <g id="line2d_90">
      <g>
       <use style="fill:#262626;stroke:#262626;stroke-width:1.3;" x="602.923545718" xlink:href="#mdf9e9def13" y="26.6703125"/>
      </g>
     </g>
    </g>
   </g>
   <g id="PathCollection_7">
    <defs>
     <path d="M 0 5.132321 
C 1.361108 5.132321 2.666651 4.591548 3.629099 3.629099 
C 4.591548 2.666651 5.132321 1.361108 5.132321 0 
C 5.132321 -1.361108 4.591548 -2.666651 3.629099 -3.629099 
C 2.666651 -4.591548 1.361108 -5.132321 0 -5.132321 
C -1.361108 -5.132321 -2.666651 -4.591548 -3.629099 -3.629099 
C -4.591548 -2.666651 -5.132321 -1.361108 -5.132321 0 
C -5.132321 1.361108 -4.591548 2.666651 -3.629099 3.629099 
C -2.666651 4.591548 -1.361108 5.132321 0 5.132321 
z
" id="C6_0_8e38d13aec"/>
    </defs>
    <g clip-path="url(#pa7d220f1c9)">
     <use style="fill:#4c72b0;stroke:#4c72b0;stroke-width:3.07125;" x="620.877381738" xlink:href="#C6_0_8e38d13aec" y="165.059286733"/>
    </g>
    <g clip-path="url(#pa7d220f1c9)">
     <use style="fill:#4c72b0;stroke:#4c72b0;stroke-width:3.07125;" x="656.785053778" xlink:href="#C6_0_8e38d13aec" y="126.851397657"/>
    </g>
    <g clip-path="url(#pa7d220f1c9)">
     <use style="fill:#4c72b0;stroke:#4c72b0;stroke-width:3.07125;" x="692.692725819" xlink:href="#C6_0_8e38d13aec" y="71.449958497"/>
    </g>
    <g clip-path="url(#pa7d220f1c9)">
     <use style="fill:#4c72b0;stroke:#4c72b0;stroke-width:3.07125;" x="728.600397859" xlink:href="#C6_0_8e38d13aec" y="65.7187751356"/>
    </g>
    <g clip-path="url(#pa7d220f1c9)">
     <use style="fill:#4c72b0;stroke:#4c72b0;stroke-width:3.07125;" x="764.508069899" xlink:href="#C6_0_8e38d13aec" y="73.3603529508"/>
    </g>
    <g clip-path="url(#pa7d220f1c9)">
     <use style="fill:#4c72b0;stroke:#4c72b0;stroke-width:3.07125;" x="800.41574194" xlink:href="#C6_0_8e38d13aec" y="56.1668028666"/>
    </g>
    <g clip-path="url(#pa7d220f1c9)">
     <use style="fill:#4c72b0;stroke:#4c72b0;stroke-width:3.07125;" x="836.32341398" xlink:href="#C6_0_8e38d13aec" y="65.7187751356"/>
    </g>
   </g>
   <g id="line2d_91">
    <path clip-path="url(#pa7d220f1c9)" d="M 620.877382 165.059287 
L 656.785054 126.851398 
L 692.692726 71.449958 
L 728.600398 65.718775 
L 764.50807 73.360353 
L 800.415742 56.166803 
L 836.323414 65.718775 
" style="fill:none;stroke:#4c72b0;stroke-linecap:round;stroke-width:4.095;"/>
   </g>
   <g id="line2d_92">
    <path clip-path="url(#pa7d220f1c9)" style="fill:none;stroke:#4c72b0;stroke-linecap:round;stroke-width:4.095;"/>
   </g>
   <g id="line2d_93">
    <path clip-path="url(#pa7d220f1c9)" style="fill:none;stroke:#4c72b0;stroke-linecap:round;stroke-width:4.095;"/>
   </g>
   <g id="line2d_94">
    <path clip-path="url(#pa7d220f1c9)" style="fill:none;stroke:#4c72b0;stroke-linecap:round;stroke-width:4.095;"/>
   </g>
   <g id="line2d_95">
    <path clip-path="url(#pa7d220f1c9)" style="fill:none;stroke:#4c72b0;stroke-linecap:round;stroke-width:4.095;"/>
   </g>
   <g id="line2d_96">
    <path clip-path="url(#pa7d220f1c9)" style="fill:none;stroke:#4c72b0;stroke-linecap:round;stroke-width:4.095;"/>
   </g>
   <g id="line2d_97">
    <path clip-path="url(#pa7d220f1c9)" style="fill:none;stroke:#4c72b0;stroke-linecap:round;stroke-width:4.095;"/>
   </g>
   <g id="line2d_98">
    <path clip-path="url(#pa7d220f1c9)" style="fill:none;stroke:#4c72b0;stroke-linecap:round;stroke-width:4.095;"/>
   </g>
   <g id="PathCollection_8">
    <defs>
     <path d="M 0 5.132321 
C 1.361108 5.132321 2.666651 4.591548 3.629099 3.629099 
C 4.591548 2.666651 5.132321 1.361108 5.132321 0 
C 5.132321 -1.361108 4.591548 -2.666651 3.629099 -3.629099 
C 2.666651 -4.591548 1.361108 -5.132321 0 -5.132321 
C -1.361108 -5.132321 -2.666651 -4.591548 -3.629099 -3.629099 
C -4.591548 -2.666651 -5.132321 -1.361108 -5.132321 0 
C -5.132321 1.361108 -4.591548 2.666651 -3.629099 3.629099 
C -2.666651 4.591548 -1.361108 5.132321 0 5.132321 
z
" id="C7_0_135ba9759d"/>
    </defs>
    <g clip-path="url(#pa7d220f1c9)">
     <use style="fill:#55a868;stroke:#55a868;stroke-width:3.07125;" x="620.877381738" xlink:href="#C7_0_135ba9759d" y="216.639936986"/>
    </g>
    <g clip-path="url(#pa7d220f1c9)">
     <use style="fill:#55a868;stroke:#55a868;stroke-width:3.07125;" x="656.785053778" xlink:href="#C7_0_135ba9759d" y="117.299425388"/>
    </g>
    <g clip-path="url(#pa7d220f1c9)">
     <use style="fill:#55a868;stroke:#55a868;stroke-width:3.07125;" x="692.692725819" xlink:href="#C7_0_135ba9759d" y="86.7331141274"/>
    </g>
    <g clip-path="url(#pa7d220f1c9)">
     <use style="fill:#55a868;stroke:#55a868;stroke-width:3.07125;" x="728.600397859" xlink:href="#C7_0_135ba9759d" y="50.4356195052"/>
    </g>
    <g clip-path="url(#pa7d220f1c9)">
     <use style="fill:#55a868;stroke:#55a868;stroke-width:3.07125;" x="764.508069899" xlink:href="#C7_0_135ba9759d" y="75.2707474046"/>
    </g>
    <g clip-path="url(#pa7d220f1c9)">
     <use style="fill:#55a868;stroke:#55a868;stroke-width:3.07125;" x="800.41574194" xlink:href="#C7_0_135ba9759d" y="102.016269758"/>
    </g>
    <g clip-path="url(#pa7d220f1c9)">
     <use style="fill:#55a868;stroke:#55a868;stroke-width:3.07125;" x="836.32341398" xlink:href="#C7_0_135ba9759d" y="54.2564084128"/>
    </g>
   </g>
   <g id="line2d_99">
    <path clip-path="url(#pa7d220f1c9)" d="M 620.877382 216.639937 
L 656.785054 117.299425 
L 692.692726 86.733114 
L 728.600398 50.43562 
L 764.50807 75.270747 
L 800.415742 102.01627 
L 836.323414 54.256408 
" style="fill:none;stroke:#55a868;stroke-linecap:round;stroke-width:4.095;"/>
   </g>
   <g id="line2d_100">
    <path clip-path="url(#pa7d220f1c9)" style="fill:none;stroke:#55a868;stroke-linecap:round;stroke-width:4.095;"/>
   </g>
   <g id="line2d_101">
    <path clip-path="url(#pa7d220f1c9)" style="fill:none;stroke:#55a868;stroke-linecap:round;stroke-width:4.095;"/>
   </g>
   <g id="line2d_102">
    <path clip-path="url(#pa7d220f1c9)" style="fill:none;stroke:#55a868;stroke-linecap:round;stroke-width:4.095;"/>
   </g>
   <g id="line2d_103">
    <path clip-path="url(#pa7d220f1c9)" style="fill:none;stroke:#55a868;stroke-linecap:round;stroke-width:4.095;"/>
   </g>
   <g id="line2d_104">
    <path clip-path="url(#pa7d220f1c9)" style="fill:none;stroke:#55a868;stroke-linecap:round;stroke-width:4.095;"/>
   </g>
   <g id="line2d_105">
    <path clip-path="url(#pa7d220f1c9)" style="fill:none;stroke:#55a868;stroke-linecap:round;stroke-width:4.095;"/>
   </g>
   <g id="line2d_106">
    <path clip-path="url(#pa7d220f1c9)" style="fill:none;stroke:#55a868;stroke-linecap:round;stroke-width:4.095;"/>
   </g>
   <g id="patch_9">
    <path d="M 602.923546 230.929688 
L 854.27725 230.929688 
" style="fill:none;stroke:#262626;stroke-linecap:square;stroke-linejoin:miter;stroke-width:1.25;"/>
   </g>
   <g id="patch_10">
    <path d="M 602.923546 230.929687 
L 602.923546 26.670312 
" style="fill:none;stroke:#262626;stroke-linecap:square;stroke-linejoin:miter;stroke-width:1.25;"/>
   </g>
   <g id="PathCollection_9">
    <defs>
     <path d="M 0 5.132321 
C 1.361108 5.132321 2.666651 4.591548 3.629099 3.629099 
C 4.591548 2.666651 5.132321 1.361108 5.132321 0 
C 5.132321 -1.361108 4.591548 -2.666651 3.629099 -3.629099 
C 2.666651 -4.591548 1.361108 -5.132321 0 -5.132321 
C -1.361108 -5.132321 -2.666651 -4.591548 -3.629099 -3.629099 
C -4.591548 -2.666651 -5.132321 -1.361108 -5.132321 0 
C -5.132321 1.361108 -4.591548 2.666651 -3.629099 3.629099 
C -2.666651 4.591548 -1.361108 5.132321 0 5.132321 
z
" id="C8_0_73ca46eaa1"/>
    </defs>
    <g clip-path="url(#pa7d220f1c9)">
     <use style="fill:#c44e52;stroke:#c44e52;stroke-width:3.07125;" x="620.877381738" xlink:href="#C8_0_73ca46eaa1" y="153.59692001"/>
    </g>
    <g clip-path="url(#pa7d220f1c9)">
     <use style="fill:#c44e52;stroke:#c44e52;stroke-width:3.07125;" x="656.785053778" xlink:href="#C8_0_73ca46eaa1" y="136.403369926"/>
    </g>
    <g clip-path="url(#pa7d220f1c9)">
     <use style="fill:#c44e52;stroke:#c44e52;stroke-width:3.07125;" x="692.692725819" xlink:href="#C8_0_73ca46eaa1" y="75.2707474046"/>
    </g>
    <g clip-path="url(#pa7d220f1c9)">
     <use style="fill:#c44e52;stroke:#c44e52;stroke-width:3.07125;" x="728.600397859" xlink:href="#C8_0_73ca46eaa1" y="67.6291695894"/>
    </g>
    <g clip-path="url(#pa7d220f1c9)">
     <use style="fill:#c44e52;stroke:#c44e52;stroke-width:3.07125;" x="764.508069899" xlink:href="#C8_0_73ca46eaa1" y="75.2707474046"/>
    </g>
    <g clip-path="url(#pa7d220f1c9)">
     <use style="fill:#c44e52;stroke:#c44e52;stroke-width:3.07125;" x="800.41574194" xlink:href="#C8_0_73ca46eaa1" y="75.2707474046"/>
    </g>
    <g clip-path="url(#pa7d220f1c9)">
     <use style="fill:#c44e52;stroke:#c44e52;stroke-width:3.07125;" x="836.32341398" xlink:href="#C8_0_73ca46eaa1" y="58.0771973204"/>
    </g>
   </g>
   <g id="line2d_107">
    <path clip-path="url(#pa7d220f1c9)" d="M 620.877382 153.59692 
L 656.785054 136.40337 
L 692.692726 75.270747 
L 728.600398 67.62917 
L 764.50807 75.270747 
L 800.415742 75.270747 
L 836.323414 58.077197 
" style="fill:none;stroke:#c44e52;stroke-linecap:round;stroke-width:4.095;"/>
   </g>
   <g id="line2d_108">
    <path clip-path="url(#pa7d220f1c9)" style="fill:none;stroke:#c44e52;stroke-linecap:round;stroke-width:4.095;"/>
   </g>
   <g id="line2d_109">
    <path clip-path="url(#pa7d220f1c9)" style="fill:none;stroke:#c44e52;stroke-linecap:round;stroke-width:4.095;"/>
   </g>
   <g id="line2d_110">
    <path clip-path="url(#pa7d220f1c9)" style="fill:none;stroke:#c44e52;stroke-linecap:round;stroke-width:4.095;"/>
   </g>
   <g id="line2d_111">
    <path clip-path="url(#pa7d220f1c9)" style="fill:none;stroke:#c44e52;stroke-linecap:round;stroke-width:4.095;"/>
   </g>
   <g id="line2d_112">
    <path clip-path="url(#pa7d220f1c9)" style="fill:none;stroke:#c44e52;stroke-linecap:round;stroke-width:4.095;"/>
   </g>
   <g id="line2d_113">
    <path clip-path="url(#pa7d220f1c9)" style="fill:none;stroke:#c44e52;stroke-linecap:round;stroke-width:4.095;"/>
   </g>
   <g id="line2d_114">
    <path clip-path="url(#pa7d220f1c9)" style="fill:none;stroke:#c44e52;stroke-linecap:round;stroke-width:4.095;"/>
   </g>
   <g id="text_35">
    <!-- min_samples_split = 10 -->
    <g style="fill:#262626;" transform="translate(653.689624421 21.6703125)scale(0.14300000000000002 -0.14300000000000002)">
     <use xlink:href="#ArialMT-6d"/>
     <use x="83.30078125" xlink:href="#ArialMT-69"/>
     <use x="105.517578125" xlink:href="#ArialMT-6e"/>
     <use x="161.1328125" xlink:href="#ArialMT-5f"/>
     <use x="216.748046875" xlink:href="#ArialMT-73"/>
     <use x="266.748046875" xlink:href="#ArialMT-61"/>
     <use x="322.36328125" xlink:href="#ArialMT-6d"/>
     <use x="405.6640625" xlink:href="#ArialMT-70"/>
     <use x="461.279296875" xlink:href="#ArialMT-6c"/>
     <use x="483.49609375" xlink:href="#ArialMT-65"/>
     <use x="539.111328125" xlink:href="#ArialMT-73"/>
     <use x="589.111328125" xlink:href="#ArialMT-5f"/>
     <use x="644.7265625" xlink:href="#ArialMT-73"/>
     <use x="694.7265625" xlink:href="#ArialMT-70"/>
     <use x="750.341796875" xlink:href="#ArialMT-6c"/>
     <use x="772.55859375" xlink:href="#ArialMT-69"/>
     <use x="794.775390625" xlink:href="#ArialMT-74"/>
     <use x="822.55859375" xlink:href="#ArialMT-20"/>
     <use x="850.341796875" xlink:href="#ArialMT-3d"/>
     <use x="908.740234375" xlink:href="#ArialMT-20"/>
     <use x="936.5234375" xlink:href="#ArialMT-31"/>
     <use x="992.138671875" xlink:href="#ArialMT-30"/>
    </g>
   </g>
  </g>
  <g id="legend_1">
   <g id="text_36">
    <!-- min_samples_leaf -->
    <defs>
     <path d="M 8.6875 0 
L 8.6875 45.015625 
L 0.921875 45.015625 
L 0.921875 51.859375 
L 8.6875 51.859375 
L 8.6875 57.375 
Q 8.6875 62.59375 9.625 65.140625 
Q 10.890625 68.5625 14.078125 70.671875 
Q 17.28125 72.796875 23.046875 72.796875 
Q 26.765625 72.796875 31.25 71.921875 
L 29.9375 64.265625 
Q 27.203125 64.75 24.75 64.75 
Q 20.75 64.75 19.09375 63.03125 
Q 17.4375 61.328125 17.4375 56.640625 
L 17.4375 51.859375 
L 27.546875 51.859375 
L 27.546875 45.015625 
L 17.4375 45.015625 
L 17.4375 0 
z
" id="ArialMT-66"/>
    </defs>
    <g style="fill:#262626;" transform="translate(862.617095313 119.632967578)scale(0.12155 -0.12155)">
     <use xlink:href="#ArialMT-6d"/>
     <use x="83.30078125" xlink:href="#ArialMT-69"/>
     <use x="105.517578125" xlink:href="#ArialMT-6e"/>
     <use x="161.1328125" xlink:href="#ArialMT-5f"/>
     <use x="216.748046875" xlink:href="#ArialMT-73"/>
     <use x="266.748046875" xlink:href="#ArialMT-61"/>
     <use x="322.36328125" xlink:href="#ArialMT-6d"/>
     <use x="405.6640625" xlink:href="#ArialMT-70"/>
     <use x="461.279296875" xlink:href="#ArialMT-6c"/>
     <use x="483.49609375" xlink:href="#ArialMT-65"/>
     <use x="539.111328125" xlink:href="#ArialMT-73"/>
     <use x="589.111328125" xlink:href="#ArialMT-5f"/>
     <use x="644.7265625" xlink:href="#ArialMT-6c"/>
     <use x="666.943359375" xlink:href="#ArialMT-65"/>
     <use x="722.55859375" xlink:href="#ArialMT-61"/>
     <use x="778.173828125" xlink:href="#ArialMT-66"/>
    </g>
   </g>
   <g id="PathCollection_10">
    <path d="M 902.781438 139.573751 
C 904.142546 139.573751 905.448089 139.032978 906.410538 138.070529 
C 907.372986 137.108081 907.91376 135.802538 907.91376 134.44143 
C 907.91376 133.080323 907.372986 131.774779 906.410538 130.812331 
C 905.448089 129.849882 904.142546 129.309109 902.781438 129.309109 
C 901.420331 129.309109 900.114787 129.849882 899.152339 130.812331 
C 898.189891 131.774779 897.649117 133.080323 897.649117 134.44143 
C 897.649117 135.802538 898.189891 137.108081 899.152339 138.070529 
C 900.114787 139.032978 901.420331 139.573751 902.781438 139.573751 
z
" style="fill:#4c72b0;stroke:#4c72b0;stroke-width:3.07125;"/>
    <path d="M 902.781438 139.573751 
C 904.142546 139.573751 905.448089 139.032978 906.410538 138.070529 
C 907.372986 137.108081 907.91376 135.802538 907.91376 134.44143 
C 907.91376 133.080323 907.372986 131.774779 906.410538 130.812331 
C 905.448089 129.849882 904.142546 129.309109 902.781438 129.309109 
C 901.420331 129.309109 900.114787 129.849882 899.152339 130.812331 
C 898.189891 131.774779 897.649117 133.080323 897.649117 134.44143 
C 897.649117 135.802538 898.189891 137.108081 899.152339 138.070529 
C 900.114787 139.032978 901.420331 139.573751 902.781438 139.573751 
z
" style="fill:#4c72b0;stroke:#4c72b0;stroke-width:3.07125;"/>
    <path d="M 902.781438 139.573751 
C 904.142546 139.573751 905.448089 139.032978 906.410538 138.070529 
C 907.372986 137.108081 907.91376 135.802538 907.91376 134.44143 
C 907.91376 133.080323 907.372986 131.774779 906.410538 130.812331 
C 905.448089 129.849882 904.142546 129.309109 902.781438 129.309109 
C 901.420331 129.309109 900.114787 129.849882 899.152339 130.812331 
C 898.189891 131.774779 897.649117 133.080323 897.649117 134.44143 
C 897.649117 135.802538 898.189891 137.108081 899.152339 138.070529 
C 900.114787 139.032978 901.420331 139.573751 902.781438 139.573751 
z
" style="fill:#4c72b0;stroke:#4c72b0;stroke-width:3.07125;"/>
   </g>
   <g id="text_37">
    <!-- 2 -->
    <g style="fill:#262626;" transform="translate(926.181438281 137.853930078)scale(0.13 -0.13)">
     <use xlink:href="#ArialMT-32"/>
    </g>
   </g>
   <g id="PathCollection_11">
    <path d="M 902.781438 157.962658 
C 904.142546 157.962658 905.448089 157.421884 906.410538 156.459436 
C 907.372986 155.496987 907.91376 154.191444 907.91376 152.830336 
C 907.91376 151.469229 907.372986 150.163685 906.410538 149.201237 
C 905.448089 148.238789 904.142546 147.698015 902.781438 147.698015 
C 901.420331 147.698015 900.114787 148.238789 899.152339 149.201237 
C 898.189891 150.163685 897.649117 151.469229 897.649117 152.830336 
C 897.649117 154.191444 898.189891 155.496987 899.152339 156.459436 
C 900.114787 157.421884 901.420331 157.962658 902.781438 157.962658 
z
" style="fill:#55a868;stroke:#55a868;stroke-width:3.07125;"/>
    <path d="M 902.781438 157.962658 
C 904.142546 157.962658 905.448089 157.421884 906.410538 156.459436 
C 907.372986 155.496987 907.91376 154.191444 907.91376 152.830336 
C 907.91376 151.469229 907.372986 150.163685 906.410538 149.201237 
C 905.448089 148.238789 904.142546 147.698015 902.781438 147.698015 
C 901.420331 147.698015 900.114787 148.238789 899.152339 149.201237 
C 898.189891 150.163685 897.649117 151.469229 897.649117 152.830336 
C 897.649117 154.191444 898.189891 155.496987 899.152339 156.459436 
C 900.114787 157.421884 901.420331 157.962658 902.781438 157.962658 
z
" style="fill:#55a868;stroke:#55a868;stroke-width:3.07125;"/>
    <path d="M 902.781438 157.962658 
C 904.142546 157.962658 905.448089 157.421884 906.410538 156.459436 
C 907.372986 155.496987 907.91376 154.191444 907.91376 152.830336 
C 907.91376 151.469229 907.372986 150.163685 906.410538 149.201237 
C 905.448089 148.238789 904.142546 147.698015 902.781438 147.698015 
C 901.420331 147.698015 900.114787 148.238789 899.152339 149.201237 
C 898.189891 150.163685 897.649117 151.469229 897.649117 152.830336 
C 897.649117 154.191444 898.189891 155.496987 899.152339 156.459436 
C 900.114787 157.421884 901.420331 157.962658 902.781438 157.962658 
z
" style="fill:#55a868;stroke:#55a868;stroke-width:3.07125;"/>
   </g>
   <g id="text_38">
    <!-- 3 -->
    <g style="fill:#262626;" transform="translate(926.181438281 156.242836328)scale(0.13 -0.13)">
     <use xlink:href="#ArialMT-33"/>
    </g>
   </g>
   <g id="PathCollection_12">
    <path d="M 902.781438 176.351564 
C 904.142546 176.351564 905.448089 175.81079 906.410538 174.848342 
C 907.372986 173.885893 907.91376 172.58035 907.91376 171.219243 
C 907.91376 169.858135 907.372986 168.552592 906.410538 167.590143 
C 905.448089 166.627695 904.142546 166.086921 902.781438 166.086921 
C 901.420331 166.086921 900.114787 166.627695 899.152339 167.590143 
C 898.189891 168.552592 897.649117 169.858135 897.649117 171.219243 
C 897.649117 172.58035 898.189891 173.885893 899.152339 174.848342 
C 900.114787 175.81079 901.420331 176.351564 902.781438 176.351564 
z
" style="fill:#c44e52;stroke:#c44e52;stroke-width:3.07125;"/>
    <path d="M 902.781438 176.351564 
C 904.142546 176.351564 905.448089 175.81079 906.410538 174.848342 
C 907.372986 173.885893 907.91376 172.58035 907.91376 171.219243 
C 907.91376 169.858135 907.372986 168.552592 906.410538 167.590143 
C 905.448089 166.627695 904.142546 166.086921 902.781438 166.086921 
C 901.420331 166.086921 900.114787 166.627695 899.152339 167.590143 
C 898.189891 168.552592 897.649117 169.858135 897.649117 171.219243 
C 897.649117 172.58035 898.189891 173.885893 899.152339 174.848342 
C 900.114787 175.81079 901.420331 176.351564 902.781438 176.351564 
z
" style="fill:#c44e52;stroke:#c44e52;stroke-width:3.07125;"/>
    <path d="M 902.781438 176.351564 
C 904.142546 176.351564 905.448089 175.81079 906.410538 174.848342 
C 907.372986 173.885893 907.91376 172.58035 907.91376 171.219243 
C 907.91376 169.858135 907.372986 168.552592 906.410538 167.590143 
C 905.448089 166.627695 904.142546 166.086921 902.781438 166.086921 
C 901.420331 166.086921 900.114787 166.627695 899.152339 167.590143 
C 898.189891 168.552592 897.649117 169.858135 897.649117 171.219243 
C 897.649117 172.58035 898.189891 173.885893 899.152339 174.848342 
C 900.114787 175.81079 901.420331 176.351564 902.781438 176.351564 
z
" style="fill:#c44e52;stroke:#c44e52;stroke-width:3.07125;"/>
   </g>
   <g id="text_39">
    <!-- 5 -->
    <g style="fill:#262626;" transform="translate(926.181438281 174.631742578)scale(0.13 -0.13)">
     <use xlink:href="#ArialMT-35"/>
    </g>
   </g>
  </g>
 </g>
 <defs>
  <clipPath id="p4eefe6b936">
   <rect height="204.259375" width="251.353704282" x="78.8285460069" y="26.6703125"/>
  </clipPath>
  <clipPath id="pa7d220f1c9">
   <rect height="204.259375" width="251.353704282" x="602.923545718" y="26.6703125"/>
  </clipPath>
  <clipPath id="p17a25e61d2">
   <rect height="204.259375" width="251.353704282" x="340.876045862" y="26.6703125"/>
  </clipPath>
 </defs>
</svg>
