<?xml version="1.0" encoding="utf-8" standalone="no"?>
<!DOCTYPE svg PUBLIC "-//W3C//DTD SVG 1.1//EN"
  "http://www.w3.org/Graphics/SVG/1.1/DTD/svg11.dtd">
<!-- Created with matplotlib (http://matplotlib.org/) -->
<svg height="633pt" version="1.1" viewBox="0 0 506 633" width="506pt" xmlns="http://www.w3.org/2000/svg" xmlns:xlink="http://www.w3.org/1999/xlink">
 <defs>
  <style type="text/css">
*{stroke-linecap:butt;stroke-linejoin:round;stroke-miterlimit:100000;}
  </style>
 </defs>
 <g id="figure_1">
  <g id="patch_1">
   <path d="M 0 633.6 
L 506.88 633.6 
L 506.88 0 
L 0 0 
L 0 633.6 
z
" style="fill:none;"/>
  </g>
  <g id="axes_1">
   <g id="patch_2">
    <path d="M 73.4875 120.711111 
L 477.79875 120.711111 
L 477.79875 17.1 
L 73.4875 17.1 
L 73.4875 120.711111 
z
" style="fill:none;"/>
   </g>
   <g id="matplotlib.axis_1">
    <g id="xtick_1">
     <g id="line2d_1">
      <defs>
       <path d="M 0 0 
L 0 6 
" id="m163fa7b1a0" style="stroke:#262626;stroke-width:1.3;"/>
      </defs>
      <g>
       <use style="fill:#262626;stroke:#262626;stroke-width:1.3;" x="73.4875" xlink:href="#m163fa7b1a0" y="120.711111111"/>
      </g>
     </g>
    </g>
    <g id="xtick_2">
     <g id="line2d_2">
      <g>
       <use style="fill:#262626;stroke:#262626;stroke-width:1.3;" x="127.395666667" xlink:href="#m163fa7b1a0" y="120.711111111"/>
      </g>
     </g>
    </g>
    <g id="xtick_3">
     <g id="line2d_3">
      <g>
       <use style="fill:#262626;stroke:#262626;stroke-width:1.3;" x="181.303833333" xlink:href="#m163fa7b1a0" y="120.711111111"/>
      </g>
     </g>
    </g>
    <g id="xtick_4">
     <g id="line2d_4">
      <g>
       <use style="fill:#262626;stroke:#262626;stroke-width:1.3;" x="235.212" xlink:href="#m163fa7b1a0" y="120.711111111"/>
      </g>
     </g>
    </g>
    <g id="xtick_5">
     <g id="line2d_5">
      <g>
       <use style="fill:#262626;stroke:#262626;stroke-width:1.3;" x="289.120166667" xlink:href="#m163fa7b1a0" y="120.711111111"/>
      </g>
     </g>
    </g>
    <g id="xtick_6">
     <g id="line2d_6">
      <g>
       <use style="fill:#262626;stroke:#262626;stroke-width:1.3;" x="343.028333333" xlink:href="#m163fa7b1a0" y="120.711111111"/>
      </g>
     </g>
    </g>
    <g id="xtick_7">
     <g id="line2d_7">
      <g>
       <use style="fill:#262626;stroke:#262626;stroke-width:1.3;" x="396.9365" xlink:href="#m163fa7b1a0" y="120.711111111"/>
      </g>
     </g>
    </g>
    <g id="xtick_8">
     <g id="line2d_8">
      <g>
       <use style="fill:#262626;stroke:#262626;stroke-width:1.3;" x="450.844666667" xlink:href="#m163fa7b1a0" y="120.711111111"/>
      </g>
     </g>
    </g>
   </g>
   <g id="PolyCollection_1">
    <path clip-path="url(#p7959082600)" d="M 36.830787 120.688313 
L 36.830787 120.711111 
L 41.421669 120.711111 
L 46.012552 120.711111 
L 50.603435 120.711111 
L 55.194317 120.711111 
L 59.7852 120.711111 
L 64.376083 120.711111 
L 68.966965 120.711111 
L 73.557848 120.711111 
L 78.148731 120.711111 
L 82.739613 120.711111 
L 87.330496 120.711111 
L 91.921379 120.711111 
L 96.512261 120.711111 
L 101.103144 120.711111 
L 105.694027 120.711111 
L 110.284909 120.711111 
L 114.875792 120.711111 
L 119.466674 120.711111 
L 124.057557 120.711111 
L 128.64844 120.711111 
L 133.239322 120.711111 
L 137.830205 120.711111 
L 142.421088 120.711111 
L 147.01197 120.711111 
L 151.602853 120.711111 
L 156.193736 120.711111 
L 160.784618 120.711111 
L 165.375501 120.711111 
L 169.966384 120.711111 
L 174.557266 120.711111 
L 179.148149 120.711111 
L 183.739032 120.711111 
L 188.329914 120.711111 
L 192.920797 120.711111 
L 197.511679 120.711111 
L 202.102562 120.711111 
L 206.693445 120.711111 
L 211.284327 120.711111 
L 215.87521 120.711111 
L 220.466093 120.711111 
L 225.056975 120.711111 
L 229.647858 120.711111 
L 234.238741 120.711111 
L 238.829623 120.711111 
L 243.420506 120.711111 
L 248.011389 120.711111 
L 252.602271 120.711111 
L 257.193154 120.711111 
L 261.784037 120.711111 
L 266.374919 120.711111 
L 270.965802 120.711111 
L 275.556685 120.711111 
L 280.147567 120.711111 
L 284.73845 120.711111 
L 289.329332 120.711111 
L 293.920215 120.711111 
L 298.511098 120.711111 
L 303.10198 120.711111 
L 307.692863 120.711111 
L 312.283746 120.711111 
L 316.874628 120.711111 
L 321.465511 120.711111 
L 326.056394 120.711111 
L 330.647276 120.711111 
L 335.238159 120.711111 
L 339.829042 120.711111 
L 344.419924 120.711111 
L 349.010807 120.711111 
L 353.60169 120.711111 
L 358.192572 120.711111 
L 362.783455 120.711111 
L 367.374337 120.711111 
L 371.96522 120.711111 
L 376.556103 120.711111 
L 381.146985 120.711111 
L 385.737868 120.711111 
L 390.328751 120.711111 
L 394.919633 120.711111 
L 399.510516 120.711111 
L 404.101399 120.711111 
L 408.692281 120.711111 
L 413.283164 120.711111 
L 417.874047 120.711111 
L 422.464929 120.711111 
L 427.055812 120.711111 
L 431.646695 120.711111 
L 436.237577 120.711111 
L 440.82846 120.711111 
L 445.419342 120.711111 
L 450.010225 120.711111 
L 454.601108 120.711111 
L 459.19199 120.711111 
L 463.782873 120.711111 
L 468.373756 120.711111 
L 472.964638 120.711111 
L 477.555521 120.711111 
L 482.146404 120.711111 
L 486.737286 120.711111 
L 491.328169 120.711111 
L 495.919052 120.711111 
L 500.509934 120.711111 
L 505.100817 120.711111 
L 509.6917 120.711111 
L 514.282582 120.711111 
L 518.873465 120.711111 
L 523.464347 120.711111 
L 528.05523 120.711111 
L 532.646113 120.711111 
L 537.236995 120.711111 
L 541.827878 120.711111 
L 546.418761 120.711111 
L 551.009643 120.711111 
L 555.600526 120.711111 
L 560.191409 120.711111 
L 564.782291 120.711111 
L 569.373174 120.711111 
L 573.964057 120.711111 
L 578.554939 120.711111 
L 583.145822 120.711111 
L 587.736705 120.711111 
L 592.327587 120.711111 
L 596.91847 120.711111 
L 601.509353 120.711111 
L 606.100235 120.711111 
L 610.691118 120.711111 
L 615.282 120.711111 
L 619.872883 120.711111 
L 619.872883 120.698598 
L 619.872883 120.698598 
L 615.282 120.69566 
L 610.691118 120.680832 
L 606.100235 120.64979 
L 601.509353 120.594805 
L 596.91847 120.507134 
L 592.327587 120.380347 
L 587.736705 120.21421 
L 583.145822 120.017692 
L 578.554939 119.80926 
L 573.964057 119.613414 
L 569.373174 119.454224 
L 564.782291 119.348368 
L 560.191409 119.300688 
L 555.600526 119.304063 
L 551.009643 119.343088 
L 546.418761 119.399169 
L 541.827878 119.454317 
L 537.236995 119.492401 
L 532.646113 119.49874 
L 528.05523 119.460103 
L 523.464347 119.366742 
L 518.873465 119.216268 
L 514.282582 119.017423 
L 509.6917 118.791114 
L 505.100817 118.567018 
L 500.509934 118.376112 
L 495.919052 118.241779 
L 491.328169 118.173168 
L 486.737286 118.163576 
L 482.146404 118.193919 
L 477.555521 118.238914 
L 472.964638 118.272959 
L 468.373756 118.274313 
L 463.782873 118.228075 
L 459.19199 118.128866 
L 454.601108 117.982633 
L 450.010225 117.805728 
L 445.419342 117.620218 
L 440.82846 117.447166 
L 436.237577 117.301885 
L 431.646695 117.194128 
L 427.055812 117.132071 
L 422.464929 117.125211 
L 417.874047 117.181584 
L 413.283164 117.299514 
L 408.692281 117.459481 
L 404.101399 117.623003 
L 399.510516 117.741344 
L 394.919633 117.770738 
L 390.328751 117.687184 
L 385.737868 117.494801 
L 381.146985 117.225299 
L 376.556103 116.929642 
L 371.96522 116.664873 
L 367.374337 116.479735 
L 362.783455 116.402878 
L 358.192572 116.436836 
L 353.60169 116.559244 
L 349.010807 116.730134 
L 344.419924 116.902124 
L 339.829042 117.030032 
L 335.238159 117.078085 
L 330.647276 117.024669 
L 326.056394 116.864992 
L 321.465511 116.610958 
L 316.874628 116.286835 
L 312.283746 115.920681 
L 307.692863 115.534358 
L 303.10198 115.136832 
L 298.511098 114.724002 
L 293.920215 114.284563 
L 289.329332 113.808149 
L 284.73845 113.291534 
L 280.147567 112.740447 
L 275.556685 112.16686 
L 270.965802 111.583358 
L 266.374919 110.997361 
L 261.784037 110.408155 
L 257.193154 109.808118 
L 252.602271 109.186416 
L 248.011389 108.53107 
L 243.420506 107.826183 
L 238.829623 107.045106 
L 234.238741 106.144538 
L 229.647858 105.065617 
L 225.056975 103.744922 
L 220.466093 102.133034 
L 215.87521 100.213781 
L 211.284327 98.016161 
L 206.693445 95.613765 
L 202.102562 93.111919 
L 197.511679 90.62733 
L 192.920797 88.266036 
L 188.329914 86.103502 
L 183.739032 84.169278 
L 179.148149 82.440224 
L 174.557266 80.848331 
L 169.966384 79.306525 
L 165.375501 77.746849 
L 160.784618 76.156218 
L 156.193736 74.593851 
L 151.602853 73.183209 
L 147.01197 72.082503 
L 142.421088 71.443271 
L 137.830205 71.366543 
L 133.239322 71.867731 
L 128.64844 72.866907 
L 124.057557 74.22129 
L 119.466674 75.800145 
L 114.875792 77.571887 
L 110.284909 79.651073 
L 105.694027 82.263501 
L 101.103144 85.632594 
L 96.512261 89.841786 
L 91.921379 94.748136 
L 87.330496 99.995361 
L 82.739613 105.118486 
L 78.148731 109.685229 
L 73.557848 113.408701 
L 68.966965 116.191647 
L 64.376083 118.10201 
L 59.7852 119.308234 
L 55.194317 120.009505 
L 50.603435 120.385104 
L 46.012552 120.570387 
L 41.421669 120.654276 
L 36.830787 120.688313 
z
" style="fill-opacity:0.25;stroke:#000000;stroke-opacity:0.25;stroke-width:0.39;"/>
   </g>
   <g id="line2d_9">
    <path clip-path="url(#p7959082600)" d="M 36.830787 120.688313 
L 46.012552 120.570387 
L 50.603435 120.385104 
L 55.194317 120.009505 
L 59.7852 119.308234 
L 64.376083 118.10201 
L 68.966965 116.191647 
L 73.557848 113.408701 
L 78.148731 109.685229 
L 82.739613 105.118486 
L 96.512261 89.841786 
L 101.103144 85.632594 
L 105.694027 82.263501 
L 110.284909 79.651073 
L 114.875792 77.571887 
L 119.466674 75.800145 
L 124.057557 74.22129 
L 128.64844 72.866907 
L 133.239322 71.867731 
L 137.830205 71.366543 
L 142.421088 71.443271 
L 147.01197 72.082503 
L 151.602853 73.183209 
L 156.193736 74.593851 
L 179.148149 82.440224 
L 183.739032 84.169278 
L 188.329914 86.103502 
L 192.920797 88.266036 
L 202.102562 93.111919 
L 211.284327 98.016161 
L 215.87521 100.213781 
L 220.466093 102.133034 
L 225.056975 103.744922 
L 229.647858 105.065617 
L 234.238741 106.144538 
L 238.829623 107.045106 
L 248.011389 108.53107 
L 261.784037 110.408155 
L 284.73845 113.291534 
L 293.920215 114.284563 
L 307.692863 115.534358 
L 321.465511 116.610958 
L 330.647276 117.024669 
L 339.829042 117.030032 
L 362.783455 116.402878 
L 371.96522 116.664873 
L 390.328751 117.687184 
L 394.919633 117.770738 
L 404.101399 117.623003 
L 417.874047 117.181584 
L 427.055812 117.132071 
L 436.237577 117.301885 
L 468.373756 118.274313 
L 495.919052 118.241779 
L 507.88 118.702679 
L 507.88 118.702679 
" style="fill:none;stroke:#000000;stroke-linecap:round;stroke-width:2.275;"/>
   </g>
   <g id="patch_3">
    <path d="M 73.4875 120.711111 
L 477.79875 120.711111 
" style="fill:none;stroke:#262626;stroke-linecap:square;stroke-linejoin:miter;stroke-width:1.25;"/>
   </g>
   <g id="text_1">
    <g id="patch_4">
     <path d="M 480.164975 33.186837 
L 480.164975 104.624274 
L 504.682772 104.624274 
L 504.682772 33.186837 
L 480.164975 33.186837 
z
" style="fill:none;"/>
    </g>
    <!-- cut = Fair -->
    <defs>
     <path d="M 40.4375 6.390625 
Q 35.546875 2.25 31.03125 0.53125 
Q 26.515625 -1.171875 21.34375 -1.171875 
Q 12.796875 -1.171875 8.203125 3 
Q 3.609375 7.171875 3.609375 13.671875 
Q 3.609375 17.484375 5.34375 20.625 
Q 7.078125 23.78125 9.890625 25.6875 
Q 12.703125 27.59375 16.21875 28.5625 
Q 18.796875 29.25 24.03125 29.890625 
Q 34.671875 31.15625 39.703125 32.90625 
Q 39.75 34.71875 39.75 35.203125 
Q 39.75 40.578125 37.25 42.78125 
Q 33.890625 45.75 27.25 45.75 
Q 21.046875 45.75 18.09375 43.578125 
Q 15.140625 41.40625 13.71875 35.890625 
L 5.125 37.0625 
Q 6.296875 42.578125 8.984375 45.96875 
Q 11.671875 49.359375 16.75 51.1875 
Q 21.828125 53.03125 28.515625 53.03125 
Q 35.15625 53.03125 39.296875 51.46875 
Q 43.453125 49.90625 45.40625 47.53125 
Q 47.359375 45.171875 48.140625 41.546875 
Q 48.578125 39.3125 48.578125 33.453125 
L 48.578125 21.734375 
Q 48.578125 9.46875 49.140625 6.21875 
Q 49.703125 2.984375 51.375 0 
L 42.1875 0 
Q 40.828125 2.734375 40.4375 6.390625 
M 39.703125 26.03125 
Q 34.90625 24.078125 25.34375 22.703125 
Q 19.921875 21.921875 17.671875 20.9375 
Q 15.4375 19.96875 14.203125 18.09375 
Q 12.984375 16.21875 12.984375 13.921875 
Q 12.984375 10.40625 15.640625 8.0625 
Q 18.3125 5.71875 23.4375 5.71875 
Q 28.515625 5.71875 32.46875 7.9375 
Q 36.421875 10.15625 38.28125 14.015625 
Q 39.703125 17 39.703125 22.796875 
z
" id="ArialMT-61"/>
     <path d="M 40.4375 19 
L 49.078125 17.875 
Q 47.65625 8.9375 41.8125 3.875 
Q 35.984375 -1.171875 27.484375 -1.171875 
Q 16.84375 -1.171875 10.375 5.78125 
Q 3.90625 12.75 3.90625 25.734375 
Q 3.90625 34.125 6.6875 40.421875 
Q 9.46875 46.734375 15.15625 49.875 
Q 20.84375 53.03125 27.546875 53.03125 
Q 35.984375 53.03125 41.359375 48.75 
Q 46.734375 44.484375 48.25 36.625 
L 39.703125 35.296875 
Q 38.484375 40.53125 35.375 43.15625 
Q 32.28125 45.796875 27.875 45.796875 
Q 21.234375 45.796875 17.078125 41.03125 
Q 12.9375 36.28125 12.9375 25.984375 
Q 12.9375 15.53125 16.9375 10.796875 
Q 20.953125 6.0625 27.390625 6.0625 
Q 32.5625 6.0625 36.03125 9.234375 
Q 39.5 12.40625 40.4375 19 
" id="ArialMT-63"/>
     <path d="M 6.640625 61.46875 
L 6.640625 71.578125 
L 15.4375 71.578125 
L 15.4375 61.46875 
z
M 6.640625 0 
L 6.640625 51.859375 
L 15.4375 51.859375 
L 15.4375 0 
z
" id="ArialMT-69"/>
     <path d="M 8.203125 0 
L 8.203125 71.578125 
L 56.5 71.578125 
L 56.5 63.140625 
L 17.671875 63.140625 
L 17.671875 40.96875 
L 51.265625 40.96875 
L 51.265625 32.515625 
L 17.671875 32.515625 
L 17.671875 0 
z
" id="ArialMT-46"/>
     <path d="M 52.828125 42.09375 
L 5.5625 42.09375 
L 5.5625 50.296875 
L 52.828125 50.296875 
z
M 52.828125 20.359375 
L 5.5625 20.359375 
L 5.5625 28.5625 
L 52.828125 28.5625 
z
" id="ArialMT-3d"/>
     <path d="M 25.78125 7.859375 
L 27.046875 0.09375 
Q 23.34375 -0.6875 20.40625 -0.6875 
Q 15.625 -0.6875 12.984375 0.828125 
Q 10.359375 2.34375 9.28125 4.8125 
Q 8.203125 7.28125 8.203125 15.1875 
L 8.203125 45.015625 
L 1.765625 45.015625 
L 1.765625 51.859375 
L 8.203125 51.859375 
L 8.203125 64.703125 
L 16.9375 69.96875 
L 16.9375 51.859375 
L 25.78125 51.859375 
L 25.78125 45.015625 
L 16.9375 45.015625 
L 16.9375 14.703125 
Q 16.9375 10.9375 17.40625 9.859375 
Q 17.875 8.796875 18.921875 8.15625 
Q 19.96875 7.515625 21.921875 7.515625 
Q 23.390625 7.515625 25.78125 7.859375 
" id="ArialMT-74"/>
     <path id="ArialMT-20"/>
     <path d="M 6.5 0 
L 6.5 51.859375 
L 14.40625 51.859375 
L 14.40625 44 
Q 17.4375 49.515625 20 51.265625 
Q 22.5625 53.03125 25.640625 53.03125 
Q 30.078125 53.03125 34.671875 50.203125 
L 31.640625 42.046875 
Q 28.421875 43.953125 25.203125 43.953125 
Q 22.3125 43.953125 20.015625 42.21875 
Q 17.71875 40.484375 16.75 37.40625 
Q 15.28125 32.71875 15.28125 27.15625 
L 15.28125 0 
z
" id="ArialMT-72"/>
     <path d="M 40.578125 0 
L 40.578125 7.625 
Q 34.515625 -1.171875 24.125 -1.171875 
Q 19.53125 -1.171875 15.546875 0.578125 
Q 11.578125 2.34375 9.640625 5 
Q 7.71875 7.671875 6.9375 11.53125 
Q 6.390625 14.109375 6.390625 19.734375 
L 6.390625 51.859375 
L 15.1875 51.859375 
L 15.1875 23.09375 
Q 15.1875 16.21875 15.71875 13.8125 
Q 16.546875 10.359375 19.234375 8.375 
Q 21.921875 6.390625 25.875 6.390625 
Q 29.828125 6.390625 33.296875 8.421875 
Q 36.765625 10.453125 38.203125 13.9375 
Q 39.65625 17.4375 39.65625 24.078125 
L 39.65625 51.859375 
L 48.4375 51.859375 
L 48.4375 0 
z
" id="ArialMT-75"/>
    </defs>
    <g style="fill:#262626;" transform="translate(488.7271 38.9068368056)rotate(-270.0)scale(0.14300000000000002 -0.14300000000000002)">
     <use xlink:href="#ArialMT-63"/>
     <use x="50.0" xlink:href="#ArialMT-75"/>
     <use x="105.615234375" xlink:href="#ArialMT-74"/>
     <use x="133.3984375" xlink:href="#ArialMT-20"/>
     <use x="161.181640625" xlink:href="#ArialMT-3d"/>
     <use x="219.580078125" xlink:href="#ArialMT-20"/>
     <use x="247.36328125" xlink:href="#ArialMT-46"/>
     <use x="308.447265625" xlink:href="#ArialMT-61"/>
     <use x="364.0625" xlink:href="#ArialMT-69"/>
     <use x="386.279296875" xlink:href="#ArialMT-72"/>
    </g>
   </g>
  </g>
  <g id="axes_2">
   <g id="patch_5">
    <path d="M 73.4875 234.683333 
L 477.79875 234.683333 
L 477.79875 131.072222 
L 73.4875 131.072222 
L 73.4875 234.683333 
z
" style="fill:none;"/>
   </g>
   <g id="matplotlib.axis_2">
    <g id="xtick_9">
     <g id="line2d_10">
      <g>
       <use style="fill:#262626;stroke:#262626;stroke-width:1.3;" x="73.4875" xlink:href="#m163fa7b1a0" y="234.683333333"/>
      </g>
     </g>
    </g>
    <g id="xtick_10">
     <g id="line2d_11">
      <g>
       <use style="fill:#262626;stroke:#262626;stroke-width:1.3;" x="127.395666667" xlink:href="#m163fa7b1a0" y="234.683333333"/>
      </g>
     </g>
    </g>
    <g id="xtick_11">
     <g id="line2d_12">
      <g>
       <use style="fill:#262626;stroke:#262626;stroke-width:1.3;" x="181.303833333" xlink:href="#m163fa7b1a0" y="234.683333333"/>
      </g>
     </g>
    </g>
    <g id="xtick_12">
     <g id="line2d_13">
      <g>
       <use style="fill:#262626;stroke:#262626;stroke-width:1.3;" x="235.212" xlink:href="#m163fa7b1a0" y="234.683333333"/>
      </g>
     </g>
    </g>
    <g id="xtick_13">
     <g id="line2d_14">
      <g>
       <use style="fill:#262626;stroke:#262626;stroke-width:1.3;" x="289.120166667" xlink:href="#m163fa7b1a0" y="234.683333333"/>
      </g>
     </g>
    </g>
    <g id="xtick_14">
     <g id="line2d_15">
      <g>
       <use style="fill:#262626;stroke:#262626;stroke-width:1.3;" x="343.028333333" xlink:href="#m163fa7b1a0" y="234.683333333"/>
      </g>
     </g>
    </g>
    <g id="xtick_15">
     <g id="line2d_16">
      <g>
       <use style="fill:#262626;stroke:#262626;stroke-width:1.3;" x="396.9365" xlink:href="#m163fa7b1a0" y="234.683333333"/>
      </g>
     </g>
    </g>
    <g id="xtick_16">
     <g id="line2d_17">
      <g>
       <use style="fill:#262626;stroke:#262626;stroke-width:1.3;" x="450.844666667" xlink:href="#m163fa7b1a0" y="234.683333333"/>
      </g>
     </g>
    </g>
   </g>
   <g id="PolyCollection_2">
    <path clip-path="url(#pf226931ac4)" d="M 37.255954 234.566148 
L 37.255954 234.683333 
L 41.883437 234.683333 
L 46.510921 234.683333 
L 51.138404 234.683333 
L 55.765888 234.683333 
L 60.393371 234.683333 
L 65.020855 234.683333 
L 69.648338 234.683333 
L 74.275821 234.683333 
L 78.903305 234.683333 
L 83.530788 234.683333 
L 88.158272 234.683333 
L 92.785755 234.683333 
L 97.413238 234.683333 
L 102.040722 234.683333 
L 106.668205 234.683333 
L 111.295689 234.683333 
L 115.923172 234.683333 
L 120.550656 234.683333 
L 125.178139 234.683333 
L 129.805622 234.683333 
L 134.433106 234.683333 
L 139.060589 234.683333 
L 143.688073 234.683333 
L 148.315556 234.683333 
L 152.94304 234.683333 
L 157.570523 234.683333 
L 162.198006 234.683333 
L 166.82549 234.683333 
L 171.452973 234.683333 
L 176.080457 234.683333 
L 180.70794 234.683333 
L 185.335424 234.683333 
L 189.962907 234.683333 
L 194.59039 234.683333 
L 199.217874 234.683333 
L 203.845357 234.683333 
L 208.472841 234.683333 
L 213.100324 234.683333 
L 217.727808 234.683333 
L 222.355291 234.683333 
L 226.982774 234.683333 
L 231.610258 234.683333 
L 236.237741 234.683333 
L 240.865225 234.683333 
L 245.492708 234.683333 
L 250.120192 234.683333 
L 254.747675 234.683333 
L 259.375158 234.683333 
L 264.002642 234.683333 
L 268.630125 234.683333 
L 273.257609 234.683333 
L 277.885092 234.683333 
L 282.512575 234.683333 
L 287.140059 234.683333 
L 291.767542 234.683333 
L 296.395026 234.683333 
L 301.022509 234.683333 
L 305.649993 234.683333 
L 310.277476 234.683333 
L 314.904959 234.683333 
L 319.532443 234.683333 
L 324.159926 234.683333 
L 328.78741 234.683333 
L 333.414893 234.683333 
L 338.042377 234.683333 
L 342.66986 234.683333 
L 347.297343 234.683333 
L 351.924827 234.683333 
L 356.55231 234.683333 
L 361.179794 234.683333 
L 365.807277 234.683333 
L 370.434761 234.683333 
L 375.062244 234.683333 
L 379.689727 234.683333 
L 384.317211 234.683333 
L 388.944694 234.683333 
L 393.572178 234.683333 
L 398.199661 234.683333 
L 402.827145 234.683333 
L 407.454628 234.683333 
L 412.082111 234.683333 
L 416.709595 234.683333 
L 421.337078 234.683333 
L 425.964562 234.683333 
L 430.592045 234.683333 
L 435.219529 234.683333 
L 439.847012 234.683333 
L 444.474495 234.683333 
L 449.101979 234.683333 
L 453.729462 234.683333 
L 458.356946 234.683333 
L 462.984429 234.683333 
L 467.611913 234.683333 
L 472.239396 234.683333 
L 476.866879 234.683333 
L 481.494363 234.683333 
L 486.121846 234.683333 
L 490.74933 234.683333 
L 495.376813 234.683333 
L 500.004296 234.683333 
L 504.63178 234.683333 
L 509.259263 234.683333 
L 513.886747 234.683333 
L 518.51423 234.683333 
L 523.141714 234.683333 
L 527.769197 234.683333 
L 532.39668 234.683333 
L 537.024164 234.683333 
L 541.651647 234.683333 
L 546.279131 234.683333 
L 550.906614 234.683333 
L 555.534098 234.683333 
L 560.161581 234.683333 
L 564.789064 234.683333 
L 569.416548 234.683333 
L 574.044031 234.683333 
L 578.671515 234.683333 
L 583.298998 234.683333 
L 587.926482 234.683333 
L 592.553965 234.683333 
L 597.181448 234.683333 
L 601.808932 234.683333 
L 606.436415 234.683333 
L 611.063899 234.683333 
L 615.691382 234.683333 
L 620.318866 234.683333 
L 624.946349 234.683333 
L 624.946349 234.640761 
L 624.946349 234.640761 
L 620.318866 234.664384 
L 615.691382 234.664671 
L 611.063899 234.649366 
L 606.436415 234.616342 
L 601.808932 234.558937 
L 597.181448 234.469665 
L 592.553965 234.343813 
L 587.926482 234.182751 
L 583.298998 233.995691 
L 578.671515 233.798653 
L 574.044031 233.610606 
L 569.416548 233.44837 
L 564.789064 233.322563 
L 560.161581 233.236081 
L 555.534098 233.184897 
L 550.906614 233.1598 
L 546.279131 233.147962 
L 541.651647 233.134522 
L 537.024164 233.105174 
L 532.39668 233.050102 
L 527.769197 232.967995 
L 523.141714 232.867704 
L 518.51423 232.765779 
L 513.886747 232.680336 
L 509.259263 232.624023 
L 504.63178 232.599563 
L 500.004296 232.60004 
L 495.376813 232.613386 
L 490.74933 232.628253 
L 486.121846 232.637902 
L 481.494363 232.64031 
L 476.866879 232.635311 
L 472.239396 232.621515 
L 467.611913 232.595489 
L 462.984429 232.5537 
L 458.356946 232.495506 
L 453.729462 232.424829 
L 449.101979 232.349327 
L 444.474495 232.277778 
L 439.847012 232.217445 
L 435.219529 232.172775 
L 430.592045 232.145461 
L 425.964562 232.134831 
L 421.337078 232.137626 
L 416.709595 232.147281 
L 412.082111 232.153907 
L 407.454628 232.146264 
L 402.827145 232.115733 
L 398.199661 232.060524 
L 393.572178 231.9875 
L 388.944694 231.9099 
L 384.317211 231.841641 
L 379.689727 231.790998 
L 375.062244 231.756864 
L 370.434761 231.729228 
L 365.807277 231.693182 
L 361.179794 231.634225 
L 356.55231 231.542436 
L 351.924827 231.414004 
L 347.297343 231.249933 
L 342.66986 231.053147 
L 338.042377 230.826185 
L 333.414893 230.571321 
L 328.78741 230.293108 
L 324.159926 230.001006 
L 319.532443 229.708994 
L 314.904959 229.431044 
L 310.277476 229.174538 
L 305.649993 228.935562 
L 301.022509 228.698775 
L 296.395026 228.44172 
L 291.767542 228.141376 
L 287.140059 227.780601 
L 282.512575 227.352721 
L 277.885092 226.86273 
L 273.257609 226.323933 
L 268.630125 225.750718 
L 264.002642 225.151056 
L 259.375158 224.523541 
L 254.747675 223.861007 
L 250.120192 223.157345 
L 245.492708 222.410607 
L 240.865225 221.617405 
L 236.237741 220.760089 
L 231.610258 219.79462 
L 226.982774 218.648658 
L 222.355291 217.235627 
L 217.727808 215.483565 
L 213.100324 213.370799 
L 208.472841 210.955965 
L 203.845357 208.38924 
L 199.217874 205.895897 
L 194.59039 203.732533 
L 189.962907 202.127374 
L 185.335424 201.22356 
L 180.70794 201.043653 
L 176.080457 201.484934 
L 171.452973 202.343618 
L 166.82549 203.35838 
L 162.198006 204.262254 
L 157.570523 204.833895 
L 152.94304 204.939194 
L 148.315556 204.551304 
L 143.688073 203.736646 
L 139.060589 202.603546 
L 134.433106 201.228855 
L 129.805622 199.596349 
L 125.178139 197.585288 
L 120.550656 195.031698 
L 115.923172 191.854013 
L 111.295689 188.20051 
L 106.668205 184.550824 
L 102.040722 181.700202 
L 97.413238 180.586432 
L 92.785755 181.989155 
L 88.158272 186.21414 
L 83.530788 192.91609 
L 78.903305 201.166464 
L 74.275821 209.749305 
L 69.648338 217.545415 
L 65.020855 223.827586 
L 60.393371 228.358271 
L 55.765888 231.298494 
L 51.138404 233.021479 
L 46.510921 233.935375 
L 41.883437 234.374769 
L 37.255954 234.566148 
z
" style="fill-opacity:0.25;stroke:#000000;stroke-opacity:0.25;stroke-width:0.39;"/>
   </g>
   <g id="line2d_18">
    <path clip-path="url(#pf226931ac4)" d="M 37.255954 234.566148 
L 41.883437 234.374769 
L 46.510921 233.935375 
L 51.138404 233.021479 
L 55.765888 231.298494 
L 60.393371 228.358271 
L 65.020855 223.827586 
L 69.648338 217.545415 
L 74.275821 209.749305 
L 78.903305 201.166464 
L 83.530788 192.91609 
L 88.158272 186.21414 
L 92.785755 181.989155 
L 97.413238 180.586432 
L 102.040722 181.700202 
L 106.668205 184.550824 
L 115.923172 191.854013 
L 120.550656 195.031698 
L 125.178139 197.585288 
L 129.805622 199.596349 
L 134.433106 201.228855 
L 139.060589 202.603546 
L 143.688073 203.736646 
L 148.315556 204.551304 
L 152.94304 204.939194 
L 157.570523 204.833895 
L 162.198006 204.262254 
L 176.080457 201.484934 
L 180.70794 201.043653 
L 185.335424 201.22356 
L 189.962907 202.127374 
L 194.59039 203.732533 
L 199.217874 205.895897 
L 213.100324 213.370799 
L 217.727808 215.483565 
L 222.355291 217.235627 
L 226.982774 218.648658 
L 231.610258 219.79462 
L 240.865225 221.617405 
L 250.120192 223.157345 
L 259.375158 224.523541 
L 273.257609 226.323933 
L 282.512575 227.352721 
L 291.767542 228.141376 
L 305.649993 228.935562 
L 324.159926 230.001006 
L 338.042377 230.826185 
L 351.924827 231.414004 
L 365.807277 231.693182 
L 393.572178 231.9875 
L 407.454628 232.146264 
L 444.474495 232.277778 
L 472.239396 232.621515 
L 500.004296 232.60004 
L 507.88 232.616732 
L 507.88 232.616732 
" style="fill:none;stroke:#000000;stroke-linecap:round;stroke-width:2.275;"/>
   </g>
   <g id="patch_6">
    <path d="M 73.4875 234.683333 
L 477.79875 234.683333 
" style="fill:none;stroke:#262626;stroke-linecap:square;stroke-linejoin:miter;stroke-width:1.25;"/>
   </g>
   <g id="text_2">
    <g id="patch_7">
     <path d="M 480.164975 141.982012 
L 480.164975 223.773543 
L 504.682772 223.773543 
L 504.682772 141.982012 
L 480.164975 141.982012 
z
" style="fill:none;"/>
    </g>
    <!-- cut = Good -->
    <defs>
     <path d="M 3.328125 25.921875 
Q 3.328125 40.328125 11.328125 47.265625 
Q 18.015625 53.03125 27.640625 53.03125 
Q 38.328125 53.03125 45.109375 46.015625 
Q 51.90625 39.015625 51.90625 26.65625 
Q 51.90625 16.65625 48.90625 10.90625 
Q 45.90625 5.171875 40.15625 2 
Q 34.421875 -1.171875 27.640625 -1.171875 
Q 16.75 -1.171875 10.03125 5.8125 
Q 3.328125 12.796875 3.328125 25.921875 
M 12.359375 25.921875 
Q 12.359375 15.96875 16.703125 11.015625 
Q 21.046875 6.0625 27.640625 6.0625 
Q 34.1875 6.0625 38.53125 11.03125 
Q 42.875 16.015625 42.875 26.21875 
Q 42.875 35.84375 38.5 40.796875 
Q 34.125 45.75 27.640625 45.75 
Q 21.046875 45.75 16.703125 40.8125 
Q 12.359375 35.890625 12.359375 25.921875 
" id="ArialMT-6f"/>
     <path d="M 41.21875 28.078125 
L 41.21875 36.46875 
L 71.53125 36.53125 
L 71.53125 9.96875 
Q 64.546875 4.390625 57.125 1.578125 
Q 49.703125 -1.21875 41.890625 -1.21875 
Q 31.34375 -1.21875 22.71875 3.296875 
Q 14.109375 7.8125 9.71875 16.359375 
Q 5.328125 24.90625 5.328125 35.453125 
Q 5.328125 45.90625 9.6875 54.953125 
Q 14.0625 64.015625 22.265625 68.40625 
Q 30.46875 72.796875 41.15625 72.796875 
Q 48.921875 72.796875 55.1875 70.28125 
Q 61.46875 67.78125 65.03125 63.28125 
Q 68.609375 58.796875 70.453125 51.5625 
L 61.921875 49.21875 
Q 60.296875 54.6875 57.90625 57.8125 
Q 55.515625 60.9375 51.0625 62.8125 
Q 46.625 64.703125 41.21875 64.703125 
Q 34.71875 64.703125 29.984375 62.71875 
Q 25.25 60.75 22.34375 57.515625 
Q 19.4375 54.296875 17.828125 50.4375 
Q 15.09375 43.796875 15.09375 36.03125 
Q 15.09375 26.46875 18.390625 20.015625 
Q 21.6875 13.578125 27.984375 10.453125 
Q 34.28125 7.328125 41.359375 7.328125 
Q 47.515625 7.328125 53.375 9.6875 
Q 59.234375 12.0625 62.25 14.75 
L 62.25 28.078125 
z
" id="ArialMT-47"/>
     <path d="M 40.234375 0 
L 40.234375 6.546875 
Q 35.296875 -1.171875 25.734375 -1.171875 
Q 19.53125 -1.171875 14.328125 2.25 
Q 9.125 5.671875 6.265625 11.796875 
Q 3.421875 17.921875 3.421875 25.875 
Q 3.421875 33.640625 6 39.96875 
Q 8.59375 46.296875 13.765625 49.65625 
Q 18.953125 53.03125 25.34375 53.03125 
Q 30.03125 53.03125 33.6875 51.046875 
Q 37.359375 49.078125 39.65625 45.90625 
L 39.65625 71.578125 
L 48.390625 71.578125 
L 48.390625 0 
z
M 12.453125 25.875 
Q 12.453125 15.921875 16.640625 10.984375 
Q 20.84375 6.0625 26.5625 6.0625 
Q 32.328125 6.0625 36.34375 10.765625 
Q 40.375 15.484375 40.375 25.140625 
Q 40.375 35.796875 36.265625 40.765625 
Q 32.171875 45.75 26.171875 45.75 
Q 20.3125 45.75 16.375 40.96875 
Q 12.453125 36.1875 12.453125 25.875 
" id="ArialMT-64"/>
    </defs>
    <g style="fill:#262626;" transform="translate(488.7271 147.702012153)rotate(-270.0)scale(0.14300000000000002 -0.14300000000000002)">
     <use xlink:href="#ArialMT-63"/>
     <use x="50.0" xlink:href="#ArialMT-75"/>
     <use x="105.615234375" xlink:href="#ArialMT-74"/>
     <use x="133.3984375" xlink:href="#ArialMT-20"/>
     <use x="161.181640625" xlink:href="#ArialMT-3d"/>
     <use x="219.580078125" xlink:href="#ArialMT-20"/>
     <use x="247.36328125" xlink:href="#ArialMT-47"/>
     <use x="325.146484375" xlink:href="#ArialMT-6f"/>
     <use x="380.76171875" xlink:href="#ArialMT-6f"/>
     <use x="436.376953125" xlink:href="#ArialMT-64"/>
    </g>
   </g>
  </g>
  <g id="axes_3">
   <g id="patch_8">
    <path d="M 73.4875 348.655556 
L 477.79875 348.655556 
L 477.79875 245.044444 
L 73.4875 245.044444 
L 73.4875 348.655556 
z
" style="fill:none;"/>
   </g>
   <g id="matplotlib.axis_3">
    <g id="xtick_17">
     <g id="line2d_19">
      <g>
       <use style="fill:#262626;stroke:#262626;stroke-width:1.3;" x="73.4875" xlink:href="#m163fa7b1a0" y="348.655555556"/>
      </g>
     </g>
    </g>
    <g id="xtick_18">
     <g id="line2d_20">
      <g>
       <use style="fill:#262626;stroke:#262626;stroke-width:1.3;" x="127.395666667" xlink:href="#m163fa7b1a0" y="348.655555556"/>
      </g>
     </g>
    </g>
    <g id="xtick_19">
     <g id="line2d_21">
      <g>
       <use style="fill:#262626;stroke:#262626;stroke-width:1.3;" x="181.303833333" xlink:href="#m163fa7b1a0" y="348.655555556"/>
      </g>
     </g>
    </g>
    <g id="xtick_20">
     <g id="line2d_22">
      <g>
       <use style="fill:#262626;stroke:#262626;stroke-width:1.3;" x="235.212" xlink:href="#m163fa7b1a0" y="348.655555556"/>
      </g>
     </g>
    </g>
    <g id="xtick_21">
     <g id="line2d_23">
      <g>
       <use style="fill:#262626;stroke:#262626;stroke-width:1.3;" x="289.120166667" xlink:href="#m163fa7b1a0" y="348.655555556"/>
      </g>
     </g>
    </g>
    <g id="xtick_22">
     <g id="line2d_24">
      <g>
       <use style="fill:#262626;stroke:#262626;stroke-width:1.3;" x="343.028333333" xlink:href="#m163fa7b1a0" y="348.655555556"/>
      </g>
     </g>
    </g>
    <g id="xtick_23">
     <g id="line2d_25">
      <g>
       <use style="fill:#262626;stroke:#262626;stroke-width:1.3;" x="396.9365" xlink:href="#m163fa7b1a0" y="348.655555556"/>
      </g>
     </g>
    </g>
    <g id="xtick_24">
     <g id="line2d_26">
      <g>
       <use style="fill:#262626;stroke:#262626;stroke-width:1.3;" x="450.844666667" xlink:href="#m163fa7b1a0" y="348.655555556"/>
      </g>
     </g>
    </g>
   </g>
   <g id="PolyCollection_3">
    <path clip-path="url(#p01206cb42f)" d="M 39.331517 348.515746 
L 39.331517 348.655555 
L 43.934591 348.655555 
L 48.537666 348.655555 
L 53.14074 348.655555 
L 57.743815 348.655555 
L 62.34689 348.655555 
L 66.949964 348.655555 
L 71.553039 348.655555 
L 76.156114 348.655555 
L 80.759188 348.655555 
L 85.362263 348.655555 
L 89.965338 348.655555 
L 94.568412 348.655555 
L 99.171487 348.655555 
L 103.774561 348.655555 
L 108.377636 348.655555 
L 112.980711 348.655555 
L 117.583785 348.655555 
L 122.18686 348.655555 
L 126.789935 348.655555 
L 131.393009 348.655555 
L 135.996084 348.655555 
L 140.599159 348.655555 
L 145.202233 348.655555 
L 149.805308 348.655555 
L 154.408383 348.655555 
L 159.011457 348.655555 
L 163.614532 348.655555 
L 168.217606 348.655555 
L 172.820681 348.655555 
L 177.423756 348.655555 
L 182.02683 348.655555 
L 186.629905 348.655555 
L 191.23298 348.655555 
L 195.836054 348.655555 
L 200.439129 348.655555 
L 205.042204 348.655555 
L 209.645278 348.655555 
L 214.248353 348.655555 
L 218.851427 348.655555 
L 223.454502 348.655555 
L 228.057577 348.655555 
L 232.660651 348.655555 
L 237.263726 348.655555 
L 241.866801 348.655555 
L 246.469875 348.655555 
L 251.07295 348.655555 
L 255.676025 348.655555 
L 260.279099 348.655555 
L 264.882174 348.655555 
L 269.485248 348.655555 
L 274.088323 348.655555 
L 278.691398 348.655555 
L 283.294472 348.655555 
L 287.897547 348.655555 
L 292.500622 348.655555 
L 297.103696 348.655555 
L 301.706771 348.655555 
L 306.309846 348.655555 
L 310.91292 348.655555 
L 315.515995 348.655555 
L 320.119069 348.655555 
L 324.722144 348.655555 
L 329.325219 348.655555 
L 333.928293 348.655555 
L 338.531368 348.655555 
L 343.134443 348.655555 
L 347.737517 348.655555 
L 352.340592 348.655555 
L 356.943667 348.655555 
L 361.546741 348.655555 
L 366.149816 348.655555 
L 370.752891 348.655555 
L 375.355965 348.655555 
L 379.95904 348.655555 
L 384.562114 348.655555 
L 389.165189 348.655555 
L 393.768264 348.655555 
L 398.371338 348.655555 
L 402.974413 348.655555 
L 407.577488 348.655555 
L 412.180562 348.655555 
L 416.783637 348.655555 
L 421.386712 348.655555 
L 425.989786 348.655555 
L 430.592861 348.655555 
L 435.195935 348.655555 
L 439.79901 348.655555 
L 444.402085 348.655555 
L 449.005159 348.655555 
L 453.608234 348.655555 
L 458.211309 348.655555 
L 462.814383 348.655555 
L 467.417458 348.655555 
L 472.020533 348.655555 
L 476.623607 348.655555 
L 481.226682 348.655555 
L 485.829756 348.655555 
L 490.432831 348.655555 
L 495.035906 348.655555 
L 499.63898 348.655555 
L 504.242055 348.655555 
L 508.84513 348.655555 
L 513.448204 348.655555 
L 518.051279 348.655555 
L 522.654354 348.655555 
L 527.257428 348.655555 
L 531.860503 348.655555 
L 536.463577 348.655555 
L 541.066652 348.655555 
L 545.669727 348.655555 
L 550.272801 348.655555 
L 554.875876 348.655555 
L 559.478951 348.655555 
L 564.082025 348.655555 
L 568.6851 348.655555 
L 573.288175 348.655555 
L 577.891249 348.655555 
L 582.494324 348.655555 
L 587.097399 348.655555 
L 591.700473 348.655555 
L 596.303548 348.655555 
L 600.906622 348.655555 
L 605.509697 348.655555 
L 610.112772 348.655555 
L 614.715846 348.655555 
L 619.318921 348.655555 
L 623.921996 348.655555 
L 623.921996 348.607243 
L 623.921996 348.607243 
L 619.318921 348.635723 
L 614.715846 348.637126 
L 610.112772 348.621628 
L 605.509697 348.587124 
L 600.906622 348.525809 
L 596.303548 348.428272 
L 591.700473 348.287374 
L 587.097399 348.102156 
L 582.494324 347.880576 
L 577.891249 347.639611 
L 573.288175 347.402078 
L 568.6851 347.190972 
L 564.082025 347.02329 
L 559.478951 346.905677 
L 554.875876 346.833537 
L 550.272801 346.793881 
L 545.669727 346.770578 
L 541.066652 346.749565 
L 536.463577 346.721818 
L 531.860503 346.683391 
L 527.257428 346.633788 
L 522.654354 346.574668 
L 518.051279 346.509936 
L 513.448204 346.446343 
L 508.84513 346.392803 
L 504.242055 346.357547 
L 499.63898 346.344332 
L 495.035906 346.350229 
L 490.432831 346.366728 
L 485.829756 346.383627 
L 481.226682 346.393249 
L 476.623607 346.39253 
L 472.020533 346.382244 
L 467.417458 346.364564 
L 462.814383 346.340864 
L 458.211309 346.310945 
L 453.608234 346.273535 
L 449.005159 346.227096 
L 444.402085 346.170141 
L 439.79901 346.101158 
L 435.195935 346.018757 
L 430.592861 345.922393 
L 425.989786 345.813238 
L 421.386712 345.694379 
L 416.783637 345.570104 
L 412.180562 345.444881 
L 407.577488 345.322868 
L 402.974413 345.20814 
L 398.371338 345.104909 
L 393.768264 345.016746 
L 389.165189 344.944593 
L 384.562114 344.884548 
L 379.95904 344.827126 
L 375.355965 344.75917 
L 370.752891 344.667951 
L 366.149816 344.545584 
L 361.546741 344.391707 
L 356.943667 344.213445 
L 352.340592 344.023055 
L 347.737517 343.834298 
L 343.134443 343.658686 
L 338.531368 343.502754 
L 333.928293 343.367369 
L 329.325219 343.249346 
L 324.722144 343.144113 
L 320.119069 343.047177 
L 315.515995 342.952789 
L 310.91292 342.850589 
L 306.309846 342.723184 
L 301.706771 342.54781 
L 297.103696 342.302642 
L 292.500622 341.974867 
L 287.897547 341.565779 
L 283.294472 341.089664 
L 278.691398 340.567261 
L 274.088323 340.018035 
L 269.485248 339.455702 
L 264.882174 338.888204 
L 260.279099 338.319604 
L 255.676025 337.75037 
L 251.07295 337.174838 
L 246.469875 336.577836 
L 241.866801 335.933492 
L 237.263726 335.207736 
L 232.660651 334.363931 
L 228.057577 333.370403 
L 223.454502 332.209397 
L 218.851427 330.88737 
L 214.248353 329.44518 
L 209.645278 327.964163 
L 205.042204 326.56219 
L 200.439129 325.375034 
L 195.836054 324.523586 
L 191.23298 324.07515 
L 186.629905 324.013121 
L 182.02683 324.229151 
L 177.423756 324.544053 
L 172.820681 324.751679 
L 168.217606 324.670703 
L 163.614532 324.187463 
L 159.011457 323.278315 
L 154.408383 322.007572 
L 149.805308 320.502723 
L 145.202233 318.911436 
L 140.599159 317.347171 
L 135.996084 315.833742 
L 131.393009 314.26373 
L 126.789935 312.390205 
L 122.18686 309.874048 
L 117.583785 306.404745 
L 112.980711 301.889668 
L 108.377636 296.658582 
L 103.774561 291.57433 
L 99.171487 287.927047 
L 94.568412 287.066657 
L 89.965338 289.884671 
L 85.362263 296.393015 
L 80.759188 305.643272 
L 76.156114 316.053852 
L 71.553039 325.977156 
L 66.949964 334.214297 
L 62.34689 340.253169 
L 57.743815 344.194979 
L 53.14074 346.497312 
L 48.537666 347.704549 
L 43.934591 348.274022 
L 39.331517 348.515746 
z
" style="fill-opacity:0.25;stroke:#000000;stroke-opacity:0.25;stroke-width:0.39;"/>
   </g>
   <g id="line2d_27">
    <path clip-path="url(#p01206cb42f)" d="M 39.331517 348.515746 
L 43.934591 348.274022 
L 48.537666 347.704549 
L 53.14074 346.497312 
L 57.743815 344.194979 
L 62.34689 340.253169 
L 66.949964 334.214297 
L 71.553039 325.977156 
L 76.156114 316.053852 
L 80.759188 305.643272 
L 85.362263 296.393015 
L 89.965338 289.884671 
L 94.568412 287.066657 
L 99.171487 287.927047 
L 103.774561 291.57433 
L 112.980711 301.889668 
L 117.583785 306.404745 
L 122.18686 309.874048 
L 126.789935 312.390205 
L 131.393009 314.26373 
L 154.408383 322.007572 
L 159.011457 323.278315 
L 163.614532 324.187463 
L 168.217606 324.670703 
L 172.820681 324.751679 
L 182.02683 324.229151 
L 186.629905 324.013121 
L 191.23298 324.07515 
L 195.836054 324.523586 
L 200.439129 325.375034 
L 205.042204 326.56219 
L 214.248353 329.44518 
L 218.851427 330.88737 
L 223.454502 332.209397 
L 228.057577 333.370403 
L 232.660651 334.363931 
L 237.263726 335.207736 
L 246.469875 336.577836 
L 269.485248 339.455702 
L 283.294472 341.089664 
L 292.500622 341.974867 
L 301.706771 342.54781 
L 310.91292 342.850589 
L 343.134443 343.658686 
L 370.752891 344.667951 
L 458.211309 346.310945 
L 485.829756 346.383627 
L 507.88 346.385411 
L 507.88 346.385411 
" style="fill:none;stroke:#000000;stroke-linecap:round;stroke-width:2.275;"/>
   </g>
   <g id="patch_9">
    <path d="M 73.4875 348.655556 
L 477.79875 348.655556 
" style="fill:none;stroke:#262626;stroke-linecap:square;stroke-linejoin:miter;stroke-width:1.25;"/>
   </g>
   <g id="text_3">
    <g id="patch_10">
     <path d="M 480.164975 239.272391 
L 480.164975 354.427609 
L 505.024631 354.427609 
L 505.024631 239.272391 
L 480.164975 239.272391 
z
" style="fill:none;"/>
    </g>
    <!-- cut = Very Good -->
    <defs>
     <path d="M 28.171875 0 
L 0.4375 71.578125 
L 10.6875 71.578125 
L 29.296875 19.578125 
Q 31.546875 13.328125 33.0625 7.859375 
Q 34.71875 13.71875 36.921875 19.578125 
L 56.25 71.578125 
L 65.921875 71.578125 
L 37.890625 0 
z
" id="ArialMT-56"/>
     <path d="M 6.203125 -19.96875 
L 5.21875 -11.71875 
Q 8.109375 -12.5 10.25 -12.5 
Q 13.1875 -12.5 14.9375 -11.515625 
Q 16.703125 -10.546875 17.828125 -8.796875 
Q 18.65625 -7.46875 20.515625 -2.25 
Q 20.75 -1.515625 21.296875 -0.09375 
L 1.609375 51.859375 
L 11.078125 51.859375 
L 21.875 21.828125 
Q 23.96875 16.109375 25.640625 9.8125 
Q 27.15625 15.875 29.25 21.625 
L 40.328125 51.859375 
L 49.125 51.859375 
L 29.390625 -0.875 
Q 26.21875 -9.421875 24.46875 -12.640625 
Q 22.125 -17 19.09375 -19.015625 
Q 16.0625 -21.046875 11.859375 -21.046875 
Q 9.328125 -21.046875 6.203125 -19.96875 
" id="ArialMT-79"/>
     <path d="M 42.09375 16.703125 
L 51.171875 15.578125 
Q 49.03125 7.625 43.21875 3.21875 
Q 37.40625 -1.171875 28.375 -1.171875 
Q 17 -1.171875 10.328125 5.828125 
Q 3.65625 12.84375 3.65625 25.484375 
Q 3.65625 38.578125 10.390625 45.796875 
Q 17.140625 53.03125 27.875 53.03125 
Q 38.28125 53.03125 44.875 45.953125 
Q 51.46875 38.875 51.46875 26.03125 
Q 51.46875 25.25 51.421875 23.6875 
L 12.75 23.6875 
Q 13.234375 15.140625 17.578125 10.59375 
Q 21.921875 6.0625 28.421875 6.0625 
Q 33.25 6.0625 36.671875 8.59375 
Q 40.09375 11.140625 42.09375 16.703125 
M 13.234375 30.90625 
L 42.1875 30.90625 
Q 41.609375 37.453125 38.875 40.71875 
Q 34.671875 45.796875 27.984375 45.796875 
Q 21.921875 45.796875 17.796875 41.75 
Q 13.671875 37.703125 13.234375 30.90625 
" id="ArialMT-65"/>
    </defs>
    <g style="fill:#262626;" transform="translate(488.894678125 244.992390625)rotate(-270.0)scale(0.14300000000000002 -0.14300000000000002)">
     <use xlink:href="#ArialMT-63"/>
     <use x="50.0" xlink:href="#ArialMT-75"/>
     <use x="105.615234375" xlink:href="#ArialMT-74"/>
     <use x="133.3984375" xlink:href="#ArialMT-20"/>
     <use x="161.181640625" xlink:href="#ArialMT-3d"/>
     <use x="219.580078125" xlink:href="#ArialMT-20"/>
     <use x="247.36328125" xlink:href="#ArialMT-56"/>
     <use x="313.984375" xlink:href="#ArialMT-65"/>
     <use x="369.599609375" xlink:href="#ArialMT-72"/>
     <use x="402.900390625" xlink:href="#ArialMT-79"/>
     <use x="452.900390625" xlink:href="#ArialMT-20"/>
     <use x="480.68359375" xlink:href="#ArialMT-47"/>
     <use x="558.466796875" xlink:href="#ArialMT-6f"/>
     <use x="614.08203125" xlink:href="#ArialMT-6f"/>
     <use x="669.697265625" xlink:href="#ArialMT-64"/>
    </g>
   </g>
  </g>
  <g id="axes_4">
   <g id="patch_11">
    <path d="M 73.4875 462.627778 
L 477.79875 462.627778 
L 477.79875 359.016667 
L 73.4875 359.016667 
L 73.4875 462.627778 
z
" style="fill:none;"/>
   </g>
   <g id="matplotlib.axis_4">
    <g id="xtick_25">
     <g id="line2d_28">
      <g>
       <use style="fill:#262626;stroke:#262626;stroke-width:1.3;" x="73.4875" xlink:href="#m163fa7b1a0" y="462.627777778"/>
      </g>
     </g>
    </g>
    <g id="xtick_26">
     <g id="line2d_29">
      <g>
       <use style="fill:#262626;stroke:#262626;stroke-width:1.3;" x="127.395666667" xlink:href="#m163fa7b1a0" y="462.627777778"/>
      </g>
     </g>
    </g>
    <g id="xtick_27">
     <g id="line2d_30">
      <g>
       <use style="fill:#262626;stroke:#262626;stroke-width:1.3;" x="181.303833333" xlink:href="#m163fa7b1a0" y="462.627777778"/>
      </g>
     </g>
    </g>
    <g id="xtick_28">
     <g id="line2d_31">
      <g>
       <use style="fill:#262626;stroke:#262626;stroke-width:1.3;" x="235.212" xlink:href="#m163fa7b1a0" y="462.627777778"/>
      </g>
     </g>
    </g>
    <g id="xtick_29">
     <g id="line2d_32">
      <g>
       <use style="fill:#262626;stroke:#262626;stroke-width:1.3;" x="289.120166667" xlink:href="#m163fa7b1a0" y="462.627777778"/>
      </g>
     </g>
    </g>
    <g id="xtick_30">
     <g id="line2d_33">
      <g>
       <use style="fill:#262626;stroke:#262626;stroke-width:1.3;" x="343.028333333" xlink:href="#m163fa7b1a0" y="462.627777778"/>
      </g>
     </g>
    </g>
    <g id="xtick_31">
     <g id="line2d_34">
      <g>
       <use style="fill:#262626;stroke:#262626;stroke-width:1.3;" x="396.9365" xlink:href="#m163fa7b1a0" y="462.627777778"/>
      </g>
     </g>
    </g>
    <g id="xtick_32">
     <g id="line2d_35">
      <g>
       <use style="fill:#262626;stroke:#262626;stroke-width:1.3;" x="450.844666667" xlink:href="#m163fa7b1a0" y="462.627777778"/>
      </g>
     </g>
    </g>
   </g>
   <g id="PolyCollection_4">
    <path clip-path="url(#p33c3007ce9)" d="M 32.744342 462.549719 
L 32.744342 462.627778 
L 37.450091 462.627778 
L 42.155839 462.627778 
L 46.861588 462.627778 
L 51.567336 462.627778 
L 56.273085 462.627778 
L 60.978833 462.627778 
L 65.684582 462.627778 
L 70.39033 462.627778 
L 75.096079 462.627778 
L 79.801827 462.627778 
L 84.507576 462.627778 
L 89.213324 462.627778 
L 93.919073 462.627778 
L 98.624821 462.627778 
L 103.33057 462.627778 
L 108.036318 462.627778 
L 112.742067 462.627778 
L 117.447815 462.627778 
L 122.153563 462.627778 
L 126.859312 462.627778 
L 131.56506 462.627778 
L 136.270809 462.627778 
L 140.976557 462.627778 
L 145.682306 462.627778 
L 150.388054 462.627778 
L 155.093803 462.627778 
L 159.799551 462.627778 
L 164.5053 462.627778 
L 169.211048 462.627778 
L 173.916797 462.627778 
L 178.622545 462.627778 
L 183.328294 462.627778 
L 188.034042 462.627778 
L 192.739791 462.627778 
L 197.445539 462.627778 
L 202.151288 462.627778 
L 206.857036 462.627778 
L 211.562785 462.627778 
L 216.268533 462.627778 
L 220.974282 462.627778 
L 225.68003 462.627778 
L 230.385779 462.627778 
L 235.091527 462.627778 
L 239.797276 462.627778 
L 244.503024 462.627778 
L 249.208772 462.627778 
L 253.914521 462.627778 
L 258.620269 462.627778 
L 263.326018 462.627778 
L 268.031766 462.627778 
L 272.737515 462.627778 
L 277.443263 462.627778 
L 282.149012 462.627778 
L 286.85476 462.627778 
L 291.560509 462.627778 
L 296.266257 462.627778 
L 300.972006 462.627778 
L 305.677754 462.627778 
L 310.383503 462.627778 
L 315.089251 462.627778 
L 319.795 462.627778 
L 324.500748 462.627778 
L 329.206497 462.627778 
L 333.912245 462.627778 
L 338.617994 462.627778 
L 343.323742 462.627778 
L 348.029491 462.627778 
L 352.735239 462.627778 
L 357.440988 462.627778 
L 362.146736 462.627778 
L 366.852484 462.627778 
L 371.558233 462.627778 
L 376.263981 462.627778 
L 380.96973 462.627778 
L 385.675478 462.627778 
L 390.381227 462.627778 
L 395.086975 462.627778 
L 399.792724 462.627778 
L 404.498472 462.627778 
L 409.204221 462.627778 
L 413.909969 462.627778 
L 418.615718 462.627778 
L 423.321466 462.627778 
L 428.027215 462.627778 
L 432.732963 462.627778 
L 437.438712 462.627778 
L 442.14446 462.627778 
L 446.850209 462.627778 
L 451.555957 462.627778 
L 456.261706 462.627778 
L 460.967454 462.627778 
L 465.673203 462.627778 
L 470.378951 462.627778 
L 475.0847 462.627778 
L 479.790448 462.627778 
L 484.496196 462.627778 
L 489.201945 462.627778 
L 493.907693 462.627778 
L 498.613442 462.627778 
L 503.31919 462.627778 
L 508.024939 462.627778 
L 512.730687 462.627778 
L 517.436436 462.627778 
L 522.142184 462.627778 
L 526.847933 462.627778 
L 531.553681 462.627778 
L 536.25943 462.627778 
L 540.965178 462.627778 
L 545.670927 462.627778 
L 550.376675 462.627778 
L 555.082424 462.627778 
L 559.788172 462.627778 
L 564.493921 462.627778 
L 569.199669 462.627778 
L 573.905418 462.627778 
L 578.611166 462.627778 
L 583.316915 462.627778 
L 588.022663 462.627778 
L 592.728412 462.627778 
L 597.43416 462.627778 
L 602.139909 462.627778 
L 606.845657 462.627778 
L 611.551405 462.627778 
L 616.257154 462.627778 
L 620.962902 462.627778 
L 625.668651 462.627778 
L 630.374399 462.627778 
L 630.374399 462.596606 
L 630.374399 462.596606 
L 625.668651 462.610582 
L 620.962902 462.607355 
L 616.257154 462.590271 
L 611.551405 462.555867 
L 606.845657 462.496873 
L 602.139909 462.404453 
L 597.43416 462.270698 
L 592.728412 462.09144 
L 588.022663 461.868671 
L 583.316915 461.611514 
L 578.611166 461.33499 
L 573.905418 461.056697 
L 569.199669 460.792569 
L 564.493921 460.553408 
L 559.788172 460.34362 
L 555.082424 460.162489 
L 550.376675 460.007105 
L 545.670927 459.87528 
L 540.965178 459.766922 
L 536.25943 459.683314 
L 531.553681 459.624972 
L 526.847933 459.589551 
L 522.142184 459.571152 
L 517.436436 459.561442 
L 512.730687 459.55189 
L 508.024939 459.535884 
L 503.31919 459.509734 
L 498.613442 459.472348 
L 493.907693 459.424098 
L 489.201945 459.365626 
L 484.496196 459.297225 
L 479.790448 459.218973 
L 475.0847 459.131414 
L 470.378951 459.036298 
L 465.673203 458.936828 
L 460.967454 458.837188 
L 456.261706 458.741573 
L 451.555957 458.653334 
L 446.850209 458.574671 
L 442.14446 458.506906 
L 437.438712 458.450827 
L 432.732963 458.406565 
L 428.027215 458.372894 
L 423.321466 458.34636 
L 418.615718 458.320888 
L 413.909969 458.288293 
L 409.204221 458.239678 
L 404.498472 458.167409 
L 399.792724 458.067233 
L 395.086975 457.94008 
L 390.381227 457.792922 
L 385.675478 457.638034 
L 380.96973 457.4903 
L 376.263981 457.363088 
L 371.558233 457.264124 
L 366.852484 457.193139 
L 362.146736 457.142346 
L 357.440988 457.099362 
L 352.735239 457.051035 
L 348.029491 456.986398 
L 343.323742 456.897918 
L 338.617994 456.781429 
L 333.912245 456.635814 
L 329.206497 456.463079 
L 324.500748 456.268474 
L 319.795 456.05957 
L 315.089251 455.843659 
L 310.383503 455.624148 
L 305.677754 455.397947 
L 300.972006 455.155802 
L 296.266257 454.88585 
L 291.560509 454.578383 
L 286.85476 454.228677 
L 282.149012 453.835911 
L 277.443263 453.398932 
L 272.737515 452.91203 
L 268.031766 452.364023 
L 263.326018 451.741681 
L 258.620269 451.035456 
L 253.914521 450.243882 
L 249.208772 449.373885 
L 244.503024 448.437055 
L 239.797276 447.444545 
L 235.091527 446.404149 
L 230.385779 445.321766 
L 225.68003 444.20697 
L 220.974282 443.080275 
L 216.268533 441.978936 
L 211.562785 440.95866 
L 206.857036 440.089694 
L 202.151288 439.446826 
L 197.445539 439.09394 
L 192.739791 439.065441 
L 188.034042 439.349046 
L 183.328294 439.876054 
L 178.622545 440.524778 
L 173.916797 441.139417 
L 169.211048 441.561029 
L 164.5053 441.661579 
L 159.799551 441.36897 
L 155.093803 440.67251 
L 150.388054 439.604566 
L 145.682306 438.203237 
L 140.976557 436.469511 
L 136.270809 434.337706 
L 131.56506 431.678308 
L 126.859312 428.346526 
L 122.153563 424.276264 
L 117.447815 419.597169 
L 112.742067 414.72765 
L 108.036318 410.384149 
L 103.33057 407.464105 
L 98.624821 406.811844 
L 93.919073 408.942411 
L 89.213324 413.838553 
L 84.507576 420.917856 
L 79.801827 429.192724 
L 75.096079 437.555941 
L 70.39033 445.071645 
L 65.684582 451.163405 
L 60.978833 455.653514 
L 56.273085 458.67856 
L 51.567336 460.547638 
L 46.861588 461.609176 
L 42.155839 462.164205 
L 37.450091 462.431504 
L 32.744342 462.549719 
z
" style="fill-opacity:0.25;stroke:#000000;stroke-opacity:0.25;stroke-width:0.39;"/>
   </g>
   <g id="line2d_36">
    <path clip-path="url(#p33c3007ce9)" d="M 32.744342 462.549719 
L 37.450091 462.431504 
L 42.155839 462.164205 
L 46.861588 461.609176 
L 51.567336 460.547638 
L 56.273085 458.67856 
L 60.978833 455.653514 
L 65.684582 451.163405 
L 70.39033 445.071645 
L 75.096079 437.555941 
L 84.507576 420.917856 
L 89.213324 413.838553 
L 93.919073 408.942411 
L 98.624821 406.811844 
L 103.33057 407.464105 
L 108.036318 410.384149 
L 112.742067 414.72765 
L 117.447815 419.597169 
L 122.153563 424.276264 
L 126.859312 428.346526 
L 131.56506 431.678308 
L 136.270809 434.337706 
L 140.976557 436.469511 
L 145.682306 438.203237 
L 150.388054 439.604566 
L 155.093803 440.67251 
L 159.799551 441.36897 
L 164.5053 441.661579 
L 169.211048 441.561029 
L 173.916797 441.139417 
L 188.034042 439.349046 
L 192.739791 439.065441 
L 197.445539 439.09394 
L 202.151288 439.446826 
L 206.857036 440.089694 
L 211.562785 440.95866 
L 220.974282 443.080275 
L 235.091527 446.404149 
L 244.503024 448.437055 
L 253.914521 450.243882 
L 263.326018 451.741681 
L 272.737515 452.91203 
L 282.149012 453.835911 
L 291.560509 454.578383 
L 305.677754 455.397947 
L 329.206497 456.463079 
L 343.323742 456.897918 
L 362.146736 457.142346 
L 376.263981 457.363088 
L 413.909969 458.288293 
L 451.555957 458.653334 
L 498.613442 459.472348 
L 507.88 459.535079 
L 507.88 459.535079 
" style="fill:none;stroke:#000000;stroke-linecap:round;stroke-width:2.275;"/>
   </g>
   <g id="patch_12">
    <path d="M 73.4875 462.627778 
L 477.79875 462.627778 
" style="fill:none;stroke:#262626;stroke-linecap:square;stroke-linejoin:miter;stroke-width:1.25;"/>
   </g>
   <g id="text_4">
    <g id="patch_13">
     <path d="M 480.164975 358.813793 
L 480.164975 462.830652 
L 504.682772 462.830652 
L 504.682772 358.813793 
L 480.164975 358.813793 
z
" style="fill:none;"/>
    </g>
    <!-- cut = Premium -->
    <defs>
     <path d="M 6.59375 0 
L 6.59375 51.859375 
L 14.453125 51.859375 
L 14.453125 44.578125 
Q 16.890625 48.390625 20.9375 50.703125 
Q 25 53.03125 30.171875 53.03125 
Q 35.9375 53.03125 39.625 50.640625 
Q 43.3125 48.25 44.828125 43.953125 
Q 50.984375 53.03125 60.84375 53.03125 
Q 68.5625 53.03125 72.703125 48.75 
Q 76.859375 44.484375 76.859375 35.59375 
L 76.859375 0 
L 68.109375 0 
L 68.109375 32.671875 
Q 68.109375 37.9375 67.25 40.25 
Q 66.40625 42.578125 64.15625 43.984375 
Q 61.921875 45.40625 58.890625 45.40625 
Q 53.421875 45.40625 49.796875 41.765625 
Q 46.1875 38.140625 46.1875 30.125 
L 46.1875 0 
L 37.40625 0 
L 37.40625 33.6875 
Q 37.40625 39.546875 35.25 42.46875 
Q 33.109375 45.40625 28.21875 45.40625 
Q 24.515625 45.40625 21.359375 43.453125 
Q 18.21875 41.5 16.796875 37.734375 
Q 15.375 33.984375 15.375 26.90625 
L 15.375 0 
z
" id="ArialMT-6d"/>
     <path d="M 7.71875 0 
L 7.71875 71.578125 
L 34.71875 71.578125 
Q 41.84375 71.578125 45.609375 70.90625 
Q 50.875 70.015625 54.4375 67.546875 
Q 58.015625 65.09375 60.1875 60.640625 
Q 62.359375 56.203125 62.359375 50.875 
Q 62.359375 41.75 56.546875 35.421875 
Q 50.734375 29.109375 35.546875 29.109375 
L 17.1875 29.109375 
L 17.1875 0 
z
M 17.1875 37.546875 
L 35.6875 37.546875 
Q 44.875 37.546875 48.734375 40.96875 
Q 52.59375 44.390625 52.59375 50.59375 
Q 52.59375 55.078125 50.3125 58.265625 
Q 48.046875 61.46875 44.34375 62.5 
Q 41.9375 63.140625 35.5 63.140625 
L 17.1875 63.140625 
z
" id="ArialMT-50"/>
    </defs>
    <g style="fill:#262626;" transform="translate(488.7271 364.533792535)rotate(-270.0)scale(0.14300000000000002 -0.14300000000000002)">
     <use xlink:href="#ArialMT-63"/>
     <use x="50.0" xlink:href="#ArialMT-75"/>
     <use x="105.615234375" xlink:href="#ArialMT-74"/>
     <use x="133.3984375" xlink:href="#ArialMT-20"/>
     <use x="161.181640625" xlink:href="#ArialMT-3d"/>
     <use x="219.580078125" xlink:href="#ArialMT-20"/>
     <use x="247.36328125" xlink:href="#ArialMT-50"/>
     <use x="314.0625" xlink:href="#ArialMT-72"/>
     <use x="347.36328125" xlink:href="#ArialMT-65"/>
     <use x="402.978515625" xlink:href="#ArialMT-6d"/>
     <use x="486.279296875" xlink:href="#ArialMT-69"/>
     <use x="508.49609375" xlink:href="#ArialMT-75"/>
     <use x="564.111328125" xlink:href="#ArialMT-6d"/>
    </g>
   </g>
  </g>
  <g id="axes_5">
   <g id="patch_14">
    <path d="M 73.4875 576.6 
L 477.79875 576.6 
L 477.79875 472.988889 
L 73.4875 472.988889 
L 73.4875 576.6 
z
" style="fill:none;"/>
   </g>
   <g id="matplotlib.axis_5">
    <g id="xtick_33">
     <g id="line2d_37">
      <g>
       <use style="fill:#262626;stroke:#262626;stroke-width:1.3;" x="73.4875" xlink:href="#m163fa7b1a0" y="576.6"/>
      </g>
     </g>
     <g id="text_5">
      <!-- 0 -->
      <defs>
       <path d="M 4.15625 35.296875 
Q 4.15625 48 6.765625 55.734375 
Q 9.375 63.484375 14.515625 67.671875 
Q 19.671875 71.875 27.484375 71.875 
Q 33.25 71.875 37.59375 69.546875 
Q 41.9375 67.234375 44.765625 62.859375 
Q 47.609375 58.5 49.21875 52.21875 
Q 50.828125 45.953125 50.828125 35.296875 
Q 50.828125 22.703125 48.234375 14.96875 
Q 45.65625 7.234375 40.5 3 
Q 35.359375 -1.21875 27.484375 -1.21875 
Q 17.140625 -1.21875 11.234375 6.203125 
Q 4.15625 15.140625 4.15625 35.296875 
M 13.1875 35.296875 
Q 13.1875 17.671875 17.3125 11.828125 
Q 21.4375 6 27.484375 6 
Q 33.546875 6 37.671875 11.859375 
Q 41.796875 17.71875 41.796875 35.296875 
Q 41.796875 52.984375 37.671875 58.78125 
Q 33.546875 64.59375 27.390625 64.59375 
Q 21.34375 64.59375 17.71875 59.46875 
Q 13.1875 52.9375 13.1875 35.296875 
" id="ArialMT-30"/>
      </defs>
      <g style="fill:#262626;" transform="translate(69.872890625 601.00515625)scale(0.13 -0.13)">
       <use xlink:href="#ArialMT-30"/>
      </g>
     </g>
    </g>
    <g id="xtick_34">
     <g id="line2d_38">
      <g>
       <use style="fill:#262626;stroke:#262626;stroke-width:1.3;" x="127.395666667" xlink:href="#m163fa7b1a0" y="576.6"/>
      </g>
     </g>
     <g id="text_6">
      <!-- 2000 -->
      <defs>
       <path d="M 50.34375 8.453125 
L 50.34375 0 
L 3.03125 0 
Q 2.9375 3.171875 4.046875 6.109375 
Q 5.859375 10.9375 9.828125 15.625 
Q 13.8125 20.3125 21.34375 26.46875 
Q 33.015625 36.03125 37.109375 41.625 
Q 41.21875 47.21875 41.21875 52.203125 
Q 41.21875 57.421875 37.46875 61 
Q 33.734375 64.59375 27.734375 64.59375 
Q 21.390625 64.59375 17.578125 60.78125 
Q 13.765625 56.984375 13.71875 50.25 
L 4.6875 51.171875 
Q 5.609375 61.28125 11.65625 66.578125 
Q 17.71875 71.875 27.9375 71.875 
Q 38.234375 71.875 44.234375 66.15625 
Q 50.25 60.453125 50.25 52 
Q 50.25 47.703125 48.484375 43.546875 
Q 46.734375 39.40625 42.65625 34.8125 
Q 38.578125 30.21875 29.109375 22.21875 
Q 21.1875 15.578125 18.9375 13.203125 
Q 16.703125 10.84375 15.234375 8.453125 
z
" id="ArialMT-32"/>
      </defs>
      <g style="fill:#262626;" transform="translate(112.937229167 601.00515625)scale(0.13 -0.13)">
       <use xlink:href="#ArialMT-32"/>
       <use x="55.615234375" xlink:href="#ArialMT-30"/>
       <use x="111.23046875" xlink:href="#ArialMT-30"/>
       <use x="166.845703125" xlink:href="#ArialMT-30"/>
      </g>
     </g>
    </g>
    <g id="xtick_35">
     <g id="line2d_39">
      <g>
       <use style="fill:#262626;stroke:#262626;stroke-width:1.3;" x="181.303833333" xlink:href="#m163fa7b1a0" y="576.6"/>
      </g>
     </g>
     <g id="text_7">
      <!-- 4000 -->
      <defs>
       <path d="M 32.328125 0 
L 32.328125 17.140625 
L 1.265625 17.140625 
L 1.265625 25.203125 
L 33.9375 71.578125 
L 41.109375 71.578125 
L 41.109375 25.203125 
L 50.78125 25.203125 
L 50.78125 17.140625 
L 41.109375 17.140625 
L 41.109375 0 
z
M 32.328125 25.203125 
L 32.328125 57.46875 
L 9.90625 25.203125 
z
" id="ArialMT-34"/>
      </defs>
      <g style="fill:#262626;" transform="translate(166.845395833 601.00515625)scale(0.13 -0.13)">
       <use xlink:href="#ArialMT-34"/>
       <use x="55.615234375" xlink:href="#ArialMT-30"/>
       <use x="111.23046875" xlink:href="#ArialMT-30"/>
       <use x="166.845703125" xlink:href="#ArialMT-30"/>
      </g>
     </g>
    </g>
    <g id="xtick_36">
     <g id="line2d_40">
      <g>
       <use style="fill:#262626;stroke:#262626;stroke-width:1.3;" x="235.212" xlink:href="#m163fa7b1a0" y="576.6"/>
      </g>
     </g>
     <g id="text_8">
      <!-- 6000 -->
      <defs>
       <path d="M 49.75 54.046875 
L 41.015625 53.375 
Q 39.84375 58.546875 37.703125 60.890625 
Q 34.125 64.65625 28.90625 64.65625 
Q 24.703125 64.65625 21.53125 62.3125 
Q 17.390625 59.28125 14.984375 53.46875 
Q 12.59375 47.65625 12.5 36.921875 
Q 15.671875 41.75 20.265625 44.09375 
Q 24.859375 46.4375 29.890625 46.4375 
Q 38.671875 46.4375 44.84375 39.96875 
Q 51.03125 33.5 51.03125 23.25 
Q 51.03125 16.5 48.125 10.71875 
Q 45.21875 4.9375 40.140625 1.859375 
Q 35.0625 -1.21875 28.609375 -1.21875 
Q 17.625 -1.21875 10.6875 6.859375 
Q 3.765625 14.9375 3.765625 33.5 
Q 3.765625 54.25 11.421875 63.671875 
Q 18.109375 71.875 29.4375 71.875 
Q 37.890625 71.875 43.28125 67.140625 
Q 48.6875 62.40625 49.75 54.046875 
M 13.875 23.1875 
Q 13.875 18.65625 15.796875 14.5 
Q 17.71875 10.359375 21.1875 8.171875 
Q 24.65625 6 28.46875 6 
Q 34.03125 6 38.03125 10.484375 
Q 42.046875 14.984375 42.046875 22.703125 
Q 42.046875 30.125 38.078125 34.390625 
Q 34.125 38.671875 28.125 38.671875 
Q 22.171875 38.671875 18.015625 34.390625 
Q 13.875 30.125 13.875 23.1875 
" id="ArialMT-36"/>
      </defs>
      <g style="fill:#262626;" transform="translate(220.7535625 601.00515625)scale(0.13 -0.13)">
       <use xlink:href="#ArialMT-36"/>
       <use x="55.615234375" xlink:href="#ArialMT-30"/>
       <use x="111.23046875" xlink:href="#ArialMT-30"/>
       <use x="166.845703125" xlink:href="#ArialMT-30"/>
      </g>
     </g>
    </g>
    <g id="xtick_37">
     <g id="line2d_41">
      <g>
       <use style="fill:#262626;stroke:#262626;stroke-width:1.3;" x="289.120166667" xlink:href="#m163fa7b1a0" y="576.6"/>
      </g>
     </g>
     <g id="text_9">
      <!-- 8000 -->
      <defs>
       <path d="M 17.671875 38.8125 
Q 12.203125 40.828125 9.5625 44.53125 
Q 6.9375 48.25 6.9375 53.421875 
Q 6.9375 61.234375 12.546875 66.546875 
Q 18.171875 71.875 27.484375 71.875 
Q 36.859375 71.875 42.578125 66.421875 
Q 48.296875 60.984375 48.296875 53.171875 
Q 48.296875 48.1875 45.671875 44.5 
Q 43.0625 40.828125 37.75 38.8125 
Q 44.34375 36.671875 47.78125 31.875 
Q 51.21875 27.09375 51.21875 20.453125 
Q 51.21875 11.28125 44.71875 5.03125 
Q 38.234375 -1.21875 27.640625 -1.21875 
Q 17.046875 -1.21875 10.546875 5.046875 
Q 4.046875 11.328125 4.046875 20.703125 
Q 4.046875 27.6875 7.59375 32.390625 
Q 11.140625 37.109375 17.671875 38.8125 
M 15.921875 53.71875 
Q 15.921875 48.640625 19.1875 45.40625 
Q 22.46875 42.1875 27.6875 42.1875 
Q 32.765625 42.1875 36.015625 45.375 
Q 39.265625 48.578125 39.265625 53.21875 
Q 39.265625 58.0625 35.90625 61.359375 
Q 32.5625 64.65625 27.59375 64.65625 
Q 22.5625 64.65625 19.234375 61.421875 
Q 15.921875 58.203125 15.921875 53.71875 
M 13.09375 20.65625 
Q 13.09375 16.890625 14.875 13.375 
Q 16.65625 9.859375 20.171875 7.921875 
Q 23.6875 6 27.734375 6 
Q 34.03125 6 38.125 10.046875 
Q 42.234375 14.109375 42.234375 20.359375 
Q 42.234375 26.703125 38.015625 30.859375 
Q 33.796875 35.015625 27.4375 35.015625 
Q 21.234375 35.015625 17.15625 30.90625 
Q 13.09375 26.8125 13.09375 20.65625 
" id="ArialMT-38"/>
      </defs>
      <g style="fill:#262626;" transform="translate(274.661729167 601.00515625)scale(0.13 -0.13)">
       <use xlink:href="#ArialMT-38"/>
       <use x="55.615234375" xlink:href="#ArialMT-30"/>
       <use x="111.23046875" xlink:href="#ArialMT-30"/>
       <use x="166.845703125" xlink:href="#ArialMT-30"/>
      </g>
     </g>
    </g>
    <g id="xtick_38">
     <g id="line2d_42">
      <g>
       <use style="fill:#262626;stroke:#262626;stroke-width:1.3;" x="343.028333333" xlink:href="#m163fa7b1a0" y="576.6"/>
      </g>
     </g>
     <g id="text_10">
      <!-- 10000 -->
      <defs>
       <path d="M 37.25 0 
L 28.46875 0 
L 28.46875 56 
Q 25.296875 52.984375 20.140625 49.953125 
Q 14.984375 46.921875 10.890625 45.40625 
L 10.890625 53.90625 
Q 18.265625 57.375 23.78125 62.296875 
Q 29.296875 67.234375 31.59375 71.875 
L 37.25 71.875 
z
" id="ArialMT-31"/>
      </defs>
      <g style="fill:#262626;" transform="translate(324.955286458 601.00515625)scale(0.13 -0.13)">
       <use xlink:href="#ArialMT-31"/>
       <use x="55.615234375" xlink:href="#ArialMT-30"/>
       <use x="111.23046875" xlink:href="#ArialMT-30"/>
       <use x="166.845703125" xlink:href="#ArialMT-30"/>
       <use x="222.4609375" xlink:href="#ArialMT-30"/>
      </g>
     </g>
    </g>
    <g id="xtick_39">
     <g id="line2d_43">
      <g>
       <use style="fill:#262626;stroke:#262626;stroke-width:1.3;" x="396.9365" xlink:href="#m163fa7b1a0" y="576.6"/>
      </g>
     </g>
     <g id="text_11">
      <!-- 12000 -->
      <g style="fill:#262626;" transform="translate(378.863453125 601.00515625)scale(0.13 -0.13)">
       <use xlink:href="#ArialMT-31"/>
       <use x="55.615234375" xlink:href="#ArialMT-32"/>
       <use x="111.23046875" xlink:href="#ArialMT-30"/>
       <use x="166.845703125" xlink:href="#ArialMT-30"/>
       <use x="222.4609375" xlink:href="#ArialMT-30"/>
      </g>
     </g>
    </g>
    <g id="xtick_40">
     <g id="line2d_44">
      <g>
       <use style="fill:#262626;stroke:#262626;stroke-width:1.3;" x="450.844666667" xlink:href="#m163fa7b1a0" y="576.6"/>
      </g>
     </g>
     <g id="text_12">
      <!-- 14000 -->
      <g style="fill:#262626;" transform="translate(432.771619792 601.00515625)scale(0.13 -0.13)">
       <use xlink:href="#ArialMT-31"/>
       <use x="55.615234375" xlink:href="#ArialMT-34"/>
       <use x="111.23046875" xlink:href="#ArialMT-30"/>
       <use x="166.845703125" xlink:href="#ArialMT-30"/>
       <use x="222.4609375" xlink:href="#ArialMT-30"/>
      </g>
     </g>
    </g>
    <g id="text_13">
     <!-- price -->
     <defs>
      <path d="M 6.59375 -19.875 
L 6.59375 51.859375 
L 14.59375 51.859375 
L 14.59375 45.125 
Q 17.4375 49.078125 21 51.046875 
Q 24.5625 53.03125 29.640625 53.03125 
Q 36.28125 53.03125 41.359375 49.609375 
Q 46.4375 46.1875 49.015625 39.953125 
Q 51.609375 33.734375 51.609375 26.3125 
Q 51.609375 18.359375 48.75 11.984375 
Q 45.90625 5.609375 40.453125 2.21875 
Q 35.015625 -1.171875 29 -1.171875 
Q 24.609375 -1.171875 21.109375 0.6875 
Q 17.625 2.546875 15.375 5.375 
L 15.375 -19.875 
z
M 14.546875 25.640625 
Q 14.546875 15.625 18.59375 10.84375 
Q 22.65625 6.0625 28.421875 6.0625 
Q 34.28125 6.0625 38.453125 11.015625 
Q 42.625 15.96875 42.625 26.375 
Q 42.625 36.28125 38.546875 41.203125 
Q 34.46875 46.140625 28.8125 46.140625 
Q 23.1875 46.140625 18.859375 40.890625 
Q 14.546875 35.640625 14.546875 25.640625 
" id="ArialMT-70"/>
     </defs>
     <g style="fill:#262626;" transform="translate(260.146617187 618.824578125)scale(0.14300000000000002 -0.14300000000000002)">
      <use xlink:href="#ArialMT-70"/>
      <use x="55.615234375" xlink:href="#ArialMT-72"/>
      <use x="88.916015625" xlink:href="#ArialMT-69"/>
      <use x="111.1328125" xlink:href="#ArialMT-63"/>
      <use x="161.1328125" xlink:href="#ArialMT-65"/>
     </g>
    </g>
   </g>
   <g id="PolyCollection_5">
    <path clip-path="url(#p0905e9d3b5)" d="M 49.481838 576.522094 
L 49.481838 576.6 
L 53.920396 576.6 
L 58.358954 576.6 
L 62.797512 576.6 
L 67.23607 576.6 
L 71.674627 576.6 
L 76.113185 576.6 
L 80.551743 576.6 
L 84.990301 576.6 
L 89.428859 576.6 
L 93.867417 576.6 
L 98.305974 576.6 
L 102.744532 576.6 
L 107.18309 576.6 
L 111.621648 576.6 
L 116.060206 576.6 
L 120.498764 576.6 
L 124.937321 576.6 
L 129.375879 576.6 
L 133.814437 576.6 
L 138.252995 576.6 
L 142.691553 576.6 
L 147.130111 576.6 
L 151.568669 576.6 
L 156.007226 576.6 
L 160.445784 576.6 
L 164.884342 576.6 
L 169.3229 576.6 
L 173.761458 576.6 
L 178.200016 576.6 
L 182.638573 576.6 
L 187.077131 576.6 
L 191.515689 576.6 
L 195.954247 576.6 
L 200.392805 576.6 
L 204.831363 576.6 
L 209.26992 576.6 
L 213.708478 576.6 
L 218.147036 576.6 
L 222.585594 576.6 
L 227.024152 576.6 
L 231.46271 576.6 
L 235.901268 576.6 
L 240.339825 576.6 
L 244.778383 576.6 
L 249.216941 576.6 
L 253.655499 576.6 
L 258.094057 576.6 
L 262.532615 576.6 
L 266.971172 576.6 
L 271.40973 576.6 
L 275.848288 576.6 
L 280.286846 576.6 
L 284.725404 576.6 
L 289.163962 576.6 
L 293.60252 576.6 
L 298.041077 576.6 
L 302.479635 576.6 
L 306.918193 576.6 
L 311.356751 576.6 
L 315.795309 576.6 
L 320.233867 576.6 
L 324.672424 576.6 
L 329.110982 576.6 
L 333.54954 576.6 
L 337.988098 576.6 
L 342.426656 576.6 
L 346.865214 576.6 
L 351.303771 576.6 
L 355.742329 576.6 
L 360.180887 576.6 
L 364.619445 576.6 
L 369.058003 576.6 
L 373.496561 576.6 
L 377.935119 576.6 
L 382.373676 576.6 
L 386.812234 576.6 
L 391.250792 576.6 
L 395.68935 576.6 
L 400.127908 576.6 
L 404.566466 576.6 
L 409.005023 576.6 
L 413.443581 576.6 
L 417.882139 576.6 
L 422.320697 576.6 
L 426.759255 576.6 
L 431.197813 576.6 
L 435.63637 576.6 
L 440.074928 576.6 
L 444.513486 576.6 
L 448.952044 576.6 
L 453.390602 576.6 
L 457.82916 576.6 
L 462.267718 576.6 
L 466.706275 576.6 
L 471.144833 576.6 
L 475.583391 576.6 
L 480.021949 576.6 
L 484.460507 576.6 
L 488.899065 576.6 
L 493.337622 576.6 
L 497.77618 576.6 
L 502.214738 576.6 
L 506.653296 576.6 
L 511.091854 576.6 
L 515.530412 576.6 
L 519.968969 576.6 
L 524.407527 576.6 
L 528.846085 576.6 
L 533.284643 576.6 
L 537.723201 576.6 
L 542.161759 576.6 
L 546.600317 576.6 
L 551.038874 576.6 
L 555.477432 576.6 
L 559.91599 576.6 
L 564.354548 576.6 
L 568.793106 576.6 
L 573.231664 576.6 
L 577.670221 576.6 
L 582.108779 576.6 
L 586.547337 576.6 
L 590.985895 576.6 
L 595.424453 576.6 
L 599.863011 576.6 
L 604.301568 576.6 
L 608.740126 576.6 
L 613.178684 576.6 
L 613.178684 576.580174 
L 613.178684 576.580174 
L 608.740126 576.588905 
L 604.301568 576.577074 
L 599.863011 576.543277 
L 595.424453 576.474652 
L 590.985895 576.356378 
L 586.547337 576.181019 
L 582.108779 575.956906 
L 577.670221 575.710251 
L 573.231664 575.477915 
L 568.793106 575.293664 
L 564.354548 575.174915 
L 559.91599 575.116606 
L 555.477432 575.095393 
L 551.038874 575.082449 
L 546.600317 575.057974 
L 542.161759 575.018574 
L 537.723201 574.973448 
L 533.284643 574.934194 
L 528.846085 574.907178 
L 524.407527 574.892479 
L 519.968969 574.886051 
L 515.530412 574.881161 
L 511.091854 574.870038 
L 506.653296 574.848022 
L 502.214738 574.817897 
L 497.77618 574.789424 
L 493.337622 574.773136 
L 488.899065 574.772822 
L 484.460507 574.78152 
L 480.021949 574.78357 
L 475.583391 574.76315 
L 471.144833 574.715361 
L 466.706275 574.650934 
L 462.267718 574.5888 
L 457.82916 574.542308 
L 453.390602 574.511187 
L 448.952044 574.484233 
L 444.513486 574.447015 
L 440.074928 574.387383 
L 435.63637 574.29771 
L 431.197813 574.17687 
L 426.759255 574.032998 
L 422.320697 573.884145 
L 417.882139 573.753332 
L 413.443581 573.659025 
L 409.005023 573.606781 
L 404.566466 573.586557 
L 400.127908 573.574903 
L 395.68935 573.54019 
L 391.250792 573.452312 
L 386.812234 573.296689 
L 382.373676 573.084896 
L 377.935119 572.852262 
L 373.496561 572.641705 
L 369.058003 572.484115 
L 364.619445 572.387555 
L 360.180887 572.339588 
L 355.742329 572.31657 
L 351.303771 572.290691 
L 346.865214 572.232762 
L 342.426656 572.117149 
L 337.988098 571.932897 
L 333.54954 571.693801 
L 329.110982 571.435733 
L 324.672424 571.200167 
L 320.233867 571.016175 
L 315.795309 570.892764 
L 311.356751 570.821238 
L 306.918193 570.780231 
L 302.479635 570.740632 
L 298.041077 570.672839 
L 293.60252 570.555675 
L 289.163962 570.381659 
L 284.725404 570.155889 
L 280.286846 569.891065 
L 275.848288 569.601476 
L 271.40973 569.296892 
L 266.971172 568.97941 
L 262.532615 568.648386 
L 258.094057 568.311972 
L 253.655499 567.992119 
L 249.216941 567.71032 
L 244.778383 567.46083 
L 240.339825 567.196722 
L 235.901268 566.846427 
L 231.46271 566.35062 
L 227.024152 565.693688 
L 222.585594 564.913836 
L 218.147036 564.092752 
L 213.708478 563.332542 
L 209.26992 562.727691 
L 204.831363 562.339575 
L 200.392805 562.179149 
L 195.954247 562.199529 
L 191.515689 562.298539 
L 187.077131 562.333157 
L 182.638573 562.148998 
L 178.200016 561.622392 
L 173.761458 560.700369 
L 169.3229 559.41571 
L 164.884342 557.863486 
L 160.445784 556.149747 
L 156.007226 554.340563 
L 151.568669 552.432384 
L 147.130111 550.345065 
L 142.691553 547.937923 
L 138.252995 545.062802 
L 133.814437 541.641686 
L 129.375879 537.674649 
L 124.937321 533.06563 
L 120.498764 527.344937 
L 116.060206 519.660916 
L 111.621648 509.407507 
L 107.18309 497.309487 
L 102.744532 486.098072 
L 98.305974 479.862418 
L 93.867417 482.077595 
L 89.428859 493.514718 
L 84.990301 511.5779 
L 80.551743 531.612689 
L 76.113185 549.224446 
L 71.674627 562.008849 
L 67.23607 569.811648 
L 62.797512 573.851565 
L 58.358954 575.634112 
L 53.920396 576.305922 
L 49.481838 576.522094 
z
" style="fill-opacity:0.25;stroke:#000000;stroke-opacity:0.25;stroke-width:0.39;"/>
   </g>
   <g id="line2d_45">
    <path clip-path="url(#p0905e9d3b5)" d="M 49.481838 576.522094 
L 53.920396 576.305922 
L 58.358954 575.634112 
L 62.797512 573.851565 
L 67.23607 569.811648 
L 71.674627 562.008849 
L 76.113185 549.224446 
L 80.551743 531.612689 
L 84.990301 511.5779 
L 89.428859 493.514718 
L 93.867417 482.077595 
L 98.305974 479.862418 
L 102.744532 486.098072 
L 107.18309 497.309487 
L 111.621648 509.407507 
L 116.060206 519.660916 
L 120.498764 527.344937 
L 124.937321 533.06563 
L 129.375879 537.674649 
L 133.814437 541.641686 
L 138.252995 545.062802 
L 142.691553 547.937923 
L 147.130111 550.345065 
L 151.568669 552.432384 
L 160.445784 556.149747 
L 164.884342 557.863486 
L 169.3229 559.41571 
L 173.761458 560.700369 
L 178.200016 561.622392 
L 182.638573 562.148998 
L 187.077131 562.333157 
L 200.392805 562.179149 
L 204.831363 562.339575 
L 209.26992 562.727691 
L 213.708478 563.332542 
L 231.46271 566.35062 
L 235.901268 566.846427 
L 244.778383 567.46083 
L 258.094057 568.311972 
L 280.286846 569.891065 
L 289.163962 570.381659 
L 298.041077 570.672839 
L 320.233867 571.016175 
L 329.110982 571.435733 
L 342.426656 572.117149 
L 351.303771 572.290691 
L 369.058003 572.484115 
L 377.935119 572.852262 
L 391.250792 573.452312 
L 400.127908 573.574903 
L 413.443581 573.659025 
L 426.759255 574.032998 
L 440.074928 574.387383 
L 475.583391 574.76315 
L 507.88 574.854107 
L 507.88 574.854107 
" style="fill:none;stroke:#000000;stroke-linecap:round;stroke-width:2.275;"/>
   </g>
   <g id="patch_15">
    <path d="M 73.4875 576.6 
L 477.79875 576.6 
" style="fill:none;stroke:#262626;stroke-linecap:square;stroke-linejoin:miter;stroke-width:1.25;"/>
   </g>
   <g id="text_14">
    <g id="patch_16">
     <path d="M 480.164975 485.885038 
L 480.164975 563.703851 
L 504.682772 563.703851 
L 504.682772 485.885038 
L 480.164975 485.885038 
z
" style="fill:none;"/>
    </g>
    <!-- cut = Ideal -->
    <defs>
     <path d="M 9.328125 0 
L 9.328125 71.578125 
L 18.796875 71.578125 
L 18.796875 0 
z
" id="ArialMT-49"/>
     <path d="M 6.390625 0 
L 6.390625 71.578125 
L 15.1875 71.578125 
L 15.1875 0 
z
" id="ArialMT-6c"/>
    </defs>
    <g style="fill:#262626;" transform="translate(488.7271 491.605038194)rotate(-270.0)scale(0.14300000000000002 -0.14300000000000002)">
     <use xlink:href="#ArialMT-63"/>
     <use x="50.0" xlink:href="#ArialMT-75"/>
     <use x="105.615234375" xlink:href="#ArialMT-74"/>
     <use x="133.3984375" xlink:href="#ArialMT-20"/>
     <use x="161.181640625" xlink:href="#ArialMT-3d"/>
     <use x="219.580078125" xlink:href="#ArialMT-20"/>
     <use x="247.36328125" xlink:href="#ArialMT-49"/>
     <use x="275.146484375" xlink:href="#ArialMT-64"/>
     <use x="330.76171875" xlink:href="#ArialMT-65"/>
     <use x="386.376953125" xlink:href="#ArialMT-61"/>
     <use x="441.9921875" xlink:href="#ArialMT-6c"/>
    </g>
   </g>
  </g>
 </g>
 <defs>
  <clipPath id="pf226931ac4">
   <rect height="103.611111111" width="404.31125" x="73.4875" y="131.072222222"/>
  </clipPath>
  <clipPath id="p7959082600">
   <rect height="103.611111111" width="404.31125" x="73.4875" y="17.1"/>
  </clipPath>
  <clipPath id="p33c3007ce9">
   <rect height="103.611111111" width="404.31125" x="73.4875" y="359.016666667"/>
  </clipPath>
  <clipPath id="p01206cb42f">
   <rect height="103.611111111" width="404.31125" x="73.4875" y="245.044444444"/>
  </clipPath>
  <clipPath id="p0905e9d3b5">
   <rect height="103.611111111" width="404.31125" x="73.4875" y="472.988888889"/>
  </clipPath>
 </defs>
</svg>
